<svg width="70" height="70" viewBox="0 0 70 70" fill="none" xmlns="http://www.w3.org/2000/svg">
<g filter="url(#filter0_d_2216_68320)">
<rect x="10" y="7" width="50" height="50" fill="#E7F2FC"/>
</g>
<path d="M50.4134 34.3118C50.222 34.3118 50.0307 34.2554 49.8541 34.1426C49.4126 33.8465 49.2948 33.2544 49.6039 32.8315C50.6488 31.3795 51.2228 29.5891 51.2228 27.7987C51.2228 22.8928 47.0284 18.9032 41.8773 18.9032C36.7262 18.9032 32.5317 22.8928 32.5317 27.7987C32.5317 28.4754 32.6494 29.2226 32.7525 29.8146C32.8408 30.3363 32.4728 30.8156 31.943 30.9002C31.4132 30.9988 30.8981 30.6464 30.8098 30.1248C30.692 29.4622 30.5596 28.6164 30.5596 27.7987C30.5596 21.8495 35.6371 17 41.892 17C48.1469 17 53.2097 21.8355 53.2097 27.7987C53.2097 29.9979 52.5327 32.0984 51.2375 33.9029C51.0315 34.1708 50.7224 34.3118 50.4134 34.3118Z" fill="#0E80E1"/>
<path d="M37.9028 46.9988C37.8881 46.9988 37.8734 46.9988 37.844 46.9988C36.0337 46.9565 31.9423 45.4481 27.9097 43.9115C26.9236 43.5308 26.1436 43.2348 25.761 43.1079C25.2459 42.9387 24.9662 42.403 25.1428 41.9096C25.3195 41.4162 25.8787 41.1483 26.3938 41.3175C26.8059 41.4444 27.6154 41.7545 28.6456 42.1493C31.3242 43.1643 36.2986 45.0675 37.8881 45.1097C37.9028 45.1097 37.9028 45.1097 37.9176 45.1097C39.9633 45.1097 49.3677 40.0769 50.9425 37.4125C51.0602 37.2151 51.1191 37.06 51.1632 36.9614C49.6915 36.7922 44.3785 38.9209 43.4807 39.5553C43.0539 39.8655 42.4358 39.795 42.0973 39.4002C41.7735 39.0055 41.803 38.4416 42.215 38.1033C42.7449 37.6803 50.4862 33.874 52.5761 35.5234C53.1059 35.9463 53.5622 36.7781 52.6497 38.3429C50.8247 41.4726 40.8316 46.9988 37.9028 46.9988Z" fill="#0E80E1"/>
<path d="M40.1253 41.6556C39.7132 41.6556 39.2864 41.6133 38.8449 41.5428L38.5358 41.4864C36.5196 41.1199 34.621 40.7815 32.4576 40.1189C31.9424 39.9639 31.6481 39.4281 31.81 38.9347C31.9719 38.4413 32.5164 38.1594 33.0463 38.3144C35.092 38.9347 36.8433 39.2449 38.8891 39.6255L39.1981 39.6819C40.4344 39.9075 41.3322 39.6537 41.7442 39.3718C41.8914 39.2731 41.9356 39.1885 41.9356 39.1744C41.9356 39.0898 41.5971 38.54 39.9487 38.0607C36.9905 37.1866 35.2539 35.9602 33.8557 34.9733C32.9874 34.3671 32.3104 33.8878 31.5745 33.6623C29.6024 33.0843 24.937 34.0288 22.6852 35.8192C22.2584 36.1575 21.6403 36.1011 21.3018 35.7064C20.9485 35.3117 21.0074 34.7055 21.4195 34.3812C24.2158 32.1397 29.6612 31.1247 32.1632 31.8719C33.2229 32.1961 34.0618 32.7882 35.0331 33.4649C36.3724 34.4094 37.8883 35.4808 40.5374 36.2562C44.1579 37.3135 43.996 39.1039 43.8636 39.6255C43.5398 40.8661 42.0092 41.6556 40.1253 41.6556Z" fill="#0E80E1"/>
<path d="M20.1537 45.7159C19.6975 45.7159 19.2854 45.4058 19.1824 44.9688L18.7703 43.1361C18.6525 42.6286 19.0058 42.1211 19.5356 42.0083C20.0801 41.8955 20.5952 42.2198 20.713 42.7414L20.919 43.6577L22.8764 43.263L20.9043 34.2124L18.9469 34.6071L20.139 39.9078C20.2567 40.4153 19.9182 40.9228 19.3737 41.0356C18.8586 41.1483 18.314 40.8241 18.1963 40.3025L16.8129 34.0714C16.754 33.8317 16.8129 33.5639 16.9453 33.3524C17.0925 33.1409 17.3133 33 17.5782 32.9436L21.4636 32.1682C22.0081 32.0554 22.5232 32.3938 22.6262 32.9013L25.0105 43.7987C25.0693 44.0383 25.0105 44.3062 24.8633 44.5036C24.7161 44.715 24.4954 44.856 24.2452 44.9124L20.3598 45.6877C20.2862 45.7159 20.2126 45.7159 20.1537 45.7159Z" fill="#0E80E1"/>
<path d="M41.8766 28.8134C39.36 28.8134 37.4614 27.4741 37.4614 25.6978C37.4614 23.9779 39.4041 22.6387 41.8766 22.6387C44.3197 22.6387 46.233 23.9779 46.233 25.6978C46.233 26.2194 45.7915 26.6424 45.2469 26.6424C44.7024 26.6424 44.2609 26.2194 44.2609 25.6978C44.2609 25.1621 43.2159 24.5277 41.8766 24.5277C40.3608 24.5277 39.4336 25.2044 39.4336 25.6978C39.4336 26.2758 40.4343 26.9243 41.8766 26.9243C42.4212 26.9243 42.8627 27.3472 42.8627 27.8689C42.8627 28.3905 42.4212 28.8134 41.8766 28.8134Z" fill="#0E80E1"/>
<path d="M41.8766 33.0422C39.4041 33.0422 37.4614 31.7029 37.4614 29.983C37.4614 29.4614 37.9029 29.0385 38.4475 29.0385C38.992 29.0385 39.4336 29.4614 39.4336 29.983C39.4336 30.4764 40.3608 31.1531 41.8766 31.1531C43.2159 31.1531 44.2609 30.5187 44.2609 29.983C44.2609 29.4473 43.2159 28.8129 41.8766 28.8129C41.3321 28.8129 40.8906 28.39 40.8906 27.8684C40.8906 27.3468 41.3321 26.9238 41.8766 26.9238C44.3197 26.9238 46.233 28.2631 46.233 29.983C46.233 31.6888 44.3197 33.0422 41.8766 33.0422Z" fill="#0E80E1"/>
<path d="M41.8772 24.5271C41.3326 24.5271 40.8911 24.1042 40.8911 23.5826V21.7922C40.8911 21.2706 41.3326 20.8477 41.8772 20.8477C42.4217 20.8477 42.8633 21.2706 42.8633 21.7922V23.5685C42.8633 24.1042 42.4217 24.5271 41.8772 24.5271Z" fill="#0E80E1"/>
<path d="M41.8772 34.876C41.3326 34.876 40.8911 34.4531 40.8911 33.9315V32.0988C40.8911 31.5772 41.3326 31.1543 41.8772 31.1543C42.4217 31.1543 42.8633 31.5772 42.8633 32.0988V33.9315C42.8633 34.4531 42.4217 34.876 41.8772 34.876Z" fill="#0E80E1"/>
<defs>
<filter id="filter0_d_2216_68320" x="0" y="0" width="70" height="70" filterUnits="userSpaceOnUse" color-interpolation-filters="sRGB">
<feFlood flood-opacity="0" result="BackgroundImageFix"/>
<feColorMatrix in="SourceAlpha" type="matrix" values="0 0 0 0 0 0 0 0 0 0 0 0 0 0 0 0 0 0 127 0" result="hardAlpha"/>
<feOffset dy="3"/>
<feGaussianBlur stdDeviation="5"/>
<feComposite in2="hardAlpha" operator="out"/>
<feColorMatrix type="matrix" values="0 0 0 0 0.779167 0 0 0 0 0.779167 0 0 0 0 0.779167 0 0 0 0.1 0"/>
<feBlend mode="normal" in2="BackgroundImageFix" result="effect1_dropShadow_2216_68320"/>
<feBlend mode="normal" in="SourceGraphic" in2="effect1_dropShadow_2216_68320" result="shape"/>
</filter>
</defs>
</svg>
