<svg width="70" height="70" viewBox="0 0 70 70" fill="none" xmlns="http://www.w3.org/2000/svg">
<g filter="url(#filter0_d_2216_68648)">
<rect x="10" y="7" width="50" height="50" fill="#E7F2FC"/>
</g>
<path d="M34.6989 40.9454H25.0029C24.6452 40.9454 24.3063 40.8074 24.0521 40.5589C23.798 40.3105 23.6568 39.9792 23.6568 39.6295V34.2276C23.6568 33.8227 23.8545 33.427 24.1934 33.1785C24.8052 32.7276 25.4548 32.3043 26.1231 31.927C26.9798 31.4484 27.874 31.0343 28.7966 30.6938C29.2202 30.5374 29.4461 30.0681 29.2861 29.654C29.126 29.2398 28.646 29.019 28.2223 29.1754C27.2151 29.5435 26.2361 29.9945 25.3041 30.519C24.5793 30.9239 23.8639 31.384 23.1955 31.881C22.4424 32.4423 22 33.3166 22 34.2276V39.6295C22 40.4117 22.3106 41.1479 22.8755 41.7C23.4403 42.2522 24.1934 42.5559 24.9935 42.5559H34.6989C35.1601 42.5559 35.5272 42.197 35.5272 41.7461C35.5272 41.3043 35.1601 40.9454 34.6989 40.9454Z" fill="#0E80E1"/>
<path d="M37.2217 29.6989C37.0899 30.1222 37.3347 30.5824 37.7677 30.7112C37.8054 30.7204 41.4766 31.8523 43.1617 34.475C43.3217 34.7235 43.5853 34.8523 43.8583 34.8523C44.0089 34.8523 44.1595 34.8155 44.3007 34.7327C44.6866 34.4934 44.7996 33.9965 44.5643 33.6192C42.5592 30.4995 38.4266 29.2296 38.2572 29.1744C37.8148 29.0271 37.3535 29.2664 37.2217 29.6989Z" fill="#0E80E1"/>
<path d="M42.0793 35.4238C38.8128 35.4238 36.1582 38.0189 36.1582 41.2122C36.1582 44.4055 38.8128 47.0006 42.0793 47.0006C45.3458 47.0006 48.0004 44.4055 48.0004 41.2122C48.0004 38.0097 45.3552 35.4238 42.0793 35.4238ZM42.7947 44.157C42.6065 44.3687 42.3335 44.4975 42.0417 44.5067C42.0322 44.5067 42.0228 44.5067 42.004 44.5067C41.731 44.5067 41.458 44.3963 41.2603 44.203L39.1988 42.1877C38.8881 41.884 38.8881 41.3871 39.1988 41.0834C39.5094 40.7797 40.0178 40.7797 40.3284 41.0834C41.221 41.9559 42.6611 41.9075 43.4931 40.977L45.167 39.1048C45.4588 38.7827 45.9671 38.7459 46.2966 39.0312C46.626 39.3165 46.6637 39.8134 46.3719 40.1355L42.7947 44.157Z" fill="#0E80E1"/>
<path d="M33.2121 29.6903C36.7893 29.6903 39.698 26.8467 39.698 23.3497C39.698 19.8528 36.7893 17 33.2121 17C29.6256 17 26.7168 19.8436 26.7168 23.3405C26.7168 26.8375 29.6256 29.6903 33.2121 29.6903ZM33.2121 18.6196C35.8762 18.6196 38.0507 20.7362 38.0507 23.3497C38.0507 25.9632 35.8856 28.0798 33.2121 28.0798C30.5481 28.0798 28.3736 25.9632 28.3736 23.3497C28.3736 20.7362 30.5387 18.6196 33.2121 18.6196Z" fill="#0E80E1"/>
<defs>
<filter id="filter0_d_2216_68648" x="0" y="0" width="70" height="70" filterUnits="userSpaceOnUse" color-interpolation-filters="sRGB">
<feFlood flood-opacity="0" result="BackgroundImageFix"/>
<feColorMatrix in="SourceAlpha" type="matrix" values="0 0 0 0 0 0 0 0 0 0 0 0 0 0 0 0 0 0 127 0" result="hardAlpha"/>
<feOffset dy="3"/>
<feGaussianBlur stdDeviation="5"/>
<feComposite in2="hardAlpha" operator="out"/>
<feColorMatrix type="matrix" values="0 0 0 0 0.779167 0 0 0 0 0.779167 0 0 0 0 0.779167 0 0 0 0.1 0"/>
<feBlend mode="normal" in2="BackgroundImageFix" result="effect1_dropShadow_2216_68648"/>
<feBlend mode="normal" in="SourceGraphic" in2="effect1_dropShadow_2216_68648" result="shape"/>
</filter>
</defs>
</svg>
