<svg width="70" height="70" viewBox="0 0 70 70" fill="none" xmlns="http://www.w3.org/2000/svg">
<g filter="url(#filter0_d_2216_68891)">
<rect x="10" y="7" width="50" height="50" fill="#E7F2FC"/>
</g>
<path d="M54.3012 17H15.6994C14.7621 17 13.998 17.7865 13.998 18.7513V29.1125C13.998 30.0773 14.7621 30.8637 15.6994 30.8637H21.3319V29.1445H15.6994C15.6816 29.1445 15.6683 29.1308 15.6683 29.1125V18.7513C15.6683 18.733 15.6816 18.7192 15.6994 18.7192H54.3012C54.3189 18.7192 54.3323 18.733 54.3323 18.7513V29.1125C54.3323 29.1308 54.3189 29.1445 54.3012 29.1445H49.5925V30.8637H54.3012C55.2384 30.8637 56.0025 30.0773 56.0025 29.1125V18.7513C55.998 17.7865 55.2384 17 54.3012 17Z" fill="#0E80E1"/>
<path d="M22.9971 35.7363V38.5621H25.2092V38.5255C25.2137 37.1492 24.2631 35.997 22.9971 35.7363Z" fill="#E7F2FC"/>
<path d="M45.71 38.5216V38.5582H47.9221V35.7324C46.6606 35.9976 45.71 37.1499 45.71 38.5216Z" fill="#E7F2FC"/>
<path d="M54.3009 18.7188H15.6991C15.6813 18.7188 15.668 18.7325 15.668 18.7508V29.112C15.668 29.1303 15.6813 29.144 15.6991 29.144H21.3316V27.9186C21.3316 26.9949 22.0601 26.2405 22.9619 26.2405H37.8518C38.2827 26.2405 38.638 26.5834 38.6736 27.0224C38.6736 27.0315 38.336 27.9551 37.8562 27.9551H30.4735C30.6512 30.6255 32.8189 32.7425 35.4575 32.7425C38.0961 32.7425 40.2639 30.6255 40.4415 27.9551C40.4504 27.8363 40.4549 27.7174 40.4549 27.5985C40.4549 27.5391 40.4415 27.3836 40.4193 27.1961C40.366 26.684 40.7525 26.2405 41.25 26.2405C41.6809 26.2405 42.0451 26.5788 42.0807 27.0224C42.1029 27.283 42.1206 27.5208 42.1206 27.5985C42.1206 27.7174 42.1162 27.8363 42.1118 27.9551C41.9296 31.572 39.0156 34.4572 35.4531 34.4572C31.8949 34.4572 28.9765 31.572 28.7944 27.9551H22.9974V33.9954C25.1829 34.2743 26.8798 36.1993 26.8798 38.5221C26.8798 38.5359 26.8798 38.545 26.8798 38.5587H44.0441C44.0441 38.545 44.0441 38.5359 44.0441 38.5221C44.0441 36.1993 45.741 34.2743 47.9265 33.9954V27.9597H44.4217C43.9908 27.9597 43.631 27.6122 43.5999 27.1687V27.1412C43.5688 26.652 43.9464 26.2405 44.4217 26.2405H47.9664C48.8638 26.2405 49.5967 26.9904 49.5967 27.9186V29.144H54.3053C54.3231 29.144 54.3364 29.1303 54.3364 29.112V18.7508C54.332 18.7325 54.3186 18.7188 54.3009 18.7188ZM48.7527 24.2103H22.1668C21.7048 24.2103 21.3316 23.8262 21.3316 23.3507C21.3316 22.8751 21.7048 22.491 22.1668 22.491H48.7571C49.2191 22.491 49.5923 22.8751 49.5923 23.3507C49.5878 23.8262 49.2147 24.2103 48.7527 24.2103Z" fill="#E7F2FC"/>
<path d="M47.9575 26.2461H22.9618C22.0645 26.2461 21.3315 26.996 21.3315 27.9242V29.1496V30.8689V34.1153V35.9306V38.6101C21.3315 39.5337 22.06 40.2836 22.9573 40.2836H24.6187H26.5332H44.3816H46.2961H47.9575C48.8548 40.2836 49.5877 39.5337 49.5877 38.6055V35.926V34.1107V30.8643V29.145V27.9196C49.5877 26.996 48.8592 26.2461 47.9575 26.2461ZM40.4459 27.9608C40.2682 30.6311 38.1005 32.7481 35.4619 32.7481C32.8232 32.7481 30.6555 30.6311 30.4778 27.9608H40.4459ZM25.2139 38.5598H23.0018V35.734C24.2633 35.9992 25.2139 37.1469 25.2139 38.5232V38.5598ZM47.9219 38.5598H45.7098V38.5232C45.7098 37.1514 46.6604 35.9992 47.9219 35.734V38.5598ZM47.9219 34.001C45.7364 34.2799 44.0395 36.2049 44.0395 38.5277C44.0395 38.5415 44.0395 38.5506 44.0395 38.5643H26.8797C26.8797 38.5506 26.8797 38.5415 26.8797 38.5277C26.8797 36.2049 25.1828 34.2799 22.9973 34.001V27.9608H28.7987C28.9808 31.5776 31.8948 34.4628 35.4574 34.4628C39.0155 34.4628 41.934 31.5776 42.1161 27.9608H47.9175V34.001H47.9219Z" fill="#0E80E1"/>
<path d="M48.7526 42.0078H22.1667C21.7047 42.0078 21.3315 42.3919 21.3315 42.8674C21.3315 43.343 21.7047 43.7271 22.1667 43.7271H48.757C49.219 43.7271 49.5921 43.343 49.5921 42.8674C49.5877 42.3919 49.2146 42.0078 48.7526 42.0078Z" fill="#0E80E1"/>
<path d="M48.7526 45.2812H22.1667C21.7047 45.2812 21.3315 45.6653 21.3315 46.1409C21.3315 46.6164 21.7047 47.0005 22.1667 47.0005H48.757C49.219 47.0005 49.5921 46.6164 49.5921 46.1409C49.5921 45.6653 49.2146 45.2812 48.7526 45.2812Z" fill="#0E80E1"/>
<path d="M22.1667 24.2114H48.757C49.219 24.2114 49.5921 23.8273 49.5921 23.3518C49.5921 22.8763 49.219 22.4922 48.757 22.4922H22.1667C21.7047 22.4922 21.3315 22.8763 21.3315 23.3518C21.3315 23.8273 21.7047 24.2114 22.1667 24.2114Z" fill="#0E80E1"/>
<defs>
<filter id="filter0_d_2216_68891" x="0" y="0" width="70" height="70" filterUnits="userSpaceOnUse" color-interpolation-filters="sRGB">
<feFlood flood-opacity="0" result="BackgroundImageFix"/>
<feColorMatrix in="SourceAlpha" type="matrix" values="0 0 0 0 0 0 0 0 0 0 0 0 0 0 0 0 0 0 127 0" result="hardAlpha"/>
<feOffset dy="3"/>
<feGaussianBlur stdDeviation="5"/>
<feComposite in2="hardAlpha" operator="out"/>
<feColorMatrix type="matrix" values="0 0 0 0 0.779167 0 0 0 0 0.779167 0 0 0 0 0.779167 0 0 0 0.1 0"/>
<feBlend mode="normal" in2="BackgroundImageFix" result="effect1_dropShadow_2216_68891"/>
<feBlend mode="normal" in="SourceGraphic" in2="effect1_dropShadow_2216_68891" result="shape"/>
</filter>
</defs>
</svg>
