<svg width="19" height="21" viewBox="0 0 19 21" fill="none" xmlns="http://www.w3.org/2000/svg">
<path d="M16.0456 7.87135H15.0348V5.12144C15.0348 2.3051 12.4708 0.0201416 9.32715 0.0201416C6.17603 0.0201416 3.61204 2.31174 3.61204 5.12144V7.87135H2.6013C1.34532 7.87135 0.327148 8.78135 0.327148 9.9039V17.9876C0.327148 19.1101 1.34532 20.0201 2.6013 20.0201H16.0456C17.3015 20.0201 18.3197 19.1101 18.3197 17.9876V9.9039C18.3271 8.78135 17.3015 7.87135 16.0456 7.87135ZM5.10584 5.12144C5.10584 3.04239 7.00097 1.3486 9.32715 1.3486C11.6533 1.3486 13.5485 3.04239 13.5485 5.12144V7.87135H5.10584V5.12144ZM17.0637 17.9876C17.0637 18.4791 16.603 18.8909 16.053 18.8909H2.6013C2.05134 18.8909 1.59057 18.4791 1.59057 17.9876V9.9039C1.59057 9.41237 2.05134 9.00055 2.6013 9.00055H16.0456C16.5955 9.00055 17.0563 9.41237 17.0563 9.9039V17.9876H17.0637Z" fill="white"/>
<path d="M9.32711 11.1593C8.3461 11.1593 7.54346 11.87 7.54346 12.7535C7.54346 13.3712 7.93735 13.9026 8.5096 14.1683V16.0015C8.5096 16.4067 8.87376 16.7322 9.32711 16.7322C9.78045 16.7322 10.1446 16.4067 10.1446 16.0015V14.1683C10.7169 13.9026 11.1108 13.3712 11.1108 12.7535C11.1108 11.87 10.3081 11.1593 9.32711 11.1593Z" fill="white"/>
</svg>
