<svg width="17" height="17" viewBox="0 0 17 17" fill="none" xmlns="http://www.w3.org/2000/svg">
<path fill-rule="evenodd" clip-rule="evenodd" d="M16.0759 8.45978C16.0759 7.89251 16.025 7.34706 15.9304 6.82343H8.39594V9.91795H12.7014C12.5159 10.9179 11.9523 11.7652 11.105 12.3325V14.3397H13.6904C15.2032 12.947 16.0759 10.8961 16.0759 8.45978Z" fill="#4285F4"/>
<path fill-rule="evenodd" clip-rule="evenodd" d="M8.39592 16.2781C10.5559 16.2781 12.3668 15.5617 13.6904 14.3399L11.105 12.3326C10.3886 12.8126 9.47228 13.0963 8.39592 13.0963C6.3123 13.0963 4.54868 11.689 3.91959 9.79811H1.24689V11.8708C2.56324 14.4853 5.26867 16.2781 8.39592 16.2781Z" fill="#34A853"/>
<path fill-rule="evenodd" clip-rule="evenodd" d="M3.9196 9.79793C3.75961 9.31793 3.6687 8.80521 3.6687 8.27794C3.6687 7.75067 3.75961 7.23795 3.9196 6.75795V4.68524H1.2469C0.705085 5.76523 0.395996 6.98704 0.395996 8.27794C0.395996 9.56884 0.705085 10.7906 1.2469 11.8706L3.9196 9.79793Z" fill="#FBBC05"/>
<path fill-rule="evenodd" clip-rule="evenodd" d="M8.39592 3.45962C9.57046 3.45962 10.625 3.86326 11.4541 4.65598L13.7486 2.36145C12.3632 1.07055 10.5523 0.277832 8.39592 0.277832C5.26867 0.277832 2.56324 2.07054 1.24689 4.68507L3.91959 6.75778C4.54868 4.86689 6.3123 3.45962 8.39592 3.45962Z" fill="#EA4335"/>
</svg>
