<svg width="14" height="17" viewBox="0 0 14 17" fill="none" xmlns="http://www.w3.org/2000/svg">
<path d="M13.4854 12.7467C13.2434 13.3057 12.957 13.8202 12.6252 14.2933C12.1728 14.9382 11.8025 15.3846 11.517 15.6325C11.0746 16.0394 10.6005 16.2478 10.0929 16.2597C9.72846 16.2597 9.28896 16.156 8.77737 15.9456C8.2641 15.7362 7.79241 15.6325 7.36112 15.6325C6.90879 15.6325 6.42366 15.7362 5.90477 15.9456C5.38508 16.156 4.96642 16.2656 4.64633 16.2765C4.15953 16.2972 3.67431 16.0829 3.18998 15.6325C2.88086 15.3629 2.4942 14.9007 2.031 14.2459C1.53403 13.5467 1.12545 12.7358 0.805362 11.8114C0.462557 10.8129 0.29071 9.84604 0.29071 8.90997C0.29071 7.8377 0.522407 6.91289 0.986492 6.1379C1.35122 5.5154 1.83644 5.02436 2.44373 4.66387C3.05102 4.30339 3.7072 4.11969 4.41385 4.10794C4.8005 4.10794 5.30755 4.22754 5.93765 4.4626C6.56598 4.69844 6.96943 4.81804 7.14631 4.81804C7.27855 4.81804 7.72674 4.67819 8.48652 4.39939C9.20501 4.14083 9.81142 4.03377 10.3082 4.07594C11.6543 4.18458 12.6657 4.71523 13.3382 5.67125C12.1343 6.40071 11.5388 7.42241 11.5506 8.73308C11.5615 9.75399 11.9318 10.6035 12.6597 11.2781C12.9896 11.5912 13.358 11.8331 13.7678 12.005C13.679 12.2628 13.5851 12.5097 13.4854 12.7467ZM10.3981 0.597923C10.3981 1.39811 10.1057 2.14523 9.52303 2.83677C8.81984 3.65887 7.9693 4.13391 7.04695 4.05895C7.0352 3.96296 7.02839 3.86192 7.02839 3.75575C7.02839 2.98758 7.3628 2.16548 7.95666 1.4933C8.25314 1.15297 8.63022 0.869984 9.08749 0.644242C9.54377 0.421869 9.97536 0.298891 10.3813 0.277832C10.3931 0.384804 10.3981 0.491783 10.3981 0.597913V0.597923Z" fill="white"/>
</svg>
