<svg width="17" height="18" viewBox="0 0 17 18" fill="none" xmlns="http://www.w3.org/2000/svg">
<path d="M7.86338 2.5C9.85158 2.5 11.4634 4.5148 11.4634 7C11.4634 9.4852 9.85158 11.5 7.86338 11.5C5.87517 11.5 4.26338 9.4852 4.26338 7C4.26338 4.5148 5.87517 2.5 7.86338 2.5ZM7.86338 10.9C9.51757 10.9 10.8634 9.15039 10.8634 7C10.8634 4.84961 9.51757 3.1 7.86338 3.1C6.20918 3.1 4.86338 4.84961 4.86338 7C4.86338 9.15039 6.20918 10.9 7.86338 10.9Z" fill="white" stroke="white" stroke-width="0.2"/>
<path d="M5.24269 10.9785C5.40368 11.1351 5.57508 11.2759 5.75409 11.4027C5.1825 11.6683 4.6811 11.8891 4.2529 12.0761C2.66391 12.7695 2.4633 12.9067 2.4633 13.2997C2.4633 13.5715 2.73091 13.8997 3.0633 13.8997H12.6633C12.9957 13.8997 13.2633 13.5715 13.2633 13.2997C13.2633 12.9067 13.0627 12.7695 11.4739 12.0761C11.0455 11.8891 10.5441 11.6683 9.97268 11.4027C10.1517 11.2759 10.3231 11.1351 10.4841 10.9785C12.9821 12.1217 13.8633 12.2749 13.8633 13.2997C13.8633 13.8997 13.3261 14.4997 12.6633 14.4997H3.06328C2.40049 14.4997 1.86328 13.8997 1.86328 13.2997C1.86328 12.2749 2.74448 12.1217 5.24269 10.9785Z" fill="white" stroke="white" stroke-width="0.2"/>
</svg>
