<svg width="17" height="18" viewBox="0 0 17 18" fill="none" xmlns="http://www.w3.org/2000/svg">
<path d="M7.86322 2.5C9.85143 2.5 11.4632 4.5148 11.4632 7C11.4632 9.4852 9.85143 11.5 7.86322 11.5C5.87502 11.5 4.26322 9.4852 4.26322 7C4.26322 4.5148 5.87502 2.5 7.86322 2.5ZM7.86322 10.9C9.51742 10.9 10.8632 9.15039 10.8632 7C10.8632 4.84961 9.51742 3.1 7.86322 3.1C6.20903 3.1 4.86322 4.84961 4.86322 7C4.86322 9.15039 6.20903 10.9 7.86322 10.9Z" fill="#02194A" stroke="#02194A" stroke-width="0.2"/>
<path d="M5.24266 10.9788C5.40365 11.1354 5.57505 11.2762 5.75406 11.403C5.18247 11.6685 4.68107 11.8894 4.25287 12.0764C2.66388 12.7698 2.46327 12.907 2.46327 13.3C2.46327 13.5718 2.73088 13.9 3.06327 13.9H12.6633C12.9956 13.9 13.2633 13.5718 13.2633 13.3C13.2633 12.907 13.0626 12.7698 11.4738 12.0764C11.0455 11.8894 10.5441 11.6686 9.97265 11.403C10.1516 11.2762 10.323 11.1353 10.4841 10.9788C12.982 12.122 13.8633 12.2752 13.8633 13.3C13.8633 13.9 13.326 14.5 12.6633 14.5H3.06325C2.40046 14.5 1.86325 13.9 1.86325 13.3C1.86325 12.2752 2.74445 12.122 5.24266 10.9788Z" fill="#02194A" stroke="#02194A" stroke-width="0.2"/>
</svg>
