<svg width="17" height="18" viewBox="0 0 17 18" fill="none" xmlns="http://www.w3.org/2000/svg">
<path d="M7.86289 2.5C9.85109 2.5 11.4629 4.5148 11.4629 7C11.4629 9.4852 9.85109 11.5 7.86289 11.5C5.87469 11.5 4.26289 9.4852 4.26289 7C4.26289 4.5148 5.87469 2.5 7.86289 2.5ZM7.86289 10.9C9.51709 10.9 10.8629 9.15039 10.8629 7C10.8629 4.84961 9.51709 3.1 7.86289 3.1C6.20869 3.1 4.86289 4.84961 4.86289 7C4.86289 9.15039 6.20869 10.9 7.86289 10.9Z" fill="#00CF80" stroke="#00CF80" stroke-width="0.2"/>
<path d="M5.24269 10.9788C5.40368 11.1354 5.57508 11.2762 5.75409 11.403C5.1825 11.6685 4.6811 11.8894 4.2529 12.0764C2.66391 12.7698 2.4633 12.907 2.4633 13.3C2.4633 13.5718 2.73091 13.9 3.0633 13.9H12.6633C12.9957 13.9 13.2633 13.5718 13.2633 13.3C13.2633 12.907 13.0627 12.7698 11.4739 12.0764C11.0455 11.8894 10.5441 11.6686 9.97268 11.403C10.1517 11.2762 10.3231 11.1353 10.4841 10.9788C12.9821 12.122 13.8633 12.2752 13.8633 13.3C13.8633 13.9 13.3261 14.5 12.6633 14.5H3.06328C2.40049 14.5 1.86328 13.9 1.86328 13.3C1.86328 12.2752 2.74448 12.122 5.24269 10.9788Z" fill="#00CF80" stroke="#00CF80" stroke-width="0.2"/>
</svg>
