<svg width="17" height="18" viewBox="0 0 17 18" fill="none" xmlns="http://www.w3.org/2000/svg">
<g clip-path="url(#clip0_3728_3472)">
<path d="M2.43393 13.287C2.27664 13.287 2.14795 13.4147 2.14795 13.5708C2.14795 13.7269 2.27664 13.8546 2.43393 13.8546H3.40339C3.56068 13.8546 3.68937 13.7269 3.68937 13.5708C3.68937 13.4147 3.56068 13.287 3.40339 13.287H3.19177V8.80792H3.40339C3.56068 8.80792 3.68937 8.68019 3.68937 8.52408C3.68937 8.36796 3.56068 8.24023 3.40339 8.24023H2.43393C2.27664 8.24023 2.14795 8.36796 2.14795 8.52408C2.14795 8.68019 2.27664 8.80792 2.43393 8.80792H2.61981V13.287H2.43393Z" fill="#00CF80"/>
<path d="M4.88754 13.287C4.73025 13.287 4.60156 13.4147 4.60156 13.5708C4.60156 13.7269 4.73025 13.8546 4.88754 13.8546H5.85701C6.01429 13.8546 6.14298 13.7269 6.14298 13.5708C6.14298 13.4147 6.01429 13.287 5.85701 13.287H5.67112V8.80792H5.85701C6.01429 8.80792 6.14298 8.68019 6.14298 8.52408C6.14298 8.36796 6.01429 8.24023 5.85701 8.24023H4.88754C4.73025 8.24023 4.60156 8.36796 4.60156 8.52408C4.60156 8.68019 4.73025 8.80792 4.88754 8.80792H5.09916V13.287H4.88754Z" fill="#00CF80"/>
<path d="M7.36703 13.287C7.20974 13.287 7.08105 13.4147 7.08105 13.5708C7.08105 13.7269 7.20974 13.8546 7.36703 13.8546H8.3365C8.49379 13.8546 8.62248 13.7269 8.62248 13.5708C8.62248 13.4147 8.49379 13.287 8.3365 13.287H8.15061V8.80792H8.3365C8.49379 8.80792 8.62248 8.68019 8.62248 8.52408C8.62248 8.36796 8.49379 8.24023 8.3365 8.24023H7.36703C7.20974 8.24023 7.08105 8.36796 7.08105 8.52408C7.08105 8.68019 7.20974 8.80792 7.36703 8.80792H7.57866V13.287H7.36703Z" fill="#00CF80"/>
<path d="M9.8464 13.287C9.68912 13.287 9.56042 13.4147 9.56042 13.5708C9.56042 13.7269 9.68912 13.8546 9.8464 13.8546H10.8159C10.9732 13.8546 11.1019 13.7269 11.1019 13.5708C11.1019 13.4147 10.9732 13.287 10.8159 13.287H10.63V8.80792H10.8159C10.9732 8.80792 11.1019 8.68019 11.1019 8.52408C11.1019 8.36796 10.9732 8.24023 10.8159 8.24023H9.8464C9.68912 8.24023 9.56042 8.36796 9.56042 8.52408C9.56042 8.68019 9.68912 8.80792 9.8464 8.80792H10.058V13.287H9.8464Z" fill="#00CF80"/>
<path d="M12.323 13.287C12.1657 13.287 12.037 13.4147 12.037 13.5708C12.037 13.7269 12.1657 13.8546 12.323 13.8546H13.2924C13.4497 13.8546 13.5784 13.7269 13.5784 13.5708C13.5784 13.4147 13.4497 13.287 13.2924 13.287H13.1065V8.80792H13.2924C13.4497 8.80792 13.5784 8.68019 13.5784 8.52408C13.5784 8.36796 13.4497 8.24023 13.2924 8.24023H12.323C12.1657 8.24023 12.037 8.36796 12.037 8.52408C12.037 8.68019 12.1657 8.80792 12.323 8.80792H12.5346V13.287H12.323Z" fill="#00CF80"/>
<path d="M1.39001 14.5075C1.39001 14.6636 1.5187 14.7913 1.67599 14.7913H14.0531C14.2104 14.7913 14.3391 14.6636 14.3391 14.5075C14.3391 14.3514 14.2104 14.2236 14.0531 14.2236H1.67599C1.51585 14.2236 1.39001 14.3514 1.39001 14.5075Z" fill="#00CF80"/>
<path d="M14.0531 7.30078H1.67599C1.5187 7.30078 1.39001 7.42851 1.39001 7.58462C1.39001 7.74074 1.5187 7.86847 1.67599 7.86847H14.0531C14.2104 7.86847 14.3391 7.74074 14.3391 7.58462C14.3391 7.42851 14.2104 7.30078 14.0531 7.30078Z" fill="#00CF80"/>
<path d="M15.0798 15.1831H0.646452C0.489164 15.1831 0.360474 15.3108 0.360474 15.4669C0.360474 15.6231 0.489164 15.7508 0.646452 15.7508H15.0798C15.2371 15.7508 15.3657 15.6231 15.3657 15.4669C15.3657 15.3108 15.2371 15.1831 15.0798 15.1831Z" fill="#00CF80"/>
<path d="M0.615049 6.93462H15.1113C15.2686 6.93462 15.3973 6.8069 15.3973 6.65078C15.3973 6.53441 15.3286 6.43506 15.2285 6.39248L7.99043 2.782C7.91035 2.74226 7.81312 2.74226 7.73304 2.782L0.486359 6.39816C0.369108 6.45777 0.306193 6.58834 0.33765 6.71607C0.369108 6.84379 0.483499 6.93462 0.615049 6.93462ZM7.86459 3.35253L13.9073 6.36694H1.82188L7.86459 3.35253Z" fill="#00CF80"/>
</g>
<defs>
<clipPath id="clip0_3728_3472">
<rect width="15.0682" height="13" fill="white" transform="translate(0.329102 2.75073)"/>
</clipPath>
</defs>
</svg>
