<svg width="17" height="18" viewBox="0 0 17 18" fill="none" xmlns="http://www.w3.org/2000/svg">
<g clip-path="url(#clip0_3728_3633)">
<path d="M2.4339 13.287C2.27661 13.287 2.14792 13.4147 2.14792 13.5708C2.14792 13.7269 2.27661 13.8546 2.4339 13.8546H3.40336C3.56065 13.8546 3.68934 13.7269 3.68934 13.5708C3.68934 13.4147 3.56065 13.287 3.40336 13.287H3.19174V8.80792H3.40336C3.56065 8.80792 3.68934 8.68019 3.68934 8.52408C3.68934 8.36796 3.56065 8.24023 3.40336 8.24023H2.4339C2.27661 8.24023 2.14792 8.36796 2.14792 8.52408C2.14792 8.68019 2.27661 8.80792 2.4339 8.80792H2.61978V13.287H2.4339Z" fill="#02194A"/>
<path d="M4.8876 13.287C4.73031 13.287 4.60162 13.4147 4.60162 13.5708C4.60162 13.7269 4.73031 13.8546 4.8876 13.8546H5.85707C6.01436 13.8546 6.14305 13.7269 6.14305 13.5708C6.14305 13.4147 6.01436 13.287 5.85707 13.287H5.67118V8.80792H5.85707C6.01436 8.80792 6.14305 8.68019 6.14305 8.52408C6.14305 8.36796 6.01436 8.24023 5.85707 8.24023H4.8876C4.73031 8.24023 4.60162 8.36796 4.60162 8.52408C4.60162 8.68019 4.73031 8.80792 4.8876 8.80792H5.09923V13.287H4.8876Z" fill="#02194A"/>
<path d="M7.36703 13.287C7.20974 13.287 7.08105 13.4147 7.08105 13.5708C7.08105 13.7269 7.20974 13.8546 7.36703 13.8546H8.3365C8.49379 13.8546 8.62248 13.7269 8.62248 13.5708C8.62248 13.4147 8.49379 13.287 8.3365 13.287H8.15061V8.80792H8.3365C8.49379 8.80792 8.62248 8.68019 8.62248 8.52408C8.62248 8.36796 8.49379 8.24023 8.3365 8.24023H7.36703C7.20974 8.24023 7.08105 8.36796 7.08105 8.52408C7.08105 8.68019 7.20974 8.80792 7.36703 8.80792H7.57866V13.287H7.36703Z" fill="#02194A"/>
<path d="M9.84643 13.287C9.68915 13.287 9.56046 13.4147 9.56046 13.5708C9.56046 13.7269 9.68915 13.8546 9.84643 13.8546H10.8159C10.9732 13.8546 11.1019 13.7269 11.1019 13.5708C11.1019 13.4147 10.9732 13.287 10.8159 13.287H10.63V8.80792H10.8159C10.9732 8.80792 11.1019 8.68019 11.1019 8.52408C11.1019 8.36796 10.9732 8.24023 10.8159 8.24023H9.84643C9.68915 8.24023 9.56046 8.36796 9.56046 8.52408C9.56046 8.68019 9.68915 8.80792 9.84643 8.80792H10.0581V13.287H9.84643Z" fill="#02194A"/>
<path d="M12.323 13.287C12.1657 13.287 12.037 13.4147 12.037 13.5708C12.037 13.7269 12.1657 13.8546 12.323 13.8546H13.2925C13.4498 13.8546 13.5785 13.7269 13.5785 13.5708C13.5785 13.4147 13.4498 13.287 13.2925 13.287H13.1066V8.80792H13.2925C13.4498 8.80792 13.5785 8.68019 13.5785 8.52408C13.5785 8.36796 13.4498 8.24023 13.2925 8.24023H12.323C12.1657 8.24023 12.037 8.36796 12.037 8.52408C12.037 8.68019 12.1657 8.80792 12.323 8.80792H12.5346V13.287H12.323Z" fill="#02194A"/>
<path d="M1.39008 14.5075C1.39008 14.6636 1.51877 14.7913 1.67605 14.7913H14.0532C14.2105 14.7913 14.3392 14.6636 14.3392 14.5075C14.3392 14.3514 14.2105 14.2236 14.0532 14.2236H1.67605C1.51591 14.2236 1.39008 14.3514 1.39008 14.5075Z" fill="#02194A"/>
<path d="M14.0532 7.30078H1.67605C1.51877 7.30078 1.39008 7.42851 1.39008 7.58462C1.39008 7.74074 1.51877 7.86847 1.67605 7.86847H14.0532C14.2105 7.86847 14.3392 7.74074 14.3392 7.58462C14.3392 7.42851 14.2105 7.30078 14.0532 7.30078Z" fill="#02194A"/>
<path d="M15.0799 15.1831H0.646543C0.489255 15.1831 0.360565 15.3108 0.360565 15.4669C0.360565 15.6231 0.489255 15.7508 0.646543 15.7508H15.0799C15.2371 15.7508 15.3658 15.6231 15.3658 15.4669C15.3658 15.3108 15.2371 15.1831 15.0799 15.1831Z" fill="#02194A"/>
<path d="M0.615079 6.93462H15.1113C15.2686 6.93462 15.3973 6.8069 15.3973 6.65078C15.3973 6.53441 15.3287 6.43506 15.2286 6.39248L7.99046 2.782C7.91038 2.74226 7.81315 2.74226 7.73308 2.782L0.486389 6.39816C0.369138 6.45777 0.306223 6.58834 0.337681 6.71607C0.369138 6.84379 0.48353 6.93462 0.615079 6.93462ZM7.86463 3.35253L13.9073 6.36694H1.82191L7.86463 3.35253Z" fill="#02194A"/>
</g>
<defs>
<clipPath id="clip0_3728_3633">
<rect width="15.0682" height="13" fill="white" transform="translate(0.329102 2.75073)"/>
</clipPath>
</defs>
</svg>
