<svg width="17" height="17" viewBox="0 0 17 17" fill="none" xmlns="http://www.w3.org/2000/svg">
<path d="M13.7422 5.94967L10.9135 3.12096C10.8361 3.04352 10.731 3 10.6214 3C10.5119 3 10.4068 3.04352 10.3293 3.12096L2.07295 11.3773C1.99859 11.4517 1.95535 11.5517 1.95215 11.6568L1.86341 14.5743C1.85994 14.6882 1.90368 14.7985 1.98421 14.879C2.06182 14.9566 2.16692 15 2.27631 15C2.2805 15 2.28469 14.9999 2.28893 14.9998L5.20634 14.9109C5.31149 14.9077 5.41147 14.8646 5.48589 14.7902L13.7423 6.53393C13.9035 6.37259 13.9035 6.11101 13.7422 5.94967ZM5.01741 14.0901L2.7026 14.1606L2.77305 11.8457L7.79243 6.82631L10.0371 9.07053L5.01741 14.0901ZM10.6213 8.48633L8.37664 6.24216L10.6214 3.99738L12.8658 6.24183L10.6213 8.48633Z" fill="#00CF80"/>
</svg>
