<svg width="18" height="18" viewBox="0 0 18 18" fill="none" xmlns="http://www.w3.org/2000/svg">
<path fill-rule="evenodd" clip-rule="evenodd" d="M8.86176 2.92907C7.66171 2.92907 6.68781 3.99805 6.68781 5.3179V6.39335H6.18091V5.3179C6.18091 3.69023 7.38192 2.37207 8.86176 2.37207C10.3416 2.37207 11.5426 3.69023 11.5426 5.3179V6.39335H11.0357V5.3179C11.0357 3.99805 10.0618 2.92907 8.86176 2.92907Z" fill="#02194A"/>
<path fill-rule="evenodd" clip-rule="evenodd" d="M4.95017 6.90494C4.53496 6.90494 4.19865 7.24325 4.19865 7.66092V12.9136C4.19865 13.3313 4.53496 13.6696 4.95017 13.6696H12.775C13.1881 13.6696 13.5248 13.3316 13.5248 12.9136V7.66092C13.5248 7.24325 13.1884 6.90494 12.7732 6.90494H4.95017ZM3.5 7.66092C3.5 6.85511 4.14911 6.20215 4.95017 6.20215H12.7732C13.5743 6.20215 14.2234 6.85511 14.2234 7.66092V12.9136C14.2234 13.719 13.5747 14.3724 12.775 14.3724H4.95017C4.14911 14.3724 3.5 13.7194 3.5 12.9136V7.66092Z" fill="#02194A"/>
<path fill-rule="evenodd" clip-rule="evenodd" d="M5.28735 9.4408C5.28735 8.92095 5.69482 8.5 6.19803 8.5H6.67455C7.17776 8.5 7.58523 8.92095 7.58523 9.4408V9.73652C7.58523 9.98635 7.48892 10.225 7.31816 10.4014L6.31674 11.436H7.27619C7.44687 11.436 7.58523 11.5789 7.58523 11.7552C7.58523 11.9315 7.44687 12.0745 7.27619 12.0745H5.67523C5.3504 12.0745 5.21961 11.6804 5.41893 11.4607L5.42234 11.457L6.88112 9.94993C6.93663 9.89259 6.96716 9.81605 6.96716 9.73652V9.4408C6.96716 9.27359 6.83641 9.13851 6.67455 9.13851H6.19803C6.03617 9.13851 5.90542 9.27359 5.90542 9.4408C5.90542 9.61712 5.76706 9.76005 5.59639 9.76005C5.42571 9.76005 5.28735 9.61712 5.28735 9.4408Z" fill="#02194A"/>
<path fill-rule="evenodd" clip-rule="evenodd" d="M7.84058 8.5H9.82826C9.99957 8.5 10.1384 8.64293 10.1384 8.81925C10.1384 8.99557 9.99957 9.13851 9.82826 9.13851H8.46095V11.7552C8.46095 11.9315 8.32208 12.0745 8.15077 12.0745C7.97945 12.0745 7.84058 11.9315 7.84058 11.7552V8.5Z" fill="#02194A"/>
<path fill-rule="evenodd" clip-rule="evenodd" d="M7.84058 10.2875C7.84058 10.1465 7.98647 10.0322 8.16643 10.0322H9.04664C9.2266 10.0322 9.37249 10.1465 9.37249 10.2875C9.37249 10.4286 9.2266 10.5429 9.04664 10.5429H8.16643C7.98647 10.5429 7.84058 10.4286 7.84058 10.2875Z" fill="#02194A"/>
<path fill-rule="evenodd" clip-rule="evenodd" d="M11.1214 9.70288L10.4488 11.8546C10.3957 12.0242 10.2298 12.1137 10.0782 12.0543C9.92659 11.995 9.84666 11.8094 9.89968 11.6398L10.8054 8.74251C10.8547 8.578 10.9898 8.5 11.1077 8.5C11.2253 8.5 11.3543 8.57603 11.4071 8.73004L12.4166 11.631C12.4749 11.7984 12.4008 11.987 12.2511 12.0522C12.1014 12.1174 11.9328 12.0345 11.8745 11.867L11.1214 9.70288Z" fill="#02194A"/>
<path fill-rule="evenodd" clip-rule="evenodd" d="M10.3938 10.9259C10.3938 10.7144 10.5284 10.543 10.6945 10.543H11.625C11.7911 10.543 11.9257 10.7144 11.9257 10.9259C11.9257 11.1375 11.7911 11.3089 11.625 11.3089H10.6945C10.5284 11.3089 10.3938 11.1375 10.3938 10.9259Z" fill="#02194A"/>
</svg>
