<svg width="17" height="18" viewBox="0 0 17 18" fill="none" xmlns="http://www.w3.org/2000/svg">
<path fill-rule="evenodd" clip-rule="evenodd" d="M8.3617 3.20837C7.16165 3.20837 6.18775 4.27734 6.18775 5.5972V6.67264H5.68085V5.5972C5.68085 3.96953 6.88186 2.65137 8.3617 2.65137C9.84154 2.65137 11.0425 3.96953 11.0425 5.5972V6.67264H10.5356V5.5972C10.5356 4.27734 9.56175 3.20837 8.3617 3.20837Z" fill="white"/>
<path fill-rule="evenodd" clip-rule="evenodd" d="M4.45017 7.18424C4.03496 7.18424 3.69865 7.52254 3.69865 7.94022V13.1929C3.69865 13.6106 4.03496 13.9489 4.45017 13.9489H12.275C12.6881 13.9489 13.0248 13.6109 13.0248 13.1929V7.94022C13.0248 7.52254 12.6884 7.18424 12.2732 7.18424H4.45017ZM3 7.94022C3 7.1344 3.64911 6.48145 4.45017 6.48145H12.2732C13.0743 6.48145 13.7234 7.1344 13.7234 7.94022V13.1929C13.7234 13.9983 13.0747 14.6517 12.275 14.6517H4.45017C3.64911 14.6517 3 13.9987 3 13.1929V7.94022Z" fill="white"/>
<path fill-rule="evenodd" clip-rule="evenodd" d="M4.78729 9.7201C4.78729 9.20025 5.19476 8.7793 5.69797 8.7793H6.17449C6.67769 8.7793 7.08516 9.20024 7.08516 9.7201V10.0158C7.08516 10.2656 6.98886 10.5043 6.8181 10.6807L5.81668 11.7153H6.77613C6.94681 11.7153 7.08516 11.8582 7.08516 12.0345C7.08516 12.2108 6.94681 12.3538 6.77613 12.3538H5.17517C4.85033 12.3538 4.71955 11.9597 4.91887 11.74L4.92228 11.7363L6.38106 10.2292C6.43657 10.1719 6.4671 10.0954 6.4671 10.0158V9.7201C6.4671 9.55288 6.33635 9.4178 6.17449 9.4178H5.69797C5.53611 9.4178 5.40536 9.55288 5.40536 9.7201C5.40536 9.89642 5.267 10.0394 5.09632 10.0394C4.92565 10.0394 4.78729 9.89642 4.78729 9.7201Z" fill="white"/>
<path fill-rule="evenodd" clip-rule="evenodd" d="M7.34058 8.7793H9.32826C9.49957 8.7793 9.63845 8.92223 9.63845 9.09855C9.63845 9.27487 9.49957 9.4178 9.32826 9.4178H7.96095V12.0345C7.96095 12.2108 7.82208 12.3538 7.65077 12.3538C7.47945 12.3538 7.34058 12.2108 7.34058 12.0345V8.7793Z" fill="white"/>
<path fill-rule="evenodd" clip-rule="evenodd" d="M7.34064 10.5668C7.34064 10.4258 7.48653 10.3115 7.66649 10.3115H8.5467C8.72666 10.3115 8.87255 10.4258 8.87255 10.5668C8.87255 10.7079 8.72666 10.8222 8.5467 10.8222H7.66649C7.48653 10.8222 7.34064 10.7079 7.34064 10.5668Z" fill="white"/>
<path fill-rule="evenodd" clip-rule="evenodd" d="M10.6212 9.98217L9.94858 12.1339C9.89556 12.3035 9.72965 12.393 9.57803 12.3336C9.42641 12.2743 9.34648 12.0887 9.3995 11.9191L10.3052 9.02181C10.3545 8.8573 10.4896 8.7793 10.6075 8.7793C10.7252 8.7793 10.8541 8.85533 10.9069 9.00934L11.9164 11.9103C11.9747 12.0777 11.9006 12.2663 11.7509 12.3315C11.6012 12.3967 11.4326 12.3138 11.3744 12.1463L10.6212 9.98217Z" fill="white"/>
<path fill-rule="evenodd" clip-rule="evenodd" d="M9.89362 11.2052C9.89362 10.9937 10.0282 10.8223 10.1943 10.8223H11.1249C11.2909 10.8223 11.4255 10.9937 11.4255 11.2052C11.4255 11.4168 11.2909 11.5882 11.1249 11.5882H10.1943C10.0282 11.5882 9.89362 11.4168 9.89362 11.2052Z" fill="white"/>
</svg>
