<svg width="17" height="18" viewBox="0 0 17 18" fill="none" xmlns="http://www.w3.org/2000/svg">
<path fill-rule="evenodd" clip-rule="evenodd" d="M8.36152 2.92907C7.16146 2.92907 6.18757 3.99805 6.18757 5.3179V6.39335H5.68066V5.3179C5.68066 3.69023 6.88168 2.37207 8.36152 2.37207C9.84135 2.37207 11.0424 3.69023 11.0424 5.3179V6.39335H10.5355V5.3179C10.5355 3.99805 9.56157 2.92907 8.36152 2.92907Z" fill="#00CF80"/>
<path fill-rule="evenodd" clip-rule="evenodd" d="M4.45017 6.90494C4.03496 6.90494 3.69865 7.24325 3.69865 7.66092V12.9136C3.69865 13.3313 4.03496 13.6696 4.45017 13.6696H12.275C12.6881 13.6696 13.0248 13.3316 13.0248 12.9136V7.66092C13.0248 7.24325 12.6884 6.90494 12.2732 6.90494H4.45017ZM3 7.66092C3 6.85511 3.64911 6.20215 4.45017 6.20215H12.2732C13.0743 6.20215 13.7234 6.85511 13.7234 7.66092V12.9136C13.7234 13.719 13.0747 14.3724 12.275 14.3724H4.45017C3.64911 14.3724 3 13.7194 3 12.9136V7.66092Z" fill="#00CF80"/>
<path fill-rule="evenodd" clip-rule="evenodd" d="M4.78711 9.4408C4.78711 8.92095 5.19458 8.5 5.69779 8.5H6.1743C6.67751 8.5 7.08498 8.92095 7.08498 9.4408V9.73652C7.08498 9.98635 6.98867 10.225 6.81792 10.4014L5.8165 11.436H6.77595C6.94662 11.436 7.08498 11.5789 7.08498 11.7552C7.08498 11.9315 6.94662 12.0745 6.77595 12.0745H5.17499C4.85015 12.0745 4.71937 11.6804 4.91869 11.4607L4.92209 11.457L6.38088 9.94993C6.43638 9.89259 6.46692 9.81605 6.46692 9.73652V9.4408C6.46692 9.27359 6.33616 9.13851 6.1743 9.13851H5.69779C5.53593 9.13851 5.40517 9.27359 5.40517 9.4408C5.40517 9.61712 5.26682 9.76005 5.09614 9.76005C4.92547 9.76005 4.78711 9.61712 4.78711 9.4408Z" fill="#00CF80"/>
<path fill-rule="evenodd" clip-rule="evenodd" d="M7.34033 8.5H9.32802C9.49933 8.5 9.6382 8.64293 9.6382 8.81925C9.6382 8.99557 9.49933 9.13851 9.32802 9.13851H7.96071V11.7552C7.96071 11.9315 7.82183 12.0745 7.65052 12.0745C7.47921 12.0745 7.34033 11.9315 7.34033 11.7552V8.5Z" fill="#00CF80"/>
<path fill-rule="evenodd" clip-rule="evenodd" d="M7.34033 10.2875C7.34033 10.1465 7.48622 10.0322 7.66619 10.0322H8.54639C8.72636 10.0322 8.87225 10.1465 8.87225 10.2875C8.87225 10.4286 8.72636 10.5429 8.54639 10.5429H7.66619C7.48622 10.5429 7.34033 10.4286 7.34033 10.2875Z" fill="#00CF80"/>
<path fill-rule="evenodd" clip-rule="evenodd" d="M10.6209 9.70288L9.94828 11.8546C9.89525 12.0242 9.72935 12.1137 9.57772 12.0543C9.4261 11.995 9.34617 11.8094 9.3992 11.6398L10.3049 8.74251C10.3542 8.578 10.4893 8.5 10.6072 8.5C10.7248 8.5 10.8538 8.57603 10.9066 8.73004L11.9161 11.631C11.9744 11.7984 11.9003 11.987 11.7506 12.0522C11.6009 12.1174 11.4323 12.0345 11.374 11.867L10.6209 9.70288Z" fill="#00CF80"/>
<path fill-rule="evenodd" clip-rule="evenodd" d="M9.89355 10.9259C9.89355 10.7144 10.0282 10.543 10.1942 10.543H11.1248C11.2909 10.543 11.4255 10.7144 11.4255 10.9259C11.4255 11.1375 11.2909 11.3089 11.1248 11.3089H10.1942C10.0282 11.3089 9.89355 11.1375 9.89355 10.9259Z" fill="#00CF80"/>
</svg>
