<svg width="17" height="18" viewBox="0 0 17 18" fill="none" xmlns="http://www.w3.org/2000/svg">
<path fill-rule="evenodd" clip-rule="evenodd" d="M2.56 13.6261V11.2822H3.46375V13.6261C3.46375 13.8757 3.66606 14.078 3.91563 14.078H13.0844C13.334 14.078 13.5363 13.8757 13.5363 13.6261V11.2822H14.4401V13.6261C14.4401 14.3748 13.8331 14.9817 13.0844 14.9817H3.91563C3.16693 14.9817 2.56 14.3748 2.56 13.6261Z" fill="white"/>
<path fill-rule="evenodd" clip-rule="evenodd" d="M11.6952 9.80977L8.81953 12.6855C8.64306 12.862 8.35694 12.862 8.18048 12.6855L5.30474 9.80979C5.12827 9.63332 5.12827 9.34721 5.30474 9.17074C5.48121 8.99427 5.76732 8.99427 5.94379 9.17073L8.04812 11.2751L8.0481 2.98146L8.95185 2.98145L8.95187 11.2751L11.0562 9.17072C11.2327 8.99425 11.5188 8.99425 11.6952 9.17072C11.8717 9.34719 11.8717 9.6333 11.6952 9.80977Z" fill="white"/>
</svg>
