<svg width="17" height="18" viewBox="0 0 17 18" fill="none" xmlns="http://www.w3.org/2000/svg">
<path fill-rule="evenodd" clip-rule="evenodd" d="M2.55957 13.6261V11.2822H3.46332V13.6261C3.46332 13.8757 3.66564 14.078 3.9152 14.078H13.084C13.3336 14.078 13.5359 13.8757 13.5359 13.6261V11.2822H14.4396V13.6261C14.4396 14.3748 13.8327 14.9817 13.084 14.9817H3.9152C3.16651 14.9817 2.55957 14.3748 2.55957 13.6261Z" fill="#02194A"/>
<path fill-rule="evenodd" clip-rule="evenodd" d="M11.6948 9.80977L8.8191 12.6855C8.64263 12.862 8.35652 12.862 8.18005 12.6855L5.30431 9.80979C5.12784 9.63332 5.12784 9.34721 5.30431 9.17074C5.48078 8.99427 5.76689 8.99427 5.94336 9.17073L8.04769 11.2751L8.04767 2.98146L8.95142 2.98145L8.95145 11.2751L11.0558 9.17072C11.2322 8.99425 11.5183 8.99425 11.6948 9.17072C11.8713 9.34719 11.8713 9.6333 11.6948 9.80977Z" fill="#02194A"/>
</svg>
