<svg width="17" height="18" viewBox="0 0 17 18" fill="none" xmlns="http://www.w3.org/2000/svg">
<path d="M9.92578 12.8333H5.80078M9.92578 12.8333H13.3633L12.3973 11.8967C12.2676 11.7709 12.1647 11.6215 12.0946 11.4571C12.0244 11.2927 11.9883 11.1166 11.9883 10.9387V8.83333C11.9884 8.00596 11.724 7.19889 11.2315 6.52326C10.739 5.84762 10.0426 5.33664 9.23828 5.06067V4.83333C9.23828 4.47971 9.09342 4.14057 8.83555 3.89052C8.57769 3.64048 8.22795 3.5 7.86328 3.5C7.49861 3.5 7.14887 3.64048 6.89101 3.89052C6.63315 4.14057 6.48828 4.47971 6.48828 4.83333V5.06067C4.88641 5.61 3.73828 7.092 3.73828 8.83333V10.9393C3.73828 11.298 3.59116 11.6427 3.32922 11.8967L2.36328 12.8333H5.80078H9.92578ZM9.92578 12.8333V13.5C9.92578 14.0304 9.70848 14.5391 9.32169 14.9142C8.9349 15.2893 8.41029 15.5 7.86328 15.5C7.31627 15.5 6.79167 15.2893 6.40487 14.9142C6.01808 14.5391 5.80078 14.0304 5.80078 13.5V12.8333H9.92578Z" stroke="white" stroke-linecap="round" stroke-linejoin="round"/>
</svg>
