<svg width="25" height="25" viewBox="0 0 25 25" fill="none" xmlns="http://www.w3.org/2000/svg">
<path d="M5.76433 10.9391H8.34395C8.58059 10.9391 8.75828 11.1168 8.75828 11.3534V19.1878C8.75828 19.4245 8.58059 19.6022 8.34395 19.6022H5.76433C5.52769 19.6022 5.35 19.4245 5.35 19.1878V11.3534C5.35 11.1168 5.52769 10.9391 5.76433 10.9391Z" stroke="white" stroke-width="0.7"/>
<path d="M19.6044 8.7352L19.6022 8.75447V8.77385V19.1879C19.6022 19.4245 19.4245 19.6022 19.1879 19.6022H16.6561C16.4194 19.6022 16.2417 19.4245 16.2417 19.1879V8.77385C16.2417 8.53722 16.4194 8.35952 16.6561 8.35952H19.1879C19.4646 8.35952 19.6234 8.56399 19.6044 8.7352Z" stroke="white" stroke-width="0.7"/>
<path d="M14.1585 5.72568L14.1564 5.74495V5.76433V19.1879C14.1564 19.4245 13.9787 19.6022 13.742 19.6022H11.2102C10.9736 19.6022 10.7959 19.4245 10.7959 19.1879V5.76433C10.7959 5.52769 10.9736 5.35 11.2102 5.35H13.7898C14.003 5.35 14.1791 5.54058 14.1585 5.72568Z" stroke="white" stroke-width="0.7"/>
</svg>
