<svg width="25" height="26" viewBox="0 0 25 26" fill="none" xmlns="http://www.w3.org/2000/svg">
<g clip-path="url(#clip0_2705_75098)">
<path d="M6.33466 10.3561C6.33466 10.1554 6.18022 9.99321 5.99036 9.99321C5.8005 9.99321 5.64606 10.156 5.64606 10.3561C5.64606 10.5562 5.8005 10.7189 5.99036 10.7189C6.18022 10.7189 6.33466 10.5568 6.33466 10.3561Z" fill="#00CF80"/>
<path d="M20.9643 9.54898L16.6492 5.00132C16.4767 4.81959 16.248 4.71985 16.0047 4.71985C15.7614 4.71985 15.5321 4.81959 15.3602 5.00132L14.39 6.02381C14.2176 6.20555 14.1229 6.44663 14.1229 6.70302C14.1229 6.83213 14.1467 6.95696 14.1926 7.07261C13.6277 7.19805 13.0773 7.38835 12.553 7.63923C11.9915 7.40365 11.4875 7.27576 11.0736 7.20845C11.0962 7.12401 11.1084 7.0359 11.1084 6.94595C11.1084 6.68956 11.0138 6.44786 10.8413 6.26674L9.87055 5.24364C9.69811 5.0619 9.46935 4.96216 9.22607 4.96216C8.9828 4.96216 8.75346 5.0619 8.58159 5.24364L4.2665 9.79129C3.91117 10.1658 3.91117 10.7752 4.2665 11.1497L5.2367 12.1728C5.41437 12.3601 5.64777 12.4537 5.88118 12.4537C6.03794 12.4537 6.19529 12.4108 6.33521 12.3264C6.51114 12.8655 6.74629 13.429 7.04472 13.8274L6.4972 14.4044C6.00601 14.9221 6.00601 15.7647 6.4972 16.283C6.7428 16.5418 7.06562 16.6715 7.38844 16.6715C7.39541 16.6715 7.40238 16.6709 7.40934 16.6709C7.40934 16.6782 7.40876 16.6862 7.40876 16.6935C7.40876 17.0484 7.53998 17.3819 7.77803 17.6328C8.02363 17.8916 8.34645 18.0214 8.66927 18.0214C8.67623 18.0214 8.68378 18.0208 8.69075 18.0208C8.68494 18.3683 8.80745 18.7177 9.05886 18.9827C9.30445 19.2415 9.62727 19.3712 9.95009 19.3712C9.95706 19.3712 9.96461 19.3706 9.97158 19.3706C9.96577 19.7182 10.0883 20.0676 10.3397 20.3325C10.5853 20.5914 10.9081 20.7211 11.2309 20.7211C11.5537 20.7211 11.8766 20.5914 12.1222 20.3325L13.1765 19.2213C13.277 19.1154 13.3565 18.9961 13.4158 18.8688C13.5632 18.9294 13.72 18.9606 13.8762 18.9606C14.199 18.9606 14.5218 18.8309 14.7674 18.5721C14.9497 18.3799 15.0641 18.1431 15.1111 17.8953C15.2319 17.9345 15.3573 17.9541 15.4821 17.9541C15.805 17.9541 16.1278 17.8243 16.3734 17.5655C16.5708 17.3575 16.6939 17.0931 16.731 16.8067C16.8135 16.8239 16.8965 16.8331 16.9801 16.8331C17.3029 16.8331 17.6258 16.7033 17.8714 16.4445C18.1094 16.1936 18.2406 15.8601 18.2406 15.5052C18.2406 15.1503 18.1088 14.8162 17.8708 14.5653L17.7256 14.4124C18.2906 13.7527 18.7423 12.9854 19.0523 12.1593C19.147 12.1936 19.2468 12.2114 19.3496 12.2114C19.5929 12.2114 19.8222 12.1116 19.9941 11.9299L20.9643 10.9074C21.3196 10.5329 21.3196 9.92346 20.9643 9.54898ZM5.73835 11.6441L4.76815 10.6216C4.68918 10.5384 4.68918 10.4032 4.76815 10.32L9.08324 5.77232C9.12156 5.73193 9.17208 5.70991 9.22607 5.70991C9.28007 5.70991 9.33116 5.73193 9.3689 5.77232L10.3391 6.79481C10.3774 6.83519 10.3983 6.88843 10.3983 6.94533C10.3983 7.00224 10.3774 7.05609 10.3391 7.09586L6.26206 11.3926C6.26206 11.3926 6.26206 11.3926 6.26148 11.3932L6.02401 11.6435C5.94562 11.7273 5.81731 11.7273 5.73835 11.6441ZM6.99885 15.7537C6.89492 15.6441 6.83744 15.4985 6.83744 15.3431C6.83744 15.1876 6.89492 15.042 6.99885 14.9325L8.05324 13.8213C8.15717 13.7117 8.29535 13.6512 8.44283 13.6512C8.58972 13.6512 8.72849 13.7117 8.83242 13.8213C9.04724 14.0477 9.04724 14.416 8.83242 14.6424L7.77803 15.7537C7.5632 15.9801 7.21368 15.9801 6.99885 15.7537ZM8.66927 17.2736C8.52237 17.2736 8.38361 17.213 8.27968 17.1035C8.17575 16.994 8.11827 16.8483 8.11827 16.6929C8.11827 16.5381 8.17575 16.3919 8.27968 16.2823L9.33407 15.1711C9.43799 15.0616 9.57618 15.001 9.72366 15.001C9.87055 15.001 10.0093 15.0616 10.1132 15.1711C10.2172 15.2807 10.2747 15.4263 10.2747 15.5817C10.2747 15.7371 10.2172 15.8828 10.1132 15.9923L9.05886 17.1035C8.95493 17.213 8.81674 17.2736 8.66927 17.2736ZM9.95009 18.6235C9.8032 18.6235 9.66443 18.5629 9.5605 18.4534C9.45657 18.3438 9.39909 18.1982 9.39909 18.0428C9.39909 17.888 9.45657 17.7417 9.5605 17.6322L10.6149 16.521C10.7223 16.4078 10.8634 16.3515 11.0045 16.3515C11.1456 16.3515 11.2867 16.4084 11.3941 16.521C11.498 16.6305 11.5555 16.7761 11.5555 16.9316C11.5555 17.0864 11.498 17.2326 11.3941 17.3422L10.3397 18.4534C10.2358 18.5629 10.097 18.6235 9.95009 18.6235ZM12.6743 18.692L11.6205 19.8032C11.4057 20.0296 11.0562 20.0296 10.8413 19.8032C10.7374 19.6937 10.6799 19.5481 10.6799 19.3926C10.6799 19.2372 10.7374 19.0916 10.8413 18.982L11.8957 17.8708C11.9996 17.7613 12.1378 17.7007 12.2853 17.7007C12.4322 17.7007 12.571 17.7613 12.6749 17.8708C12.8891 18.0972 12.8891 18.4656 12.6743 18.692ZM17.3691 15.9152C17.2652 16.0247 17.127 16.0853 16.9795 16.0853C16.8326 16.0853 16.6939 16.0247 16.59 15.9152L16.3728 15.6863L15.0165 14.2569C14.8777 14.1107 14.6536 14.1107 14.5149 14.2569C14.3761 14.4032 14.3761 14.6394 14.5149 14.7856L14.732 15.0145L15.8712 16.215C15.9751 16.3246 16.0326 16.4702 16.0326 16.6256C16.0326 16.781 15.9751 16.9267 15.8712 17.0362C15.7672 17.1457 15.629 17.2063 15.4816 17.2063C15.3347 17.2063 15.1959 17.1457 15.092 17.0362L14.7668 16.6935L13.4105 15.2641C13.2718 15.1179 13.0476 15.1179 12.9089 15.2641C12.7701 15.4104 12.7701 15.6466 12.9089 15.7928L13.234 16.1355L14.2646 17.2216C14.4794 17.448 14.4794 17.8164 14.2646 18.0428C14.0643 18.2539 13.7461 18.268 13.5301 18.085C13.4918 17.8133 13.374 17.5514 13.1754 17.3428C12.924 17.0778 12.5925 16.9493 12.2627 16.9548C12.2685 16.6073 12.146 16.2579 11.8946 15.9929C11.6437 15.7286 11.3122 15.5995 10.9824 15.605C10.9824 15.5976 10.983 15.5897 10.983 15.5823C10.983 15.2274 10.8518 14.8939 10.6137 14.6431C10.3757 14.3922 10.0592 14.2539 9.72249 14.2539C9.71553 14.2539 9.70798 14.2545 9.70101 14.2545C9.70624 13.9069 9.58373 13.5575 9.3329 13.2932C8.84171 12.7755 8.04221 12.7755 7.55043 13.2932L7.54927 13.2944C7.32574 12.9677 7.1022 12.4378 6.90828 11.7683L10.5783 7.90051C10.8709 7.92376 11.2501 7.98312 11.6925 8.11774C11.1601 8.45979 10.6654 8.86732 10.2218 9.3342L9.7132 9.87145C9.22201 10.3891 9.22201 11.2317 9.7132 11.75C9.95125 12.0009 10.2677 12.1392 10.6044 12.1392C10.9412 12.1392 11.2576 12.0009 11.4957 11.75L12.1605 11.0494C12.3875 11.1687 12.7492 11.3333 13.1673 11.4257C13.443 11.4869 13.7049 11.5089 13.9522 11.493L16.0134 13.6652L16.9801 14.6841L17.3697 15.0946C17.4736 15.2042 17.5311 15.3504 17.5311 15.5052C17.5311 15.66 17.4731 15.8057 17.3691 15.9152ZM16.5145 13.1359L14.7541 11.2807C15.042 11.1362 15.2958 10.9215 15.5106 10.6363C15.6325 10.4748 15.607 10.2398 15.4537 10.1113C15.3004 9.98281 15.0775 10.0097 14.9555 10.1713C14.5787 10.6712 14.0318 10.848 13.3304 10.6975C12.7544 10.5739 12.29 10.2729 12.2859 10.2704C12.146 10.178 11.9636 10.2 11.8469 10.323L10.9946 11.2213C10.8907 11.3308 10.7525 11.3914 10.605 11.3914C10.4581 11.3914 10.3194 11.3308 10.2154 11.2213C10.1115 11.1118 10.054 10.9661 10.054 10.8107C10.054 10.6559 10.1115 10.5097 10.2154 10.4001L10.7252 9.86288C11.8028 8.72719 13.216 7.97455 14.721 7.73102L18.4665 11.6784C18.1919 12.4885 17.7674 13.2412 17.224 13.8831L16.5145 13.1359ZM20.4626 10.3787L19.4924 11.4012C19.4541 11.4416 19.4036 11.4636 19.3496 11.4636C19.2956 11.4636 19.2445 11.4416 19.2068 11.4012L19.1295 11.3198C19.1284 11.3186 19.1266 11.3168 19.1255 11.3155L14.8917 6.85355C14.8533 6.81316 14.8324 6.75993 14.8324 6.70302C14.8324 6.64611 14.8533 6.59227 14.8917 6.55249L15.8619 5.53001C15.9002 5.48962 15.9507 5.46759 16.0047 5.46759C16.0587 5.46759 16.1098 5.48962 16.1475 5.53001L20.4626 10.0777C20.5416 10.1603 20.5416 10.2955 20.4626 10.3787Z" fill="#00CF80"/>
<path d="M19.241 9.75029C19.0506 9.75029 18.8967 9.91306 18.8967 10.1131C18.8967 10.3139 19.0512 10.476 19.241 10.476C19.4315 10.476 19.5853 10.3132 19.5853 10.1131C19.5853 9.91306 19.4309 9.75029 19.241 9.75029Z" fill="#00CF80"/>
</g>
<defs>
<clipPath id="clip0_2705_75098">
<rect width="17.2308" height="16" fill="white" transform="translate(4 4.71985)"/>
</clipPath>
</defs>
</svg>
