<svg width="26" height="26" viewBox="0 0 26 26" fill="none" xmlns="http://www.w3.org/2000/svg">
<g clip-path="url(#clip0_2705_75077)">
<path d="M18.7733 9.32879V19.0682C18.7733 19.8638 18.126 20.5111 17.3304 20.5111H10.7473C9.9517 20.5111 9.30441 19.8638 9.30441 19.0682V12.7355C9.51023 12.7697 9.72019 12.7919 9.93567 12.7919C10.0885 12.7919 10.2385 12.7805 10.3866 12.763V19.0682C10.3866 19.2671 10.5484 19.4289 10.7473 19.4289H17.3304C17.5293 19.4289 17.6911 19.267 17.6911 19.0682V9.32879C17.6911 9.12985 17.5293 8.96808 17.3304 8.96808H13.7595C13.7595 8.59187 13.703 8.22928 13.6017 7.88594H17.3304C18.126 7.88591 18.7733 8.5332 18.7733 9.32879ZM9.87541 12.3171C7.99891 12.3171 6.47235 10.7906 6.47235 8.91417C6.47238 7.03766 7.99891 5.51111 9.87541 5.51111C11.7519 5.51111 13.2785 7.03766 13.2785 8.91417C13.2785 10.7906 11.7519 12.3171 9.87541 12.3171ZM9.87541 11.5957C11.354 11.5957 12.557 10.3929 12.557 8.91417C12.557 7.43535 11.3541 6.23256 9.87541 6.23256C8.39663 6.23256 7.19381 7.43535 7.19381 8.91417C7.19381 10.3929 8.39681 11.5957 9.87541 11.5957ZM11.9164 9.27491C12.1155 9.27491 12.2771 9.11331 12.2771 8.9142C12.2771 8.71509 12.1155 8.55349 11.9164 8.55349H10.2361V7.13746C10.2361 6.93834 10.0745 6.77675 9.87541 6.77675C9.6763 6.77675 9.5147 6.93834 9.5147 7.13746V8.9142C9.5147 9.11331 9.6763 9.27491 9.87541 9.27491H11.9164ZM16.0797 12.1996H12.1719C11.9728 12.1996 11.8112 12.3612 11.8112 12.5603C11.8112 12.7594 11.9728 12.921 12.1719 12.921H16.0797C16.2789 12.921 16.4404 12.7594 16.4404 12.5603C16.4404 12.3612 16.2789 12.1996 16.0797 12.1996ZM16.086 14.3877H12.1783C11.9791 14.3877 11.8175 14.5492 11.8175 14.7484C11.8175 14.9476 11.9791 15.1091 12.1783 15.1091H16.086C16.2852 15.1091 16.4467 14.9476 16.4467 14.7484C16.4467 14.5492 16.2854 14.3877 16.086 14.3877ZM16.086 16.6663H12.1783C11.9791 16.6663 11.8175 16.828 11.8175 17.027C11.8175 17.2262 11.9791 17.3877 12.1783 17.3877H16.086C16.2852 17.3877 16.4467 17.2262 16.4467 17.027C16.4468 16.828 16.2854 16.6663 16.086 16.6663Z" fill="#00CF80"/>
</g>
<defs>
<clipPath id="clip0_2705_75077">
<rect width="15" height="15" fill="white" transform="translate(5.1228 5.51111)"/>
</clipPath>
</defs>
</svg>
