<svg width="25" height="25" viewBox="0 0 25 25" fill="none" xmlns="http://www.w3.org/2000/svg">
<path d="M12.151 11.4341L12.2088 11.3525C12.1038 11.2782 12.0344 11.168 12.0126 11.0411C11.9909 10.9143 12.0197 10.7872 12.0939 10.6823C12.1838 10.5551 12.3306 10.4792 12.4864 10.4792C12.5862 10.4792 12.6818 10.5095 12.7637 10.5673C12.9094 10.6702 13.0246 10.7664 13.1279 10.8699L13.1279 10.8699C13.6524 11.3945 13.9409 12.0906 13.9409 12.8313L13.9409 12.8317C13.9434 13.5719 13.6556 14.2689 13.1298 14.7947L13.1297 14.7947L10.8367 17.0882C10.8367 17.0882 10.8367 17.0882 10.8367 17.0882C10.3131 17.6118 9.61737 17.9 8.87661 17.9H8.8742C8.13278 17.8995 7.43656 17.6105 6.91261 17.0863L6.91257 17.0862C6.3885 16.5624 6.1 15.8661 6.1 15.125C6.1 14.3839 6.3885 13.6876 6.91259 13.1636L6.9126 13.1636L8.68104 11.3948C8.77193 11.3039 8.89237 11.2541 9.02084 11.2541C9.14931 11.2541 9.26975 11.3039 9.36064 11.3948C9.45155 11.4858 9.50139 11.6061 9.50139 11.7347C9.50139 11.8632 9.45147 11.9836 9.36064 12.0748C9.36061 12.0748 9.36057 12.0748 9.36054 12.0749L7.5922 13.8435L7.59218 13.8435C7.25013 14.1858 7.06126 14.6412 7.06126 15.125C7.06126 15.6088 7.25012 16.0643 7.5922 16.4065C7.93478 16.7491 8.39056 16.9382 8.87505 16.9385H8.87512C9.36021 16.9385 9.81538 16.7502 10.1571 16.4085L10.1571 16.4085L12.4501 14.1148L12.4502 14.1148C12.793 13.7717 12.9813 13.3162 12.9796 12.8333M12.151 11.4341L12.2087 11.3524C12.3057 11.4209 12.3824 11.4838 12.4483 11.5497L12.4483 11.5497C12.7907 11.8923 12.9795 12.3483 12.9796 12.8333M12.151 11.4341C12.2448 11.5003 12.3167 11.5595 12.3776 11.6204L12.8214 10.4856C12.7226 10.4159 12.6068 10.3792 12.4864 10.3792C12.2982 10.3792 12.1209 10.4708 12.0122 10.6245C11.9228 10.7511 11.8879 10.9051 11.914 11.0579C11.9403 11.211 12.0243 11.3445 12.151 11.4341ZM12.9796 12.8333C12.9796 12.8333 12.9796 12.8334 12.9796 12.8335H12.8796L12.9796 12.8331C12.9796 12.8332 12.9796 12.8332 12.9796 12.8333Z" fill="#00CF80" stroke="#0A1533" stroke-width="0.2"/>
<path d="M10.377 12.459C10.1671 12.0551 10.059 11.6128 10.059 11.1689L10.059 11.1686C10.0564 10.4284 10.3442 9.73138 10.8701 9.20555L10.8701 9.20554L13.1634 6.91172C13.1634 6.91172 13.1634 6.91171 13.1634 6.91171C13.6869 6.38821 14.3826 6.09999 15.1233 6.09997C15.1234 6.09997 15.1234 6.09997 15.1234 6.09997L10.377 12.459ZM10.377 12.459C10.4114 12.524 10.45 12.5877 10.4983 12.6646L10.5003 12.6678L10.5003 12.6678C10.507 12.6794 10.5124 12.6886 10.5184 12.6976L10.5184 12.6977C10.5515 12.7474 10.5884 12.796 10.6322 12.8529L10.6339 12.8551L10.6339 12.8551L10.6501 12.8775L10.6502 12.8776C10.6626 12.8948 10.6728 12.9089 10.6837 12.9221L10.6838 12.9222C10.7328 12.9819 10.7863 13.0396 10.847 13.1032L10.851 13.1073L10.8509 13.1074C10.8513 13.1078 10.8522 13.1089 10.8541 13.1109L10.8626 13.1201L10.8706 13.1287L10.8731 13.1313M10.377 12.459L10.8731 13.1313M11.429 12.3146C11.4198 12.3034 11.4116 12.2918 11.4057 12.2835C11.4052 12.2827 11.4046 12.282 11.4041 12.2812L11.371 12.2367C11.3709 12.2366 11.3708 12.2365 11.3707 12.2364C11.3686 12.2336 11.3664 12.2307 11.3642 12.2278C11.3508 12.2101 11.3353 12.1897 11.3214 12.1688L11.3186 12.1647L11.3187 12.1646L11.2856 12.1091L11.2833 12.1053C11.2657 12.077 11.246 12.0452 11.2266 12.0075L11.225 12.0045L11.2251 12.0045L11.2151 11.9835C11.1933 11.9407 11.1719 11.8961 11.15 11.8411L11.1499 11.841C10.8808 11.1659 11.0377 10.3981 11.5505 9.88516L11.5963 12.3508L11.6151 12.3714C11.6831 12.4406 11.7552 12.4996 11.849 12.5658M11.429 12.3146C11.429 12.3145 11.4289 12.3144 11.4288 12.3143L11.5065 12.2513L11.4293 12.3149C11.4292 12.3148 11.4291 12.3147 11.429 12.3146ZM11.429 12.3146C11.4594 12.352 11.4927 12.387 11.5231 12.419L11.5412 12.4388L11.5412 12.4389L11.5438 12.4415C11.6171 12.5161 11.6941 12.5789 11.7914 12.6475L11.849 12.5658M11.849 12.5658C12.1103 12.7509 12.1725 13.1139 11.9878 13.3754C11.8793 13.5291 11.7018 13.6209 11.5133 13.6209C11.3928 13.6209 11.2772 13.584 11.1785 13.5144M11.849 12.5658L11.7912 12.6474C12.0075 12.8006 12.059 13.1012 11.9061 13.3177L11.9061 13.3177C11.8164 13.4448 11.6694 13.5209 11.5133 13.5209C11.4137 13.5209 11.3182 13.4905 11.2362 13.4327M11.1785 13.5144L11.2362 13.4327M11.1785 13.5144L11.2361 13.4327C11.2362 13.4327 11.2362 13.4327 11.2362 13.4327M11.1785 13.5144C11.029 13.4087 10.9092 13.3091 10.8012 13.2009L11.2362 13.4327M11.2362 13.4327C11.091 13.3301 10.9761 13.2344 10.8731 13.1313M11.2362 13.4327L10.8731 13.1313M13.9233 7.65293C14.2453 7.33597 14.671 7.16144 15.1249 7.16144C15.5829 7.16177 16.0133 7.34027 16.3371 7.66418C16.6605 7.98759 16.8388 8.4177 16.8388 8.87495C16.8388 9.33219 16.6605 9.76214 16.3371 10.0857L13.9233 7.65293ZM13.9233 7.65293L11.6213 9.95585L13.9233 7.65293Z" fill="#00CF80" stroke="#0A1533" stroke-width="0.2"/>
</svg>
