<svg width="25" height="26" viewBox="0 0 25 26" fill="none" xmlns="http://www.w3.org/2000/svg">
<path fill-rule="evenodd" clip-rule="evenodd" d="M5 18.3836V15.4537H6.12969V18.3836C6.12969 18.6956 6.38258 18.9484 6.69454 18.9484H18.1555C18.4675 18.9484 18.7204 18.6956 18.7204 18.3836V15.4537H19.8501V18.3836C19.8501 19.3195 19.0914 20.0781 18.1555 20.0781H6.69454C5.75867 20.0781 5 19.3195 5 18.3836Z" fill="#00CF80"/>
<path fill-rule="evenodd" clip-rule="evenodd" d="M16.4192 13.6135L12.8245 17.2082C12.6039 17.4288 12.2463 17.4288 12.0257 17.2082L8.43105 13.6136C8.21046 13.393 8.21046 13.0353 8.43105 12.8147C8.65163 12.5942 9.00928 12.5942 9.22986 12.8147L11.8603 15.4451L11.8602 5.07814L12.9899 5.07814L12.99 15.4451L15.6204 12.8147C15.841 12.5941 16.1986 12.5941 16.4192 12.8147C16.6398 13.0353 16.6398 13.3929 16.4192 13.6135Z" fill="#00CF80"/>
</svg>
