<svg width="26" height="26" viewBox="0 0 26 26" fill="none" xmlns="http://www.w3.org/2000/svg">
<g clip-path="url(#clip0_2705_75064)">
<path d="M7.19345 17.2974C7.03616 17.2974 6.90747 17.4251 6.90747 17.5812C6.90747 17.7373 7.03616 17.865 7.19345 17.865H8.16291C8.3202 17.865 8.44889 17.7373 8.44889 17.5812C8.44889 17.4251 8.3202 17.2974 8.16291 17.2974H7.95129V12.8183H8.16291C8.3202 12.8183 8.44889 12.6906 8.44889 12.5345C8.44889 12.3784 8.3202 12.2506 8.16291 12.2506H7.19345C7.03616 12.2506 6.90747 12.3784 6.90747 12.5345C6.90747 12.6906 7.03616 12.8183 7.19345 12.8183H7.37933V17.2974H7.19345Z" fill="#00CF80"/>
<path d="M9.64712 17.2974C9.48984 17.2974 9.36115 17.4251 9.36115 17.5812C9.36115 17.7373 9.48984 17.865 9.64712 17.865H10.6166C10.7739 17.865 10.9026 17.7373 10.9026 17.5812C10.9026 17.4251 10.7739 17.2974 10.6166 17.2974H10.4307V12.8183H10.6166C10.7739 12.8183 10.9026 12.6906 10.9026 12.5345C10.9026 12.3784 10.7739 12.2506 10.6166 12.2506H9.64712C9.48984 12.2506 9.36115 12.3784 9.36115 12.5345C9.36115 12.6906 9.48984 12.8183 9.64712 12.8183H9.85875V17.2974H9.64712Z" fill="#00CF80"/>
<path d="M12.1266 17.2974C11.9693 17.2974 11.8406 17.4251 11.8406 17.5812C11.8406 17.7373 11.9693 17.865 12.1266 17.865H13.096C13.2533 17.865 13.382 17.7373 13.382 17.5812C13.382 17.4251 13.2533 17.2974 13.096 17.2974H12.9101V12.8183H13.096C13.2533 12.8183 13.382 12.6906 13.382 12.5345C13.382 12.3784 13.2533 12.2506 13.096 12.2506H12.1266C11.9693 12.2506 11.8406 12.3784 11.8406 12.5345C11.8406 12.6906 11.9693 12.8183 12.1266 12.8183H12.3382V17.2974H12.1266Z" fill="#00CF80"/>
<path d="M14.606 17.2974C14.4487 17.2974 14.32 17.4251 14.32 17.5812C14.32 17.7373 14.4487 17.865 14.606 17.865H15.5755C15.7327 17.865 15.8614 17.7373 15.8614 17.5812C15.8614 17.4251 15.7327 17.2974 15.5755 17.2974H15.3896V12.8183H15.5755C15.7327 12.8183 15.8614 12.6906 15.8614 12.5345C15.8614 12.3784 15.7327 12.2506 15.5755 12.2506H14.606C14.4487 12.2506 14.32 12.3784 14.32 12.5345C14.32 12.6906 14.4487 12.8183 14.606 12.8183H14.8176V17.2974H14.606Z" fill="#00CF80"/>
<path d="M17.0825 17.2974C16.9253 17.2974 16.7966 17.4251 16.7966 17.5812C16.7966 17.7373 16.9253 17.865 17.0825 17.865H18.052C18.2093 17.865 18.338 17.7373 18.338 17.5812C18.338 17.4251 18.2093 17.2974 18.052 17.2974H17.8661V12.8183H18.052C18.2093 12.8183 18.338 12.6906 18.338 12.5345C18.338 12.3784 18.2093 12.2506 18.052 12.2506H17.0825C16.9253 12.2506 16.7966 12.3784 16.7966 12.5345C16.7966 12.6906 16.9253 12.8183 17.0825 12.8183H17.2942V17.2974H17.0825Z" fill="#00CF80"/>
<path d="M6.14966 18.5179C6.14966 18.674 6.27835 18.8017 6.43564 18.8017H18.8128C18.9701 18.8017 19.0988 18.674 19.0988 18.5179C19.0988 18.3618 18.9701 18.234 18.8128 18.234H6.43564C6.27549 18.234 6.14966 18.3618 6.14966 18.5179Z" fill="#00CF80"/>
<path d="M18.8128 11.3111H6.43564C6.27835 11.3111 6.14966 11.4388 6.14966 11.595C6.14966 11.7511 6.27835 11.8788 6.43564 11.8788H18.8128C18.9701 11.8788 19.0988 11.7511 19.0988 11.595C19.0988 11.4388 18.9701 11.3111 18.8128 11.3111Z" fill="#00CF80"/>
<path d="M19.8394 19.1934H5.4061C5.24881 19.1934 5.12012 19.3211 5.12012 19.4773C5.12012 19.6334 5.24881 19.7611 5.4061 19.7611H19.8394C19.9967 19.7611 20.1254 19.6334 20.1254 19.4773C20.1254 19.3211 19.9967 19.1934 19.8394 19.1934Z" fill="#00CF80"/>
<path d="M5.37463 10.945H19.8709C20.0282 10.945 20.1568 10.8172 20.1568 10.6611C20.1568 10.5447 20.0882 10.4454 19.9881 10.4028L12.75 6.79233C12.6699 6.75259 12.5727 6.75259 12.4926 6.79233L5.24594 10.4085C5.12869 10.4681 5.06578 10.5987 5.09723 10.7264C5.12869 10.8541 5.24308 10.945 5.37463 10.945ZM12.6242 7.36286L18.6669 10.3773H6.58146L12.6242 7.36286Z" fill="#00CF80"/>
</g>
<defs>
<clipPath id="clip0_2705_75064">
<rect width="15.0682" height="13" fill="white" transform="translate(5.08862 6.76111)"/>
</clipPath>
</defs>
</svg>
