<svg width="26" height="26" viewBox="0 0 26 26" fill="none" xmlns="http://www.w3.org/2000/svg">
<path d="M13.674 5.12244C13.7802 5.21251 13.8077 5.32216 13.8038 5.45923C13.7959 5.70203 13.7998 5.94484 13.7998 6.20331C13.8549 6.20722 13.902 6.21114 13.9492 6.21505C14.2244 6.23072 14.3817 6.39128 14.3856 6.66542C14.3896 7.0962 14.3856 7.52306 14.3856 7.95384C14.3856 8.11832 14.307 8.21231 14.1694 8.21231C14.0318 8.21623 13.9453 8.11441 13.9453 7.94601C13.9414 7.57397 13.9453 7.20194 13.9453 6.83381C13.9453 6.77899 13.9453 6.72808 13.9453 6.66542C13.7015 6.66542 13.4696 6.66542 13.2297 6.66542C13.2297 7.98517 13.2297 9.30102 13.2297 10.6247C13.4617 10.6247 13.6937 10.6247 13.9453 10.6247C13.9453 10.5777 13.9453 10.5229 13.9453 10.472C13.9453 9.98243 13.9414 9.49683 13.9492 9.0073C13.9492 8.92898 13.9728 8.83107 14.0239 8.78408C14.075 8.73708 14.189 8.71359 14.248 8.741C14.3109 8.77233 14.3778 8.86632 14.3817 8.94073C14.3974 9.21486 14.3896 9.48899 14.3896 9.75921C14.3896 10.0333 14.3896 10.3075 14.3896 10.5816C14.3896 10.9223 14.2441 11.0672 13.8981 11.0751C13.8745 11.0751 13.8509 11.079 13.8077 11.0829C13.8077 11.2983 13.8077 11.5097 13.8077 11.7251C13.8077 11.8896 13.8116 12.058 13.8077 12.2225C13.8038 12.3752 13.7212 12.4614 13.5875 12.4614C13.4578 12.4614 13.3713 12.3713 13.3673 12.2186C13.3634 11.8818 13.3673 11.545 13.3634 11.2082C13.3634 11.169 13.3595 11.1299 13.3556 11.0829C13.3162 11.079 13.2769 11.0751 13.2376 11.0711C12.9467 11.0633 12.7815 10.9106 12.7776 10.6169C12.7737 9.30493 12.7737 7.98909 12.7776 6.67717C12.7776 6.38345 12.9388 6.2268 13.2337 6.21505C13.2691 6.21505 13.3005 6.21114 13.3595 6.21114C13.3595 5.99966 13.3595 5.78427 13.3595 5.5728C13.3595 5.49839 13.3438 5.42007 13.3634 5.35349C13.3909 5.27125 13.4499 5.20076 13.4971 5.12244C13.5561 5.12244 13.615 5.12244 13.674 5.12244Z" fill="#00CF80"/>
<path d="M5.94063 16.1309C10.6546 16.1309 15.3489 16.1309 20.055 16.1309C20.0589 16.076 20.0629 16.029 20.0629 15.982C20.0629 13.5423 20.0629 11.1064 20.0629 8.6666C20.0629 8.07134 19.6776 7.66405 19.076 7.65622C18.2111 7.64447 17.3501 7.6523 16.4851 7.6523C16.4655 7.6523 16.4458 7.65622 16.4183 7.66014C16.4183 7.96168 16.4183 8.26323 16.4183 8.57261C16.4576 8.57653 16.5009 8.58044 16.5441 8.58044C16.8193 8.59219 16.9884 8.74884 16.9884 9.02297C16.9923 9.86887 16.9962 10.7148 16.9884 11.5568C16.9844 11.8622 16.8232 11.9875 16.4065 12.011C16.4065 12.0619 16.4065 12.1129 16.4065 12.1638C16.4065 12.6494 16.4065 13.1311 16.4065 13.6167C16.4065 13.6519 16.4065 13.6832 16.4065 13.7185C16.3986 13.8751 16.3082 13.973 16.1745 13.9691C16.0487 13.9652 15.9662 13.8673 15.9662 13.7185C15.9622 13.3778 15.9662 13.0332 15.9662 12.6924C15.9662 12.4692 15.9662 12.246 15.9662 12.0345C15.9465 12.0189 15.9426 12.0149 15.9386 12.0149C15.5415 12.0345 15.3646 11.8505 15.3764 11.3884C15.3961 10.6364 15.3804 9.88454 15.3804 9.13263C15.3804 8.73317 15.5022 8.60786 15.8954 8.58436C15.915 8.58436 15.9308 8.57653 15.9583 8.57261C15.9583 8.27106 15.9583 7.97735 15.9583 7.65622C15.8521 7.65622 15.746 7.65622 15.6398 7.65622C15.4433 7.65622 15.2467 7.66014 15.0501 7.6523C14.9164 7.64839 14.8221 7.54657 14.826 7.42908C14.8299 7.31551 14.9204 7.22544 15.0501 7.22152C15.2939 7.21761 15.5415 7.21761 15.7853 7.21761C15.8364 7.21761 15.8915 7.21761 15.9622 7.21761C15.9622 6.9748 15.9622 6.74766 15.9622 6.52053C15.9622 6.4657 15.9622 6.41479 15.9622 6.35996C15.9662 6.21115 16.0527 6.11716 16.1785 6.11716C16.3082 6.11716 16.3947 6.21115 16.3986 6.35996C16.4026 6.58318 16.3986 6.81032 16.3986 7.03355C16.3986 7.08837 16.3986 7.13928 16.3986 7.20978C16.4615 7.21369 16.5205 7.21761 16.5756 7.21761C17.3855 7.21761 18.1954 7.21761 19.0053 7.21761C19.9095 7.21761 20.4953 7.80504 20.4953 8.70184C20.4953 11.2239 20.4953 13.742 20.4953 16.264C20.4953 17.1569 19.9017 17.7483 19.0013 17.7483C17.9752 17.7483 16.953 17.7483 15.9268 17.7483C15.8679 17.7483 15.8128 17.7483 15.7381 17.7483C15.7381 18.1164 15.7381 18.4727 15.7421 18.8252C15.7421 18.8644 15.7774 18.9035 15.805 18.9349C15.9976 19.162 16.1903 19.3931 16.3947 19.6084C16.4379 19.6554 16.5284 19.675 16.5991 19.6789C16.8232 19.6868 16.9333 19.7533 16.9333 19.8982C16.9373 20.0471 16.8272 20.1215 16.6031 20.1215C14.1891 20.1215 11.7751 20.1215 9.36504 20.1215C9.31786 20.1215 9.26675 20.1254 9.21957 20.1175C9.10555 20.0941 9.03872 20.0196 9.03872 19.9022C9.03872 19.7847 9.10948 19.7142 9.2235 19.6868C9.23136 19.6829 9.24316 19.6829 9.25102 19.6829C9.49871 19.7416 9.63632 19.5889 9.76999 19.4205C9.91939 19.2286 10.1435 19.068 10.2261 18.8526C10.3086 18.6372 10.2496 18.3709 10.2536 18.1281C10.2536 18.0067 10.2536 17.8853 10.2536 17.7443C10.1828 17.7443 10.1278 17.7443 10.0688 17.7443C9.01906 17.7443 7.96933 17.7483 6.91959 17.7443C6.18832 17.7404 5.62611 17.2626 5.50816 16.546C5.49243 16.4677 5.49243 16.3776 5.49243 16.2914C5.49243 13.7577 5.49243 11.22 5.49243 8.68618C5.49243 7.81679 6.0861 7.22544 6.96284 7.22152C8.16591 7.22152 9.36504 7.22152 10.5681 7.22152C10.6271 7.22152 10.686 7.22152 10.7411 7.22152C10.8001 6.96305 10.859 6.88865 10.9888 6.89256C11.1264 6.89648 11.1932 6.99047 11.2168 7.22152C11.3387 7.22152 11.4645 7.22152 11.5864 7.22152C11.7633 7.22152 11.9402 7.21761 12.1171 7.22544C12.2508 7.22936 12.3334 7.31551 12.3373 7.433C12.3412 7.55832 12.2547 7.6523 12.1171 7.6523C11.8734 7.66014 11.6257 7.65622 11.3819 7.65622C11.3308 7.65622 11.2758 7.65622 11.2168 7.65622C11.2168 7.80112 11.2168 7.93427 11.2168 8.087C11.2679 8.087 11.319 8.08309 11.3701 8.087C11.6139 8.09875 11.7908 8.26323 11.7908 8.50604C11.7948 9.3676 11.7948 10.2252 11.7908 11.0868C11.7908 11.3374 11.6139 11.498 11.3583 11.5098C11.3151 11.5137 11.2719 11.5098 11.2089 11.5098C11.2089 11.5685 11.2089 11.6233 11.2089 11.6742C11.2089 12.2225 11.2089 12.7669 11.2089 13.3151C11.2089 13.3504 11.2089 13.3817 11.2089 13.4169C11.205 13.5736 11.1146 13.6715 10.9809 13.6676C10.8551 13.6637 10.7686 13.5697 10.7686 13.4209C10.7686 12.9313 10.7686 12.4418 10.7686 11.9562C10.7686 11.8152 10.7686 11.6742 10.7686 11.5215C10.7096 11.5176 10.6585 11.5176 10.6035 11.5137C10.3558 11.498 10.1828 11.3335 10.1828 11.0907C10.1789 10.2292 10.1789 9.37151 10.1828 8.50995C10.1828 8.26715 10.3558 8.10267 10.6035 8.087C10.6507 8.08309 10.7018 8.087 10.7607 8.087C10.7607 7.94602 10.7607 7.80895 10.7607 7.65622C10.7136 7.65622 10.6625 7.65622 10.6153 7.65622C9.40828 7.65622 8.20129 7.65622 6.9943 7.65622C6.43994 7.65622 6.05465 7.94994 5.95636 8.43946C5.94456 8.50604 5.94063 8.57653 5.94063 8.6431C5.94063 11.0946 5.94063 13.5501 5.94063 16.0016C5.93277 16.0408 5.9367 16.08 5.94063 16.1309ZM15.2939 17.7561C15.0698 17.7561 14.8653 17.76 14.6609 17.7561C14.5154 17.7522 14.4171 17.6621 14.4171 17.5368C14.4171 17.4115 14.5154 17.3214 14.6609 17.3175C14.8181 17.3136 14.9754 17.3175 15.1327 17.3175C16.4458 17.3175 17.7629 17.3175 19.076 17.3175C19.5478 17.3175 19.9449 17.012 20.0235 16.5891C15.341 16.5891 10.6585 16.5891 5.97208 16.5891C5.97602 16.6165 5.97995 16.64 5.98781 16.6635C6.12148 17.0668 6.48712 17.3175 6.95105 17.3175C9.15666 17.3175 11.3662 17.3175 13.5718 17.3175C13.619 17.3175 13.6701 17.3136 13.7173 17.3214C13.8352 17.3331 13.906 17.3997 13.9178 17.5172C13.9296 17.6425 13.8588 17.7208 13.7409 17.7483C13.6937 17.76 13.6426 17.7561 13.5954 17.7561C12.6872 17.7561 11.779 17.7561 10.8748 17.7561C10.8237 17.7561 10.7686 17.7561 10.7136 17.7561C10.7136 18.089 10.7136 18.4023 10.7136 18.7312C10.8826 18.7312 11.0438 18.7273 11.205 18.7312C11.3741 18.7351 11.4763 18.8252 11.4724 18.9584C11.4684 19.0876 11.3701 19.1698 11.2089 19.1698C11.036 19.1698 10.8669 19.1698 10.6939 19.1698C10.6546 19.1698 10.6035 19.1659 10.5799 19.1855C10.4344 19.3421 10.2929 19.5066 10.1396 19.6829C12.066 19.6829 13.9571 19.6829 15.8757 19.6829C15.7421 19.5301 15.632 19.3891 15.5062 19.2638C15.459 19.2168 15.3764 19.1777 15.3096 19.1737C15.1248 19.162 14.9361 19.1816 14.7513 19.162C14.6766 19.1542 14.5822 19.0719 14.5587 19.0014C14.539 18.9388 14.5901 18.837 14.6451 18.7782C14.6805 18.7391 14.771 18.7351 14.8378 18.7312C14.9911 18.7234 15.1484 18.7273 15.3057 18.7273C15.2939 18.3944 15.2939 18.085 15.2939 17.7561ZM10.6192 11.0633C10.8669 11.0633 11.0989 11.0633 11.3348 11.0633C11.3348 10.2135 11.3348 9.37543 11.3348 8.53736C11.091 8.53736 10.859 8.53736 10.6192 8.53736C10.6192 9.37935 10.6192 10.2135 10.6192 11.0633ZM15.8246 11.5646C16.0684 11.5646 16.3003 11.5646 16.5362 11.5646C16.5362 10.7148 16.5362 9.8767 16.5362 9.03864C16.2925 9.03864 16.0605 9.03864 15.8246 9.03864C15.8246 9.88062 15.8246 10.7148 15.8246 11.5646Z" fill="#00CF80"/>
<path d="M9.91547 14.349C9.48693 14.533 9.05839 14.7132 8.62591 14.8973C8.14626 15.1009 7.66268 15.3085 7.18302 15.5121C7.14371 15.5278 7.10046 15.5473 7.06114 15.5591C6.93926 15.5865 6.84098 15.5473 6.80166 15.4299C6.76234 15.3163 6.7938 15.2145 6.90781 15.1557C7.04149 15.0931 7.17516 15.0382 7.31276 14.9795C8.15805 14.6192 9.00334 14.2589 9.84863 13.8986C10.1356 13.7772 10.2064 13.8046 10.3204 14.1023C10.3833 14.2707 10.4502 14.4391 10.517 14.6192C10.5838 14.5879 10.6428 14.5565 10.7018 14.5252C12.1014 13.7733 13.5011 13.0214 14.9046 12.2695C14.9361 12.2538 14.9636 12.2342 14.9951 12.2225C15.1209 12.1677 15.2388 12.2029 15.2978 12.3126C15.3568 12.4222 15.3214 12.5397 15.1995 12.6102C14.999 12.7238 14.7946 12.8295 14.594 12.9392C13.2612 13.6558 11.9324 14.3686 10.5996 15.0852C10.3637 15.2105 10.2575 15.1714 10.1632 14.9247C10.0924 14.7445 10.0216 14.5605 9.95085 14.3803C9.93906 14.3725 9.9312 14.3646 9.91547 14.349Z" fill="#00CF80"/>
<path d="M8.73206 9.73179C8.50009 9.73179 8.26813 9.73179 8.01651 9.73179C8.01651 9.84927 8.01651 9.97068 8.01651 10.0882C8.01651 10.3114 8.01651 10.5385 8.01651 10.7617C8.01651 10.9341 7.93395 11.0359 7.80027 11.0398C7.66267 11.0437 7.57617 10.938 7.57617 10.7578C7.57617 10.4367 7.57617 10.1117 7.57617 9.79053C7.57617 9.43807 7.71771 9.29317 8.06762 9.28143C8.09121 9.28143 8.1148 9.27751 8.15805 9.27359C8.15805 9.16786 8.15411 9.0582 8.15805 8.95247C8.16198 8.79973 8.24847 8.70966 8.37821 8.71358C8.50796 8.71358 8.59052 8.80365 8.59838 8.95638C8.60231 9.0582 8.59838 9.16002 8.59838 9.27359C8.64949 9.27751 8.69274 9.28143 8.73599 9.28143C9.0112 9.28926 9.17239 9.44591 9.18026 9.72004C9.18812 10.0177 9.18026 10.3153 9.18026 10.6129C9.18026 11.126 9.18026 11.639 9.18026 12.152C9.18026 12.5593 9.07017 12.6768 8.65342 12.7081C8.64163 12.7081 8.6259 12.7159 8.59838 12.7238C8.59838 13.0331 8.59838 13.3425 8.59838 13.6558C8.59838 13.7224 8.60231 13.7929 8.59838 13.8595C8.58659 14.0083 8.49616 14.0983 8.37035 14.0905C8.24847 14.0866 8.16591 14.0004 8.16198 13.8555C8.15805 13.5344 8.16198 13.2094 8.16198 12.8882C8.16198 12.8334 8.16198 12.7825 8.16198 12.7159C8.09514 12.712 8.03617 12.7081 7.98112 12.7042C7.73737 12.6807 7.58797 12.524 7.5801 12.2812C7.57617 12.1089 7.57617 11.9405 7.5801 11.7682C7.58403 11.6272 7.6666 11.5411 7.79241 11.5372C7.91822 11.5372 8.00865 11.6194 8.01651 11.7604C8.02437 11.9209 8.01651 12.0815 8.01651 12.2538C8.26027 12.2538 8.49223 12.2538 8.73206 12.2538C8.73206 11.4118 8.73206 10.5777 8.73206 9.73179Z" fill="#00CF80"/>
<path d="M18.5375 10.3153C18.4628 10.284 18.4156 10.2683 18.3723 10.2448C18.2662 10.1861 18.2111 10.0999 18.2544 9.97853C18.2976 9.86104 18.392 9.8023 18.5099 9.84146C18.7655 9.92761 19.0171 10.0216 19.2648 10.1273C19.3631 10.1704 19.3985 10.2722 19.3592 10.378C19.2766 10.6012 19.194 10.8283 19.1036 11.0476C19.0564 11.1651 18.9346 11.2082 18.8205 11.1612C18.7105 11.1181 18.6633 11.0085 18.6987 10.8832C18.7144 10.8323 18.734 10.7813 18.7576 10.7069C18.7026 10.7304 18.6633 10.7461 18.6279 10.7657C18.3527 10.9145 18.0775 11.0633 17.7983 11.2082C17.6489 11.2865 17.5153 11.263 17.4523 11.1416C17.3894 11.0202 17.4366 10.9027 17.59 10.8205C17.9005 10.6599 18.2072 10.4955 18.5375 10.3153Z" fill="#00CF80"/>
</svg>
