<svg width="26" height="26" viewBox="0 0 26 26" fill="none" xmlns="http://www.w3.org/2000/svg">
<path d="M18.8992 13.7629C18.8163 13.7629 18.7334 13.7385 18.6568 13.6896C18.4655 13.5613 18.4145 13.3048 18.5484 13.1215C19.0012 12.4923 19.2499 11.7164 19.2499 10.9406C19.2499 8.81466 17.4323 7.08582 15.2002 7.08582C12.968 7.08582 11.1504 8.81466 11.1504 10.9406C11.1504 11.2338 11.2014 11.5576 11.246 11.8142C11.2843 12.0402 11.1249 12.2479 10.8953 12.2846C10.6657 12.3273 10.4425 12.1746 10.4042 11.9486C10.3532 11.6615 10.2958 11.2949 10.2958 10.9406C10.2958 8.3626 12.4961 6.26111 15.2065 6.26111C17.917 6.26111 20.1109 8.35649 20.1109 10.9406C20.1109 11.8936 19.8175 12.8038 19.2563 13.5858C19.167 13.7019 19.0331 13.7629 18.8992 13.7629Z" fill="#00CF80"/>
<path d="M13.4779 19.2611C13.4715 19.2611 13.4651 19.2611 13.4524 19.2611C12.6679 19.2427 10.895 18.5891 9.14749 17.9232C8.72019 17.7583 8.38218 17.63 8.21636 17.575C7.99315 17.5017 7.87197 17.2695 7.9485 17.0557C8.02503 16.8419 8.26738 16.7258 8.4906 16.7991C8.66917 16.8541 9.01994 16.9885 9.46637 17.1596C10.6271 17.5994 12.7827 18.4241 13.4715 18.4425C13.4779 18.4425 13.4779 18.4425 13.4843 18.4425C14.3708 18.4425 18.446 16.2615 19.1284 15.1069C19.1795 15.0214 19.205 14.9542 19.2241 14.9115C18.5864 14.8382 16.284 15.7606 15.895 16.0355C15.71 16.1699 15.4422 16.1394 15.2955 15.9683C15.1552 15.7973 15.168 15.5529 15.3465 15.4063C15.5761 15.223 18.9307 13.5736 19.8364 14.2883C20.066 14.4716 20.2637 14.832 19.8682 15.5101C19.0774 16.8663 14.747 19.2611 13.4779 19.2611Z" fill="#00CF80"/>
<path d="M14.4408 16.9455C14.2622 16.9455 14.0772 16.9272 13.8859 16.8967L13.752 16.8722C12.8782 16.7134 12.0555 16.5668 11.118 16.2797C10.8948 16.2125 10.7673 15.9803 10.8374 15.7665C10.9076 15.5527 11.1435 15.4305 11.3731 15.4977C12.2596 15.7665 13.0185 15.9009 13.905 16.0658L14.039 16.0903C14.5747 16.188 14.9637 16.0781 15.1423 15.9559C15.2061 15.9131 15.2252 15.8765 15.2252 15.8704C15.2252 15.8337 15.0785 15.5955 14.3642 15.3877C13.0823 15.009 12.3298 14.4775 11.7239 14.0499C11.3476 13.7872 11.0542 13.5795 10.7354 13.4817C9.88076 13.2313 7.85906 13.6406 6.88329 14.4164C6.69834 14.563 6.43048 14.5386 6.28379 14.3675C6.13073 14.1965 6.15624 13.9338 6.33481 13.7933C7.54656 12.822 9.90627 12.3821 10.9905 12.7059C11.4497 12.8464 11.8132 13.103 12.2341 13.3962C12.8145 13.8055 13.4714 14.2698 14.6193 14.6058C16.1882 15.064 16.1181 15.8398 16.0607 16.0658C15.9204 16.6034 15.2571 16.9455 14.4408 16.9455Z" fill="#00CF80"/>
<path d="M5.78646 18.7052C5.58876 18.7052 5.41018 18.5708 5.36554 18.3814L5.18697 17.5872C5.13595 17.3673 5.28901 17.1474 5.5186 17.0985C5.75458 17.0496 5.97779 17.1901 6.02881 17.4162L6.1181 17.8133L6.96632 17.6422L6.11172 13.7202L5.2635 13.8913L5.78009 16.1883C5.83111 16.4082 5.68442 16.6281 5.44845 16.677C5.22523 16.7259 4.98926 16.5853 4.93824 16.3593L4.33875 13.6591C4.31324 13.5553 4.33875 13.4392 4.39614 13.3476C4.45992 13.2559 4.55558 13.1949 4.67038 13.1704L6.35407 12.8344C6.59004 12.7856 6.81326 12.9322 6.8579 13.1521L7.89107 17.8743C7.91659 17.9782 7.89107 18.0943 7.8273 18.1798C7.76352 18.2714 7.66786 18.3325 7.55944 18.357L5.87575 18.6929C5.84386 18.7052 5.81197 18.7052 5.78646 18.7052Z" fill="#00CF80"/>
<path d="M15.1998 11.3804C14.1093 11.3804 13.2866 10.8001 13.2866 10.0303C13.2866 9.28503 14.1284 8.70468 15.1998 8.70468C16.2585 8.70468 17.0876 9.28503 17.0876 10.0303C17.0876 10.2564 16.8963 10.4396 16.6603 10.4396C16.4243 10.4396 16.233 10.2564 16.233 10.0303C16.233 9.79819 15.7802 9.52329 15.1998 9.52329C14.5429 9.52329 14.1412 9.81652 14.1412 10.0303C14.1412 10.2808 14.5748 10.5618 15.1998 10.5618C15.4358 10.5618 15.6271 10.7451 15.6271 10.9711C15.6271 11.1971 15.4358 11.3804 15.1998 11.3804Z" fill="#00CF80"/>
<path d="M15.1998 13.213C14.1284 13.213 13.2866 12.6327 13.2866 11.8874C13.2866 11.6613 13.4779 11.4781 13.7139 11.4781C13.9498 11.4781 14.1412 11.6613 14.1412 11.8874C14.1412 12.1012 14.5429 12.3944 15.1998 12.3944C15.7802 12.3944 16.233 12.1195 16.233 11.8874C16.233 11.6552 15.7802 11.3803 15.1998 11.3803C14.9639 11.3803 14.7725 11.197 14.7725 10.971C14.7725 10.745 14.9639 10.5617 15.1998 10.5617C16.2585 10.5617 17.0876 11.1421 17.0876 11.8874C17.0876 12.6265 16.2585 13.213 15.1998 13.213Z" fill="#00CF80"/>
<path d="M15.2001 9.52313C14.9642 9.52313 14.7728 9.33986 14.7728 9.11382V8.33798C14.7728 8.11195 14.9642 7.92868 15.2001 7.92868C15.4361 7.92868 15.6274 8.11195 15.6274 8.33798V9.10772C15.6274 9.33986 15.4361 9.52313 15.2001 9.52313Z" fill="#00CF80"/>
<path d="M15.2001 14.0075C14.9642 14.0075 14.7728 13.8242 14.7728 13.5982V12.804C14.7728 12.578 14.9642 12.3947 15.2001 12.3947C15.4361 12.3947 15.6274 12.578 15.6274 12.804V13.5982C15.6274 13.8242 15.4361 14.0075 15.2001 14.0075Z" fill="#00CF80"/>
</svg>
