<svg width="25" height="26" viewBox="0 0 25 26" fill="none" xmlns="http://www.w3.org/2000/svg">
<path d="M16.5925 12.9839H12.9V10.0506C13.7395 10.0688 14.5767 10.1489 15.4046 10.2905L16.5925 12.9839ZM16.5925 12.9839C16.5649 12.1185 16.4313 11.2597 16.1945 10.4268L15.4048 10.2906L16.5925 12.9839ZM12.5002 5.73391H12.5C8.27507 5.73391 4.85 9.15898 4.85 13.3839C4.85 17.6088 8.27507 21.0339 12.5 21.0339C16.7249 21.0339 20.15 17.6088 20.15 13.3839L20.15 13.3837C20.1453 9.16089 16.723 5.73864 12.5002 5.73391ZM15.541 9.50213L15.5405 9.50205C14.6678 9.35292 13.7851 9.26872 12.9 9.25041V6.56866C14.1229 6.76976 15.2189 7.88867 15.8981 9.56436L15.541 9.50213ZM9.45941 9.5021L9.10172 9.56398C9.78097 7.88755 10.877 6.76813 12.1 6.56749V9.25041C11.2149 9.26872 10.3324 9.35292 9.45972 9.50205L9.45941 9.5021ZM9.45927 17.2657L9.45944 17.2658C10.3322 17.4151 11.2148 17.4997 12.1 17.5186V20.2005C10.877 19.9993 9.78089 18.8801 9.10167 17.2041L9.45927 17.2657ZM15.5406 17.2657L15.8983 17.2038C15.219 18.8803 14.123 19.9997 12.9 20.2003V17.5186C13.7851 17.4997 14.6676 17.4151 15.5403 17.2658L15.5406 17.2657ZM19.3367 13.7839C19.2955 14.5016 19.1408 15.2084 18.8783 15.8778L17.0576 16.192C17.2551 15.4037 17.3674 14.5963 17.3924 13.7839H19.3367ZM6.12174 15.8778C5.8592 15.2084 5.70449 14.5016 5.66327 13.7839H7.60763C7.63262 14.5963 7.74488 15.4037 7.94242 16.192L6.12174 15.8778ZM5.66327 12.9839C5.70449 12.2662 5.8592 11.5595 6.12174 10.89L7.94242 10.5759C7.74488 11.3642 7.63262 12.1715 7.60763 12.9839H5.66327ZM9.59548 10.2906C9.59553 10.2905 9.59558 10.2905 9.59562 10.2905C10.4234 10.1489 11.2605 10.0688 12.1 10.0506V12.9839H8.40752C8.43506 12.1185 8.56871 11.2597 8.80552 10.4268L9.59548 10.2906ZM8.40752 13.7839H12.1V16.7173C11.2604 16.6991 10.4232 16.6189 9.59524 16.4773L8.80552 16.341C8.56871 15.5081 8.43506 14.6493 8.40752 13.7839ZM15.4045 16.4773C14.5767 16.6189 13.7396 16.6991 12.9 16.7173V13.7839H16.5925C16.5649 14.6493 16.4313 15.5081 16.1945 16.341L15.4045 16.4773ZM19.3367 12.9839H17.3924C17.3674 12.1715 17.2551 11.3642 17.0576 10.5759L18.8783 10.89C19.1408 11.5595 19.2955 12.2662 19.3367 12.9839ZM16.8047 9.72041C16.4974 8.76314 15.9897 7.88507 15.3179 7.14358C16.6357 7.74151 17.7353 8.74167 18.4548 10.0051L16.8047 9.72041ZM8.19532 9.72041L6.54521 10.0051C7.26474 8.74167 8.36433 7.74151 9.68209 7.14358C9.01032 7.88507 8.50255 8.76314 8.19532 9.72041ZM9.68209 19.6242C8.36433 19.0263 7.26474 18.0262 6.54521 16.7627L8.19532 17.0474C8.50255 18.0047 9.01032 18.8827 9.68209 19.6242ZM16.8047 17.0474L18.4548 16.7627C17.7353 18.0262 16.6357 19.0263 15.3179 19.6242C15.9897 18.8827 16.4974 18.0047 16.8047 17.0474Z" fill="#00CF80" stroke="#00CF80" stroke-width="0.3"/>
</svg>
