<svg width="26" height="26" viewBox="0 0 26 26" fill="none" xmlns="http://www.w3.org/2000/svg">
<path d="M20.9869 6.01111H4.25946C3.8533 6.01111 3.52222 6.35191 3.52222 6.76999V11.2599C3.52222 11.6779 3.8533 12.0187 4.25946 12.0187H6.70024V11.2737H4.25946C4.25176 11.2737 4.24598 11.2678 4.24598 11.2599V6.76999C4.24598 6.76206 4.25176 6.75612 4.25946 6.75612H20.9869C20.9946 6.75612 21.0004 6.76206 21.0004 6.76999V11.2599C21.0004 11.2678 20.9946 11.2737 20.9869 11.2737H18.9465V12.0187H20.9869C21.3931 12.0187 21.7241 11.6779 21.7241 11.2599V6.76999C21.7222 6.35191 21.3931 6.01111 20.9869 6.01111Z" fill="#00CF80"/>
<path d="M7.42285 14.1313V15.3559H8.38145V15.34C8.38338 14.7436 7.97145 14.2443 7.42285 14.1313Z" fill="#02194A"/>
<path d="M17.2649 15.3384V15.3543H18.2235V14.1298C17.6768 14.2447 17.2649 14.744 17.2649 15.3384Z" fill="#02194A"/>
<path d="M20.9868 6.75696H4.25932C4.25162 6.75696 4.24585 6.7629 4.24585 6.77083V11.2607C4.24585 11.2686 4.25162 11.2746 4.25932 11.2746H6.70011V10.7435C6.70011 10.3433 7.01579 10.0164 7.40655 10.0164H13.8588C14.0456 10.0164 14.1996 10.165 14.2149 10.3552C14.2149 10.3592 14.0687 10.7594 13.8608 10.7594H10.6616C10.7386 11.9165 11.6779 12.8339 12.8213 12.8339C13.9647 12.8339 14.9041 11.9165 14.9811 10.7594C14.9849 10.7079 14.9868 10.6564 14.9868 10.6048C14.9868 10.5791 14.9811 10.5117 14.9714 10.4305C14.9483 10.2086 15.1158 10.0164 15.3314 10.0164C15.5181 10.0164 15.676 10.163 15.6914 10.3552C15.701 10.4681 15.7087 10.5712 15.7087 10.6048C15.7087 10.6564 15.7068 10.7079 15.7048 10.7594C15.6259 12.3267 14.3632 13.577 12.8194 13.577C11.2775 13.577 10.0129 12.3267 9.93395 10.7594H7.42195V13.3768C8.369 13.4977 9.10432 14.3319 9.10432 15.3384C9.10432 15.3444 9.10432 15.3483 9.10432 15.3543H16.5422C16.5422 15.3483 16.5422 15.3444 16.5422 15.3384C16.5422 14.3319 17.2775 13.4977 18.2245 13.3768V10.7614H16.7058C16.5191 10.7614 16.3631 10.6108 16.3497 10.4186V10.4067C16.3362 10.1947 16.4998 10.0164 16.7058 10.0164H18.2419C18.6307 10.0164 18.9483 10.3413 18.9483 10.7435V11.2746H20.9887C20.9964 11.2746 21.0022 11.2686 21.0022 11.2607V6.77083C21.0002 6.7629 20.9945 6.75696 20.9868 6.75696ZM18.5826 9.13663H7.06199C6.8618 9.13663 6.70011 8.97019 6.70011 8.76412C6.70011 8.55806 6.8618 8.39162 7.06199 8.39162H18.5845C18.7847 8.39162 18.9464 8.55806 18.9464 8.76412C18.9444 8.97019 18.7828 9.13663 18.5826 9.13663Z" fill="#02194A"/>
<path d="M18.2371 10.0181H7.40566C7.01683 10.0181 6.69922 10.343 6.69922 10.7452V11.2763V12.0213V13.4281V14.2147V15.3758C6.69922 15.776 7.0149 16.101 7.40374 16.101H8.12365H8.95329H16.6876H17.5172H18.2371C18.626 16.101 18.9436 15.776 18.9436 15.3738V14.2127V13.4261V12.0193V11.2743V10.7433C18.9436 10.343 18.6279 10.0181 18.2371 10.0181ZM14.9821 10.7611C14.9051 11.9182 13.9657 12.8356 12.8224 12.8356C11.679 12.8356 10.7396 11.9182 10.6626 10.7611H14.9821ZM8.38159 15.354H7.42298V14.1295C7.96966 14.2444 8.38159 14.7417 8.38159 15.3381V15.354ZM18.2217 15.354H17.2631V15.3381C17.2631 14.7437 17.675 14.2444 18.2217 14.1295V15.354ZM18.2217 13.3785C17.2747 13.4994 16.5393 14.3336 16.5393 15.3401C16.5393 15.3461 16.5393 15.35 16.5393 15.356H9.10343C9.10343 15.35 9.10343 15.3461 9.10343 15.3401C9.10343 14.3336 8.36811 13.4994 7.42106 13.3785V10.7611H9.93499C10.0139 12.3284 11.2767 13.5786 12.8204 13.5786C14.3623 13.5786 15.6269 12.3284 15.7059 10.7611H18.2198V13.3785H18.2217Z" fill="#00CF80"/>
<path d="M18.5817 16.8481H7.0611C6.86091 16.8481 6.69922 17.0146 6.69922 17.2206C6.69922 17.4267 6.86091 17.5932 7.0611 17.5932H18.5836C18.7838 17.5932 18.9455 17.4267 18.9455 17.2206C18.9436 17.0146 18.7819 16.8481 18.5817 16.8481Z" fill="#00CF80"/>
<path d="M18.5817 18.2653H7.0611C6.86091 18.2653 6.69922 18.4317 6.69922 18.6378C6.69922 18.8438 6.86091 19.0103 7.0611 19.0103H18.5836C18.7838 19.0103 18.9455 18.8438 18.9455 18.6378C18.9455 18.4317 18.7819 18.2653 18.5817 18.2653Z" fill="#00CF80"/>
<path d="M7.0611 9.13649H18.5836C18.7838 9.13649 18.9455 8.97005 18.9455 8.76398C18.9455 8.55792 18.7838 8.39148 18.5836 8.39148H7.0611C6.86091 8.39148 6.69922 8.55792 6.69922 8.76398C6.69922 8.97005 6.86091 9.13649 7.0611 9.13649Z" fill="#00CF80"/>
</svg>
