<svg width="26" height="26" viewBox="0 0 26 26" fill="none" xmlns="http://www.w3.org/2000/svg">
<path d="M12.0563 20.1228C12.0265 20.1228 11.996 20.1187 11.9655 20.1099C11.8337 20.0694 11.744 19.9476 11.744 19.8105V10.4353C11.744 10.3146 11.8132 10.2044 11.9227 10.1529C12.0311 10.1001 12.1606 10.1165 12.2544 10.1927L19.1293 15.8178C19.2318 15.9016 19.2705 16.0405 19.2254 16.1647C19.1815 16.2895 19.0637 16.3727 18.9313 16.3727H14.7235L12.3158 19.9833C12.2572 20.0723 12.1588 20.1227 12.0563 20.1227L12.0563 20.1228ZM12.3686 11.0944V18.778L14.2965 15.887C14.3545 15.8003 14.4523 15.7475 14.5566 15.7475H18.0559L12.3686 11.0944Z" fill="#00CF80"/>
<path d="M10.2614 15.4141C10.2239 15.4141 10.1858 15.4071 10.1489 15.3936C7.41482 14.3418 6.04605 11.2621 7.09787 8.52795C8.14964 5.79385 11.2294 4.42507 13.9635 5.47689C16.6976 6.52867 18.0664 9.60842 17.0146 12.3425C16.9519 12.5037 16.7708 12.5834 16.6108 12.5218C16.4503 12.4597 16.3694 12.2787 16.4315 12.1181C17.3591 9.70576 16.1515 6.98816 13.7391 6.06054C11.3262 5.13123 8.60859 6.33946 7.68097 8.75174C6.75342 11.1641 7.96106 13.8817 10.3734 14.8093C10.5339 14.8714 10.6148 15.0525 10.5527 15.213C10.5052 15.3378 10.3868 15.414 10.2615 15.414L10.2614 15.4141Z" fill="#00CF80"/>
</svg>
