<svg width="26" height="26" viewBox="0 0 26 26" fill="none" xmlns="http://www.w3.org/2000/svg">
<g clip-path="url(#clip0_2705_75189)">
<path d="M21.2212 5.55652H6.75691C6.60958 5.55652 6.48905 5.67705 6.48905 5.82438V19.2172C6.48905 19.6592 6.12744 20.0208 5.68548 20.0208C5.24351 20.0208 4.88191 19.6592 4.88191 19.2172V7.69938C4.88191 7.55205 4.76137 7.43152 4.61405 7.43152C4.46673 7.43152 4.34619 7.55205 4.34619 7.69938V19.2172C4.34619 19.9538 4.94887 20.5565 5.68548 20.5565H20.1498C20.8864 20.5565 21.489 19.9538 21.489 19.2172V5.82438C21.489 5.67705 21.3685 5.55652 21.2212 5.55652ZM20.9533 19.2172C20.9533 19.6592 20.5917 20.0208 20.1498 20.0208H6.75691C6.92432 19.7998 7.02476 19.5186 7.02476 19.2172V6.09223H20.9533V19.2172Z" fill="#00CF80" stroke="#00CF80" stroke-width="0.2"/>
<path d="M5.68546 19.4851C5.83278 19.4851 5.95332 19.3646 5.95332 19.2172V6.89581C5.95332 6.74848 5.83278 6.62795 5.68546 6.62795C5.53814 6.62795 5.4176 6.74848 5.4176 6.89581V19.2172C5.4176 19.3646 5.53814 19.4851 5.68546 19.4851Z" fill="#00CF80" stroke="#00CF80" stroke-width="0.2"/>
<path d="M8.36405 15.7351H12.6498C12.7971 15.7351 12.9176 15.6146 12.9176 15.4672V10.6458C12.9176 10.4985 12.7971 10.3779 12.6498 10.3779H8.36405C8.21673 10.3779 8.09619 10.4985 8.09619 10.6458V15.4672C8.09619 15.6146 8.21673 15.7351 8.36405 15.7351ZM8.63191 10.9137H12.3819V15.1994H8.63191V10.9137Z" fill="#00CF80" stroke="#00CF80" stroke-width="0.2"/>
<path d="M8.61405 8.09223H19.864C20.0114 8.09223 20.1319 7.9717 20.1319 7.82438C20.1319 7.67705 20.0114 7.55652 19.864 7.55652H8.61405C8.46673 7.55652 8.34619 7.67705 8.34619 7.82438C8.34619 7.9717 8.46673 8.09223 8.61405 8.09223Z" fill="#00CF80" stroke="#00CF80" stroke-width="0.2"/>
<path d="M19.9712 10.5565H14.614C14.4667 10.5565 14.3462 10.6771 14.3462 10.8244C14.3462 10.9717 14.4667 11.0922 14.614 11.0922H19.9712C20.1185 11.0922 20.239 10.9717 20.239 10.8244C20.239 10.6771 20.1185 10.5565 19.9712 10.5565Z" fill="#00CF80" stroke="#00CF80" stroke-width="0.2"/>
<path d="M19.9712 13.5565H14.614C14.4667 13.5565 14.3462 13.6771 14.3462 13.8244C14.3462 13.9717 14.4667 14.0922 14.614 14.0922H19.9712C20.1185 14.0922 20.239 13.9717 20.239 13.8244C20.239 13.6771 20.1185 13.5565 19.9712 13.5565Z" fill="#00CF80" stroke="#00CF80" stroke-width="0.2"/>
<path d="M19.9712 16.5565H14.614C14.4667 16.5565 14.3462 16.6771 14.3462 16.8244C14.3462 16.9717 14.4667 17.0922 14.614 17.0922H19.9712C20.1185 17.0922 20.239 16.9717 20.239 16.8244C20.239 16.6771 20.1185 16.5565 19.9712 16.5565Z" fill="#00CF80" stroke="#00CF80" stroke-width="0.2"/>
</g>
<defs>
<clipPath id="clip0_2705_75189">
<rect width="17.1429" height="15" fill="white" transform="translate(4.34619 5.55652)"/>
</clipPath>
</defs>
</svg>
