<svg width="26" height="26" viewBox="0 0 26 26" fill="none" xmlns="http://www.w3.org/2000/svg">
<path d="M5.53442 13.7672C5.59279 13.6469 5.69395 13.5849 5.81845 13.5384C6.78726 13.1583 7.75607 12.7743 8.72099 12.3826C8.88829 12.3166 9.03225 12.3205 9.19567 12.3864C10.18 12.782 11.1644 13.1738 12.1488 13.5655C12.3044 13.6276 12.3783 13.7323 12.3783 13.8991C12.3783 15.0859 12.3745 16.2688 12.3745 17.4556C12.3745 17.7504 12.3317 17.8086 12.0593 17.9211C11.0749 18.3128 10.0906 18.7123 9.10229 19.0963C9.01669 19.1312 8.89608 19.1312 8.81048 19.0963C7.82221 18.7084 6.83784 18.3167 5.85736 17.9133C5.74064 17.8668 5.64337 17.7621 5.53831 17.6884C5.53442 16.3774 5.53442 15.0742 5.53442 13.7672ZM6.16473 14.3334C6.16084 14.3684 6.15695 14.3916 6.15695 14.411C6.15695 15.3651 6.15695 16.3154 6.15306 17.2695C6.15306 17.3548 6.18808 17.3858 6.262 17.413C7.01293 17.7116 7.76385 18.0103 8.51478 18.3089C8.55369 18.3244 8.59259 18.3361 8.63928 18.3516C8.64317 18.305 8.64317 18.2701 8.64317 18.2391C8.64317 17.3044 8.64317 16.3735 8.64706 15.4388C8.64706 15.3341 8.60816 15.2992 8.51867 15.2643C7.77553 14.9695 7.03627 14.6748 6.29313 14.38C6.25422 14.3606 6.21531 14.349 6.16473 14.3334ZM11.7441 14.3373C11.7013 14.349 11.6702 14.3528 11.6469 14.3645C10.8804 14.667 10.1178 14.9773 9.3513 15.2759C9.25792 15.3108 9.26181 15.369 9.26181 15.4427C9.26181 16.2417 9.26181 17.0406 9.26181 17.8357C9.26181 18.0025 9.26181 18.1732 9.26181 18.3555C9.32017 18.3361 9.36297 18.3206 9.40966 18.3012C10.1411 18.0103 10.8765 17.7155 11.6119 17.4285C11.7247 17.3858 11.7519 17.3277 11.7519 17.2152C11.748 16.3076 11.748 15.3962 11.748 14.4886C11.7441 14.442 11.7441 14.3955 11.7441 14.3373ZM11.1994 13.8719C11.1722 13.8525 11.1605 13.8409 11.1411 13.8331C10.4368 13.55 9.72871 13.2669 9.02447 12.9915C8.97389 12.9721 8.89997 12.9837 8.84939 13.0031C8.3358 13.2048 7.82222 13.4104 7.31252 13.612C7.1102 13.6935 6.91177 13.7711 6.6861 13.8641C7.32419 14.1201 7.94283 14.349 8.54201 14.6127C8.82993 14.7407 9.07116 14.7407 9.36297 14.6127C9.96216 14.349 10.5808 14.1201 11.1994 13.8719Z" fill="#00CF80"/>
<path d="M20.4479 15.7181C20.4479 16.3076 20.4479 16.8972 20.4479 17.4906C20.4479 17.731 20.4012 17.8086 20.1755 17.8978C19.1756 18.3012 18.1717 18.7045 17.1679 19.0963C17.0862 19.1273 16.9734 19.1273 16.8917 19.0963C15.884 18.7007 14.8762 18.2934 13.8685 17.8901C13.6662 17.8086 13.6117 17.7272 13.6117 17.5061C13.6078 16.2999 13.6078 15.0975 13.6078 13.8913C13.6078 13.7323 13.6818 13.6237 13.8257 13.5655C14.8218 13.1699 15.8139 12.7782 16.81 12.3787C16.9656 12.3166 17.1018 12.3166 17.2574 12.3787C18.2457 12.7782 19.2339 13.1699 20.2261 13.5655C20.3934 13.6315 20.4518 13.7168 20.4518 13.8952C20.4479 14.5002 20.4479 15.1092 20.4479 15.7181ZM19.8253 14.3296C19.7748 14.3451 19.7475 14.349 19.7203 14.3606C18.9616 14.6631 18.2029 14.9695 17.4403 15.2682C17.3508 15.3031 17.3313 15.3535 17.3313 15.4388C17.3352 16.3658 17.3313 17.2966 17.3313 18.2236C17.3313 18.2624 17.3352 18.2973 17.3391 18.3477C17.3702 18.34 17.3936 18.3361 17.413 18.3283C18.1873 18.0219 18.9577 17.7116 19.732 17.4052C19.8253 17.3703 19.8214 17.3083 19.8214 17.2346C19.8214 16.583 19.8214 15.9314 19.8214 15.2759C19.8253 14.9695 19.8253 14.6631 19.8253 14.3296ZM14.2498 14.3257C14.242 14.3606 14.2382 14.3761 14.2382 14.3878C14.2382 15.3496 14.2382 16.3115 14.2343 17.2773C14.2343 17.3703 14.2848 17.3897 14.351 17.4169C14.9229 17.6418 15.4949 17.8707 16.0668 18.0995C16.2808 18.1848 16.4948 18.2701 16.7205 18.3594C16.7205 17.3548 16.7205 16.3736 16.7166 15.3923C16.7166 15.3535 16.666 15.2953 16.6232 15.2759C16.238 15.1169 15.8528 14.9657 15.4638 14.8105C15.063 14.6515 14.6623 14.4925 14.2498 14.3257ZM19.2767 13.8719C19.2495 13.8525 19.2378 13.8409 19.2184 13.8331C18.5141 13.55 17.806 13.2669 17.1018 12.9915C17.0512 12.9721 16.9773 12.9837 16.9267 13.0031C16.3275 13.2358 15.7283 13.4763 15.133 13.7129C15.0163 13.7594 14.9035 13.806 14.7673 13.8642C15.3548 14.0969 15.9268 14.2986 16.4715 14.5545C16.8606 14.7368 17.1991 14.7368 17.5881 14.5545C18.1367 14.2986 18.7087 14.0969 19.2767 13.8719Z" fill="#00CF80"/>
<path d="M16.4053 9.54349C16.4053 10.133 16.4053 10.7226 16.4053 11.3121C16.4053 11.5448 16.3548 11.6185 16.1369 11.7038C15.1408 12.1033 14.1409 12.5028 13.141 12.8945C13.0554 12.9294 12.9347 12.9333 12.8491 12.8984C11.8492 12.5067 10.8532 12.1033 9.85323 11.7038C9.61978 11.6107 9.57698 11.5448 9.57309 11.2888C9.5692 10.0904 9.5692 8.89191 9.56531 7.68957C9.56531 7.53443 9.63534 7.42583 9.78319 7.36377C10.7948 6.96041 11.8064 6.56092 12.818 6.15368C12.9464 6.10326 13.0592 6.11877 13.1838 6.16532C14.1331 6.54541 15.0786 6.92163 16.0279 7.30172C16.0824 7.32499 16.1369 7.34438 16.1913 7.36377C16.3431 7.42195 16.4053 7.53443 16.4053 7.68957C16.4053 8.30237 16.4053 8.91905 16.4053 9.53186C16.4092 9.54349 16.4053 9.54349 16.4053 9.54349ZM12.6702 12.1615C12.6741 12.1149 12.678 12.0917 12.678 12.0684C12.678 11.122 12.678 10.1718 12.6818 9.22546C12.6818 9.12074 12.6274 9.09747 12.5534 9.06644C11.8103 8.77167 11.0672 8.47691 10.3279 8.17826C10.289 8.16275 10.2501 8.15111 10.1995 8.1356C10.1995 9.13237 10.1995 10.1136 10.2034 11.0949C10.2034 11.1337 10.254 11.1919 10.2968 11.2113C10.6314 11.3509 10.9699 11.4866 11.3084 11.6185C11.748 11.7969 12.1994 11.9753 12.6702 12.1615ZM15.7828 8.1356C15.7322 8.15499 15.6894 8.1705 15.6505 8.18602C14.9113 8.48078 14.1759 8.77555 13.4367 9.06256C13.3355 9.10134 13.3005 9.15177 13.3005 9.26424C13.3044 10.1834 13.3044 11.1027 13.3044 12.0219C13.3044 12.0645 13.3083 12.1033 13.3122 12.1654C14.1448 11.8318 14.9619 11.506 15.7828 11.1802C15.7828 10.1679 15.7828 9.15952 15.7828 8.1356ZM15.2459 7.67406C15.1992 7.65078 15.1875 7.63915 15.1681 7.63527C14.4677 7.35602 13.7674 7.07289 13.0631 6.79751C13.0087 6.77812 12.9309 6.78976 12.8725 6.80915C12.2033 7.07289 11.5302 7.3405 10.8609 7.60812C10.8259 7.62363 10.7909 7.64303 10.7325 7.67406C11.4835 7.9727 12.2072 8.26359 12.9309 8.54672C12.9659 8.56223 13.0164 8.55835 13.0515 8.54284C13.779 8.25971 14.4988 7.9727 15.2459 7.67406Z" fill="#00CF80"/>
</svg>
