<svg width="25" height="26" viewBox="0 0 25 26" fill="none" xmlns="http://www.w3.org/2000/svg">
<path d="M16.3395 12.6866C16.4508 12.641 16.5622 12.5867 16.6706 12.5268C18.1748 11.6762 18.7057 9.76098 17.8552 8.25677C17.0046 6.75256 15.0893 6.22166 13.5851 7.07224C12.4691 7.70304 11.8925 8.92182 12.0124 10.1206C11.0477 9.39849 9.70614 9.26719 8.59011 9.89799C7.0859 10.7514 6.555 12.6667 7.40558 14.1709C8.25616 15.6751 10.1714 16.206 11.6756 15.3554C11.7641 15.3069 11.8469 15.2526 11.9268 15.1956C11.8583 15.8264 11.9753 16.4828 12.3093 17.0765C13.1598 18.5808 15.0751 19.1117 16.5793 18.2611C18.0835 17.4105 18.6144 15.4953 17.7638 13.991C17.427 13.3916 16.9189 12.9521 16.3395 12.6866ZM11.119 14.3707C10.1571 14.9158 8.93263 14.5762 8.38746 13.6143C7.84229 12.6524 8.18195 11.4279 9.14385 10.8827C10.1057 10.3376 11.3302 10.6772 11.8754 11.6391C12.4206 12.601 12.0809 13.8284 11.119 14.3707ZM14.1389 8.05697C15.1008 7.5118 16.3253 7.85146 16.8704 8.81336C17.4156 9.77526 17.0759 10.9997 16.114 11.5449C15.1521 12.0901 13.9276 11.7504 13.3825 10.7885C12.8373 9.82663 13.177 8.60214 14.1389 8.05697ZM13.0685 12.3241L13.0257 11.9188L13.3511 12.1614C13.5166 12.2842 13.6993 12.3926 13.8962 12.4811L14.2673 12.6495L13.8905 12.8065C13.7735 12.855 13.6708 12.9036 13.5794 12.9578C13.4966 13.0035 13.4167 13.0548 13.3397 13.1091L13.0171 13.3346L13.0599 12.9435C13.0885 12.7352 13.0885 12.5239 13.0685 12.3241ZM16.0227 17.2763C15.0608 17.8215 13.8363 17.4819 13.2911 16.52C12.746 15.5581 13.0856 14.3336 14.0475 13.7884C15.0094 13.2432 16.2339 13.5829 16.7791 14.5448C17.3243 15.5067 16.9846 16.7312 16.0227 17.2763Z" fill="#00CF80"/>
</svg>
