<svg width="25" height="26" viewBox="0 0 25 26" fill="none" xmlns="http://www.w3.org/2000/svg">
<g clip-path="url(#clip0_2398_530)">
<path d="M12.4847 20.7852C16.6258 20.7852 19.9693 17.4416 19.9693 13.3005C20 9.15939 16.6258 5.78516 12.4847 5.78516C8.34356 5.78516 5 9.12871 5 13.2698C5 17.4109 8.34356 20.7852 12.4847 20.7852ZM9.8773 16.2453C9.93865 15.9999 10 15.7545 10.092 15.5091C10.184 15.233 10.2454 15.2023 10.5215 15.325C10.9816 15.5398 11.4417 15.6931 11.9325 15.7545C12.2393 15.7852 12.5767 15.7545 12.8528 15.6318C13.4049 15.3864 13.4969 14.7422 13.0368 14.3741C12.8834 14.2514 12.6994 14.1594 12.5153 14.0674C12.0245 13.8526 11.5337 13.6993 11.0736 13.4232C10.3374 12.9937 9.8773 12.3802 9.90798 11.46C9.96933 10.4477 10.5521 9.80356 11.4724 9.46614C11.8712 9.31276 11.8712 9.34344 11.8712 8.91399C11.8712 8.79129 11.8712 8.63792 11.8712 8.51522C11.8712 8.20847 11.9325 8.14712 12.2393 8.14712C12.3313 8.14712 12.4233 8.14712 12.5153 8.14712C13.1595 8.14712 13.1595 8.14712 13.1595 8.79129C13.1595 9.25141 13.1595 9.25141 13.6196 9.31276C13.9571 9.37411 14.2945 9.46614 14.6319 9.61951C14.816 9.71154 14.8773 9.83424 14.816 10.0183C14.7239 10.2944 14.6626 10.5704 14.5706 10.8465C14.4785 11.1226 14.4172 11.1533 14.1411 11.0306C13.6503 10.7852 13.0982 10.6931 12.546 10.7238C12.3926 10.7238 12.2699 10.7545 12.1166 10.8158C11.6258 11.0306 11.5644 11.552 11.9632 11.8895C12.1779 12.0428 12.3926 12.1655 12.638 12.2882C13.0675 12.4723 13.4969 12.6256 13.8957 12.871C15.184 13.5766 15.5215 15.2023 14.6319 16.3066C14.2945 16.7054 13.8957 16.9815 13.3742 17.1042C13.1595 17.1655 13.0675 17.2882 13.0675 17.5029C13.0675 17.7177 13.0675 17.9324 13.0675 18.1778C13.0675 18.3618 12.9755 18.4845 12.7607 18.4845C12.5153 18.4845 12.2699 18.4845 12.0552 18.4845C11.8405 18.4845 11.7485 18.3618 11.7485 18.1471C11.7485 17.9937 11.7485 17.8097 11.7485 17.6563C11.7485 17.2882 11.7485 17.2882 11.3804 17.2269C10.9509 17.1655 10.5215 17.0735 10.1227 16.8588C9.81595 16.6441 9.78528 16.5827 9.8773 16.2453Z" fill="#00CF80"/>
</g>
<defs>
<clipPath id="clip0_2398_530">
<rect width="15" height="15" fill="white" transform="translate(5 5.78516)"/>
</clipPath>
</defs>
</svg>
