<svg width="25" height="26" viewBox="0 0 25 26" fill="none" xmlns="http://www.w3.org/2000/svg">
<g clip-path="url(#clip0_3091_652)">
<path d="M8.34395 11.1823H5.76433C5.33439 11.1823 5 11.5167 5 11.9467V19.7811C5 20.211 5.33439 20.5454 5.76433 20.5454H8.34395C8.77389 20.5454 9.10828 20.211 9.10828 19.7811V11.9467C9.10828 11.5167 8.77389 11.1823 8.34395 11.1823Z" fill="#00CF80"/>
<path d="M19.1879 8.60271H16.6561C16.2261 8.60271 15.8917 8.9371 15.8917 9.36704V19.7811C15.8917 20.211 16.2261 20.5454 16.6561 20.5454H19.1879C19.6178 20.5454 19.9522 20.211 19.9522 19.7811V9.36704C20 8.9371 19.6178 8.60271 19.1879 8.60271Z" fill="#00CF80"/>
<path d="M13.7898 5.59315H11.2102C10.7803 5.59315 10.4459 5.92755 10.4459 6.35749V19.7811C10.4459 20.211 10.7803 20.5454 11.2102 20.5454H13.742C14.172 20.5454 14.5064 20.211 14.5064 19.7811V6.35749C14.5541 5.92755 14.172 5.59315 13.7898 5.59315Z" fill="#00CF80"/>
</g>
<defs>
<clipPath id="clip0_3091_652">
<rect width="15" height="15" fill="white" transform="translate(5 5.59315)"/>
</clipPath>
</defs>
</svg>
