<svg width="25" height="26" viewBox="0 0 25 26" fill="none" xmlns="http://www.w3.org/2000/svg">
<path fill-rule="evenodd" clip-rule="evenodd" d="M12.6949 8.70187C12.8985 8.70161 13.0887 8.80327 13.2018 8.97276L14.6127 11.0879L17.0559 11.7745C17.2516 11.8295 17.407 11.9787 17.47 12.1721C17.5331 12.3656 17.4955 12.5778 17.3698 12.7378L15.8005 14.7356L15.8951 17.2698C15.9027 17.4728 15.8087 17.6663 15.6445 17.7856C15.4803 17.905 15.2675 17.9346 15.0771 17.8645L12.6961 16.9882L10.3236 17.8642C10.1331 17.9346 9.92017 17.9052 9.75582 17.7858C9.59147 17.6665 9.49739 17.4729 9.50497 17.2698L9.59959 14.7356L8.03026 12.7378C7.9046 12.5778 7.867 12.3656 7.93004 12.1721C7.99308 11.9787 8.14843 11.8295 8.34413 11.7745L10.7865 11.0881L12.1888 8.97407C12.3015 8.80429 12.4914 8.70214 12.6949 8.70187ZM12.6972 10.4103L11.6753 11.9508C11.5947 12.0723 11.4732 12.1609 11.3329 12.2003L9.55 12.7013L10.6943 14.158C10.7835 14.2716 10.8295 14.4131 10.8241 14.5575L10.7551 16.4061L12.4852 15.7672C12.6209 15.7171 12.7699 15.7171 12.9057 15.767L14.645 16.4071L14.5759 14.5575C14.5705 14.4131 14.6165 14.2716 14.7057 14.158L15.85 12.7013L14.0672 12.2003C13.9274 12.161 13.8062 12.073 13.7256 11.9521L12.6972 10.4103Z" fill="#00CF80"/>
<path fill-rule="evenodd" clip-rule="evenodd" d="M7.74351 8.54539C5.11657 11.1723 5.11657 15.4314 7.74351 18.0584C10.3704 20.6853 14.6296 20.6853 17.2565 18.0584C19.8834 15.4314 19.8834 11.1723 17.2565 8.54539C14.6296 5.91845 10.3704 5.91845 7.74351 8.54539ZM6.75 19.0519C3.57436 15.8762 3.57436 10.7275 6.75 7.55188C9.92564 4.37624 15.0744 4.37624 18.25 7.55188C21.4256 10.7275 21.4256 15.8762 18.25 19.0519C15.0744 22.2275 9.92564 22.2275 6.75 19.0519Z" fill="#00CF80"/>
</svg>
