<svg width="25" height="26" viewBox="0 0 25 26" fill="none" xmlns="http://www.w3.org/2000/svg">
<g clip-path="url(#clip0_2705_75132)">
<path d="M20.3051 9.02924L17.0913 5.81545C16.9893 5.71341 16.8628 5.64249 16.7056 5.6583C16.5612 5.66035 16.4235 5.72055 16.3245 5.82514L6.14745 16.538C6.05306 16.6375 6 16.7701 6 16.9068V20.1206C6 20.4166 6.2398 20.6564 6.53571 20.6564H9.74949H16.177C16.473 20.6564 16.7128 20.4166 16.7128 20.1206C16.7128 19.8247 16.473 19.5849 16.177 19.5849H10.9969L20.3148 9.7767C20.5148 9.56649 20.5107 9.23486 20.3051 9.02924ZM7.07143 19.5849V17.1206L14.726 9.06292L17.1816 11.5185L9.51939 19.5849H7.07143ZM17.9199 10.742L15.4643 8.28638L16.7224 6.96188L19.1786 9.41751L17.9199 10.742ZM19.9265 20.1206C19.9265 20.4166 19.6867 20.6564 19.3908 20.6564C19.0949 20.6564 18.8551 20.4166 18.8551 20.1206C18.8551 19.8247 19.0949 19.5849 19.3908 19.5849C19.6867 19.5849 19.9265 19.8247 19.9265 20.1206ZM18.3194 20.1206C18.3194 20.4166 18.0796 20.6564 17.7837 20.6564C17.4878 20.6564 17.248 20.4166 17.248 20.1206C17.248 19.8247 17.4878 19.5849 17.7837 19.5849C18.0796 19.5849 18.3194 19.8247 18.3194 20.1206Z" fill="#00CF80"/>
</g>
<defs>
<clipPath id="clip0_2705_75132">
<rect width="14.4622" height="15" fill="white" transform="translate(6 5.65625)"/>
</clipPath>
</defs>
</svg>
