<svg width="25" height="25" viewBox="0 0 25 25" fill="none" xmlns="http://www.w3.org/2000/svg">
<path d="M5.76433 10.9391H8.34395C8.58059 10.9391 8.75828 11.1168 8.75828 11.3534V19.1878C8.75828 19.4245 8.58059 19.6022 8.34395 19.6022H5.76433C5.52769 19.6022 5.35 19.4245 5.35 19.1878V11.3534C5.35 11.1168 5.52769 10.9391 5.76433 10.9391Z" stroke="#00CF80" stroke-width="0.7"/>
<path d="M19.6043 8.7352L19.6021 8.75447V8.77385V19.1879C19.6021 19.4245 19.4244 19.6022 19.1878 19.6022H16.6559C16.4193 19.6022 16.2416 19.4245 16.2416 19.1879V8.77385C16.2416 8.53722 16.4193 8.35952 16.6559 8.35952H19.1878C19.4645 8.35952 19.6233 8.56399 19.6043 8.7352Z" stroke="#00CF80" stroke-width="0.7"/>
<path d="M14.1585 5.72568L14.1563 5.74495V5.76433V19.1879C14.1563 19.4245 13.9786 19.6022 13.742 19.6022H11.2101C10.9735 19.6022 10.7958 19.4245 10.7958 19.1879V5.76433C10.7958 5.52769 10.9735 5.35 11.2101 5.35H13.7897C14.003 5.35 14.179 5.54058 14.1585 5.72568Z" stroke="#00CF80" stroke-width="0.7"/>
</svg>
