<svg width="25" height="25" viewBox="0 0 25 25" fill="none" xmlns="http://www.w3.org/2000/svg">
<path d="M18.2607 15.4242H5.73927C5.33242 15.4242 5 15.1022 5 14.7082V6.71605C5 6.32197 5.33242 6 5.73927 6H18.2607C18.6689 6 19 6.32197 19 6.71605V14.7082C19.0013 15.1022 18.6689 15.4242 18.2607 15.4242ZM5.73927 6.55071C5.64558 6.55071 5.56857 6.6253 5.56857 6.71605V14.7082C5.56857 14.7989 5.64558 14.8735 5.73927 14.8735H18.2607C18.3544 14.8735 18.4314 14.7989 18.4314 14.7082V6.71605C18.4314 6.62405 18.3544 6.55071 18.2607 6.55071H5.73927Z" fill="#00CF80"/>
<path d="M11.4417 15.812H10.8731V17.1372H11.4417V15.812Z" fill="#00CF80"/>
<path d="M13.1269 15.812H12.5583V17.1372H13.1269V15.812Z" fill="#00CF80"/>
<path d="M14.8044 18H9.19692C9.04034 18 8.91328 17.8769 8.91328 17.724C8.91328 17.5723 9.04034 17.448 9.19692 17.448H14.8044C14.9609 17.448 15.088 17.5711 15.088 17.724C15.088 17.8769 14.9609 18 14.8044 18Z" fill="#00CF80"/>
<path d="M7.30509 13.5384C6.71213 13.5384 6.23083 13.0722 6.23083 12.4979C6.23083 11.9236 6.71213 11.4574 7.30509 11.4574C7.89805 11.4574 8.37935 11.9248 8.37935 12.4979C8.37935 13.071 7.89677 13.5384 7.30509 13.5384ZM7.30509 12.0081C7.02658 12.0081 6.79941 12.2281 6.79941 12.4979C6.79941 12.7677 7.02658 12.9877 7.30509 12.9877C7.5836 12.9877 7.81078 12.7677 7.81078 12.4979C7.81078 12.2281 7.5836 12.0081 7.30509 12.0081Z" fill="#00CF80"/>
<path d="M9.94261 10.3758C9.34965 10.3758 8.86835 9.90839 8.86835 9.33531C8.86835 8.76222 9.34965 8.2948 9.94261 8.2948C10.5356 8.2948 11.0169 8.76222 11.0169 9.33531C11.0169 9.90839 10.5356 10.3758 9.94261 10.3758ZM9.94261 8.84551C9.6641 8.84551 9.43693 9.06554 9.43693 9.33531C9.43693 9.60507 9.6641 9.8251 9.94261 9.8251C10.2211 9.8251 10.4483 9.60507 10.4483 9.33531C10.4483 9.06554 10.2211 8.84551 9.94261 8.84551Z" fill="#00CF80"/>
<path d="M12.8843 13.2711C12.2913 13.2711 11.81 12.8037 11.81 12.2306C11.81 11.6575 12.2913 11.1901 12.8843 11.1901C13.4773 11.1901 13.9586 11.6575 13.9586 12.2306C13.9586 12.8037 13.476 13.2711 12.8843 13.2711ZM12.8843 11.7408C12.6058 11.7408 12.3786 11.9608 12.3786 12.2306C12.3786 12.5003 12.6058 12.7204 12.8843 12.7204C13.1628 12.7204 13.39 12.5003 13.39 12.2306C13.39 11.9608 13.1628 11.7408 12.8843 11.7408Z" fill="#00CF80"/>
<path d="M16.6885 11.4847C16.0968 11.4847 15.6142 11.0185 15.6142 10.4442C15.6142 9.86986 16.0955 9.40369 16.6885 9.40369C17.2814 9.40369 17.7627 9.87111 17.7627 10.4442C17.7627 11.0173 17.2802 11.4847 16.6885 11.4847ZM16.6885 9.9544C16.41 9.9544 16.1828 10.1744 16.1828 10.4442C16.1828 10.714 16.41 10.934 16.6885 10.934C16.967 10.934 17.1942 10.714 17.1942 10.4442C17.1942 10.1732 16.967 9.9544 16.6885 9.9544Z" fill="#00CF80"/>
<path d="M7.70554 12.059C7.63752 12.059 7.56821 12.0354 7.51302 11.9869C7.39751 11.8837 7.38981 11.7097 7.49505 11.5978L9.23286 9.7617C9.33939 9.64982 9.51907 9.64236 9.63458 9.74554C9.75009 9.84872 9.7578 10.0228 9.65255 10.1346L7.91475 11.9695C7.85827 12.0279 7.78127 12.059 7.70554 12.059Z" fill="#00CF80"/>
<path d="M12.3388 11.8801C12.2631 11.8801 12.1861 11.8502 12.1309 11.7918L10.4188 10.0079C10.3122 9.89601 10.3187 9.72197 10.4342 9.61879C10.5497 9.51561 10.7294 9.52183 10.8359 9.63371L12.5468 11.4176C12.6533 11.5295 12.6469 11.7035 12.5314 11.8067C12.4774 11.8552 12.4081 11.8801 12.3388 11.8801Z" fill="#00CF80"/>
<path d="M13.6813 12.2629C13.5722 12.2629 13.4696 12.202 13.4221 12.1001C13.3579 11.9609 13.4221 11.798 13.5658 11.7358L15.9749 10.6904C16.1186 10.6282 16.2868 10.6904 16.3509 10.8296C16.4151 10.9688 16.3509 11.1317 16.2072 11.1938L13.7981 12.2393C13.7596 12.2555 13.7198 12.2629 13.6813 12.2629Z" fill="#00CF80"/>
</svg>
