<svg width="25" height="26" viewBox="0 0 25 26" fill="none" xmlns="http://www.w3.org/2000/svg">
<path fill-rule="evenodd" clip-rule="evenodd" d="M7.74268 20.5189L7.74268 3.63782H8.74268L8.74268 20.5189H7.74268Z" fill="#00CF80"/>
<path d="M6.27319 7.32411C6.27319 6.7802 6.71412 6.33926 7.25804 6.33926H9.22773C9.77165 6.33926 10.2126 6.78019 10.2126 7.32411V17.7367C10.2126 18.2806 9.77165 18.7215 9.22773 18.7215H7.25804C6.71412 18.7215 6.27319 18.2806 6.27319 17.7367V7.32411Z" fill="#02194A"/>
<path fill-rule="evenodd" clip-rule="evenodd" d="M9.22773 7.02866H7.25804C7.09487 7.02866 6.96259 7.16094 6.96259 7.32411V17.7367C6.96259 17.8999 7.09486 18.0321 7.25804 18.0321H9.22773C9.39091 18.0321 9.52319 17.8999 9.52319 17.7367V7.32411C9.52319 7.16094 9.39091 7.02866 9.22773 7.02866ZM7.25804 6.33926C6.71412 6.33926 6.27319 6.7802 6.27319 7.32411V17.7367C6.27319 18.2806 6.71412 18.7215 7.25804 18.7215H9.22773C9.77165 18.7215 10.2126 18.2806 10.2126 17.7367V7.32411C10.2126 6.78019 9.77165 6.33926 9.22773 6.33926H7.25804Z" fill="#00CF80"/>
<path fill-rule="evenodd" clip-rule="evenodd" d="M17.1797 20.5189V3.63782H18.1797V20.5189H17.1797Z" fill="#00CF80"/>
<path d="M15.7098 7.32411C15.7098 6.7802 16.1508 6.33926 16.6947 6.33926H18.6644C19.2083 6.33926 19.6492 6.78019 19.6492 7.32411V13.4116C19.6492 13.9555 19.2083 14.3964 18.6644 14.3964H16.6947C16.1508 14.3964 15.7098 13.9555 15.7098 13.4116V7.32411Z" fill="#02194A"/>
<path fill-rule="evenodd" clip-rule="evenodd" d="M18.6644 7.02866H16.6947C16.5315 7.02866 16.3992 7.16094 16.3992 7.32411V13.4116C16.3992 13.5748 16.5315 13.7071 16.6947 13.7071H18.6644C18.8276 13.7071 18.9598 13.5748 18.9598 13.4116V7.32411C18.9598 7.16094 18.8276 7.02866 18.6644 7.02866ZM16.6947 6.33926C16.1508 6.33926 15.7098 6.7802 15.7098 7.32411V13.4116C15.7098 13.9555 16.1508 14.3964 16.6947 14.3964H18.6644C19.2083 14.3964 19.6492 13.9555 19.6492 13.4116V7.32411C19.6492 6.78019 19.2083 6.33926 18.6644 6.33926H16.6947Z" fill="#00CF80"/>
<path fill-rule="evenodd" clip-rule="evenodd" d="M13.4614 7.68033L13.4614 17.382H12.4614L12.4614 7.68033H13.4614Z" fill="#00CF80"/>
<path d="M10.9915 10.3733C10.9915 9.82934 11.4324 9.38841 11.9764 9.38841H13.9461C14.49 9.38841 14.9309 9.82934 14.9309 10.3733V15.3621C14.9309 15.9061 14.49 16.347 13.9461 16.347H11.9764C11.4324 16.347 10.9915 15.9061 10.9915 15.3621V10.3733Z" fill="#02194A"/>
<path fill-rule="evenodd" clip-rule="evenodd" d="M13.9461 10.0778H11.9764C11.8132 10.0778 11.6809 10.2101 11.6809 10.3733V15.3621C11.6809 15.5253 11.8132 15.6576 11.9764 15.6576H13.9461C14.1092 15.6576 14.2415 15.5253 14.2415 15.3621V10.3733C14.2415 10.2101 14.1092 10.0778 13.9461 10.0778ZM11.9764 9.38841C11.4324 9.38841 10.9915 9.82934 10.9915 10.3733V15.3621C10.9915 15.9061 11.4324 16.347 11.9764 16.347H13.9461C14.49 16.347 14.9309 15.9061 14.9309 15.3621V10.3733C14.9309 9.82934 14.49 9.38841 13.9461 9.38841H11.9764Z" fill="#00CF80"/>
</svg>
