<svg width="25" height="26" viewBox="0 0 25 26" fill="none" xmlns="http://www.w3.org/2000/svg">
<path d="M20.122 12.8261C20.122 12.7874 20.125 12.7517 20.125 12.7159C20.125 10.9005 18.6845 9.41535 16.8839 9.34392C16.2411 7.34094 14.375 5.96594 12.25 5.96594C9.68155 5.96594 7.57143 7.95999 7.38691 10.4838C5.4881 10.6653 4 12.2695 4 14.2159C4 16.2844 5.68155 17.9659 7.75 17.9659H8.125V17.2159H7.75C6.09524 17.2159 4.75 15.8707 4.75 14.2159C4.75 12.6832 5.90476 11.4153 7.38988 11.2368C7.42262 11.6415 7.50298 12.0344 7.63393 12.4183L8.34226 12.1773C8.19643 11.7487 8.12202 11.2993 8.12202 10.8409C8.12202 8.56713 9.97321 6.71594 12.247 6.71594C13.9821 6.71594 15.5149 7.79928 16.1071 9.40047C15.4821 9.51951 14.9048 9.81416 14.4315 10.2576L14.9464 10.8052C15.375 10.4034 15.9167 10.1594 16.494 10.1028L16.6786 10.0939C16.7024 10.0939 16.7232 10.0909 16.747 10.0909C18.1935 10.0909 19.372 11.2695 19.372 12.7159C19.372 12.8201 19.3631 12.9332 19.3452 13.0701L19.2976 13.4362L19.6607 13.4927C20.5655 13.6326 21.247 14.4273 21.247 15.3439C21.247 16.3767 20.4048 17.2189 19.372 17.2189H17.872V17.9689H19.372C20.8185 17.9689 21.997 16.7903 21.997 15.3439C22 14.1564 21.2292 13.1505 20.122 12.8261Z" fill="#00CF80" stroke="#00CF80" stroke-width="0.1"/>
<path d="M10.75 17.9808V16.6921L11.2917 17.4034L11.8869 16.9481L10.8988 15.6564C10.6369 15.3142 10.1101 15.3142 9.8482 15.6564L8.86011 16.9481L9.45535 17.4034L9.99701 16.6921V17.9808C9.99701 19.6267 11.3363 20.9659 12.9821 20.9659H14.497V20.2159H12.9821C11.753 20.2159 10.75 19.213 10.75 17.9808Z" fill="#00CF80" stroke="#00CF80" stroke-width="0.1"/>
<path d="M16 18.4898V17.2011C16 15.5552 14.6607 14.2159 13.0149 14.2159H11.5V14.9659H13.0149C14.247 14.9659 15.25 15.9689 15.25 17.2011V18.4898L14.7083 17.7814L14.1131 18.2368L15.1012 19.5284C15.2321 19.7011 15.4226 19.7993 15.628 19.7993C15.8304 19.7993 16.0238 19.7011 16.1548 19.5284L17.1429 18.2368L16.5476 17.7814L16 18.4898Z" fill="#00CF80" stroke="#00CF80" stroke-width="0.1"/>
</svg>
