<svg width="25" height="26" viewBox="0 0 25 26" fill="none" xmlns="http://www.w3.org/2000/svg">
<path d="M17.9173 18.3333H6.11327C5.98284 18.3333 5.8772 18.2276 5.8772 18.0972V6.56932C5.8772 6.43889 5.98284 6.33325 6.11327 6.33325H17.9173C18.0478 6.33325 18.1534 6.43889 18.1534 6.56932V18.0972C18.1534 18.2273 18.0475 18.3333 17.9173 18.3333ZM6.34934 17.8611H17.6813V6.80539H6.34934V17.8611Z" fill="#00CF80"/>
<path d="M17.179 8.23743H6.85159V8.70957H17.179V8.23743Z" fill="#00CF80"/>
<path d="M10.04 7.82553H7.29775C7.16732 7.82553 7.06168 7.71989 7.06168 7.58946C7.06168 7.45903 7.16732 7.35339 7.29775 7.35339H10.0403C10.1707 7.35339 10.2764 7.45903 10.2764 7.58946C10.2764 7.71989 10.1704 7.82553 10.04 7.82553Z" fill="#00CF80"/>
<path d="M11.8633 7.82553H11.5621C11.4316 7.82553 11.326 7.71989 11.326 7.58946C11.326 7.45903 11.4316 7.35339 11.5621 7.35339H11.8633C11.9938 7.35339 12.0994 7.45903 12.0994 7.58946C12.0994 7.71989 11.9938 7.82553 11.8633 7.82553Z" fill="#00CF80"/>
<path d="M13.6412 7.82553H13.34C13.2095 7.82553 13.1039 7.71989 13.1039 7.58946C13.1039 7.45903 13.2095 7.35339 13.34 7.35339H13.6412C13.7717 7.35339 13.8773 7.45903 13.8773 7.58946C13.8773 7.71989 13.7717 7.82553 13.6412 7.82553Z" fill="#00CF80"/>
<path fill-rule="evenodd" clip-rule="evenodd" d="M7.53382 11.4704V15.0782H16.4968V11.4704H7.53382ZM6.94365 11.4359C6.94365 11.1289 7.19232 10.8802 7.4993 10.8802H16.5313C16.8383 10.8802 17.087 11.1289 17.087 11.4359V15.1127C17.087 15.4197 16.8383 15.6683 16.5313 15.6683H7.4993C7.19232 15.6683 6.94365 15.4197 6.94365 15.1127V11.4359Z" fill="#00CF80"/>
</svg>
