<svg width="26" height="26" viewBox="0 0 26 26" fill="none" xmlns="http://www.w3.org/2000/svg">
<path d="M16.3704 8.633C16.6574 8.633 16.8938 8.38966 16.8938 8.09418V6.09534C16.8938 5.79986 16.6574 5.55652 16.3704 5.55652C16.0834 5.55652 15.847 5.79986 15.847 6.09534V8.09418C15.847 8.38966 16.0834 8.633 16.3704 8.633Z" fill="#00CF80"/>
<path d="M18.3625 6.57332H17.3158V7.65095H18.3625C18.8859 7.65095 19.3079 8.13763 19.3079 8.74597V9.86706H6.3929V8.74597C6.3929 8.14632 6.81496 7.65095 7.33831 7.65095H8.38502V6.57332H7.33831C6.24096 6.57332 5.34619 7.54667 5.34619 8.74597V18.3926C5.34619 19.5919 6.24096 20.5652 7.33831 20.5652H18.3625C19.4599 20.5652 20.3546 19.5919 20.3546 18.3926V8.74597C20.3462 7.54667 19.4599 6.57332 18.3625 6.57332ZM18.3625 19.4789H7.33831C6.81496 19.4789 6.3929 18.9922 6.3929 18.3839V10.9447H19.2995V18.3839C19.2995 18.9835 18.8774 19.4789 18.3625 19.4789Z" fill="#00CF80"/>
<path d="M15.4334 6.57332H10.2674V7.65096H15.4334V6.57332Z" fill="#00CF80"/>
<path d="M9.322 8.633C9.609 8.633 9.84536 8.38966 9.84536 8.09418V6.09534C9.84536 5.79986 9.609 5.55652 9.322 5.55652C9.035 5.55652 8.79865 5.79986 8.79865 6.09534V8.09418C8.79865 8.38966 9.035 8.633 9.322 8.633Z" fill="#00CF80"/>
<path d="M13.779 12.0571H11.9134C11.6687 12.0571 11.4661 12.2657 11.4661 12.5177V14.4296C11.4661 14.6817 11.6687 14.8902 11.9134 14.8902H13.779C14.0237 14.8902 14.2263 14.6817 14.2263 14.4296V12.5177C14.2263 12.2657 14.0237 12.0571 13.779 12.0571ZM13.34 13.969H12.3608V12.9696H13.34V13.969Z" fill="#00CF80"/>
<path d="M17.4678 12.0571H15.6023C15.3575 12.0571 15.1549 12.2657 15.1549 12.5177V14.4296C15.1549 14.6817 15.3575 14.8902 15.6023 14.8902H17.4678C17.7126 14.8902 17.9152 14.6817 17.9152 14.4296V12.5177C17.9152 12.2657 17.7126 12.0571 17.4678 12.0571ZM17.0204 13.969H16.0412V12.9696H17.0204V13.969Z" fill="#00CF80"/>
<path d="M10.0986 12.0571H8.22467C7.97987 12.0571 7.77728 12.2657 7.77728 12.5177V14.4296C7.77728 14.6817 7.97987 14.8902 8.22467 14.8902H10.0902C10.335 14.8902 10.5376 14.6817 10.5376 14.4296V12.5177C10.5376 12.2657 10.3434 12.0571 10.0986 12.0571ZM9.65123 13.969H8.67205V12.9696H9.65123V13.969Z" fill="#00CF80"/>
<path d="M13.779 15.6116H11.9134C11.6687 15.6116 11.4661 15.8201 11.4661 16.0722V17.9841C11.4661 18.2361 11.6687 18.4447 11.9134 18.4447H13.779C14.0237 18.4447 14.2263 18.2361 14.2263 17.9841V16.0722C14.2263 15.8201 14.0237 15.6116 13.779 15.6116ZM13.34 17.5322H12.3608V16.5328H13.34V17.5322Z" fill="#00CF80"/>
<path d="M10.0986 15.6116H8.22467C7.97987 15.6116 7.77728 15.8201 7.77728 16.0722V17.9841C7.77728 18.2361 7.97987 18.4447 8.22467 18.4447H10.0902C10.335 18.4447 10.5376 18.2361 10.5376 17.9841V16.0722C10.5376 15.8201 10.3434 15.6116 10.0986 15.6116ZM9.65123 17.5322H8.67205V16.5328H9.65123V17.5322Z" fill="#00CF80"/>
</svg>
