<svg width="25" height="26" viewBox="0 0 25 26" fill="none" xmlns="http://www.w3.org/2000/svg">
<g clip-path="url(#clip0_2705_75200)">
<path d="M11.2522 6.2832C9.85979 6.2832 8.52481 6.8363 7.53989 7.82064C6.55556 8.8056 6.00244 10.1406 6.00244 11.533C6.00244 12.9254 6.55554 14.2604 7.53989 15.2453C8.52485 16.2297 9.85981 16.7828 11.2522 16.7828C12.6447 16.7828 13.9797 16.2297 14.9646 15.2453C15.9489 14.2604 16.502 12.9254 16.502 11.533C16.5008 10.1412 15.947 8.80685 14.9627 7.82256C13.9784 6.83828 12.6441 6.28449 11.2523 6.28324L11.2522 6.2832ZM11.2522 6.78318C12.7965 6.78443 14.2433 7.53689 15.1308 8.80054L14.5058 9.42551C14.354 9.33364 14.1796 9.28427 14.0021 9.28302C13.4496 9.28302 13.0022 9.73051 13.0022 10.283C13.0028 10.4611 13.0522 10.6355 13.144 10.788L11.5073 12.4247C11.1973 12.2353 10.8073 12.2353 10.4973 12.4247L9.36048 11.2879C9.45236 11.1354 9.50173 10.961 9.50235 10.7829C9.50298 10.2798 9.12925 9.85541 8.63051 9.79167C8.13178 9.72793 7.66304 10.046 7.53806 10.5329H6.61059C6.83995 9.47231 7.42556 8.52177 8.27053 7.83923C9.11486 7.15738 10.1668 6.7849 11.2523 6.78301L11.2522 6.78318ZM13.5021 10.2831C13.5021 10.0806 13.6239 9.8987 13.8108 9.8212C13.9977 9.7437 14.2127 9.78682 14.3558 9.92932C14.4983 10.0724 14.5414 10.2874 14.4639 10.4743C14.3864 10.6612 14.2045 10.783 14.0021 10.783C13.7258 10.783 13.5021 10.5593 13.5021 10.283L13.5021 10.2831ZM11.0022 12.783C11.2047 12.783 11.3865 12.9048 11.464 13.0917C11.5415 13.2786 11.4984 13.4936 11.3559 13.6367C11.2128 13.7792 10.9978 13.8223 10.8109 13.7448C10.6241 13.6673 10.5022 13.4854 10.5022 13.2829C10.5022 13.0067 10.7259 12.783 11.0022 12.783L11.0022 12.783ZM8.50225 11.283C8.29977 11.283 8.1179 11.1611 8.0404 10.9743C7.9629 10.7874 8.00603 10.5724 8.14852 10.4293C8.29164 10.2868 8.50664 10.2437 8.69349 10.3212C8.88037 10.3987 9.00223 10.5805 9.00223 10.783C9.00223 10.9155 8.94974 11.043 8.85599 11.1368C8.76224 11.2305 8.63475 11.283 8.50226 11.283L8.50225 11.283ZM11.2522 16.2828C9.9054 16.2835 8.62113 15.7122 7.72052 14.711C6.81931 13.7098 6.3862 12.3724 6.52932 11.0331H7.53803C7.65178 11.4731 8.04802 11.7812 8.50237 11.783C8.68049 11.7824 8.85485 11.733 9.00734 11.6412L10.1442 12.778C10.0523 12.9305 10.0029 13.1049 10.0023 13.283C10.0023 13.8355 10.4498 14.2829 11.0023 14.2829C11.5547 14.2829 12.0022 13.8355 12.0022 13.283C12.0016 13.1049 11.9522 12.9305 11.8604 12.778L13.4971 11.1413C13.6496 11.2331 13.824 11.2825 14.0021 11.2831C14.2671 11.2831 14.5214 11.1775 14.7089 10.99C14.8964 10.8025 15.002 10.5482 15.002 10.2832C15.0014 10.1051 14.952 9.9307 14.8602 9.7782L15.4051 9.23323V9.23386C16.222 10.7044 16.1989 12.4969 15.3451 13.9462C14.4914 15.3955 12.934 16.2842 11.2522 16.2829L11.2522 16.2828Z" fill="#00CF80"/>
<path d="M17.5024 5.78343C16.95 5.78343 16.5025 6.23092 16.5025 6.78339C16.5031 6.96152 16.5525 7.13588 16.6443 7.28837L16.205 7.7271C15.2131 6.43528 13.7563 5.58158 12.1445 5.34783C10.5327 5.1141 8.8934 5.51845 7.57521 6.47529C6.25702 7.43214 5.36537 8.86577 5.08842 10.4708C4.81155 12.0757 5.17217 13.7258 6.09402 15.0687C7.01523 16.4118 8.42449 17.3418 10.0214 17.6611C11.6188 17.9805 13.2776 17.6636 14.6444 16.7787L17.765 19.8992C18.2768 20.411 19.1068 20.411 19.6187 19.8992C20.1305 19.3873 20.1305 18.5574 19.6187 18.0455L16.4981 14.925C17.1537 13.915 17.5025 12.7369 17.5025 11.5333C17.5025 10.3296 17.1537 9.15142 16.4981 8.14154L16.9981 7.64156C17.15 7.73343 17.3243 7.78218 17.5025 7.78343C17.9568 7.78155 18.353 7.47344 18.4668 7.03345H20.0024V6.53347H18.4668C18.353 6.09349 17.9568 5.78537 17.5025 5.7835L17.5024 5.78343ZM19.2649 18.3993C19.4199 18.5505 19.5074 18.7574 19.5087 18.9743C19.5099 19.1905 19.4249 19.3986 19.2712 19.5518C19.1181 19.7055 18.9099 19.7905 18.6937 19.7893C18.4768 19.788 18.27 19.7005 18.1187 19.5455L16.1063 17.5331L17.2525 16.3869L19.2649 18.3993ZM16.207 15.3413L16.8988 16.0332L15.7526 17.1794L15.0607 16.4875C15.0957 16.4607 15.1289 16.4307 15.1639 16.4032C15.1989 16.3757 15.2389 16.3419 15.2764 16.3107C15.3314 16.2644 15.3851 16.2182 15.4382 16.1707C15.4657 16.1457 15.4914 16.1207 15.5182 16.0957C15.6207 15.9994 15.7201 15.9007 15.8157 15.7982C15.8407 15.7713 15.8657 15.7457 15.8907 15.7182C15.9382 15.6651 15.9851 15.6113 16.0307 15.5563C16.062 15.5194 16.0926 15.482 16.1232 15.4438C16.1501 15.4095 16.1801 15.3763 16.207 15.3413L16.207 15.3413ZM15.9295 14.872C15.8507 14.982 15.7695 15.0895 15.6838 15.1932C15.6588 15.2232 15.632 15.2526 15.6063 15.2826C15.5301 15.3713 15.4507 15.4582 15.3695 15.5413C15.3339 15.5782 15.2976 15.6138 15.2614 15.6494C15.1782 15.7307 15.092 15.8101 15.0026 15.8863C14.9726 15.9113 14.9439 15.9388 14.9132 15.9638C14.8095 16.0494 14.702 16.1307 14.592 16.2094L14.5914 16.2101C13.0089 17.3406 10.9634 17.5963 9.15158 16.8894C7.3398 16.1832 6.00673 14.6101 5.60738 12.7064C5.20864 10.8032 5.79675 8.82714 7.17169 7.45215C8.54664 6.07716 10.5228 5.48902 12.4259 5.88784C14.3295 6.2872 15.9026 7.62025 16.609 9.43203C17.3158 11.2438 17.0602 13.2893 15.9296 14.8718L15.9295 14.872ZM17.5025 7.28344C17.3 7.28344 17.1182 7.16157 17.0407 6.9747C16.9632 6.78783 17.0063 6.57284 17.1488 6.42973C17.2919 6.28723 17.5069 6.2441 17.6938 6.32161C17.8806 6.3991 18.0025 6.58097 18.0025 6.78346C18.0025 6.91596 17.95 7.04345 17.8563 7.13719C17.7625 7.23094 17.635 7.28344 17.5025 7.28344L17.5025 7.28344Z" fill="#00CF80"/>
</g>
<defs>
<clipPath id="clip0_2705_75200">
<rect width="17.1429" height="15" fill="white" transform="translate(3.92859 5.28308)"/>
</clipPath>
</defs>
</svg>
