<svg width="25" height="26" viewBox="0 0 25 26" fill="none" xmlns="http://www.w3.org/2000/svg">
<path d="M22.4165 5.18405C21.9555 5.98464 21.4946 6.78523 20.9973 7.64647C20.8517 7.40387 20.7304 7.22192 20.6394 7.0339C20.5242 6.80343 20.3847 6.78523 20.1785 6.90653C19.3961 7.36748 18.6137 7.8163 17.8313 8.27118C17.1095 8.68967 16.3878 9.11422 15.66 9.52058C15.472 9.62369 15.3931 9.74499 15.3931 9.9694C15.4053 12.0619 15.3931 14.1543 15.4053 16.2407C15.4053 16.5197 15.3203 16.6895 15.0777 16.8229C13.1915 17.9025 11.3053 18.9942 9.43116 20.086C9.13397 20.2558 8.90956 20.28 8.58204 20.092C6.714 18.9942 4.82776 17.9268 2.95365 16.8411C2.82022 16.7684 2.70498 16.6713 2.58368 16.5864C2.58368 14.1604 2.58368 11.7343 2.58368 9.30831C2.69892 9.22946 2.80202 9.13242 2.92332 9.0657C4.81563 7.96792 6.714 6.87621 8.60024 5.7663C8.8853 5.60254 9.10364 5.60254 9.37657 5.76023C11.184 6.80949 12.9974 7.84056 14.7988 8.88982C15.0232 9.02325 15.1748 8.98686 15.3749 8.87162C16.4727 8.23479 17.5705 7.60402 18.6743 6.96719C19.1413 6.69426 19.6084 6.42133 20.0875 6.14233C19.8995 5.79662 19.7357 5.48731 19.5659 5.18405C20.5181 5.18405 21.4643 5.18405 22.4165 5.18405ZM14.6714 10.1271C14.4955 10.2181 14.3681 10.2727 14.2529 10.3454C12.5911 11.3037 10.9292 12.2559 9.27346 13.2203C9.06119 13.3416 8.8671 13.3537 8.64876 13.2203C8.16962 12.9231 7.67228 12.6562 7.19314 12.359C7.02332 12.2559 6.89595 12.2559 6.72613 12.353C5.64655 12.9595 4.55483 13.5539 3.47525 14.1604C3.40247 14.2028 3.32362 14.3241 3.32362 14.409C3.31149 14.9428 3.30542 15.4826 3.32362 16.0163C3.32968 16.1315 3.42066 16.2831 3.5177 16.3377C5.27658 17.3627 7.04758 18.3817 8.81858 19.3885C8.90956 19.4431 9.07938 19.4613 9.16429 19.4067C10.9414 18.3938 12.7124 17.3688 14.4894 16.3499C14.6471 16.2589 14.7017 16.1497 14.7017 15.9617C14.6956 14.13 14.6956 12.3045 14.6956 10.4728C14.6956 10.3758 14.6835 10.2787 14.6714 10.1271ZM14.3075 9.47813C14.2347 9.41748 14.1983 9.38109 14.1559 9.35683C12.488 8.39248 10.8261 7.42813 9.15216 6.47591C9.06725 6.42739 8.89743 6.44559 8.80645 6.50017C7.03545 7.50698 5.27658 8.53198 3.51164 9.54485C3.36001 9.63582 3.30542 9.73286 3.30542 9.90268C3.31149 10.9641 3.31149 12.0255 3.31149 13.0808C3.31149 13.1657 3.32362 13.2567 3.32968 13.378C3.43886 13.3295 3.5177 13.2931 3.59655 13.2506C4.61548 12.6926 5.62835 12.1407 6.64122 11.5706C6.87169 11.4432 7.05971 11.4372 7.29018 11.5766C7.7208 11.8435 8.17568 12.0619 8.59417 12.3469C8.8671 12.5289 9.06725 12.5046 9.33411 12.3469C10.347 11.7465 11.372 11.1703 12.3909 10.582C13.0156 10.2241 13.6464 9.86023 14.3075 9.47813Z" fill="#00CF80"/>
</svg>
