<svg width="25" height="25" viewBox="0 0 25 25" fill="none" xmlns="http://www.w3.org/2000/svg">
<g clip-path="url(#clip0_1643_1396)">
<path d="M19.0001 9.04252C19.0001 8.23486 18.6793 7.47146 18.1039 6.89614C17.5397 6.32082 16.7763 5.99997 15.9576 5.99997C15.1499 5.99997 14.3865 6.32082 13.8112 6.88508L11.2665 9.42976C10.6912 10.0051 10.3703 10.7685 10.3814 11.5872C10.3814 12.074 10.5031 12.5608 10.7354 13.0034C10.7686 13.0698 10.8129 13.1472 10.8682 13.2247L10.8903 13.2578C10.9235 13.3132 10.9678 13.3685 11.012 13.4238L11.0341 13.457L11.0673 13.5012C11.1227 13.5676 11.178 13.634 11.2444 13.7004L11.2776 13.7336C11.3882 13.8442 11.5099 13.9438 11.6758 14.0655C11.8971 14.2204 12.229 14.1651 12.3729 13.9438C12.5388 13.7115 12.4835 13.4017 12.2512 13.2357C12.1405 13.1583 12.052 13.0919 11.9746 13.0034L11.9524 12.9812C11.9082 12.937 11.875 12.9038 11.8418 12.8595L11.7865 12.7821C11.7533 12.7378 11.7422 12.7157 11.7201 12.7047L11.6869 12.6383C11.6648 12.6051 11.6427 12.5608 11.6205 12.5166L11.6095 12.4944C11.5873 12.4502 11.5541 12.3949 11.532 12.3395C11.2333 11.5761 11.4103 10.7132 11.9856 10.1378L14.5303 7.59316C14.9176 7.21699 15.4154 7.00678 15.9576 7.00678C16.4997 7.00678 17.0086 7.21699 17.3958 7.60422C17.7831 7.99146 17.9933 8.5004 17.9933 9.04252C17.9933 9.58465 17.7831 10.0936 17.3958 10.4808L15.4376 12.4391C15.349 12.5276 15.2937 12.6604 15.2937 12.7932C15.2937 12.9259 15.349 13.0587 15.4376 13.1472C15.6256 13.3353 15.9576 13.3353 16.1456 13.1472L18.1039 11.1889C18.6793 10.6136 19.0001 9.85018 19.0001 9.04252Z" fill="#00CF80"/>
<path d="M14.6187 13.4238C14.6187 12.6161 14.2979 11.8527 13.7226 11.2774C13.6119 11.1668 13.4791 11.0561 13.3243 10.9455C13.103 10.7906 12.7711 10.8459 12.6272 11.0672C12.5498 11.1778 12.5166 11.3106 12.5387 11.4434C12.5609 11.5651 12.6383 11.6868 12.7489 11.7642C12.8596 11.8417 12.9481 11.9081 13.0145 11.9855C13.4017 12.3727 13.6119 12.8817 13.6119 13.4238C13.6119 13.9659 13.4017 14.4749 13.0145 14.8621L10.4809 17.3957C10.0936 17.783 9.58468 17.9932 9.04255 17.9932C8.50043 17.9932 7.99149 17.783 7.60426 17.3957C7.21702 17.0085 7.00681 16.4995 7.00681 15.9574C7.00681 15.4153 7.21702 14.9064 7.60426 14.5191L9.56255 12.5608C9.66213 12.4612 9.70638 12.3395 9.70638 12.2068C9.70638 12.074 9.65106 11.9412 9.56255 11.8527C9.46298 11.7532 9.34128 11.6978 9.20851 11.6978C9.07574 11.6978 8.94298 11.7532 8.85447 11.8417L6.89617 13.811C6.32085 14.3864 6 15.1498 6 15.9574C6 16.7651 6.32085 17.5285 6.89617 18.1038C7.47149 18.6791 8.23489 19 9.04255 19C9.85021 19 10.6136 18.6791 11.1889 18.1149L13.7226 15.5812C14.3089 14.9949 14.6187 14.2315 14.6187 13.4238Z" fill="#00CF80"/>
</g>
<defs>
<clipPath id="clip0_1643_1396">
<rect width="13" height="13" fill="white" transform="translate(6 5.99997)"/>
</clipPath>
</defs>
</svg>
