<svg width="26" height="26" viewBox="0 0 26 26" fill="none" xmlns="http://www.w3.org/2000/svg">
<g clip-path="url(#clip0_2398_560)">
<path fill-rule="evenodd" clip-rule="evenodd" d="M12.6223 10.972C11.5186 10.972 10.5526 12.0097 10.5526 13.3839C10.5526 14.758 11.5186 15.7957 12.6223 15.7957C13.726 15.7957 14.6921 14.758 14.6921 13.3839C14.6921 12.0097 13.726 10.972 12.6223 10.972ZM9.90259 13.3839C9.90259 11.735 11.0808 10.322 12.6223 10.322C14.1638 10.322 15.3421 11.735 15.3421 13.3839C15.3421 15.0328 14.1638 16.4457 12.6223 16.4457C11.0808 16.4457 9.90259 15.0328 9.90259 13.3839Z" fill="#00CF80"/>
<path fill-rule="evenodd" clip-rule="evenodd" d="M11.4466 12.8557C11.3429 12.2339 11.8536 11.6904 12.4513 11.6904H12.7934C13.3493 11.6904 13.8027 12.1438 13.8027 12.6996H13.1527C13.1527 12.5028 12.9903 12.3404 12.7934 12.3404H12.4513C12.2299 12.3404 12.0574 12.5461 12.0869 12.7438C12.1258 12.9248 12.2935 13.0589 12.4856 13.0589H12.7592C13.2495 13.0589 13.6962 13.4012 13.7963 13.9017L13.7978 13.9088L13.7989 13.916C13.9005 14.5763 13.3838 15.0773 12.7934 15.0773H12.4513C11.8955 15.0773 11.4421 14.6239 11.4421 14.0681H12.0921C12.0921 14.2649 12.2545 14.4273 12.4513 14.4273H12.7934C13.0217 14.4273 13.1881 14.2479 13.1575 14.0221C13.1179 13.842 12.9507 13.7089 12.7592 13.7089H12.4856C11.9953 13.7089 11.5486 13.3666 11.4484 12.866L11.4474 12.8609L11.4466 12.8557Z" fill="#00CF80"/>
<path fill-rule="evenodd" clip-rule="evenodd" d="M12.9474 11.3313V12.0155H12.2974V11.3313H12.9474Z" fill="#00CF80"/>
<path fill-rule="evenodd" clip-rule="evenodd" d="M12.9474 14.7524V15.4367H12.2974V14.7524H12.9474Z" fill="#00CF80"/>
<path fill-rule="evenodd" clip-rule="evenodd" d="M4.42896 8.95361H16.7276V9.60361H5.07896V17.1641H7.4908V17.8141H4.42896V8.95361Z" fill="#00CF80"/>
<path fill-rule="evenodd" clip-rule="evenodd" d="M20.1658 9.60361H17.4118V8.95361H20.8158V17.8141H8.51709V17.1641H20.1658V9.60361Z" fill="#00CF80"/>
<path fill-rule="evenodd" clip-rule="evenodd" d="M16.4636 12.7776C16.5905 12.6506 16.7963 12.6506 16.9232 12.7776L17.7539 13.6083L18.5847 12.7776C18.7116 12.6506 18.9174 12.6506 19.0443 12.7776C19.1712 12.9045 19.1712 13.1103 19.0443 13.2372L17.7539 14.5275L16.4636 13.2372C16.3367 13.1103 16.3367 12.9045 16.4636 12.7776Z" fill="#00CF80"/>
<path fill-rule="evenodd" clip-rule="evenodd" d="M16.0433 7.55088C15.2649 7.55088 14.6578 8.158 14.6578 8.9364V9.27851H14.0078V8.9364C14.0078 7.79902 14.906 6.90088 16.0433 6.90088C17.1807 6.90088 18.0789 7.79902 18.0789 8.9364V14.068H17.4289V8.9364C17.4289 8.158 16.8217 7.55088 16.0433 7.55088Z" fill="#00CF80"/>
<path fill-rule="evenodd" clip-rule="evenodd" d="M7.49075 12.24L8.78109 13.5303C8.90801 13.6572 8.90801 13.863 8.78109 13.9899C8.65417 14.1169 8.44839 14.1169 8.32147 13.9899L7.49075 13.1592L6.66003 13.9899C6.53311 14.1169 6.32734 14.1169 6.20042 13.9899C6.07349 13.863 6.07349 13.6572 6.20041 13.5303L7.49075 12.24Z" fill="#00CF80"/>
<path fill-rule="evenodd" clip-rule="evenodd" d="M7.81577 12.6997V17.8313C7.81577 18.6097 8.4229 19.2168 9.2013 19.2168C9.9797 19.2168 10.5868 18.6097 10.5868 17.8313V17.4892H11.2368V17.8313C11.2368 18.9687 10.3387 19.8668 9.2013 19.8668C8.06391 19.8668 7.16577 18.9687 7.16577 17.8313V12.6997H7.81577Z" fill="#00CF80"/>
</g>
<defs>
<clipPath id="clip0_2398_560">
<rect width="16.4211" height="13" fill="white" transform="translate(4.41187 6.88379)"/>
</clipPath>
</defs>
</svg>
