<svg width="25" height="26" viewBox="0 0 25 26" fill="none" xmlns="http://www.w3.org/2000/svg">
<g clip-path="url(#clip0_2019_49569)">
<path d="M11.2522 6.25781C9.85979 6.25781 8.52481 6.81091 7.53989 7.79526C6.55556 8.78022 6.00244 10.1152 6.00244 11.5076C6.00244 12.9 6.55554 14.235 7.53989 15.22C8.52485 16.2043 9.85981 16.7574 11.2522 16.7574C12.6447 16.7574 13.9797 16.2043 14.9646 15.22C15.9489 14.235 16.502 12.9 16.502 11.5076C16.5008 10.1158 15.947 8.78147 14.9627 7.79718C13.9784 6.8129 12.6441 6.25911 11.2523 6.25786L11.2522 6.25781ZM11.2522 6.75779C12.7965 6.75904 14.2433 7.51151 15.1308 8.77516L14.5058 9.40013C14.354 9.30826 14.1796 9.25889 14.0021 9.25764C13.4496 9.25764 13.0022 9.70512 13.0022 10.2576C13.0028 10.4357 13.0522 10.6101 13.144 10.7626L11.5073 12.3993C11.1973 12.2099 10.8073 12.2099 10.4973 12.3993L9.36048 11.2625C9.45236 11.11 9.50173 10.9356 9.50235 10.7575C9.50298 10.2544 9.12925 9.83003 8.63051 9.76629C8.13178 9.70254 7.66304 10.0206 7.53806 10.5075H6.61059C6.83995 9.44693 7.42556 8.49638 8.27053 7.81385C9.11486 7.132 10.1668 6.75952 11.2523 6.75763L11.2522 6.75779ZM13.5021 10.2577C13.5021 10.0552 13.6239 9.87331 13.8108 9.79581C13.9977 9.71831 14.2127 9.76144 14.3558 9.90393C14.4983 10.0471 14.5414 10.262 14.4639 10.4489C14.3864 10.6358 14.2045 10.7576 14.0021 10.7576C13.7258 10.7576 13.5021 10.5339 13.5021 10.2577L13.5021 10.2577ZM11.0022 12.7576C11.2047 12.7576 11.3865 12.8794 11.464 13.0663C11.5415 13.2532 11.4984 13.4682 11.3559 13.6113C11.2128 13.7538 10.9978 13.7969 10.8109 13.7194C10.6241 13.6419 10.5022 13.46 10.5022 13.2576C10.5022 12.9813 10.7259 12.7576 11.0022 12.7576L11.0022 12.7576ZM8.50225 11.2576C8.29977 11.2576 8.1179 11.1358 8.0404 10.9489C7.9629 10.762 8.00603 10.547 8.14852 10.4039C8.29164 10.2614 8.50664 10.2183 8.69349 10.2958C8.88037 10.3733 9.00223 10.5552 9.00223 10.7577C9.00223 10.8901 8.94974 11.0176 8.85599 11.1114C8.76224 11.2051 8.63475 11.2576 8.50226 11.2576L8.50225 11.2576ZM11.2522 16.2575C9.9054 16.2581 8.62113 15.6868 7.72052 14.6856C6.81931 13.6844 6.3862 12.347 6.52932 11.0077H7.53803C7.65178 11.4477 8.04802 11.7558 8.50237 11.7577C8.68049 11.757 8.85485 11.7077 9.00734 11.6158L10.1442 12.7526C10.0523 12.9051 10.0029 13.0795 10.0023 13.2576C10.0023 13.8101 10.4498 14.2576 11.0023 14.2576C11.5547 14.2576 12.0022 13.8101 12.0022 13.2576C12.0016 13.0795 11.9522 12.9051 11.8604 12.7526L13.4971 11.1159C13.6496 11.2078 13.824 11.2571 14.0021 11.2578C14.2671 11.2578 14.5214 11.1521 14.7089 10.9647C14.8964 10.7772 15.002 10.5228 15.002 10.2578C15.0014 10.0797 14.952 9.90531 14.8602 9.75282L15.4051 9.20785V9.20847C16.222 10.679 16.1989 12.4716 15.3451 13.9208C14.4914 15.3701 12.934 16.2588 11.2522 16.2575L11.2522 16.2575Z" fill="white"/>
<path d="M17.5026 5.75816C16.9501 5.75816 16.5026 6.20565 16.5026 6.75813C16.5032 6.93625 16.5526 7.11061 16.6445 7.2631L16.2051 7.70184C15.2133 6.41001 13.7564 5.55631 12.1446 5.32256C10.5328 5.08883 8.89353 5.49318 7.57533 6.45003C6.25714 7.40687 5.36549 8.8405 5.08854 10.4456C4.81167 12.0505 5.17229 13.7005 6.09414 15.0435C7.01535 16.3865 8.42461 17.3165 10.0215 17.6359C11.619 17.9552 13.2777 17.6384 14.6446 16.7534L17.7651 19.8739C18.2769 20.3858 19.1069 20.3858 19.6188 19.8739C20.1306 19.3621 20.1306 18.5321 19.6188 18.0202L16.4982 14.8997C17.1539 13.8897 17.5026 12.7116 17.5026 11.508C17.5026 10.3043 17.1538 9.12615 16.4982 8.11627L16.9982 7.61629C17.1501 7.70816 17.3245 7.75691 17.5026 7.75816C17.9569 7.75628 18.3532 7.44817 18.4669 7.00818H20.0025V6.5082H18.4669C18.3532 6.06822 17.9569 5.7601 17.5026 5.75823L17.5026 5.75816ZM19.2651 18.374C19.42 18.5253 19.5075 18.7321 19.5088 18.949C19.51 19.1653 19.425 19.3734 19.2713 19.5265C19.1182 19.6802 18.9101 19.7652 18.6938 19.764C18.4769 19.7627 18.2701 19.6752 18.1188 19.5203L16.1064 17.5078L17.2526 16.3616L19.2651 18.374ZM16.2071 15.3161L16.8989 16.0079L15.7527 17.1541L15.0609 16.4623C15.0959 16.4354 15.129 16.4054 15.164 16.3779C15.199 16.3504 15.239 16.3167 15.2765 16.2854C15.3315 16.2392 15.3852 16.1929 15.4384 16.1454C15.4659 16.1204 15.4915 16.0954 15.5184 16.0704C15.6208 15.9742 15.7202 15.8754 15.8158 15.7729C15.8408 15.746 15.8658 15.7204 15.8908 15.6929C15.9383 15.6398 15.9852 15.586 16.0308 15.5311C16.0621 15.4942 16.0927 15.4567 16.1233 15.4186C16.1502 15.3842 16.1802 15.3511 16.2071 15.3161L16.2071 15.3161ZM15.9296 14.8467C15.8508 14.9567 15.7696 15.0642 15.684 15.1679C15.659 15.1979 15.6321 15.2273 15.6065 15.2573C15.5302 15.3461 15.4509 15.4329 15.3696 15.516C15.334 15.5529 15.2977 15.5885 15.2615 15.6242C15.1784 15.7054 15.0921 15.7848 15.0027 15.861C14.9727 15.886 14.944 15.9135 14.9134 15.9385C14.8096 16.0242 14.7021 16.1054 14.5921 16.1842L14.5915 16.1848C13.0091 17.3154 10.9635 17.571 9.1517 16.8641C7.33992 16.1579 6.00685 14.5849 5.6075 12.6811C5.20877 10.778 5.79687 8.80187 7.17182 7.42688C8.54676 6.05189 10.5229 5.46375 12.426 5.86257C14.3296 6.26193 15.9027 7.59499 16.6091 9.40676C17.3159 11.2185 17.0603 13.2641 15.9297 14.8466L15.9296 14.8467ZM17.5027 7.25817C17.3002 7.25817 17.1183 7.1363 17.0408 6.94943C16.9633 6.76256 17.0064 6.54757 17.1489 6.40446C17.292 6.26197 17.507 6.21883 17.6939 6.29634C17.8808 6.37384 18.0026 6.5557 18.0026 6.75819C18.0026 6.89069 17.9501 7.01818 17.8564 7.11192C17.7626 7.20567 17.6351 7.25817 17.5027 7.25817L17.5027 7.25817Z" fill="white"/>
</g>
<defs>
<clipPath id="clip0_2019_49569">
<rect width="17.1429" height="15" fill="white" transform="translate(3.92871 5.25781)"/>
</clipPath>
</defs>
</svg>
