<svg width="26" height="26" viewBox="0 0 26 26" fill="none" xmlns="http://www.w3.org/2000/svg">
<g clip-path="url(#clip0_2262_109856)">
<path d="M7.19369 17.5018C7.03641 17.5018 6.90771 17.6295 6.90771 17.7856C6.90771 17.9418 7.03641 18.0695 7.19369 18.0695H8.16316C8.32045 18.0695 8.44914 17.9418 8.44914 17.7856C8.44914 17.6295 8.32045 17.5018 8.16316 17.5018H7.95154V13.0228H8.16316C8.32045 13.0228 8.44914 12.895 8.44914 12.7389C8.44914 12.5828 8.32045 12.4551 8.16316 12.4551H7.19369C7.03641 12.4551 6.90771 12.5828 6.90771 12.7389C6.90771 12.895 7.03641 13.0228 7.19369 13.0228H7.37958V17.5018H7.19369Z" fill="white"/>
<path d="M9.64731 17.5018C9.49002 17.5018 9.36133 17.6295 9.36133 17.7856C9.36133 17.9418 9.49002 18.0695 9.64731 18.0695H10.6168C10.7741 18.0695 10.9028 17.9418 10.9028 17.7856C10.9028 17.6295 10.7741 17.5018 10.6168 17.5018H10.4309V13.0228H10.6168C10.7741 13.0228 10.9028 12.895 10.9028 12.7389C10.9028 12.5828 10.7741 12.4551 10.6168 12.4551H9.64731C9.49002 12.4551 9.36133 12.5828 9.36133 12.7389C9.36133 12.895 9.49002 13.0228 9.64731 13.0228H9.85893V17.5018H9.64731Z" fill="white"/>
<path d="M12.1268 17.5018C11.9695 17.5018 11.8408 17.6295 11.8408 17.7856C11.8408 17.9418 11.9695 18.0695 12.1268 18.0695H13.0963C13.2536 18.0695 13.3822 17.9418 13.3822 17.7856C13.3822 17.6295 13.2536 17.5018 13.0963 17.5018H12.9104V13.0228H13.0963C13.2536 13.0228 13.3822 12.895 13.3822 12.7389C13.3822 12.5828 13.2536 12.4551 13.0963 12.4551H12.1268C11.9695 12.4551 11.8408 12.5828 11.8408 12.7389C11.8408 12.895 11.9695 13.0228 12.1268 13.0228H12.3384V17.5018H12.1268Z" fill="white"/>
<path d="M14.6063 17.5018C14.449 17.5018 14.3203 17.6295 14.3203 17.7856C14.3203 17.9418 14.449 18.0695 14.6063 18.0695H15.5758C15.7331 18.0695 15.8617 17.9418 15.8617 17.7856C15.8617 17.6295 15.7331 17.5018 15.5758 17.5018H15.3899V13.0228H15.5758C15.7331 13.0228 15.8617 12.895 15.8617 12.7389C15.8617 12.5828 15.7331 12.4551 15.5758 12.4551H14.6063C14.449 12.4551 14.3203 12.5828 14.3203 12.7389C14.3203 12.895 14.449 13.0228 14.6063 13.0228H14.8179V17.5018H14.6063Z" fill="white"/>
<path d="M17.0829 17.5018C16.9256 17.5018 16.7969 17.6295 16.7969 17.7856C16.7969 17.9418 16.9256 18.0695 17.0829 18.0695H18.0523C18.2096 18.0695 18.3383 17.9418 18.3383 17.7856C18.3383 17.6295 18.2096 17.5018 18.0523 17.5018H17.8664V13.0228H18.0523C18.2096 13.0228 18.3383 12.895 18.3383 12.7389C18.3383 12.5828 18.2096 12.4551 18.0523 12.4551H17.0829C16.9256 12.4551 16.7969 12.5828 16.7969 12.7389C16.7969 12.895 16.9256 13.0228 17.0829 13.0228H17.2945V17.5018H17.0829Z" fill="white"/>
<path d="M6.1499 18.7213C6.1499 18.8775 6.27859 19.0052 6.43588 19.0052H18.813C18.9703 19.0052 19.099 18.8775 19.099 18.7213C19.099 18.5652 18.9703 18.4375 18.813 18.4375H6.43588C6.27573 18.4375 6.1499 18.5652 6.1499 18.7213Z" fill="white"/>
<path d="M18.813 11.5156H6.43588C6.27859 11.5156 6.1499 11.6434 6.1499 11.7995C6.1499 11.9556 6.27859 12.0833 6.43588 12.0833H18.813C18.9703 12.0833 19.099 11.9556 19.099 11.7995C19.099 11.6434 18.9703 11.5156 18.813 11.5156Z" fill="white"/>
<path d="M19.8394 19.3984H5.4061C5.24881 19.3984 5.12012 19.5262 5.12012 19.6823C5.12012 19.8384 5.24881 19.9661 5.4061 19.9661H19.8394C19.9967 19.9661 20.1254 19.8384 20.1254 19.6823C20.1254 19.5262 19.9967 19.3984 19.8394 19.3984Z" fill="white"/>
<path d="M5.37481 11.1492H19.871C20.0283 11.1492 20.157 11.0215 20.157 10.8654C20.157 10.749 20.0884 10.6497 19.9883 10.6071L12.7502 6.9966C12.6701 6.95686 12.5729 6.95686 12.4928 6.9966L5.24612 10.6128C5.12887 10.6724 5.06596 10.8029 5.09742 10.9307C5.12887 11.0584 5.24326 11.1492 5.37481 11.1492ZM12.6244 7.56713L18.6671 10.5815H6.58164L12.6244 7.56713Z" fill="white"/>
</g>
<defs>
<clipPath id="clip0_2262_109856">
<rect width="15.0682" height="13" fill="white" transform="translate(5.08887 6.96484)"/>
</clipPath>
</defs>
</svg>
