<svg width="26" height="26" viewBox="0 0 26 26" fill="none" xmlns="http://www.w3.org/2000/svg">
<path d="M16.3705 8.60773C16.6575 8.60773 16.8939 8.36439 16.8939 8.06891V6.07007C16.8939 5.77459 16.6575 5.53125 16.3705 5.53125C16.0835 5.53125 15.8472 5.77459 15.8472 6.07007V8.06891C15.8472 8.36439 16.0835 8.60773 16.3705 8.60773Z" fill="white"/>
<path d="M18.3625 6.54883H17.3158V7.62646H18.3625C18.8859 7.62646 19.3079 8.11314 19.3079 8.72148V9.84257H6.3929V8.72148C6.3929 8.12183 6.81496 7.62646 7.33831 7.62646H8.38502V6.54883H7.33831C6.24096 6.54883 5.34619 7.52218 5.34619 8.72148V18.3681C5.34619 19.5674 6.24096 20.5407 7.33831 20.5407H18.3625C19.4599 20.5407 20.3546 19.5674 20.3546 18.3681V8.72148C20.3462 7.52218 19.4599 6.54883 18.3625 6.54883ZM18.3625 19.4544H7.33831C6.81496 19.4544 6.3929 18.9677 6.3929 18.3594V10.9202H19.2995V18.3594C19.2995 18.959 18.8774 19.4544 18.3625 19.4544Z" fill="white"/>
<path d="M15.4336 6.54883H10.2676V7.62647H15.4336V6.54883Z" fill="white"/>
<path d="M9.32218 8.60773C9.60919 8.60773 9.84554 8.36439 9.84554 8.06891V6.07007C9.84554 5.77459 9.60919 5.53125 9.32218 5.53125C9.03518 5.53125 8.79883 5.77459 8.79883 6.07007V8.06891C8.79883 8.36439 9.03518 8.60773 9.32218 8.60773Z" fill="white"/>
<path d="M13.7792 12.0312H11.9137C11.6689 12.0312 11.4663 12.2398 11.4663 12.4919V14.4038C11.4663 14.6558 11.6689 14.8644 11.9137 14.8644H13.7792C14.024 14.8644 14.2266 14.6558 14.2266 14.4038V12.4919C14.2266 12.2398 14.024 12.0312 13.7792 12.0312ZM13.3403 13.9432H12.3611V12.9438H13.3403V13.9432Z" fill="white"/>
<path d="M17.4677 12.0312H15.6022C15.3574 12.0312 15.1548 12.2398 15.1548 12.4919V14.4038C15.1548 14.6558 15.3574 14.8644 15.6022 14.8644H17.4677C17.7125 14.8644 17.915 14.6558 17.915 14.4038V12.4919C17.915 12.2398 17.7125 12.0312 17.4677 12.0312ZM17.0203 13.9432H16.0411V12.9438H17.0203V13.9432Z" fill="white"/>
<path d="M10.0987 12.0312H8.22473C7.97993 12.0312 7.77734 12.2398 7.77734 12.4919V14.4038C7.77734 14.6558 7.97993 14.8644 8.22473 14.8644H10.0902C10.335 14.8644 10.5376 14.6558 10.5376 14.4038V12.4919C10.5376 12.2398 10.3435 12.0312 10.0987 12.0312ZM9.65129 13.9432H8.67211V12.9438H9.65129V13.9432Z" fill="white"/>
<path d="M13.7792 15.5859H11.9137C11.6689 15.5859 11.4663 15.7945 11.4663 16.0465V17.9585C11.4663 18.2105 11.6689 18.4191 11.9137 18.4191H13.7792C14.024 18.4191 14.2266 18.2105 14.2266 17.9585V16.0465C14.2266 15.7945 14.024 15.5859 13.7792 15.5859ZM13.3403 17.5066H12.3611V16.5071H13.3403V17.5066Z" fill="white"/>
<path d="M10.0987 15.5859H8.22473C7.97993 15.5859 7.77734 15.7945 7.77734 16.0465V17.9585C7.77734 18.2105 7.97993 18.4191 8.22473 18.4191H10.0902C10.335 18.4191 10.5376 18.2105 10.5376 17.9585V16.0465C10.5376 15.7945 10.3435 15.5859 10.0987 15.5859ZM9.65129 17.5066H8.67211V16.5071H9.65129V17.5066Z" fill="white"/>
</svg>
