<svg width="25" height="25" viewBox="0 0 25 25" fill="none" xmlns="http://www.w3.org/2000/svg">
<path fill-rule="evenodd" clip-rule="evenodd" d="M8.5 18C9.32843 18 10 17.3284 10 16.5C10 15.6716 9.32843 15 8.5 15C7.67157 15 7 15.6716 7 16.5C7 17.3284 7.67157 18 8.5 18ZM8.5 19C9.88071 19 11 17.8807 11 16.5C11 15.1193 9.88071 14 8.5 14C7.11929 14 6 15.1193 6 16.5C6 17.8807 7.11929 19 8.5 19Z" fill="white"/>
<path fill-rule="evenodd" clip-rule="evenodd" d="M16.5 10C17.3284 10 18 9.32843 18 8.5C18 7.67157 17.3284 7 16.5 7C15.6716 7 15 7.67157 15 8.5C15 9.32843 15.6716 10 16.5 10ZM16.5 11C17.8807 11 19 9.88071 19 8.5C19 7.11929 17.8807 6 16.5 6C15.1193 6 14 7.11929 14 8.5C14 9.88071 15.1193 11 16.5 11Z" fill="white"/>
<path fill-rule="evenodd" clip-rule="evenodd" d="M17.5264 18.8382L6.50967 6.83821L7.24632 6.16193L18.263 18.1619L17.5264 18.8382Z" fill="white"/>
</svg>
