<svg width="26" height="26" viewBox="0 0 26 26" fill="none" xmlns="http://www.w3.org/2000/svg">
<path d="M5.53418 14.5904C5.59254 14.4702 5.6937 14.4081 5.81821 14.3616C6.78702 13.9815 7.75583 13.5975 8.72075 13.2058C8.88805 13.1398 9.03201 13.1437 9.19542 13.2096C10.1798 13.6052 11.1642 13.997 12.1485 14.3887C12.3042 14.4508 12.3781 14.5555 12.3781 14.7223C12.3781 15.9091 12.3742 17.092 12.3742 18.2789C12.3742 18.5736 12.3314 18.6318 12.0591 18.7443C11.0747 19.136 10.0903 19.5355 9.10204 19.9195C9.01645 19.9544 8.89583 19.9544 8.81023 19.9195C7.82197 19.5316 6.8376 19.1399 5.85712 18.7365C5.74039 18.69 5.64312 18.5853 5.53807 18.5116C5.53418 17.2006 5.53418 15.8974 5.53418 14.5904ZM6.16449 15.1566C6.1606 15.1916 6.15671 15.2148 6.15671 15.2342C6.15671 16.1883 6.15671 17.1386 6.15282 18.0927C6.15282 18.178 6.18783 18.209 6.26176 18.2362C7.01268 18.5348 7.76361 18.8335 8.51453 19.1321C8.55344 19.1476 8.59235 19.1593 8.63904 19.1748C8.64293 19.1282 8.64293 19.0933 8.64293 19.0623C8.64293 18.1276 8.64293 17.1967 8.64682 16.262C8.64682 16.1573 8.60791 16.1224 8.51842 16.0875C7.77528 15.7927 7.03603 15.498 6.29289 15.2032C6.25398 15.1838 6.21507 15.1722 6.16449 15.1566ZM11.7439 15.1605C11.7011 15.1722 11.67 15.176 11.6466 15.1877C10.8801 15.4902 10.1175 15.8005 9.35106 16.0991C9.25768 16.134 9.26157 16.1922 9.26157 16.2659C9.26157 17.0649 9.26157 17.8639 9.26157 18.6589C9.26157 18.8257 9.26157 18.9964 9.26157 19.1787C9.31993 19.1593 9.36273 19.1438 9.40942 19.1244C10.1409 18.8335 10.8762 18.5387 11.6116 18.2517C11.7244 18.209 11.7517 18.1509 11.7517 18.0384C11.7478 17.1308 11.7478 16.2194 11.7478 15.3118C11.7439 15.2652 11.7439 15.2187 11.7439 15.1605ZM11.1992 14.6951C11.172 14.6757 11.1603 14.6641 11.1408 14.6563C10.4366 14.3732 9.72846 14.0901 9.02423 13.8147C8.97365 13.7953 8.89972 13.8069 8.84914 13.8263C8.33556 14.028 7.82197 14.2336 7.31228 14.4352C7.10995 14.5167 6.91152 14.5943 6.68586 14.6873C7.32395 14.9433 7.94259 15.1722 8.54177 15.4359C8.82969 15.5639 9.07092 15.5639 9.36273 15.4359C9.96191 15.1722 10.5805 14.9433 11.1992 14.6951Z" fill="white"/>
<path d="M20.4474 16.5402C20.4474 17.1298 20.4474 17.7193 20.4474 18.3127C20.4474 18.5532 20.4007 18.6308 20.1751 18.72C19.1751 19.1233 18.1713 19.5267 17.1675 19.9184C17.0858 19.9494 16.973 19.9494 16.8913 19.9184C15.8835 19.5228 14.8758 19.1156 13.8681 18.7122C13.6658 18.6308 13.6113 18.5493 13.6113 18.3282C13.6074 17.122 13.6074 15.9197 13.6074 14.7135C13.6074 14.5544 13.6813 14.4458 13.8253 14.3877C14.8213 13.9921 15.8135 13.6003 16.8095 13.2008C16.9652 13.1388 17.1014 13.1388 17.257 13.2008C18.2452 13.6003 19.2335 13.9921 20.2257 14.3877C20.393 14.4536 20.4513 14.5389 20.4513 14.7173C20.4474 15.3224 20.4474 15.9313 20.4474 16.5402ZM19.8249 15.1517C19.7743 15.1672 19.7471 15.1711 19.7199 15.1828C18.9612 15.4853 18.2024 15.7917 17.4399 16.0903C17.3504 16.1252 17.3309 16.1757 17.3309 16.261C17.3348 17.1879 17.3309 18.1188 17.3309 19.0458C17.3309 19.0845 17.3348 19.1194 17.3387 19.1699C17.3698 19.1621 17.3932 19.1582 17.4126 19.1505C18.1869 18.8441 18.9573 18.5338 19.7315 18.2274C19.8249 18.1925 19.821 18.1304 19.821 18.0567C19.821 17.4051 19.821 16.7536 19.821 16.0981C19.8249 15.7917 19.8249 15.4853 19.8249 15.1517ZM14.2494 15.1479C14.2416 15.1828 14.2377 15.1983 14.2377 15.2099C14.2377 16.1718 14.2377 17.1336 14.2338 18.0994C14.2338 18.1925 14.2844 18.2119 14.3506 18.239C14.9225 18.464 15.4945 18.6928 16.0664 18.9216C16.2804 19.007 16.4944 19.0923 16.7201 19.1815C16.7201 18.177 16.7201 17.1957 16.7162 16.2144C16.7162 16.1757 16.6656 16.1175 16.6228 16.0981C16.2376 15.9391 15.8524 15.7878 15.4633 15.6327C15.0626 15.4736 14.6618 15.3146 14.2494 15.1479ZM19.2763 14.6941C19.2491 14.6747 19.2374 14.663 19.2179 14.6553C18.5137 14.3721 17.8056 14.089 17.1014 13.8136C17.0508 13.7943 16.9768 13.8059 16.9263 13.8253C16.3271 14.058 15.7279 14.2985 15.1326 14.535C15.0159 14.5816 14.9031 14.6281 14.7669 14.6863C15.3544 14.919 15.9263 15.1207 16.471 15.3767C16.8601 15.559 17.1986 15.559 17.5877 15.3767C18.1363 15.1207 18.7083 14.919 19.2763 14.6941Z" fill="white"/>
<path d="M16.405 10.3664C16.405 10.9559 16.405 11.5454 16.405 12.135C16.405 12.3677 16.3544 12.4414 16.1365 12.5267C15.1405 12.9262 14.1405 13.3257 13.1406 13.7174C13.055 13.7523 12.9344 13.7562 12.8488 13.7213C11.8488 13.3295 10.8528 12.9262 9.85286 12.5267C9.61941 12.4336 9.57661 12.3677 9.57272 12.1117C9.56883 10.9132 9.56883 9.71478 9.56494 8.51245C9.56494 8.3573 9.63498 8.24871 9.78283 8.18665C10.7944 7.78329 11.806 7.3838 12.8177 6.97656C12.946 6.92614 13.0589 6.94165 13.1834 6.98819C14.1327 7.36829 15.0782 7.7445 16.0276 8.12459C16.082 8.14787 16.1365 8.16726 16.191 8.18665C16.3427 8.24483 16.405 8.3573 16.405 8.51245C16.405 9.12525 16.405 9.74193 16.405 10.3547C16.4089 10.3664 16.405 10.3664 16.405 10.3664ZM12.6698 12.9844C12.6737 12.9378 12.6776 12.9145 12.6776 12.8913C12.6776 11.9449 12.6776 10.9947 12.6815 10.0483C12.6815 9.94361 12.627 9.92034 12.5531 9.88931C11.8099 9.59455 11.0668 9.29978 10.3275 9.00114C10.2886 8.98562 10.2497 8.97399 10.1991 8.95847C10.1991 9.95525 10.1991 10.9365 10.203 11.9178C10.203 11.9566 10.2536 12.0147 10.2964 12.0341C10.631 12.1738 10.9695 12.3095 11.308 12.4414C11.7477 12.6198 12.199 12.7982 12.6698 12.9844ZM15.7824 8.95847C15.7319 8.97787 15.6891 8.99338 15.6502 9.00889C14.9109 9.30366 14.1755 9.59843 13.4363 9.88544C13.3351 9.92422 13.3001 9.97464 13.3001 10.0871C13.304 11.0063 13.304 11.9255 13.304 12.8447C13.304 12.8874 13.3079 12.9262 13.3118 12.9882C14.1444 12.6547 14.9615 12.3289 15.7824 12.0031C15.7824 10.9908 15.7824 9.9824 15.7824 8.95847ZM15.2455 8.49693C15.1988 8.47366 15.1872 8.46202 15.1677 8.45815C14.4674 8.17889 13.767 7.89576 13.0628 7.62039C13.0083 7.601 12.9305 7.61263 12.8721 7.63202C12.2029 7.89576 11.5298 8.16338 10.8606 8.431C10.8256 8.44651 10.7905 8.4659 10.7322 8.49693C11.4831 8.79558 12.2068 9.08646 12.9305 9.36959C12.9655 9.38511 13.0161 9.38123 13.0511 9.36572C13.7787 9.08259 14.4985 8.79558 15.2455 8.49693Z" fill="white"/>
</svg>
