<svg width="26" height="26" viewBox="0 0 26 26" fill="none" xmlns="http://www.w3.org/2000/svg">
<path d="M12.056 20.9459C12.0261 20.9459 11.9956 20.9418 11.9651 20.933C11.8333 20.8926 11.7437 20.7707 11.7437 20.6336V11.2584C11.7437 11.1377 11.8128 11.0276 11.9224 10.976C12.0308 10.9233 12.1603 10.9397 12.254 11.0159L19.1289 16.641C19.2315 16.7248 19.2702 16.8636 19.225 16.9879C19.1811 17.1127 19.0633 17.1959 18.9309 17.1959H14.7232L12.3155 20.8064C12.2569 20.8955 12.1584 20.9459 12.0559 20.9459L12.056 20.9459ZM12.3683 11.9176V19.6012L14.2961 16.7102C14.3541 16.6234 14.452 16.5707 14.5563 16.5707H18.0555L12.3683 11.9176Z" fill="white"/>
<path d="M10.2612 16.237C10.2237 16.237 10.1856 16.2299 10.1487 16.2165C7.41458 15.1647 6.0458 12.0849 7.09762 9.35083C8.1494 6.61673 11.2292 5.24795 13.9633 6.29977C16.6974 7.35155 18.0661 10.4313 17.0143 13.1654C16.9516 13.3265 16.7706 13.4062 16.6106 13.3447C16.45 13.2826 16.3692 13.1015 16.4313 12.941C17.3589 10.5286 16.1512 7.81103 13.7389 6.88342C11.3259 5.9541 8.60835 7.16233 7.68073 9.57462C6.75317 11.987 7.96081 14.7046 10.3731 15.6322C10.5337 15.6943 10.6145 15.8754 10.5524 16.0359C10.505 16.1607 10.3866 16.2369 10.2612 16.2369L10.2612 16.237Z" fill="white"/>
</svg>
