<svg width="26" height="26" viewBox="0 0 26 26" fill="none" xmlns="http://www.w3.org/2000/svg">
<path d="M18.8993 13.9667C18.8164 13.9667 18.7335 13.9422 18.6569 13.8934C18.4656 13.7651 18.4146 13.5085 18.5485 13.3252C19.0013 12.696 19.2501 11.9202 19.2501 11.1443C19.2501 9.0184 17.4324 7.28956 15.2003 7.28956C12.9681 7.28956 11.1505 9.0184 11.1505 11.1443C11.1505 11.4376 11.2015 11.7613 11.2462 12.0179C11.2844 12.2439 11.125 12.4516 10.8954 12.4883C10.6658 12.5311 10.4426 12.3783 10.4043 12.1523C10.3533 11.8652 10.2959 11.4986 10.2959 11.1443C10.2959 8.56633 12.4962 6.46484 15.2067 6.46484C17.9171 6.46484 20.111 8.56023 20.111 11.1443C20.111 12.0973 19.8177 13.0076 19.2564 13.7895C19.1672 13.9056 19.0332 13.9667 18.8993 13.9667Z" fill="white"/>
<path d="M13.4781 19.4657C13.4718 19.4657 13.4654 19.4657 13.4526 19.4657C12.6682 19.4474 10.8952 18.7938 9.14774 18.1279C8.72044 17.9629 8.38242 17.8346 8.21661 17.7797C7.99339 17.7064 7.87222 17.4742 7.94875 17.2604C8.02528 17.0466 8.26763 16.9305 8.49084 17.0038C8.66942 17.0588 9.02019 17.1932 9.46662 17.3643C10.6273 17.8041 12.783 18.6288 13.4718 18.6471C13.4781 18.6471 13.4781 18.6471 13.4845 18.6471C14.371 18.6471 18.4463 16.4662 19.1287 15.3116C19.1797 15.2261 19.2052 15.1589 19.2244 15.1161C18.5866 15.0428 16.2843 15.9653 15.8952 16.2402C15.7103 16.3746 15.4424 16.3441 15.2957 16.173C15.1554 16.0019 15.1682 15.7576 15.3468 15.611C15.5764 15.4277 18.931 13.7783 19.8366 14.493C20.0662 14.6763 20.2639 15.0367 19.8685 15.7148C19.0777 17.071 14.7473 19.4657 13.4781 19.4657Z" fill="white"/>
<path d="M14.4411 17.1496C14.2625 17.1496 14.0775 17.1313 13.8862 17.1007L13.7523 17.0763C12.8785 16.9175 12.0558 16.7709 11.1183 16.4837C10.8951 16.4165 10.7676 16.1844 10.8377 15.9706C10.9079 15.7568 11.1438 15.6346 11.3734 15.7018C12.2599 15.9706 13.0189 16.105 13.9053 16.2699L14.0393 16.2944C14.575 16.3921 14.964 16.2821 15.1426 16.16C15.2064 16.1172 15.2255 16.0805 15.2255 16.0744C15.2255 16.0378 15.0788 15.7995 14.3645 15.5918C13.0826 15.2131 12.3301 14.6816 11.7242 14.254C11.3479 13.9913 11.0545 13.7836 10.7357 13.6858C9.88107 13.4353 7.85937 13.8446 6.88359 14.6205C6.69864 14.7671 6.43078 14.7427 6.2841 14.5716C6.13103 14.4006 6.15655 14.1379 6.33512 13.9974C7.54686 13.026 9.90658 12.5862 10.9908 12.91C11.45 13.0505 11.8135 13.3071 12.2344 13.6003C12.8148 14.0096 13.4717 14.4739 14.6196 14.8099C16.1885 15.268 16.1184 16.0439 16.061 16.2699C15.9207 16.8075 15.2574 17.1496 14.4411 17.1496Z" fill="white"/>
<path d="M5.78671 18.9095C5.589 18.9095 5.41043 18.7751 5.36579 18.5857L5.18721 17.7915C5.13619 17.5716 5.28925 17.3517 5.51885 17.3028C5.75482 17.2539 5.97804 17.3944 6.02906 17.6205L6.11834 18.0175L6.96657 17.8465L6.11197 13.9245L5.26374 14.0956L5.78033 16.3925C5.83135 16.6125 5.68467 16.8324 5.44869 16.8813C5.22548 16.9301 4.98951 16.7896 4.93849 16.5636L4.33899 13.8634C4.31348 13.7596 4.33899 13.6435 4.39639 13.5519C4.46016 13.4602 4.55583 13.3991 4.67063 13.3747L6.35431 13.0387C6.59029 12.9898 6.8135 13.1365 6.85815 13.3564L7.89132 18.0786C7.91683 18.1825 7.89132 18.2986 7.82754 18.3841C7.76377 18.4757 7.6681 18.5368 7.55968 18.5612L5.87599 18.8972C5.84411 18.9095 5.81222 18.9095 5.78671 18.9095Z" fill="white"/>
<path d="M15.1999 11.5839C14.1093 11.5839 13.2866 11.0036 13.2866 10.2339C13.2866 9.48856 14.1285 8.9082 15.1999 8.9082C16.2586 8.9082 17.0877 9.48856 17.0877 10.2339C17.0877 10.4599 16.8963 10.6432 16.6604 10.6432C16.4244 10.6432 16.2331 10.4599 16.2331 10.2339C16.2331 10.0017 15.7803 9.72681 15.1999 9.72681C14.543 9.72681 14.1412 10.02 14.1412 10.2339C14.1412 10.4843 14.5749 10.7653 15.1999 10.7653C15.4359 10.7653 15.6272 10.9486 15.6272 11.1746C15.6272 11.4007 15.4359 11.5839 15.1999 11.5839Z" fill="white"/>
<path d="M15.1999 13.4169C14.1285 13.4169 13.2866 12.8366 13.2866 12.0913C13.2866 11.8652 13.4779 11.682 13.7139 11.682C13.9499 11.682 14.1412 11.8652 14.1412 12.0913C14.1412 12.3051 14.543 12.5983 15.1999 12.5983C15.7803 12.5983 16.2331 12.3234 16.2331 12.0913C16.2331 11.8591 15.7803 11.5842 15.1999 11.5842C14.9639 11.5842 14.7726 11.401 14.7726 11.1749C14.7726 10.9489 14.9639 10.7656 15.1999 10.7656C16.2586 10.7656 17.0877 11.346 17.0877 12.0913C17.0877 12.8305 16.2586 13.4169 15.1999 13.4169Z" fill="white"/>
<path d="M15.2002 9.72726C14.9643 9.72726 14.7729 9.54399 14.7729 9.31796V8.54211C14.7729 8.31608 14.9643 8.13281 15.2002 8.13281C15.4362 8.13281 15.6276 8.31608 15.6276 8.54211V9.31185C15.6276 9.54399 15.4362 9.72726 15.2002 9.72726Z" fill="white"/>
<path d="M15.2002 14.2104C14.9643 14.2104 14.7729 14.0272 14.7729 13.8011V13.007C14.7729 12.7809 14.9643 12.5977 15.2002 12.5977C15.4362 12.5977 15.6276 12.7809 15.6276 13.007V13.8011C15.6276 14.0272 15.4362 14.2104 15.2002 14.2104Z" fill="white"/>
</svg>
