<svg width="25" height="26" viewBox="0 0 25 26" fill="none" xmlns="http://www.w3.org/2000/svg">
<g clip-path="url(#clip0_2019_49501)">
<path d="M20.3051 9.0294L17.0913 5.8156C16.9893 5.71356 16.8628 5.64264 16.7056 5.65846C16.5612 5.6605 16.4235 5.7207 16.3245 5.8253L6.14745 16.5381C6.05306 16.6376 6 16.7703 6 16.907V20.1208C6 20.4167 6.2398 20.6565 6.53571 20.6565H9.74949H16.177C16.473 20.6565 16.7128 20.4167 16.7128 20.1208C16.7128 19.8249 16.473 19.5851 16.177 19.5851H10.9969L20.3148 9.77685C20.5148 9.56665 20.5107 9.23501 20.3051 9.0294ZM7.07143 19.5851V17.1208L14.726 9.06307L17.1816 11.5187L9.51939 19.5851H7.07143ZM17.9199 10.7422L15.4643 8.28654L16.7224 6.96204L19.1786 9.41767L17.9199 10.7422ZM19.9265 20.1208C19.9265 20.4167 19.6867 20.6565 19.3908 20.6565C19.0949 20.6565 18.8551 20.4167 18.8551 20.1208C18.8551 19.8249 19.0949 19.5851 19.3908 19.5851C19.6867 19.5851 19.9265 19.8249 19.9265 20.1208ZM18.3194 20.1208C18.3194 20.4167 18.0796 20.6565 17.7837 20.6565C17.4878 20.6565 17.248 20.4167 17.248 20.1208C17.248 19.8249 17.4878 19.5851 17.7837 19.5851C18.0796 19.5851 18.3194 19.8249 18.3194 20.1208Z" fill="#E7F2FC"/>
</g>
<defs>
<clipPath id="clip0_2019_49501">
<rect width="14.4622" height="15" fill="white" transform="translate(6 5.65625)"/>
</clipPath>
</defs>
</svg>
