<svg width="25" height="25" viewBox="0 0 25 25" fill="none" xmlns="http://www.w3.org/2000/svg">
<circle cx="12.5" cy="12.5" r="7" stroke="white"/>
<path d="M15 14.18C15 13.59 14.7979 13.16 14.3723 12.85C13.9574 12.54 13.6064 12.39 12.9787 12.19V9.59C13.5745 9.68 13.9894 9.99 14.2128 10.52L14.8404 10.19C14.5 9.44 13.8191 8.99 12.9787 8.9V8H12.3404V8.89C11.7766 8.94 11.2979 9.14 10.9255 9.47C10.5532 9.8 10.3723 10.22 10.3723 10.74C10.3723 11.31 10.5532 11.74 10.9681 12.03C11.383 12.32 11.7021 12.46 12.3404 12.67V15.43C11.4681 15.36 10.9043 14.99 10.6383 14.31L10 14.66C10.3511 15.51 11.1915 16.04 12.3404 16.11V17H12.9787V16.1C13.5745 16.04 14.0638 15.84 14.4362 15.49C14.8085 15.14 15 14.7 15 14.18ZM11.117 10.74C11.117 10.09 11.6064 9.66 12.3404 9.58V11.97C11.5 11.66 11.117 11.35 11.117 10.74ZM12.9787 12.88C13.8298 13.2 14.2553 13.53 14.2553 14.18C14.2553 14.85 13.7766 15.31 12.9787 15.42V12.88Z" fill="white" stroke="white" stroke-width="0.3"/>
</svg>
