<svg width="25" height="26" viewBox="0 0 25 26" fill="none" xmlns="http://www.w3.org/2000/svg">
<path d="M12 6.05894C15.3684 6.05894 18.1754 8.86595 18.1754 12.2344C18.1754 15.6028 15.3684 18.4098 12 18.4098C8.63158 18.4098 5.82456 15.6028 5.82456 12.2344C5.82456 8.86595 8.63158 6.05894 12 6.05894ZM12 4.23438C7.64912 4.23438 4 7.8835 4 12.2344C4 16.7256 7.64912 20.2344 12 20.2344C16.4912 20.2344 20 16.5853 20 12.2344C20 7.8835 16.4912 4.23438 12 4.23438Z" fill="white"/>
<path d="M11.0176 15.0409C11.0176 14.4795 11.4386 13.9181 12 13.9181C12.5614 13.9181 12.9825 14.3392 12.9825 15.0409C12.9825 15.6024 12.5614 16.1638 12 16.1638C11.4386 16.1638 11.0176 15.6024 11.0176 15.0409ZM11.1579 10.5497V9.00586H12.9825V10.5497L12.5614 13.4971H11.4386L11.1579 10.5497Z" fill="white"/>
</svg>
