<svg width="26" height="26" viewBox="0 0 26 26" fill="none" xmlns="http://www.w3.org/2000/svg">
<g clip-path="url(#clip0_2262_114729)">
<path d="M18.7736 9.53252V19.272C18.7736 20.0675 18.1263 20.7148 17.3307 20.7148H10.7476C9.952 20.7148 9.30472 20.0675 9.30472 19.272V12.9392C9.51054 12.9734 9.7205 12.9956 9.93597 12.9956C10.0888 12.9956 10.2388 12.9843 10.3869 12.9668V19.272C10.3869 19.4708 10.5487 19.6326 10.7476 19.6326H17.3307C17.5296 19.6326 17.6914 19.4708 17.6914 19.272V9.53252C17.6914 9.33359 17.5296 9.17181 17.3307 9.17181H13.7598C13.7598 8.7956 13.7033 8.43301 13.602 8.08967H17.3307C18.1263 8.08964 18.7736 8.73693 18.7736 9.53252ZM9.87572 12.5209C7.99921 12.5209 6.47266 10.9943 6.47266 9.11791C6.47269 7.2414 7.99921 5.71484 9.87572 5.71484C11.7522 5.71484 13.2788 7.2414 13.2788 9.11791C13.2788 10.9943 11.7522 12.5209 9.87572 12.5209ZM9.87572 11.7994C11.3543 11.7994 12.5573 10.5966 12.5573 9.11791C12.5573 7.63909 11.3544 6.4363 9.87572 6.4363C8.39693 6.4363 7.19411 7.63909 7.19411 9.11791C7.19411 10.5966 8.39711 11.7994 9.87572 11.7994ZM11.9167 9.47865C12.1158 9.47865 12.2774 9.31705 12.2774 9.11794C12.2774 8.91882 12.1158 8.75722 11.9167 8.75722H10.2364V7.34119C10.2364 7.14208 10.0748 6.98048 9.87572 6.98048C9.67661 6.98048 9.51501 7.14208 9.51501 7.34119V9.11794C9.51501 9.31705 9.67661 9.47865 9.87572 9.47865H11.9167ZM16.08 12.4033H12.1722C11.9731 12.4033 11.8115 12.5649 11.8115 12.764C11.8115 12.9632 11.9731 13.1247 12.1722 13.1247H16.08C16.2792 13.1247 16.4407 12.9632 16.4407 12.764C16.4407 12.5649 16.2792 12.4033 16.08 12.4033ZM16.0864 14.5914H12.1786C11.9794 14.5914 11.8178 14.7529 11.8178 14.9521C11.8178 15.1513 11.9794 15.3128 12.1786 15.3128H16.0864C16.2856 15.3128 16.447 15.1513 16.447 14.9521C16.447 14.7529 16.2857 14.5914 16.0864 14.5914ZM16.0864 16.87H12.1786C11.9794 16.87 11.8178 17.0317 11.8178 17.2308C11.8178 17.43 11.9794 17.5914 12.1786 17.5914H16.0864C16.2856 17.5914 16.447 17.4299 16.447 17.2308C16.4471 17.0317 16.2857 16.87 16.0864 16.87Z" fill="white"/>
</g>
<defs>
<clipPath id="clip0_2262_114729">
<rect width="15" height="15" fill="white" transform="translate(5.12305 5.71484)"/>
</clipPath>
</defs>
</svg>
