<svg width="25" height="26" viewBox="0 0 25 26" fill="none" xmlns="http://www.w3.org/2000/svg">
<path d="M16.5925 12.7719H12.9V9.83852C13.7395 9.85672 14.5767 9.93688 15.4046 10.0785L16.5925 12.7719ZM16.5925 12.7719C16.5649 11.9065 16.4313 11.0477 16.1945 10.2147L15.4048 10.0785L16.5925 12.7719ZM12.5002 5.52187H12.5C8.27507 5.52187 4.85 8.94694 4.85 13.1719C4.85 17.3968 8.27507 20.8219 12.5 20.8219C16.7249 20.8219 20.15 17.3968 20.15 13.1719L20.15 13.1717C20.1453 8.94886 16.723 5.52661 12.5002 5.52187ZM15.541 9.29009L15.5405 9.29001C14.6678 9.14088 13.7851 9.05669 12.9 9.03837V6.35662C14.1229 6.55772 15.2189 7.67663 15.8981 9.35232L15.541 9.29009ZM9.45941 9.29006L9.10172 9.35195C9.78097 7.67551 10.877 6.55609 12.1 6.35546V9.03837C11.2149 9.05669 10.3324 9.14088 9.45972 9.29001L9.45941 9.29006ZM9.45927 17.0537L9.45944 17.0537C10.3322 17.2031 11.2148 17.2876 12.1 17.3066V19.9885C10.877 19.7872 9.78089 18.6681 9.10167 16.9921L9.45927 17.0537ZM15.5406 17.0537L15.8983 16.9918C15.219 18.6682 14.123 19.7877 12.9 19.9883V17.3066C13.7851 17.2876 14.6676 17.2031 15.5403 17.0537L15.5406 17.0537ZM19.3367 13.5719C19.2955 14.2896 19.1408 14.9963 18.8783 15.6658L17.0576 15.9799C17.2551 15.1916 17.3674 14.3843 17.3924 13.5719H19.3367ZM6.12174 15.6658C5.8592 14.9963 5.70449 14.2896 5.66327 13.5719H7.60763C7.63262 14.3843 7.74488 15.1916 7.94242 15.9799L6.12174 15.6658ZM5.66327 12.7719C5.70449 12.0542 5.8592 11.3474 6.12174 10.678L7.94242 10.3638C7.74488 11.1521 7.63262 11.9595 7.60763 12.7719H5.66327ZM9.59548 10.0785C9.59553 10.0785 9.59558 10.0785 9.59562 10.0785C10.4234 9.93688 11.2605 9.85672 12.1 9.83852V12.7719H8.40752C8.43506 11.9065 8.56871 11.0477 8.80552 10.2147L9.59548 10.0785ZM8.40752 13.5719H12.1V16.5052C11.2604 16.487 10.4232 16.4069 9.59524 16.2652L8.80552 16.129C8.56871 15.2961 8.43506 14.4373 8.40752 13.5719ZM15.4045 16.2652C14.5767 16.4069 13.7396 16.487 12.9 16.5052V13.5719H16.5925C16.5649 14.4373 16.4313 15.2961 16.1945 16.129L15.4045 16.2652ZM19.3367 12.7719H17.3924C17.3674 11.9595 17.2551 11.1521 17.0576 10.3638L18.8783 10.678C19.1408 11.3474 19.2955 12.0542 19.3367 12.7719ZM16.8047 9.50837C16.4974 8.55111 15.9897 7.67304 15.3179 6.93155C16.6357 7.52947 17.7353 8.52963 18.4548 9.7931L16.8047 9.50837ZM8.19532 9.50837L6.54521 9.7931C7.26474 8.52963 8.36433 7.52947 9.68209 6.93155C9.01032 7.67304 8.50255 8.55111 8.19532 9.50837ZM9.68209 19.4122C8.36433 18.8143 7.26474 17.8141 6.54521 16.5507L8.19532 16.8354C8.50255 17.7926 9.01032 18.6707 9.68209 19.4122ZM16.8047 16.8354L18.4548 16.5507C17.7353 17.8141 16.6357 18.8143 15.3179 19.4122C15.9897 18.6707 16.4974 17.7926 16.8047 16.8354Z" fill="#E7F2FC" stroke="#E7F2FC" stroke-width="0.3"/>
</svg>
