<svg width="16" height="15" viewBox="0 0 16 15" fill="none" xmlns="http://www.w3.org/2000/svg">
<path d="M8.14277 0.638672C4.31398 0.638672 1.21023 3.64531 1.21023 7.35421C1.21023 8.36184 1.43973 9.31734 1.85016 10.1751L0.210324 13.2883C0.119219 13.4613 0.135667 13.6746 0.252085 13.83C0.34218 13.9502 0.478619 14.0176 0.619878 14.0176C0.661099 14.0176 0.702692 14.0118 0.743711 13.9999L4.3335 12.9654C5.42673 13.6633 6.73564 14.0698 8.14277 14.0698C11.9715 14.0698 15.0753 11.0631 15.0753 7.35421C15.0752 3.64531 11.9715 0.638672 8.14277 0.638672Z" fill="#00CF80"/>
<path d="M8.57845 11.087C8.29045 11.087 8.07845 10.991 7.94245 10.799C7.81445 10.599 7.75845 10.303 7.77445 9.91105L7.82245 7.41505C7.83045 7.02305 7.72645 6.82705 7.51045 6.82705C7.33445 6.82705 7.11445 6.98705 6.85045 7.30705C6.84245 7.31505 6.83045 7.31905 6.81445 7.31905C6.79045 7.31905 6.76645 7.30705 6.74245 7.28305C6.71045 7.25105 6.70245 7.22305 6.71845 7.19905C6.95845 6.86305 7.19045 6.61905 7.41445 6.46705C7.64645 6.31505 7.88245 6.23905 8.12245 6.23905C8.66645 6.23905 8.93845 6.58305 8.93845 7.27105L8.89045 9.91105C8.87445 10.287 8.96645 10.475 9.16645 10.475C9.24645 10.475 9.32645 10.443 9.40645 10.379C9.49445 10.315 9.61445 10.207 9.76645 10.055C9.78245 10.039 9.79845 10.031 9.81445 10.031C9.84645 10.031 9.87045 10.047 9.88645 10.079C9.91045 10.103 9.91845 10.127 9.91045 10.151C9.67045 10.479 9.45045 10.719 9.25045 10.871C9.05045 11.015 8.82645 11.087 8.57845 11.087ZM8.25445 5.03905C8.02245 5.03905 7.84245 4.97505 7.71445 4.84705C7.58645 4.71905 7.52245 4.53905 7.52245 4.30705C7.52245 4.09905 7.58645 3.93505 7.71445 3.81505C7.85045 3.68705 8.03045 3.62305 8.25445 3.62305C8.47845 3.62305 8.65045 3.68305 8.77045 3.80305C8.89045 3.92305 8.95045 4.09105 8.95045 4.30705C8.95045 4.53905 8.89045 4.71905 8.77045 4.84705C8.65045 4.97505 8.47845 5.03905 8.25445 5.03905Z" fill="black"/>
</svg>
