<svg width="25" height="26" viewBox="0 0 25 26" fill="none" xmlns="http://www.w3.org/2000/svg">
<path fill-rule="evenodd" clip-rule="evenodd" d="M5 18.383V15.4531H6.12969V18.383C6.12969 18.6949 6.38258 18.9478 6.69454 18.9478H18.1555C18.4675 18.9478 18.7204 18.6949 18.7204 18.383V15.4531H19.8501V18.383C19.8501 19.3189 19.0914 20.0775 18.1555 20.0775H6.69454C5.75867 20.0775 5 19.3189 5 18.383Z" fill="#E7F2FC"/>
<path fill-rule="evenodd" clip-rule="evenodd" d="M16.4191 13.6135L12.8244 17.2082C12.6038 17.4288 12.2462 17.4288 12.0256 17.2082L8.43093 13.6136C8.21034 13.393 8.21034 13.0353 8.43093 12.8147C8.65151 12.5942 9.00915 12.5942 9.22974 12.8147L11.8602 15.4451L11.8601 5.07814L12.9898 5.07814L12.9898 15.4451L15.6202 12.8147C15.8408 12.5941 16.1985 12.5941 16.4191 12.8147C16.6396 13.0353 16.6396 13.3929 16.4191 13.6135Z" fill="#E7F2FC"/>
</svg>
