<svg width="25" height="26" viewBox="0 0 25 26" fill="none" xmlns="http://www.w3.org/2000/svg">
<path d="M15.1136 15.4487C14.8569 15.4487 14.6482 15.6567 14.6482 15.9141V18.4211C14.6482 19.0545 14.1342 19.5699 13.5014 19.5699H5.07894C4.44553 19.5699 3.93012 19.0545 3.93012 18.4211V7.57894C3.93012 6.94553 4.44553 6.43012 5.07894 6.43012H13.5021C14.1342 6.43012 14.6489 6.94553 14.6489 7.57894V10.0879C14.6489 10.3446 14.8569 10.5533 15.1143 10.5533C15.371 10.5533 15.5797 10.3453 15.5797 10.0879V7.57894C15.579 6.43279 14.6476 5.5 13.5021 5.5H5.07894C3.93279 5.5 3 6.43279 3 7.57894V18.4211C3 19.5672 3.93279 20.5 5.07894 20.5H13.5021C14.6476 20.5 15.579 19.5672 15.579 18.4211V15.9141C15.579 15.6567 15.371 15.4487 15.1136 15.4487Z" fill="#E7F2FC"/>
<path d="M21.5357 12.6258L17.8819 8.97196C17.7005 8.7906 17.4058 8.7906 17.2238 8.97196C17.0425 9.15331 17.0425 9.44802 17.2238 9.63005L20.1295 12.5358H10.669C10.4123 12.5358 10.2036 12.7438 10.2036 13.0012C10.2036 13.2585 10.4116 13.4666 10.669 13.4666H20.0368L17.1311 16.3723C16.9498 16.5537 16.9498 16.8484 17.1311 17.0304C17.2218 17.1211 17.3412 17.1664 17.4598 17.1664C17.5785 17.1664 17.6979 17.1211 17.7885 17.0304L21.5343 13.2845C21.717 13.1019 21.717 12.8071 21.5357 12.6258Z" fill="#E7F2FC"/>
</svg>
