<svg width="25" height="25" viewBox="0 0 25 25" fill="none" xmlns="http://www.w3.org/2000/svg">
<path d="M18.2607 15.4242H5.73927C5.33242 15.4242 5 15.1022 5 14.7082V6.71605C5 6.32197 5.33242 6 5.73927 6H18.2607C18.6689 6 19 6.32197 19 6.71605V14.7082C19.0013 15.1022 18.6689 15.4242 18.2607 15.4242ZM5.73927 6.55071C5.64558 6.55071 5.56857 6.6253 5.56857 6.71605V14.7082C5.56857 14.7989 5.64558 14.8735 5.73927 14.8735H18.2607C18.3544 14.8735 18.4314 14.7989 18.4314 14.7082V6.71605C18.4314 6.62405 18.3544 6.55071 18.2607 6.55071H5.73927Z" fill="white"/>
<path d="M11.4417 15.812H10.8731V17.1372H11.4417V15.812Z" fill="white"/>
<path d="M13.1269 15.812H12.5583V17.1372H13.1269V15.812Z" fill="white"/>
<path d="M14.8044 18H9.19691C9.04033 18 8.91327 17.8769 8.91327 17.724C8.91327 17.5723 9.04033 17.448 9.19691 17.448H14.8044C14.9609 17.448 15.088 17.5711 15.088 17.724C15.088 17.8769 14.9609 18 14.8044 18Z" fill="white"/>
<path d="M7.30509 13.5383C6.71213 13.5383 6.23083 13.0721 6.23083 12.4978C6.23083 11.9235 6.71213 11.4573 7.30509 11.4573C7.89805 11.4573 8.37935 11.9247 8.37935 12.4978C8.37935 13.0709 7.89677 13.5383 7.30509 13.5383ZM7.30509 12.008C7.02658 12.008 6.79941 12.228 6.79941 12.4978C6.79941 12.7675 7.02658 12.9876 7.30509 12.9876C7.5836 12.9876 7.81078 12.7675 7.81078 12.4978C7.81078 12.228 7.5836 12.008 7.30509 12.008Z" fill="white"/>
<path d="M9.9426 10.3759C9.34965 10.3759 8.86835 9.90851 8.86835 9.33543C8.86835 8.76234 9.34965 8.29492 9.9426 8.29492C10.5356 8.29492 11.0169 8.76234 11.0169 9.33543C11.0169 9.90851 10.5356 10.3759 9.9426 10.3759ZM9.9426 8.84563C9.66409 8.84563 9.43692 9.06567 9.43692 9.33543C9.43692 9.60519 9.66409 9.82522 9.9426 9.82522C10.2211 9.82522 10.4483 9.60519 10.4483 9.33543C10.4483 9.06567 10.2211 8.84563 9.9426 8.84563Z" fill="white"/>
<path d="M12.8843 13.2712C12.2914 13.2712 11.8101 12.8038 11.8101 12.2307C11.8101 11.6576 12.2914 11.1902 12.8843 11.1902C13.4773 11.1902 13.9586 11.6576 13.9586 12.2307C13.9586 12.8038 13.476 13.2712 12.8843 13.2712ZM12.8843 11.7409C12.6058 11.7409 12.3786 11.9609 12.3786 12.2307C12.3786 12.5005 12.6058 12.7205 12.8843 12.7205C13.1628 12.7205 13.39 12.5005 13.39 12.2307C13.39 11.9609 13.1628 11.7409 12.8843 11.7409Z" fill="white"/>
<path d="M16.6885 11.4848C16.0968 11.4848 15.6142 11.0186 15.6142 10.4443C15.6142 9.86999 16.0955 9.40381 16.6885 9.40381C17.2814 9.40381 17.7627 9.87123 17.7627 10.4443C17.7627 11.0174 17.2801 11.4848 16.6885 11.4848ZM16.6885 9.95452C16.4099 9.95452 16.1828 10.1746 16.1828 10.4443C16.1828 10.7141 16.4099 10.9341 16.6885 10.9341C16.967 10.9341 17.1941 10.7141 17.1941 10.4443C17.1941 10.1733 16.967 9.95452 16.6885 9.95452Z" fill="white"/>
<path d="M7.70553 12.0591C7.6375 12.0591 7.5682 12.0355 7.51301 11.987C7.3975 11.8839 7.38979 11.7098 7.49504 11.5979L9.23284 9.76182C9.33937 9.64994 9.51906 9.64248 9.63457 9.74566C9.75008 9.84884 9.75778 10.0229 9.65254 10.1348L7.91473 11.9696C7.85826 12.0281 7.78125 12.0591 7.70553 12.0591Z" fill="white"/>
<path d="M12.3388 11.8801C12.2631 11.8801 12.1861 11.8502 12.1309 11.7918L10.4188 10.0079C10.3123 9.89601 10.3187 9.72197 10.4342 9.61879C10.5497 9.51561 10.7294 9.52183 10.8359 9.63371L12.5468 11.4176C12.6533 11.5295 12.6469 11.7035 12.5314 11.8067C12.4775 11.8552 12.4081 11.8801 12.3388 11.8801Z" fill="white"/>
<path d="M13.6814 12.2629C13.5723 12.2629 13.4696 12.202 13.4221 12.1001C13.3579 11.9609 13.4221 11.798 13.5659 11.7358L15.9749 10.6904C16.1187 10.6282 16.2868 10.6904 16.351 10.8296C16.4151 10.9688 16.351 11.1317 16.2072 11.1938L13.7982 12.2393C13.7597 12.2555 13.7199 12.2629 13.6814 12.2629Z" fill="white"/>
</svg>
