<svg width="25" height="26" viewBox="0 0 25 26" fill="none" xmlns="http://www.w3.org/2000/svg">
<g clip-path="url(#clip0_2019_49583)">
<path d="M8.34395 11.0059H5.76433C5.33439 11.0059 5 11.3403 5 11.7702V19.6046C5 20.0345 5.33439 20.3689 5.76433 20.3689H8.34395C8.77389 20.3689 9.10828 20.0345 9.10828 19.6046V11.7702C9.10828 11.3403 8.77389 11.0059 8.34395 11.0059Z" fill="#E7F2FC"/>
<path d="M19.1878 8.42578H16.6559C16.226 8.42578 15.8916 8.76018 15.8916 9.19011V19.6041C15.8916 20.0341 16.226 20.3685 16.6559 20.3685H19.1878C19.6177 20.3685 19.9521 20.0341 19.9521 19.6041V9.19011C19.9999 8.76018 19.6177 8.42578 19.1878 8.42578Z" fill="#E7F2FC"/>
<path d="M13.7897 5.41602H11.2101C10.7802 5.41602 10.4458 5.75041 10.4458 6.18035V19.6039C10.4458 20.0338 10.7802 20.3682 11.2101 20.3682H13.742C14.1719 20.3682 14.5063 20.0338 14.5063 19.6039V6.18035C14.5541 5.75041 14.1719 5.41602 13.7897 5.41602Z" fill="#E7F2FC"/>
</g>
<defs>
<clipPath id="clip0_2019_49583">
<rect width="15" height="15" fill="white" transform="translate(5 5.41602)"/>
</clipPath>
</defs>
</svg>
