<svg width="26" height="26" viewBox="0 0 26 26" fill="none" xmlns="http://www.w3.org/2000/svg">
<path d="M13.6738 5.94531C13.7799 6.03538 13.8074 6.14504 13.8035 6.28211C13.7956 6.52491 13.7996 6.76771 13.7996 7.02618C13.8546 7.0301 13.9018 7.03401 13.949 7.03793C14.2242 7.0536 14.3815 7.21416 14.3854 7.48829C14.3893 7.91907 14.3854 8.34594 14.3854 8.77672C14.3854 8.9412 14.3068 9.03519 14.1691 9.03519C14.0315 9.03911 13.945 8.93728 13.945 8.76889C13.9411 8.39685 13.945 8.02481 13.945 7.65669C13.945 7.60186 13.945 7.55095 13.945 7.48829C13.7013 7.48829 13.4693 7.48829 13.2295 7.48829C13.2295 8.80805 13.2295 10.1239 13.2295 11.4476C13.4615 11.4476 13.6934 11.4476 13.945 11.4476C13.945 11.4006 13.945 11.3457 13.945 11.2948C13.945 10.8053 13.9411 10.3197 13.949 9.83018C13.949 9.75185 13.9726 9.65395 14.0237 9.60695C14.0748 9.55996 14.1888 9.53646 14.2478 9.56388C14.3107 9.59521 14.3775 9.68919 14.3815 9.7636C14.3972 10.0377 14.3893 10.3119 14.3893 10.5821C14.3893 10.8562 14.3893 11.1304 14.3893 11.4045C14.3893 11.7452 14.2438 11.8901 13.8979 11.8979C13.8743 11.8979 13.8507 11.9018 13.8074 11.9058C13.8074 12.1212 13.8074 12.3326 13.8074 12.548C13.8074 12.7125 13.8114 12.8809 13.8074 13.0454C13.8035 13.1981 13.7209 13.2843 13.5873 13.2843C13.4575 13.2843 13.371 13.1942 13.3671 13.0415C13.3632 12.7047 13.3671 12.3679 13.3632 12.0311C13.3632 11.9919 13.3592 11.9528 13.3553 11.9058C13.316 11.9018 13.2767 11.8979 13.2374 11.894C12.9464 11.8862 12.7813 11.7334 12.7774 11.4397C12.7734 10.1278 12.7734 8.81197 12.7774 7.50004C12.7774 7.20633 12.9386 7.04968 13.2334 7.03793C13.2688 7.03793 13.3003 7.03401 13.3592 7.03401C13.3592 6.82254 13.3592 6.60715 13.3592 6.39567C13.3592 6.32127 13.3435 6.24294 13.3632 6.17637C13.3907 6.09413 13.4497 6.02364 13.4968 5.94531C13.5558 5.94531 13.6148 5.94531 13.6738 5.94531Z" fill="white"/>
<path d="M5.94039 16.9532C10.6544 16.9532 15.3487 16.9532 20.0548 16.9532C20.0587 16.8983 20.0626 16.8513 20.0626 16.8043C20.0626 14.3646 20.0626 11.9287 20.0626 9.4889C20.0626 8.89363 19.6773 8.48635 19.0758 8.47852C18.2108 8.46677 17.3498 8.4746 16.4849 8.4746C16.4652 8.4746 16.4456 8.47852 16.418 8.48243C16.418 8.78398 16.418 9.08553 16.418 9.39491C16.4574 9.39882 16.5006 9.40274 16.5439 9.40274C16.8191 9.41449 16.9881 9.57114 16.9881 9.84527C16.9921 10.6912 16.996 11.5371 16.9881 12.379C16.9842 12.6845 16.823 12.8098 16.4063 12.8333C16.4063 12.8842 16.4063 12.9351 16.4063 12.9861C16.4063 13.4717 16.4063 13.9534 16.4063 14.439C16.4063 14.4742 16.4063 14.5055 16.4063 14.5408C16.3984 14.6974 16.308 14.7953 16.1743 14.7914C16.0485 14.7875 15.9659 14.6896 15.9659 14.5408C15.962 14.2001 15.9659 13.8555 15.9659 13.5147C15.9659 13.2915 15.9659 13.0683 15.9659 12.8568C15.9463 12.8412 15.9423 12.8372 15.9384 12.8372C15.5413 12.8568 15.3644 12.6728 15.3762 12.2107C15.3958 11.4587 15.3801 10.7068 15.3801 9.95492C15.3801 9.55547 15.502 9.43015 15.8951 9.40666C15.9148 9.40666 15.9305 9.39882 15.9581 9.39491C15.9581 9.09336 15.9581 8.79965 15.9581 8.47852C15.8519 8.47852 15.7457 8.47852 15.6396 8.47852C15.443 8.47852 15.2464 8.48243 15.0499 8.4746C14.9162 8.47068 14.8218 8.36886 14.8258 8.25138C14.8297 8.13781 14.9201 8.04774 15.0499 8.04382C15.2936 8.0399 15.5413 8.0399 15.7851 8.0399C15.8362 8.0399 15.8912 8.0399 15.962 8.0399C15.962 7.7971 15.962 7.56996 15.962 7.34282C15.962 7.28799 15.962 7.23708 15.962 7.18226C15.9659 7.03344 16.0524 6.93945 16.1782 6.93945C16.308 6.93945 16.3945 7.03344 16.3984 7.18226C16.4023 7.40548 16.3984 7.63262 16.3984 7.85584C16.3984 7.91067 16.3984 7.96158 16.3984 8.03207C16.4613 8.03599 16.5203 8.0399 16.5753 8.0399C17.3852 8.0399 18.1951 8.0399 19.005 8.0399C19.9093 8.0399 20.4951 8.62733 20.4951 9.52414C20.4951 12.0462 20.4951 14.5643 20.4951 17.0863C20.4951 17.9792 19.9014 18.5705 19.0011 18.5705C17.975 18.5705 16.9527 18.5705 15.9266 18.5705C15.8676 18.5705 15.8126 18.5705 15.7379 18.5705C15.7379 18.9387 15.7379 19.295 15.7418 19.6475C15.7418 19.6867 15.7772 19.7258 15.8047 19.7572C15.9974 19.9843 16.19 20.2154 16.3945 20.4307C16.4377 20.4777 16.5281 20.4973 16.5989 20.5012C16.823 20.5091 16.9331 20.5756 16.9331 20.7205C16.937 20.8694 16.8269 20.9438 16.6028 20.9438C14.1888 20.9438 11.7749 20.9438 9.36479 20.9438C9.31761 20.9438 9.2665 20.9477 9.21932 20.9398C9.10531 20.9163 9.03847 20.8419 9.03847 20.7245C9.03847 20.607 9.10924 20.5365 9.22326 20.5091C9.23112 20.5051 9.24291 20.5051 9.25078 20.5051C9.49847 20.5639 9.63607 20.4112 9.76975 20.2428C9.91915 20.0509 10.1432 19.8903 10.2258 19.6749C10.3084 19.4595 10.2494 19.1932 10.2533 18.9504C10.2533 18.829 10.2533 18.7076 10.2533 18.5666C10.1826 18.5666 10.1275 18.5666 10.0685 18.5666C9.01881 18.5666 7.96908 18.5705 6.91935 18.5666C6.18808 18.5627 5.62586 18.0849 5.50791 17.3683C5.49219 17.29 5.49219 17.1999 5.49219 17.1137C5.49219 14.5799 5.49219 12.0423 5.49219 9.50848C5.49219 8.63908 6.08586 8.04774 6.9626 8.04382C8.16566 8.04382 9.36479 8.04382 10.5679 8.04382C10.6268 8.04382 10.6858 8.04382 10.7408 8.04382C10.7998 7.78535 10.8588 7.71094 10.9885 7.71486C11.1261 7.71878 11.193 7.81276 11.2166 8.04382C11.3384 8.04382 11.4643 8.04382 11.5861 8.04382C11.7631 8.04382 11.94 8.0399 12.1169 8.04774C12.2506 8.05165 12.3331 8.13781 12.3371 8.25529C12.341 8.38061 12.2545 8.4746 12.1169 8.4746C11.8731 8.48243 11.6255 8.47852 11.3817 8.47852C11.3306 8.47852 11.2755 8.47852 11.2166 8.47852C11.2166 8.62342 11.2166 8.75657 11.2166 8.9093C11.2677 8.9093 11.3188 8.90538 11.3699 8.9093C11.6137 8.92105 11.7906 9.08553 11.7906 9.32833C11.7945 10.1899 11.7945 11.0475 11.7906 11.9091C11.7906 12.1597 11.6137 12.3203 11.3581 12.3321C11.3149 12.336 11.2716 12.3321 11.2087 12.3321C11.2087 12.3908 11.2087 12.4456 11.2087 12.4965C11.2087 13.0448 11.2087 13.5892 11.2087 14.1374C11.2087 14.1727 11.2087 14.204 11.2087 14.2392C11.2048 14.3959 11.1143 14.4938 10.9807 14.4899C10.8549 14.486 10.7684 14.392 10.7684 14.2432C10.7684 13.7536 10.7684 13.2641 10.7684 12.7785C10.7684 12.6375 10.7684 12.4965 10.7684 12.3438C10.7094 12.3399 10.6583 12.3399 10.6032 12.336C10.3556 12.3203 10.1826 12.1558 10.1826 11.913C10.1786 11.0515 10.1786 10.1938 10.1826 9.33225C10.1826 9.08944 10.3556 8.92496 10.6032 8.9093C10.6504 8.90538 10.7015 8.9093 10.7605 8.9093C10.7605 8.76832 10.7605 8.63125 10.7605 8.47852C10.7133 8.47852 10.6622 8.47852 10.615 8.47852C9.40804 8.47852 8.20105 8.47852 6.99405 8.47852C6.4397 8.47852 6.0544 8.77223 5.95611 9.26176C5.94432 9.32833 5.94039 9.39882 5.94039 9.4654C5.94039 11.9169 5.94039 14.3724 5.94039 16.8239C5.93252 16.8631 5.93646 16.9023 5.94039 16.9532ZM15.2936 18.5784C15.0695 18.5784 14.8651 18.5823 14.6606 18.5784C14.5152 18.5745 14.4169 18.4844 14.4169 18.3591C14.4169 18.2338 14.5152 18.1437 14.6606 18.1398C14.8179 18.1359 14.9752 18.1398 15.1324 18.1398C16.4456 18.1398 17.7626 18.1398 19.0758 18.1398C19.5476 18.1398 19.9447 17.8343 20.0233 17.4114C15.3408 17.4114 10.6583 17.4114 5.97184 17.4114C5.97577 17.4388 5.9797 17.4623 5.98757 17.4858C6.12124 17.8891 6.48688 18.1398 6.9508 18.1398C9.15642 18.1398 11.366 18.1398 13.5716 18.1398C13.6188 18.1398 13.6699 18.1359 13.7171 18.1437C13.835 18.1554 13.9058 18.222 13.9176 18.3395C13.9294 18.4648 13.8586 18.5431 13.7406 18.5705C13.6935 18.5823 13.6424 18.5784 13.5952 18.5784C12.687 18.5784 11.7788 18.5784 10.8745 18.5784C10.8234 18.5784 10.7684 18.5784 10.7133 18.5784C10.7133 18.9113 10.7133 19.2246 10.7133 19.5535C10.8824 19.5535 11.0436 19.5496 11.2048 19.5535C11.3738 19.5574 11.4761 19.6475 11.4721 19.7807C11.4682 19.9099 11.3699 19.9921 11.2087 19.9921C11.0357 19.9921 10.8667 19.9921 10.6937 19.9921C10.6544 19.9921 10.6032 19.9882 10.5797 20.0078C10.4342 20.1644 10.2926 20.3289 10.1393 20.5051C12.0658 20.5051 13.9569 20.5051 15.8755 20.5051C15.7418 20.3524 15.6317 20.2114 15.5059 20.0861C15.4587 20.0391 15.3762 20 15.3093 19.996C15.1246 19.9843 14.9358 20.0039 14.7511 19.9843C14.6764 19.9765 14.582 19.8942 14.5584 19.8237C14.5388 19.7611 14.5899 19.6593 14.6449 19.6005C14.6803 19.5613 14.7707 19.5574 14.8376 19.5535C14.9909 19.5457 15.1481 19.5496 15.3054 19.5496C15.2936 19.2167 15.2936 18.9073 15.2936 18.5784ZM10.619 11.8856C10.8667 11.8856 11.0986 11.8856 11.3345 11.8856C11.3345 11.0358 11.3345 10.1977 11.3345 9.35966C11.0908 9.35966 10.8588 9.35966 10.619 9.35966C10.619 10.2016 10.619 11.0358 10.619 11.8856ZM15.8244 12.3869C16.0681 12.3869 16.3001 12.3869 16.536 12.3869C16.536 11.5371 16.536 10.699 16.536 9.86093C16.2922 9.86093 16.0603 9.86093 15.8244 9.86093C15.8244 10.7029 15.8244 11.5371 15.8244 12.3869Z" fill="white"/>
<path d="M9.9151 15.1715C9.48656 15.3556 9.05802 15.5357 8.62555 15.7198C8.14589 15.9234 7.66231 16.131 7.18266 16.3346C7.14334 16.3503 7.10009 16.3699 7.06078 16.3816C6.9389 16.409 6.84061 16.3699 6.80129 16.2524C6.76198 16.1388 6.79343 16.037 6.90745 15.9783C7.04112 15.9156 7.17479 15.8608 7.3124 15.802C8.15769 15.4417 9.00298 15.0814 9.84827 14.7212C10.1353 14.5998 10.206 14.6272 10.3201 14.9248C10.383 15.0932 10.4498 15.2616 10.5166 15.4417C10.5835 15.4104 10.6424 15.3791 10.7014 15.3477C12.1011 14.5958 13.5007 13.8439 14.9043 13.092C14.9357 13.0764 14.9632 13.0568 14.9947 13.045C15.1205 12.9902 15.2385 13.0254 15.2974 13.1351C15.3564 13.2447 15.321 13.3622 15.1991 13.4327C14.9986 13.5463 14.7942 13.652 14.5937 13.7617C13.2609 14.4783 11.932 15.1911 10.5992 15.9078C10.3633 16.0331 10.2572 15.9939 10.1628 15.7472C10.092 15.5671 10.0213 15.383 9.95049 15.2028C9.93869 15.195 9.93083 15.1872 9.9151 15.1715Z" fill="white"/>
<path d="M8.73206 10.5554C8.50009 10.5554 8.26813 10.5554 8.01651 10.5554C8.01651 10.6729 8.01651 10.7943 8.01651 10.9118C8.01651 11.135 8.01651 11.3622 8.01651 11.5854C8.01651 11.7577 7.93395 11.8595 7.80027 11.8635C7.66267 11.8674 7.57617 11.7616 7.57617 11.5815C7.57617 11.2604 7.57617 10.9353 7.57617 10.6142C7.57617 10.2617 7.71771 10.1168 8.06762 10.1051C8.09121 10.1051 8.1148 10.1012 8.15805 10.0972C8.15805 9.99151 8.15411 9.88186 8.15805 9.77612C8.16198 9.62339 8.24847 9.53332 8.37821 9.53723C8.50796 9.53723 8.59052 9.6273 8.59838 9.78004C8.60231 9.88186 8.59838 9.98368 8.59838 10.0972C8.64949 10.1012 8.69274 10.1051 8.73599 10.1051C9.0112 10.1129 9.17239 10.2696 9.18026 10.5437C9.18812 10.8413 9.18026 11.139 9.18026 11.4366C9.18026 11.9496 9.18026 12.4626 9.18026 12.9756C9.18026 13.3829 9.07017 13.5004 8.65342 13.5317C8.64163 13.5317 8.6259 13.5396 8.59838 13.5474C8.59838 13.8568 8.59838 14.1662 8.59838 14.4795C8.59838 14.546 8.60231 14.6165 8.59838 14.6831C8.58659 14.8319 8.49616 14.922 8.37035 14.9142C8.24847 14.9102 8.16591 14.8241 8.16198 14.6792C8.15805 14.3581 8.16198 14.033 8.16198 13.7119C8.16198 13.6571 8.16198 13.6062 8.16198 13.5396C8.09514 13.5357 8.03617 13.5317 7.98112 13.5278C7.73737 13.5043 7.58797 13.3477 7.5801 13.1049C7.57617 12.9326 7.57617 12.7642 7.5801 12.5919C7.58403 12.4509 7.6666 12.3647 7.79241 12.3608C7.91822 12.3608 8.00865 12.443 8.01651 12.584C8.02437 12.7446 8.01651 12.9052 8.01651 13.0775C8.26027 13.0775 8.49223 13.0775 8.73206 13.0775C8.73206 12.2355 8.73206 11.4013 8.73206 10.5554Z" fill="white"/>
<path d="M18.537 11.1383C18.4623 11.107 18.4151 11.0913 18.3718 11.0678C18.2657 11.0091 18.2107 10.9229 18.2539 10.8015C18.2971 10.684 18.3915 10.6253 18.5095 10.6644C18.765 10.7506 19.0166 10.8446 19.2643 10.9503C19.3626 10.9934 19.398 11.0952 19.3587 11.2009C19.2761 11.4242 19.1935 11.6513 19.1031 11.8706C19.0559 11.9881 18.9341 12.0312 18.82 11.9842C18.71 11.9411 18.6628 11.8315 18.6982 11.7061C18.7139 11.6552 18.7336 11.6043 18.7571 11.5299C18.7021 11.5534 18.6628 11.5691 18.6274 11.5886C18.3522 11.7375 18.077 11.8863 17.7978 12.0312C17.6484 12.1095 17.5148 12.086 17.4519 11.9646C17.389 11.8432 17.4361 11.7257 17.5895 11.6435C17.9001 11.4829 18.2067 11.3184 18.537 11.1383Z" fill="white"/>
</svg>
