<svg width="26" height="26" viewBox="0 0 26 26" fill="none" xmlns="http://www.w3.org/2000/svg">
<g clip-path="url(#clip0_2019_49558)">
<path d="M21.2212 5.53125H6.75691C6.60958 5.53125 6.48905 5.65179 6.48905 5.79911V19.192C6.48905 19.6339 6.12744 19.9955 5.68548 19.9955C5.24351 19.9955 4.88191 19.6339 4.88191 19.192V7.67411C4.88191 7.52679 4.76137 7.40625 4.61405 7.40625C4.46673 7.40625 4.34619 7.52679 4.34619 7.67411V19.192C4.34619 19.9286 4.94887 20.5312 5.68548 20.5312H20.1498C20.8864 20.5312 21.489 19.9286 21.489 19.192V5.79911C21.489 5.65179 21.3685 5.53125 21.2212 5.53125ZM20.9533 19.192C20.9533 19.6339 20.5917 19.9955 20.1498 19.9955H6.75691C6.92432 19.7746 7.02476 19.4933 7.02476 19.192V6.06696H20.9533V19.192Z" fill="white" stroke="white" stroke-width="0.2"/>
<path d="M5.68534 19.4607C5.83266 19.4607 5.95319 19.3401 5.95319 19.1928V6.87137C5.95319 6.72405 5.83266 6.60352 5.68534 6.60352C5.53802 6.60352 5.41748 6.72405 5.41748 6.87137V19.1928C5.41748 19.3401 5.53802 19.4607 5.68534 19.4607Z" fill="white" stroke="white" stroke-width="0.2"/>
<path d="M8.36405 15.7107H12.6498C12.7971 15.7107 12.9176 15.5901 12.9176 15.4428V10.6214C12.9176 10.4741 12.7971 10.3535 12.6498 10.3535H8.36405C8.21673 10.3535 8.09619 10.4741 8.09619 10.6214V15.4428C8.09619 15.5901 8.21673 15.7107 8.36405 15.7107ZM8.63191 10.8892H12.3819V15.1749H8.63191V10.8892Z" fill="white" stroke="white" stroke-width="0.2"/>
<path d="M8.61405 8.06696H19.864C20.0114 8.06696 20.1319 7.94643 20.1319 7.79911C20.1319 7.65179 20.0114 7.53125 19.864 7.53125H8.61405C8.46673 7.53125 8.34619 7.65179 8.34619 7.79911C8.34619 7.94643 8.46673 8.06696 8.61405 8.06696Z" fill="white" stroke="white" stroke-width="0.2"/>
<path d="M19.9712 10.5312H14.614C14.4667 10.5312 14.3462 10.6518 14.3462 10.7991C14.3462 10.9464 14.4667 11.067 14.614 11.067H19.9712C20.1185 11.067 20.239 10.9464 20.239 10.7991C20.239 10.6518 20.1185 10.5312 19.9712 10.5312Z" fill="white" stroke="white" stroke-width="0.2"/>
<path d="M19.9712 13.5312H14.614C14.4667 13.5312 14.3462 13.6518 14.3462 13.7991C14.3462 13.9464 14.4667 14.067 14.614 14.067H19.9712C20.1185 14.067 20.239 13.9464 20.239 13.7991C20.239 13.6518 20.1185 13.5312 19.9712 13.5312Z" fill="white" stroke="white" stroke-width="0.2"/>
<path d="M19.9712 16.5312H14.614C14.4667 16.5312 14.3462 16.6518 14.3462 16.7991C14.3462 16.9464 14.4667 17.067 14.614 17.067H19.9712C20.1185 17.067 20.239 16.9464 20.239 16.7991C20.239 16.6518 20.1185 16.5312 19.9712 16.5312Z" fill="white" stroke="white" stroke-width="0.2"/>
</g>
<defs>
<clipPath id="clip0_2019_49558">
<rect width="17.1429" height="15" fill="white" transform="translate(4.34619 5.53125)"/>
</clipPath>
</defs>
</svg>
