<svg width="17" height="18" viewBox="0 0 17 18" fill="none" xmlns="http://www.w3.org/2000/svg">
<path d="M9.92572 12.8333H5.80072M9.92572 12.8333H13.3632L12.3973 11.8967C12.2676 11.7709 12.1647 11.6215 12.0945 11.4571C12.0243 11.2927 11.9882 11.1166 11.9882 10.9387V8.83333C11.9883 8.00596 11.7239 7.19889 11.2314 6.52326C10.739 5.84762 10.0426 5.33664 9.23822 5.06067V4.83333C9.23822 4.47971 9.09335 4.14057 8.83549 3.89052C8.57763 3.64048 8.22789 3.5 7.86322 3.5C7.49855 3.5 7.14881 3.64048 6.89095 3.89052C6.63309 4.14057 6.48822 4.47971 6.48822 4.83333V5.06067C4.88635 5.61 3.73822 7.092 3.73822 8.83333V10.9393C3.73822 11.298 3.5911 11.6427 3.32916 11.8967L2.36322 12.8333H5.80072H9.92572ZM9.92572 12.8333V13.5C9.92572 14.0304 9.70842 14.5391 9.32163 14.9142C8.93483 15.2893 8.41023 15.5 7.86322 15.5C7.31621 15.5 6.79161 15.2893 6.40481 14.9142C6.01802 14.5391 5.80072 14.0304 5.80072 13.5V12.8333H9.92572Z" stroke="#02194A" stroke-linecap="round" stroke-linejoin="round"/>
</svg>
