<svg width="25" height="26" viewBox="0 0 25 26" fill="none" xmlns="http://www.w3.org/2000/svg">
<g clip-path="url(#clip0_2019_49480)">
<path d="M6.3346 9.73786C6.3346 9.53715 6.18016 9.375 5.9903 9.375C5.80044 9.375 5.646 9.53777 5.646 9.73786C5.646 9.93795 5.80044 10.1007 5.9903 10.1007C6.18016 10.1007 6.3346 9.93856 6.3346 9.73786Z" fill="white"/>
<path d="M20.9643 8.93069L16.6492 4.38304C16.4767 4.2013 16.248 4.10156 16.0047 4.10156C15.7614 4.10156 15.5321 4.2013 15.3602 4.38304L14.39 5.40552C14.2176 5.58726 14.1229 5.82835 14.1229 6.08474C14.1229 6.21385 14.1467 6.33867 14.1926 6.45432C13.6277 6.57976 13.0773 6.77007 12.553 7.02094C11.9915 6.78536 11.4875 6.65748 11.0736 6.59017C11.0962 6.50572 11.1084 6.41761 11.1084 6.32766C11.1084 6.07127 11.0138 5.82957 10.8413 5.64845L9.87055 4.62535C9.69811 4.44362 9.46935 4.34388 9.22607 4.34388C8.9828 4.34388 8.75346 4.44362 8.58159 4.62535L4.2665 9.173C3.91117 9.54749 3.91117 10.1569 4.2665 10.5314L5.2367 11.5545C5.41437 11.7418 5.64777 11.8354 5.88118 11.8354C6.03794 11.8354 6.19529 11.7926 6.33521 11.7081C6.51114 12.2472 6.74629 12.8108 7.04472 13.2091L6.4972 13.7861C6.00601 14.3038 6.00601 15.1464 6.4972 15.6647C6.7428 15.9235 7.06562 16.0532 7.38844 16.0532C7.39541 16.0532 7.40238 16.0526 7.40934 16.0526C7.40934 16.06 7.40876 16.0679 7.40876 16.0753C7.40876 16.4302 7.53998 16.7636 7.77803 17.0145C8.02363 17.2734 8.34645 17.4031 8.66927 17.4031C8.67623 17.4031 8.68378 17.4025 8.69075 17.4025C8.68494 17.75 8.80745 18.0994 9.05886 18.3644C9.30445 18.6232 9.62727 18.7529 9.95009 18.7529C9.95706 18.7529 9.96461 18.7523 9.97158 18.7523C9.96577 19.0999 10.0883 19.4493 10.3397 19.7142C10.5853 19.9731 10.9081 20.1028 11.2309 20.1028C11.5537 20.1028 11.8766 19.9731 12.1222 19.7142L13.1765 18.603C13.277 18.4972 13.3565 18.3778 13.4158 18.2506C13.5632 18.3111 13.72 18.3423 13.8762 18.3423C14.199 18.3423 14.5218 18.2126 14.7674 17.9538C14.9497 17.7617 15.0641 17.5248 15.1111 17.277C15.2319 17.3162 15.3573 17.3358 15.4821 17.3358C15.805 17.3358 16.1278 17.206 16.3734 16.9472C16.5708 16.7392 16.6939 16.4748 16.731 16.1885C16.8135 16.2056 16.8965 16.2148 16.9801 16.2148C17.3029 16.2148 17.6258 16.085 17.8714 15.8262C18.1094 15.5753 18.2406 15.2418 18.2406 14.8869C18.2406 14.532 18.1088 14.1979 17.8708 13.9471L17.7256 13.7941C18.2906 13.1345 18.7423 12.3671 19.0523 11.5411C19.147 11.5753 19.2468 11.5931 19.3496 11.5931C19.5929 11.5931 19.8222 11.4933 19.9941 11.3116L20.9643 10.2891C21.3196 9.91463 21.3196 9.30517 20.9643 8.93069ZM5.73835 11.0258L4.76815 10.0034C4.68918 9.92013 4.68918 9.7849 4.76815 9.70169L9.08324 5.15403C9.12156 5.11365 9.17208 5.09162 9.22607 5.09162C9.28007 5.09162 9.33116 5.11365 9.3689 5.15403L10.3391 6.17652C10.3774 6.21691 10.3983 6.27014 10.3983 6.32705C10.3983 6.38396 10.3774 6.4378 10.3391 6.47758L6.26206 10.7743C6.26206 10.7743 6.26206 10.7743 6.26148 10.775L6.02401 11.0252C5.94562 11.1091 5.81731 11.1091 5.73835 11.0258ZM6.99885 15.1354C6.89492 15.0258 6.83744 14.8802 6.83744 14.7248C6.83744 14.5694 6.89492 14.4237 6.99885 14.3142L8.05324 13.203C8.15717 13.0935 8.29535 13.0329 8.44283 13.0329C8.58972 13.0329 8.72849 13.0935 8.83242 13.203C9.04724 13.4294 9.04724 13.7978 8.83242 14.0242L7.77803 15.1354C7.5632 15.3618 7.21368 15.3618 6.99885 15.1354ZM8.66927 16.6553C8.52237 16.6553 8.38361 16.5948 8.27968 16.4852C8.17575 16.3757 8.11827 16.2301 8.11827 16.0746C8.11827 15.9198 8.17575 15.7736 8.27968 15.6641L9.33407 14.5528C9.43799 14.4433 9.57618 14.3827 9.72366 14.3827C9.87055 14.3827 10.0093 14.4433 10.1132 14.5528C10.2172 14.6624 10.2747 14.808 10.2747 14.9634C10.2747 15.1188 10.2172 15.2645 10.1132 15.374L9.05886 16.4852C8.95493 16.5948 8.81674 16.6553 8.66927 16.6553ZM9.95009 18.0052C9.8032 18.0052 9.66443 17.9446 9.5605 17.8351C9.45657 17.7255 9.39909 17.5799 9.39909 17.4245C9.39909 17.2697 9.45657 17.1234 9.5605 17.0139L10.6149 15.9027C10.7223 15.7895 10.8634 15.7332 11.0045 15.7332C11.1456 15.7332 11.2867 15.7901 11.3941 15.9027C11.498 16.0122 11.5555 16.1579 11.5555 16.3133C11.5555 16.4681 11.498 16.6143 11.3941 16.7239L10.3397 17.8351C10.2358 17.9446 10.097 18.0052 9.95009 18.0052ZM12.6743 18.0737L11.6205 19.1849C11.4057 19.4113 11.0562 19.4113 10.8413 19.1849C10.7374 19.0754 10.6799 18.9298 10.6799 18.7743C10.6799 18.6189 10.7374 18.4733 10.8413 18.3638L11.8957 17.2525C11.9996 17.143 12.1378 17.0824 12.2853 17.0824C12.4322 17.0824 12.571 17.143 12.6749 17.2525C12.8891 17.479 12.8891 17.8473 12.6743 18.0737ZM17.3691 15.2969C17.2652 15.4064 17.127 15.467 16.9795 15.467C16.8326 15.467 16.6939 15.4064 16.59 15.2969L16.3728 15.0681L15.0165 13.6387C14.8777 13.4924 14.6536 13.4924 14.5149 13.6387C14.3761 13.7849 14.3761 14.0211 14.5149 14.1673L14.732 14.3962L15.8712 15.5967C15.9751 15.7063 16.0326 15.8519 16.0326 16.0073C16.0326 16.1628 15.9751 16.3084 15.8712 16.4179C15.7672 16.5274 15.629 16.588 15.4816 16.588C15.3347 16.588 15.1959 16.5274 15.092 16.4179L14.7668 16.0753L13.4105 14.6458C13.2718 14.4996 13.0476 14.4996 12.9089 14.6458C12.7701 14.7921 12.7701 15.0283 12.9089 15.1745L13.234 15.5172L14.2646 16.6033C14.4794 16.8297 14.4794 17.1981 14.2646 17.4245C14.0643 17.6356 13.7461 17.6497 13.5301 17.4667C13.4918 17.195 13.374 16.9331 13.1754 16.7245C12.924 16.4595 12.5925 16.331 12.2627 16.3365C12.2685 15.989 12.146 15.6396 11.8946 15.3746C11.6437 15.1103 11.3122 14.9812 10.9824 14.9867C10.9824 14.9793 10.983 14.9714 10.983 14.964C10.983 14.6091 10.8518 14.2756 10.6137 14.0248C10.3757 13.7739 10.0592 13.6356 9.72249 13.6356C9.71553 13.6356 9.70798 13.6362 9.70101 13.6362C9.70624 13.2887 9.58373 12.9393 9.3329 12.6749C8.84171 12.1572 8.04221 12.1572 7.55043 12.6749L7.54927 12.6761C7.32574 12.3494 7.1022 11.8195 6.90828 11.1501L10.5783 7.28223C10.8709 7.30548 11.2501 7.36483 11.6925 7.49945C11.1601 7.8415 10.6654 8.24903 10.2218 8.71591L9.7132 9.25316C9.22201 9.77083 9.22201 10.6134 9.7132 11.1317C9.95125 11.3826 10.2677 11.5209 10.6044 11.5209C10.9412 11.5209 11.2576 11.3826 11.4957 11.1317L12.1605 10.4311C12.3875 10.5504 12.7492 10.715 13.1673 10.8074C13.443 10.8686 13.7049 10.8906 13.9522 10.8747L16.0134 13.047L16.9801 14.0658L17.3697 14.4764C17.4736 14.5859 17.5311 14.7321 17.5311 14.8869C17.5311 15.0417 17.4731 15.1874 17.3691 15.2969ZM16.5145 12.5177L14.7541 10.6624C15.042 10.518 15.2958 10.3032 15.5106 10.018C15.6325 9.8565 15.607 9.62153 15.4537 9.49303C15.3004 9.36453 15.0775 9.39145 14.9555 9.55299C14.5787 10.0529 14.0318 10.2298 13.3304 10.0792C12.7544 9.95562 12.29 9.65457 12.2859 9.65212C12.146 9.55972 11.9636 9.58175 11.8469 9.70474L10.9946 10.603C10.8907 10.7125 10.7525 10.7731 10.605 10.7731C10.4581 10.7731 10.3194 10.7125 10.2154 10.603C10.1115 10.4935 10.054 10.3479 10.054 10.1924C10.054 10.0376 10.1115 9.89137 10.2154 9.78184L10.7252 9.24459C11.8028 8.10891 13.216 7.35627 14.721 7.11273L18.4665 11.0601C18.1919 11.8703 17.7674 12.6229 17.224 13.2648L16.5145 12.5177ZM20.4626 9.76043L19.4924 10.7829C19.4541 10.8233 19.4036 10.8453 19.3496 10.8453C19.2956 10.8453 19.2445 10.8233 19.2068 10.7829L19.1295 10.7015C19.1284 10.7003 19.1266 10.6985 19.1255 10.6972L14.8917 6.23526C14.8533 6.19488 14.8324 6.14164 14.8324 6.08474C14.8324 6.02783 14.8533 5.97398 14.8917 5.93421L15.8619 4.91172C15.9002 4.87133 15.9507 4.84931 16.0047 4.84931C16.0587 4.84931 16.1098 4.87133 16.1475 4.91172L20.4626 9.45937C20.5416 9.54198 20.5416 9.67721 20.4626 9.76043Z" fill="white"/>
<path d="M19.2408 9.13281C19.0503 9.13281 18.8965 9.29558 18.8965 9.49567C18.8965 9.69637 19.0509 9.85853 19.2408 9.85853C19.4312 9.85853 19.5851 9.69576 19.5851 9.49567C19.5851 9.29558 19.4306 9.13281 19.2408 9.13281Z" fill="white"/>
</g>
<defs>
<clipPath id="clip0_2019_49480">
<rect width="17.2308" height="16" fill="white" transform="translate(4 4.10156)"/>
</clipPath>
</defs>
</svg>
