<svg width="25" height="26" viewBox="0 0 25 26" fill="none" xmlns="http://www.w3.org/2000/svg">
<path d="M5.41311 18.9714C6.74584 18.9714 7.82622 17.9267 7.82622 16.638C7.82622 15.3494 6.74584 14.3047 5.41311 14.3047C4.08039 14.3047 3 15.3494 3 16.638C3 17.9267 4.08039 18.9714 5.41311 18.9714Z" fill="white"/>
<path d="M9.72217 10.304C9.72217 9.30404 10.584 8.4707 11.6182 8.4707C12.6524 8.4707 13.5142 9.30404 13.5142 10.304C13.5142 11.304 12.6524 12.1374 11.6182 12.1374C10.584 12.1374 9.72217 11.304 9.72217 10.304Z" fill="white"/>
<path d="M14.2036 14.9701C14.2036 13.9701 15.0654 13.1367 16.0996 13.1367C17.1338 13.1367 17.9956 13.9701 17.9956 14.9701C17.9956 15.9701 17.1338 16.8034 16.0996 16.8034C15.0654 16.8034 14.2036 15.9701 14.2036 14.9701Z" fill="white"/>
<path d="M19.3745 9.80404C19.3745 8.80404 20.2363 7.9707 21.2705 7.9707C22.3047 7.9707 23.1665 8.80404 23.1665 9.80404C23.1665 10.804 22.3047 11.6374 21.2705 11.6374C20.2363 11.6374 19.3745 10.804 19.3745 9.80404Z" fill="white"/>
<path d="M5.93019 17.1367L4.896 16.1367L11.6182 9.13672L16.0997 13.9701L20.7536 9.30339L21.9601 10.3034L16.0997 15.9701L11.6182 11.3034L5.93019 17.1367Z" fill="white"/>
</svg>
