<svg width="25" height="26" viewBox="0 0 25 26" fill="none" xmlns="http://www.w3.org/2000/svg">
<path fill-rule="evenodd" clip-rule="evenodd" d="M7.74268 20.6975L7.74268 3.81641H8.74268L8.74268 20.6975H7.74268Z" fill="white"/>
<path d="M6.27295 7.50242C6.27295 6.95851 6.71388 6.51758 7.2578 6.51758H9.22749C9.7714 6.51758 10.2123 6.95851 10.2123 7.50242V17.915C10.2123 18.4589 9.7714 18.8998 9.22749 18.8998H7.2578C6.71388 18.8998 6.27295 18.4589 6.27295 17.915V7.50242Z" fill="#02194A"/>
<path fill-rule="evenodd" clip-rule="evenodd" d="M9.22749 7.20697H7.2578C7.09462 7.20697 6.96234 7.33925 6.96234 7.50242V17.915C6.96234 18.0782 7.09462 18.2105 7.2578 18.2105H9.22749C9.39066 18.2105 9.52294 18.0782 9.52294 17.915V7.50242C9.52294 7.33925 9.39066 7.20697 9.22749 7.20697ZM7.2578 6.51758C6.71388 6.51758 6.27295 6.95851 6.27295 7.50242V17.915C6.27295 18.4589 6.71388 18.8998 7.2578 18.8998H9.22749C9.7714 18.8998 10.2123 18.4589 10.2123 17.915V7.50242C10.2123 6.95851 9.7714 6.51758 9.22749 6.51758H7.2578Z" fill="white"/>
<path fill-rule="evenodd" clip-rule="evenodd" d="M17.1797 20.6975V3.81641H18.1797V20.6975H17.1797Z" fill="white"/>
<path d="M15.71 7.50242C15.71 6.95851 16.1509 6.51758 16.6948 6.51758H18.6645C19.2084 6.51758 19.6493 6.95851 19.6493 7.50242V13.5899C19.6493 14.1338 19.2084 14.5748 18.6645 14.5748H16.6948C16.1509 14.5748 15.71 14.1338 15.71 13.5899V7.50242Z" fill="#02194A"/>
<path fill-rule="evenodd" clip-rule="evenodd" d="M18.6645 7.20697H16.6948C16.5316 7.20697 16.3994 7.33925 16.3994 7.50242V13.5899C16.3994 13.7531 16.5316 13.8854 16.6948 13.8854H18.6645C18.8277 13.8854 18.96 13.7531 18.96 13.5899V7.50242C18.96 7.33925 18.8277 7.20697 18.6645 7.20697ZM16.6948 6.51758C16.1509 6.51758 15.71 6.95851 15.71 7.50242V13.5899C15.71 14.1338 16.1509 14.5748 16.6948 14.5748H18.6645C19.2084 14.5748 19.6493 14.1338 19.6493 13.5899V7.50242C19.6493 6.95851 19.2084 6.51758 18.6645 6.51758H16.6948Z" fill="white"/>
<path fill-rule="evenodd" clip-rule="evenodd" d="M13.4614 7.85892L13.4614 17.5605H12.4614L12.4614 7.85892H13.4614Z" fill="white"/>
<path d="M10.9917 10.5513C10.9917 10.0073 11.4326 9.56641 11.9765 9.56641H13.9462C14.4902 9.56641 14.9311 10.0073 14.9311 10.5513V15.5401C14.9311 16.0841 14.4902 16.525 13.9462 16.525H11.9765C11.4326 16.525 10.9917 16.0841 10.9917 15.5401V10.5513Z" fill="#02194A"/>
<path fill-rule="evenodd" clip-rule="evenodd" d="M13.9462 10.2558H11.9765C11.8134 10.2558 11.6811 10.3881 11.6811 10.5513V15.5401C11.6811 15.7033 11.8134 15.8356 11.9765 15.8356H13.9462C14.1094 15.8356 14.2417 15.7033 14.2417 15.5401V10.5513C14.2417 10.3881 14.1094 10.2558 13.9462 10.2558ZM11.9765 9.56641C11.4326 9.56641 10.9917 10.0073 10.9917 10.5513V15.5401C10.9917 16.0841 11.4326 16.525 11.9765 16.525H13.9462C14.4902 16.525 14.9311 16.0841 14.9311 15.5401V10.5513C14.9311 10.0073 14.4902 9.56641 13.9462 9.56641H11.9765Z" fill="white"/>
</svg>
