<svg width="25" height="25" viewBox="0 0 25 25" fill="none" xmlns="http://www.w3.org/2000/svg">
<path d="M16.595 8.23694C16.4787 8.23694 16.3845 8.3312 16.3845 8.44746V8.86846C16.3845 8.98473 16.4787 9.07899 16.595 9.07899C16.7112 9.07899 16.8055 8.98473 16.8055 8.86846V8.44746C16.8055 8.3312 16.7112 8.23694 16.595 8.23694Z" fill="white"/>
<path d="M18.7002 9.92105C18.7002 9.23492 18.2745 8.61437 17.6476 8.35976V6.13158C17.6476 5.78334 17.3643 5.5 17.016 5.5H16.5964C16.5963 5.5 16.5962 5.5 16.5961 5.5H16.595C16.5932 5.5 16.5916 5.50021 16.5899 5.50026C16.5848 5.50039 16.5797 5.50055 16.5746 5.50103C16.5719 5.50129 16.5693 5.50176 16.5666 5.50213C16.5625 5.50268 16.5583 5.50321 16.5541 5.50403C16.5511 5.50463 16.5481 5.50545 16.5451 5.50618C16.5415 5.50708 16.5378 5.50792 16.5342 5.509C16.531 5.50995 16.5279 5.51113 16.5248 5.51224C16.5215 5.51342 16.5181 5.51455 16.5148 5.51592C16.5115 5.51726 16.5084 5.51879 16.5053 5.52029C16.5022 5.52174 16.4992 5.52308 16.4962 5.52468C16.4927 5.52653 16.4894 5.52861 16.4861 5.53063C16.4835 5.53218 16.481 5.53361 16.4785 5.53524C16.4745 5.53792 16.4706 5.54084 16.4668 5.54379C16.4653 5.54497 16.4636 5.546 16.4621 5.54726C15.2121 6.56495 13.5501 7.60526 10.7002 7.60526H6.70025C5.88767 7.60526 5.22656 8.26634 5.22656 9.07895V10.7632C5.22656 11.5758 5.88767 12.2368 6.70025 12.2368H7.56612L8.10869 16.7582C8.1594 17.1811 8.51885 17.5 8.94477 17.5H9.77783C10.0185 17.5 10.2481 17.3968 10.4078 17.2167C10.5675 17.0367 10.6426 16.7965 10.6139 16.5576L10.0954 12.2368H10.7002C13.5501 12.2368 15.2121 13.2772 16.4621 14.2948C16.467 14.2988 16.472 14.3026 16.4771 14.306C16.4779 14.3066 16.4788 14.3071 16.4796 14.3076C16.4843 14.3106 16.4889 14.3135 16.4937 14.3161C16.4956 14.3172 16.4975 14.318 16.4994 14.319C16.5033 14.321 16.5072 14.3229 16.5112 14.3247C16.5134 14.3256 16.5157 14.3264 16.5179 14.3273C16.5217 14.3288 16.5255 14.3303 16.5293 14.3315C16.5317 14.3323 16.5342 14.333 16.5367 14.3337C16.5406 14.3348 16.5445 14.3359 16.5484 14.3367C16.5508 14.3373 16.5532 14.3378 16.5557 14.3383C16.5601 14.3391 16.5644 14.3397 16.5688 14.3403C16.5709 14.3406 16.573 14.3409 16.5751 14.3411C16.5817 14.3417 16.5882 14.3421 16.5948 14.3421C16.5949 14.3421 16.5949 14.3421 16.5949 14.3421C16.5949 14.3421 16.5949 14.3421 16.595 14.3421H17.016C17.3643 14.3421 17.6476 14.0587 17.6476 13.7105V11.4823C18.2745 11.2277 18.7002 10.6071 18.7002 9.92105ZM10.1959 16.6077C10.2104 16.7289 10.1738 16.846 10.0928 16.9373C10.0118 17.0287 9.8999 17.0789 9.77783 17.0789H8.94477C8.73183 17.0789 8.55212 16.9195 8.52672 16.7081L8.52069 16.6579H9.43709C9.55335 16.6579 9.64762 16.5636 9.64762 16.4474C9.64762 16.3311 9.55335 16.2368 9.43709 16.2368H8.47017L7.99017 12.2368H9.67135L10.1959 16.6077ZM17.016 13.9211H16.8055V9.71058C16.8055 9.59432 16.7112 9.50005 16.595 9.50005C16.4787 9.50005 16.3845 9.59432 16.3845 9.71058V13.697C15.2518 12.8307 13.7853 12.0119 11.5424 11.8463V9.07895C11.5424 8.96268 11.4481 8.86842 11.3318 8.86842C11.2156 8.86842 11.1213 8.96268 11.1213 9.07895V11.8232C10.9837 11.8183 10.8435 11.8158 10.7002 11.8158H6.70025C6.11983 11.8158 5.64762 11.3436 5.64762 10.7632V9.07895C5.64762 8.49853 6.11983 8.02632 6.70025 8.02632H10.7002C10.8435 8.02632 10.9837 8.02376 11.1213 8.01887V8.23684C11.1213 8.35311 11.2156 8.44737 11.3318 8.44737C11.4481 8.44737 11.5424 8.35311 11.5424 8.23684V7.99582C13.7853 7.83018 15.2518 7.01134 16.3845 6.14513V7.60529C16.3845 7.72155 16.4787 7.81582 16.595 7.81582C16.7112 7.81582 16.8055 7.72155 16.8055 7.60529V5.92105H17.016C17.1321 5.92105 17.2266 6.0155 17.2266 6.13158V8.50516C17.2265 8.50832 17.2265 8.51145 17.2266 8.51458V13.7105C17.2266 13.8266 17.1321 13.9211 17.016 13.9211ZM17.6476 11.0147V8.82745C18.0299 9.04997 18.2792 9.46629 18.2792 9.92105C18.2792 10.3758 18.0299 10.7921 17.6476 11.0147Z" fill="white"/>
</svg>
