<svg width="25" height="25" viewBox="0 0 25 25" fill="none" xmlns="http://www.w3.org/2000/svg">
<path d="M11.2921 13.104C11.5514 13.4508 11.8824 13.7377 12.2624 13.9454C12.6425 14.153 13.0627 14.2765 13.4947 14.3074C13.9266 14.3384 14.3602 14.276 14.7659 14.1247C15.1717 13.9733 15.5402 13.7365 15.8463 13.4302L17.6584 11.6181C18.2085 11.0486 18.5129 10.2857 18.506 9.49383C18.4991 8.70198 18.1815 7.9445 17.6216 7.38456C17.0616 6.82461 16.3042 6.507 15.5123 6.50011C14.7205 6.49323 13.9576 6.79764 13.388 7.34777L12.3491 8.38063" stroke="#E7F2FC" stroke-linecap="round" stroke-linejoin="round"/>
<path d="M13.7081 11.8959C13.4487 11.5491 13.1178 11.2622 12.7377 11.0546C12.3577 10.8469 11.9374 10.7235 11.5055 10.6925C11.0735 10.6616 10.64 10.7239 10.2342 10.8753C9.82845 11.0266 9.46 11.2635 9.15383 11.5698L7.34179 13.3818C6.79166 13.9514 6.48725 14.7143 6.49413 15.5061C6.50101 16.298 6.81863 17.0554 7.37858 17.6154C7.93852 18.1753 8.69599 18.493 9.48785 18.4998C10.2797 18.5067 11.0426 18.2023 11.6122 17.6522L12.645 16.6193" stroke="#E7F2FC" stroke-linecap="round" stroke-linejoin="round"/>
</svg>
