<svg width="25" height="26" viewBox="0 0 25 26" fill="none" xmlns="http://www.w3.org/2000/svg">
<path fill-rule="evenodd" clip-rule="evenodd" d="M12.6948 8.28711C12.8984 8.28685 13.0886 8.38851 13.2016 8.558L14.6125 10.6731L17.0558 11.3597C17.2515 11.4147 17.4068 11.5639 17.4699 11.7574C17.5329 11.9509 17.4953 12.1631 17.3697 12.323L15.8003 14.3208L15.895 16.855C15.9025 17.0581 15.8086 17.2515 15.6444 17.3709C15.4802 17.4902 15.2674 17.5198 15.0769 17.4497L12.696 16.5734L10.3235 17.4495C10.133 17.5198 9.92005 17.4904 9.7557 17.3711C9.59135 17.2517 9.49726 17.0582 9.50485 16.855L9.59946 14.3208L8.03014 12.323C7.90448 12.1631 7.86688 11.9509 7.92992 11.7574C7.99296 11.5639 8.14831 11.4147 8.34401 11.3597L10.7864 10.6734L12.1887 8.55931C12.3013 8.38953 12.4913 8.28737 12.6948 8.28711ZM12.697 9.99557L11.6752 11.536C11.5946 11.6576 11.4731 11.7461 11.3327 11.7855L9.54988 12.2865L10.6942 13.7433C10.7834 13.8568 10.8294 13.9984 10.824 14.1427L10.755 15.9913L12.4851 15.3525C12.6207 15.3024 12.7698 15.3023 12.9055 15.3523L14.6449 15.9924L14.5758 14.1427C14.5704 13.9984 14.6164 13.8568 14.7056 13.7433L15.8499 12.2865L14.0671 11.7855C13.9273 11.7463 13.8061 11.6582 13.7255 11.5373L12.697 9.99557Z" fill="white"/>
<path fill-rule="evenodd" clip-rule="evenodd" d="M7.74351 8.13023C5.11657 10.7572 5.11657 15.0163 7.74351 17.6432C10.3704 20.2701 14.6296 20.2701 17.2565 17.6432C19.8834 15.0163 19.8834 10.7572 17.2565 8.13023C14.6296 5.50329 10.3704 5.50329 7.74351 8.13023ZM6.75 18.6367C3.57436 15.4611 3.57436 10.3124 6.75 7.13672C9.92564 3.96108 15.0744 3.96108 18.25 7.13672C21.4256 10.3124 21.4256 15.4611 18.25 18.6367C15.0744 21.8124 9.92564 21.8124 6.75 18.6367Z" fill="white"/>
</svg>
