<svg width="25" height="26" viewBox="0 0 25 26" fill="none" xmlns="http://www.w3.org/2000/svg">
<path d="M22.4163 5.18359C21.9554 5.98418 21.4944 6.78478 20.9971 7.64602C20.8515 7.40341 20.7302 7.22146 20.6392 7.03344C20.524 6.80297 20.3845 6.78478 20.1783 6.90608C19.3959 7.36702 18.6135 7.81584 17.8311 8.27072C17.1094 8.68921 16.3876 9.11377 15.6598 9.52013C15.4718 9.62323 15.3929 9.74453 15.3929 9.96894C15.4051 12.0614 15.3929 14.1538 15.4051 16.2402C15.4051 16.5192 15.3202 16.6891 15.0776 16.8225C13.1913 17.9021 11.3051 18.9938 9.43097 20.0855C9.13378 20.2553 8.90938 20.2796 8.58186 20.0916C6.71382 18.9938 4.82758 17.9263 2.95347 16.8407C2.82003 16.7679 2.7048 16.6709 2.5835 16.5859C2.5835 14.1599 2.5835 11.7339 2.5835 9.30785C2.69873 9.229 2.80184 9.13196 2.92314 9.06525C4.81545 7.96747 6.71382 6.87575 8.60006 5.76584C8.88511 5.60208 9.10346 5.60208 9.37639 5.75978C11.1838 6.80904 12.9972 7.8401 14.7986 8.88936C15.023 9.02279 15.1746 8.9864 15.3748 8.87116C16.4725 8.23433 17.5703 7.60356 18.6742 6.96673C19.1412 6.6938 19.6082 6.42087 20.0873 6.14188C19.8993 5.79617 19.7355 5.48685 19.5657 5.18359C20.5179 5.18359 21.4641 5.18359 22.4163 5.18359ZM14.6712 10.1266C14.4953 10.2176 14.3679 10.2722 14.2527 10.345C12.5909 11.3033 10.929 12.2555 9.27328 13.2198C9.061 13.3411 8.86692 13.3533 8.64858 13.2198C8.16944 12.9226 7.6721 12.6558 7.19296 12.3586C7.02314 12.2555 6.89577 12.2555 6.72595 12.3525C5.64636 12.959 4.55465 13.5534 3.47506 14.1599C3.40228 14.2024 3.32344 14.3237 3.32344 14.4086C3.31131 14.9423 3.30524 15.4821 3.32344 16.0158C3.3295 16.1311 3.42048 16.2827 3.51752 16.3373C5.27639 17.3623 7.0474 18.3812 8.8184 19.388C8.90938 19.4426 9.0792 19.4608 9.16411 19.4062C10.9412 18.3933 12.7122 17.3683 14.4892 16.3494C14.6469 16.2584 14.7015 16.1493 14.7015 15.9612C14.6955 14.1296 14.6955 12.304 14.6955 10.4723C14.6955 10.3753 14.6833 10.2783 14.6712 10.1266ZM14.3073 9.47767C14.2345 9.41702 14.1981 9.38063 14.1557 9.35637C12.4878 8.39202 10.8259 7.42767 9.15198 6.47546C9.06707 6.42694 8.89724 6.44513 8.80627 6.49972C7.03526 7.50652 5.27639 8.53152 3.51145 9.54439C3.35983 9.63536 3.30524 9.7324 3.30524 9.90223C3.31131 10.9636 3.31131 12.025 3.31131 13.0803C3.31131 13.1652 3.32344 13.2562 3.3295 13.3775C3.43867 13.329 3.51752 13.2926 3.59636 13.2502C4.6153 12.6922 5.62817 12.1402 6.64104 11.5701C6.87151 11.4428 7.05953 11.4367 7.29 11.5762C7.72062 11.8431 8.1755 12.0614 8.59399 12.3465C8.86692 12.5284 9.06707 12.5041 9.33393 12.3465C10.3468 11.746 11.3718 11.1698 12.3907 10.5815C13.0154 10.2237 13.6462 9.85977 14.3073 9.47767Z" fill="white"/>
</svg>
