<svg width="26" height="26" viewBox="0 0 26 26" fill="none" xmlns="http://www.w3.org/2000/svg">
<g clip-path="url(#clip0_2262_100362)">
<path fill-rule="evenodd" clip-rule="evenodd" d="M12.6226 10.9723C11.5189 10.9723 10.5528 12.01 10.5528 13.3841C10.5528 14.7583 11.5189 15.796 12.6226 15.796C13.7262 15.796 14.6923 14.7583 14.6923 13.3841C14.6923 12.01 13.7262 10.9723 12.6226 10.9723ZM9.90283 13.3841C9.90283 11.7352 11.0811 10.3223 12.6226 10.3223C14.164 10.3223 15.3423 11.7352 15.3423 13.3841C15.3423 15.033 14.164 16.446 12.6226 16.446C11.0811 16.446 9.90283 15.033 9.90283 13.3841Z" fill="white"/>
<path fill-rule="evenodd" clip-rule="evenodd" d="M11.4466 12.8547C11.3429 12.2329 11.8536 11.6895 12.4513 11.6895H12.7934C13.3493 11.6895 13.8027 12.1429 13.8027 12.6987H13.1527C13.1527 12.5018 12.9903 12.3395 12.7934 12.3395H12.4513C12.2299 12.3395 12.0574 12.5451 12.0869 12.7428C12.1258 12.9238 12.2935 13.0579 12.4856 13.0579H12.7592C13.2495 13.0579 13.6962 13.4002 13.7963 13.9007L13.7978 13.9078L13.7989 13.915C13.9005 14.5753 13.3838 15.0763 12.7934 15.0763H12.4513C11.8955 15.0763 11.4421 14.6229 11.4421 14.0671H12.0921C12.0921 14.2639 12.2545 14.4263 12.4513 14.4263H12.7934C13.0217 14.4263 13.1881 14.2469 13.1575 14.0211C13.1179 13.841 12.9507 13.7079 12.7592 13.7079H12.4856C11.9953 13.7079 11.5486 13.3656 11.4484 12.865L11.4474 12.8599L11.4466 12.8547Z" fill="white"/>
<path fill-rule="evenodd" clip-rule="evenodd" d="M12.9474 11.3301V12.0143H12.2974V11.3301H12.9474Z" fill="white"/>
<path fill-rule="evenodd" clip-rule="evenodd" d="M12.9474 14.752V15.4362H12.2974V14.752H12.9474Z" fill="white"/>
<path fill-rule="evenodd" clip-rule="evenodd" d="M4.4292 8.95312H16.7279V9.60312H5.0792V17.1637H7.49104V17.8137H4.4292V8.95312Z" fill="white"/>
<path fill-rule="evenodd" clip-rule="evenodd" d="M20.1663 9.60313H17.4123V8.95312H20.8163V17.8137H8.51758V17.1637H20.1663V9.60313Z" fill="white"/>
<path fill-rule="evenodd" clip-rule="evenodd" d="M16.4638 12.7768C16.5908 12.6499 16.7965 12.6499 16.9235 12.7768L17.7542 13.6075L18.5849 12.7768C18.7118 12.6499 18.9176 12.6499 19.0445 12.7768C19.1714 12.9038 19.1714 13.1095 19.0445 13.2365L17.7542 14.5268L16.4638 13.2365C16.3369 13.1095 16.3369 12.9038 16.4638 12.7768Z" fill="white"/>
<path fill-rule="evenodd" clip-rule="evenodd" d="M16.0438 7.55039C15.2654 7.55039 14.6583 8.15751 14.6583 8.93592V9.27802H14.0083V8.93592C14.0083 7.79853 14.9064 6.90039 16.0438 6.90039C17.1812 6.90039 18.0794 7.79853 18.0794 8.93592V14.0675H17.4294V8.93592C17.4294 8.15751 16.8222 7.55039 16.0438 7.55039Z" fill="white"/>
<path fill-rule="evenodd" clip-rule="evenodd" d="M7.49099 12.2402L8.78133 13.5306C8.90825 13.6575 8.90825 13.8633 8.78133 13.9902C8.65441 14.1171 8.44863 14.1171 8.32171 13.9902L7.49099 13.1595L6.66028 13.9902C6.53336 14.1171 6.32758 14.1171 6.20066 13.9902C6.07374 13.8633 6.07374 13.6575 6.20066 13.5306L7.49099 12.2402Z" fill="white"/>
<path fill-rule="evenodd" clip-rule="evenodd" d="M7.81602 12.6992V17.8308C7.81602 18.6092 8.42314 19.2163 9.20154 19.2163C9.97994 19.2163 10.5871 18.6092 10.5871 17.8308V17.4887H11.2371V17.8308C11.2371 18.9682 10.3389 19.8663 9.20154 19.8663C8.06415 19.8663 7.16602 18.9682 7.16602 17.8308V12.6992H7.81602Z" fill="white"/>
</g>
<defs>
<clipPath id="clip0_2262_100362">
<rect width="16.4211" height="13" fill="white" transform="translate(4.41211 6.88281)"/>
</clipPath>
</defs>
</svg>
