<svg width="25" height="26" viewBox="0 0 25 26" fill="none" xmlns="http://www.w3.org/2000/svg">
<path d="M20.122 12.8172C20.122 12.7785 20.125 12.7427 20.125 12.707C20.125 10.8916 18.6845 9.40644 16.8839 9.33501C16.2411 7.33203 14.375 5.95703 12.25 5.95703C9.68155 5.95703 7.57143 7.95108 7.38691 10.4749C5.4881 10.6564 4 12.2606 4 14.207C4 16.2755 5.68155 17.957 7.75 17.957H8.125V17.207H7.75C6.09524 17.207 4.75 15.8618 4.75 14.207C4.75 12.6743 5.90476 11.4064 7.38988 11.2279C7.42262 11.6326 7.50298 12.0255 7.63393 12.4094L8.34226 12.1683C8.19643 11.7398 8.12202 11.2904 8.12202 10.832C8.12202 8.55822 9.97321 6.70703 12.247 6.70703C13.9821 6.70703 15.5149 7.79036 16.1071 9.39155C15.4821 9.5106 14.9048 9.80525 14.4315 10.2487L14.9464 10.7963C15.375 10.3945 15.9167 10.1505 16.494 10.0939L16.6786 10.085C16.7024 10.085 16.7232 10.082 16.747 10.082C18.1935 10.082 19.372 11.2606 19.372 12.707C19.372 12.8112 19.3631 12.9243 19.3452 13.0612L19.2976 13.4273L19.6607 13.4838C20.5655 13.6237 21.247 14.4183 21.247 15.335C21.247 16.3677 20.4048 17.21 19.372 17.21H17.872V17.96H19.372C20.8185 17.96 21.997 16.7814 21.997 15.335C22 14.1475 21.2292 13.1416 20.122 12.8172Z" fill="#E7F2FC" stroke="#E7F2FC" stroke-width="0.1"/>
<path d="M10.7502 17.9717V16.683L11.2919 17.3943L11.8871 16.939L10.899 15.6473C10.6371 15.3051 10.1104 15.3051 9.84845 15.6473L8.86035 16.939L9.45559 17.3943L9.99726 16.683V17.9717C9.99726 19.6176 11.3365 20.9568 12.9824 20.9568H14.4973V20.2068H12.9824C11.7532 20.2068 10.7502 19.2039 10.7502 17.9717Z" fill="#E7F2FC" stroke="#E7F2FC" stroke-width="0.1"/>
<path d="M16 18.4808V17.1922C16 15.5463 14.6607 14.207 13.0149 14.207H11.5V14.957H13.0149C14.247 14.957 15.25 15.96 15.25 17.1922V18.4808L14.7083 17.7725L14.1131 18.2279L15.1012 19.5195C15.2321 19.6922 15.4226 19.7904 15.628 19.7904C15.8304 19.7904 16.0238 19.6922 16.1548 19.5195L17.1429 18.2279L16.5476 17.7725L16 18.4808Z" fill="#E7F2FC" stroke="#E7F2FC" stroke-width="0.1"/>
</svg>
