<svg width="26" height="26" viewBox="0 0 26 26" fill="none" xmlns="http://www.w3.org/2000/svg">
<path d="M20.9871 6.21484H4.2597C3.85355 6.21484 3.52246 6.55565 3.52246 6.97372V11.4636C3.52246 11.8817 3.85355 12.2225 4.2597 12.2225H6.70048V11.4775H4.2597C4.252 11.4775 4.24623 11.4715 4.24623 11.4636V6.97372C4.24623 6.9658 4.252 6.95985 4.2597 6.95985H20.9871C20.9948 6.95985 21.0006 6.9658 21.0006 6.97372V11.4636C21.0006 11.4715 20.9948 11.4775 20.9871 11.4775H18.9467V12.2225H20.9871C21.3933 12.2225 21.7244 11.8817 21.7244 11.4636V6.97372C21.7225 6.55565 21.3933 6.21484 20.9871 6.21484Z" fill="white"/>
<path d="M7.42285 14.3359V15.5604H8.38145V15.5446C8.38338 14.9482 7.97145 14.4489 7.42285 14.3359Z" fill="#02194A"/>
<path d="M17.2651 15.5426V15.5585H18.2237V14.334C17.6771 14.4489 17.2651 14.9482 17.2651 15.5426Z" fill="#02194A"/>
<path d="M20.987 6.96094H4.25957C4.25187 6.96094 4.24609 6.96688 4.24609 6.97481V11.4647C4.24609 11.4726 4.25187 11.4785 4.25957 11.4785H6.70035V10.9475C6.70035 10.5473 7.01604 10.2203 7.40679 10.2203H13.8591C14.0458 10.2203 14.1998 10.369 14.2152 10.5592C14.2152 10.5631 14.0689 10.9634 13.861 10.9634H10.6618C10.7388 12.1205 11.6782 13.0379 12.8216 13.0379C13.965 13.0379 14.9043 12.1205 14.9813 10.9634C14.9852 10.9119 14.9871 10.8603 14.9871 10.8088C14.9871 10.7831 14.9813 10.7157 14.9717 10.6345C14.9486 10.4125 15.1161 10.2203 15.3316 10.2203C15.5184 10.2203 15.6762 10.367 15.6916 10.5592C15.7012 10.6721 15.7089 10.7751 15.7089 10.8088C15.7089 10.8603 15.707 10.9119 15.7051 10.9634C15.6262 12.5307 14.3634 13.7809 12.8196 13.7809C11.2778 13.7809 10.0131 12.5307 9.9342 10.9634H7.42219V13.5808C8.36925 13.7017 9.10456 14.5359 9.10456 15.5424C9.10456 15.5483 9.10456 15.5523 9.10456 15.5583H16.5424C16.5424 15.5523 16.5424 15.5483 16.5424 15.5424C16.5424 14.5359 17.2777 13.7017 18.2248 13.5808V10.9654H16.706C16.5193 10.9654 16.3634 10.8148 16.3499 10.6226V10.6107C16.3364 10.3987 16.5001 10.2203 16.706 10.2203H18.2421C18.6309 10.2203 18.9485 10.5453 18.9485 10.9475V11.4785H20.9889C20.9966 11.4785 21.0024 11.4726 21.0024 11.4647V6.97481C21.0005 6.96688 20.9947 6.96094 20.987 6.96094ZM18.5828 9.34061H7.06223C6.86204 9.34061 6.70035 9.17417 6.70035 8.9681C6.70035 8.76204 6.86204 8.5956 7.06223 8.5956H18.5847C18.7849 8.5956 18.9466 8.76204 18.9466 8.9681C18.9447 9.17417 18.783 9.34061 18.5828 9.34061Z" fill="#02194A"/>
<path d="M18.2371 10.2227H7.40566C7.01683 10.2227 6.69922 10.5476 6.69922 10.9498V11.4808V12.2259V13.6327V14.4193V15.5804C6.69922 15.9806 7.0149 16.3056 7.40374 16.3056H8.12365H8.95329H16.6876H17.5172H18.2371C18.626 16.3056 18.9436 15.9806 18.9436 15.5784V14.4173V13.6307V12.2239V11.4789V10.9479C18.9436 10.5476 18.6279 10.2227 18.2371 10.2227ZM14.9821 10.9657C14.9051 12.1228 13.9657 13.0402 12.8224 13.0402C11.679 13.0402 10.7396 12.1228 10.6626 10.9657H14.9821ZM8.38159 15.5586H7.42298V14.3341C7.96966 14.449 8.38159 14.9463 8.38159 15.5427V15.5586ZM18.2217 15.5586H17.2631V15.5427C17.2631 14.9483 17.675 14.449 18.2217 14.3341V15.5586ZM18.2217 13.5831C17.2747 13.704 16.5393 14.5382 16.5393 15.5447C16.5393 15.5507 16.5393 15.5546 16.5393 15.5606H9.10343C9.10343 15.5546 9.10343 15.5507 9.10343 15.5447C9.10343 14.5382 8.36811 13.704 7.42106 13.5831V10.9657H9.93499C10.0139 12.533 11.2767 13.7832 12.8204 13.7832C14.3623 13.7832 15.6269 12.533 15.7059 10.9657H18.2198V13.5831H18.2217Z" fill="white"/>
<path d="M18.5817 17.0527H7.0611C6.86091 17.0527 6.69922 17.2192 6.69922 17.4252C6.69922 17.6313 6.86091 17.7977 7.0611 17.7977H18.5836C18.7838 17.7977 18.9455 17.6313 18.9455 17.4252C18.9436 17.2192 18.7819 17.0527 18.5817 17.0527Z" fill="white"/>
<path d="M18.5817 18.4688H7.0611C6.86091 18.4688 6.69922 18.6352 6.69922 18.8413C6.69922 19.0473 6.86091 19.2138 7.0611 19.2138H18.5836C18.7838 19.2138 18.9455 19.0473 18.9455 18.8413C18.9455 18.6352 18.7819 18.4688 18.5817 18.4688Z" fill="white"/>
<path d="M7.0611 9.34071H18.5836C18.7838 9.34071 18.9455 9.17427 18.9455 8.96821C18.9455 8.76214 18.7838 8.5957 18.5836 8.5957H7.0611C6.86091 8.5957 6.69922 8.76214 6.69922 8.96821C6.69922 9.17427 6.86091 9.34071 7.0611 9.34071Z" fill="white"/>
</svg>
