<svg width="16" height="16" viewBox="0 0 16 16" fill="none" xmlns="http://www.w3.org/2000/svg">
<path d="M11.0242 3.07648C11.3112 3.07648 11.5476 2.83314 11.5476 2.53766V0.538818C11.5476 0.243337 11.3112 0 11.0242 0C10.7372 0 10.5009 0.243337 10.5009 0.538818V2.53766C10.5009 2.83314 10.7372 3.07648 11.0242 3.07648Z" fill="white"/>
<path d="M13.0163 1.0168H11.9696V2.09444H13.0163C13.5397 2.09444 13.9617 2.58111 13.9617 3.18945V4.31054H1.04671V3.18945C1.04671 2.5898 1.46877 2.09444 1.99212 2.09444H3.03883V1.0168H1.99212C0.894767 1.0168 0 1.99015 0 3.18945V12.836C0 14.0353 0.894767 15.0087 1.99212 15.0087H13.0163C14.1137 15.0087 15.0084 14.0353 15.0084 12.836V3.18945C15 1.99015 14.1137 1.0168 13.0163 1.0168ZM13.0163 13.9224H1.99212C1.46877 13.9224 1.04671 13.4357 1.04671 12.8273V5.38818H13.9533V12.8273C13.9533 13.427 13.5312 13.9224 13.0163 13.9224Z" fill="white"/>
<path d="M10.0872 1.0168H4.9212V2.09444H10.0872V1.0168Z" fill="white"/>
<path d="M3.97581 3.07648C4.26281 3.07648 4.49916 2.83314 4.49916 2.53766V0.538818C4.49916 0.243337 4.26281 0 3.97581 0C3.68881 0 3.45245 0.243337 3.45245 0.538818V2.53766C3.45245 2.83314 3.68881 3.07648 3.97581 3.07648Z" fill="white"/>
<path d="M8.43276 6.50058H6.56726C6.32246 6.50058 6.11987 6.70915 6.11987 6.96118V8.87312C6.11987 9.12515 6.32246 9.33373 6.56726 9.33373H8.43276C8.67756 9.33373 8.88014 9.12515 8.88014 8.87312V6.96118C8.88014 6.70915 8.67756 6.50058 8.43276 6.50058ZM7.99382 8.41252H7.01464V7.4131H7.99382V8.41252Z" fill="white"/>
<path d="M12.1216 6.50058H10.2561C10.0113 6.50058 9.80872 6.70915 9.80872 6.96118V8.87312C9.80872 9.12515 10.0113 9.33373 10.2561 9.33373H12.1216C12.3664 9.33373 12.569 9.12515 12.569 8.87312V6.96118C12.569 6.70915 12.3664 6.50058 12.1216 6.50058ZM11.6742 8.41252H10.695V7.4131H11.6742V8.41252Z" fill="white"/>
<path d="M4.75242 6.50058H2.87847C2.63368 6.50058 2.43109 6.70915 2.43109 6.96118V8.87312C2.43109 9.12515 2.63368 9.33373 2.87847 9.33373H4.74398C4.98877 9.33373 5.19136 9.12515 5.19136 8.87312V6.96118C5.19136 6.70915 4.99721 6.50058 4.75242 6.50058ZM4.30504 8.41252H3.32586V7.4131H4.30504V8.41252Z" fill="white"/>
<path d="M8.43276 10.055H6.56726C6.32246 10.055 6.11987 10.2636 6.11987 10.5156V12.4276C6.11987 12.6796 6.32246 12.8882 6.56726 12.8882H8.43276C8.67756 12.8882 8.88014 12.6796 8.88014 12.4276V10.5156C8.88014 10.2636 8.67756 10.055 8.43276 10.055ZM7.99382 11.9757H7.01464V10.9762H7.99382V11.9757Z" fill="white"/>
<path d="M4.75242 10.055H2.87847C2.63368 10.055 2.43109 10.2636 2.43109 10.5156V12.4276C2.43109 12.6796 2.63368 12.8882 2.87847 12.8882H4.74398C4.98877 12.8882 5.19136 12.6796 5.19136 12.4276V10.5156C5.19136 10.2636 4.99721 10.055 4.75242 10.055ZM4.30504 11.9757H3.32586V10.9762H4.30504V11.9757Z" fill="white"/>
</svg>
