<svg width="16" height="16" viewBox="0 0 16 16" fill="none" xmlns="http://www.w3.org/2000/svg">
<path d="M11.0242 3.07648C11.3112 3.07648 11.5476 2.83314 11.5476 2.53766V0.538818C11.5476 0.243337 11.3112 0 11.0242 0C10.7372 0 10.5009 0.243337 10.5009 0.538818V2.53766C10.5009 2.83314 10.7372 3.07648 11.0242 3.07648Z" fill="#02194A" fill-opacity="0.8"/>
<path d="M13.0163 1.01685H11.9696V2.09448H13.0163C13.5397 2.09448 13.9617 2.58116 13.9617 3.1895V4.31059H1.04671V3.1895C1.04671 2.58985 1.46877 2.09448 1.99212 2.09448H3.03883V1.01685H1.99212C0.894767 1.01685 0 1.99019 0 3.1895V12.8361C0 14.0354 0.894767 15.0087 1.99212 15.0087H13.0163C14.1137 15.0087 15.0084 14.0354 15.0084 12.8361V3.1895C15 1.99019 14.1137 1.01685 13.0163 1.01685ZM13.0163 13.9224H1.99212C1.46877 13.9224 1.04671 13.4357 1.04671 12.8274V5.38823H13.9533V12.8274C13.9533 13.427 13.5312 13.9224 13.0163 13.9224Z" fill="#02194A" fill-opacity="0.8"/>
<path d="M10.0873 1.01685H4.92126V2.09448H10.0873V1.01685Z" fill="#02194A" fill-opacity="0.8"/>
<path d="M3.97575 3.07648C4.26275 3.07648 4.4991 2.83314 4.4991 2.53766V0.538818C4.4991 0.243337 4.26275 0 3.97575 0C3.68875 0 3.45239 0.243337 3.45239 0.538818V2.53766C3.45239 2.83314 3.68875 3.07648 3.97575 3.07648Z" fill="#02194A" fill-opacity="0.8"/>
<path d="M8.43276 6.50049H6.56726C6.32246 6.50049 6.11987 6.70906 6.11987 6.96109V8.87303C6.11987 9.12506 6.32246 9.33364 6.56726 9.33364H8.43276C8.67756 9.33364 8.88014 9.12506 8.88014 8.87303V6.96109C8.88014 6.70906 8.67756 6.50049 8.43276 6.50049ZM7.99382 8.41243H7.01464V7.41301H7.99382V8.41243Z" fill="#02194A" fill-opacity="0.8"/>
<path d="M12.1215 6.50049H10.256C10.0112 6.50049 9.80859 6.70906 9.80859 6.96109V8.87303C9.80859 9.12506 10.0112 9.33364 10.256 9.33364H12.1215C12.3663 9.33364 12.5689 9.12506 12.5689 8.87303V6.96109C12.5689 6.70906 12.3663 6.50049 12.1215 6.50049ZM11.6741 8.41243H10.6949V7.41301H11.6741V8.41243Z" fill="#02194A" fill-opacity="0.8"/>
<path d="M4.75236 6.50049H2.87841C2.63362 6.50049 2.43103 6.70906 2.43103 6.96109V8.87303C2.43103 9.12506 2.63362 9.33364 2.87841 9.33364H4.74392C4.98871 9.33364 5.1913 9.12506 5.1913 8.87303V6.96109C5.1913 6.70906 4.99715 6.50049 4.75236 6.50049ZM4.30498 8.41243H3.3258V7.41301H4.30498V8.41243Z" fill="#02194A" fill-opacity="0.8"/>
<path d="M8.43276 10.0549H6.56726C6.32246 10.0549 6.11987 10.2635 6.11987 10.5155V12.4275C6.11987 12.6795 6.32246 12.8881 6.56726 12.8881H8.43276C8.67756 12.8881 8.88014 12.6795 8.88014 12.4275V10.5155C8.88014 10.2635 8.67756 10.0549 8.43276 10.0549ZM7.99382 11.9756H7.01464V10.9761H7.99382V11.9756Z" fill="#02194A" fill-opacity="0.8"/>
<path d="M4.75236 10.0549H2.87841C2.63362 10.0549 2.43103 10.2635 2.43103 10.5155V12.4275C2.43103 12.6795 2.63362 12.8881 2.87841 12.8881H4.74392C4.98871 12.8881 5.1913 12.6795 5.1913 12.4275V10.5155C5.1913 10.2635 4.99715 10.0549 4.75236 10.0549ZM4.30498 11.9756H3.3258V10.9761H4.30498V11.9756Z" fill="#02194A" fill-opacity="0.8"/>
</svg>
