<svg width="9" height="9" viewBox="0 0 9 9" fill="none" xmlns="http://www.w3.org/2000/svg">
<circle cx="4.83789" cy="4.71533" r="3.65" stroke="white" stroke-width="0.7"/>
<path fill-rule="evenodd" clip-rule="evenodd" d="M4.6589 4.77554C4.78499 4.62903 5.00598 4.61247 5.15249 4.73856L6.62824 6.00856C6.77475 6.13465 6.79131 6.35564 6.66523 6.50215C6.53914 6.64867 6.31815 6.66523 6.17163 6.53914L4.69589 5.26913C4.54937 5.14304 4.53282 4.92206 4.6589 4.77554Z" fill="white"/>
<path fill-rule="evenodd" clip-rule="evenodd" d="M4.86514 5.3103C4.67184 5.3103 4.51514 5.1536 4.51514 4.9603V3.01332C4.51514 2.82002 4.67184 2.66332 4.86514 2.66332C5.05844 2.66332 5.21514 2.82002 5.21514 3.01332V4.9603C5.21514 5.1536 5.05844 5.3103 4.86514 5.3103Z" fill="white"/>
</svg>
