<svg width="9" height="9" viewBox="0 0 9 9" fill="none" xmlns="http://www.w3.org/2000/svg">
<circle cx="4.83789" cy="4.71533" r="3.65" stroke="#0A1533" stroke-width="0.7"/>
<path fill-rule="evenodd" clip-rule="evenodd" d="M4.65903 4.77554C4.78511 4.62903 5.0061 4.61247 5.15262 4.73856L6.62836 6.00856C6.77488 6.13465 6.79144 6.35564 6.66535 6.50215C6.53926 6.64867 6.31827 6.66523 6.17176 6.53914L4.69601 5.26913C4.5495 5.14304 4.53294 4.92206 4.65903 4.77554Z" fill="#0A1533"/>
<path fill-rule="evenodd" clip-rule="evenodd" d="M4.86526 5.3103C4.67196 5.3103 4.51526 5.1536 4.51526 4.9603V3.01332C4.51526 2.82002 4.67196 2.66332 4.86526 2.66332C5.05856 2.66332 5.21526 2.82002 5.21526 3.01332V4.9603C5.21526 5.1536 5.05856 5.3103 4.86526 5.3103Z" fill="#0A1533"/>
</svg>
