<svg width="21" height="21" viewBox="0 0 21 21" fill="none" xmlns="http://www.w3.org/2000/svg">
<path d="M17.2084 8.10767H9.70841C8.78794 8.10767 8.04175 8.85386 8.04175 9.77433V17.2743C8.04175 18.1948 8.78794 18.941 9.70841 18.941H17.2084C18.1289 18.941 18.8751 18.1948 18.8751 17.2743V9.77433C18.8751 8.85386 18.1289 8.10767 17.2084 8.10767Z" stroke="#0A1533" stroke-linecap="round" stroke-linejoin="round"/>
<path d="M4.7085 13.1077H3.87516C3.43314 13.1077 3.00921 12.9321 2.69665 12.6195C2.38409 12.307 2.2085 11.883 2.2085 11.441V3.941C2.2085 3.49898 2.38409 3.07505 2.69665 2.76249C3.00921 2.44993 3.43314 2.27434 3.87516 2.27434H11.3752C11.8172 2.27434 12.2411 2.44993 12.5537 2.76249C12.8662 3.07505 13.0418 3.49898 13.0418 3.941V4.77434" stroke="#0A1533" stroke-linecap="round" stroke-linejoin="round"/>
</svg>
