<svg width="13" height="15" viewBox="0 0 13 15" fill="none" xmlns="http://www.w3.org/2000/svg">
<path d="M0.90966 0.376129H8.34408L12.2846 4.30139V13.5011C12.2846 13.9846 11.8927 14.3761 11.4096 14.3761H0.90966C0.426646 14.3761 0.034668 13.9846 0.034668 13.5011V1.25112C0.034668 0.7677 0.426692 0.376129 0.90966 0.376129Z" fill="#E2574C"/>
<path d="M12.272 4.31362H9.22222C8.73921 4.31362 8.34723 3.92164 8.34723 3.43863V0.384872L12.272 4.31362Z" fill="#B53629"/>
<path d="M9.00256 7.00993C9.14914 7.00993 9.22089 6.88218 9.22089 6.75837C9.22089 6.63017 9.14606 6.50636 9.00256 6.50636H8.16781C8.00462 6.50636 7.91363 6.64153 7.91363 6.79074V8.84216C7.91363 9.02505 8.01775 9.12654 8.15862 9.12654C8.29864 9.12654 8.40321 9.02505 8.40321 8.84216V8.27912H8.90809C9.06471 8.27912 9.14303 8.15092 9.14303 8.02362C9.14303 7.89895 9.06471 7.7751 8.90809 7.7751H8.40321V7.00993H9.00256ZM6.18112 6.50636H5.57036C5.40454 6.50636 5.28685 6.62012 5.28685 6.78897V8.84393C5.28685 9.05348 5.45615 9.11911 5.57733 9.11911H6.21829C6.97689 9.11911 7.47783 8.61994 7.47783 7.84947C7.47743 7.03487 7.00582 6.50636 6.18112 6.50636ZM6.21046 8.61252H5.83812V7.01301H6.1737C6.68165 7.01301 6.90256 7.35383 6.90256 7.82412C6.90256 8.26427 6.68555 8.61252 6.21046 8.61252ZM3.97307 6.50636H3.36801C3.19694 6.50636 3.10156 6.61922 3.10156 6.79074V8.84216C3.10156 9.02505 3.21093 9.12654 3.35792 9.12654C3.5049 9.12654 3.61427 9.02505 3.61427 8.84216V8.24322H3.99357C4.46169 8.24322 4.84801 7.91158 4.84801 7.37828C4.84806 6.85638 4.47532 6.50636 3.97307 6.50636ZM3.96302 7.76202H3.61432V6.98806H3.96302C4.17827 6.98806 4.31521 7.15605 4.31521 7.37524C4.31475 7.59403 4.17827 7.76202 3.96302 7.76202Z" fill="white"/>
</svg>
