<svg width="21" height="21" viewBox="0 0 21 21" fill="none" xmlns="http://www.w3.org/2000/svg">
<path d="M17.2084 7.9968H9.70841C8.78794 7.9968 8.04175 8.74299 8.04175 9.66346V17.1635C8.04175 18.0839 8.78794 18.8301 9.70841 18.8301H17.2084C18.1289 18.8301 18.8751 18.0839 18.8751 17.1635V9.66346C18.8751 8.74299 18.1289 7.9968 17.2084 7.9968Z" stroke="white" stroke-linecap="round" stroke-linejoin="round"/>
<path d="M4.70837 12.9968H3.87504C3.43301 12.9968 3.00909 12.8212 2.69653 12.5086C2.38397 12.1961 2.20837 11.7722 2.20837 11.3301V3.83013C2.20837 3.3881 2.38397 2.96418 2.69653 2.65162C3.00909 2.33906 3.43301 2.16346 3.87504 2.16346H11.375C11.8171 2.16346 12.241 2.33906 12.5536 2.65162C12.8661 2.96418 13.0417 3.3881 13.0417 3.83013V4.66346" stroke="white" stroke-linecap="round" stroke-linejoin="round"/>
</svg>
