<svg width="190" height="31" viewBox="0 0 190 31" fill="none" xmlns="http://www.w3.org/2000/svg">
<path d="M23.1789 15.8593C23.4552 15.7458 23.7315 15.6111 24.0006 15.4622C27.7338 13.3489 29.0514 8.59059 26.9404 4.85343C24.8294 1.11625 20.0762 -0.202754 16.343 1.91049C13.5733 3.47769 12.1423 6.50573 12.4399 9.48415C10.0455 7.69 6.71613 7.3638 3.94636 8.931C0.213188 11.0514 -1.1044 15.8097 1.00658 19.5469C3.11755 23.284 7.87079 24.6031 11.6039 22.4898C11.8236 22.3692 12.029 22.2345 12.2273 22.0927C12.0573 23.6599 12.3477 25.2909 13.1765 26.7659C15.2875 30.5031 20.0408 31.8221 23.7739 29.7089C27.5071 27.5956 28.8247 22.8373 26.7137 19.1001C25.8778 17.6109 24.6169 16.5188 23.1789 15.8593ZM10.2226 20.0433C7.83538 21.3977 4.79641 20.5539 3.4434 18.164C2.0904 15.7742 2.93337 12.732 5.32063 11.3776C7.70784 10.0231 10.7468 10.8669 12.0998 13.2568C13.4528 15.6466 12.6098 18.6959 10.2226 20.0433ZM17.7173 4.35703C20.1045 3.00257 23.1435 3.84645 24.4965 6.23626C25.8495 8.62609 25.0065 11.6683 22.6193 13.0227C20.232 14.3772 17.1931 13.5334 15.8401 11.1435C14.4871 8.75372 15.33 5.71149 17.7173 4.35703ZM15.0608 14.9587L14.9546 13.9517L15.7622 14.5545C16.173 14.8594 16.6264 15.1289 17.1152 15.3487L18.0361 15.7671L17.101 16.1572C16.8105 16.2777 16.5555 16.3983 16.3288 16.533C16.1234 16.6465 15.9251 16.7741 15.7338 16.9089L14.9333 17.4691L15.0396 16.4976C15.1104 15.9799 15.1104 15.4551 15.0608 14.9587ZM22.3926 27.2624C20.0054 28.6168 16.9664 27.7729 15.6134 25.3831C14.2604 22.9933 15.1034 19.9511 17.4906 18.5966C19.8778 17.2422 22.9168 18.086 24.2698 20.4758C25.6228 22.8657 24.7798 25.9079 22.3926 27.2624Z" fill="#00CF80"/>
<path d="M34.0789 8.54885H37.85C39.5684 8.54885 40.8144 8.79473 41.5879 9.28649C42.367 9.77273 42.7565 10.549 42.7565 11.6154C42.7565 12.3393 42.5852 12.9332 42.2427 13.3974C41.9056 13.8615 41.4553 14.1405 40.8917 14.2345V14.3174C41.6597 14.4886 42.2123 14.8091 42.5493 15.2788C42.8919 15.7484 43.0632 16.3728 43.0632 17.1519C43.0632 18.2569 42.6626 19.1189 41.8614 19.7378C41.0658 20.3566 39.9828 20.666 38.6125 20.666H34.0789V8.54885ZM36.6482 13.3476H38.1401C38.8363 13.3476 39.3391 13.2399 39.6485 13.0244C39.9634 12.8089 40.1209 12.4525 40.1209 11.9553C40.1209 11.4911 39.9496 11.1596 39.6071 10.9607C39.27 10.7562 38.7341 10.654 37.9992 10.654H36.6482V13.3476ZM36.6482 15.3865V18.5443H38.3224C39.0297 18.5443 39.5518 18.4089 39.8889 18.1382C40.2259 17.8674 40.3944 17.453 40.3944 16.8949C40.3944 15.8893 39.6761 15.3865 38.2395 15.3865H36.6482Z" fill="white"/>
<path d="M48.1517 20.666H45.6239V7.76978H48.1517V20.666Z" fill="white"/>
<path d="M57.7158 20.666L57.376 19.4808H57.2434C56.9727 19.9118 56.5887 20.2461 56.0914 20.4837C55.5941 20.7157 55.0277 20.8318 54.3923 20.8318C53.3038 20.8318 52.4833 20.5417 51.9308 19.9615C51.3782 19.3758 51.102 18.536 51.102 17.442V11.4H53.6298V16.8121C53.6298 17.4806 53.7486 17.9834 53.9862 18.3205C54.2238 18.652 54.6023 18.8178 55.1217 18.8178C55.8289 18.8178 56.34 18.5829 56.655 18.1133C56.9699 17.6381 57.1274 16.8535 57.1274 15.7595V11.4H59.6552V20.666H57.7158Z" fill="white"/>
<path d="M66.4843 13.0244C65.9483 13.0244 65.5284 13.1957 65.2245 13.5383C64.9206 13.8753 64.7465 14.356 64.7023 14.9804H68.2496C68.2386 14.356 68.0756 13.8753 67.7606 13.5383C67.4457 13.1957 67.0202 13.0244 66.4843 13.0244ZM66.8407 20.8318C65.3488 20.8318 64.183 20.4201 63.3431 19.5969C62.5032 18.7736 62.0833 17.6077 62.0833 16.0993C62.0833 14.5467 62.4701 13.3476 63.2436 12.5023C64.0227 11.6514 65.0974 11.2259 66.4677 11.2259C67.7772 11.2259 68.7967 11.5989 69.526 12.3448C70.2554 13.0907 70.62 14.1212 70.62 15.4362V16.6629H64.6443C64.672 17.3812 64.8847 17.942 65.2825 18.3454C65.6803 18.7487 66.2384 18.9504 66.9567 18.9504C67.5148 18.9504 68.0424 18.8924 68.5397 18.7763C69.037 18.6603 69.5564 18.4752 70.0979 18.221V20.177C69.6558 20.398 69.1834 20.561 68.6806 20.666C68.1778 20.7765 67.5645 20.8318 66.8407 20.8318Z" fill="white"/>
<path d="M78.1701 11.2259C79.2642 11.2259 80.1206 11.6541 80.7394 12.5106C81.3583 13.3615 81.6677 14.5301 81.6677 16.0164C81.6677 17.5469 81.3472 18.7321 80.7063 19.572C80.0709 20.4118 79.2034 20.8318 78.1038 20.8318C77.0153 20.8318 76.1617 20.4367 75.5428 19.6466H75.3688L74.9461 20.666H73.0149V7.76978H75.5428V10.7701C75.5428 11.1513 75.5097 11.7619 75.4434 12.6017H75.5428C76.134 11.6845 77.0098 11.2259 78.1701 11.2259ZM77.3579 13.2482C76.7335 13.2482 76.2777 13.4416 75.9904 13.8284C75.703 14.2096 75.5539 14.8423 75.5428 15.7263V15.9998C75.5428 16.9944 75.6892 17.7072 75.9821 18.1382C76.2804 18.5691 76.7501 18.7846 77.3911 18.7846C77.9104 18.7846 78.3221 18.547 78.626 18.0718C78.9354 17.5911 79.0901 16.8949 79.0901 15.9833C79.0901 15.0716 78.9354 14.3892 78.626 13.9361C78.3166 13.4775 77.8939 13.2482 77.3579 13.2482Z" fill="white"/>
<path d="M87.9332 13.0244C87.3972 13.0244 86.9773 13.1957 86.6734 13.5383C86.3695 13.8753 86.1954 14.356 86.1512 14.9804H89.6985C89.6875 14.356 89.5245 13.8753 89.2095 13.5383C88.8946 13.1957 88.4691 13.0244 87.9332 13.0244ZM88.2895 20.8318C86.7977 20.8318 85.6318 20.4201 84.792 19.5969C83.9521 18.7736 83.5322 17.6077 83.5322 16.0993C83.5322 14.5467 83.919 13.3476 84.6925 12.5023C85.4716 11.6514 86.5463 11.2259 87.9166 11.2259C89.2261 11.2259 90.2455 11.5989 90.9749 12.3448C91.7042 13.0907 92.0689 14.1212 92.0689 15.4362V16.6629H86.0932C86.1208 17.3812 86.3336 17.942 86.7314 18.3454C87.1292 18.7487 87.6873 18.9504 88.4056 18.9504C88.9636 18.9504 89.4913 18.8924 89.9886 18.7763C90.4859 18.6603 91.0053 18.4752 91.5467 18.221V20.177C91.1047 20.398 90.6323 20.561 90.1295 20.666C89.6267 20.7765 89.0134 20.8318 88.2895 20.8318Z" fill="white"/>
<path d="M99.6356 11.2259C99.9781 11.2259 100.263 11.2508 100.489 11.3005L100.299 13.6709C100.094 13.6156 99.8455 13.588 99.5527 13.588C98.746 13.588 98.1161 13.7952 97.663 14.2096C97.2155 14.624 96.9917 15.2042 96.9917 15.9501V20.666H94.4638V11.4H96.3784L96.7513 12.9581H96.8756C97.163 12.4387 97.5497 12.0216 98.036 11.7066C98.5277 11.3861 99.0609 11.2259 99.6356 11.2259Z" fill="white"/>
<path d="M107.683 11.2259C108.026 11.2259 108.31 11.2508 108.537 11.3005L108.346 13.6709C108.142 13.6156 107.893 13.588 107.6 13.588C106.793 13.588 106.163 13.7952 105.71 14.2096C105.263 14.624 105.039 15.2042 105.039 15.9501V20.666H102.511V11.4H104.426L104.799 12.9581H104.923C105.21 12.4387 105.597 12.0216 106.083 11.7066C106.575 11.3861 107.108 11.2259 107.683 11.2259Z" fill="white"/>
<path d="M109.232 11.4H112.001L113.75 16.6131C113.899 17.0662 114.001 17.6022 114.056 18.221H114.106C114.167 17.6519 114.285 17.116 114.462 16.6131L116.178 11.4H118.888L114.968 21.8512C114.609 22.8182 114.095 23.542 113.426 24.0227C112.763 24.5034 111.987 24.7437 111.097 24.7437C110.661 24.7437 110.233 24.6968 109.813 24.6028V22.5971C110.117 22.669 110.448 22.7049 110.807 22.7049C111.255 22.7049 111.644 22.5667 111.976 22.2905C112.313 22.0197 112.575 21.6081 112.763 21.0556L112.912 20.5997L109.232 11.4Z" fill="white"/>
<path d="M128.643 12.1127C128.643 13.3504 128.22 14.3008 127.375 14.9638C126.529 15.6213 125.339 15.9501 123.803 15.9501H122.41V20.666H120.885V8.54885H124.093C127.126 8.54885 128.643 9.73681 128.643 12.1127ZM122.41 14.6406H123.629C124.833 14.6406 125.706 14.4472 126.248 14.0604C126.789 13.6681 127.06 13.041 127.06 12.179C127.06 11.4 126.808 10.817 126.306 10.4302C125.803 10.0435 125.018 9.85008 123.952 9.85008H122.41V14.6406Z" fill="white"/>
<path d="M136.914 20.666L136.624 19.3731H136.558C136.105 19.9422 135.651 20.329 135.198 20.5334C134.751 20.7323 134.184 20.8318 133.499 20.8318C132.604 20.8318 131.902 20.5969 131.394 20.1273C130.886 19.6576 130.632 18.9946 130.632 18.1382C130.632 16.2927 132.088 15.3257 134.999 15.2373L136.541 15.1793V14.6406C136.541 13.9499 136.392 13.4416 136.093 13.1156C135.795 12.7841 135.317 12.6183 134.66 12.6183C134.179 12.6183 133.723 12.6901 133.292 12.8338C132.867 12.9774 132.466 13.1377 132.09 13.3145L131.634 12.1956C132.093 11.9525 132.593 11.7619 133.135 11.6237C133.676 11.4856 134.212 11.4165 134.743 11.4165C135.842 11.4165 136.66 11.6596 137.196 12.1459C137.732 12.6321 138 13.4057 138 14.4665V20.666H136.914ZM133.839 19.63C134.673 19.63 135.328 19.4062 135.803 18.9587C136.284 18.5056 136.524 17.8646 136.524 17.0358V16.2153L135.182 16.2733C134.137 16.312 133.375 16.4778 132.894 16.7706C132.419 17.0635 132.182 17.5248 132.182 18.1547C132.182 18.6299 132.325 18.9946 132.612 19.2488C132.905 19.5029 133.314 19.63 133.839 19.63Z" fill="white"/>
<path d="M145.409 11.4C145.812 11.4 146.169 11.4331 146.478 11.4994L146.296 12.8752C145.959 12.7979 145.63 12.7592 145.309 12.7592C144.829 12.7592 144.381 12.8918 143.967 13.157C143.558 13.4222 143.237 13.7897 143.005 14.2593C142.773 14.7235 142.657 15.2401 142.657 15.8092V20.666H141.165V11.5657H142.392L142.558 13.2316H142.624C142.972 12.6293 143.384 12.1735 143.859 11.8641C144.334 11.5547 144.851 11.4 145.409 11.4Z" fill="white"/>
<path d="M151.558 19.6134C151.752 19.6134 151.978 19.5941 152.238 19.5554C152.498 19.5167 152.694 19.4725 152.826 19.4228V20.5666C152.688 20.6273 152.473 20.6854 152.18 20.7406C151.893 20.8014 151.6 20.8318 151.301 20.8318C149.522 20.8318 148.633 19.8952 148.633 18.0221V12.726H147.348V12.0133L148.649 11.4165L149.246 9.47712H150.133V11.5657H152.76V12.726H150.133V17.9807C150.133 18.5056 150.257 18.9089 150.506 19.1907C150.76 19.4725 151.111 19.6134 151.558 19.6134Z" fill="white"/>
<path d="M161.189 20.666V14.8478C161.189 14.1074 161.023 13.5576 160.691 13.1985C160.365 12.8338 159.852 12.6514 159.15 12.6514C158.216 12.6514 157.536 12.9111 157.111 13.4305C156.691 13.9444 156.481 14.7842 156.481 15.9501V20.666H154.989V11.5657H156.191L156.415 12.8089H156.498C156.78 12.3614 157.175 12.016 157.683 11.7729C158.191 11.5243 158.752 11.4 159.365 11.4C160.482 11.4 161.31 11.6707 161.852 12.2122C162.393 12.7537 162.664 13.5963 162.664 14.74V20.666H161.189Z" fill="white"/>
<path d="M169.692 20.8318C168.327 20.8318 167.255 20.4201 166.476 19.5969C165.703 18.768 165.316 17.6298 165.316 16.1822C165.316 14.7235 165.678 13.5631 166.402 12.7012C167.125 11.8337 168.103 11.4 169.336 11.4C170.479 11.4 171.391 11.7702 172.071 12.5106C172.75 13.2454 173.09 14.2428 173.09 15.5025V16.4059H166.857C166.885 17.4392 167.148 18.2238 167.645 18.7598C168.142 19.2957 168.847 19.5637 169.758 19.5637C170.245 19.5637 170.706 19.5223 171.142 19.4394C171.579 19.351 172.09 19.1824 172.676 18.9338V20.2433C172.173 20.4588 171.7 20.6108 171.258 20.6992C170.816 20.7876 170.294 20.8318 169.692 20.8318ZM169.319 12.6183C168.606 12.6183 168.043 12.8476 167.628 13.3062C167.214 13.7648 166.968 14.403 166.891 15.2208H171.524C171.513 14.3698 171.316 13.7234 170.935 13.2813C170.554 12.8393 170.015 12.6183 169.319 12.6183Z" fill="white"/>
<path d="M179.985 11.4C180.389 11.4 180.745 11.4331 181.055 11.4994L180.872 12.8752C180.535 12.7979 180.206 12.7592 179.886 12.7592C179.405 12.7592 178.958 12.8918 178.543 13.157C178.134 13.4222 177.814 13.7897 177.582 14.2593C177.35 14.7235 177.234 15.2401 177.234 15.8092V20.666H175.742V11.5657H176.969L177.134 13.2316H177.201C177.549 12.6293 177.96 12.1735 178.436 11.8641C178.911 11.5547 179.427 11.4 179.985 11.4Z" fill="white"/>
<path d="M189.019 18.1547C189.019 19.0056 188.701 19.6659 188.066 20.1356C187.431 20.5997 186.538 20.8318 185.389 20.8318C184.19 20.8318 183.237 20.6412 182.53 20.2599V18.9007C183.53 19.3869 184.494 19.63 185.422 19.63C186.174 19.63 186.721 19.5084 187.063 19.2653C187.406 19.0222 187.577 18.6962 187.577 18.2873C187.577 17.9282 187.411 17.6243 187.08 17.3757C186.754 17.127 186.171 16.8425 185.331 16.522C184.474 16.1905 183.872 15.9087 183.524 15.6766C183.176 15.439 182.919 15.1738 182.753 14.8809C182.593 14.5881 182.513 14.2317 182.513 13.8118C182.513 13.0659 182.817 12.4774 183.425 12.0464C184.032 11.6154 184.867 11.4 185.928 11.4C186.961 11.4 187.928 11.6044 188.828 12.0133L188.323 13.1985C187.4 12.8117 186.569 12.6183 185.828 12.6183C185.209 12.6183 184.74 12.7178 184.419 12.9167C184.099 13.1101 183.939 13.378 183.939 13.7206C183.939 14.0521 184.077 14.3284 184.353 14.5494C184.629 14.7649 185.273 15.066 186.284 15.4528C187.041 15.7346 187.599 15.9971 187.958 16.2402C188.323 16.4833 188.591 16.7568 188.762 17.0607C188.933 17.3646 189.019 17.7293 189.019 18.1547Z" fill="white"/>
</svg>
