<svg width="190" height="31" viewBox="0 0 190 31" fill="none" xmlns="http://www.w3.org/2000/svg">
<path d="M23.1789 15.8594C23.4552 15.7459 23.7315 15.6112 24.0006 15.4623C27.7338 13.349 29.0514 8.59065 26.9404 4.85349C24.8294 1.11631 20.0762 -0.202693 16.343 1.91055C13.5733 3.47775 12.1423 6.50579 12.4399 9.48421C10.0455 7.69006 6.71613 7.36386 3.94636 8.93106C0.213188 11.0514 -1.1044 15.8097 1.00658 19.5469C3.11755 23.2841 7.87079 24.6031 11.6039 22.4899C11.8236 22.3693 12.029 22.2346 12.2273 22.0928C12.0573 23.66 12.3477 25.291 13.1765 26.766C15.2875 30.5032 20.0408 31.8222 23.7739 29.7089C27.5071 27.5957 28.8247 22.8373 26.7137 19.1002C25.8778 17.6109 24.6169 16.5189 23.1789 15.8594ZM10.2226 20.0433C7.83538 21.3978 4.79641 20.5539 3.4434 18.1641C2.0904 15.7743 2.93337 12.732 5.32063 11.3776C7.70784 10.0231 10.7468 10.867 12.0998 13.2568C13.4528 15.6466 12.6098 18.696 10.2226 20.0433ZM17.7173 4.35709C20.1045 3.00263 23.1435 3.84651 24.4965 6.23632C25.8495 8.62615 25.0065 11.6683 22.6193 13.0228C20.232 14.3773 17.1931 13.5334 15.8401 11.1436C14.4871 8.75378 15.33 5.71155 17.7173 4.35709ZM15.0608 14.9588L14.9546 13.9518L15.7622 14.5546C16.173 14.8595 16.6264 15.1289 17.1152 15.3488L18.0361 15.7672L17.101 16.1572C16.8105 16.2778 16.5555 16.3983 16.3289 16.5331C16.1234 16.6465 15.9251 16.7742 15.7338 16.9089L14.9333 17.4692L15.0396 16.4976C15.1104 15.9799 15.1104 15.4552 15.0608 14.9588ZM22.3926 27.2624C20.0054 28.6168 16.9664 27.773 15.6134 25.3832C14.2604 22.9933 15.1034 19.9511 17.4906 18.5967C19.8778 17.2422 22.9168 18.0861 24.2698 20.4759C25.6228 22.8657 24.7798 25.9079 22.3926 27.2624Z" fill="#00CF80"/>
<path d="M34.0789 8.54898H37.85C39.5684 8.54898 40.8144 8.79486 41.5879 9.28661C42.367 9.77285 42.7565 10.5492 42.7565 11.6156C42.7565 12.3394 42.5852 12.9334 42.2427 13.3975C41.9056 13.8616 41.4553 14.1407 40.8917 14.2346V14.3175C41.6597 14.4888 42.2123 14.8092 42.5493 15.2789C42.8919 15.7485 43.0632 16.3729 43.0632 17.152C43.0632 18.2571 42.6626 19.119 41.8614 19.7379C41.0658 20.3567 39.9828 20.6661 38.6125 20.6661H34.0789V8.54898ZM36.6482 13.3478H38.1401C38.8363 13.3478 39.3391 13.24 39.6485 13.0245C39.9634 12.809 40.1209 12.4527 40.1209 11.9554C40.1209 11.4912 39.9496 11.1597 39.6071 10.9608C39.27 10.7564 38.7341 10.6541 37.9992 10.6541H36.6482V13.3478ZM36.6482 15.3866V18.5444H38.3224C39.0297 18.5444 39.5518 18.409 39.8889 18.1383C40.2259 17.8675 40.3944 17.4531 40.3944 16.8951C40.3944 15.8894 39.6761 15.3866 38.2395 15.3866H36.6482Z" fill="#0A1533"/>
<path d="M48.1517 20.6661H45.6239V7.7699H48.1517V20.6661Z" fill="#0A1533"/>
<path d="M57.7158 20.6661L57.376 19.4809H57.2434C56.9727 19.9119 56.5887 20.2462 56.0914 20.4838C55.5941 20.7159 55.0277 20.8319 54.3923 20.8319C53.3038 20.8319 52.4833 20.5418 51.9308 19.9617C51.3782 19.376 51.102 18.5361 51.102 17.4421V11.4001H53.6298V16.8122C53.6298 17.4808 53.7486 17.9836 53.9862 18.3206C54.2238 18.6521 54.6023 18.8179 55.1217 18.8179C55.8289 18.8179 56.34 18.5831 56.655 18.1134C56.9699 17.6382 57.1274 16.8536 57.1274 15.7596V11.4001H59.6552V20.6661H57.7158Z" fill="#0A1533"/>
<path d="M66.4843 13.0245C65.9483 13.0245 65.5284 13.1958 65.2245 13.5384C64.9206 13.8754 64.7466 14.3562 64.7023 14.9805H68.2496C68.2386 14.3562 68.0756 13.8754 67.7606 13.5384C67.4457 13.1958 67.0202 13.0245 66.4843 13.0245ZM66.8407 20.8319C65.3488 20.8319 64.183 20.4203 63.3431 19.597C62.5032 18.7737 62.0833 17.6078 62.0833 16.0994C62.0833 14.5468 62.4701 13.3478 63.2436 12.5024C64.0227 11.6515 65.0974 11.226 66.4677 11.226C67.7772 11.226 68.7967 11.599 69.526 12.3449C70.2554 13.0908 70.62 14.1213 70.62 15.4364V16.663H64.6443C64.672 17.3813 64.8847 17.9421 65.2825 18.3455C65.6803 18.7488 66.2384 18.9505 66.9567 18.9505C67.5148 18.9505 68.0424 18.8925 68.5397 18.7765C69.037 18.6604 69.5564 18.4753 70.0979 18.2212V20.1771C69.6559 20.3982 69.1834 20.5612 68.6806 20.6661C68.1778 20.7766 67.5645 20.8319 66.8407 20.8319Z" fill="#0A1533"/>
<path d="M78.1701 11.226C79.2642 11.226 80.1206 11.6542 80.7394 12.5107C81.3583 13.3616 81.6677 14.5302 81.6677 16.0165C81.6677 17.5471 81.3472 18.7323 80.7063 19.5721C80.0709 20.412 79.2034 20.8319 78.1038 20.8319C77.0153 20.8319 76.1617 20.4368 75.5428 19.6467H75.3688L74.9461 20.6661H73.0149V7.7699H75.5428V10.7702C75.5428 11.1514 75.5097 11.762 75.4434 12.6018H75.5428C76.134 11.6846 77.0098 11.226 78.1701 11.226ZM77.3579 13.2483C76.7335 13.2483 76.2777 13.4417 75.9904 13.8285C75.703 14.2097 75.5539 14.8424 75.5428 15.7264V16C75.5428 16.9945 75.6892 17.7073 75.9821 18.1383C76.2804 18.5693 76.7501 18.7847 77.3911 18.7847C77.9104 18.7847 78.3221 18.5472 78.626 18.072C78.9354 17.5913 79.0901 16.8951 79.0901 15.9834C79.0901 15.0717 78.9354 14.3893 78.626 13.9362C78.3166 13.4776 77.8939 13.2483 77.3579 13.2483Z" fill="#0A1533"/>
<path d="M87.9331 13.0245C87.3972 13.0245 86.9773 13.1958 86.6734 13.5384C86.3695 13.8754 86.1954 14.3562 86.1512 14.9805H89.6985C89.6875 14.3562 89.5245 13.8754 89.2095 13.5384C88.8946 13.1958 88.4691 13.0245 87.9331 13.0245ZM88.2895 20.8319C86.7977 20.8319 85.6318 20.4203 84.792 19.597C83.9521 18.7737 83.5322 17.6078 83.5322 16.0994C83.5322 14.5468 83.919 13.3478 84.6925 12.5024C85.4716 11.6515 86.5463 11.226 87.9166 11.226C89.2261 11.226 90.2455 11.599 90.9749 12.3449C91.7042 13.0908 92.0689 14.1213 92.0689 15.4364V16.663H86.0932C86.1208 17.3813 86.3336 17.9421 86.7314 18.3455C87.1292 18.7488 87.6873 18.9505 88.4056 18.9505C88.9636 18.9505 89.4913 18.8925 89.9886 18.7765C90.4859 18.6604 91.0053 18.4753 91.5467 18.2212V20.1771C91.1047 20.3982 90.6323 20.5612 90.1295 20.6661C89.6267 20.7766 89.0134 20.8319 88.2895 20.8319Z" fill="#0A1533"/>
<path d="M99.6356 11.226C99.9781 11.226 100.263 11.2509 100.489 11.3006L100.299 13.671C100.094 13.6158 99.8455 13.5881 99.5527 13.5881C98.746 13.5881 98.1161 13.7953 97.663 14.2097C97.2155 14.6241 96.9917 15.2043 96.9917 15.9502V20.6661H94.4638V11.4001H96.3784L96.7513 12.9582H96.8756C97.163 12.4388 97.5497 12.0217 98.036 11.7067C98.5277 11.3863 99.0609 11.226 99.6356 11.226Z" fill="#0A1533"/>
<path d="M107.683 11.226C108.026 11.226 108.31 11.2509 108.537 11.3006L108.346 13.671C108.142 13.6158 107.893 13.5881 107.6 13.5881C106.793 13.5881 106.163 13.7953 105.71 14.2097C105.263 14.6241 105.039 15.2043 105.039 15.9502V20.6661H102.511V11.4001H104.426L104.799 12.9582H104.923C105.21 12.4388 105.597 12.0217 106.083 11.7067C106.575 11.3863 107.108 11.226 107.683 11.226Z" fill="#0A1533"/>
<path d="M109.232 11.4001H112.001L113.75 16.6133C113.899 17.0664 114.001 17.6023 114.056 18.2212H114.106C114.167 17.652 114.285 17.1161 114.462 16.6133L116.178 11.4001H118.888L114.968 21.8513C114.609 22.8183 114.095 23.5421 113.426 24.0228C112.763 24.5035 111.987 24.7439 111.097 24.7439C110.661 24.7439 110.233 24.6969 109.813 24.603V22.5973C110.117 22.6691 110.448 22.705 110.807 22.705C111.255 22.705 111.644 22.5669 111.976 22.2906C112.313 22.0199 112.575 21.6082 112.763 21.0557L112.912 20.5998L109.232 11.4001Z" fill="#0A1533"/>
<path d="M128.643 12.1128C128.643 13.3505 128.22 14.3009 127.375 14.9639C126.529 15.6215 125.339 15.9502 123.803 15.9502H122.41V20.6661H120.885V8.54898H124.093C127.126 8.54898 128.643 9.73693 128.643 12.1128ZM122.41 14.6407H123.629C124.833 14.6407 125.706 14.4473 126.248 14.0605C126.789 13.6682 127.06 13.0411 127.06 12.1792C127.06 11.4001 126.808 10.8171 126.306 10.4304C125.803 10.0436 125.018 9.8502 123.952 9.8502H122.41V14.6407Z" fill="#0A1533"/>
<path d="M136.914 20.6661L136.624 19.3732H136.558C136.105 19.9423 135.651 20.3291 135.198 20.5335C134.751 20.7324 134.184 20.8319 133.499 20.8319C132.604 20.8319 131.902 20.5971 131.394 20.1274C130.886 19.6578 130.632 18.9947 130.632 18.1383C130.632 16.2928 132.088 15.3259 134.999 15.2374L136.541 15.1794V14.6407C136.541 13.95 136.392 13.4417 136.093 13.1157C135.795 12.7842 135.317 12.6184 134.66 12.6184C134.179 12.6184 133.723 12.6902 133.292 12.8339C132.867 12.9776 132.466 13.1378 132.09 13.3146L131.634 12.1957C132.093 11.9526 132.593 11.762 133.135 11.6239C133.676 11.4857 134.212 11.4166 134.743 11.4166C135.842 11.4166 136.66 11.6598 137.196 12.146C137.732 12.6322 138 13.4058 138 14.4667V20.6661H136.914ZM133.839 19.6301C134.673 19.6301 135.328 19.4063 135.803 18.9588C136.284 18.5057 136.524 17.8648 136.524 17.036V16.2154L135.182 16.2735C134.137 16.3121 133.375 16.4779 132.894 16.7707C132.419 17.0636 132.182 17.525 132.182 18.1549C132.182 18.63 132.325 18.9947 132.612 19.2489C132.905 19.503 133.314 19.6301 133.839 19.6301Z" fill="#0A1533"/>
<path d="M145.409 11.4001C145.812 11.4001 146.169 11.4332 146.478 11.4995L146.296 12.8753C145.959 12.798 145.63 12.7593 145.309 12.7593C144.829 12.7593 144.381 12.8919 143.967 13.1571C143.558 13.4224 143.237 13.7898 143.005 14.2595C142.773 14.7236 142.657 15.2402 142.657 15.8093V20.6661H141.165V11.5658H142.392L142.558 13.2317H142.624C142.972 12.6295 143.384 12.1736 143.859 11.8642C144.334 11.5548 144.851 11.4001 145.409 11.4001Z" fill="#0A1533"/>
<path d="M151.558 19.6136C151.752 19.6136 151.978 19.5942 152.238 19.5555C152.498 19.5169 152.694 19.4727 152.826 19.4229V20.5667C152.688 20.6275 152.473 20.6855 152.18 20.7407C151.893 20.8015 151.6 20.8319 151.301 20.8319C149.522 20.8319 148.633 19.8953 148.633 18.0222V12.7262H147.348V12.0134L148.649 11.4166L149.246 9.47724H150.133V11.5658H152.76V12.7262H150.133V17.9808C150.133 18.5057 150.257 18.9091 150.506 19.1909C150.76 19.4727 151.111 19.6136 151.558 19.6136Z" fill="#0A1533"/>
<path d="M161.189 20.6661V14.8479C161.189 14.1075 161.023 13.5577 160.691 13.1986C160.365 12.8339 159.852 12.6516 159.15 12.6516C158.216 12.6516 157.536 12.9113 157.111 13.4307C156.691 13.9445 156.481 14.7844 156.481 15.9502V20.6661H154.989V11.5658H156.191L156.415 12.809H156.498C156.78 12.3615 157.175 12.0162 157.683 11.773C158.191 11.5244 158.752 11.4001 159.365 11.4001C160.482 11.4001 161.31 11.6708 161.852 12.2123C162.393 12.7538 162.664 13.5964 162.664 14.7402V20.6661H161.189Z" fill="#0A1533"/>
<path d="M169.692 20.8319C168.327 20.8319 167.255 20.4203 166.476 19.597C165.703 18.7682 165.316 17.6299 165.316 16.1823C165.316 14.7236 165.678 13.5633 166.402 12.7013C167.125 11.8338 168.103 11.4001 169.336 11.4001C170.479 11.4001 171.391 11.7703 172.071 12.5107C172.75 13.2455 173.09 14.2429 173.09 15.5027V16.4061H166.857C166.885 17.4393 167.148 18.2239 167.645 18.7599C168.142 19.2958 168.847 19.5638 169.758 19.5638C170.245 19.5638 170.706 19.5224 171.142 19.4395C171.579 19.3511 172.09 19.1826 172.676 18.9339V20.2434C172.173 20.4589 171.7 20.6109 171.258 20.6993C170.816 20.7877 170.294 20.8319 169.692 20.8319ZM169.319 12.6184C168.606 12.6184 168.043 12.8477 167.628 13.3063C167.214 13.7649 166.968 14.4031 166.891 15.2209H171.524C171.513 14.37 171.316 13.7235 170.935 13.2815C170.554 12.8394 170.015 12.6184 169.319 12.6184Z" fill="#0A1533"/>
<path d="M179.985 11.4001C180.389 11.4001 180.745 11.4332 181.055 11.4995L180.872 12.8753C180.535 12.798 180.206 12.7593 179.886 12.7593C179.405 12.7593 178.958 12.8919 178.543 13.1571C178.134 13.4224 177.814 13.7898 177.582 14.2595C177.35 14.7236 177.234 15.2402 177.234 15.8093V20.6661H175.742V11.5658H176.969L177.134 13.2317H177.201C177.549 12.6295 177.96 12.1736 178.436 11.8642C178.911 11.5548 179.427 11.4001 179.985 11.4001Z" fill="#0A1533"/>
<path d="M189.019 18.1549C189.019 19.0058 188.701 19.666 188.066 20.1357C187.431 20.5998 186.538 20.8319 185.389 20.8319C184.19 20.8319 183.237 20.6413 182.53 20.26V18.9008C183.53 19.387 184.494 19.6301 185.422 19.6301C186.174 19.6301 186.721 19.5086 187.063 19.2655C187.406 19.0223 187.577 18.6963 187.577 18.2875C187.577 17.9283 187.411 17.6244 187.08 17.3758C186.754 17.1271 186.171 16.8426 185.331 16.5221C184.474 16.1906 183.872 15.9088 183.524 15.6767C183.176 15.4391 182.919 15.1739 182.753 14.8811C182.593 14.5882 182.513 14.2318 182.513 13.8119C182.513 13.066 182.817 12.4775 183.425 12.0465C184.032 11.6156 184.867 11.4001 185.928 11.4001C186.961 11.4001 187.928 11.6045 188.828 12.0134L188.323 13.1986C187.4 12.8118 186.569 12.6184 185.828 12.6184C185.209 12.6184 184.74 12.7179 184.419 12.9168C184.099 13.1102 183.939 13.3782 183.939 13.7207C183.939 14.0523 184.077 14.3285 184.353 14.5495C184.629 14.765 185.273 15.0662 186.284 15.4529C187.041 15.7347 187.599 15.9972 187.958 16.2403C188.323 16.4834 188.591 16.7569 188.762 17.0608C188.933 17.3647 189.019 17.7294 189.019 18.1549Z" fill="#0A1533"/>
</svg>
