<svg width="31" height="30" viewBox="0 0 31 30" fill="none" xmlns="http://www.w3.org/2000/svg">
<circle cx="15.1895" cy="15" r="15" fill="#E7F2FC"/>
<path d="M14.8301 11.1406C12.6611 11.1406 10.8965 12.9053 10.8965 15.0742C10.8965 17.2432 12.6611 19.0078 14.8301 19.0078C16.999 19.0078 18.7637 17.2432 18.7637 15.0742C18.7637 12.9053 16.999 11.1406 14.8301 11.1406ZM14.8301 18.453C12.967 18.453 11.4513 16.9372 11.4513 15.0742C11.4513 13.2112 12.967 11.6954 14.8301 11.6954C16.6932 11.6954 18.2089 13.2112 18.2089 15.0742C18.2089 16.9372 16.6932 18.453 14.8301 18.453Z" fill="#00CF80" stroke="#00CF80"/>
<path d="M14.793 9.70371C14.9483 9.70371 15.0742 9.57793 15.0742 9.42246V6.28125C15.0742 6.1258 14.9483 6 14.793 6C14.6376 6 14.5117 6.1258 14.5117 6.28125V9.42246C14.5117 9.57793 14.6376 9.70371 14.793 9.70371Z" fill="#00CF80" stroke="#00CF80"/>
<path d="M14.793 20.2969C14.6376 20.2969 14.5117 20.4226 14.5117 20.5781V23.7196C14.5117 23.8751 14.6376 24.0009 14.793 24.0009C14.9483 24.0009 15.0742 23.8751 15.0742 23.7196V20.5781C15.0742 20.4226 14.9483 20.2969 14.793 20.2969Z" fill="#00CF80" stroke="#00CF80"/>
<path d="M23.3046 14.5625H20.1631C20.0078 14.5625 19.8818 14.6883 19.8818 14.8437C19.8818 14.9992 20.0078 15.125 20.1631 15.125H23.3046C23.4599 15.125 23.5858 14.9992 23.5858 14.8437C23.5858 14.6883 23.4599 14.5625 23.3046 14.5625Z" fill="#00CF80" stroke="#00CF80"/>
<path d="M9.70399 14.8437C9.70399 14.6883 9.57805 14.5625 9.42274 14.5625H6.28125C6.12591 14.5625 6 14.6883 6 14.8437C6 14.9992 6.12591 15.125 6.28125 15.125H9.42274C9.57805 15.125 9.70399 14.9992 9.70399 14.8437Z" fill="#00CF80" stroke="#00CF80"/>
<path d="M18.4995 11.5905C18.5715 11.5905 18.6434 11.5631 18.6984 11.5082L20.9199 9.28674C21.0298 9.17688 21.0298 8.99891 20.9199 8.88905C20.81 8.77917 20.632 8.77917 20.5222 8.88905L18.3007 11.1105C18.1908 11.2203 18.1908 11.3983 18.3007 11.5082C18.3556 11.5631 18.4276 11.5905 18.4995 11.5905Z" fill="#00CF80" stroke="#00CF80"/>
<path d="M18.6984 18.7133C18.5885 18.6034 18.4105 18.6034 18.3007 18.7133C18.1908 18.8231 18.1908 19.0011 18.3007 19.111L20.5222 21.3321C20.5771 21.387 20.6491 21.4145 20.7211 21.4145C20.793 21.4145 20.865 21.387 20.9199 21.3321C21.0298 21.2222 21.0298 21.0443 20.9199 20.9344L18.6984 18.7133Z" fill="#00CF80" stroke="#00CF80"/>
<path d="M10.8871 11.5082C10.9421 11.5631 11.014 11.5905 11.086 11.5905C11.158 11.5905 11.2299 11.5631 11.2849 11.5082C11.3947 11.3983 11.3947 11.2203 11.2849 11.1105L9.0636 8.88905C8.95372 8.77917 8.77574 8.77917 8.66589 8.88905C8.55603 8.99891 8.55603 9.17688 8.66589 9.28674L10.8871 11.5082Z" fill="#00CF80" stroke="#00CF80"/>
<path d="M11.2973 18.7321C11.2923 18.7262 11.2904 18.7188 11.2848 18.7133C11.175 18.6034 10.997 18.6034 10.8871 18.7133L9.77898 19.8214L8.64437 20.9027C8.5319 21.0099 8.5276 21.1878 8.63481 21.3003C8.64024 21.306 8.64761 21.3081 8.65337 21.3132C8.65835 21.3191 8.66029 21.3265 8.66586 21.3321C8.72079 21.387 8.79276 21.4145 8.8647 21.4145C8.93667 21.4145 9.00861 21.387 9.06357 21.3321L10.1717 20.224L11.3063 19.1427C11.4188 19.0355 11.4231 18.8575 11.3159 18.7451C11.3104 18.7393 11.3031 18.7372 11.2973 18.7321Z" fill="#00CF80" stroke="#00CF80"/>
</svg>
