<svg width="23" height="16" viewBox="0 0 23 16" fill="none" xmlns="http://www.w3.org/2000/svg">
<path d="M14.8325 7.89154C14.8325 8.80322 14.4704 9.67756 13.8257 10.3222C13.181 10.9669 12.3067 11.329 11.395 11.329C10.4833 11.329 9.609 10.9669 8.96434 10.3222C8.31968 9.67756 7.95752 8.80322 7.95752 7.89154C7.95752 6.97986 8.31968 6.10552 8.96434 5.46086C9.609 4.8162 10.4833 4.45404 11.395 4.45404C12.3067 4.45404 13.181 4.8162 13.8257 5.46086C14.4704 6.10552 14.8325 6.97986 14.8325 7.89154Z" fill="#00CF80"/>
<path d="M0.39502 7.89154C0.39502 7.89154 4.52002 0.329041 11.395 0.329041C18.27 0.329041 22.395 7.89154 22.395 7.89154C22.395 7.89154 18.27 15.454 11.395 15.454C4.52002 15.454 0.39502 7.89154 0.39502 7.89154ZM11.395 12.704C12.6714 12.704 13.8955 12.197 14.798 11.2945C15.7005 10.392 16.2075 9.1679 16.2075 7.89154C16.2075 6.61519 15.7005 5.39111 14.798 4.48859C13.8955 3.58607 12.6714 3.07904 11.395 3.07904C10.1187 3.07904 8.89459 3.58607 7.99207 4.48859C7.08955 5.39111 6.58252 6.61519 6.58252 7.89154C6.58252 9.1679 7.08955 10.392 7.99207 11.2945C8.89459 12.197 10.1187 12.704 11.395 12.704Z" fill="#00CF80"/>
</svg>
