<svg width="13" height="13" viewBox="0 0 13 13" fill="none" xmlns="http://www.w3.org/2000/svg">
<g clip-path="url(#clip0_944_45339)">
<path d="M12.5858 6.00911C12.8624 5.73947 12.9601 5.34378 12.8407 4.97639C12.7213 4.60901 12.4097 4.3463 12.0275 4.29074L9.11081 3.86691C9.10547 3.86614 9.1009 3.86278 9.09853 3.85799L7.79423 1.21509C7.62331 0.868687 7.27713 0.653442 6.8908 0.653442C6.50447 0.653442 6.15834 0.868687 5.98742 1.21509L4.68307 3.85799C4.6807 3.86278 4.67613 3.86608 4.67079 3.86691L1.75417 4.29074C1.37192 4.3463 1.06031 4.60901 0.940934 4.97639C0.821556 5.34378 0.919239 5.73947 1.19582 6.00911L3.30631 8.06635C3.31017 8.0701 3.31193 8.07549 3.31099 8.08078L2.81277 10.9857C2.74747 11.3664 2.9011 11.744 3.21358 11.971C3.52613 12.1981 3.93266 12.2274 4.27455 12.0477L6.88326 10.6762C6.88799 10.6737 6.89372 10.6737 6.89845 10.6762L9.50716 12.0477C9.65589 12.1259 9.81678 12.1645 9.97691 12.1645C10.1849 12.1645 10.3915 12.0993 10.5681 11.971C10.8806 11.744 11.0341 11.3664 10.9689 10.9856L10.4707 8.08078C10.4697 8.07549 10.4715 8.0701 10.4753 8.06635L12.5858 6.00911ZM9.49372 8.24828L9.99194 11.1531C9.99326 11.1608 9.99365 11.1631 9.98544 11.1691C9.97724 11.175 9.97515 11.1739 9.96826 11.1703L7.3595 9.79877C7.06601 9.64454 6.71553 9.64454 6.42193 9.79877L3.81323 11.1702C3.80635 11.1738 3.80425 11.175 3.79605 11.169C3.78784 11.1631 3.78823 11.1608 3.78955 11.1531L4.28777 8.24823C4.34382 7.92137 4.23551 7.58807 3.99802 7.35652L1.88765 5.29934C1.88209 5.29389 1.88038 5.29229 1.88352 5.28266C1.88666 5.27302 1.88897 5.27269 1.89668 5.27153L4.8133 4.84771C5.14153 4.80002 5.42511 4.59403 5.57186 4.29663L6.87621 1.65368C6.87968 1.64674 6.88067 1.64459 6.8908 1.64459C6.90093 1.64459 6.90198 1.64674 6.90539 1.65368L8.20974 4.29663C8.35654 4.59403 8.64007 4.80008 8.9683 4.84771L11.8849 5.27153C11.8926 5.27269 11.8949 5.27302 11.8981 5.28266C11.9012 5.29229 11.8995 5.29394 11.894 5.29934L9.78347 7.35658C9.54603 7.58807 9.43772 7.92142 9.49372 8.24828Z" fill="#00CF80"/>
</g>
<defs>
<clipPath id="clip0_944_45339">
<rect width="12" height="12" fill="white" transform="translate(0.890869 0.408936)"/>
</clipPath>
</defs>
</svg>
