<svg width="15" height="16" viewBox="0 0 15 16" fill="none" xmlns="http://www.w3.org/2000/svg">
<g clip-path="url(#clip0_1587_40974)">
<path d="M11.19 11.6409C10.1239 12.4536 8.8257 12.9038 7.48537 12.9257C3.11968 12.9257 0.625 7.93634 0.625 7.93634C1.40078 6.49061 2.47676 5.2275 3.78077 4.23174M6.17566 3.09666C6.60495 2.99618 7.04447 2.94595 7.48537 2.94698C11.8511 2.94698 14.3457 7.93634 14.3457 7.93634C13.9672 8.64459 13.5157 9.31137 12.9986 9.92585M8.80755 9.25852C8.63626 9.44235 8.4297 9.58979 8.20019 9.69205C7.97068 9.79431 7.72292 9.8493 7.4717 9.85373C7.22048 9.85816 6.97094 9.81195 6.73797 9.71785C6.50499 9.62375 6.29336 9.48369 6.11569 9.30602C5.93803 9.12835 5.79796 8.91672 5.70386 8.68374C5.60976 8.45077 5.56355 8.20123 5.56798 7.95001C5.57241 7.69879 5.6274 7.45103 5.72966 7.22152C5.83192 6.99201 5.97936 6.78545 6.16319 6.61416" stroke="#00CF80" stroke-linecap="round" stroke-linejoin="round"/>
<path d="M0.625 1.07597L14.3457 14.7967" stroke="#00CF80" stroke-linecap="round" stroke-linejoin="round"/>
</g>
<defs>
<clipPath id="clip0_1587_40974">
<rect width="15" height="15" fill="white" transform="translate(0 0.43634)"/>
</clipPath>
</defs>
</svg>
