<svg width="13" height="13" viewBox="0 0 13 13" fill="none" xmlns="http://www.w3.org/2000/svg">
<path d="M11.817 6.10015C12.0936 5.83051 12.1913 5.43482 12.0719 5.06743C11.9525 4.70005 11.6409 4.43734 11.2587 4.38178L8.34201 3.95795C8.33667 3.95718 8.3321 3.95382 8.32973 3.94903L7.02543 1.30613C6.85452 0.959727 6.50833 0.744483 6.122 0.744483C5.73567 0.744483 5.38954 0.959727 5.21862 1.30613L3.91427 3.94903C3.91191 3.95382 3.90734 3.95713 3.90199 3.95795L0.985373 4.38178C0.60312 4.43734 0.291514 4.70005 0.172135 5.06743C0.052757 5.43482 0.15044 5.83051 0.427026 6.10015L2.53751 8.15739C2.54137 8.16114 2.54313 8.16653 2.54219 8.17182L2.04397 11.0767C1.97867 11.4574 2.1323 11.835 2.44478 12.062C2.75733 12.2892 3.16386 12.3185 3.50575 12.1387L6.11446 10.7673C6.11919 10.7647 6.12492 10.7648 6.12966 10.7673L8.73836 12.1387C8.88709 12.2169 9.04798 12.2555 9.20811 12.2555C9.41608 12.2555 9.62274 12.1903 9.79927 12.062C10.1118 11.835 10.2653 11.4574 10.2001 11.0767L9.70187 8.17182C9.70093 8.16653 9.70275 8.16114 9.70655 8.15739L11.817 6.10015ZM8.72492 8.33932L9.22314 11.2442C9.22446 11.2519 9.22485 11.2542 9.21664 11.2601C9.20844 11.2661 9.20635 11.265 9.19946 11.2613L6.5907 9.88981C6.29721 9.73558 5.94673 9.73558 5.65313 9.88981L3.04443 11.2613C3.03755 11.2649 3.03545 11.266 3.02725 11.2601C3.01905 11.2541 3.01943 11.2518 3.02075 11.2442L3.51897 8.33927C3.57502 8.01241 3.46671 7.67911 3.22922 7.44756L1.11885 5.39038C1.11329 5.38493 1.11158 5.38333 1.11472 5.3737C1.11786 5.36406 1.12017 5.36373 1.12788 5.36257L4.0445 4.93875C4.37273 4.89106 4.65631 4.68507 4.80306 4.38767L6.10741 1.74472C6.11088 1.73778 6.11187 1.73563 6.122 1.73563C6.13213 1.73563 6.13318 1.73778 6.13659 1.74472L7.44095 4.38767C7.58775 4.68507 7.87127 4.89112 8.1995 4.93875L11.1161 5.36257C11.1238 5.36373 11.1261 5.36406 11.1293 5.3737C11.1324 5.38333 11.1307 5.38498 11.1252 5.39038L9.01467 7.44762C8.77723 7.67911 8.66892 8.01246 8.72492 8.33932Z" fill="#0E80E1"/>
</svg>
