<svg width="12" height="12" viewBox="0 0 12 12" fill="none" xmlns="http://www.w3.org/2000/svg">
<path d="M11.695 5.60015C11.9715 5.3305 12.0692 4.93481 11.9499 4.56743C11.8305 4.20004 11.5189 3.93733 11.1366 3.88177L8.21994 3.45794C8.2146 3.45717 8.21003 3.45382 8.20766 3.44902L6.90336 0.806128C6.73245 0.459721 6.38626 0.244476 5.99993 0.244476C5.6136 0.244476 5.26747 0.459721 5.09655 0.806128L3.7922 3.44902C3.78983 3.45382 3.78527 3.45712 3.77992 3.45794L0.863303 3.88177C0.48105 3.93733 0.169443 4.20004 0.050065 4.56743C-0.0693133 4.93481 0.0283699 5.3305 0.304955 5.60015L2.41544 7.65739C2.4193 7.66113 2.42106 7.66653 2.42012 7.67181L1.92191 10.5767C1.8566 10.9574 2.01023 11.335 2.32271 11.562C2.63526 11.7892 3.04179 11.8184 3.38368 11.6387L5.99239 10.2672C5.99712 10.2647 6.00285 10.2648 6.00759 10.2672L8.61629 11.6387C8.76502 11.7169 8.92591 11.7555 9.08604 11.7555C9.29401 11.7555 9.50067 11.6903 9.6772 11.562C9.98969 11.335 10.1433 10.9574 10.078 10.5766L9.5798 7.67181C9.57886 7.66653 9.58068 7.66113 9.58447 7.65739L11.695 5.60015Z" fill="#0E80E1"/>
</svg>
