<svg width="18" height="13" viewBox="0 0 18 13" fill="none" xmlns="http://www.w3.org/2000/svg">
<path d="M11.6679 6.40894C11.6679 7.0927 11.3856 7.74845 10.8831 8.23195C10.3807 8.71544 9.6992 8.98706 8.98861 8.98706C8.27802 8.98706 7.59653 8.71544 7.09407 8.23195C6.59161 7.74845 6.30933 7.0927 6.30933 6.40894C6.30933 5.72517 6.59161 5.06942 7.09407 4.58593C7.59653 4.10243 8.27802 3.83081 8.98861 3.83081C9.6992 3.83081 10.3807 4.10243 10.8831 4.58593C11.3856 5.06942 11.6679 5.72517 11.6679 6.40894Z" fill="#00CF80"/>
<path d="M0.414917 6.40894C0.414917 6.40894 3.63006 0.737061 8.98862 0.737061C14.3472 0.737061 17.5623 6.40894 17.5623 6.40894C17.5623 6.40894 14.3472 12.0808 8.98862 12.0808C3.63006 12.0808 0.414917 6.40894 0.414917 6.40894ZM8.98862 10.0183C9.98344 10.0183 10.9375 9.63804 11.641 8.96115C12.3444 8.28426 12.7396 7.3662 12.7396 6.40894C12.7396 5.45167 12.3444 4.53361 11.641 3.85672C10.9375 3.17983 9.98344 2.79956 8.98862 2.79956C7.99379 2.79956 7.03971 3.17983 6.33627 3.85672C5.63282 4.53361 5.23762 5.45167 5.23762 6.40894C5.23762 7.3662 5.63282 8.28426 6.33627 8.96115C7.03971 9.63804 7.99379 10.0183 8.98862 10.0183Z" fill="#00CF80"/>
</svg>
