<svg width="13" height="14" viewBox="0 0 13 14" fill="none" xmlns="http://www.w3.org/2000/svg">
<g opacity="0.8">
<path fill-rule="evenodd" clip-rule="evenodd" d="M6.11673 2.43415C3.92757 2.43415 2.1529 4.20882 2.1529 6.39798C2.1529 8.58715 3.92757 10.3618 6.11673 10.3618C8.3059 10.3618 10.0806 8.58715 10.0806 6.39798C10.0806 4.20882 8.3059 2.43415 6.11673 2.43415ZM0.44873 6.39798C0.44873 3.26763 2.98638 0.72998 6.11673 0.72998C9.24709 0.72998 11.7847 3.26763 11.7847 6.39798C11.7847 9.52834 9.24709 12.066 6.11673 12.066C2.98638 12.066 0.44873 9.52834 0.44873 6.39798Z" fill="white"/>
<path fill-rule="evenodd" clip-rule="evenodd" d="M8.91534 9.19671C9.2481 8.86395 9.78761 8.86395 10.1204 9.19671L12.739 11.8154C13.0718 12.1481 13.0718 12.6876 12.739 13.0204C12.4063 13.3532 11.8668 13.3532 11.534 13.0204L8.91534 10.4017C8.58258 10.069 8.58258 9.52947 8.91534 9.19671Z" fill="white"/>
</g>
</svg>
