<svg width="13" height="14" viewBox="0 0 13 14" fill="none" xmlns="http://www.w3.org/2000/svg">
<g opacity="0.8">
<path fill-rule="evenodd" clip-rule="evenodd" d="M6.11673 2.43418C3.92757 2.43418 2.1529 4.20885 2.1529 6.39801C2.1529 8.58718 3.92757 10.3619 6.11673 10.3619C8.3059 10.3619 10.0806 8.58718 10.0806 6.39801C10.0806 4.20885 8.3059 2.43418 6.11673 2.43418ZM0.44873 6.39801C0.44873 3.26766 2.98638 0.730011 6.11673 0.730011C9.24709 0.730011 11.7847 3.26766 11.7847 6.39801C11.7847 9.52837 9.24709 12.066 6.11673 12.066C2.98638 12.066 0.44873 9.52837 0.44873 6.39801Z" fill="#02194A"/>
<path fill-rule="evenodd" clip-rule="evenodd" d="M8.91534 9.19668C9.2481 8.86392 9.78761 8.86392 10.1204 9.19668L12.739 11.8153C13.0718 12.1481 13.0718 12.6876 12.739 13.0204C12.4063 13.3531 11.8668 13.3531 11.534 13.0204L8.91534 10.4017C8.58258 10.069 8.58258 9.52944 8.91534 9.19668Z" fill="#02194A"/>
</g>
</svg>
