<svg width="107" height="29" viewBox="0 0 107 29" fill="none" xmlns="http://www.w3.org/2000/svg">
<g clip-path="url(#clip0)">
<path d="M23.0904 14.591C23.3346 14.4689 23.6399 14.3468 23.8841 14.2247C27.5472 12.1489 28.8293 7.50892 26.7536 3.90682C24.6778 0.243659 20.0378 -1.03845 16.4357 1.03734C13.7493 2.56366 12.3451 5.49419 12.6504 8.42471C10.3304 6.65419 7.09461 6.34892 4.34725 7.87524C0.684089 9.95103 -0.598016 14.591 1.47777 18.1931C3.55356 21.8563 8.19356 23.1384 11.7957 21.0626C11.9788 20.9405 12.223 20.8184 12.4062 20.6963C12.223 22.2226 12.5283 23.81 13.322 25.2752C15.3978 28.9384 20.0378 30.2205 23.6399 28.1447C27.303 26.0689 28.5851 21.4289 26.5093 17.8268C25.7157 16.2395 24.4946 15.2016 23.0904 14.591ZM10.4525 18.6205C8.13251 19.9637 5.14093 19.1089 3.85882 16.7889C2.51567 14.4689 3.3704 11.4773 5.6904 10.1952C8.0104 8.85208 11.002 9.70682 12.2841 12.0268C13.6272 14.3468 12.7725 17.3384 10.4525 18.6205ZM17.7788 3.35734C20.0988 2.01419 23.0904 2.86892 24.3725 5.18892C25.7157 7.50892 24.8609 10.5005 22.5409 11.7826C20.2209 13.1258 17.2293 12.271 15.9472 9.95103C14.6041 7.63103 15.4588 4.7005 17.7788 3.35734ZM15.2146 13.6752L15.1536 12.8205L15.8251 13.37C16.2525 13.6752 16.6799 13.9194 17.1683 14.1637L17.962 14.53L17.1683 14.8963C16.863 15.0184 16.6188 15.1405 16.4357 15.2626C16.2525 15.3847 16.0693 15.5068 15.8251 15.6289L15.1536 16.0563L15.2757 15.2016C15.2757 14.6521 15.2757 14.1637 15.2146 13.6752ZM22.3578 25.6416C20.0378 26.9847 17.0462 26.13 15.7641 23.81C14.4209 21.49 15.2757 18.4984 17.5957 17.2163C19.9157 15.8731 22.9072 16.7279 24.1893 19.0479C25.4715 21.3679 24.6778 24.3594 22.3578 25.6416Z" fill="#0E80E1"/>
<path d="M33.3462 3.1748H36.582C37.9862 3.1748 39.0241 3.35796 39.7567 3.78533C40.4894 4.15165 40.8557 4.88428 40.8557 5.86112C40.8557 6.47165 40.7336 6.96007 40.4283 7.38744C40.123 7.8148 39.7567 8.05901 39.2073 8.12007V8.18112C39.5736 8.24217 39.8788 8.36428 40.123 8.54744C40.4283 8.73059 40.6115 8.9748 40.7946 9.28007C40.9778 9.58533 41.0388 10.0738 41.0388 10.6232C41.0388 11.539 40.6725 12.3327 40.0009 12.8211C39.3294 13.3706 38.3525 13.6148 37.1925 13.6148H33.2852V3.1748H33.3462ZM35.5441 7.32638H36.8262C37.4978 7.32638 37.9252 7.20428 38.1694 7.02112C38.4136 6.83796 38.5357 6.5327 38.5357 6.10533C38.5357 5.67796 38.4136 5.43375 38.1083 5.25059C37.803 5.06744 37.3757 5.00638 36.7041 5.00638H35.5441V7.32638ZM35.5441 9.09691V11.8443H37.0094C37.6809 11.8443 38.1083 11.7222 38.4136 11.478C38.6578 11.2338 38.7799 10.8674 38.7799 10.4401C38.7799 10.0738 38.6578 9.70744 38.3525 9.52428C38.1083 9.28007 37.6199 9.15796 36.8873 9.15796H35.5441V9.09691Z" fill="#02194A"/>
<path d="M45.5573 13.6148H43.3594V2.50317H45.5573V13.6148Z" fill="#02194A"/>
<path d="M55.5085 5.67798V13.6759H53.86L53.5548 12.638H53.4327C53.1885 13.0653 52.8221 13.3706 52.3948 13.5538C51.9674 13.7369 51.479 13.859 50.9906 13.859C50.1358 13.859 49.4643 13.6148 48.9148 13.1875C48.4264 12.699 48.1211 11.9664 48.1211 10.9896V5.67798H50.319V10.318C50.319 10.8675 50.4411 11.2948 50.6243 11.6001C50.8074 11.9053 51.1737 12.0275 51.6011 12.0275C52.2727 12.0275 52.7 11.7832 52.9443 11.3559C53.1885 10.9285 53.3106 10.2569 53.3106 9.40219V5.67798H55.5085Z" fill="#02194A"/>
<path d="M61.4298 5.49463C62.5287 5.49463 63.3835 5.79989 64.0551 6.41042C64.7266 7.02094 65.0319 7.93673 65.0319 9.09673V10.1346H59.9035C59.9035 10.7452 60.0866 11.2336 60.4529 11.5999C60.8193 11.9662 61.3077 12.1494 61.9182 12.1494C62.4066 12.1494 62.8951 12.0883 63.3224 11.9662C63.7498 11.8441 64.1772 11.722 64.6045 11.4778V13.1873C64.1772 13.3704 63.8108 13.5536 63.3835 13.6146C62.9561 13.7367 62.4066 13.7367 61.7961 13.7367C61.0024 13.7367 60.2698 13.6146 59.6593 13.3094C59.0487 13.0041 58.5603 12.5767 58.194 11.9662C57.8277 11.3557 57.6445 10.623 57.6445 9.70726C57.6445 8.79147 57.8277 7.99779 58.133 7.38726C58.4382 6.77673 58.8656 6.28831 59.4761 5.98305C60.0256 5.67779 60.6972 5.49463 61.4298 5.49463ZM61.4298 7.082C61.0024 7.082 60.6361 7.2041 60.3919 7.50937C60.1477 7.81463 59.9645 8.18094 59.9035 8.79147H62.9561C62.9561 8.30305 62.834 7.93673 62.5898 7.57042C62.3456 7.2041 61.9793 7.082 61.4298 7.082Z" fill="#02194A"/>
<path d="M69.3048 2.50317V5.06739C69.3048 5.37265 69.3048 5.67791 69.3048 5.98318C69.3048 6.28844 69.2438 6.53265 69.2438 6.65475H69.3048C69.549 6.34949 69.7932 6.04423 70.1596 5.80002C70.5259 5.55581 71.0143 5.4337 71.5638 5.4337C72.4796 5.4337 73.2122 5.80002 73.7617 6.4716C74.3112 7.14318 74.6164 8.18107 74.6164 9.52423C74.6164 10.8674 74.3112 11.9053 73.7617 12.6379C73.2122 13.3095 72.4796 13.6758 71.5638 13.6758C70.9532 13.6758 70.5259 13.5537 70.1596 13.3705C69.7932 13.1874 69.549 12.9432 69.3048 12.6379H69.1827L68.8164 13.4927H67.168V2.50317H69.3048ZM70.8922 7.26528C70.3427 7.26528 69.9153 7.44844 69.6711 7.81475C69.4269 8.18107 69.3048 8.73054 69.3048 9.40212V9.64633C69.3048 10.44 69.4269 10.9895 69.6711 11.4169C69.9153 11.8442 70.3427 12.0274 70.8922 12.0274C71.3196 12.0274 71.6859 11.8442 71.9301 11.4169C72.1743 10.9895 72.2964 10.379 72.2964 9.64633C72.2964 8.85265 72.1743 8.30317 71.869 7.87581C71.6859 7.44844 71.3806 7.26528 70.8922 7.26528Z" fill="#02194A"/>
<path d="M80.0509 5.49463C81.1498 5.49463 82.0046 5.79989 82.6762 6.41042C83.3477 7.02094 83.653 7.93673 83.653 9.09673V10.1346H78.5246C78.5246 10.7452 78.7077 11.2336 79.0741 11.5999C79.4404 11.9662 79.9288 12.1494 80.5393 12.1494C81.0277 12.1494 81.5162 12.0883 81.9435 11.9662C82.3709 11.8441 82.7983 11.722 83.2256 11.4778V13.1873C82.7983 13.3704 82.432 13.5536 82.0046 13.6146C81.5772 13.7367 81.0277 13.7367 80.4172 13.7367C79.6235 13.7367 78.8909 13.6146 78.2804 13.3094C77.6698 13.0041 77.1814 12.5767 76.8151 11.9662C76.4488 11.3557 76.2656 10.623 76.2656 9.70726C76.2656 8.79147 76.4488 7.99779 76.754 7.38726C77.0593 6.77673 77.4867 6.28831 78.0972 5.98305C78.6467 5.67779 79.3183 5.49463 80.0509 5.49463ZM80.0509 7.082C79.6235 7.082 79.2572 7.2041 79.013 7.50937C78.7688 7.81463 78.5856 8.18094 78.5246 8.79147H81.5772C81.5772 8.30305 81.4551 7.93673 81.2109 7.57042C80.9667 7.2041 80.6004 7.082 80.0509 7.082Z" fill="#02194A"/>
<path d="M90.2484 5.49463C90.3705 5.49463 90.4926 5.49463 90.6147 5.49463C90.7368 5.49463 90.8589 5.49463 90.981 5.55568L90.7978 7.63147C90.7368 7.63147 90.6147 7.57042 90.4926 7.57042C90.3705 7.57042 90.2484 7.57042 90.1263 7.57042C89.7599 7.57042 89.3936 7.63147 89.0884 7.75358C88.7221 7.87568 88.4778 8.11989 88.2336 8.3641C88.0505 8.66936 87.9284 9.03568 87.9284 9.58515V13.6757H85.7305V5.67779H87.3789L87.6842 7.02094H87.8063C88.0505 6.59358 88.3557 6.28831 88.7831 5.98305C89.2105 5.67779 89.6989 5.49463 90.2484 5.49463Z" fill="#02194A"/>
<path d="M97.2054 5.49463C97.3275 5.49463 97.4496 5.49463 97.5717 5.49463C97.6938 5.49463 97.8159 5.49463 97.938 5.55568L97.7549 7.63147C97.6938 7.63147 97.5717 7.57042 97.4496 7.57042C97.3275 7.57042 97.2054 7.57042 97.0833 7.57042C96.717 7.57042 96.3507 7.63147 96.0454 7.75358C95.6791 7.87568 95.4349 8.11989 95.1907 8.3641C95.0075 8.66936 94.8854 9.03568 94.8854 9.58515V13.6757H92.6875V5.67779H94.3359L94.6412 7.02094H94.7633C95.0075 6.59358 95.3128 6.28831 95.7401 5.98305C96.1675 5.67779 96.6559 5.49463 97.2054 5.49463Z" fill="#02194A"/>
<path d="M98.6133 5.67798H100.994L102.521 10.1348C102.582 10.379 102.643 10.5622 102.704 10.8064C102.765 11.0506 102.765 11.2948 102.765 11.539H102.826C102.826 11.2948 102.887 11.0506 102.948 10.8064C103.009 10.5622 103.07 10.379 103.131 10.1348L104.596 5.67798H106.916L103.559 14.6527C103.253 15.5074 102.826 16.118 102.215 16.5453C101.605 16.9727 100.994 17.1559 100.201 17.1559C99.9564 17.1559 99.7122 17.1559 99.5291 17.0948C99.3459 17.0948 99.2238 17.0338 99.0406 17.0338V15.3243C99.1628 15.3243 99.2849 15.3853 99.407 15.3853C99.5901 15.3853 99.7122 15.3853 99.8954 15.3853C100.323 15.3853 100.689 15.2632 100.994 14.958C101.239 14.6527 101.483 14.3474 101.605 13.9811L101.727 13.6148L98.6133 5.67798Z" fill="#02194A"/>
<path d="M37.9866 25.8253L34.8119 16.9726H34.7509C34.7509 17.1558 34.8119 17.461 34.8119 17.7663C34.8119 18.0716 34.8119 18.4379 34.873 18.8042C34.873 19.1705 34.873 19.5368 34.873 19.9031V25.7642H33.4688V15.3853H35.7277L38.6582 23.8105H38.7193L41.7719 15.4463H44.0308V25.8863H42.5045V19.9031C42.5045 19.5368 42.5045 19.2316 42.5045 18.8653C42.5045 18.4989 42.5045 18.1937 42.5656 17.8274C42.5656 17.5221 42.5656 17.2168 42.6266 17.0337H42.5656L39.3298 25.8863H37.9866V25.8253Z" fill="#02194A"/>
<path d="M50.0747 17.8274C51.0516 17.8274 51.7842 18.0716 52.2726 18.499C52.7611 18.9263 53.0053 19.5979 53.0053 20.5137V25.8253H51.9063L51.6011 24.7263H51.54C51.1737 25.1537 50.8684 25.459 50.4411 25.6421C50.0747 25.8253 49.5253 25.9474 48.9148 25.9474C48.1821 25.9474 47.6327 25.7642 47.1442 25.3979C46.6558 25.0316 46.4727 24.4211 46.4727 23.5663C46.4727 22.7727 46.7779 22.1621 47.3884 21.7348C47.999 21.3074 48.9148 21.1242 50.1969 21.0632L51.54 21.0021V20.5748C51.54 20.0253 51.4179 19.5979 51.1737 19.3537C50.9295 19.1095 50.5632 18.9874 50.0747 18.9874C49.6474 18.9874 49.2811 19.0484 48.9148 19.1706C48.5484 19.2927 48.1821 19.4148 47.8769 19.5979L47.3884 18.499C47.7548 18.3158 48.1821 18.1327 48.6705 18.0106C49.0369 17.8884 49.5863 17.8274 50.0747 17.8274ZM51.479 22.04H50.4411C49.5253 22.1011 48.9147 22.2232 48.5484 22.4674C48.1821 22.7116 48.06 23.0779 48.06 23.5663C48.06 23.9937 48.1821 24.299 48.4263 24.4821C48.6705 24.6653 48.9758 24.7874 49.4032 24.7874C50.0137 24.7874 50.5021 24.6042 50.9295 24.299C51.3568 23.9327 51.54 23.4442 51.54 22.7727V22.04H51.479Z" fill="#02194A"/>
<path d="M59.6613 17.8274C59.9665 17.8274 60.2718 17.8274 60.516 17.8884L60.3328 19.3537C60.0886 19.2927 59.8444 19.2316 59.5392 19.2316C59.1118 19.2316 58.7455 19.3537 58.4402 19.5369C58.0739 19.72 57.8297 20.0253 57.5855 20.3916C57.4023 20.7579 57.2802 21.1853 57.2802 21.7348V25.8863H55.7539V17.9495H56.975L57.1581 19.3537H57.2802C57.5244 18.9263 57.8297 18.56 58.2571 18.2548C58.6844 17.9495 59.1118 17.8274 59.6613 17.8274Z" fill="#02194A"/>
<path d="M63.8725 14.7136V20.2694C63.8725 20.4526 63.8725 20.6968 63.8725 20.941C63.8725 21.1852 63.8115 21.4294 63.8115 21.6736H63.8725C63.9946 21.5515 64.1167 21.3073 64.2999 21.1241C64.4831 20.8799 64.6662 20.6968 64.7883 20.5136L67.1694 17.9494H68.9399L65.8262 21.3684L69.1841 25.8863H67.3525L64.7273 22.3452L63.8115 23.0778V25.8252H62.2852V14.7136H63.8725Z" fill="#02194A"/>
<path d="M74.0059 17.8274C75.0438 17.8274 75.8375 18.1327 76.448 18.8042C77.0585 19.4148 77.3638 20.3305 77.3638 21.4295V22.2842H72.0522C72.0522 23.0779 72.2964 23.6884 72.6627 24.1158C73.0901 24.5432 73.6396 24.7874 74.3722 24.7874C74.8606 24.7874 75.3491 24.7263 75.7154 24.6653C76.0817 24.5432 76.5091 24.4211 76.9364 24.2379V25.52C76.5091 25.7032 76.1427 25.8253 75.7154 25.9474C75.288 26.0084 74.8606 26.0695 74.3112 26.0695C73.5785 26.0695 72.907 25.9474 72.2964 25.6421C71.6859 25.3369 71.2585 24.9095 70.9533 24.299C70.648 23.6884 70.4648 22.9558 70.4648 22.1011C70.4648 21.1853 70.587 20.4527 70.8922 19.8421C71.1975 19.2316 71.6248 18.7432 72.1133 18.4379C72.6627 18.0106 73.2733 17.8274 74.0059 17.8274ZM74.0059 19.0484C73.4564 19.0484 73.0291 19.2316 72.6627 19.5979C72.2964 19.9642 72.1133 20.4527 72.0522 21.1242H75.7764C75.7764 20.5137 75.5933 20.0253 75.3491 19.5979C75.0438 19.2316 74.6164 19.0484 74.0059 19.0484Z" fill="#02194A"/>
<path d="M82.4337 24.7263C82.861 24.7263 83.2884 24.6653 83.5937 24.5432V25.7032C83.4105 25.7642 83.2274 25.8253 82.9221 25.8863C82.6168 25.9474 82.3726 25.9474 82.0674 25.9474C81.64 25.9474 81.2737 25.8863 80.9074 25.7032C80.5411 25.52 80.2969 25.2758 80.0526 24.9705C79.8084 24.6042 79.7474 24.1158 79.7474 23.4442V19.1095H78.6484V18.4379L79.8084 17.8274L80.3579 16.179H81.3347V17.9495H83.5937V19.1095H81.3347V23.4442C81.3347 23.8716 81.4568 24.1769 81.64 24.4211C81.8232 24.6042 82.1284 24.7263 82.4337 24.7263Z" fill="#02194A"/>
<path d="M90.7975 23.6274C90.7975 24.4211 90.4923 24.9706 89.9428 25.3979C89.3933 25.8253 88.5997 26.0084 87.5618 26.0084C87.0123 26.0084 86.5239 25.9474 86.1575 25.8863C85.7912 25.8253 85.4249 25.7032 85.0586 25.52V24.1769C85.4249 24.36 85.7912 24.4821 86.2796 24.6042C86.7681 24.7263 87.1954 24.7874 87.6228 24.7874C88.2333 24.7874 88.5997 24.6653 88.9049 24.4821C89.1491 24.299 89.2712 24.0548 89.2712 23.7495C89.2712 23.5663 89.2102 23.4442 89.1491 23.2611C89.027 23.139 88.8439 22.9558 88.5997 22.8337C88.3554 22.7116 87.9281 22.5284 87.4396 22.3453C86.9512 22.1621 86.5239 21.979 86.1575 21.7348C85.7912 21.5516 85.547 21.3074 85.3639 21.0021C85.1807 20.6969 85.0586 20.3916 85.0586 19.9642C85.0586 19.2927 85.3639 18.7432 85.9133 18.3769C86.4628 18.0106 87.1954 17.8274 88.1112 17.8274C88.5997 17.8274 89.027 17.8884 89.4544 17.9495C89.8818 18.0105 90.3091 18.1937 90.6754 18.3769L90.187 19.5369C89.8207 19.4148 89.5154 19.2927 89.1491 19.1706C88.7828 19.0484 88.4165 18.9874 88.0502 18.9874C87.0733 18.9874 86.646 19.2927 86.646 19.8421C86.646 20.0253 86.707 20.2084 86.8291 20.3306C86.9512 20.4527 87.1344 20.5748 87.4396 20.7579C87.7449 20.88 88.1112 21.0632 88.5997 21.2463C89.0881 21.4295 89.5154 21.6127 89.8207 21.7958C90.126 21.979 90.4312 22.2232 90.6144 22.5284C90.7365 22.8337 90.7975 23.2 90.7975 23.6274Z" fill="#02194A"/>
</g>
<defs>
<clipPath id="clip0">
<rect width="106.415" height="29" fill="white" transform="translate(0.5)"/>
</clipPath>
</defs>
</svg>
