<svg width="31" height="24" viewBox="0 0 31 24" fill="none" xmlns="http://www.w3.org/2000/svg">
<path d="M30.738 0.412109C30.0236 1.6363 29.3092 2.8605 28.5384 4.17743C28.3128 3.80646 28.1248 3.52824 27.9838 3.24074C27.8052 2.88832 27.589 2.8605 27.2694 3.04598C26.0568 3.75082 24.8442 4.43711 23.6316 5.13267C22.513 5.77259 21.3944 6.42179 20.2664 7.04316C19.975 7.20082 19.8528 7.3863 19.8528 7.72945C19.8716 10.929 19.8528 14.1286 19.8716 17.319C19.8716 17.7456 19.74 18.0053 19.364 18.2093C16.4406 19.8601 13.5172 21.5294 10.6126 23.1988C10.152 23.4585 9.8042 23.4956 9.2966 23.2081C6.4014 21.5294 3.478 19.8972 0.5734 18.2371C0.3666 18.1258 0.188 17.9774 0 17.8476C0 14.1379 0 10.4282 0 6.71856C0.1786 6.598 0.3384 6.44961 0.5264 6.34759C3.4592 4.66896 6.4014 2.99961 9.3248 1.30243C9.7666 1.05203 10.105 1.05203 10.528 1.29316C13.3292 2.89759 16.1398 4.47421 18.9316 6.07864C19.2794 6.28267 19.5144 6.22703 19.8246 6.05082C21.526 5.07703 23.2274 4.11251 24.9382 3.13872C25.662 2.72138 26.3858 2.30404 27.1284 1.87743C26.837 1.3488 26.5832 0.875819 26.32 0.412109C27.7958 0.412109 29.2622 0.412109 30.738 0.412109ZM18.7342 7.97058C18.4616 8.10969 18.2642 8.19316 18.0856 8.30445C15.51 9.76977 12.9344 11.2258 10.3682 12.7004C10.0392 12.8859 9.7384 12.9044 9.4 12.7004C8.6574 12.246 7.8866 11.8379 7.144 11.3835C6.8808 11.2258 6.6834 11.2258 6.4202 11.3742C4.747 12.3016 3.055 13.2105 1.3818 14.1379C1.269 14.2028 1.1468 14.3883 1.1468 14.5182C1.128 15.3343 1.1186 16.1597 1.1468 16.9758C1.1562 17.152 1.2972 17.3839 1.4476 17.4674C4.1736 19.0347 6.9184 20.5928 9.6632 22.1323C9.8042 22.2157 10.0674 22.2436 10.199 22.1601C12.9532 20.6113 15.698 19.044 18.4522 17.4859C18.6966 17.3468 18.7812 17.1799 18.7812 16.8924C18.7718 14.0915 18.7718 11.3 18.7718 8.49921C18.7718 8.35082 18.753 8.20243 18.7342 7.97058ZM18.1702 6.97824C18.0574 6.8855 18.001 6.82985 17.9352 6.79275C15.3502 5.31816 12.7746 3.84356 10.1802 2.38751C10.0486 2.31332 9.7854 2.34114 9.6444 2.42461C6.8996 3.96413 4.1736 5.53146 1.4382 7.08025C1.2032 7.21937 1.1186 7.36775 1.1186 7.62743C1.128 9.25042 1.128 10.8734 1.128 12.4871C1.128 12.6169 1.1468 12.7561 1.1562 12.9415C1.3254 12.8674 1.4476 12.8117 1.5698 12.7468C3.149 11.8936 4.7188 11.0496 6.2886 10.1778C6.6458 9.98308 6.9372 9.9738 7.2944 10.1871C7.9618 10.5952 8.6668 10.929 9.3154 11.3649C9.7384 11.6432 10.0486 11.6061 10.4622 11.3649C12.032 10.4468 13.6206 9.56574 15.1998 8.66614C16.168 8.11896 17.1456 7.56251 18.1702 6.97824Z" fill="#3366FF"/>
</svg>
