<svg width="16" height="17" viewBox="0 0 16 17" fill="none" xmlns="http://www.w3.org/2000/svg">
<path fill-rule="evenodd" clip-rule="evenodd" d="M3.03078 14.9919C4.00861 14.9919 4.8013 14.1992 4.8013 13.2214C4.8013 12.2436 4.00861 11.4509 3.03078 11.4509C2.05294 11.4509 1.26025 12.2436 1.26025 13.2214C1.26025 14.1992 2.05294 14.9919 3.03078 14.9919ZM3.03078 16.1723C4.6605 16.1723 5.98166 14.8511 5.98166 13.2214C5.98166 11.5917 4.6605 10.2705 3.03078 10.2705C1.40105 10.2705 0.079895 11.5917 0.079895 13.2214C0.079895 14.8511 1.40105 16.1723 3.03078 16.1723Z" fill="#0A1533"/>
<path fill-rule="evenodd" clip-rule="evenodd" d="M12.4736 5.54911C13.4514 5.54911 14.2441 4.75641 14.2441 3.77858C14.2441 2.80074 13.4514 2.00805 12.4736 2.00805C11.4958 2.00805 10.7031 2.80074 10.7031 3.77858C10.7031 4.75641 11.4958 5.54911 12.4736 5.54911ZM12.4736 6.72946C14.1033 6.72946 15.4245 5.40831 15.4245 3.77858C15.4245 2.14885 14.1033 0.827698 12.4736 0.827698C10.8439 0.827698 9.52271 2.14885 9.52271 3.77858C9.52271 5.40831 10.8439 6.72946 12.4736 6.72946Z" fill="#0A1533"/>
<path fill-rule="evenodd" clip-rule="evenodd" d="M13.6851 15.9812L0.681477 1.81701L1.55097 1.01876L14.5546 15.183L13.6851 15.9812Z" fill="#0A1533"/>
</svg>
