<svg width="16" height="17" viewBox="0 0 16 17" fill="none" xmlns="http://www.w3.org/2000/svg">
<path fill-rule="evenodd" clip-rule="evenodd" d="M3.03078 14.9919C4.00861 14.9919 4.8013 14.1992 4.8013 13.2214C4.8013 12.2435 4.00861 11.4508 3.03078 11.4508C2.05294 11.4508 1.26025 12.2435 1.26025 13.2214C1.26025 14.1992 2.05294 14.9919 3.03078 14.9919ZM3.03078 16.1723C4.6605 16.1723 5.98166 14.8511 5.98166 13.2214C5.98166 11.5916 4.6605 10.2705 3.03078 10.2705C1.40105 10.2705 0.079895 11.5916 0.079895 13.2214C0.079895 14.8511 1.40105 16.1723 3.03078 16.1723Z" fill="#E7F2FC"/>
<path fill-rule="evenodd" clip-rule="evenodd" d="M12.4736 5.54912C13.4514 5.54912 14.2441 4.75643 14.2441 3.77859C14.2441 2.80076 13.4514 2.00807 12.4736 2.00807C11.4957 2.00807 10.703 2.80076 10.703 3.77859C10.703 4.75643 11.4957 5.54912 12.4736 5.54912ZM12.4736 6.72948C14.1033 6.72948 15.4244 5.40832 15.4244 3.77859C15.4244 2.14887 14.1033 0.827713 12.4736 0.827713C10.8438 0.827713 9.52267 2.14887 9.52267 3.77859C9.52267 5.40832 10.8438 6.72948 12.4736 6.72948Z" fill="#E7F2FC"/>
<path fill-rule="evenodd" clip-rule="evenodd" d="M13.6851 15.9812L0.681492 1.81701L1.55099 1.01876L14.5546 15.183L13.6851 15.9812Z" fill="#E7F2FC"/>
</svg>
