<svg width="16" height="18" viewBox="0 0 16 18" fill="none" xmlns="http://www.w3.org/2000/svg">
<path fill-rule="evenodd" clip-rule="evenodd" d="M3.03078 15.9896C4.00861 15.9896 4.8013 15.1969 4.8013 14.2191C4.8013 13.2412 4.00861 12.4485 3.03078 12.4485C2.05294 12.4485 1.26025 13.2412 1.26025 14.2191C1.26025 15.1969 2.05294 15.9896 3.03078 15.9896ZM3.03078 17.17C4.6605 17.17 5.98166 15.8488 5.98166 14.2191C5.98166 12.5893 4.6605 11.2682 3.03078 11.2682C1.40105 11.2682 0.079895 12.5893 0.079895 14.2191C0.079895 15.8488 1.40105 17.17 3.03078 17.17Z" fill="#00CF80"/>
<path fill-rule="evenodd" clip-rule="evenodd" d="M12.4736 6.54681C13.4514 6.54681 14.2441 5.75412 14.2441 4.77628C14.2441 3.79845 13.4514 3.00575 12.4736 3.00575C11.4957 3.00575 10.703 3.79845 10.703 4.77628C10.703 5.75412 11.4957 6.54681 12.4736 6.54681ZM12.4736 7.72716C14.1033 7.72716 15.4244 6.40601 15.4244 4.77628C15.4244 3.14656 14.1033 1.8254 12.4736 1.8254C10.8438 1.8254 9.52267 3.14656 9.52267 4.77628C9.52267 6.40601 10.8438 7.72716 12.4736 7.72716Z" fill="#00CF80"/>
<path fill-rule="evenodd" clip-rule="evenodd" d="M13.6851 16.9789L0.681492 2.8147L1.55099 2.01645L14.5546 16.1807L13.6851 16.9789Z" fill="#00CF80"/>
</svg>
