<svg width="19" height="18" viewBox="0 0 19 18" fill="none" xmlns="http://www.w3.org/2000/svg">
<circle cx="9.3374" cy="9" r="8.5" stroke="#02194A"/>
<path d="M12.3374 11.0156C12.3374 10.3076 12.0948 9.79161 11.5842 9.41961C11.0863 9.04761 10.6651 8.86761 9.91187 8.62761V5.50761C10.6268 5.61561 11.1246 5.98761 11.3927 6.62361L12.1459 6.22761C11.7374 5.32761 10.9204 4.78761 9.91187 4.67961V3.59961H9.14591V4.66761C8.46932 4.72761 7.89485 4.96761 7.44804 5.36361C7.00123 5.75961 6.78421 6.26361 6.78421 6.88761C6.78421 7.57161 7.00123 8.08761 7.4991 8.43561C7.99698 8.78361 8.37996 8.95161 9.14591 9.20361V12.5156C8.0991 12.4316 7.42251 11.9876 7.10336 11.1716L6.3374 11.5916C6.75868 12.6116 7.76719 13.2476 9.14591 13.3316V14.3996H9.91187V13.3196C10.6268 13.2476 11.214 13.0076 11.6608 12.5876C12.1076 12.1676 12.3374 11.6396 12.3374 11.0156ZM7.67783 6.88761C7.67783 6.10761 8.26506 5.59161 9.14591 5.49561V8.36361C8.1374 7.99161 7.67783 7.61961 7.67783 6.88761ZM9.91187 9.45561C10.9331 9.83961 11.4438 10.2356 11.4438 11.0156C11.4438 11.8196 10.8693 12.3716 9.91187 12.5036V9.45561Z" fill="#02194A" stroke="#02194A" stroke-width="0.3"/>
</svg>
