<svg width="31" height="30" viewBox="0 0 31 30" fill="none" xmlns="http://www.w3.org/2000/svg">
<path fill-rule="evenodd" clip-rule="evenodd" d="M11.0308 20.9919C12.0086 20.9919 12.8013 20.1992 12.8013 19.2214C12.8013 18.2435 12.0086 17.4508 11.0308 17.4508C10.0529 17.4508 9.26025 18.2435 9.26025 19.2214C9.26025 20.1992 10.0529 20.9919 11.0308 20.9919ZM11.0308 22.1723C12.6605 22.1723 13.9817 20.8511 13.9817 19.2214C13.9817 17.5916 12.6605 16.2705 11.0308 16.2705C9.40105 16.2705 8.0799 17.5916 8.0799 19.2214C8.0799 20.8511 9.40105 22.1723 11.0308 22.1723Z" fill="#0A1533"/>
<path fill-rule="evenodd" clip-rule="evenodd" d="M20.4736 11.5491C21.4514 11.5491 22.2441 10.7564 22.2441 9.77858C22.2441 8.80075 21.4514 8.00806 20.4736 8.00806C19.4958 8.00806 18.7031 8.80075 18.7031 9.77858C18.7031 10.7564 19.4958 11.5491 20.4736 11.5491ZM20.4736 12.7295C22.1033 12.7295 23.4245 11.4083 23.4245 9.77858C23.4245 8.14886 22.1033 6.8277 20.4736 6.8277C18.8439 6.8277 17.5227 8.14886 17.5227 9.77858C17.5227 11.4083 18.8439 12.7295 20.4736 12.7295Z" fill="#0A1533"/>
<path fill-rule="evenodd" clip-rule="evenodd" d="M21.6851 21.9812L8.68148 7.81701L9.55097 7.01875L22.5546 21.183L21.6851 21.9812Z" fill="#0A1533"/>
</svg>
