<svg width="31" height="30" viewBox="0 0 31 30" fill="none" xmlns="http://www.w3.org/2000/svg">
<path fill-rule="evenodd" clip-rule="evenodd" d="M11.0308 20.9919C12.0086 20.9919 12.8013 20.1992 12.8013 19.2214C12.8013 18.2436 12.0086 17.4509 11.0308 17.4509C10.0529 17.4509 9.26025 18.2436 9.26025 19.2214C9.26025 20.1992 10.0529 20.9919 11.0308 20.9919ZM11.0308 22.1723C12.6605 22.1723 13.9817 20.8511 13.9817 19.2214C13.9817 17.5917 12.6605 16.2705 11.0308 16.2705C9.40105 16.2705 8.0799 17.5917 8.0799 19.2214C8.0799 20.8511 9.40105 22.1723 11.0308 22.1723Z" fill="#E7F2FC"/>
<path fill-rule="evenodd" clip-rule="evenodd" d="M20.4736 11.5492C21.4514 11.5492 22.2441 10.7565 22.2441 9.77864C22.2441 8.8008 21.4514 8.00811 20.4736 8.00811C19.4958 8.00811 18.7031 8.8008 18.7031 9.77864C18.7031 10.7565 19.4958 11.5492 20.4736 11.5492ZM20.4736 12.7295C22.1033 12.7295 23.4245 11.4084 23.4245 9.77864C23.4245 8.14891 22.1033 6.82776 20.4736 6.82776C18.8439 6.82776 17.5227 8.14891 17.5227 9.77864C17.5227 11.4084 18.8439 12.7295 20.4736 12.7295Z" fill="#E7F2FC"/>
<path fill-rule="evenodd" clip-rule="evenodd" d="M21.6851 21.9812L8.68148 7.81701L9.55097 7.01876L22.5546 21.183L21.6851 21.9812Z" fill="#E7F2FC"/>
</svg>
