<svg width="19" height="18" viewBox="0 0 19 18" fill="none" xmlns="http://www.w3.org/2000/svg">
<circle cx="9.33789" cy="9" r="8.5" stroke="#E7F2FC"/>
<path d="M12.3379 11.0156C12.3379 10.3076 12.0953 9.79161 11.5847 9.41961C11.0868 9.04761 10.6655 8.86761 9.91236 8.62761V5.50761C10.6273 5.61561 11.1251 5.98761 11.3932 6.62361L12.1464 6.22761C11.7379 5.32761 10.9209 4.78761 9.91236 4.67961V3.59961H9.1464V4.66761C8.46981 4.72761 7.89534 4.96761 7.44853 5.36361C7.00172 5.75961 6.7847 6.26361 6.7847 6.88761C6.7847 7.57161 7.00172 8.08761 7.49959 8.43561C7.99746 8.78361 8.38044 8.95161 9.1464 9.20361V12.5156C8.09959 12.4316 7.423 11.9876 7.10385 11.1716L6.33789 11.5916C6.75917 12.6116 7.76768 13.2476 9.1464 13.3316V14.3996H9.91236V13.3196C10.6273 13.2476 11.2145 13.0076 11.6613 12.5876C12.1081 12.1676 12.3379 11.6396 12.3379 11.0156ZM7.67832 6.88761C7.67832 6.10761 8.26555 5.59161 9.1464 5.49561V8.36361C8.13789 7.99161 7.67832 7.61961 7.67832 6.88761ZM9.91236 9.45561C10.9336 9.83961 11.4443 10.2356 11.4443 11.0156C11.4443 11.8196 10.8698 12.3716 9.91236 12.5036V9.45561Z" fill="#E7F2FC" stroke="#E7F2FC" stroke-width="0.3"/>
</svg>
