<svg width="19" height="18" viewBox="0 0 19 18" fill="none" xmlns="http://www.w3.org/2000/svg">
<circle cx="9.3374" cy="9" r="8.5" stroke="#00CF80"/>
<path d="M12.3374 11.0161C12.3374 10.3081 12.0948 9.7921 11.5842 9.4201C11.0863 9.0481 10.6651 8.8681 9.91187 8.6281V5.5081C10.6268 5.6161 11.1246 5.9881 11.3927 6.6241L12.1459 6.2281C11.7374 5.3281 10.9204 4.7881 9.91187 4.6801V3.6001H9.14591V4.6681C8.46932 4.7281 7.89485 4.9681 7.44804 5.3641C7.00123 5.7601 6.78421 6.2641 6.78421 6.8881C6.78421 7.5721 7.00123 8.0881 7.4991 8.4361C7.99698 8.7841 8.37996 8.9521 9.14591 9.2041V12.5161C8.0991 12.4321 7.42251 11.9881 7.10336 11.1721L6.3374 11.5921C6.75868 12.6121 7.76719 13.2481 9.14591 13.3321V14.4001H9.91187V13.3201C10.6268 13.2481 11.214 13.0081 11.6608 12.5881C12.1076 12.1681 12.3374 11.6401 12.3374 11.0161ZM7.67783 6.8881C7.67783 6.1081 8.26506 5.5921 9.14591 5.4961V8.3641C8.1374 7.9921 7.67783 7.6201 7.67783 6.8881ZM9.91187 9.4561C10.9331 9.8401 11.4438 10.2361 11.4438 11.0161C11.4438 11.8201 10.8693 12.3721 9.91187 12.5041V9.4561Z" fill="#00CF80" stroke="#00CF80" stroke-width="0.3"/>
</svg>
