<svg width="31" height="32" viewBox="0 0 31 32" fill="none" xmlns="http://www.w3.org/2000/svg">
<rect x="3.58698" y="29.5185" width="24.3305" height="1.5" rx="0.75" fill="#00CF80"/>
<path d="M14.1415 15.7869C14.4873 16.2493 14.9286 16.6319 15.4353 16.9087C15.942 17.1856 16.5024 17.3502 17.0783 17.3914C17.6543 17.4327 18.2323 17.3496 18.7733 17.1478C19.3143 16.946 19.8056 16.6302 20.2138 16.2218L22.6299 13.8057C23.3634 13.0463 23.7693 12.0291 23.7601 10.9733C23.7509 9.9175 23.3274 8.90754 22.5808 8.16095C21.8342 7.41435 20.8243 6.99086 19.7685 6.98169C18.7127 6.97251 17.6955 7.37839 16.9361 8.1119L15.5508 9.48905" stroke="#00CF80" stroke-width="1.3" stroke-linecap="round" stroke-linejoin="round"/>
<path d="M17.3629 14.1762C17.017 13.7138 16.5758 13.3312 16.069 13.0544C15.5623 12.7775 15.002 12.6129 14.426 12.5717C13.8501 12.5304 13.272 12.6135 12.731 12.8153C12.19 13.0171 11.6987 13.3329 11.2905 13.7413L8.87447 16.1574C8.14096 16.9168 7.73509 17.934 7.74426 18.9898C7.75344 20.0456 8.17693 21.0555 8.92352 21.8021C9.67012 22.5487 10.6801 22.9722 11.7359 22.9814C12.7917 22.9906 13.8089 22.5847 14.5683 21.8512L15.9455 20.474" stroke="#00CF80" stroke-width="1.3" stroke-linecap="round" stroke-linejoin="round"/>
</svg>
