<svg width="18" height="20" viewBox="0 0 18 20" fill="none" xmlns="http://www.w3.org/2000/svg">
<path d="M11.8791 14.7917H6.12907M11.8791 14.7917H16.6707L15.3243 13.4452C15.1435 13.2644 15 13.0496 14.9022 12.8134C14.8044 12.5771 14.754 12.3238 14.7541 12.0681V9.04167C14.7542 7.85231 14.3857 6.69216 13.6992 5.72093C13.0127 4.74971 12.042 4.01517 10.9207 3.61846V3.29167C10.9207 2.78334 10.7188 2.29582 10.3594 1.93638C9.99991 1.57693 9.5124 1.375 9.00407 1.375C8.49574 1.375 8.00822 1.57693 7.64878 1.93638C7.28934 2.29582 7.0874 2.78334 7.0874 3.29167V3.61846C4.85449 4.40813 3.25407 6.5385 3.25407 9.04167V12.069C3.25407 12.5846 3.04899 13.0801 2.68386 13.4452L1.3374 14.7917H6.12907H11.8791ZM11.8791 14.7917V15.75C11.8791 16.5125 11.5762 17.2438 11.037 17.7829C10.4978 18.3221 9.76656 18.625 9.00407 18.625C8.24157 18.625 7.5103 18.3221 6.97114 17.7829C6.43197 17.2438 6.12907 16.5125 6.12907 15.75V14.7917H11.8791Z" stroke="#02194A" stroke-linecap="round" stroke-linejoin="round"/>
</svg>
