<svg width="18" height="18" viewBox="0 0 18 18" fill="none" xmlns="http://www.w3.org/2000/svg">
<path d="M7.14053 9.80537C7.48639 10.2677 7.92765 10.6503 8.43437 10.9272C8.94109 11.204 9.50143 11.3686 10.0774 11.4099C10.6533 11.4511 11.2314 11.368 11.7724 11.1662C12.3134 10.9644 12.8047 10.6486 13.2129 10.2403L15.6289 7.8242C16.3625 7.06474 16.7683 6.04757 16.7592 4.99177C16.75 3.93597 16.3265 2.92601 15.5799 2.17941C14.8333 1.43282 13.8233 1.00933 12.7675 1.00015C11.7117 0.990978 10.6946 1.39685 9.93511 2.13036L8.5499 3.50751" stroke="white" stroke-width="1.3" stroke-linecap="round" stroke-linejoin="round"/>
<path d="M10.3619 8.19465C10.0161 7.73228 9.57482 7.34969 9.0681 7.07284C8.56137 6.796 8.00104 6.63137 7.4251 6.59012C6.84916 6.54887 6.27108 6.63197 5.73008 6.83378C5.18907 7.03559 4.6978 7.35139 4.28958 7.75976L1.87352 10.1758C1.14002 10.9353 0.734142 11.9524 0.743316 13.0082C0.752491 14.0641 1.17598 15.074 1.92258 15.8206C2.66917 16.5672 3.67913 16.9907 4.73493 16.9999C5.79074 17.009 6.80791 16.6032 7.56736 15.8697L8.94452 14.4925" stroke="white" stroke-width="1.3" stroke-linecap="round" stroke-linejoin="round"/>
</svg>
