<svg width="31" height="30" viewBox="0 0 31 30" fill="none" xmlns="http://www.w3.org/2000/svg">
<path d="M14.1415 14.8054C14.4874 15.2677 14.9287 15.6503 15.4354 15.9272C15.9421 16.204 16.5024 16.3686 17.0784 16.4099C17.6543 16.4511 18.2324 16.368 18.7734 16.1662C19.3144 15.9644 19.8057 15.6486 20.2139 15.2403L22.63 12.8242C23.3635 12.0647 23.7693 11.0476 23.7602 9.99177C23.751 8.93597 23.3275 7.92601 22.5809 7.17941C21.8343 6.43282 20.8243 6.00933 19.7685 6.00015C18.7127 5.99098 17.6956 6.39685 16.9361 7.13036L15.5509 8.50751" stroke="#0A1533" stroke-width="1.3" stroke-linecap="round" stroke-linejoin="round"/>
<path d="M17.3629 13.1947C17.0171 12.7323 16.5758 12.3497 16.0691 12.0728C15.5624 11.796 15.002 11.6314 14.4261 11.5901C13.8501 11.5489 13.2721 11.632 12.7311 11.8338C12.1901 12.0356 11.6988 12.3514 11.2906 12.7598L8.8745 15.1758C8.14099 15.9353 7.73512 16.9524 7.74429 18.0083C7.75347 19.0641 8.17696 20.074 8.92355 20.8206C9.67015 21.5672 10.6801 21.9907 11.7359 21.9999C12.7917 22.009 13.8089 21.6032 14.5683 20.8697L15.9455 19.4925" stroke="#0A1533" stroke-width="1.3" stroke-linecap="round" stroke-linejoin="round"/>
</svg>
