<svg width="18" height="18" viewBox="0 0 18 18" fill="none" xmlns="http://www.w3.org/2000/svg">
<path d="M7.14148 9.7869C7.48734 10.2493 7.9286 10.6319 8.43532 10.9087C8.94204 11.1856 9.50238 11.3502 10.0783 11.3914C10.6543 11.4327 11.2323 11.3496 11.7733 11.1478C12.3143 10.946 12.8056 10.6302 13.2138 10.2218L15.6299 7.80574C16.3634 7.04628 16.7693 6.02911 16.7601 4.97331C16.7509 3.9175 16.3274 2.90754 15.5808 2.16095C14.8342 1.41435 13.8243 0.990864 12.7685 0.981689C11.7127 0.972514 10.6955 1.37839 9.93605 2.1119L8.55085 3.48905" stroke="#00CF80" stroke-width="1.3" stroke-linecap="round" stroke-linejoin="round"/>
<path d="M10.3629 8.17619C10.017 7.71381 9.57576 7.33123 9.06904 7.05438C8.56232 6.77754 8.00199 6.61291 7.42604 6.57166C6.8501 6.53041 6.27203 6.61351 5.73102 6.81532C5.19002 7.01713 4.69875 7.33293 4.29053 7.7413L1.87447 10.1574C1.14096 10.9168 0.735088 11.934 0.744262 12.9898C0.753437 14.0456 1.17693 15.0555 1.92352 15.8021C2.67012 16.5487 3.68008 16.9722 4.73588 16.9814C5.79168 16.9906 6.80885 16.5847 7.56831 15.8512L8.94546 14.474" stroke="#00CF80" stroke-width="1.3" stroke-linecap="round" stroke-linejoin="round"/>
</svg>
