<svg width="18" height="20" viewBox="0 0 18 20" fill="none" xmlns="http://www.w3.org/2000/svg">
<path d="M11.8796 14.7917H6.12956M11.8796 14.7917H16.6712L15.3248 13.4452C15.1439 13.2644 15.0005 13.0496 14.9027 12.8134C14.8049 12.5771 14.7545 12.3238 14.7546 12.0681V9.04167C14.7547 7.85231 14.3862 6.69216 13.6997 5.72093C13.0132 4.74971 12.0425 4.01517 10.9212 3.61846V3.29167C10.9212 2.78334 10.7193 2.29582 10.3598 1.93638C10.0004 1.57693 9.51289 1.375 9.00456 1.375C8.49622 1.375 8.00871 1.57693 7.64927 1.93638C7.28982 2.29582 7.08789 2.78334 7.08789 3.29167V3.61846C4.85497 4.40813 3.25456 6.5385 3.25456 9.04167V12.069C3.25456 12.5846 3.04947 13.0801 2.68435 13.4452L1.33789 14.7917H6.12956H11.8796ZM11.8796 14.7917V15.75C11.8796 16.5125 11.5767 17.2438 11.0375 17.7829C10.4983 18.3221 9.76705 18.625 9.00456 18.625C8.24206 18.625 7.51079 18.3221 6.97162 17.7829C6.43246 17.2438 6.12956 16.5125 6.12956 15.75V14.7917H11.8796Z" stroke="#E7F2FC" stroke-linecap="round" stroke-linejoin="round"/>
</svg>
