<svg width="26" height="26" viewBox="0 0 26 26" fill="none" xmlns="http://www.w3.org/2000/svg">
<path d="M11.792 13.541C12.0514 13.8878 12.3824 14.1747 12.7624 14.3824C13.1425 14.59 13.5627 14.7135 13.9947 14.7444C14.4266 14.7753 14.8602 14.713 15.2659 14.5617C15.6717 14.4103 16.0401 14.1735 16.3463 13.8672L18.1583 12.0551C18.7085 11.4855 19.0129 10.7227 19.006 9.93081C18.9991 9.13896 18.6815 8.38149 18.1216 7.82154C17.5616 7.26159 16.8041 6.94398 16.0123 6.9371C15.2204 6.93021 14.4576 7.23462 13.888 7.78475L12.8491 8.81761" stroke="#00CF80" stroke-linecap="round" stroke-linejoin="round"/>
<path d="M14.2081 12.333C13.9487 11.9862 13.6178 11.6992 13.2377 11.4916C12.8577 11.284 12.4374 11.1605 12.0055 11.1296C11.5735 11.0986 11.14 11.161 10.7342 11.3123C10.3285 11.4637 9.96 11.7005 9.65383 12.0068L7.84179 13.8188C7.29166 14.3884 6.98725 15.1513 6.99413 15.9432C7.00101 16.735 7.31863 17.4925 7.87858 18.0524C8.43852 18.6124 9.19599 18.93 9.98785 18.9369C10.7797 18.9438 11.5426 18.6394 12.1122 18.0892L13.145 17.0564" stroke="#00CF80" stroke-linecap="round" stroke-linejoin="round"/>
</svg>
