<svg width="46" height="45" viewBox="0 0 46 45" fill="none" xmlns="http://www.w3.org/2000/svg">
<path d="M45.0231 22.5C45.0231 34.9264 34.9495 45 22.523 45C10.0966 45 0.0229797 34.9264 0.0229797 22.5C0.0229797 10.0736 10.0966 0 22.523 0C34.9495 0 45.0231 10.0736 45.0231 22.5Z" fill="#E7F2FC"/>
<path fill-rule="evenodd" clip-rule="evenodd" d="M23.0775 16.5704C23.0766 18.0053 23.0766 19.4403 23.0774 20.876C24.2095 20.8692 25.3163 20.8587 26.4253 20.8482C27.4606 20.8384 28.4979 20.8286 29.5595 20.8218C29.5592 19.9238 29.5592 19.0261 29.5592 18.1286C29.5592 17.2951 29.5592 16.4618 29.559 15.6284C27.3964 15.9322 25.2353 16.2448 23.0775 16.5704ZM29.5585 14.3662C26.9799 14.7279 24.402 15.102 21.8283 15.4958C21.8267 17.2908 21.8264 19.0858 21.8274 20.8818C21.8276 21.2984 21.8279 21.7151 21.8283 22.1318C22.245 22.1305 22.6617 22.1285 23.0783 22.126C24.2016 22.1191 25.3247 22.1086 26.4476 22.0981C27.9019 22.0845 29.356 22.0708 30.8101 22.0653C30.8092 20.7527 30.8092 19.4407 30.8092 18.1286C30.8092 17.2371 30.8092 16.3455 30.809 15.4538C30.8088 15.0332 30.8086 14.6125 30.8083 14.1919C30.3917 14.2497 29.9751 14.3078 29.5585 14.3662Z" fill="#0E80E1"/>
<path fill-rule="evenodd" clip-rule="evenodd" d="M15.4854 17.6297V20.93C16.2552 20.9279 17.0111 20.9227 17.7698 20.9175C18.4278 20.9129 19.0879 20.9084 19.7608 20.9058C19.7605 20.2802 19.7602 19.6554 19.7599 19.0307C19.7597 18.3682 19.7594 17.7058 19.759 17.0427C18.3304 17.2268 16.9055 17.4198 15.4854 17.6297ZM19.7581 15.7825C17.9143 16.0192 16.0717 16.271 14.2354 16.5542V22.1804C14.5893 22.1813 14.9431 22.1812 15.297 22.1804C15.3598 22.1803 15.4226 22.1801 15.4854 22.1799C16.2547 22.1777 17.024 22.1725 17.7934 22.1674C18.6142 22.1618 19.4351 22.1563 20.2559 22.1544C20.5078 22.1538 20.7598 22.1536 21.0117 22.1538C21.0114 21.737 21.0111 21.3204 21.0108 20.9038C21.0105 20.2794 21.0102 19.6552 21.0099 19.031C21.0096 18.3153 21.0093 17.5996 21.0089 16.8838C21.0086 16.4639 21.0083 16.0441 21.0079 15.6241C20.5913 15.6763 20.1746 15.729 19.7581 15.7825Z" fill="#0E80E1"/>
<path fill-rule="evenodd" clip-rule="evenodd" d="M15.4854 24.1153V27.4139C15.6635 27.4378 15.8417 27.4616 16.02 27.4855C17.2632 27.652 18.5114 27.8191 19.7592 27.9955C19.7594 27.1107 19.7585 26.2263 19.7577 25.3411C19.7573 24.9406 19.7569 24.54 19.7566 24.1391C19.0784 24.1368 18.4155 24.1322 17.7549 24.1276C17.0019 24.1224 16.2518 24.1172 15.4854 24.1153ZM20.3161 22.8904C19.4707 22.8891 18.6254 22.8834 17.7801 22.8777C16.5985 22.8697 15.417 22.8617 14.2354 22.8658V28.5069C14.7771 28.5802 15.3187 28.6528 15.8603 28.7253C17.1601 28.8993 18.4597 29.0733 19.7582 29.2578C20.1749 29.317 20.5915 29.3773 21.0079 29.439C21.0087 29.0179 21.009 28.5967 21.0092 28.1756C21.0095 27.2294 21.0086 26.2832 21.0077 25.337C21.0073 24.9381 21.0069 24.5393 21.0066 24.1404C21.0063 23.7238 21.0061 23.3072 21.0061 22.8906C21.0061 22.8905 21.0061 22.8905 21.0061 22.8904C20.7761 22.8908 20.5461 22.8908 20.3161 22.8904Z" fill="#0E80E1"/>
<path fill-rule="evenodd" clip-rule="evenodd" d="M21.8155 22.9529C21.8162 23.3697 21.817 23.7863 21.8178 24.2029C21.8192 24.8853 21.8206 25.5675 21.8221 26.2496C21.8245 27.3458 21.8269 28.4417 21.8288 29.5376C24.4067 29.8873 26.9846 30.2439 29.5588 30.6221C29.9756 30.6833 30.3923 30.7451 30.8088 30.8076C30.8088 30.3862 30.8089 29.9649 30.8091 29.5437C30.8092 29.0918 30.8094 28.64 30.8097 28.1882C30.8105 26.4427 30.8113 24.6978 30.8088 22.9529H21.8155ZM23.0678 24.2029C23.0692 24.8831 23.0706 25.5632 23.0721 26.2433L23.0721 26.2477C23.0737 26.9804 23.0753 27.7131 23.0768 28.4459C25.2368 28.7408 27.3986 29.0422 29.5591 29.3588C29.5593 28.9677 29.5595 28.5768 29.5597 28.186C29.5603 26.8576 29.5609 25.5304 29.5601 24.2029H23.0678Z" fill="#0E80E1"/>
</svg>
