<svg width="46" height="45" viewBox="0 0 46 45" fill="none" xmlns="http://www.w3.org/2000/svg">
<path d="M45.3257 22.5C45.3257 34.9264 35.2521 45 22.8257 45C10.3992 45 0.325623 34.9264 0.325623 22.5C0.325623 10.0736 10.3992 0 22.8257 0C35.2521 0 45.3257 10.0736 45.3257 22.5Z" fill="#E7F2FC"/>
<path fill-rule="evenodd" clip-rule="evenodd" d="M18.739 11.0989C19.0048 10.9658 19.437 10.9876 19.6567 11.3713L19.6593 11.3759L20.3993 12.7344C21.9855 12.1547 23.7292 12.1807 25.2551 12.735L25.9918 11.3796L25.9953 11.3736C26.2139 10.9967 26.6415 10.9623 26.917 11.1031C27.0584 11.1754 27.1935 11.3062 27.2554 11.4952C27.3196 11.6914 27.2852 11.89 27.194 12.0531L26.4939 13.343C28.2449 14.4221 29.4226 16.2777 29.4226 18.4084H29.3889V18.7423C29.7284 18.3672 30.2196 18.1342 30.7617 18.1342C31.727 18.1342 32.7369 18.8948 32.7369 19.9824V25.6589C32.7369 26.7354 31.7397 27.5165 30.7617 27.5165C30.218 27.5165 29.7276 27.2801 29.3889 26.9028V27.6777C29.3889 28.7554 28.5203 29.6286 27.4482 29.6286H26.9584V32.1237C26.9584 32.7113 26.7317 33.1881 26.3642 33.5125C26.0061 33.8286 25.5434 33.9752 25.0977 33.9748C24.652 33.9744 24.1896 33.827 23.8319 33.5111C23.4647 33.1868 23.2378 32.7105 23.2378 32.1237V29.6286H22.4143V32.1237C22.4143 32.7088 22.1888 33.1843 21.8237 33.5088C21.4678 33.825 21.0073 33.9736 20.5628 33.9748C20.1182 33.9759 19.6566 33.8297 19.2996 33.5131C18.9336 33.1885 18.709 32.7118 18.7086 32.125C18.7086 32.1246 18.7086 32.1241 18.7086 32.1237L18.6962 29.6286H18.2181C17.1381 29.6286 16.2672 28.7577 16.2672 27.6777V26.9025C15.9313 27.2791 15.4423 27.5157 14.8896 27.5157C13.9184 27.5157 12.9144 26.7357 12.9144 25.6582V19.9816C12.9144 18.9113 13.9208 18.1335 14.8896 18.1335C15.4071 18.1335 15.8767 18.349 16.2131 18.6948V18.4084C16.2131 16.2758 17.392 14.4199 19.1563 13.3413L18.4565 12.0482C18.3649 11.8845 18.3305 11.6842 18.3975 11.4866C18.4617 11.297 18.5994 11.1688 18.739 11.0989ZM20.341 13.8374L20.0578 13.9818C18.4951 14.7793 17.4194 16.2298 17.2397 17.9084H28.396C28.2163 16.2297 27.1411 14.7784 25.5913 13.9811L25.2957 13.8291L25.28 13.8221C23.7726 13.1564 21.9536 13.1209 20.3763 13.8217L20.341 13.8374ZM17.2672 19.3844V27.6777C17.2672 28.2054 17.6903 28.6286 18.2181 28.6286H19.6912L19.7086 32.1237C19.7086 32.4405 19.8221 32.6398 19.9631 32.7649C20.1135 32.8982 20.3283 32.9754 20.5602 32.9748C20.7921 32.9742 21.008 32.8958 21.1595 32.7613C21.3017 32.6349 21.4143 32.4358 21.4143 32.1237V28.6286H24.2378V32.1237C24.2378 32.4364 24.3509 32.6353 24.4939 32.7616C24.6462 32.8962 24.8641 32.9746 25.0985 32.9748C25.333 32.975 25.5504 32.897 25.7025 32.7628C25.845 32.637 25.9584 32.438 25.9584 32.1237V28.6286H27.4482C27.9634 28.6286 28.3889 28.2077 28.3889 27.6777V19.3844H17.2672ZM19.0419 15.6877C19.0419 15.1517 19.4672 14.6733 20.0415 14.6733C20.6135 14.6733 21.056 15.1389 21.056 15.6877C21.056 16.2366 20.6135 16.7022 20.0415 16.7022C19.4763 16.7022 19.0419 16.2274 19.0419 15.6877ZM20.0463 15.6737C20.0439 15.677 20.0419 15.6818 20.0419 15.6877C20.0419 15.6897 20.0423 15.6918 20.0433 15.6942C20.0443 15.6967 20.0459 15.6992 20.0477 15.7012C20.0486 15.7008 20.0499 15.7 20.0513 15.6985C20.0548 15.695 20.056 15.6912 20.056 15.6877C20.056 15.6842 20.0548 15.6805 20.0513 15.6769C20.0507 15.6763 20.0501 15.6758 20.0496 15.6754C20.0487 15.6748 20.048 15.6744 20.0474 15.6741C20.0472 15.674 20.0469 15.6739 20.0463 15.6737ZM24.6001 15.6877C24.6001 15.1389 25.0426 14.6733 25.6145 14.6733C26.1801 14.6733 26.6149 15.1475 26.6149 15.6877C26.6149 16.2279 26.1801 16.7022 25.6145 16.7022C25.0438 16.7022 24.6001 16.2371 24.6001 15.6877ZM25.6047 15.6769C25.6012 15.6805 25.6001 15.6842 25.6001 15.6877C25.6001 15.6907 25.6011 15.6945 25.6048 15.6984C25.6065 15.7 25.608 15.7009 25.6089 15.7013C25.6109 15.6992 25.6125 15.6967 25.6136 15.6942C25.6146 15.6917 25.6149 15.6897 25.6149 15.6877C25.6149 15.6857 25.6146 15.6837 25.6136 15.6813C25.6125 15.6787 25.6108 15.6761 25.6088 15.674C25.6088 15.6741 25.6089 15.674 25.6088 15.674C25.608 15.6744 25.6063 15.6753 25.6047 15.6769ZM14.8896 19.1335C14.359 19.1335 13.9144 19.5712 13.9144 19.9816V25.6582C13.9144 26.0801 14.3614 26.5157 14.8896 26.5157C15.364 26.5157 15.7378 26.1412 15.7378 25.6582V19.9816C15.7378 19.5174 15.3538 19.1335 14.8896 19.1335ZM30.7617 19.1342C30.2939 19.1342 29.9135 19.5069 29.9135 19.9824V25.6589C29.9135 26.1384 30.2986 26.5165 30.7617 26.5165C31.2942 26.5165 31.7369 26.082 31.7369 25.6589V19.9824C31.7369 19.561 31.2959 19.1342 30.7617 19.1342Z" fill="#0E80E1"/>
</svg>
