<svg width="46" height="45" viewBox="0 0 46 45" fill="none" xmlns="http://www.w3.org/2000/svg">
<path d="M45.6744 22.5C45.6744 34.9264 35.6007 45 23.1743 45C10.7478 45 0.674225 34.9264 0.674225 22.5C0.674225 10.0736 10.7478 0 23.1743 0C35.6007 0 45.6744 10.0736 45.6744 22.5Z" fill="#E7F2FC"/>
<path fill-rule="evenodd" clip-rule="evenodd" d="M28.6461 23.1322C28.646 23.1304 28.646 23.1285 28.646 23.1266C28.646 23.1247 28.646 23.1228 28.646 23.1208C28.631 21.1805 29.8551 20.012 30.4711 19.5452C30.6425 19.4153 30.7668 19.3398 30.8043 19.317C30.8079 19.3148 30.8108 19.3131 30.8127 19.3118C30.5532 18.932 30.2619 18.6243 29.9583 18.3752C28.8835 17.493 27.6555 17.3443 27.1458 17.3231C26.8023 17.2883 26.4624 17.3133 26.1329 17.3734C25.5461 17.4805 24.9919 17.6992 24.5073 17.8903C24.0269 18.0798 23.615 18.2423 23.3077 18.2423C23.2299 18.2423 23.1479 18.2336 23.062 18.218C22.7699 18.1649 22.4335 18.0315 22.0662 17.8858C22.0406 17.8756 22.0148 17.8654 21.9889 17.8552C21.3854 17.6163 20.7028 17.3576 19.9988 17.371C18.2964 17.3958 16.7279 18.3605 15.8502 19.8839C14.0835 22.9516 15.3993 27.4962 17.121 29.9854C17.9636 31.2023 18.9678 32.5729 20.2866 32.523C20.8767 32.4998 21.2962 32.3211 21.73 32.1364C22.2303 31.9233 22.7495 31.7022 23.5713 31.7022C24.3564 31.7022 24.8528 31.917 25.3302 32.1235C25.786 32.3207 26.2245 32.5104 26.8802 32.4983C28.2465 32.4731 29.1138 31.2562 29.9494 30.0348C30.885 28.6675 31.2884 27.3424 31.3336 27.1941C31.3351 27.1892 31.3362 27.1856 31.3369 27.1833C31.3363 27.183 31.3349 27.1825 31.3326 27.1815C31.2114 27.1324 28.6769 26.106 28.6461 23.1322ZM19.978 16.1212C17.8075 16.1537 15.8495 17.3811 14.7671 19.2599L14.767 19.2601C13.685 21.1389 13.5939 23.3722 13.9465 25.369C14.3008 27.3756 15.1289 29.3027 16.0929 30.6965L16.0933 30.697C16.5075 31.2952 17.0385 32.049 17.6704 32.6413C18.3043 33.2354 19.1963 33.8152 20.3338 33.7721L20.3356 33.772C21.1641 33.7395 21.7776 33.4763 22.2083 33.2915C22.2459 33.2754 22.2821 33.2599 22.3169 33.2452C22.7306 33.0703 23.0518 32.9522 23.5713 32.9522C24.0745 32.9522 24.3727 33.0714 24.8019 33.2569C24.8206 33.265 24.8396 33.2732 24.8589 33.2816C25.3224 33.4827 25.9735 33.7652 26.9033 33.7481L26.9033 33.7481C27.9942 33.7279 28.8342 33.2203 29.4675 32.6282C30.076 32.0593 30.5751 31.3341 30.981 30.7407M19.978 16.1212C20.6906 16.1082 21.3524 16.2905 21.8793 16.4767C21.9484 15.1511 22.6043 13.9441 23.2646 13.1796C24.1857 12.1036 25.7174 11.2823 27.1156 11.2261L28.2814 11.1793L28.4084 12.339C28.5612 13.7345 28.0882 15.0711 27.3809 16.085C28.3065 16.1549 30.4347 16.5426 31.8449 18.6067L32.582 19.6857L31.4713 20.3742C31.4698 20.3752 31.4679 20.3764 31.4657 20.3778C31.3237 20.4651 29.8804 21.3537 29.896 23.115C29.9156 25.234 31.6847 25.974 31.8336 26.0363C31.8375 26.038 31.8403 26.0391 31.8419 26.0398L32.8631 26.4909L32.53 27.5561C32.5369 27.534 32.5145 27.607 32.5019 27.6466C32.484 27.7029 32.4594 27.7782 32.4276 27.8698C32.3642 28.0527 32.2722 28.3007 32.1484 28.5933C31.902 29.1754 31.5232 29.9484 30.9811 30.7407M25.5917 16.2102C25.7877 16.0458 25.9666 15.8658 26.123 15.6763C26.57 15.1352 26.9237 14.4587 27.0876 13.7347C27.1445 13.4832 27.1785 13.2261 27.1856 12.9669C27.19 12.8034 27.1838 12.6392 27.1658 12.4751C27.0388 12.4802 26.9084 12.4947 26.776 12.5178C26.4998 12.566 26.2152 12.6518 25.9349 12.7683C25.283 13.0394 24.6549 13.4768 24.2124 13.9946C23.5913 14.7128 23.044 15.844 23.1331 16.9489C23.1371 16.998 23.1423 17.047 23.1488 17.0959C23.2018 17.1 23.2547 17.1025 23.3077 17.1033C23.6438 17.1087 23.9801 17.05 24.3039 16.942C24.3313 16.9329 24.3585 16.9235 24.3857 16.9136C24.8231 16.7556 25.2357 16.5087 25.5917 16.2102Z" fill="#0E80E1"/>
</svg>
