<svg width="46" height="45" viewBox="0 0 46 45" fill="none" xmlns="http://www.w3.org/2000/svg">
<path d="M23.4935 37.2238C23.4322 37.2238 23.3812 37.2238 23.3199 37.2238C17.7239 37.1319 13.7822 32.4039 13.6188 32.1996L15.2016 30.9027C15.2323 30.9436 18.7247 35.11 23.371 35.1814C23.4118 35.1814 23.4527 35.1814 23.4935 35.1814C26.2404 35.1814 28.9159 33.7314 31.4178 30.8823L32.9495 32.2303C30.029 35.5388 26.8531 37.2238 23.4935 37.2238Z" fill="#4BAD4D"/>
<path fill-rule="evenodd" clip-rule="evenodd" d="M23.2894 2.4022C12.0946 2.4022 3.01929 11.4775 3.01929 22.6723C3.01929 33.8672 12.0946 42.9425 23.2894 42.9425C34.4843 42.9425 43.5596 33.8672 43.5596 22.6723C43.5596 11.4775 34.4843 2.4022 23.2894 2.4022ZM0.976959 22.6723C0.976959 10.3495 10.9666 0.359863 23.2894 0.359863C35.6123 0.359863 45.6019 10.3495 45.6019 22.6723C45.6019 34.9952 35.6123 44.9848 23.2894 44.9848C10.9666 44.9848 0.976959 34.9952 0.976959 22.6723Z" fill="#4BAD4D"/>
<path d="M14.8154 22.6729C16.4114 22.6729 17.7053 20.6932 17.7053 18.2512C17.7053 15.8092 16.4114 13.8296 14.8154 13.8296C13.2193 13.8296 11.9254 15.8092 11.9254 18.2512C11.9254 20.6932 13.2193 22.6729 14.8154 22.6729Z" fill="#4BAD4D"/>
<path d="M31.041 22.6729C32.6371 22.6729 33.9309 20.6932 33.9309 18.2512C33.9309 15.8092 32.6371 13.8296 31.041 13.8296C29.445 13.8296 28.1512 15.8092 28.1512 18.2512C28.1512 20.6932 29.445 22.6729 31.041 22.6729Z" fill="#4BAD4D"/>
</svg>
