<svg width="46" height="45" viewBox="0 0 46 45" fill="none" xmlns="http://www.w3.org/2000/svg">
<path fill-rule="evenodd" clip-rule="evenodd" d="M23.3024 2.4022C12.1075 2.4022 3.03226 11.4775 3.03226 22.6723C3.03226 33.8672 12.1075 42.9425 23.3024 42.9425C34.4973 42.9425 43.5726 33.8672 43.5726 22.6723C43.5726 11.4775 34.4973 2.4022 23.3024 2.4022ZM0.989929 22.6723C0.989929 10.3495 10.9796 0.359863 23.3024 0.359863C35.6253 0.359863 45.6149 10.3495 45.6149 22.6723C45.6149 34.9952 35.6253 44.9848 23.3024 44.9848C10.9796 44.9848 0.989929 34.9952 0.989929 22.6723Z" fill="#90C947"/>
<path d="M14.8283 22.6729C16.4244 22.6729 17.7182 20.6932 17.7182 18.2512C17.7182 15.8092 16.4244 13.8296 14.8283 13.8296C13.2323 13.8296 11.9384 15.8092 11.9384 18.2512C11.9384 20.6932 13.2323 22.6729 14.8283 22.6729Z" fill="#90C947"/>
<path d="M31.0602 22.6729C32.6562 22.6729 33.9501 20.6932 33.9501 18.2512C33.9501 15.8092 32.6562 13.8296 31.0602 13.8296C29.4641 13.8296 28.1703 15.8092 28.1703 18.2512C28.1703 20.6932 29.4641 22.6729 31.0602 22.6729Z" fill="#90C947"/>
<path d="M23.2697 35.6008C21.8298 35.6008 20.5431 35.417 19.4505 35.1719C16.05 34.3958 13.8953 32.8436 13.8034 32.7824L15.0084 31.1281L14.4059 31.9552L15.0084 31.1281C15.0288 31.1383 16.969 32.5271 19.9917 33.2011C23.9947 34.0895 27.916 33.3849 31.6534 31.0872L32.7257 32.8232C29.2741 34.937 26.0064 35.6008 23.2697 35.6008Z" fill="#90C947"/>
</svg>
