<svg width="45" height="45" viewBox="0 0 45 45" fill="none" xmlns="http://www.w3.org/2000/svg">
<path d="M14.3158 36.8777L12.784 35.5298C15.7454 32.1599 18.9825 30.475 22.4136 30.5363C28.0096 30.6282 31.9513 35.3562 32.1147 35.5604L30.5319 36.8573C30.5013 36.8164 27.0089 32.6501 22.3626 32.5786C22.3217 32.5786 22.2809 32.5786 22.24 32.5786C19.4931 32.5786 16.8279 34.0185 14.3158 36.8777Z" fill="#F23B36"/>
<path fill-rule="evenodd" clip-rule="evenodd" d="M22.4307 2.40221C11.2358 2.40221 2.1605 11.4775 2.1605 22.6724C2.1605 33.8673 11.2358 42.9425 22.4307 42.9425C33.6255 42.9425 42.7008 33.8673 42.7008 22.6724C42.7008 11.4775 33.6255 2.40221 22.4307 2.40221ZM0.118164 22.6724C0.118164 10.3495 10.1078 0.359879 22.4307 0.359879C34.7535 0.359879 44.7431 10.3495 44.7431 22.6724C44.7431 34.9952 34.7535 44.9849 22.4307 44.9849C10.1078 44.9849 0.118164 34.9952 0.118164 22.6724Z" fill="#F23B36"/>
<path d="M14.2829 22.6729C15.879 22.6729 17.1728 20.6933 17.1728 18.2512C17.1728 15.8092 15.879 13.8296 14.2829 13.8296C12.6869 13.8296 11.393 15.8092 11.393 18.2512C11.393 20.6933 12.6869 22.6729 14.2829 22.6729Z" fill="#F34235"/>
<path d="M30.5086 22.6729C32.1047 22.6729 33.3985 20.6933 33.3985 18.2512C33.3985 15.8092 32.1047 13.8296 30.5086 13.8296C28.9126 13.8296 27.6187 15.8092 27.6187 18.2512C27.6187 20.6933 28.9126 22.6729 30.5086 22.6729Z" fill="#F34235"/>
</svg>
