<svg width="45" height="45" viewBox="0 0 45 45" fill="none" xmlns="http://www.w3.org/2000/svg">
<path fill-rule="evenodd" clip-rule="evenodd" d="M22.3379 2.4022C11.143 2.4022 2.06772 11.4775 2.06772 22.6723C2.06772 33.8672 11.143 42.9425 22.3379 42.9425C33.5328 42.9425 42.608 33.8672 42.608 22.6723C42.608 11.4775 33.5328 2.4022 22.3379 2.4022ZM0.0253906 22.6723C0.0253906 10.3495 10.015 0.359863 22.3379 0.359863C34.6607 0.359863 44.6504 10.3495 44.6504 22.6723C44.6504 34.9952 34.6607 44.9848 22.3379 44.9848C10.015 44.9848 0.0253906 34.9952 0.0253906 22.6723Z" fill="#FCC11A"/>
<path d="M14.4545 22.6821C15.9321 22.6821 17.1299 20.8487 17.1299 18.5872C17.1299 16.3256 15.9321 14.4923 14.4545 14.4923C12.9769 14.4923 11.779 16.3256 11.779 18.5872C11.779 20.8487 12.9769 22.6821 14.4545 22.6821Z" fill="#FCC11A"/>
<path d="M29.5071 22.6821C30.9847 22.6821 32.1825 20.8487 32.1825 18.5872C32.1825 16.3256 30.9847 14.4923 29.5071 14.4923C28.0295 14.4923 26.8316 16.3256 26.8316 18.5872C26.8316 20.8487 28.0295 22.6821 29.5071 22.6821Z" fill="#FCC11A"/>
<path d="M30.5489 31.8631H14.0673V33.9054H30.5489V31.8631Z" fill="#FCC11A"/>
</svg>
