<svg width="45" height="45" viewBox="0 0 45 45" fill="none" xmlns="http://www.w3.org/2000/svg">
<path fill-rule="evenodd" clip-rule="evenodd" d="M22.368 2.4022C11.1731 2.4022 2.09781 11.4775 2.09781 22.6723C2.09781 33.8672 11.1731 42.9425 22.368 42.9425C33.5629 42.9425 42.6381 33.8672 42.6381 22.6723C42.6381 11.4775 33.5629 2.4022 22.368 2.4022ZM0.055481 22.6723C0.055481 10.3495 10.0451 0.359863 22.368 0.359863C34.6908 0.359863 44.6805 10.3495 44.6805 22.6723C44.6805 34.9952 34.6908 44.9848 22.368 44.9848C10.0451 44.9848 0.055481 34.9952 0.055481 22.6723Z" fill="#FF9C1A"/>
<path d="M13.8939 22.6729C15.4899 22.6729 16.7838 20.6932 16.7838 18.2512C16.7838 15.8092 15.4899 13.8296 13.8939 13.8296C12.2978 13.8296 11.004 15.8092 11.004 18.2512C11.004 20.6932 12.2978 22.6729 13.8939 22.6729Z" fill="#FF9C1A"/>
<path d="M30.1196 22.6729C31.7156 22.6729 33.0095 20.6932 33.0095 18.2512C33.0095 15.8092 31.7156 13.8296 30.1196 13.8296C28.5235 13.8296 27.2297 15.8092 27.2297 18.2512C27.2297 20.6932 28.5235 22.6729 30.1196 22.6729Z" fill="#FF9C1A"/>
<path d="M14.0163 35.4471L12.9441 33.7111C18.2235 30.474 23.074 30.6476 26.209 31.3625C29.6095 32.1386 31.7642 33.6907 31.8561 33.752L30.6511 35.4063C30.6307 35.3961 28.6904 34.0073 25.6678 33.3333C21.675 32.4449 17.7538 33.1597 14.0163 35.4471Z" fill="#FF9C1A"/>
</svg>
