<svg width="15" height="15" viewBox="0 0 15 15" fill="none" xmlns="http://www.w3.org/2000/svg">
<path fill-rule="evenodd" clip-rule="evenodd" d="M1.24006 1.24006V2.89347H13.7319V1.24006H1.24006ZM0.413354 0C0.185065 0 0 0.185064 0 0.413353V3.72018C0 3.94847 0.185065 4.13353 0.413354 4.13353H14.5586C14.7869 4.13353 14.972 3.94847 14.972 3.72018V0.413354C14.972 0.185065 14.7869 0 14.5586 0H0.413354Z" fill="#0E80E1"/>
<path fill-rule="evenodd" clip-rule="evenodd" d="M1.24006 6.37361V8.02702H13.7319V6.37361H1.24006ZM0.413354 5.13354C0.185065 5.13354 0 5.31861 0 5.5469V8.85373C0 9.08202 0.185065 9.26708 0.413354 9.26708H14.5586C14.7869 9.26708 14.972 9.08202 14.972 8.85373V5.5469C14.972 5.31861 14.7869 5.13354 14.5586 5.13354H0.413354Z" fill="#0E80E1"/>
<path fill-rule="evenodd" clip-rule="evenodd" d="M1.24006 11.5071V13.1605H13.7319V11.5071H1.24006ZM0.413354 10.2671C0.185065 10.2671 0 10.4521 0 10.6804V13.9872C0 14.2155 0.185065 14.4006 0.413354 14.4006H14.5586C14.7869 14.4006 14.972 14.2155 14.972 13.9872V10.6804C14.972 10.4521 14.7869 10.2671 14.5586 10.2671H0.413354Z" fill="#0E80E1"/>
</svg>
