<svg width="16" height="15" viewBox="0 0 16 15" fill="none" xmlns="http://www.w3.org/2000/svg">
<path fill-rule="evenodd" clip-rule="evenodd" d="M1.6215 1.37785V5.75358H5.99723V1.37785H1.6215ZM0.657006 0C0.428717 0 0.243652 0.185065 0.243652 0.413354V6.71807C0.243652 6.94636 0.428717 7.13142 0.657006 7.13142H6.96172C7.19001 7.13142 7.37507 6.94636 7.37507 6.71807V0.413354C7.37507 0.185065 7.19001 0 6.96172 0H0.657006Z" fill="white"/>
<path fill-rule="evenodd" clip-rule="evenodd" d="M9.46207 1.37785V5.75358H13.8378V1.37785H9.46207ZM8.49758 0C8.26929 0 8.08423 0.185065 8.08423 0.413354V6.71807C8.08423 6.94636 8.26929 7.13142 8.49758 7.13142H14.8023C15.0306 7.13142 15.2156 6.94636 15.2156 6.71807V0.413354C15.2156 0.185065 15.0306 0 14.8023 0H8.49758Z" fill="white"/>
<path fill-rule="evenodd" clip-rule="evenodd" d="M1.6215 9.24644V13.6222H5.99723V9.24644H1.6215ZM0.657006 7.86859C0.428717 7.86859 0.243652 8.05366 0.243652 8.28194V14.5867C0.243652 14.8149 0.428717 15 0.657006 15H6.96172C7.19001 15 7.37507 14.8149 7.37507 14.5867V8.28194C7.37507 8.05366 7.19001 7.86859 6.96172 7.86859H0.657006Z" fill="white"/>
<path fill-rule="evenodd" clip-rule="evenodd" d="M9.46207 9.24644V13.6222H13.8378V9.24644H9.46207ZM8.49758 7.86859C8.26929 7.86859 8.08423 8.05366 8.08423 8.28194V14.5867C8.08423 14.8149 8.26929 15 8.49758 15H14.8023C15.0306 15 15.2156 14.8149 15.2156 14.5867V8.28194C15.2156 8.05366 15.0306 7.86859 14.8023 7.86859H8.49758Z" fill="white"/>
</svg>
