<svg width="16" height="15" viewBox="0 0 16 15" fill="none" xmlns="http://www.w3.org/2000/svg">
<path fill-rule="evenodd" clip-rule="evenodd" d="M2.2233 1.37785V5.75358H6.59903V1.37785H2.2233ZM1.25881 0C1.03052 0 0.845459 0.185065 0.845459 0.413354V6.71807C0.845459 6.94636 1.03052 7.13142 1.25881 7.13142H7.56352C7.79181 7.13142 7.97688 6.94636 7.97688 6.71807V0.413354C7.97688 0.185065 7.79181 0 7.56352 0H1.25881Z" fill="#02194A"/>
<path fill-rule="evenodd" clip-rule="evenodd" d="M10.0639 1.37785V5.75358H14.4396V1.37785H10.0639ZM9.09939 0C8.8711 0 8.68604 0.185065 8.68604 0.413354V6.71807C8.68604 6.94636 8.8711 7.13142 9.09939 7.13142H15.4041C15.6324 7.13142 15.8175 6.94636 15.8175 6.71807V0.413354C15.8175 0.185065 15.6324 0 15.4041 0H9.09939Z" fill="#02194A"/>
<path fill-rule="evenodd" clip-rule="evenodd" d="M2.2233 9.24644V13.6222H6.59903V9.24644H2.2233ZM1.25881 7.86859C1.03052 7.86859 0.845459 8.05366 0.845459 8.28194V14.5867C0.845459 14.8149 1.03052 15 1.25881 15H7.56352C7.79181 15 7.97688 14.8149 7.97688 14.5867V8.28194C7.97688 8.05366 7.79181 7.86859 7.56352 7.86859H1.25881Z" fill="#02194A"/>
<path fill-rule="evenodd" clip-rule="evenodd" d="M10.0639 9.24644V13.6222H14.4396V9.24644H10.0639ZM9.09939 7.86859C8.8711 7.86859 8.68604 8.05366 8.68604 8.28194V14.5867C8.68604 14.8149 8.8711 15 9.09939 15H15.4041C15.6324 15 15.8175 14.8149 15.8175 14.5867V8.28194C15.8175 8.05366 15.6324 7.86859 15.4041 7.86859H9.09939Z" fill="#02194A"/>
</svg>
