<svg width="15" height="15" viewBox="0 0 15 15" fill="none" xmlns="http://www.w3.org/2000/svg">
<g opacity="0.8">
<path fill-rule="evenodd" clip-rule="evenodd" d="M1.26789 1.24006V2.89347H13.7598V1.24006H1.26789ZM0.441186 0C0.212897 0 0.027832 0.185064 0.027832 0.413353V3.72018C0.027832 3.94847 0.212897 4.13353 0.441186 4.13353H14.5865C14.8148 4.13353 14.9998 3.94847 14.9998 3.72018V0.413354C14.9998 0.185065 14.8148 0 14.5865 0H0.441186Z" fill="#02194A"/>
<path fill-rule="evenodd" clip-rule="evenodd" d="M1.26789 6.67329V8.32671H13.7598V6.67329H1.26789ZM0.441186 5.43323C0.212897 5.43323 0.027832 5.6183 0.027832 5.84658V9.15341C0.027832 9.3817 0.212897 9.56677 0.441186 9.56677H14.5865C14.8148 9.56677 14.9998 9.3817 14.9998 9.15341V5.84658C14.9998 5.6183 14.8148 5.43323 14.5865 5.43323H0.441186Z" fill="#02194A"/>
<path fill-rule="evenodd" clip-rule="evenodd" d="M1.26789 12.1065V13.7599H13.7598V12.1065H1.26789ZM0.441186 10.8665C0.212897 10.8665 0.027832 11.0515 0.027832 11.2798V14.5866C0.027832 14.8149 0.212897 15 0.441186 15H14.5865C14.8148 15 14.9998 14.8149 14.9998 14.5866V11.2798C14.9998 11.0515 14.8148 10.8665 14.5865 10.8665H0.441186Z" fill="#02194A"/>
</g>
</svg>
