<svg width="16" height="15" viewBox="0 0 16 15" fill="none" xmlns="http://www.w3.org/2000/svg">
<g opacity="0.8">
<path fill-rule="evenodd" clip-rule="evenodd" d="M1.76789 1.24006V2.89347H14.2598V1.24006H1.76789ZM0.941186 0C0.712897 0 0.527832 0.185064 0.527832 0.413353V3.72018C0.527832 3.94847 0.712897 4.13353 0.941186 4.13353H15.0865C15.3148 4.13353 15.4998 3.94847 15.4998 3.72018V0.413354C15.4998 0.185065 15.3148 0 15.0865 0H0.941186Z" fill="white"/>
<path fill-rule="evenodd" clip-rule="evenodd" d="M1.76789 6.67329V8.32671H14.2598V6.67329H1.76789ZM0.941186 5.43323C0.712897 5.43323 0.527832 5.6183 0.527832 5.84658V9.15341C0.527832 9.3817 0.712897 9.56677 0.941186 9.56677H15.0865C15.3148 9.56677 15.4998 9.3817 15.4998 9.15341V5.84658C15.4998 5.6183 15.3148 5.43323 15.0865 5.43323H0.941186Z" fill="white"/>
<path fill-rule="evenodd" clip-rule="evenodd" d="M1.76789 12.1065V13.7599H14.2598V12.1065H1.76789ZM0.941186 10.8665C0.712897 10.8665 0.527832 11.0515 0.527832 11.2798V14.5866C0.527832 14.8149 0.712897 15 0.941186 15H15.0865C15.3148 15 15.4998 14.8149 15.4998 14.5866V11.2798C15.4998 11.0515 15.3148 10.8665 15.0865 10.8665H0.941186Z" fill="white"/>
</g>
</svg>
