<svg width="16" height="15" viewBox="0 0 16 15" fill="none" xmlns="http://www.w3.org/2000/svg">
<path fill-rule="evenodd" clip-rule="evenodd" d="M2.28605 1.37785V5.75358H6.66178V1.37785H2.28605ZM1.32156 0C1.09327 0 0.908203 0.185065 0.908203 0.413354V6.71807C0.908203 6.94636 1.09327 7.13142 1.32156 7.13142H7.62627C7.85456 7.13142 8.03962 6.94636 8.03962 6.71807V0.413354C8.03962 0.185065 7.85456 0 7.62627 0H1.32156Z" fill="#0E80E1"/>
<path fill-rule="evenodd" clip-rule="evenodd" d="M10.1266 1.37785V5.75358H14.5024V1.37785H10.1266ZM9.16213 0C8.93384 0 8.74878 0.185065 8.74878 0.413354V6.71807C8.74878 6.94636 8.93384 7.13142 9.16213 7.13142H15.4668C15.6951 7.13142 15.8802 6.94636 15.8802 6.71807V0.413354C15.8802 0.185065 15.6951 0 15.4668 0H9.16213Z" fill="#0E80E1"/>
<path fill-rule="evenodd" clip-rule="evenodd" d="M2.28605 9.24643V13.6222H6.66178V9.24643H2.28605ZM1.32156 7.86858C1.09327 7.86858 0.908203 8.05364 0.908203 8.28193V14.5866C0.908203 14.8149 1.09327 15 1.32156 15H7.62627C7.85456 15 8.03962 14.8149 8.03962 14.5866V8.28193C8.03962 8.05364 7.85456 7.86858 7.62627 7.86858H1.32156Z" fill="#0E80E1"/>
<path fill-rule="evenodd" clip-rule="evenodd" d="M10.1266 9.24643V13.6222H14.5024V9.24643H10.1266ZM9.16213 7.86858C8.93384 7.86858 8.74878 8.05364 8.74878 8.28193V14.5866C8.74878 14.8149 8.93384 15 9.16213 15H15.4668C15.6951 15 15.8802 14.8149 15.8802 14.5866V8.28193C15.8802 8.05364 15.6951 7.86858 15.4668 7.86858H9.16213Z" fill="#0E80E1"/>
</svg>
