<svg width="17" height="17" viewBox="0 0 17 17" fill="none" xmlns="http://www.w3.org/2000/svg">
<path fill-rule="evenodd" clip-rule="evenodd" d="M8.34998 6.57036L6.26089 2.91165H10.4391L8.34998 6.57036ZM8.81664 8.26274C8.61201 8.62112 8.08794 8.62112 7.88331 8.26274L4.5741 2.46718C4.37349 2.11583 4.63138 1.68183 5.04077 1.68183H11.6592C12.0686 1.68183 12.3265 2.11583 12.1259 2.46718L8.81664 8.26274Z" fill="#02194A"/>
<path fill-rule="evenodd" clip-rule="evenodd" d="M3.24915 10.6678V14.1707H6.53435V10.6678H3.24915ZM2.53535 9.43796C2.23968 9.43796 2 9.67393 2 9.96503V14.8735C2 15.1646 2.23968 15.4006 2.53535 15.4006H7.24815C7.54381 15.4006 7.7835 15.1646 7.7835 14.8735V9.96503C7.7835 9.67393 7.54381 9.43796 7.24815 9.43796H2.53535Z" fill="#02194A"/>
<path fill-rule="evenodd" clip-rule="evenodd" d="M11.7556 14.0059C12.6918 14.0059 13.4508 13.2586 13.4508 12.3368C13.4508 11.415 12.6918 10.6678 11.7556 10.6678C10.8193 10.6678 10.0603 11.415 10.0603 12.3368C10.0603 13.2586 10.8193 14.0059 11.7556 14.0059ZM11.7556 15.2357C13.3817 15.2357 14.7 13.9378 14.7 12.3368C14.7 10.7358 13.3817 9.43796 11.7556 9.43796C10.1294 9.43796 8.81116 10.7358 8.81116 12.3368C8.81116 13.9378 10.1294 15.2357 11.7556 15.2357Z" fill="#02194A"/>
</svg>
