<svg width="11" height="11" viewBox="0 0 11 11" fill="none" xmlns="http://www.w3.org/2000/svg">
<circle cx="5.10352" cy="5.7206" r="4.75" stroke="#02194A" stroke-width="0.5"/>
<path d="M5.10742 3.94055C4.95349 3.94055 4.8244 3.88841 4.72013 3.78414C4.61586 3.67987 4.56372 3.55077 4.56372 3.39685C4.56372 3.24293 4.61586 3.11383 4.72013 3.00956C4.8244 2.90529 4.95349 2.85315 5.10742 2.85315C5.25638 2.85315 5.38299 2.90529 5.48726 3.00956C5.59153 3.11383 5.64367 3.24293 5.64367 3.39685C5.64367 3.55077 5.59153 3.67987 5.48726 3.78414C5.38299 3.88841 5.25638 3.94055 5.10742 3.94055ZM5.5245 4.48424V8.58804H4.67544V4.48424H5.5245Z" fill="#02194A"/>
</svg>
