<svg width="18" height="18" viewBox="0 0 18 18" fill="none" xmlns="http://www.w3.org/2000/svg">
<path d="M16.1719 9.38293C16.1719 13.2511 13.051 16.3829 9.20583 16.3829C5.3607 16.3829 2.23975 13.2511 2.23975 9.38293C2.23975 5.5148 5.3607 2.38293 9.20583 2.38293C13.051 2.38293 16.1719 5.5148 16.1719 9.38293Z" stroke="white"/>
<path d="M9.51757 13.7141C11.0696 13.7141 12.4456 12.9141 13.1016 11.6341L12.2216 11.1221C11.6936 12.0821 10.7176 12.6901 9.51757 12.6901C8.63757 12.6901 7.88557 12.3861 7.27757 11.7781C6.66957 11.1541 6.36557 10.4021 6.36557 9.52208C6.36557 8.64208 6.66957 7.89008 7.27757 7.28208C7.88557 6.65808 8.63757 6.35408 9.51757 6.35408C10.7176 6.35408 11.7256 6.96208 12.1576 7.92208L13.0216 7.42608C12.4456 6.14608 11.1016 5.33008 9.51757 5.33008C8.31757 5.33008 7.30957 5.73008 6.50957 6.54608C5.70957 7.34608 5.30957 8.33808 5.30957 9.52208C5.30957 10.7061 5.70957 11.6981 6.50957 12.5141C7.30957 13.3141 8.31757 13.7141 9.51757 13.7141Z" fill="white"/>
<path fill-rule="evenodd" clip-rule="evenodd" d="M9.39795 4.0479C9.67409 4.04787 9.89797 4.27171 9.898 4.54785L9.89809 5.4652C9.89811 5.74135 9.67428 5.96523 9.39814 5.96525C9.12199 5.96528 8.89811 5.74144 8.89809 5.4653L8.898 4.54795C8.89797 4.27181 9.12181 4.04793 9.39795 4.0479Z" fill="white"/>
<path fill-rule="evenodd" clip-rule="evenodd" d="M9.39746 12.7692C9.6736 12.7692 9.89748 12.993 9.89751 13.2692L9.8976 14.1865C9.89763 14.4627 9.67379 14.6865 9.39765 14.6866C9.12151 14.6866 8.89763 14.4628 8.8976 14.1866L8.89751 13.2693C8.89748 12.9931 9.12132 12.7692 9.39746 12.7692Z" fill="white"/>
</svg>
