<svg width="11" height="11" viewBox="0 0 11 11" fill="none" xmlns="http://www.w3.org/2000/svg">
<circle cx="5.10352" cy="5.7206" r="4.75" stroke="white" stroke-width="0.5"/>
<path d="M5.10717 3.94055C4.95325 3.94055 4.82415 3.88841 4.71988 3.78414C4.61561 3.67987 4.56348 3.55077 4.56348 3.39685C4.56348 3.24293 4.61561 3.11383 4.71988 3.00956C4.82415 2.90529 4.95325 2.85315 5.10717 2.85315C5.25613 2.85315 5.38275 2.90529 5.48702 3.00956C5.59129 3.11383 5.64342 3.24293 5.64342 3.39685C5.64342 3.55077 5.59129 3.67987 5.48702 3.78414C5.38275 3.88841 5.25613 3.94055 5.10717 3.94055ZM5.52426 4.48424V8.58804H4.6752V4.48424H5.52426Z" fill="white"/>
</svg>
