<svg width="17" height="17" viewBox="0 0 17 17" fill="none" xmlns="http://www.w3.org/2000/svg">
<rect x="0.739746" y="0.882935" width="16" height="16" fill="white"/>
<path d="M15.7058 8.88293C15.7058 12.7511 12.5849 15.8829 8.73977 15.8829C4.89464 15.8829 1.77368 12.7511 1.77368 8.88293C1.77368 5.0148 4.89464 1.88293 8.73977 1.88293C12.5849 1.88293 15.7058 5.0148 15.7058 8.88293Z" stroke="#0E80E1"/>
<path d="M9.05175 13.2141C10.6038 13.2141 11.9798 12.4141 12.6358 11.1341L11.7558 10.6221C11.2278 11.5821 10.2518 12.1901 9.05175 12.1901C8.17175 12.1901 7.41975 11.8861 6.81175 11.2781C6.20375 10.6541 5.89975 9.90208 5.89975 9.02208C5.89975 8.14208 6.20375 7.39008 6.81175 6.78208C7.41975 6.15808 8.17175 5.85408 9.05175 5.85408C10.2518 5.85408 11.2598 6.46208 11.6918 7.42208L12.5558 6.92608C11.9798 5.64608 10.6358 4.83008 9.05175 4.83008C7.85175 4.83008 6.84375 5.23008 6.04375 6.04608C5.24375 6.84608 4.84375 7.83808 4.84375 9.02208C4.84375 10.2061 5.24375 11.1981 6.04375 12.0141C6.84375 12.8141 7.85175 13.2141 9.05175 13.2141Z" fill="#0E80E1"/>
<path fill-rule="evenodd" clip-rule="evenodd" d="M8.93188 3.5479C9.20803 3.54787 9.43191 3.77171 9.43193 4.04785L9.43202 4.9652C9.43205 5.24135 9.20821 5.46523 8.93207 5.46525C8.65593 5.46528 8.43205 5.24144 8.43202 4.9653L8.43193 4.04795C8.43191 3.77181 8.65574 3.54793 8.93188 3.5479Z" fill="#0E80E1"/>
<path fill-rule="evenodd" clip-rule="evenodd" d="M8.93176 12.2692C9.20791 12.2692 9.43178 12.493 9.43181 12.7692L9.4319 13.6865C9.43193 13.9627 9.20809 14.1865 8.93195 14.1866C8.65581 14.1866 8.43193 13.9628 8.4319 13.6866L8.43181 12.7693C8.43178 12.4931 8.65562 12.2692 8.93176 12.2692Z" fill="#0E80E1"/>
</svg>
