<svg width="17" height="17" viewBox="0 0 17 17" fill="none" xmlns="http://www.w3.org/2000/svg">
<path fill-rule="evenodd" clip-rule="evenodd" d="M8.34997 6.57036L6.26089 2.91165H10.4391L8.34997 6.57036ZM8.81663 8.26274C8.612 8.62112 8.08794 8.62112 7.88331 8.26274L4.5741 2.46718C4.37349 2.11583 4.63138 1.68183 5.04077 1.68183H11.6592C12.0686 1.68183 12.3265 2.11583 12.1258 2.46718L8.81663 8.26274Z" fill="white"/>
<path fill-rule="evenodd" clip-rule="evenodd" d="M3.24914 10.6678V14.1707H6.53434V10.6678H3.24914ZM2.53535 9.43796C2.23968 9.43796 2 9.67393 2 9.96503V14.8735C2 15.1646 2.23968 15.4006 2.53535 15.4006H7.24814C7.54381 15.4006 7.78349 15.1646 7.78349 14.8735V9.96503C7.78349 9.67393 7.54381 9.43796 7.24814 9.43796H2.53535Z" fill="white"/>
<path fill-rule="evenodd" clip-rule="evenodd" d="M11.7553 14.0059C12.6916 14.0059 13.4506 13.2586 13.4506 12.3368C13.4506 11.415 12.6916 10.6678 11.7553 10.6678C10.8191 10.6678 10.0601 11.415 10.0601 12.3368C10.0601 13.2586 10.8191 14.0059 11.7553 14.0059ZM11.7553 15.2357C13.3815 15.2357 14.6997 13.9378 14.6997 12.3368C14.6997 10.7358 13.3815 9.43796 11.7553 9.43796C10.1292 9.43796 8.81091 10.7358 8.81091 12.3368C8.81091 13.9378 10.1292 15.2357 11.7553 15.2357Z" fill="white"/>
</svg>
