<svg width="17" height="17" viewBox="0 0 17 17" fill="none" xmlns="http://www.w3.org/2000/svg">
<path fill-rule="evenodd" clip-rule="evenodd" d="M8.34948 6.57036L6.2604 2.91165H10.4386L8.34948 6.57036ZM8.81615 8.26274C8.61151 8.62112 8.08745 8.62112 7.88282 8.26274L4.57361 2.46718C4.373 2.11583 4.63089 1.68183 5.04028 1.68183H11.6587C12.0681 1.68183 12.326 2.11583 12.1254 2.46718L8.81615 8.26274Z" fill="#0E80E1"/>
<path fill-rule="evenodd" clip-rule="evenodd" d="M3.24866 10.6678V14.1707H6.53386V10.6678H3.24866ZM2.53486 9.43796C2.2392 9.43796 1.99951 9.67393 1.99951 9.96503V14.8735C1.99951 15.1646 2.23919 15.4006 2.53486 15.4006H7.24765C7.54332 15.4006 7.783 15.1646 7.783 14.8735V9.96503C7.783 9.67393 7.54332 9.43796 7.24765 9.43796H2.53486Z" fill="#0E80E1"/>
<path fill-rule="evenodd" clip-rule="evenodd" d="M11.7551 14.0059C12.6914 14.0059 13.4503 13.2586 13.4503 12.3368C13.4503 11.415 12.6914 10.6678 11.7551 10.6678C10.8188 10.6678 10.0598 11.415 10.0598 12.3368C10.0598 13.2586 10.8188 14.0059 11.7551 14.0059ZM11.7551 15.2357C13.3812 15.2357 14.6995 13.9378 14.6995 12.3368C14.6995 10.7358 13.3812 9.43796 11.7551 9.43796C10.1289 9.43796 8.81067 10.7358 8.81067 12.3368C8.81067 13.9378 10.1289 15.2357 11.7551 15.2357Z" fill="#0E80E1"/>
</svg>
