<?xml version="1.0" encoding="utf-8"?>
<!-- Generator: Adobe Illustrator 25.1.0, SVG Export Plug-In . SVG Version: 6.00 Build 0)  -->
<svg version="1.1" id="Layer_1" xmlns="http://www.w3.org/2000/svg" xmlns:xlink="http://www.w3.org/1999/xlink" x="0px" y="0px"
	 viewBox="0 0 15.2 15.2" style="enable-background:new 0 0 15.2 15.2;" xml:space="preserve">
<style type="text/css">
	.st0{fill:#FFFFFF;}
</style>
<path class="st0" d="M9.8,14.2c0.9-0.8,1.6-1.9,2-3.1l2-0.3C12.9,12.4,11.5,13.6,9.8,14.2z M1.5,10.7l2,0.3c0.4,1.2,1,2.2,2,3.1
	C3.7,13.6,2.3,12.4,1.5,10.7z M5.5,1c-0.9,0.8-1.6,1.9-2,3.1l-2,0.3C2.3,2.8,3.7,1.6,5.5,1z M13.8,4.5l-2-0.3c-0.4-1.2-1-2.2-2-3.1
	C11.5,1.6,12.9,2.8,13.8,4.5z M12.3,7.4c0-0.9-0.1-1.8-0.4-2.7L14,5c0.3,0.7,0.5,1.5,0.5,2.3H12.3z M10.5,10.8
	C9.6,10.9,8.8,11,7.9,11V7.8h3.9c0,0.9-0.2,1.9-0.4,2.8L10.5,10.8z M7.9,11.5c0.9,0,1.8-0.1,2.7-0.2l0.6-0.1
	c-0.7,1.9-1.9,3.2-3.3,3.3V11.5z M4.6,11.3c0.9,0.2,1.8,0.2,2.7,0.2v3C6,14.4,4.7,13.1,4,11.2L4.6,11.3z M3.4,7.8h3.9V11
	c-0.9,0-1.8-0.1-2.6-0.2l-0.9-0.2C3.6,9.7,3.4,8.8,3.4,7.8z M4.7,4.4c0.9-0.1,1.8-0.2,2.6-0.2v3.2H3.4c0-0.9,0.2-1.9,0.4-2.8
	L4.7,4.4z M7.4,3.7c-0.9,0-1.8,0.1-2.7,0.2L4,4C4.7,2.1,6,0.8,7.4,0.7V3.7z M10.6,3.9C9.7,3.8,8.8,3.7,7.9,3.7v-3
	c1.4,0.1,2.6,1.4,3.3,3.3L10.6,3.9z M7.9,4.2c0.9,0,1.8,0.1,2.6,0.2l0.9,0.2c0.3,0.9,0.4,1.9,0.4,2.8H7.9V4.2z M1.2,5l2.1-0.4
	C3.1,5.5,3,6.4,2.9,7.4H0.7C0.7,6.5,0.9,5.8,1.2,5z M0.7,7.8h2.2c0,0.9,0.1,1.8,0.4,2.7l-2.1-0.4C0.9,9.4,0.7,8.7,0.7,7.8z M14,10.2
	l-2.1,0.4c0.2-0.9,0.4-1.8,0.4-2.7h2.2C14.5,8.7,14.3,9.4,14,10.2z M7.6,0.2c-4.1,0-7.4,3.3-7.4,7.4S3.5,15,7.6,15S15,11.7,15,7.6
	C15,3.5,11.7,0.2,7.6,0.2z"/>
</svg>
