<svg width="24" height="25" viewBox="0 0 24 25" fill="none" xmlns="http://www.w3.org/2000/svg">
<g clip-path="url(#clip0_421_67350)">
<path d="M21.2808 19.3928C20.933 20.1963 20.5213 20.936 20.0442 21.616C19.394 22.5431 18.8616 23.1848 18.4513 23.5412C17.8153 24.1261 17.1338 24.4256 16.4041 24.4427C15.8802 24.4427 15.2485 24.2936 14.513 23.9912C13.7752 23.6902 13.0972 23.5412 12.4772 23.5412C11.827 23.5412 11.1296 23.6902 10.3837 23.9912C9.63662 24.2936 9.03481 24.4512 8.57468 24.4668C7.87491 24.4966 7.1774 24.1886 6.48118 23.5412C6.03681 23.1536 5.48099 22.4892 4.81515 21.5479C4.10075 20.5427 3.51342 19.3772 3.05329 18.0483C2.56051 16.613 2.31348 15.2231 2.31348 13.8775C2.31348 12.3361 2.64654 11.0067 3.31366 9.89266C3.83796 8.99782 4.53546 8.29194 5.40844 7.77374C6.28142 7.25555 7.22468 6.99148 8.24048 6.97459C8.7963 6.97459 9.52518 7.14651 10.431 7.48441C11.3342 7.82343 11.9141 7.99536 12.1684 7.99536C12.3585 7.99536 13.0028 7.79433 14.0949 7.39354C15.1278 7.02186 15.9995 6.86797 16.7136 6.92859C18.6487 7.08476 20.1024 7.84757 21.0693 9.22185C19.3386 10.2704 18.4826 11.7391 18.4996 13.6232C18.5152 15.0908 19.0476 16.312 20.0939 17.2817C20.5681 17.7317 21.0977 18.0795 21.6868 18.3266C21.5591 18.6971 21.4242 19.0521 21.2808 19.3928ZM16.8428 1.92894C16.8428 3.0792 16.4226 4.1532 15.5849 5.14728C14.5741 6.32905 13.3514 7.01193 12.0256 6.90417C12.0087 6.76617 11.9989 6.62094 11.9989 6.46832C11.9989 5.36407 12.4796 4.1823 13.3333 3.21605C13.7595 2.72682 14.3015 2.32003 14.9588 1.99553C15.6147 1.67586 16.2352 1.49908 16.8187 1.46881C16.8357 1.62258 16.8428 1.77636 16.8428 1.92893V1.92894Z" fill="white"/>
</g>
<defs>
<clipPath id="clip0_421_67350">
<rect width="24" height="24" fill="white" transform="translate(0 0.968811)"/>
</clipPath>
</defs>
</svg>
