<svg width="76" height="56" viewBox="0 0 76 56" fill="none" xmlns="http://www.w3.org/2000/svg">
<g clip-path="url(#clip0_3821_99557)">
<path d="M57.7319 29.8979C57.7319 27.531 56.6668 25.5192 55.2467 25.0458C54.8917 15.6967 47.1994 8.24109 37.7319 8.24109C28.2645 8.24109 20.6905 15.6967 20.3355 25.0458C18.797 25.6375 17.7319 27.531 17.7319 29.8979C17.7319 32.7381 19.1521 34.8683 21.0455 34.8683H22.939C23.2941 35.8151 24.2408 36.5251 25.3059 36.5251C26.726 36.5251 27.7911 35.3417 27.7911 34.0399V25.6375C27.7911 24.2174 26.6077 23.1523 25.3059 23.1523C24.2408 23.1523 23.2941 23.8624 22.939 24.8091H21.9923C22.1106 21.1405 23.6491 17.8269 26.016 15.2233L28.0278 17.2352C28.2645 17.4719 28.8562 17.5902 29.2112 17.2352C33.945 13.0932 41.7556 13.0932 46.4893 17.2352C46.6077 17.3535 46.8444 17.4719 47.081 17.4719C47.3177 17.4719 47.5544 17.3535 47.6728 17.2352L49.6846 15.2233C52.0515 17.8269 53.4716 21.2588 53.7083 24.9275H52.7615C52.4065 23.9807 51.4597 23.2707 50.3947 23.2707C48.9745 23.2707 47.9094 24.4541 47.9094 25.7559V34.1582C47.9094 35.5784 49.0929 36.6435 50.3947 36.6435C51.4597 36.6435 52.4065 35.9334 52.7615 34.9867H53.7083V37.4719C53.7083 41.6139 50.2763 44.9275 46.2526 44.9275H43.5308C43.1757 43.9807 42.229 43.2707 41.1639 43.2707H36.1935C34.7734 43.2707 33.7083 44.4541 33.7083 45.7559C33.7083 47.176 34.8917 48.2411 36.1935 48.2411H41.1639C42.229 48.2411 43.1757 47.531 43.5308 46.5843H46.1343C51.2231 46.5843 55.3651 42.4423 55.3651 37.3535V34.6316C56.7852 34.2766 57.7319 32.2648 57.7319 29.8979ZM41.0455 46.5843H36.0751C35.6018 46.5843 35.2467 46.2293 35.2467 45.7559C35.2467 45.2825 35.6018 44.9275 36.0751 44.9275H41.0455C41.5189 44.9275 41.8739 45.2825 41.8739 45.7559C41.8739 46.2293 41.5189 46.5843 41.0455 46.5843ZM25.1876 24.9275C25.6609 24.9275 26.016 25.2825 26.016 25.7559V34.1582C26.016 34.6316 25.6609 34.9867 25.1876 34.9867C24.7142 34.9867 24.3592 34.6316 24.3592 34.1582V25.7559C24.3592 25.2825 24.8325 24.9275 25.1876 24.9275ZM22.7023 33.3298H21.0455C20.2171 33.3298 19.3887 31.9097 19.3887 30.0162C19.3887 28.1227 20.2171 26.7026 21.0455 26.7026H22.7023V33.3298ZM46.8444 15.46C41.6373 11.4364 33.8266 11.4364 28.6195 15.46L27.1994 14.0399C30.0396 11.4364 33.7083 9.89789 37.7319 9.89789C41.8739 9.89789 45.5426 11.4364 48.3828 14.0399L46.8444 15.46ZM50.2763 34.9867C49.8029 34.9867 49.4479 34.6316 49.4479 34.1582V25.7559C49.4479 25.2825 49.8029 24.9275 50.2763 24.9275C50.7497 24.9275 51.1047 25.2825 51.1047 25.7559V34.1582C51.1047 34.5133 50.7497 34.9867 50.2763 34.9867ZM54.4183 33.3298H52.7615V26.7026H54.4183C55.2467 26.7026 56.0751 28.1227 56.0751 30.0162C56.0751 31.9097 55.2467 33.3298 54.4183 33.3298Z" fill="white"/>
</g>
<defs>
<clipPath id="clip0_3821_99557">
<rect width="40" height="40" fill="white" transform="translate(17.7319 8.24109)"/>
</clipPath>
</defs>
</svg>
