<svg width="76" height="56" viewBox="0 0 76 56" fill="none" xmlns="http://www.w3.org/2000/svg">
<g clip-path="url(#clip0_3817_94014)">
<path d="M57.7368 29.8979C57.7368 27.531 56.6717 25.5192 55.2516 25.0458C54.8966 15.6967 47.2043 8.24109 37.7368 8.24109C28.2694 8.24109 20.6954 15.6967 20.3404 25.0458C18.8019 25.6375 17.7368 27.531 17.7368 29.8979C17.7368 32.7381 19.1569 34.8683 21.0504 34.8683H22.9439C23.2989 35.8151 24.2457 36.5251 25.3108 36.5251C26.7309 36.5251 27.796 35.3417 27.796 34.0399V25.6375C27.796 24.2174 26.6126 23.1523 25.3108 23.1523C24.2457 23.1523 23.2989 23.8624 22.9439 24.8091H21.9972C22.1155 21.1405 23.654 17.8269 26.0208 15.2233L28.0327 17.2352C28.2694 17.4719 28.8611 17.5902 29.2161 17.2352C33.9498 13.0932 41.7605 13.0932 46.4942 17.2352C46.6126 17.3535 46.8492 17.4719 47.0859 17.4719C47.3226 17.4719 47.5593 17.3535 47.6776 17.2352L49.6895 15.2233C52.0563 17.8269 53.4765 21.2588 53.7132 24.9275H52.7664C52.4114 23.9807 51.4646 23.2707 50.3995 23.2707C48.9794 23.2707 47.9143 24.4541 47.9143 25.7559V34.1582C47.9143 35.5784 49.0978 36.6435 50.3995 36.6435C51.4646 36.6435 52.4114 35.9334 52.7664 34.9867H53.7132V37.4719C53.7132 41.6139 50.2812 44.9275 46.2575 44.9275H43.5356C43.1806 43.9807 42.2339 43.2707 41.1688 43.2707H36.1984C34.7782 43.2707 33.7131 44.4541 33.7131 45.7559C33.7131 47.176 34.8966 48.2411 36.1984 48.2411H41.1688C42.2339 48.2411 43.1806 47.531 43.5356 46.5843H46.1392C51.2279 46.5843 55.37 42.4423 55.37 37.3535V34.6316C56.7901 34.2766 57.7368 32.2648 57.7368 29.8979ZM41.0504 46.5843H36.08C35.6066 46.5843 35.2516 46.2293 35.2516 45.7559C35.2516 45.2825 35.6066 44.9275 36.08 44.9275H41.0504C41.5238 44.9275 41.8788 45.2825 41.8788 45.7559C41.8788 46.2293 41.5238 46.5843 41.0504 46.5843ZM25.1924 24.9275C25.6658 24.9275 26.0208 25.2825 26.0208 25.7559V34.1582C26.0208 34.6316 25.6658 34.9867 25.1924 34.9867C24.7191 34.9867 24.364 34.6316 24.364 34.1582V25.7559C24.364 25.2825 24.8374 24.9275 25.1924 24.9275ZM22.7072 33.3298H21.0504C20.222 33.3298 19.3936 31.9097 19.3936 30.0162C19.3936 28.1227 20.222 26.7026 21.0504 26.7026H22.7072V33.3298ZM46.8492 15.46C41.6421 11.4364 33.8315 11.4364 28.6244 15.46L27.2043 14.0399C30.0445 11.4364 33.7131 9.89789 37.7368 9.89789C41.8788 9.89789 45.5475 11.4364 48.3877 14.0399L46.8492 15.46ZM50.2812 34.9867C49.8078 34.9867 49.4528 34.6316 49.4528 34.1582V25.7559C49.4528 25.2825 49.8078 24.9275 50.2812 24.9275C50.7546 24.9275 51.1096 25.2825 51.1096 25.7559V34.1582C51.1096 34.5133 50.7546 34.9867 50.2812 34.9867ZM54.4232 33.3298H52.7664V26.7026H54.4232C55.2516 26.7026 56.08 28.1227 56.08 30.0162C56.08 31.9097 55.2516 33.3298 54.4232 33.3298Z" fill="#0E80DE"/>
</g>
<defs>
<clipPath id="clip0_3817_94014">
<rect width="40" height="40" fill="white" transform="translate(17.7368 8.24109)"/>
</clipPath>
</defs>
</svg>
