<svg width="93" height="42" viewBox="0 0 93 42" fill="none" xmlns="http://www.w3.org/2000/svg">
<path fill-rule="evenodd" clip-rule="evenodd" d="M30 36.9899H61.9997V20.9998H30V36.9899Z" fill="#A7AAB8" fill-opacity="0.9"/>
<path fill-rule="evenodd" clip-rule="evenodd" d="M45.307 9.47401L43.77 16.6598H41.911L43.4481 9.47401H45.307ZM53.1279 14.114L54.1064 11.4155L54.6694 14.114H53.1279ZM55.2028 16.6598H56.9217L55.42 9.47401H53.8344C53.477 9.47401 53.1758 9.6812 53.0424 10.0007L50.2529 16.6598H52.2054L52.593 15.5865H54.9776L55.2028 16.6598ZM50.3499 14.3138C50.358 12.4175 47.7283 12.3123 47.746 11.4651C47.7516 11.2075 47.9971 10.9332 48.5342 10.8631C48.8003 10.8288 49.5349 10.8012 50.3675 11.1847L50.6932 9.66035C50.246 9.49857 49.6705 9.34277 48.9544 9.34277C47.1166 9.34277 45.8239 10.3189 45.8135 11.7179C45.8017 12.7524 46.737 13.3294 47.4402 13.6738C48.1652 14.0259 48.4081 14.2519 48.4045 14.5664C48.3995 15.0485 47.8264 15.262 47.2928 15.27C46.3577 15.2846 45.8156 15.0173 45.3836 14.8159L45.0462 16.3912C45.4812 16.5903 46.2828 16.7635 47.1129 16.7724C49.0667 16.7724 50.3441 15.8077 50.3499 14.3138ZM42.6507 9.47401L39.6386 16.6598H37.6739L36.1915 10.925C36.1017 10.5723 36.0233 10.4427 35.75 10.2937C35.303 10.051 34.565 9.8239 33.9161 9.68265L33.9601 9.47401H37.1232C37.5262 9.47401 37.8887 9.74213 37.9809 10.2063L38.764 14.3647L40.6977 9.47401H42.6507Z" fill="#A7AAB8" fill-opacity="0.9"/>
<path fill-rule="evenodd" clip-rule="evenodd" d="M37.4547 29.8617C37.6647 29.9856 37.9931 30.0933 38.3322 30.0933C38.752 30.0933 38.989 29.894 38.989 29.5979C38.989 29.3233 38.8059 29.1619 38.3483 28.9951C37.7453 28.785 37.3631 28.4621 37.3631 27.9452C37.3631 27.3476 37.8585 26.9009 38.6499 26.9009C39.0428 26.9009 39.328 26.987 39.5165 27.0785L39.3605 27.6168C39.2259 27.5469 38.9728 27.4446 38.6337 27.4446C38.2137 27.4446 38.0361 27.6653 38.0361 27.8806C38.0361 28.1607 38.246 28.2898 38.7305 28.4728C39.3605 28.715 39.6619 29.0328 39.6619 29.5494C39.6619 30.1363 39.2204 30.637 38.2892 30.637C37.9014 30.637 37.5031 30.5293 37.304 30.411L37.4547 29.8617Z" fill="#02194A"/>
<path fill-rule="evenodd" clip-rule="evenodd" d="M42.2356 28.9736H40.8682V30.0396H42.3972V30.5833H40.2062V26.9548H42.3164V27.4985H40.8682V28.4352H42.2356V28.9736Z" fill="#02194A"/>
<path fill-rule="evenodd" clip-rule="evenodd" d="M45.5255 30.4755C45.3693 30.5508 45.0248 30.637 44.5834 30.637C43.4314 30.637 42.7314 29.9155 42.7314 28.812C42.7314 27.6168 43.5659 26.9009 44.6749 26.9009C45.1109 26.9009 45.4178 26.987 45.5523 27.057L45.4125 27.5845C45.2402 27.5092 44.998 27.4446 44.7019 27.4446C43.9643 27.4446 43.4314 27.9076 43.4314 28.7797C43.4314 29.5764 43.8943 30.0825 44.6964 30.0825C44.9601 30.0825 45.2402 30.0286 45.4178 29.9532L45.5255 30.4755Z" fill="#02194A"/>
<path fill-rule="evenodd" clip-rule="evenodd" d="M46.6942 26.9548V29.0706C46.6942 29.7812 46.9903 30.1094 47.4372 30.1094C47.9162 30.1094 48.2016 29.7812 48.2016 29.0706V26.9548H48.8638V29.0274C48.8638 30.1472 48.2878 30.6424 47.4157 30.6424C46.5758 30.6424 46.0321 30.1742 46.0321 29.0329V26.9548H46.6942Z" fill="#02194A"/>
<path fill-rule="evenodd" clip-rule="evenodd" d="M50.2263 28.6075H50.6194C51.0664 28.6075 51.341 28.3707 51.341 28.01C51.341 27.6169 51.0664 27.4285 50.6357 27.4285C50.4256 27.4285 50.2911 27.4447 50.2263 27.461V28.6075ZM49.5698 27.0086C49.8226 26.9601 50.1888 26.928 50.571 26.928C51.0932 26.928 51.4433 27.014 51.6907 27.2187C51.8898 27.3855 52.003 27.6384 52.003 27.9508C52.003 28.419 51.6854 28.7366 51.341 28.8553V28.8713C51.6046 28.9682 51.7609 29.2212 51.847 29.571C51.9653 30.0234 52.0623 30.4433 52.1322 30.5833H51.4539C51.4 30.4756 51.3085 30.1795 51.2115 29.7273C51.1039 29.2535 50.9371 29.1028 50.5604 29.092H50.2263V30.5833H49.5698V27.0086Z" fill="#02194A"/>
<path fill-rule="evenodd" clip-rule="evenodd" d="M54.6092 28.9736H53.2417V30.0396H54.7706V30.5833H52.5796V26.9548H54.6898V27.4985H53.2417V28.4352H54.6092V28.9736Z" fill="#02194A"/>
</svg>
