<svg width="93" height="42" viewBox="0 0 93 42" fill="none" xmlns="http://www.w3.org/2000/svg">
<path d="M36.5765 29.4286H36.0001V23.1786H36.5765V29.4286ZM40.7816 23.1786C41.2873 23.1718 41.7905 23.2457 42.27 23.3973C42.6867 23.5296 43.0697 23.7425 43.3945 24.0224C43.706 24.297 43.9495 24.6331 44.1079 25.0067C44.4419 25.8425 44.4419 26.7646 44.1079 27.6004C43.9495 27.9741 43.706 28.3102 43.3945 28.5848C43.0697 28.8647 42.6867 29.0776 42.27 29.2098C41.7905 29.3615 41.2873 29.4354 40.7816 29.4286H38.3672V23.1786H40.7816ZM38.9436 23.6964V28.9107H40.7816C41.2149 28.918 41.6464 28.8553 42.0574 28.7254C42.4034 28.6147 42.7206 28.4359 42.9881 28.2009C43.2423 27.9716 43.4378 27.6907 43.5599 27.3794C43.8181 26.6829 43.8181 25.9242 43.5599 25.2277C43.4374 24.9159 43.242 24.6344 42.9881 24.4041C42.7214 24.168 42.4039 23.9891 42.0574 23.8795C41.646 23.7511 41.2147 23.6893 40.7816 23.6964H38.9436ZM51.0581 23.1072C51.335 23.1065 51.6109 23.1364 51.8804 23.1965C52.1383 23.2537 52.3881 23.3399 52.6244 23.4531C52.8514 23.5618 53.0626 23.6976 53.2529 23.8572C53.4388 24.0133 53.6003 24.1937 53.7324 24.3929L53.2505 24.6964C53.1372 24.5328 53.0013 24.3842 52.8465 24.2545C52.6901 24.1232 52.5171 24.0108 52.3315 23.9196C52.1398 23.8259 51.9367 23.7547 51.7268 23.7076C51.5078 23.6582 51.2833 23.6334 51.0581 23.634C50.6823 23.6309 50.3094 23.696 49.9596 23.8259C49.629 23.9489 49.3284 24.1343 49.0761 24.3706C48.8215 24.6117 48.6207 24.8986 48.4855 25.2143C48.1989 25.9152 48.1989 26.6919 48.4855 27.3929C48.6206 27.7086 48.8215 27.9955 49.0761 28.2366C49.3284 28.4729 49.629 28.6582 49.9596 28.7812C50.3094 28.9112 50.6823 28.9764 51.0581 28.9732C51.2824 28.9738 51.506 28.9498 51.7244 28.9018C51.9337 28.8559 52.1361 28.7854 52.3268 28.6919C52.5125 28.6009 52.6855 28.4884 52.8418 28.3572C52.9975 28.2265 53.1334 28.0763 53.2458 27.9107L53.7183 28.2366C53.5807 28.4319 53.4163 28.609 53.2293 28.7634C53.0395 28.9196 52.83 29.0531 52.6056 29.1607C52.3724 29.2725 52.1257 29.3572 51.8709 29.4129C51.1522 29.5675 50.401 29.5154 49.7139 29.2634C49.3128 29.1137 48.9473 28.8898 48.639 28.6049C48.3322 28.3174 48.0904 27.9742 47.9279 27.596C47.5847 26.7657 47.5847 25.8437 47.9279 25.0134C48.09 24.6343 48.3319 24.2903 48.639 24.0022C48.9474 23.7174 49.3128 23.4935 49.7139 23.3438C50.1416 23.1837 50.5981 23.1033 51.0581 23.1072V23.1072ZM55.5043 25.9553C55.5887 25.8228 55.6929 25.7025 55.8137 25.5982C55.9291 25.4989 56.0587 25.4154 56.1988 25.3504C56.3371 25.2865 56.483 25.2386 56.6335 25.2076C56.7824 25.1766 56.9345 25.1608 57.0871 25.1607C57.346 25.1579 57.6035 25.1979 57.8478 25.279C58.0677 25.3521 58.2694 25.4668 58.4408 25.6161C58.6084 25.7651 58.7391 25.9472 58.8236 26.1495C58.9161 26.3735 58.9618 26.6123 58.9582 26.8526V29.4286H58.4196V27.009C58.4224 26.8148 58.3905 26.6216 58.3251 26.4375C58.2673 26.276 58.1721 26.1289 58.0463 26.0067C57.9194 25.8867 57.7662 25.7945 57.5975 25.7366C57.4034 25.6713 57.1986 25.6396 56.9926 25.6429C56.7932 25.6414 56.5952 25.6755 56.4091 25.7433C56.2328 25.8074 56.0721 25.9046 55.9367 26.029C55.801 26.1549 55.6933 26.3052 55.6201 26.471C55.5412 26.6498 55.5018 26.842 55.5042 27.0357V29.4286H54.9656V23H55.5042L55.5043 25.9553ZM62.1617 25.1607C62.4452 25.1583 62.7261 25.2123 62.9861 25.3192C63.2351 25.4218 63.4588 25.5723 63.6429 25.7611C63.8329 25.959 63.9812 26.1893 64.0799 26.4397C64.1895 26.716 64.2456 27.0086 64.2453 27.3036C64.2453 27.3423 64.2445 27.3788 64.243 27.4129C64.2414 27.4472 64.239 27.4807 64.236 27.5134H60.508C60.5218 27.7389 60.5803 27.96 60.6804 28.1652C60.7708 28.3484 60.8984 28.5129 61.0561 28.6495C61.2105 28.7821 61.3911 28.8845 61.5875 28.9509C61.793 29.0202 62.0096 29.0549 62.2278 29.0535C62.5156 29.0582 62.8011 29.0034 63.0642 28.8928C63.3115 28.7847 63.5369 28.6366 63.7303 28.4553L64.0185 28.8035C63.8874 28.9293 63.7425 29.0415 63.5863 29.1384C63.4453 29.225 63.2948 29.2969 63.1373 29.3526C62.9869 29.4057 62.8309 29.4431 62.6719 29.4642C62.5138 29.4851 62.3544 29.4956 62.1948 29.4955C61.8875 29.4985 61.5825 29.4447 61.297 29.337C61.031 29.2364 60.7898 29.0852 60.5883 28.8928C60.3864 28.6973 60.2288 28.4649 60.1252 28.2098C60.0119 27.9291 59.9558 27.6307 59.9599 27.3303C59.9566 27.032 60.0135 26.7358 60.1276 26.4576C60.2323 26.2018 60.3897 25.9681 60.5906 25.7701C60.789 25.5771 61.0269 25.4245 61.2899 25.3214C61.5661 25.213 61.8626 25.1583 62.1617 25.1607L62.1617 25.1607ZM62.1522 25.6116C61.9395 25.6091 61.7283 25.6463 61.5308 25.721C61.3473 25.7916 61.1798 25.8946 61.0372 26.0246C60.8928 26.1574 60.7751 26.314 60.6899 26.4866C60.5979 26.6725 60.5396 26.8717 60.5175 27.0759H63.6973C63.6815 26.8703 63.6287 26.6688 63.5413 26.4799C63.4619 26.3075 63.3489 26.1508 63.2082 26.0179C63.0693 25.8876 62.9045 25.7846 62.7232 25.7149C62.542 25.6451 62.3479 25.61 62.1522 25.6116V25.6116ZM67.3446 25.1607C67.6598 25.1578 67.9723 25.2148 68.2637 25.3281C68.5397 25.4358 68.7861 25.6014 68.9842 25.8125L68.6345 26.1563C68.4667 25.9961 68.2688 25.8667 68.0511 25.7746C67.8238 25.6816 67.5782 25.6351 67.3305 25.6384C67.0977 25.6365 66.8669 25.6799 66.6525 25.7656C66.4475 25.8475 66.2619 25.9675 66.1068 26.1183C65.9499 26.2724 65.827 26.4545 65.7452 26.654C65.5721 27.09 65.5721 27.5706 65.7452 28.0066C65.8253 28.2043 65.9471 28.3845 66.103 28.5365C66.2589 28.6884 66.4459 28.8089 66.6525 28.8906C66.8669 28.9764 67.0977 29.0197 67.3305 29.0178C67.5819 29.0205 67.8309 28.9718 68.0605 28.875C68.2787 28.7823 68.4779 28.6538 68.6487 28.4955L68.9842 28.8438C68.7843 29.0539 68.5373 29.2194 68.2613 29.3281C67.6722 29.5505 67.0153 29.5513 66.4256 29.3303C66.1556 29.2266 65.9107 29.072 65.706 28.8759C65.5013 28.6798 65.3411 28.4463 65.235 28.1897C65.0113 27.6355 65.0113 27.0229 65.235 26.4687C65.3405 26.2116 65.5005 25.9776 65.7053 25.781C65.91 25.5845 66.1552 25.4296 66.4256 25.3259C66.7172 25.2134 67.0297 25.1573 67.3446 25.1607L67.3446 25.1607ZM70.6047 27H71.3277L73.1986 25.2277H73.879L71.7623 27.2098L73.9168 29.4286H73.2317L71.3276 27.4598H70.6047V29.4286H70.066V23H70.6047L70.6047 27Z" fill="#A7AAB8" fill-opacity="0.9"/>
<path d="M42.5573 20.9118V18.2647C42.5573 17.25 41.9573 16.5882 40.9287 16.5882C40.4144 16.5882 39.8573 16.7647 39.4716 17.3382C39.1716 16.8529 38.743 16.5882 38.1001 16.5882C37.6715 16.5882 37.243 16.7206 36.9001 17.2059V16.6765H36.0001V20.9118H36.9001V18.5735C36.9001 17.8235 37.2858 17.4706 37.8858 17.4706C38.4858 17.4706 38.7858 17.8676 38.7858 18.5735V20.9118H39.6858V18.5735C39.6858 17.8235 40.1144 17.4706 40.6715 17.4706C41.2715 17.4706 41.5716 17.8676 41.5716 18.5735V20.9118H42.5573ZM55.8858 16.6765H54.4287V15.3971H53.5287V16.6765H52.7144V17.5147H53.5287V19.4559C53.5287 20.4265 53.9144 21 54.943 21C55.3287 21 55.7573 20.8677 56.0573 20.6912L55.8001 19.8971C55.543 20.0735 55.243 20.1176 55.0287 20.1176C54.6001 20.1176 54.4287 19.8529 54.4287 19.4118V17.5147H55.8858V16.6765ZM63.5144 16.5882C63.0001 16.5882 62.6573 16.8529 62.443 17.2059V16.6765H61.543V20.9118H62.443V18.5294C62.443 17.8235 62.743 17.4265 63.3001 17.4265C63.4715 17.4265 63.6858 17.4706 63.8573 17.5147L64.1144 16.6323C63.943 16.5882 63.6858 16.5882 63.5144 16.5882ZM51.9858 17.0294C51.5573 16.7206 50.9573 16.5882 50.3144 16.5882C49.2858 16.5882 48.6001 17.1176 48.6001 17.9559C48.6001 18.6618 49.1144 19.0588 50.0144 19.1912L50.443 19.2353C50.9144 19.3235 51.1715 19.4559 51.1715 19.6765C51.1715 19.9853 50.8287 20.2059 50.2287 20.2059C49.6287 20.2059 49.1573 19.9853 48.8573 19.7647L48.4287 20.4706C48.9001 20.8235 49.543 21 50.1858 21C51.3858 21 52.0716 20.4265 52.0716 19.6324C52.0716 18.8824 51.5144 18.4853 50.6573 18.3529L50.2287 18.3088C49.843 18.2647 49.543 18.1765 49.543 17.9118C49.543 17.6029 49.843 17.4265 50.3144 17.4265C50.8287 17.4265 51.343 17.6471 51.6001 17.7794L51.9858 17.0294ZM75.9001 16.5882C75.3858 16.5882 75.043 16.8529 74.8287 17.2059V16.6765H73.9287V20.9118H74.8287V18.5294C74.8287 17.8235 75.1287 17.4265 75.6858 17.4265C75.8573 17.4265 76.0715 17.4706 76.243 17.5147L76.5001 16.6323C76.3287 16.5882 76.0716 16.5882 75.9001 16.5882ZM64.4144 18.7941C64.4144 20.0735 65.2715 21 66.6001 21C67.2001 21 67.6287 20.8677 68.0573 20.5147L67.6287 19.7647C67.2858 20.0294 66.943 20.1618 66.5573 20.1618C65.8287 20.1618 65.3144 19.6324 65.3144 18.7941C65.3144 18 65.8287 17.4706 66.5573 17.4265C66.943 17.4265 67.2858 17.5588 67.6287 17.8235L68.0573 17.0735C67.6287 16.7206 67.2001 16.5882 66.6001 16.5882C65.2715 16.5882 64.4144 17.5147 64.4144 18.7941ZM72.7287 18.7941V16.6765H71.8287V17.2059C71.5287 16.8088 71.1001 16.5882 70.543 16.5882C69.3858 16.5882 68.4858 17.5147 68.4858 18.7941C68.4858 20.0735 69.3858 21 70.543 21C71.143 21 71.5716 20.7794 71.8287 20.3824V20.9118H72.7287V18.7941ZM69.4287 18.7941C69.4287 18.0441 69.9001 17.4265 70.6715 17.4265C71.4001 17.4265 71.9144 18 71.9144 18.7941C71.9144 19.5441 71.4001 20.1618 70.6715 20.1618C69.9001 20.1176 69.4287 19.5441 69.4287 18.7941ZM58.6715 16.5882C57.4715 16.5882 56.6144 17.4706 56.6144 18.7941C56.6144 20.1176 57.4715 21 58.7144 21C59.3144 21 59.9144 20.8235 60.3858 20.4265L59.9573 19.7647C59.6144 20.0294 59.1858 20.2059 58.7573 20.2059C58.2001 20.2059 57.643 19.9412 57.5144 19.1912H60.5573C60.5573 19.0588 60.5573 18.9706 60.5573 18.8382C60.6001 17.4706 59.8287 16.5882 58.6715 16.5882ZM58.6715 17.3824C59.2287 17.3824 59.6144 17.7353 59.7001 18.3971H57.5573C57.643 17.8235 58.0287 17.3824 58.6715 17.3824ZM81.0001 18.7941V15H80.1001V17.2059C79.8001 16.8088 79.3715 16.5882 78.8144 16.5882C77.6573 16.5882 76.7573 17.5147 76.7573 18.7941C76.7573 20.0735 77.6573 21 78.8144 21C79.4144 21 79.843 20.7794 80.1001 20.3824V20.9118H81.0001V18.7941ZM77.7001 18.7941C77.7001 18.0441 78.1715 17.4265 78.943 17.4265C79.6715 17.4265 80.1858 18 80.1858 18.7941C80.1858 19.5441 79.6715 20.1618 78.943 20.1618C78.1715 20.1176 77.7001 19.5441 77.7001 18.7941ZM47.6144 18.7941V16.6765H46.7144V17.2059C46.4144 16.8088 45.9858 16.5882 45.4287 16.5882C44.2716 16.5882 43.3715 17.5147 43.3715 18.7941C43.3715 20.0735 44.2716 21 45.4287 21C46.0287 21 46.4573 20.7794 46.7144 20.3824V20.9118H47.6144V18.7941ZM44.2715 18.7941C44.2715 18.0441 44.743 17.4265 45.5144 17.4265C46.243 17.4265 46.7573 18 46.7573 18.7941C46.7573 19.5441 46.243 20.1618 45.5144 20.1618C44.743 20.1176 44.2715 19.5441 44.2715 18.7941Z" fill="#A7AAB8" fill-opacity="0.9"/>
<path d="M24.7058 13.3132H19.297V22.9694H24.7058V13.3132Z" fill="#A7AAB8" fill-opacity="0.9"/>
<path d="M19.6405 18.141C19.6396 17.2111 19.8517 16.2931 20.2608 15.4566C20.6698 14.6202 21.265 13.8871 22.0014 13.313C21.0895 12.6009 19.9944 12.158 18.8411 12.0351C17.6879 11.9121 16.5231 12.114 15.4798 12.6176C14.4366 13.1212 13.557 13.9062 12.9417 14.883C12.3263 15.8597 12 16.9888 12 18.141C12 19.2933 12.3263 20.4224 12.9417 21.3991C13.557 22.3759 14.4366 23.1609 15.4798 23.6645C16.5231 24.1681 17.6879 24.37 18.8411 24.247C19.9944 24.124 21.0895 23.6812 22.0014 22.9691C21.265 22.395 20.6698 21.6619 20.2608 20.8254C19.8517 19.989 19.6396 19.071 19.6405 18.141Z" fill="#C5C8D1"/>
<path d="M32.0024 18.1413C32.0025 19.2936 31.6762 20.4226 31.0609 21.3993C30.4455 22.3761 29.566 23.1611 28.5228 23.6647C27.4796 24.1684 26.3148 24.3702 25.1616 24.2473C24.0083 24.1243 22.9132 23.6815 22.0013 22.9694C22.7371 22.3946 23.3318 21.6615 23.7408 20.8251C24.1498 19.9888 24.3623 19.0711 24.3623 18.1413C24.3623 17.2115 24.1498 16.2938 23.7408 15.4575C23.3318 14.6211 22.7371 13.8879 22.0013 13.3132C22.9132 12.6011 24.0083 12.1583 25.1616 12.0353C26.3148 11.9123 27.4796 12.1142 28.5228 12.6178C29.566 13.1214 30.4455 13.9065 31.0609 14.8832C31.6762 15.86 32.0025 16.989 32.0024 18.1413Z" fill="#DDDFEB"/>
</svg>
