<svg width="93" height="42" viewBox="0 0 93 42" fill="none" xmlns="http://www.w3.org/2000/svg">
<path d="M55.189 22.2L55.7043 22.3546C55.67 22.5006 55.6184 22.6208 55.5411 22.7153C55.4638 22.8098 55.3779 22.8871 55.2663 22.93C55.1546 22.9815 55.0172 23.0073 54.8454 23.0073C54.6393 23.0073 54.4761 22.9815 54.3387 22.9214C54.2098 22.8613 54.0982 22.7582 54.0037 22.6036C53.9092 22.4576 53.8577 22.2601 53.8577 22.0282C53.8577 21.719 53.9436 21.4785 54.1068 21.3067C54.2699 21.1349 54.5104 21.0576 54.8111 21.0576C55.0516 21.0576 55.2319 21.1092 55.3694 21.2036C55.5068 21.2981 55.6099 21.4441 55.67 21.6503L55.1546 21.7619C55.1374 21.7018 55.1203 21.6588 55.0945 21.6331C55.0601 21.5901 55.0258 21.5558 54.9743 21.53C54.9227 21.5042 54.8712 21.4957 54.8197 21.4957C54.6908 21.4957 54.5877 21.5472 54.519 21.6588C54.4675 21.7361 54.4417 21.865 54.4417 22.0282C54.4417 22.2343 54.4761 22.3803 54.5362 22.4576C54.5963 22.5349 54.6908 22.5779 54.8025 22.5779C54.9141 22.5779 55 22.5435 55.0516 22.4834C55.1203 22.4061 55.1632 22.3202 55.189 22.2Z" fill="#A7AAB8" fill-opacity="0.9"/>
<path d="M55.9104 22.0282C55.9104 21.719 55.9963 21.4785 56.1681 21.3067C56.3398 21.135 56.5803 21.0491 56.8895 21.0491C57.2073 21.0491 57.4478 21.135 57.6196 21.2982C57.7914 21.4699 57.8773 21.7018 57.8773 22.0111C57.8773 22.2344 57.8429 22.4147 57.7656 22.5522C57.6883 22.6896 57.5852 22.8013 57.4392 22.8786C57.3018 22.9559 57.1214 22.9988 56.9153 22.9988C56.7006 22.9988 56.5288 22.9644 56.3828 22.8957C56.2454 22.827 56.1337 22.7239 56.0392 22.5693C55.9448 22.4147 55.9104 22.2515 55.9104 22.0282ZM56.4945 22.0282C56.4945 22.2172 56.5288 22.3546 56.5975 22.4405C56.6662 22.5264 56.7607 22.5693 56.8895 22.5693C57.0184 22.5693 57.1129 22.5264 57.1816 22.4491C57.2503 22.3632 57.2846 22.2172 57.2846 22.0111C57.2846 21.8307 57.2503 21.7018 57.173 21.6245C57.1043 21.5387 57.0012 21.5043 56.881 21.5043C56.7607 21.5043 56.6662 21.5472 56.5975 21.6331C56.5288 21.7018 56.4945 21.8393 56.4945 22.0282Z" fill="#A7AAB8" fill-opacity="0.9"/>
<path d="M58.1779 21.0835H58.9423L59.2344 22.2344L59.5264 21.0835H60.2908V22.9731H59.8098V21.5301L59.4405 22.9731H59.0111L58.6417 21.5301V22.9731H58.1608V21.0835H58.1779Z" fill="#A7AAB8" fill-opacity="0.9"/>
<path d="M60.6687 21.0835H61.6393C61.854 21.0835 62.0086 21.135 62.1117 21.2381C62.2147 21.3412 62.2663 21.4786 62.2663 21.6675C62.2663 21.8565 62.2061 22.0111 62.0945 22.1142C61.9828 22.2258 61.8024 22.2774 61.5705 22.2774H61.2528V22.9817H60.6687V21.0835ZM61.2528 21.8909H61.3988C61.5104 21.8909 61.5877 21.8737 61.6393 21.8307C61.6822 21.7878 61.708 21.7448 61.708 21.6847C61.708 21.6246 61.6908 21.5731 61.6478 21.5301C61.6049 21.4872 61.5362 21.47 61.4245 21.47H61.2613V21.8909H61.2528Z" fill="#A7AAB8" fill-opacity="0.9"/>
<path d="M62.5754 21.0835H63.1595V22.5093H64.0699V22.9731H62.5754V21.0835Z" fill="#A7AAB8" fill-opacity="0.9"/>
<path d="M64.3619 21.0835H64.946V22.9731H64.3619V21.0835Z" fill="#A7AAB8" fill-opacity="0.9"/>
<path d="M66.5264 22.6553H65.8651L65.7706 22.9645H65.178L65.8909 21.075H66.5264L67.2393 22.9645H66.6295L66.5264 22.6553ZM66.4062 22.2516L66.2001 21.5731L65.9939 22.2516H66.4062Z" fill="#A7AAB8" fill-opacity="0.9"/>
<path d="M67.4197 21.0835H67.9608L68.6737 22.1313V21.0835H69.2234V22.9731H68.6737L67.9694 21.9338V22.9731H67.4197V21.0835Z" fill="#A7AAB8" fill-opacity="0.9"/>
<path d="M69.481 21.0835H71.2589V21.5473H70.6662V22.9731H70.0822V21.5473H69.4895V21.0835H69.481Z" fill="#A7AAB8" fill-opacity="0.9"/>
<path d="M48.1632 23.9607L49.8552 23.4282L49.3055 22.2086C48.9018 22.7153 48.4981 23.3681 48.1632 23.9607ZM47.5877 18.3865L44.2724 11L20 12.3742L26.7251 30.7202L39.6687 26.6405C38.8442 25.4552 38.5435 24.0466 39.4969 23.3595C40.5619 22.5865 42.1681 23.4797 43.1902 24.7423C44.1779 23.0932 46.9521 19.254 47.5877 18.3865Z" fill="#A7AAB8" fill-opacity="0.9"/>
<path d="M43.5163 16.3381C44.5297 16.3381 45.3543 15.5651 45.3543 14.6031C45.3543 13.6412 44.5297 12.8682 43.5163 12.8682C42.5028 12.8682 41.6782 13.6412 41.6782 14.6031C41.6782 15.5565 42.5028 16.3381 43.5163 16.3381ZM42.0132 17.0853H45.0193V24.9443H42.0132V17.0853Z" fill="#02194A"/>
<path d="M40.5273 19.3786C40.5531 19.3872 40.5703 19.3786 40.5703 19.3528V17.3602C40.5703 17.3344 40.5531 17.3087 40.5273 17.2915C40.5273 17.2915 40.1322 17.0338 38.9298 16.9651C38.8696 16.9308 37.8132 16.9222 37.5298 16.9651C33.1494 17.3173 32.9862 20.4866 32.9862 20.624V21.397C32.9862 21.4915 32.9862 24.7295 37.5298 25.0129C37.9764 25.0473 38.8439 25.0129 38.9298 25.0129C39.9776 25.0129 40.6991 24.6952 40.6991 24.6952C40.7249 24.6866 40.742 24.6608 40.742 24.635V22.7712C40.742 22.7455 40.7249 22.7369 40.7077 22.7541C40.7077 22.7541 40.3813 23.0117 38.9555 23.1577C38.5519 23.2007 38.3543 23.1835 38.2083 23.1577C36.1813 22.8142 36.0868 21.3369 36.0868 21.3369C36.0868 21.3111 36.0782 21.2682 36.0782 21.251V20.6841C36.0782 20.6584 36.0782 20.6154 36.0868 20.5982C36.0868 20.5982 36.2242 19.0093 38.2083 18.8375H38.9555C39.823 18.9492 40.5273 19.3786 40.5273 19.3786Z" fill="#02194A"/>
<path d="M24.6377 24.9184C24.6377 24.9442 24.6549 24.9614 24.6806 24.9614H27.6095C27.6352 24.9614 27.6524 24.9442 27.6524 24.9184V22.6337C27.6524 22.608 27.6696 22.5908 27.6954 22.5908C27.6954 22.5908 32.3763 22.9258 32.3763 19.7908C32.3763 17.3086 29.4389 17.0423 28.477 17.0853C28.4598 17.0853 24.6806 17.0853 24.6806 17.0853C24.6549 17.0853 24.6377 17.1025 24.6377 17.1282V24.9184ZM27.6009 20.8472V18.7945H28.3224C28.3224 18.7945 29.3616 18.8374 29.4475 19.5503C29.4647 19.6018 29.4647 19.954 29.4475 19.9712C29.3101 20.8043 28.4082 20.8472 28.4082 20.8472H27.6009Z" fill="#02194A"/>
<path d="M43.6025 28.7362C43.843 28.7362 44.0319 28.7362 44.3411 28.5988C45.4062 28.0405 49.0049 19.254 52.8013 16.5485C52.827 16.5313 52.8528 16.5055 52.87 16.4798C52.8957 16.4454 52.8957 16.411 52.8957 16.411C52.8957 16.411 52.8957 16.2307 52.3375 16.2307C48.962 16.1362 45.4491 23.2221 43.6025 26.0221C43.5767 26.0564 43.4565 26.0221 43.4565 26.0221C43.4565 26.0221 42.2196 24.562 41.146 24.0037C41.1203 23.9951 41 23.9521 40.8712 23.9607C40.7853 23.9607 40.2871 24.0638 40.0552 24.3043C39.7804 24.5963 39.789 24.7595 39.789 25.1117C39.789 25.1374 39.8061 25.2577 39.8405 25.3178C40.1068 25.7816 41.3006 27.4307 42.2884 28.3411C42.4344 28.4528 42.6663 28.7362 43.6025 28.7362Z" fill="#A7AAB8" fill-opacity="0.9"/>
<path d="M53.7976 13.8945H56.6062C57.1645 13.8945 57.6111 13.9718 57.9461 14.1178C58.2896 14.2724 58.5731 14.4872 58.7878 14.762C59.0111 15.0455 59.1743 15.3718 59.2688 15.7412C59.3718 16.1105 59.4234 16.5056 59.4234 16.9264C59.4234 17.5792 59.3461 18.086 59.2001 18.4467C59.0541 18.8074 58.8479 19.108 58.5817 19.3571C58.3154 19.5976 58.032 19.7608 57.7314 19.8467C57.3191 19.9584 56.9412 20.0099 56.6062 20.0099H53.7976V13.8945ZM55.6872 15.2774V18.6185H56.151C56.5461 18.6185 56.8295 18.5755 56.9927 18.4896C57.1559 18.4037 57.2933 18.2491 57.3878 18.0344C57.4823 17.8197 57.5338 17.459 57.5338 16.9694C57.5338 16.3166 57.4307 15.8786 57.216 15.6381C57.0013 15.3976 56.6577 15.2774 56.1596 15.2774H55.6872Z" fill="#A7AAB8" fill-opacity="0.9"/>
<path d="M59.9473 17.9915L61.7509 17.8799C61.7939 18.1719 61.8712 18.3952 61.9914 18.5498C62.189 18.7989 62.4638 18.9191 62.8246 18.9191C63.0908 18.9191 63.3055 18.859 63.4516 18.7302C63.5976 18.6014 63.6749 18.4553 63.6749 18.2922C63.6749 18.1376 63.6062 17.9915 63.4687 17.8627C63.3313 17.7339 63.0049 17.6222 62.4982 17.5106C61.6651 17.3216 61.081 17.0725 60.7203 16.7633C60.3595 16.4541 60.1878 16.059 60.1878 15.578C60.1878 15.2603 60.2822 14.9682 60.4626 14.6848C60.643 14.4014 60.9178 14.1866 61.2871 14.0234C61.6565 13.8603 62.1546 13.783 62.7902 13.783C63.5718 13.783 64.173 13.929 64.5767 14.221C64.989 14.513 65.2295 14.9768 65.3068 15.6124L63.5203 15.7155C63.4687 15.4406 63.3743 15.2431 63.2197 15.1142C63.0651 14.9854 62.8589 14.9253 62.5927 14.9253C62.3694 14.9253 62.2062 14.9682 62.0945 15.0627C61.9828 15.1572 61.9313 15.2688 61.9313 15.4063C61.9313 15.5007 61.9743 15.5952 62.0687 15.6725C62.1546 15.7498 62.3693 15.8271 62.7043 15.8958C63.5289 16.0762 64.1215 16.2566 64.4822 16.4369C64.843 16.6173 65.1006 16.8492 65.2638 17.1155C65.427 17.3817 65.5043 17.6909 65.5043 18.0259C65.5043 18.421 65.3927 18.7817 65.1779 19.1081C64.9632 19.4431 64.654 19.6921 64.2675 19.8639C63.881 20.0357 63.3828 20.1216 62.7902 20.1216C61.7509 20.1216 61.0295 19.924 60.6258 19.5204C60.2307 19.1167 60.0074 18.6099 59.9473 17.9915Z" fill="#A7AAB8" fill-opacity="0.9"/>
<path d="M65.9854 17.9915L67.789 17.8799C67.832 18.1719 67.9093 18.3952 68.0295 18.5498C68.2271 18.7989 68.5019 18.9191 68.8627 18.9191C69.1289 18.9191 69.3436 18.859 69.4896 18.7302C69.6357 18.6014 69.713 18.4553 69.713 18.2922C69.713 18.1376 69.6442 17.9915 69.5068 17.8627C69.3694 17.7339 69.043 17.6222 68.5363 17.5106C67.7031 17.3216 67.1191 17.0725 66.7584 16.7633C66.4062 16.4541 66.2258 16.059 66.2258 15.578C66.2258 15.2603 66.3203 14.9682 66.5007 14.6848C66.6811 14.4014 66.9559 14.1866 67.3252 14.0234C67.6946 13.8603 68.1927 13.783 68.8283 13.783C69.6099 13.783 70.2111 13.929 70.6148 14.221C71.0271 14.513 71.2676 14.9768 71.3449 15.6124L69.5584 15.7155C69.5068 15.4406 69.4123 15.2431 69.2577 15.1142C69.1031 14.9854 68.897 14.9253 68.6307 14.9253C68.4074 14.9253 68.2442 14.9682 68.1326 15.0627C68.0209 15.1572 67.9694 15.2688 67.9694 15.4063C67.9694 15.5007 68.0123 15.5952 68.1068 15.6725C68.1927 15.7498 68.4074 15.8271 68.7424 15.8958C69.5669 16.0762 70.1596 16.2566 70.5203 16.4369C70.8811 16.6173 71.1387 16.8492 71.3019 17.1155C71.4651 17.3817 71.5424 17.6909 71.5424 18.0259C71.5424 18.421 71.4307 18.7817 71.216 19.1081C71.0013 19.4431 70.6921 19.6921 70.3056 19.8639C69.9191 20.0357 69.4209 20.1216 68.8283 20.1216C67.789 20.1216 67.0676 19.924 66.6639 19.5204C66.2602 19.1167 66.0369 18.6099 65.9854 17.9915Z" fill="#A7AAB8" fill-opacity="0.9"/>
</svg>
