<svg width="94" height="43" viewBox="0 0 94 43" fill="none" xmlns="http://www.w3.org/2000/svg">
<path d="M30.4491 20.0442C30.1731 20.0442 29.9251 19.9962 29.7051 19.9002C29.4891 19.8002 29.3191 19.6642 29.1951 19.4922C29.0711 19.3162 29.0071 19.1142 29.0031 18.8862H29.5851C29.6051 19.0822 29.6851 19.2482 29.8251 19.3842C29.9691 19.5162 30.1771 19.5822 30.4491 19.5822C30.7091 19.5822 30.9131 19.5182 31.0611 19.3902C31.2131 19.2582 31.2891 19.0902 31.2891 18.8862C31.2891 18.7262 31.2451 18.5962 31.1571 18.4962C31.0691 18.3962 30.9591 18.3202 30.8271 18.2682C30.6951 18.2162 30.5171 18.1602 30.2931 18.1002C30.0171 18.0282 29.7951 17.9562 29.6271 17.8842C29.4631 17.8122 29.3211 17.7002 29.2011 17.5482C29.0851 17.3922 29.0271 17.1842 29.0271 16.9242C29.0271 16.6962 29.0851 16.4942 29.2011 16.3182C29.3171 16.1422 29.4791 16.0062 29.6871 15.9102C29.8991 15.8142 30.1411 15.7662 30.4131 15.7662C30.8051 15.7662 31.1251 15.8642 31.3731 16.0602C31.6251 16.2562 31.7671 16.5162 31.7991 16.8402H31.1991C31.1791 16.6802 31.0951 16.5402 30.9471 16.4202C30.7991 16.2962 30.6031 16.2342 30.3591 16.2342C30.1311 16.2342 29.9451 16.2942 29.8011 16.4142C29.6571 16.5302 29.5851 16.6942 29.5851 16.9062C29.5851 17.0582 29.6271 17.1822 29.7111 17.2782C29.7991 17.3742 29.9051 17.4482 30.0291 17.5002C30.1571 17.5482 30.3351 17.6042 30.5631 17.6682C30.8391 17.7442 31.0611 17.8202 31.2291 17.8962C31.3971 17.9682 31.5411 18.0822 31.6611 18.2382C31.7811 18.3902 31.8411 18.5982 31.8411 18.8622C31.8411 19.0662 31.7871 19.2582 31.6791 19.4382C31.5711 19.6182 31.4111 19.7642 31.1991 19.8762C30.9871 19.9882 30.7371 20.0442 30.4491 20.0442ZM33.9706 20.0442C33.6946 20.0442 33.4466 19.9962 33.2266 19.9002C33.0106 19.8002 32.8406 19.6642 32.7166 19.4922C32.5926 19.3162 32.5286 19.1142 32.5246 18.8862H33.1066C33.1266 19.0822 33.2066 19.2482 33.3466 19.3842C33.4906 19.5162 33.6986 19.5822 33.9706 19.5822C34.2306 19.5822 34.4346 19.5182 34.5826 19.3902C34.7346 19.2582 34.8106 19.0902 34.8106 18.8862C34.8106 18.7262 34.7666 18.5962 34.6786 18.4962C34.5906 18.3962 34.4806 18.3202 34.3486 18.2682C34.2166 18.2162 34.0386 18.1602 33.8146 18.1002C33.5386 18.0282 33.3166 17.9562 33.1486 17.8842C32.9846 17.8122 32.8426 17.7002 32.7226 17.5482C32.6066 17.3922 32.5486 17.1842 32.5486 16.9242C32.5486 16.6962 32.6066 16.4942 32.7226 16.3182C32.8386 16.1422 33.0006 16.0062 33.2086 15.9102C33.4206 15.8142 33.6626 15.7662 33.9346 15.7662C34.3266 15.7662 34.6466 15.8642 34.8946 16.0602C35.1466 16.2562 35.2886 16.5162 35.3206 16.8402H34.7206C34.7006 16.6802 34.6166 16.5402 34.4686 16.4202C34.3206 16.2962 34.1246 16.2342 33.8806 16.2342C33.6526 16.2342 33.4666 16.2942 33.3226 16.4142C33.1786 16.5302 33.1066 16.6942 33.1066 16.9062C33.1066 17.0582 33.1486 17.1822 33.2326 17.2782C33.3206 17.3742 33.4266 17.4482 33.5506 17.5002C33.6786 17.5482 33.8566 17.6042 34.0846 17.6682C34.3606 17.7442 34.5826 17.8202 34.7506 17.8962C34.9186 17.9682 35.0626 18.0822 35.1826 18.2382C35.3026 18.3902 35.3626 18.5982 35.3626 18.8622C35.3626 19.0662 35.3086 19.2582 35.2006 19.4382C35.0926 19.6182 34.9326 19.7642 34.7206 19.8762C34.5086 19.9882 34.2586 20.0442 33.9706 20.0442ZM36.712 19.5582H38.176V20.0022H36.166V15.8202H36.712V19.5582ZM41.0359 17.5722V18.0342H38.6419V17.5722H41.0359ZM41.8566 18.3522C41.8566 18.0122 41.9246 17.7162 42.0606 17.4642C42.1966 17.2082 42.3846 17.0102 42.6246 16.8702C42.8686 16.7302 43.1466 16.6602 43.4586 16.6602C43.8626 16.6602 44.1946 16.7582 44.4546 16.9542C44.7186 17.1502 44.8926 17.4222 44.9766 17.7702H44.3886C44.3326 17.5702 44.2226 17.4122 44.0586 17.2962C43.8986 17.1802 43.6986 17.1222 43.4586 17.1222C43.1466 17.1222 42.8946 17.2302 42.7026 17.4462C42.5106 17.6582 42.4146 17.9602 42.4146 18.3522C42.4146 18.7482 42.5106 19.0542 42.7026 19.2702C42.8946 19.4862 43.1466 19.5942 43.4586 19.5942C43.6986 19.5942 43.8986 19.5382 44.0586 19.4262C44.2186 19.3142 44.3286 19.1542 44.3886 18.9462H44.9766C44.8886 19.2822 44.7126 19.5522 44.4486 19.7562C44.1846 19.9562 43.8546 20.0562 43.4586 20.0562C43.1466 20.0562 42.8686 19.9862 42.6246 19.8462C42.3846 19.7062 42.1966 19.5082 42.0606 19.2522C41.9246 18.9962 41.8566 18.6962 41.8566 18.3522ZM48.7051 18.2322C48.7051 18.3362 48.6991 18.4462 48.6871 18.5622H46.0591C46.0791 18.8862 46.1891 19.1402 46.3891 19.3242C46.5931 19.5042 46.8391 19.5942 47.1271 19.5942C47.3631 19.5942 47.5591 19.5402 47.7151 19.4322C47.8751 19.3202 47.9871 19.1722 48.0511 18.9882H48.6391C48.5511 19.3042 48.3751 19.5622 48.1111 19.7622C47.8471 19.9582 47.5191 20.0562 47.1271 20.0562C46.8151 20.0562 46.5351 19.9862 46.2871 19.8462C46.0431 19.7062 45.8511 19.5082 45.7111 19.2522C45.5711 18.9922 45.5011 18.6922 45.5011 18.3522C45.5011 18.0122 45.5691 17.7142 45.7051 17.4582C45.8411 17.2022 46.0311 17.0062 46.2751 16.8702C46.5231 16.7302 46.8071 16.6602 47.1271 16.6602C47.4391 16.6602 47.7151 16.7282 47.9551 16.8642C48.1951 17.0002 48.3791 17.1882 48.5071 17.4282C48.6391 17.6642 48.7051 17.9322 48.7051 18.2322ZM48.1411 18.1182C48.1411 17.9102 48.0951 17.7322 48.0031 17.5842C47.9111 17.4322 47.7851 17.3182 47.6251 17.2422C47.4691 17.1622 47.2951 17.1222 47.1031 17.1222C46.8271 17.1222 46.5911 17.2102 46.3951 17.3862C46.2031 17.5622 46.0931 17.8062 46.0651 18.1182H48.1411ZM49.9718 17.2482C50.0678 17.0602 50.2038 16.9142 50.3798 16.8102C50.5598 16.7062 50.7778 16.6542 51.0338 16.6542V17.2182H50.8898C50.2778 17.2182 49.9718 17.5502 49.9718 18.2142V20.0022H49.4258V16.7142H49.9718V17.2482ZM52.3301 17.1642V19.1022C52.3301 19.2622 52.3641 19.3762 52.4321 19.4442C52.5001 19.5082 52.6181 19.5402 52.7861 19.5402H53.1881V20.0022H52.6961C52.3921 20.0022 52.1641 19.9322 52.0121 19.7922C51.8601 19.6522 51.7841 19.4222 51.7841 19.1022V17.1642H51.3581V16.7142H51.7841V15.8862H52.3301V16.7142H53.1881V17.1642H52.3301ZM54.1316 16.1802C54.0276 16.1802 53.9396 16.1442 53.8676 16.0722C53.7956 16.0002 53.7596 15.9122 53.7596 15.8082C53.7596 15.7042 53.7956 15.6162 53.8676 15.5442C53.9396 15.4722 54.0276 15.4362 54.1316 15.4362C54.2316 15.4362 54.3156 15.4722 54.3836 15.5442C54.4556 15.6162 54.4916 15.7042 54.4916 15.8082C54.4916 15.9122 54.4556 16.0002 54.3836 16.0722C54.3156 16.1442 54.2316 16.1802 54.1316 16.1802ZM54.3956 16.7142V20.0022H53.8496V16.7142H54.3956ZM56.6642 17.1642H55.9742V20.0022H55.4282V17.1642H55.0022V16.7142H55.4282V16.4802C55.4282 16.1122 55.5222 15.8442 55.7102 15.6762C55.9022 15.5042 56.2082 15.4182 56.6282 15.4182V15.8742C56.3882 15.8742 56.2182 15.9222 56.1182 16.0182C56.0222 16.1102 55.9742 16.2642 55.9742 16.4802V16.7142H56.6642V17.1642ZM57.5828 16.1802C57.4788 16.1802 57.3908 16.1442 57.3188 16.0722C57.2468 16.0002 57.2108 15.9122 57.2108 15.8082C57.2108 15.7042 57.2468 15.6162 57.3188 15.5442C57.3908 15.4722 57.4788 15.4362 57.5828 15.4362C57.6828 15.4362 57.7668 15.4722 57.8348 15.5442C57.9068 15.6162 57.9428 15.7042 57.9428 15.8082C57.9428 15.9122 57.9068 16.0002 57.8348 16.0722C57.7668 16.1442 57.6828 16.1802 57.5828 16.1802ZM57.8468 16.7142V20.0022H57.3008V16.7142H57.8468ZM61.7774 18.2322C61.7774 18.3362 61.7714 18.4462 61.7594 18.5622H59.1314C59.1514 18.8862 59.2614 19.1402 59.4614 19.3242C59.6654 19.5042 59.9114 19.5942 60.1994 19.5942C60.4354 19.5942 60.6314 19.5402 60.7874 19.4322C60.9474 19.3202 61.0594 19.1722 61.1234 18.9882H61.7114C61.6234 19.3042 61.4474 19.5622 61.1834 19.7622C60.9194 19.9582 60.5914 20.0562 60.1994 20.0562C59.8874 20.0562 59.6074 19.9862 59.3594 19.8462C59.1154 19.7062 58.9234 19.5082 58.7834 19.2522C58.6434 18.9922 58.5734 18.6922 58.5734 18.3522C58.5734 18.0122 58.6414 17.7142 58.7774 17.4582C58.9134 17.2022 59.1034 17.0062 59.3474 16.8702C59.5954 16.7302 59.8794 16.6602 60.1994 16.6602C60.5114 16.6602 60.7874 16.7282 61.0274 16.8642C61.2674 17.0002 61.4514 17.1882 61.5794 17.4282C61.7114 17.6642 61.7774 17.9322 61.7774 18.2322ZM61.2134 18.1182C61.2134 17.9102 61.1674 17.7322 61.0754 17.5842C60.9834 17.4322 60.8574 17.3182 60.6974 17.2422C60.5414 17.1622 60.3674 17.1222 60.1754 17.1222C59.8994 17.1222 59.6634 17.2102 59.4674 17.3862C59.2754 17.5622 59.1654 17.8062 59.1374 18.1182H61.2134ZM62.2941 18.3462C62.2941 18.0102 62.3621 17.7162 62.4981 17.4642C62.6341 17.2082 62.8201 17.0102 63.0561 16.8702C63.2961 16.7302 63.5641 16.6602 63.8601 16.6602C64.1161 16.6602 64.3541 16.7202 64.5741 16.8402C64.7941 16.9562 64.9621 17.1102 65.0781 17.3022V15.5622H65.6301V20.0022H65.0781V19.3842C64.9701 19.5802 64.8101 19.7422 64.5981 19.8702C64.3861 19.9942 64.1381 20.0562 63.8541 20.0562C63.5621 20.0562 63.2961 19.9842 63.0561 19.8402C62.8201 19.6962 62.6341 19.4942 62.4981 19.2342C62.3621 18.9742 62.2941 18.6782 62.2941 18.3462ZM65.0781 18.3522C65.0781 18.1042 65.0281 17.8882 64.9281 17.7042C64.8281 17.5202 64.6921 17.3802 64.5201 17.2842C64.3521 17.1842 64.1661 17.1342 63.9621 17.1342C63.7581 17.1342 63.5721 17.1822 63.4041 17.2782C63.2361 17.3742 63.1021 17.5142 63.0021 17.6982C62.9021 17.8822 62.8521 18.0982 62.8521 18.3462C62.8521 18.5982 62.9021 18.8182 63.0021 19.0062C63.1021 19.1902 63.2361 19.3322 63.4041 19.4322C63.5721 19.5282 63.7581 19.5762 63.9621 19.5762C64.1661 19.5762 64.3521 19.5282 64.5201 19.4322C64.6921 19.3322 64.8281 19.1902 64.9281 19.0062C65.0281 18.8182 65.0781 18.6002 65.0781 18.3522ZM67.9964 19.5642C68.5044 19.1562 68.9024 18.8222 69.1904 18.5622C69.4784 18.2982 69.7204 18.0242 69.9164 17.7402C70.1164 17.4522 70.2164 17.1702 70.2164 16.8942C70.2164 16.6342 70.1524 16.4302 70.0244 16.2822C69.9004 16.1302 69.6984 16.0542 69.4184 16.0542C69.1464 16.0542 68.9344 16.1402 68.7824 16.3122C68.6344 16.4802 68.5544 16.7062 68.5424 16.9902H68.0144C68.0304 16.5422 68.1664 16.1962 68.4224 15.9522C68.6784 15.7082 69.0084 15.5862 69.4124 15.5862C69.8244 15.5862 70.1504 15.7002 70.3904 15.9282C70.6344 16.1562 70.7564 16.4702 70.7564 16.8702C70.7564 17.2022 70.6564 17.5262 70.4564 17.8422C70.2604 18.1542 70.0364 18.4302 69.7844 18.6702C69.5324 18.9062 69.2104 19.1822 68.8184 19.4982H70.8824V19.9542H67.9964V19.5642ZM74.2795 16.1382H72.1735V17.5062C72.2655 17.3782 72.4015 17.2742 72.5815 17.1942C72.7615 17.1102 72.9555 17.0682 73.1635 17.0682C73.4955 17.0682 73.7655 17.1382 73.9735 17.2782C74.1815 17.4142 74.3295 17.5922 74.4175 17.8122C74.5095 18.0282 74.5555 18.2582 74.5555 18.5022C74.5555 18.7902 74.5015 19.0482 74.3935 19.2762C74.2855 19.5042 74.1195 19.6842 73.8955 19.8162C73.6755 19.9482 73.4015 20.0142 73.0735 20.0142C72.6535 20.0142 72.3135 19.9062 72.0535 19.6902C71.7935 19.4742 71.6355 19.1862 71.5795 18.8262H72.1135C72.1655 19.0542 72.2755 19.2322 72.4435 19.3602C72.6115 19.4882 72.8235 19.5522 73.0795 19.5522C73.3955 19.5522 73.6335 19.4582 73.7935 19.2702C73.9535 19.0782 74.0335 18.8262 74.0335 18.5142C74.0335 18.2022 73.9535 17.9622 73.7935 17.7942C73.6335 17.6222 73.3975 17.5362 73.0855 17.5362C72.8735 17.5362 72.6875 17.5882 72.5275 17.6922C72.3715 17.7922 72.2575 17.9302 72.1855 18.1062H71.6695V15.6582H74.2795V16.1382ZM77.6991 16.6962C77.6111 16.2522 77.3371 16.0302 76.8771 16.0302C76.5211 16.0302 76.2551 16.1682 76.0791 16.4442C75.9031 16.7162 75.8171 17.1662 75.8211 17.7942C75.9131 17.5862 76.0651 17.4242 76.2771 17.3082C76.4931 17.1882 76.7331 17.1282 76.9971 17.1282C77.4091 17.1282 77.7371 17.2562 77.9811 17.5122C78.2291 17.7682 78.3531 18.1222 78.3531 18.5742C78.3531 18.8462 78.2991 19.0902 78.1911 19.3062C78.0871 19.5222 77.9271 19.6942 77.7111 19.8222C77.4991 19.9502 77.2411 20.0142 76.9371 20.0142C76.5251 20.0142 76.2031 19.9222 75.9711 19.7382C75.7391 19.5542 75.5771 19.3002 75.4851 18.9762C75.3931 18.6522 75.3471 18.2522 75.3471 17.7762C75.3471 16.3082 75.8591 15.5742 76.8831 15.5742C77.2751 15.5742 77.5831 15.6802 77.8071 15.8922C78.0311 16.1042 78.1631 16.3722 78.2031 16.6962H77.6991ZM76.8831 17.5902C76.7111 17.5902 76.5491 17.6262 76.3971 17.6982C76.2451 17.7662 76.1211 17.8722 76.0251 18.0162C75.9331 18.1562 75.8871 18.3282 75.8871 18.5322C75.8871 18.8362 75.9751 19.0842 76.1511 19.2762C76.3271 19.4642 76.5791 19.5582 76.9071 19.5582C77.1871 19.5582 77.4091 19.4722 77.5731 19.3002C77.7411 19.1242 77.8251 18.8882 77.8251 18.5922C77.8251 18.2802 77.7451 18.0362 77.5851 17.8602C77.4251 17.6802 77.1911 17.5902 76.8831 17.5902ZM81.4597 17.5722V18.0342H79.0657V17.5722H81.4597ZM83.0304 17.3262C83.1424 17.1302 83.3064 16.9702 83.5224 16.8462C83.7384 16.7222 83.9844 16.6602 84.2604 16.6602C84.5564 16.6602 84.8224 16.7302 85.0584 16.8702C85.2944 17.0102 85.4804 17.2082 85.6164 17.4642C85.7524 17.7162 85.8204 18.0102 85.8204 18.3462C85.8204 18.6782 85.7524 18.9742 85.6164 19.2342C85.4804 19.4942 85.2924 19.6962 85.0524 19.8402C84.8164 19.9842 84.5524 20.0562 84.2604 20.0562C83.9764 20.0562 83.7264 19.9942 83.5104 19.8702C83.2984 19.7462 83.1384 19.5882 83.0304 19.3962V20.0022H82.4844V15.5622H83.0304V17.3262ZM85.2624 18.3462C85.2624 18.0982 85.2124 17.8822 85.1124 17.6982C85.0124 17.5142 84.8764 17.3742 84.7044 17.2782C84.5364 17.1822 84.3504 17.1342 84.1464 17.1342C83.9464 17.1342 83.7604 17.1842 83.5884 17.2842C83.4204 17.3802 83.2844 17.5222 83.1804 17.7102C83.0804 17.8942 83.0304 18.1082 83.0304 18.3522C83.0304 18.6002 83.0804 18.8182 83.1804 19.0062C83.2844 19.1902 83.4204 19.3322 83.5884 19.4322C83.7604 19.5282 83.9464 19.5762 84.1464 19.5762C84.3504 19.5762 84.5364 19.5282 84.7044 19.4322C84.8764 19.3322 85.0124 19.1902 85.1124 19.0062C85.2124 18.8182 85.2624 18.5982 85.2624 18.3462ZM86.8211 16.1802C86.7171 16.1802 86.6291 16.1442 86.5571 16.0722C86.4851 16.0002 86.4491 15.9122 86.4491 15.8082C86.4491 15.7042 86.4851 15.6162 86.5571 15.5442C86.6291 15.4722 86.7171 15.4362 86.8211 15.4362C86.9211 15.4362 87.0051 15.4722 87.0731 15.5442C87.1451 15.6162 87.1811 15.7042 87.1811 15.8082C87.1811 15.9122 87.1451 16.0002 87.0731 16.0722C87.0051 16.1442 86.9211 16.1802 86.8211 16.1802ZM87.0851 16.7142V20.0022H86.5391V16.7142H87.0851ZM88.6816 17.1642V19.1022C88.6816 19.2622 88.7156 19.3762 88.7836 19.4442C88.8516 19.5082 88.9696 19.5402 89.1376 19.5402H89.5397V20.0022H89.0476C88.7436 20.0022 88.5156 19.9322 88.3636 19.7922C88.2116 19.6522 88.1356 19.4222 88.1356 19.1022V17.1642H87.7096V16.7142H88.1356V15.8862H88.6816V16.7142H89.5397V17.1642H88.6816ZM30.4491 29.0442C30.1731 29.0442 29.9251 28.9962 29.7051 28.9002C29.4891 28.8002 29.3191 28.6642 29.1951 28.4922C29.0711 28.3162 29.0071 28.1142 29.0031 27.8862H29.5851C29.6051 28.0822 29.6851 28.2482 29.8251 28.3842C29.9691 28.5162 30.1771 28.5822 30.4491 28.5822C30.7091 28.5822 30.9131 28.5182 31.0611 28.3902C31.2131 28.2582 31.2891 28.0902 31.2891 27.8862C31.2891 27.7262 31.2451 27.5962 31.1571 27.4962C31.0691 27.3962 30.9591 27.3202 30.8271 27.2682C30.6951 27.2162 30.5171 27.1602 30.2931 27.1002C30.0171 27.0282 29.7951 26.9562 29.6271 26.8842C29.4631 26.8122 29.3211 26.7002 29.2011 26.5482C29.0851 26.3922 29.0271 26.1842 29.0271 25.9242C29.0271 25.6962 29.0851 25.4942 29.2011 25.3182C29.3171 25.1422 29.4791 25.0062 29.6871 24.9102C29.8991 24.8142 30.1411 24.7662 30.4131 24.7662C30.8051 24.7662 31.1251 24.8642 31.3731 25.0602C31.6251 25.2562 31.7671 25.5162 31.7991 25.8402H31.1991C31.1791 25.6802 31.0951 25.5402 30.9471 25.4202C30.7991 25.2962 30.6031 25.2342 30.3591 25.2342C30.1311 25.2342 29.9451 25.2942 29.8011 25.4142C29.6571 25.5302 29.5851 25.6942 29.5851 25.9062C29.5851 26.0582 29.6271 26.1822 29.7111 26.2782C29.7991 26.3742 29.9051 26.4482 30.0291 26.5002C30.1571 26.5482 30.3351 26.6042 30.5631 26.6682C30.8391 26.7442 31.0611 26.8202 31.2291 26.8962C31.3971 26.9682 31.5411 27.0822 31.6611 27.2382C31.7811 27.3902 31.8411 27.5982 31.8411 27.8622C31.8411 28.0662 31.7871 28.2582 31.6791 28.4382C31.5711 28.6182 31.4111 28.7642 31.1991 28.8762C30.9871 28.9882 30.7371 29.0442 30.4491 29.0442ZM35.6446 27.2322C35.6446 27.3362 35.6386 27.4462 35.6266 27.5622H32.9986C33.0186 27.8862 33.1286 28.1402 33.3286 28.3242C33.5326 28.5042 33.7786 28.5942 34.0666 28.5942C34.3026 28.5942 34.4986 28.5402 34.6546 28.4322C34.8146 28.3202 34.9266 28.1722 34.9906 27.9882H35.5786C35.4906 28.3042 35.3146 28.5622 35.0506 28.7622C34.7866 28.9582 34.4586 29.0562 34.0666 29.0562C33.7546 29.0562 33.4746 28.9862 33.2266 28.8462C32.9826 28.7062 32.7906 28.5082 32.6506 28.2522C32.5106 27.9922 32.4406 27.6922 32.4406 27.3522C32.4406 27.0122 32.5086 26.7142 32.6446 26.4582C32.7806 26.2022 32.9706 26.0062 33.2146 25.8702C33.4626 25.7302 33.7466 25.6602 34.0666 25.6602C34.3786 25.6602 34.6546 25.7282 34.8946 25.8642C35.1346 26.0002 35.3186 26.1882 35.4466 26.4282C35.5786 26.6642 35.6446 26.9322 35.6446 27.2322ZM35.0806 27.1182C35.0806 26.9102 35.0346 26.7322 34.9426 26.5842C34.8506 26.4322 34.7246 26.3182 34.5646 26.2422C34.4086 26.1622 34.2346 26.1222 34.0426 26.1222C33.7666 26.1222 33.5306 26.2102 33.3346 26.3862C33.1426 26.5622 33.0326 26.8062 33.0046 27.1182H35.0806ZM36.1613 27.3522C36.1613 27.0122 36.2293 26.7162 36.3653 26.4642C36.5013 26.2082 36.6893 26.0102 36.9293 25.8702C37.1733 25.7302 37.4513 25.6602 37.7633 25.6602C38.1673 25.6602 38.4993 25.7582 38.7593 25.9542C39.0233 26.1502 39.1973 26.4222 39.2813 26.7702H38.6933C38.6373 26.5702 38.5273 26.4122 38.3633 26.2962C38.2033 26.1802 38.0033 26.1222 37.7633 26.1222C37.4513 26.1222 37.1993 26.2302 37.0073 26.4462C36.8153 26.6582 36.7193 26.9602 36.7193 27.3522C36.7193 27.7482 36.8153 28.0542 37.0073 28.2702C37.1993 28.4862 37.4513 28.5942 37.7633 28.5942C38.0033 28.5942 38.2033 28.5382 38.3633 28.4262C38.5233 28.3142 38.6333 28.1542 38.6933 27.9462H39.2813C39.1933 28.2822 39.0173 28.5522 38.7533 28.7562C38.4893 28.9562 38.1593 29.0562 37.7633 29.0562C37.4513 29.0562 37.1733 28.9862 36.9293 28.8462C36.6893 28.7062 36.5013 28.5082 36.3653 28.2522C36.2293 27.9962 36.1613 27.6962 36.1613 27.3522ZM42.9258 25.7142V29.0022H42.3798V28.5162C42.2758 28.6842 42.1298 28.8162 41.9418 28.9122C41.7578 29.0042 41.5538 29.0502 41.3298 29.0502C41.0738 29.0502 40.8438 28.9982 40.6398 28.8942C40.4358 28.7862 40.2738 28.6262 40.1538 28.4142C40.0378 28.2022 39.9798 27.9442 39.9798 27.6402V25.7142H40.5198V27.5682C40.5198 27.8922 40.6018 28.1422 40.7658 28.3182C40.9298 28.4902 41.1538 28.5762 41.4378 28.5762C41.7298 28.5762 41.9598 28.4862 42.1278 28.3062C42.2958 28.1262 42.3798 27.8642 42.3798 27.5202V25.7142H42.9258ZM44.3937 26.2482C44.4897 26.0602 44.6257 25.9142 44.8017 25.8102C44.9817 25.7062 45.1997 25.6542 45.4557 25.6542V26.2182H45.3117C44.6997 26.2182 44.3937 26.5502 44.3937 27.2142V29.0022H43.8477V25.7142H44.3937V26.2482ZM46.368 25.1802C46.264 25.1802 46.176 25.1442 46.104 25.0722C46.032 25.0002 45.996 24.9122 45.996 24.8082C45.996 24.7042 46.032 24.6162 46.104 24.5442C46.176 24.4722 46.264 24.4362 46.368 24.4362C46.468 24.4362 46.552 24.4722 46.62 24.5442C46.692 24.6162 46.728 24.7042 46.728 24.8082C46.728 24.9122 46.692 25.0002 46.62 25.0722C46.552 25.1442 46.468 25.1802 46.368 25.1802ZM46.632 25.7142V29.0022H46.086V25.7142H46.632ZM48.2285 26.1642V28.1022C48.2285 28.2622 48.2625 28.3762 48.3305 28.4442C48.3985 28.5082 48.5165 28.5402 48.6845 28.5402H49.0865V29.0022H48.5945C48.2905 29.0022 48.0625 28.9322 47.9105 28.7922C47.7585 28.6522 47.6825 28.4222 47.6825 28.1022V26.1642H47.2565V25.7142H47.6825V24.8862H48.2285V25.7142H49.0865V26.1642H48.2285ZM52.5801 25.7142L50.6001 30.5502H50.0361L50.6841 28.9662L49.3581 25.7142H49.9641L50.9961 28.3782L52.0161 25.7142H52.5801Z" fill="#A7AAB8" fill-opacity="0.9"/>
<path d="M23.6302 12.849V12.7919C23.6261 12.6493 23.5053 12.5434 23.3595 12.5475L23.3054 12.5516C23.0097 12.5638 22.7139 12.5719 22.4224 12.5719C19.2237 12.5719 16.3499 11.7286 13.8759 10.0664C13.7468 9.98081 13.5761 9.98081 13.447 10.0664C10.973 11.7286 8.09918 12.5719 4.90051 12.5719C4.60897 12.5719 4.31326 12.5638 4.01755 12.5516L3.9634 12.5475C3.81763 12.5393 3.69685 12.6493 3.69268 12.7919V12.849C3.4886 18.3734 4.27161 22.5982 6.07502 25.7556C7.65353 28.5138 9.99006 30.4857 13.422 31.9523C13.5719 32.0175 13.7427 32.0175 13.8968 31.9523C17.3287 30.4816 19.6652 28.5097 21.2437 25.7556C23.0513 22.5982 23.8301 18.3734 23.6302 12.849ZM19.4195 24.7534C18.1908 26.8964 16.3999 28.4934 13.8176 29.732C13.7302 29.7727 13.5886 29.7727 13.5053 29.732C10.923 28.4934 9.13209 26.8964 7.90343 24.7534C6.48735 22.2805 5.77931 19.0049 5.75432 14.7719C5.75432 14.6782 5.83346 14.5967 5.92925 14.5927C8.6906 14.4501 11.2312 13.729 13.5136 12.4416C13.5969 12.3927 13.7302 12.3927 13.8135 12.4416C16.0959 13.729 18.6365 14.4501 21.3978 14.5927C21.4936 14.5967 21.5728 14.6782 21.5728 14.7719C21.5394 19.0049 20.8314 22.2805 19.4195 24.7534ZM13.6594 21.0949V13.0486C15.8668 14.2627 18.3199 14.9756 20.9522 15.1671C20.9147 17.4282 20.6731 19.396 20.2275 21.0949H13.6594ZM13.6594 21.0949V29.1412C11.2479 27.9638 9.58607 26.4727 8.43238 24.4601C7.87011 23.4742 7.42446 22.3579 7.09127 21.0949H13.6594Z" fill="#A7AAB8" fill-opacity="0.9"/>
</svg>
