<svg width="76" height="56" viewBox="0 0 76 56" fill="none" xmlns="http://www.w3.org/2000/svg">
<g clip-path="url(#clip0_3817_94021)">
<path d="M45.3041 47.9268C45.0184 47.9268 44.5898 47.7839 44.1612 47.3553L36.7327 40.7839C22.1612 40.4982 10.7327 33.3553 10.7327 24.3553C10.7327 15.3553 22.8755 7.92676 37.8755 7.92676C52.8755 7.92676 65.0184 15.3553 65.0184 24.3553C65.0184 31.4982 57.7327 37.641 46.5898 39.9268V46.2125C46.5898 46.641 46.447 46.9268 46.3041 47.2125C46.1612 47.7839 45.7327 47.9268 45.3041 47.9268ZM37.8755 10.0696C24.1612 10.0696 12.8755 16.4982 12.8755 24.3553C12.8755 32.0696 23.7327 38.4982 37.1612 38.641H37.5898L44.5898 44.9268V38.0696L45.447 37.9268C55.7327 36.0696 62.8755 30.3553 62.8755 24.2125C63.0184 16.4982 51.7327 10.0696 37.8755 10.0696Z" fill="#0E80DE"/>
<path d="M37.8755 28.2125C35.5898 28.2125 33.7327 26.3553 33.7327 24.0696C33.7327 21.7839 35.5898 19.9268 37.8755 19.9268C40.1612 19.9268 42.0184 21.7839 42.0184 24.0696C42.0184 26.3553 40.1612 28.2125 37.8755 28.2125ZM37.8755 22.0696C36.7327 22.0696 35.8755 22.9268 35.8755 24.0696C35.8755 25.2125 36.7327 26.0696 37.8755 26.0696C39.0184 26.0696 39.8755 25.2125 39.8755 24.0696C39.8755 22.9268 39.0184 22.0696 37.8755 22.0696Z" fill="#0E80DE"/>
<path d="M26.8755 28.4981C24.5898 28.4981 22.7327 26.641 22.7327 24.3553C22.7327 22.0695 24.5898 20.2124 26.8755 20.2124C29.1612 20.2124 31.0184 22.0695 31.0184 24.3553C31.0184 26.641 29.1612 28.4981 26.8755 28.4981ZM26.8755 22.4981C25.7327 22.4981 24.8755 23.3553 24.8755 24.4981C24.8755 25.641 25.7327 26.4981 26.8755 26.4981C28.0184 26.4981 28.8755 25.641 28.8755 24.4981C28.8755 23.3553 28.0184 22.4981 26.8755 22.4981Z" fill="#0E80DE"/>
<path d="M49.0183 27.7839C46.7326 27.7839 44.8755 25.9267 44.8755 23.641C44.8755 21.3553 46.7326 19.4982 49.0183 19.4982C51.3041 19.4982 53.1612 21.3553 53.1612 23.641C53.0184 25.9267 51.3041 27.7839 49.0183 27.7839ZM49.0183 21.641C47.8755 21.641 47.0183 22.4982 47.0183 23.641C47.0183 24.7839 47.8755 25.641 49.0183 25.641C50.1612 25.641 51.0184 24.7839 51.0184 23.641C50.8755 22.4982 50.0183 21.641 49.0183 21.641Z" fill="#0E80DE"/>
</g>
<defs>
<clipPath id="clip0_3817_94021">
<rect width="54.4286" height="40" fill="white" transform="translate(10.7327 7.92676)"/>
</clipPath>
</defs>
</svg>
