<svg width="76" height="56" viewBox="0 0 76 56" fill="none" xmlns="http://www.w3.org/2000/svg">
<g clip-path="url(#clip0_4585_122677)">
<path d="M45.3039 47.9268C45.0181 47.9268 44.5896 47.7839 44.161 47.3553L36.7324 40.7839C22.161 40.4982 10.7324 33.3553 10.7324 24.3553C10.7324 15.3553 22.8753 7.92676 37.8753 7.92676C52.8753 7.92676 65.0181 15.3553 65.0181 24.3553C65.0181 31.4982 57.7324 37.641 46.5896 39.9268V46.2125C46.5896 46.641 46.4467 46.9268 46.3039 47.2125C46.161 47.7839 45.7324 47.9268 45.3039 47.9268ZM37.8753 10.0696C24.161 10.0696 12.8753 16.4982 12.8753 24.3553C12.8753 32.0696 23.7324 38.4982 37.161 38.641H37.5896L44.5896 44.9268V38.0696L45.4467 37.9268C55.7324 36.0696 62.8753 30.3553 62.8753 24.2125C63.0181 16.4982 51.7324 10.0696 37.8753 10.0696Z" fill="white"/>
<path d="M37.8753 28.2125C35.5896 28.2125 33.7324 26.3553 33.7324 24.0696C33.7324 21.7839 35.5896 19.9268 37.8753 19.9268C40.161 19.9268 42.0181 21.7839 42.0181 24.0696C42.0181 26.3553 40.161 28.2125 37.8753 28.2125ZM37.8753 22.0696C36.7324 22.0696 35.8753 22.9268 35.8753 24.0696C35.8753 25.2125 36.7324 26.0696 37.8753 26.0696C39.0181 26.0696 39.8753 25.2125 39.8753 24.0696C39.8753 22.9268 39.0181 22.0696 37.8753 22.0696Z" fill="white"/>
<path d="M26.8753 28.4981C24.5896 28.4981 22.7324 26.641 22.7324 24.3553C22.7324 22.0695 24.5896 20.2124 26.8753 20.2124C29.161 20.2124 31.0181 22.0695 31.0181 24.3553C31.0181 26.641 29.161 28.4981 26.8753 28.4981ZM26.8753 22.4981C25.7324 22.4981 24.8753 23.3553 24.8753 24.4981C24.8753 25.641 25.7324 26.4981 26.8753 26.4981C28.0181 26.4981 28.8753 25.641 28.8753 24.4981C28.8753 23.3553 28.0181 22.4981 26.8753 22.4981Z" fill="white"/>
<path d="M49.0183 27.7839C46.7326 27.7839 44.8755 25.9267 44.8755 23.641C44.8755 21.3553 46.7326 19.4982 49.0183 19.4982C51.3041 19.4982 53.1612 21.3553 53.1612 23.641C53.0184 25.9267 51.3041 27.7839 49.0183 27.7839ZM49.0183 21.641C47.8755 21.641 47.0183 22.4982 47.0183 23.641C47.0183 24.7839 47.8755 25.641 49.0183 25.641C50.1612 25.641 51.0184 24.7839 51.0184 23.641C50.8755 22.4982 50.0183 21.641 49.0183 21.641Z" fill="white"/>
</g>
<defs>
<clipPath id="clip0_4585_122677">
<rect width="54.4286" height="40" fill="white" transform="translate(10.7324 7.92676)"/>
</clipPath>
</defs>
</svg>
