<svg width="12" height="12" viewBox="0 0 12 12" fill="none" xmlns="http://www.w3.org/2000/svg">
<g opacity="0.8">
<path fill-rule="evenodd" clip-rule="evenodd" d="M6 11.2C8.87188 11.2 11.2 8.87188 11.2 6C11.2 3.12812 8.87188 0.8 6 0.8C3.12812 0.8 0.8 3.12812 0.8 6C0.8 8.87188 3.12812 11.2 6 11.2ZM6 12C9.31371 12 12 9.31371 12 6C12 2.68629 9.31371 0 6 0C2.68629 0 0 2.68629 0 6C0 9.31371 2.68629 12 6 12Z" fill="#02194A"/>
<path fill-rule="evenodd" clip-rule="evenodd" d="M5.47668 3.60419H5.99668V6.53576H8.66217V7.05576H5.47668V3.60419Z" fill="#02194A"/>
</g>
</svg>
