<svg width="15" height="14" viewBox="0 0 15 14" fill="none" xmlns="http://www.w3.org/2000/svg">
<g opacity="0.8">
<path d="M4.59253 11.0031L7.39324 13.9004L10.1937 11.0031L9.62518 10.4149L7.79541 12.3081V6.66604H6.9911V12.3081L5.16134 10.4149L4.59253 11.0031Z" fill="#02194A"/>
<path d="M11.6848 2.90532C11.5517 2.90532 11.4172 2.91438 11.2832 2.93228C10.6028 1.90197 9.36415 1.34792 8.1545 1.57835C7.58461 0.661332 6.6001 0.0995998 5.53903 0.0995998C3.93466 0.0995998 2.61524 1.34768 2.44645 2.9796C1.01643 3.2969 0 4.58618 0 6.12464C0 7.89955 1.39597 9.34366 3.11172 9.34366H6.21918V8.51875H3.11198C1.83588 8.51875 0.797671 7.44474 0.797671 6.12461C0.797671 4.89496 1.68811 3.87152 2.86853 3.74396L3.22525 3.66037V3.31804C3.22525 1.99821 4.2632 0.924202 5.53929 0.924202C6.41378 0.924202 7.20399 1.42711 7.60165 2.23662L7.75128 2.541L8.06811 2.44588C9.11616 2.13159 10.2254 2.62875 10.7375 3.58561L10.8816 3.85481L11.1724 3.78881C11.3425 3.75005 11.5145 3.73026 11.6846 3.73026C12.9551 3.73026 13.9888 4.80427 13.9888 6.12437C13.9888 7.4442 12.9506 8.51851 11.6745 8.51851H8.54523V9.34342H11.6739C13.3897 9.34342 14.7857 7.89931 14.7857 6.1244C14.7857 4.34946 13.3947 2.90532 11.6848 2.90532Z" fill="#02194A"/>
</g>
</svg>
