<svg width="19" height="19" viewBox="0 0 19 19" fill="none" xmlns="http://www.w3.org/2000/svg">
<g opacity="0.8">
<path d="M17.1669 0.34375H7.21713C6.50801 0.34375 5.93115 0.92065 5.93115 1.62973V4.64802H7.10507V1.62973C7.10507 1.56795 7.15535 1.51766 7.21713 1.51766H17.1669C17.2287 1.51766 17.279 1.56795 17.279 1.62973V11.5795C17.279 11.6413 17.2287 11.6916 17.1669 11.6916H14.2427V12.8655H17.1669C17.876 12.8655 18.4529 12.2886 18.4529 11.5795V1.62973C18.4529 0.92065 17.876 0.34375 17.1669 0.34375Z" fill="#02194A"/>
<path d="M11.7829 5.8219H1.83314C1.12402 5.8219 0.547119 6.3988 0.547119 7.10792V17.0577C0.547158 17.7668 1.12402 18.3437 1.83314 18.3437H11.7829C12.492 18.3437 13.0689 17.7668 13.0689 17.0577V7.10792C13.069 6.3988 12.492 5.8219 11.7829 5.8219ZM11.783 17.1698H1.83314C1.77131 17.1698 1.72103 17.1195 1.72103 17.0577V7.10792C1.72103 7.0461 1.77131 6.99581 1.83314 6.99581H11.7829C11.8447 6.99581 11.895 7.0461 11.895 7.10792V17.0577H11.8951C11.8951 17.1195 11.8447 17.1698 11.783 17.1698Z" fill="#02194A"/>
</g>
</svg>
