<svg width="18" height="17" viewBox="0 0 18 17" fill="none" xmlns="http://www.w3.org/2000/svg">
<g clip-path="url(#clip0_2781_75470)">
<path d="M13.2266 6.02374L11.4488 4.09546C11.3924 4.03423 11.3224 3.99168 11.2354 4.00117C11.1556 4.0024 11.0794 4.03852 11.0246 4.10127L5.39504 10.529C5.34283 10.5887 5.31348 10.6683 5.31348 10.7503V12.6786C5.31348 12.8561 5.44612 13 5.60981 13H7.38756H10.9431C11.1067 13 11.2394 12.8561 11.2394 12.6786C11.2394 12.501 11.1067 12.3571 10.9431 12.3571H8.07761L13.2319 6.47221C13.3425 6.34609 13.3403 6.1471 13.2266 6.02374ZM5.90615 12.3571V10.8786L10.1404 6.04394L11.4988 7.51732L7.26028 12.3571H5.90615ZM11.9071 7.0514L10.5488 5.57802L11.2448 4.78332L12.6034 6.2567L11.9071 7.0514Z" fill="#02194A"/>
</g>
<defs>
<clipPath id="clip0_2781_75470">
<rect width="8" height="9" fill="white" transform="translate(5.31348 4)"/>
</clipPath>
</defs>
</svg>
