<svg width="18" height="18" viewBox="0 0 18 18" fill="none" xmlns="http://www.w3.org/2000/svg">
<path d="M8.12598 7.53647H7.43848V11.6615H8.12598V7.53647Z" fill="#0E80E1"/>
<path d="M10.1885 7.53647H9.50098V11.6615H10.1885V7.53647Z" fill="#0E80E1"/>
<path d="M4.68848 5.47397V6.16147H5.37598V13.0365C5.37598 13.2188 5.44841 13.3937 5.57734 13.5226C5.70627 13.6515 5.88114 13.724 6.06348 13.724H11.5635C11.7458 13.724 11.9207 13.6515 12.0496 13.5226C12.1785 13.3937 12.251 13.2188 12.251 13.0365V6.16147H12.9385V5.47397H4.68848ZM6.06348 13.0365V6.16147H11.5635V13.0365H6.06348Z" fill="#0E80E1"/>
<path d="M10.1885 4.09897H7.43848V4.78647H10.1885V4.09897Z" fill="#0E80E1"/>
</svg>
