<svg width="17" height="17" viewBox="0 0 17 17" fill="none" xmlns="http://www.w3.org/2000/svg">
<path d="M7.8125 7.125H7.125V11.25H7.8125V7.125Z" fill="#02194A"/>
<path d="M9.875 7.125H9.1875V11.25H9.875V7.125Z" fill="#02194A"/>
<path d="M4.375 5.0625V5.75H5.0625V12.625C5.0625 12.8073 5.13493 12.9822 5.26386 13.1111C5.3928 13.2401 5.56766 13.3125 5.75 13.3125H11.25C11.4323 13.3125 11.6072 13.2401 11.7361 13.1111C11.8651 12.9822 11.9375 12.8073 11.9375 12.625V5.75H12.625V5.0625H4.375ZM5.75 12.625V5.75H11.25V12.625H5.75Z" fill="#02194A"/>
<path d="M9.875 3.6875H7.125V4.375H9.875V3.6875Z" fill="#02194A"/>
</svg>
