<svg width="17" height="17" viewBox="0 0 17 17" fill="none" xmlns="http://www.w3.org/2000/svg">
<g clip-path="url(#clip0_2115_57102)">
<path d="M12.9131 6.02377L11.1353 4.09549C11.0789 4.03426 11.0089 3.99171 10.922 4.0012C10.8421 4.00243 10.7659 4.03855 10.7111 4.1013L5.08156 10.529C5.02935 10.5887 5 10.6683 5 10.7503V12.6786C5 12.8562 5.13265 13 5.29634 13H7.07408H10.6296C10.7933 13 10.9259 12.8562 10.9259 12.6786C10.9259 12.5011 10.7933 12.3572 10.6296 12.3572H7.76413L12.9184 6.47224C13.0291 6.34612 13.0268 6.14713 12.9131 6.02377ZM5.59268 12.3572V10.8786L9.82692 6.04397L11.1853 7.51735L6.9468 12.3572H5.59268ZM11.5937 7.05143L10.2353 5.57805L10.9313 4.78335L12.2899 6.25673L11.5937 7.05143Z" fill="#0E80E1"/>
</g>
<defs>
<clipPath id="clip0_2115_57102">
<rect width="8" height="9" fill="white" transform="translate(5 4)"/>
</clipPath>
</defs>
</svg>
