<svg width="18" height="20" viewBox="0 0 18 20" fill="none" xmlns="http://www.w3.org/2000/svg">
<path d="M7.28353 20.0001C7.24256 20.0001 7.20079 19.9946 7.15902 19.9829C6.97826 19.929 6.85535 19.7665 6.85535 19.5836V7.08327C6.85535 6.92233 6.95014 6.77544 7.10036 6.7067C7.24898 6.63639 7.42651 6.65826 7.55504 6.75983L16.9806 14.26C17.1212 14.3718 17.1742 14.5569 17.1123 14.7226C17.0521 14.889 16.8906 14.9999 16.7091 14.9999H10.9403L7.6393 19.814C7.55897 19.9328 7.42401 20 7.28342 20L7.28353 20.0001ZM7.7117 7.9621V18.207L10.3548 14.3523C10.4343 14.2367 10.5685 14.1663 10.7115 14.1663H15.509L7.7117 7.9621Z" fill="#0E80E1"/>
<path d="M4.82321 13.7223C4.77179 13.7223 4.71958 13.713 4.66897 13.695C0.92051 12.2926 -0.956084 8.18624 0.485963 4.54073C1.92795 0.895228 6.15029 -0.929825 9.89875 0.472616C13.6472 1.875 15.5238 5.98138 14.0818 9.62688C13.9958 9.84173 13.7476 9.94799 13.5283 9.86595C13.3081 9.78313 13.1973 9.54172 13.2824 9.32765C14.5541 6.11116 12.8984 2.48765 9.59116 1.25082C6.283 0.0117225 2.55717 1.62271 1.2854 4.83912C0.0137195 8.05562 1.6694 11.6791 4.97669 12.916C5.1968 12.9988 5.30767 13.2402 5.22251 13.4543C5.15744 13.6207 4.99516 13.7222 4.82325 13.7222L4.82321 13.7223Z" fill="#0E80E1"/>
</svg>
