<svg width="18" height="20" viewBox="0 0 18 20" fill="none" xmlns="http://www.w3.org/2000/svg">
<path d="M7.28365 20.0001C7.24268 20.0001 7.20091 19.9946 7.15914 19.9829C6.97839 19.929 6.85547 19.7665 6.85547 19.5836V7.08327C6.85547 6.92233 6.95026 6.77544 7.10048 6.7067C7.2491 6.63639 7.42663 6.65826 7.55517 6.75983L16.9807 14.26C17.1213 14.3718 17.1743 14.5569 17.1125 14.7226C17.0522 14.889 16.8907 14.9999 16.7092 14.9999H10.9404L7.63943 19.814C7.55909 19.9328 7.42413 20 7.28354 20L7.28365 20.0001ZM7.71183 7.9621V18.207L10.3549 14.3523C10.4344 14.2367 10.5686 14.1663 10.7116 14.1663H15.5091L7.71183 7.9621Z" fill="white"/>
<path d="M4.82321 13.7223C4.77179 13.7223 4.71958 13.713 4.66897 13.695C0.92051 12.2926 -0.956084 8.18624 0.485963 4.54073C1.92795 0.895228 6.15029 -0.929825 9.89875 0.472616C13.6472 1.875 15.5238 5.98138 14.0818 9.62688C13.9958 9.84173 13.7476 9.94799 13.5283 9.86595C13.3081 9.78313 13.1973 9.54172 13.2824 9.32765C14.5541 6.11116 12.8984 2.48765 9.59116 1.25082C6.283 0.0117225 2.55717 1.62271 1.2854 4.83912C0.0137195 8.05562 1.6694 11.6791 4.97669 12.916C5.1968 12.9988 5.30767 13.2402 5.22251 13.4543C5.15744 13.6207 4.99516 13.7222 4.82325 13.7222L4.82321 13.7223Z" fill="white"/>
</svg>
