<svg width="15" height="15" viewBox="0 0 15 15" fill="none" xmlns="http://www.w3.org/2000/svg">
<path d="M13.8225 4.27318L10.7824 1.23303C10.6992 1.1498 10.5862 1.10303 10.4685 1.10303C10.3507 1.10303 10.2378 1.1498 10.1545 1.23303L1.28107 10.1065C1.20115 10.1865 1.15467 10.2939 1.15124 10.4069L1.05587 13.5425C1.05214 13.6649 1.09915 13.7834 1.1857 13.87C1.26911 13.9533 1.38206 14 1.49963 14C1.50413 14 1.50863 13.9999 1.51319 13.9998L4.64865 13.9043C4.76166 13.9008 4.86911 13.8544 4.94909 13.7745L13.8225 4.90111C13.9959 4.72771 13.9959 4.44657 13.8225 4.27318ZM4.44559 13.0221L1.95778 13.0979L2.0335 10.6099L7.42802 5.21534L9.84041 7.62732L4.44559 13.0221ZM10.4683 6.99944L8.05589 4.58753L10.4684 2.17496L12.8806 4.58717L10.4683 6.99944Z" fill="#00CF80" stroke="#00CF80" stroke-width="0.4"/>
</svg>
