<svg width="76" height="56" viewBox="0 0 76 56" fill="none" xmlns="http://www.w3.org/2000/svg">
<path d="M58.8675 45.7411H16.649C14.6623 45.7411 12.8411 44.2389 12.8411 42.2862V14.196C12.8411 12.2432 14.4967 10.7411 16.649 10.7411H59.0331C61.0199 10.7411 62.8411 12.2432 62.8411 14.196V42.4364C62.6755 44.2389 61.0199 45.7411 58.8675 45.7411ZM16.649 12.9943C15.9868 12.9943 15.3245 13.445 15.3245 14.196V42.4364C15.3245 43.0372 15.8212 43.6381 16.649 43.6381H59.0331C59.6954 43.6381 60.3576 43.1874 60.3576 42.4364V14.196C60.3576 13.5952 59.8609 12.9943 59.0331 12.9943H16.649Z" fill="#0E80DE"/>
<path d="M37.8412 34.0243C36.8479 34.0243 35.8545 33.7239 35.1922 32.9728L14.3313 14.0458L16.1525 12.3934L37.0134 31.3205C37.5101 31.7711 38.3379 31.7711 38.8346 31.3205L60.0267 12.093L61.8478 13.7454L40.4902 32.9728C39.6624 33.7239 38.8346 34.0243 37.8412 34.0243Z" fill="#0E80DE"/>
<path d="M32.5214 27.4052L13.8289 42.4663L15.4779 44.151L34.1704 29.0899L32.5214 27.4052Z" fill="#0E80DE"/>
<path d="M44.5871 26.5244L42.8003 28.0892L60.0478 44.3011L61.8346 42.7363L44.5871 26.5244Z" fill="#0E80DE"/>
</svg>
