<svg width="76" height="56" viewBox="0 0 76 56" fill="none" xmlns="http://www.w3.org/2000/svg">
<path d="M58.8683 45.7411H16.6497C14.663 45.7411 12.8418 44.2389 12.8418 42.2862V14.196C12.8418 12.2432 14.4974 10.7411 16.6497 10.7411H59.0338C61.0206 10.7411 62.8418 12.2432 62.8418 14.196V42.4364C62.6762 44.2389 61.0206 45.7411 58.8683 45.7411ZM16.6497 12.9943C15.9875 12.9943 15.3252 13.445 15.3252 14.196V42.4364C15.3252 43.0372 15.8219 43.6381 16.6497 43.6381H59.0338C59.6961 43.6381 60.3584 43.1874 60.3584 42.4364V14.196C60.3584 13.5952 59.8617 12.9943 59.0338 12.9943H16.6497Z" fill="white"/>
<path d="M37.842 34.0243C36.8486 34.0243 35.8552 33.7239 35.193 32.9728L14.332 14.0458L16.1532 12.3934L37.0141 31.3205C37.5108 31.7711 38.3386 31.7711 38.8353 31.3205L60.0274 12.093L61.8486 13.7454L40.491 32.9728C39.6632 33.7239 38.8353 34.0243 37.842 34.0243Z" fill="white"/>
<path d="M32.5226 27.4052L13.8301 42.4663L15.4791 44.151L34.1716 29.0899L32.5226 27.4052Z" fill="white"/>
<path d="M44.5876 26.5244L42.8008 28.0892L60.0483 44.3011L61.8351 42.7363L44.5876 26.5244Z" fill="white"/>
</svg>
