<svg width="15" height="14" viewBox="0 0 15 14" fill="none" xmlns="http://www.w3.org/2000/svg">
<g opacity="0.8">
<path d="M4.59253 11.0031L7.39324 13.9004L10.1937 11.0031L9.62518 10.4149L7.79541 12.308V6.66602H6.9911V12.308L5.16134 10.4149L4.59253 11.0031Z" fill="#02194A"/>
<path d="M11.6848 2.90533C11.5517 2.90533 11.4172 2.91439 11.2832 2.93229C10.6028 1.90198 9.36415 1.34793 8.1545 1.57836C7.58461 0.661341 6.6001 0.0996094 5.53903 0.0996094C3.93466 0.0996094 2.61524 1.34769 2.44645 2.97961C1.01643 3.29691 0 4.58619 0 6.12465C0 7.89956 1.39597 9.34367 3.11172 9.34367H6.21918V8.51876H3.11198C1.83588 8.51876 0.797671 7.44475 0.797671 6.12462C0.797671 4.89497 1.68811 3.87153 2.86853 3.74397L3.22525 3.66038V3.31805C3.22525 1.99822 4.2632 0.924212 5.53929 0.924212C6.41378 0.924212 7.20399 1.42712 7.60165 2.23663L7.75128 2.54101L8.06811 2.44589C9.11616 2.1316 10.2254 2.62876 10.7375 3.58562L10.8816 3.85482L11.1724 3.78882C11.3425 3.75006 11.5145 3.73027 11.6846 3.73027C12.9551 3.73027 13.9888 4.80428 13.9888 6.12438C13.9888 7.44421 12.9506 8.51852 11.6745 8.51852H8.54523V9.34343H11.6739C13.3897 9.34343 14.7857 7.89932 14.7857 6.12441C14.7857 4.34947 13.3947 2.90533 11.6848 2.90533Z" fill="#02194A"/>
</g>
</svg>
