<svg width="24" height="25" viewBox="0 0 24 25" fill="none" xmlns="http://www.w3.org/2000/svg">
<g clip-path="url(#clip0_421_67335)">
<path d="M23.5 13.0387C23.5 6.68741 18.3513 1.53869 12 1.53869C5.64872 1.53869 0.5 6.68741 0.5 13.0387C0.5 18.7787 4.70538 23.5363 10.2031 24.399V16.3629H7.2832V13.0387H10.2031V10.5051C10.2031 7.62291 11.92 6.03088 14.5468 6.03088C15.805 6.03088 17.1211 6.25549 17.1211 6.25549V9.08557H15.671C14.2424 9.08557 13.7969 9.97203 13.7969 10.8815V13.0387H16.9863L16.4765 16.3629H13.7969V24.399C19.2946 23.5363 23.5 18.7787 23.5 13.0387Z" fill="white"/>
</g>
<defs>
<clipPath id="clip0_421_67335">
<rect width="24" height="24" fill="white" transform="translate(0 0.968811)"/>
</clipPath>
</defs>
</svg>
