<svg width="16" height="16" viewBox="0 0 16 16" fill="none" xmlns="http://www.w3.org/2000/svg">
<g clip-path="url(#clip0_251_763)">
<path d="M8.43681 15.5C12.5779 15.5 15.9215 12.1564 15.9215 8.01534C15.9521 3.87423 12.5779 0.5 8.43681 0.5C4.29571 0.5 0.952148 3.84356 0.952148 7.98466C0.952148 12.1258 4.29571 15.5 8.43681 15.5ZM5.82945 10.9601C5.8908 10.7147 5.95215 10.4693 6.04417 10.2239C6.1362 9.94785 6.19755 9.91718 6.47362 10.0399C6.93374 10.2546 7.39387 10.408 7.88466 10.4693C8.19141 10.5 8.52884 10.4693 8.80491 10.3466C9.35706 10.1012 9.44908 9.45706 8.98896 9.08896C8.83558 8.96626 8.65154 8.87423 8.46749 8.78221C7.97669 8.56748 7.48589 8.41411 7.02577 8.13804C6.28957 7.70859 5.82945 7.09509 5.86012 6.17485C5.92147 5.16258 6.5043 4.5184 7.42454 4.18098C7.82331 4.02761 7.82331 4.05828 7.82331 3.62883C7.82331 3.50613 7.82331 3.35276 7.82331 3.23006C7.82331 2.92331 7.88466 2.86196 8.19141 2.86196C8.28344 2.86196 8.37546 2.86196 8.46749 2.86196C9.11166 2.86196 9.11166 2.86196 9.11166 3.50613C9.11166 3.96626 9.11166 3.96626 9.57178 4.02761C9.9092 4.08896 10.2466 4.18098 10.5841 4.33436C10.7681 4.42638 10.8294 4.54908 10.7681 4.73313C10.6761 5.0092 10.6147 5.28528 10.5227 5.56135C10.4307 5.83742 10.3693 5.8681 10.0933 5.7454C9.60246 5.5 9.05031 5.40798 8.49816 5.43865C8.34479 5.43865 8.22209 5.46932 8.06871 5.53067C7.57792 5.7454 7.51657 6.26687 7.91534 6.60429C8.13006 6.75767 8.34479 6.88037 8.59019 7.00307C9.01963 7.18712 9.44908 7.34049 9.84785 7.58589C11.1362 8.29141 11.4736 9.91718 10.5841 11.0215C10.2466 11.4202 9.84785 11.6963 9.32638 11.819C9.11166 11.8804 9.01963 12.0031 9.01963 12.2178C9.01963 12.4325 9.01963 12.6472 9.01963 12.8926C9.01963 13.0767 8.92761 13.1994 8.71288 13.1994C8.46749 13.1994 8.22209 13.1994 8.00736 13.1994C7.79264 13.1994 7.70061 13.0767 7.70061 12.862C7.70061 12.7086 7.70061 12.5245 7.70061 12.3712C7.70061 12.0031 7.70061 12.0031 7.33252 11.9417C6.90307 11.8804 6.47362 11.7883 6.07485 11.5736C5.7681 11.3589 5.73742 11.2975 5.82945 10.9601Z" fill="#02194A"/>
</g>
<defs>
<clipPath id="clip0_251_763">
<rect width="15" height="15" fill="white" transform="translate(0.952148 0.5)"/>
</clipPath>
</defs>
</svg>
