<svg width="25" height="25" viewBox="0 0 25 25" fill="none" xmlns="http://www.w3.org/2000/svg">
<path fill-rule="evenodd" clip-rule="evenodd" d="M23.54 13.2302C23.54 12.4147 23.4668 11.6307 23.3309 10.8779H12.5V15.3263H18.6891C18.4225 16.7638 17.6123 17.9818 16.3943 18.7972V21.6827H20.1109C22.2855 19.6807 23.54 16.7325 23.54 13.2302Z" fill="#4285F4"/>
<path fill-rule="evenodd" clip-rule="evenodd" d="M12.5 24.4687C15.605 24.4687 18.2081 23.4389 20.1109 21.6825L16.3943 18.7971C15.3645 19.4871 14.0472 19.8948 12.5 19.8948C9.50474 19.8948 6.96951 17.8718 6.06519 15.1537H2.22314V18.1332C4.11542 21.8916 8.00451 24.4687 12.5 24.4687Z" fill="#34A853"/>
<path fill-rule="evenodd" clip-rule="evenodd" d="M6.06523 15.1539C5.83523 14.4639 5.70455 13.7268 5.70455 12.9689C5.70455 12.2109 5.83523 11.4739 6.06523 10.7839V7.80432H2.22318C1.44432 9.35682 1 11.1132 1 12.9689C1 14.8245 1.44432 16.5809 2.22318 18.1334L6.06523 15.1539Z" fill="#FBBC05"/>
<path fill-rule="evenodd" clip-rule="evenodd" d="M12.5 6.04267C14.1884 6.04267 15.7043 6.6229 16.8961 7.76245L20.1945 4.46404C18.2029 2.60836 15.5997 1.46881 12.5 1.46881C8.00451 1.46881 4.11542 4.04586 2.22314 7.80427L6.06519 10.7838C6.96951 8.06563 9.50474 6.04267 12.5 6.04267Z" fill="#EA4335"/>
</svg>
