<svg width="76" height="56" viewBox="0 0 76 56" fill="none" xmlns="http://www.w3.org/2000/svg">
<g clip-path="url(#clip0_3817_94041)">
<path d="M64.6415 12.6438C64.6337 11.03 64.1884 9.74367 63.2979 8.83288C62.4152 7.91411 61.1576 7.44274 59.5797 7.44274C56.8379 7.43475 54.0259 7.42676 51.206 7.42676C48.2923 7.42676 45.2928 7.43475 42.2932 7.44274C40.77 7.45073 39.5514 7.89813 38.6766 8.79294C38.2079 9.2723 37.8486 9.86351 37.6142 10.5426C37.4267 11.0939 37.3174 11.6931 37.2783 12.3881C37.2783 12.4361 37.2705 12.5 37.2705 12.5799C37.2705 13.251 37.2705 13.9301 37.2705 14.6092C36.7003 14.1698 36.0129 13.8742 35.2083 13.7304C34.5678 13.6105 33.9585 13.5945 33.3961 13.5945C30.8574 13.5945 28.1078 13.5865 24.7567 13.5865C22.7648 13.5865 20.7808 13.5865 18.7889 13.5865H17.336C17.0001 13.5865 16.6407 13.5865 16.2658 13.6105C15.055 13.6824 14.0552 14.0739 13.2819 14.769C12.5007 15.472 12.0008 16.4547 11.7899 17.6851C11.6727 18.3881 11.6571 19.0592 11.6571 19.5706C11.6571 25.6505 11.6571 31.7863 11.6571 37.1951C11.6571 37.5626 11.6571 38.01 11.704 38.4973C11.8368 39.9114 12.2898 40.99 13.0944 41.7889C13.899 42.5879 14.9691 43.0193 16.3517 43.1152C16.8048 43.1471 17.2422 43.1551 17.6718 43.1631V46.966C17.6718 47.9647 18.2577 48.8675 19.1638 49.251C19.4606 49.3788 19.7731 49.4427 20.0856 49.4427C20.7183 49.4427 21.3354 49.1951 21.7962 48.7157C22.2727 48.2284 22.757 47.749 23.2257 47.2856C24.3505 46.1751 25.4051 45.1205 26.4127 43.9301C26.9908 43.243 27.4048 43.1232 28.0141 43.1232C28.1078 43.1232 28.2094 43.1232 28.3109 43.1312C29.0139 43.1871 29.7638 43.211 30.5996 43.211C31.6307 43.211 32.654 43.1711 33.6382 43.1391C33.857 43.1312 34.0835 43.1232 34.3022 43.1152C35.7317 43.0672 36.8721 42.6039 37.7001 41.749C38.4969 40.9261 38.9421 39.7836 39.0203 38.3455C39.0437 37.9061 39.0593 37.5466 39.0593 37.1951C39.0593 36.7956 39.0593 36.3961 39.0593 35.9967C39.8717 36.6198 40.9262 36.9474 42.2073 36.9714C43.5665 37.0033 44.9413 37.0033 46.2692 37.0033C47.23 37.0033 48.222 37.0033 49.1984 37.0193C50.3623 38.1857 51.5262 39.3921 52.6589 40.5506C53.0963 41.006 53.5416 41.4614 53.9868 41.9088C54.1118 42.0366 54.2368 42.1485 54.3617 42.2683C54.4164 42.3242 54.4789 42.3802 54.557 42.4441C55.0101 42.8755 55.6038 43.0992 56.1974 43.0992C56.5255 43.0992 56.8536 43.0273 57.166 42.8915C58.0487 42.5 58.6111 41.6052 58.6111 40.6305V36.9953C58.9861 36.9953 59.3688 36.9873 59.7594 36.9714C61.306 36.8995 62.4699 36.4281 63.3292 35.5413C64.1962 34.6385 64.6337 33.3841 64.6415 31.8102C64.6649 25.3069 64.6649 18.8595 64.6415 12.6438ZM36.6534 37.1871C36.6534 37.5226 36.6378 37.8582 36.6222 38.1937C36.5284 39.8236 35.8332 40.5746 34.2319 40.6305C33.029 40.6704 31.8182 40.7264 30.6152 40.7264C29.9122 40.7264 29.2014 40.7104 28.4984 40.6545C28.3343 40.6385 28.1781 40.6385 28.0219 40.6385C26.6158 40.6385 25.5613 41.1498 24.5927 42.3083C23.2491 43.9061 21.7025 45.3202 20.1012 46.958C20.1012 44.777 20.1012 42.7716 20.1012 40.6944C19.7106 40.6944 19.3513 40.6944 18.992 40.6944C18.7654 40.6944 18.5389 40.6944 18.3202 40.6864C17.7187 40.6784 17.125 40.6704 16.5236 40.6305C14.9535 40.5266 14.2661 39.8475 14.1177 38.2497C14.0786 37.9061 14.0786 37.5466 14.0786 37.1951C14.0786 31.3229 14.0786 25.4507 14.0786 19.5865C14.0786 19.0912 14.0942 18.5959 14.1802 18.1165C14.4067 16.7823 15.0941 16.1751 16.4142 16.0872C16.7189 16.0712 17.0313 16.0632 17.3438 16.0632C19.82 16.0632 22.2884 16.0632 24.7645 16.0632C27.6469 16.0632 30.5215 16.0632 33.4039 16.0712C33.8648 16.0712 34.3335 16.0872 34.7865 16.1671C35.9035 16.3748 36.4659 17.006 36.5909 18.1644C36.6456 18.6358 36.6534 19.1072 36.6534 19.5865C36.6534 25.4507 36.6534 31.3149 36.6534 37.1871ZM62.2278 31.8023C62.22 33.6318 61.4466 34.4148 59.65 34.5027C59.0876 34.5266 58.533 34.5266 57.9706 34.5266C57.7519 34.5266 57.5332 34.5266 57.3144 34.5266C56.9629 34.5266 56.6036 34.5266 56.2052 34.5266C56.2052 36.5879 56.2052 38.5533 56.2052 40.6305C55.9787 40.4228 55.8381 40.2949 55.7131 40.1591C54.0102 38.4094 52.3152 36.6518 50.5889 34.9181C50.3701 34.7024 49.9952 34.5426 49.6984 34.5426C47.2222 34.5027 44.7538 34.5426 42.2776 34.4867C40.5044 34.4467 39.7233 33.6638 39.7155 31.8422C39.6842 25.4188 39.6998 18.9953 39.6998 12.5719C39.6998 12.5559 39.6998 12.532 39.6998 12.516C39.7936 10.7184 40.5591 9.91144 42.3088 9.90346C45.2771 9.89547 48.2455 9.88748 51.2138 9.88748C54.0024 9.88748 56.7911 9.89547 59.5875 9.90346C61.4232 9.91144 62.2356 10.7423 62.2434 12.6438C62.2434 19.0353 62.2434 25.4188 62.2278 31.8023Z" fill="#0E80E1"/>
<path d="M50.9638 24.7876C50.9248 24.7876 50.8857 24.7876 50.8466 24.7876C49.7687 24.7557 49.7687 24.7557 49.6827 23.6372C49.464 20.9607 49.2453 18.2843 49.0344 15.6159C49.0188 15.4002 49.0266 15.1844 49.011 14.9687C48.9797 14.6012 49.1828 14.4574 49.4953 14.4574C50.4795 14.4494 51.4637 14.4494 52.448 14.4574C52.9635 14.4574 52.9557 14.8329 52.9323 15.2084C52.8073 16.7823 52.6823 18.3562 52.5573 19.9301C52.4636 21.1285 52.3542 22.3269 52.2683 23.5333C52.1746 24.7956 52.1824 24.7956 50.9638 24.7876Z" fill="#0E80E1"/>
<path d="M52.8463 28.1272C52.8541 29.1978 52.0417 30.0687 51.0106 30.0926C49.9561 30.1166 49.0812 29.2458 49.0812 28.1592C49.0734 27.0886 49.8936 26.2497 50.9481 26.2418C51.9949 26.2338 52.8307 27.0647 52.8463 28.1272Z" fill="#0E80E1"/>
<path d="M26.2096 30.6598C25.1785 30.6598 24.1865 30.6598 23.171 30.6598C22.9601 29.2297 23.3507 28.0712 24.4989 27.2164C25.1082 26.761 25.7331 26.3296 26.2877 25.8103C26.8423 25.283 26.8345 24.6198 26.358 24.0047C25.8034 23.3016 25.077 23.0939 24.2333 23.2457C23.4053 23.3975 22.9054 23.9088 22.6867 24.7317C22.6711 24.8036 22.6476 24.8755 22.6242 24.9634C21.64 24.9634 20.6792 24.9634 19.6559 24.9634C19.6325 23.5653 20.0855 22.4068 21.0541 21.4641C23.2179 19.3549 27.3344 19.7224 28.9905 22.1671C30.1622 23.8928 29.9669 26.4494 28.3031 27.7197C27.975 27.9674 27.6703 28.239 27.3579 28.5027C26.3346 29.3256 26.3346 29.3256 26.2096 30.6598Z" fill="#0E80E1"/>
<path d="M24.6942 36.0047C23.7335 36.0127 22.9133 35.1898 22.9133 34.2071C22.9055 33.2164 23.71 32.4015 24.6864 32.4015C25.655 32.4015 26.4127 33.1685 26.4362 34.1591C26.4518 35.1578 25.6629 35.9967 24.6942 36.0047Z" fill="#0E80E1"/>
</g>
<defs>
<clipPath id="clip0_3817_94041">
<rect width="53" height="42" fill="white" transform="translate(11.6571 7.42676)"/>
</clipPath>
</defs>
</svg>
