<svg width="76" height="56" viewBox="0 0 76 56" fill="none" xmlns="http://www.w3.org/2000/svg">
<g clip-path="url(#clip0_4585_123155)">
<path d="M64.1414 12.6438C64.1335 11.03 63.6883 9.74367 62.7978 8.83288C61.9151 7.91411 60.6575 7.44274 59.0796 7.44274C56.3378 7.43475 53.5257 7.42676 50.7058 7.42676C47.7922 7.42676 44.7927 7.43475 41.7931 7.44274C40.2699 7.45073 39.0513 7.89813 38.1764 8.79294C37.7078 9.2723 37.3484 9.86351 37.1141 10.5426C36.9266 11.0939 36.8173 11.6931 36.7782 12.3881C36.7782 12.4361 36.7704 12.5 36.7704 12.5799C36.7704 13.251 36.7704 13.9301 36.7704 14.6092C36.2002 14.1698 35.5128 13.8742 34.7082 13.7304C34.0677 13.6105 33.4584 13.5945 32.896 13.5945C30.3573 13.5945 27.6077 13.5865 24.2566 13.5865C22.2647 13.5865 20.2806 13.5865 18.2887 13.5865H16.8358C16.4999 13.5865 16.1406 13.5865 15.7657 13.6105C14.5549 13.6824 13.5551 14.0739 12.7817 14.769C12.0006 15.472 11.5007 16.4547 11.2898 17.6851C11.1726 18.3881 11.157 19.0592 11.157 19.5706C11.157 25.6505 11.157 31.7863 11.157 37.1951C11.157 37.5626 11.157 38.01 11.2039 38.4973C11.3366 39.9114 11.7897 40.99 12.5943 41.7889C13.3988 42.5879 14.469 43.0193 15.8516 43.1152C16.3047 43.1471 16.7421 43.1551 17.1717 43.1631V46.966C17.1717 47.9647 17.7576 48.8675 18.6637 49.251C18.9605 49.3788 19.273 49.4427 19.5854 49.4427C20.2181 49.4427 20.8352 49.1951 21.2961 48.7157C21.7726 48.2284 22.2569 47.749 22.7256 47.2856C23.8504 46.1751 24.905 45.1205 25.9126 43.9301C26.4907 43.243 26.9047 43.1232 27.5139 43.1232C27.6077 43.1232 27.7092 43.1232 27.8108 43.1312C28.5138 43.1871 29.2637 43.211 30.0995 43.211C31.1306 43.211 32.1539 43.1711 33.1381 43.1391C33.3568 43.1312 33.5834 43.1232 33.8021 43.1152C35.2316 43.0672 36.372 42.6039 37.2 41.749C37.9968 40.9261 38.442 39.7836 38.5201 38.3455C38.5436 37.9061 38.5592 37.5466 38.5592 37.1951C38.5592 36.7956 38.5592 36.3961 38.5592 35.9967C39.3716 36.6198 40.4261 36.9474 41.7072 36.9714C43.0663 37.0033 44.4411 37.0033 45.7691 37.0033C46.7299 37.0033 47.7219 37.0033 48.6983 37.0193C49.8622 38.1857 51.0261 39.3921 52.1588 40.5506C52.5962 41.006 53.0414 41.4614 53.4867 41.9088C53.6117 42.0366 53.7366 42.1485 53.8616 42.2683C53.9163 42.3242 53.9788 42.3802 54.0569 42.4441C54.51 42.8755 55.1036 43.0992 55.6973 43.0992C56.0254 43.0992 56.3534 43.0273 56.6659 42.8915C57.5486 42.5 58.111 41.6052 58.111 40.6305V36.9953C58.4859 36.9953 58.8687 36.9873 59.2593 36.9714C60.8059 36.8995 61.9698 36.4281 62.8291 35.5413C63.6961 34.6385 64.1335 33.3841 64.1414 31.8102C64.1648 25.3069 64.1648 18.8595 64.1414 12.6438ZM36.1533 37.1871C36.1533 37.5226 36.1377 37.8582 36.1221 38.1937C36.0283 39.8236 35.3331 40.5746 33.7318 40.6305C32.5288 40.6704 31.3181 40.7264 30.1151 40.7264C29.4121 40.7264 28.7013 40.7104 27.9983 40.6545C27.8342 40.6385 27.678 40.6385 27.5218 40.6385C26.1157 40.6385 25.0612 41.1498 24.0926 42.3083C22.749 43.9061 21.2024 45.3202 19.6011 46.958C19.6011 44.777 19.6011 42.7716 19.6011 40.6944C19.2105 40.6944 18.8512 40.6944 18.4918 40.6944C18.2653 40.6944 18.0388 40.6944 17.8201 40.6864C17.2186 40.6784 16.6249 40.6704 16.0235 40.6305C14.4534 40.5266 13.766 39.8475 13.6176 38.2497C13.5785 37.9061 13.5785 37.5466 13.5785 37.1951C13.5785 31.3229 13.5785 25.4507 13.5785 19.5865C13.5785 19.0912 13.5941 18.5959 13.68 18.1165C13.9066 16.7823 14.594 16.1751 15.9141 16.0872C16.2187 16.0712 16.5312 16.0632 16.8436 16.0632C19.3198 16.0632 21.7882 16.0632 24.2644 16.0632C27.1468 16.0632 30.0214 16.0632 32.9038 16.0712C33.3646 16.0712 33.8333 16.0872 34.2864 16.1671C35.4034 16.3748 35.9658 17.006 36.0908 18.1644C36.1455 18.6358 36.1533 19.1072 36.1533 19.5865C36.1533 25.4507 36.1533 31.3149 36.1533 37.1871ZM61.7277 31.8023C61.7198 33.6318 60.9465 34.4148 59.1499 34.5027C58.5875 34.5266 58.0329 34.5266 57.4705 34.5266C57.2518 34.5266 57.033 34.5266 56.8143 34.5266C56.4628 34.5266 56.1035 34.5266 55.7051 34.5266C55.7051 36.5879 55.7051 38.5533 55.7051 40.6305C55.4786 40.4228 55.338 40.2949 55.213 40.1591C53.5101 38.4094 51.8151 36.6518 50.0887 34.9181C49.87 34.7024 49.4951 34.5426 49.1982 34.5426C46.7221 34.5027 44.2537 34.5426 41.7775 34.4867C40.0043 34.4467 39.2232 33.6638 39.2153 31.8422C39.1841 25.4188 39.1997 18.9953 39.1997 12.5719C39.1997 12.5559 39.1997 12.532 39.1997 12.516C39.2935 10.7184 40.059 9.91144 41.8087 9.90346C44.777 9.89547 47.7453 9.88748 50.7137 9.88748C53.5023 9.88748 56.291 9.89547 59.0874 9.90346C60.9231 9.91144 61.7355 10.7423 61.7433 12.6438C61.7433 19.0353 61.7433 25.4188 61.7277 31.8023Z" fill="white"/>
<path d="M50.4638 24.7876C50.4248 24.7876 50.3857 24.7876 50.3466 24.7876C49.2687 24.7557 49.2687 24.7557 49.1827 23.6372C48.964 20.9607 48.7453 18.2843 48.5344 15.6159C48.5188 15.4002 48.5266 15.1844 48.511 14.9687C48.4797 14.6012 48.6828 14.4574 48.9953 14.4574C49.9795 14.4494 50.9637 14.4494 51.948 14.4574C52.4635 14.4574 52.4557 14.8329 52.4323 15.2084C52.3073 16.7823 52.1823 18.3562 52.0573 19.9301C51.9636 21.1285 51.8542 22.3269 51.7683 23.5333C51.6746 24.7956 51.6824 24.7956 50.4638 24.7876Z" fill="white"/>
<path d="M52.3464 28.1272C52.3542 29.1978 51.5418 30.0687 50.5107 30.0926C49.4562 30.1166 48.5814 29.2458 48.5814 28.1592C48.5735 27.0886 49.3937 26.2497 50.4483 26.2418C51.495 26.2338 52.3308 27.0647 52.3464 28.1272Z" fill="white"/>
<path d="M25.7096 30.6598C24.6785 30.6598 23.6865 30.6598 22.671 30.6598C22.4601 29.2297 22.8507 28.0712 23.9989 27.2164C24.6082 26.761 25.2331 26.3296 25.7877 25.8103C26.3423 25.283 26.3345 24.6198 25.858 24.0047C25.3034 23.3016 24.577 23.0939 23.7333 23.2457C22.9053 23.3975 22.4054 23.9088 22.1867 24.7317C22.1711 24.8036 22.1476 24.8755 22.1242 24.9634C21.14 24.9634 20.1792 24.9634 19.1559 24.9634C19.1325 23.5653 19.5855 22.4068 20.5541 21.4641C22.7179 19.3549 26.8344 19.7224 28.4905 22.1671C29.6622 23.8928 29.4669 26.4494 27.8031 27.7197C27.475 27.9674 27.1703 28.239 26.8579 28.5027C25.8346 29.3256 25.8346 29.3256 25.7096 30.6598Z" fill="white"/>
<path d="M24.1941 36.0047C23.2333 36.0127 22.4131 35.1898 22.4131 34.2071C22.4053 33.2164 23.2099 32.4015 24.1863 32.4015C25.1549 32.4015 25.9126 33.1685 25.9361 34.1591C25.9517 35.1578 25.1627 35.9967 24.1941 36.0047Z" fill="white"/>
</g>
<defs>
<clipPath id="clip0_4585_123155">
<rect width="53" height="42" fill="white" transform="translate(11.157 7.42676)"/>
</clipPath>
</defs>
</svg>
