<svg width="6" height="6" viewBox="0 0 6 6" fill="none" xmlns="http://www.w3.org/2000/svg">
<path fill-rule="evenodd" clip-rule="evenodd" d="M3 5.72727C4.50623 5.72727 5.72727 4.50623 5.72727 3C5.72727 1.49377 4.50623 0.272727 3 0.272727C1.49377 0.272727 0.272727 1.49377 0.272727 3C0.272727 4.50623 1.49377 5.72727 3 5.72727ZM3 6C4.65685 6 6 4.65685 6 3C6 1.34315 4.65685 0 3 0C1.34315 0 0 1.34315 0 3C0 4.65685 1.34315 6 3 6Z" fill="#02194A"/>
<path d="M2.91566 3.70863C2.91406 3.6511 2.91326 3.60795 2.91326 3.57919C2.91326 3.4098 2.93723 3.26358 2.98517 3.14054C3.02033 3.04785 3.07706 2.95437 3.15536 2.86009C3.21289 2.79137 3.31596 2.69149 3.46458 2.56046C3.61479 2.42782 3.71227 2.32235 3.75701 2.24405C3.80176 2.16575 3.82413 2.08026 3.82413 1.98757C3.82413 1.81978 3.75861 1.67276 3.62757 1.54652C3.49654 1.41868 3.33594 1.35476 3.14577 1.35476C2.962 1.35476 2.80859 1.41229 2.68555 1.52734C2.5625 1.6424 2.4818 1.82218 2.44345 2.06667L2 2.01394C2.03995 1.68635 2.1582 1.43546 2.35476 1.26127C2.55291 1.08709 2.81419 1 3.13858 1C3.48216 1 3.75621 1.09348 3.96076 1.28045C4.16531 1.46742 4.26758 1.69354 4.26758 1.95881C4.26758 2.11222 4.23162 2.25364 4.15971 2.38308C4.0878 2.51252 3.94718 2.66992 3.73784 2.85529C3.59721 2.97994 3.50533 3.07182 3.46218 3.13095C3.41903 3.19007 3.38707 3.25799 3.3663 3.33469C3.34553 3.4114 3.33354 3.53604 3.33034 3.70863H2.91566ZM2.88929 4.57395V4.08256H3.38068V4.57395H2.88929Z" fill="#02194A"/>
</svg>
