<svg width="31" height="31" viewBox="0 0 31 31" fill="none" xmlns="http://www.w3.org/2000/svg">
<g clip-path="url(#clip0_3821_99522)">
<g opacity="0.5">
<path d="M24.9845 9.17469C24.6637 7.26846 23.7198 5.52879 22.2763 4.20862C20.6723 2.74039 18.5872 1.93225 16.4157 1.93225C14.7377 1.93225 13.1029 2.41344 11.7025 3.32028C10.5366 4.0729 9.56805 5.09079 8.88328 6.28758C8.58717 6.23206 8.27872 6.20122 7.97027 6.20122C5.34843 6.20122 3.21394 8.3357 3.21394 10.9575C3.21394 11.2968 3.25096 11.6238 3.31265 11.9446C1.61617 13.1784 0.585938 15.1648 0.585938 17.2808C0.585938 18.9896 1.22135 20.6491 2.38113 21.9631C3.57175 23.3079 5.14485 24.1037 6.82283 24.1963C6.84134 24.1963 6.85367 24.1963 6.87218 24.1963H12.1775C12.6402 24.1963 13.0104 23.8261 13.0104 23.3635C13.0104 22.9008 12.6402 22.5306 12.1775 22.5306H6.89686C4.37372 22.3764 2.25158 19.9767 2.25158 17.2746C2.25158 15.5288 3.18927 13.9002 4.70068 13.018C5.05232 12.8144 5.20037 12.3888 5.06465 12.0063C4.94127 11.6731 4.87958 11.3215 4.87958 10.9452C4.87958 9.24255 6.26762 7.85452 7.97027 7.85452C8.33424 7.85452 8.69205 7.91621 9.02517 8.03959C9.43233 8.18765 9.88267 8.00257 10.0677 7.61393C11.2213 5.16482 13.7136 3.58555 16.4218 3.58555C20.0616 3.58555 23.0659 6.31226 23.4114 9.92731C23.4484 10.3036 23.7321 10.6059 24.1023 10.6676C26.8475 11.1364 28.9203 13.6719 28.9203 16.5652C28.9203 19.6312 26.5082 22.2962 23.5347 22.5245H18.9882C18.5255 22.5245 18.1553 22.8946 18.1553 23.3573C18.1553 23.82 18.5255 24.1901 18.9882 24.1901H23.5656C23.5841 24.1901 23.6026 24.1901 23.6273 24.1901C25.5088 24.0544 27.267 23.1907 28.5748 21.7472C29.8765 20.316 30.5859 18.4776 30.5859 16.5652C30.5798 13.1044 28.217 10.026 24.9845 9.17469Z" fill="#02194A"/>
<path d="M20.5857 18.0704C20.9127 17.7434 20.9127 17.2191 20.5857 16.8921L16.1749 12.4813C16.0206 12.327 15.8047 12.2345 15.5888 12.2345C15.3729 12.2345 15.157 12.3209 15.0028 12.4813L10.5919 16.8921C10.2649 17.2191 10.2649 17.7434 10.5919 18.0704C10.7523 18.2308 10.9682 18.3172 11.178 18.3172C11.3877 18.3172 11.6036 18.237 11.764 18.0704L14.756 15.0784V28.8292C14.756 29.2919 15.1261 29.662 15.5888 29.662C16.0515 29.662 16.4216 29.2919 16.4216 28.8292V15.0784L19.4136 18.0704C19.7344 18.3974 20.2588 18.3974 20.5857 18.0704Z" fill="#02194A"/>
</g>
</g>
<defs>
<clipPath id="clip0_3821_99522">
<rect width="30" height="30" fill="white" transform="translate(0.585938 0.797119)"/>
</clipPath>
</defs>
</svg>
