<svg width="16" height="16" viewBox="0 0 16 16" fill="none" xmlns="http://www.w3.org/2000/svg">
<path d="M7.43145 8.0334H3.53623C3.55682 8.9629 3.69866 9.88566 3.95819 10.7784L4.80982 10.9253L7.43145 8.0334ZM7.43145 8.0334V11.1686C6.55273 11.1548 5.67627 11.0735 4.80989 10.9253L7.43145 8.0334ZM7.7315 0.183398H7.73145C3.56174 0.183398 0.181445 3.56369 0.181445 7.7334C0.181445 11.9031 3.56174 15.2834 7.73145 15.2834C11.9011 15.2834 15.2814 11.9031 15.2814 7.7334V7.73334C15.2768 3.56564 11.8992 0.188068 7.7315 0.183398ZM10.7553 3.95013L10.7551 3.9501C9.85508 3.79631 8.94441 3.71197 8.03145 3.69812V0.803065C9.39339 0.963488 10.5893 2.20956 11.2877 4.04292L10.7553 3.95013ZM4.70791 3.95012L4.17512 4.0423C4.87357 2.20837 6.06948 0.961802 7.43145 0.801943V3.69812C6.51849 3.71197 5.60805 3.79631 4.70801 3.9501L4.70791 3.95012ZM4.7077 11.5167L4.70775 11.5167C5.6078 11.6707 6.51837 11.7554 7.43145 11.77V14.6651C6.06945 14.5045 4.87354 13.2584 4.1751 11.4249L4.7077 11.5167ZM10.755 11.5167L11.2878 11.4245C10.5893 13.2584 9.39341 14.505 8.03145 14.6649V11.77C8.9444 11.7554 9.85485 11.6707 10.7549 11.5167L10.755 11.5167ZM14.6733 8.0334C14.6403 8.81672 14.4742 9.58877 14.182 10.3163L12.1536 10.6663C12.3816 9.80651 12.5067 8.9227 12.5264 8.0334H14.6733ZM1.28093 10.3163C0.988714 9.58877 0.822568 8.81672 0.789622 8.0334H2.93646C2.95614 8.9227 3.08132 9.80651 3.30933 10.6663L1.28093 10.3163ZM0.789622 7.4334C0.822568 6.65007 0.988714 5.87803 1.28093 5.1505L3.30933 4.80049C3.08132 5.66028 2.95614 6.5441 2.93646 7.4334H0.789622ZM11.9267 7.4334H8.03145V4.29815C8.91019 4.31197 9.78667 4.39327 10.6531 4.54147L11.5047 4.68838C11.7642 5.58113 11.9061 6.5039 11.9267 7.4334ZM4.81007 4.54147C5.67635 4.39327 6.55271 4.31197 7.43145 4.29815V7.4334H3.53623C3.55682 6.5039 3.69866 5.58114 3.95819 4.68838L4.81007 4.54147ZM10.6528 10.9253C9.78654 11.0735 8.91018 11.1548 8.03145 11.1686V8.0334H11.9267C11.9061 8.9629 11.7642 9.88566 11.5047 10.7784L10.6528 10.9253ZM14.6733 7.4334H12.5264C12.5067 6.5441 12.3816 5.66028 12.1536 4.80049L14.182 5.1505C14.4742 5.87803 14.6403 6.65007 14.6733 7.4334ZM11.9591 4.15809C11.6107 3.03916 10.9852 2.02766 10.142 1.21695C11.743 1.8131 13.0718 2.97641 13.8739 4.48849L11.9591 4.15809ZM3.50376 4.15809L1.58895 4.48849C2.39108 2.97642 3.71988 1.8131 5.32087 1.21695C4.47769 2.02766 3.85217 3.03916 3.50376 4.15809ZM3.50376 11.3087C3.85217 12.4276 4.47769 13.4391 5.32087 14.2498C3.71988 13.6537 2.39108 12.4904 1.58895 10.9783L3.50376 11.3087ZM13.8739 10.9783C13.0718 12.4904 11.743 13.6537 10.142 14.2498C10.9852 13.4391 11.6107 12.4276 11.9591 11.3087L13.8739 10.9783Z" fill="#0E80E1" stroke="#02194A" stroke-width="0.1"/>
</svg>
