<svg width="190" height="31" viewBox="0 0 190 31" fill="none" xmlns="http://www.w3.org/2000/svg">
<path d="M34.3291 7.73633H38.1321C39.7507 7.73633 40.9826 7.96551 41.8277 8.42388C42.6656 8.88224 43.0882 9.68439 43.0882 10.8446C43.0882 11.5393 42.9235 12.1266 42.6012 12.6065C42.2789 13.0863 41.8134 13.38 41.2046 13.4802V13.5662C41.6057 13.6593 41.9709 13.8025 42.3075 14.0031C42.6442 14.2036 42.9092 14.4972 43.1025 14.884C43.2959 15.2707 43.3962 15.7864 43.3962 16.4238C43.3962 17.5339 42.9951 18.4005 42.1858 19.0308C41.3837 19.661 40.2879 19.9761 38.9056 19.9761H34.3291V7.73633ZM36.9146 12.585H38.4258C39.1778 12.585 39.7006 12.4704 39.9942 12.234C40.2879 11.9977 40.4311 11.6468 40.4311 11.1812C40.4311 10.7157 40.2592 10.3791 39.9154 10.1714C39.5717 9.9637 39.0274 9.86344 38.2897 9.86344H36.9146V12.585ZM36.9146 14.6405V17.8276H38.612C39.3855 17.8276 39.9298 17.6772 40.2377 17.3763C40.5457 17.0755 40.7033 16.6745 40.7033 16.166C40.7033 15.7076 40.5457 15.3423 40.2306 15.063C39.9154 14.7837 39.3496 14.6405 38.526 14.6405H36.9146Z" fill="#02194A"/>
<path d="M48.617 6.93945H46.0674V19.9671H48.617V6.93945Z" fill="#02194A"/>
<path d="M60.312 10.6146V19.9753H58.3568L58.013 18.7721H57.8769C57.5761 19.2519 57.1679 19.6029 56.6522 19.8177C56.1294 20.0326 55.5779 20.14 54.9978 20.14C53.988 20.14 53.1858 19.8679 52.5771 19.3235C51.9683 18.7792 51.6675 17.9126 51.6675 16.7094V10.6074H54.2243V16.072C54.2243 16.7452 54.3461 17.2537 54.5824 17.5903C54.8188 17.927 55.2055 18.0989 55.7283 18.0989C56.5018 18.0989 57.039 17.8339 57.3255 17.3039C57.6119 16.7739 57.7552 16.0076 57.7552 15.012V10.6074H60.312V10.6146Z" fill="#02194A"/>
<path d="M67.2658 10.4414C68.5549 10.4414 69.5791 10.8067 70.3311 11.5444C71.0831 12.282 71.4627 13.3277 71.4627 14.6885V15.9203H65.4323C65.4538 16.6365 65.6687 17.2095 66.0769 17.6177C66.4851 18.0259 67.0438 18.2336 67.7671 18.2336C68.3616 18.2336 68.9059 18.1763 69.4072 18.0546C69.9014 17.9328 70.4171 17.7466 70.9399 17.496V19.4655C70.4744 19.6947 69.9873 19.8594 69.486 19.974C68.9847 20.0814 68.3687 20.1387 67.6525 20.1387C66.7143 20.1387 65.8907 19.9668 65.1673 19.6159C64.444 19.265 63.8782 18.7421 63.4699 18.0403C63.0545 17.3384 62.854 16.4431 62.854 15.3545C62.854 14.2659 63.0402 13.3635 63.4126 12.6258C63.7851 11.8953 64.3007 11.3438 64.9668 10.9786C65.6185 10.6205 66.392 10.4414 67.2658 10.4414ZM67.2873 12.2534C66.7859 12.2534 66.3705 12.4109 66.0554 12.7332C65.7331 13.0555 65.5469 13.5497 65.4896 14.2229H69.0706C69.0563 13.6643 68.9059 13.1916 68.6194 12.8192C68.3258 12.4468 67.8817 12.2534 67.2873 12.2534Z" fill="#02194A"/>
<path d="M76.5269 6.93945V9.97614C76.5269 10.3271 76.5126 10.678 76.4911 11.0218C76.4696 11.3656 76.4481 11.6306 76.4194 11.8239H76.5197C76.7704 11.4372 77.107 11.1077 77.5296 10.8356C77.9521 10.5706 78.5036 10.4345 79.1768 10.4345C80.2296 10.4345 81.0819 10.8427 81.7265 11.6592C82.3782 12.4757 82.7077 13.6789 82.7077 15.2688C82.7077 16.866 82.3782 18.0763 81.7121 18.9C81.0532 19.7236 80.1795 20.1318 79.1052 20.1318C78.4176 20.1318 77.8805 20.0101 77.4866 19.7666C77.0927 19.5231 76.7704 19.2437 76.5197 18.9358H76.3478L75.9181 19.9671H73.9629V6.93945H76.5269ZM78.3603 12.4757C77.7014 12.4757 77.2287 12.6834 76.9566 13.0988C76.6844 13.5142 76.5412 14.1444 76.5269 14.9752V15.2474C76.5269 16.1498 76.663 16.8445 76.928 17.3315C77.1929 17.8185 77.6871 18.062 78.3962 18.062C78.919 18.062 79.3415 17.8185 79.6495 17.3315C79.9575 16.8445 80.115 16.1426 80.115 15.233C80.115 14.3163 79.9575 13.6287 79.6423 13.1704C79.32 12.712 78.8975 12.4757 78.3603 12.4757Z" fill="#02194A"/>
<path d="M89.1027 10.4414C90.3919 10.4414 91.416 10.8067 92.168 11.5444C92.92 12.282 93.2996 13.3277 93.2996 14.6885V15.9203H87.2692C87.2907 16.6365 87.5056 17.2095 87.9138 17.6177C88.322 18.0259 88.8807 18.2336 89.604 18.2336C90.1985 18.2336 90.7428 18.1763 91.2441 18.0546C91.7383 17.9328 92.254 17.7466 92.7768 17.496V19.4655C92.3113 19.6947 91.8243 19.8594 91.3229 19.974C90.8216 20.0814 90.2056 20.1387 89.4894 20.1387C88.5512 20.1387 87.7276 19.9668 87.0042 19.6159C86.2809 19.265 85.7151 18.7421 85.3068 18.0403C84.8915 17.3384 84.6909 16.4431 84.6909 15.3545C84.6909 14.2659 84.8771 13.3635 85.2496 12.6258C85.622 11.8953 86.1376 11.3438 86.8037 10.9786C87.4554 10.6205 88.2218 10.4414 89.1027 10.4414ZM89.1242 12.2534C88.6228 12.2534 88.2075 12.4109 87.8923 12.7332C87.57 13.0555 87.3838 13.5497 87.3265 14.2229H90.9075C90.8932 13.6643 90.7428 13.1916 90.4563 12.8192C90.1555 12.4468 89.7186 12.2534 89.1242 12.2534Z" fill="#02194A"/>
<path d="M101.034 10.4414C101.156 10.4414 101.307 10.4486 101.478 10.4557C101.65 10.4701 101.786 10.4844 101.887 10.5059L101.7 12.9051C101.607 12.8836 101.493 12.8622 101.342 12.8478C101.192 12.8335 101.063 12.8192 100.948 12.8192C100.512 12.8192 100.096 12.898 99.6951 13.0484C99.294 13.2059 98.9717 13.4494 98.7282 13.7932C98.4847 14.137 98.363 14.6025 98.363 15.197V19.9597H95.8062V10.6133H97.7399L98.1195 12.1889H98.2412C98.5134 11.7091 98.893 11.3008 99.3728 10.9571C99.8527 10.6133 100.404 10.4414 101.034 10.4414Z" fill="#02194A"/>
<path d="M109.242 10.4414C109.371 10.4414 109.514 10.4486 109.686 10.4557C109.858 10.4701 109.994 10.4844 110.094 10.5059L109.908 12.9051C109.815 12.8836 109.693 12.8622 109.55 12.8478C109.399 12.8335 109.271 12.8192 109.156 12.8192C108.719 12.8192 108.304 12.898 107.903 13.0484C107.502 13.2059 107.179 13.4494 106.936 13.7932C106.692 14.137 106.571 14.6025 106.571 15.197V19.9597H104.014V10.6133H105.947L106.327 12.1889H106.449C106.721 11.7091 107.1 11.3008 107.58 10.9571C108.06 10.6133 108.612 10.4414 109.242 10.4414Z" fill="#02194A"/>
<path d="M110.89 10.6172H113.683L115.445 15.8812C115.538 16.1462 115.603 16.4041 115.653 16.6691C115.696 16.934 115.732 17.2134 115.753 17.507H115.803C115.839 17.2134 115.882 16.9269 115.939 16.6691C115.997 16.4041 116.068 16.1462 116.161 15.8812L117.895 10.6172H120.638L116.677 21.1739C116.312 22.148 115.789 22.8713 115.116 23.3583C114.442 23.8454 113.662 24.0889 112.767 24.0889C112.466 24.0889 112.215 24.0745 112.015 24.0459C111.807 24.0172 111.628 23.9886 111.463 23.9528V21.9259C111.578 21.9474 111.728 21.9689 111.907 21.9976C112.086 22.0191 112.28 22.0334 112.473 22.0334C113.01 22.0334 113.433 21.8686 113.741 21.5464C114.049 21.2241 114.285 20.8302 114.442 20.3718L114.593 19.9063L110.89 10.6172Z" fill="#02194A"/>
<path d="M128.028 19.969L124.326 9.56263H124.254C124.276 9.80614 124.297 10.1141 124.311 10.4937C124.326 10.8733 124.34 11.2958 124.354 11.747C124.369 12.1982 124.369 12.6351 124.369 13.0577V19.9618H122.686V7.73633H125.335L128.852 17.5554H128.924L132.54 7.73633H135.176V19.9761H133.378V12.9646C133.378 12.5635 133.386 12.1553 133.407 11.7327C133.421 11.3102 133.443 10.9091 133.457 10.5367C133.471 10.1571 133.486 9.84195 133.5 9.59128H133.429L129.626 19.9761H128.028V19.969Z" fill="#02194A"/>
<path d="M142.236 10.5547C143.39 10.5547 144.256 10.8125 144.829 11.3139C145.409 11.8224 145.696 12.6173 145.696 13.706V19.9655H144.414L144.056 18.6764H143.984C143.583 19.1777 143.168 19.5501 142.723 19.7793C142.287 20.0157 141.678 20.1303 140.897 20.1303C140.059 20.1303 139.372 19.9082 138.82 19.457C138.269 19.0058 137.997 18.2968 137.997 17.3442C137.997 16.3917 138.355 15.6755 139.071 15.1956C139.787 14.7086 140.876 14.4436 142.337 14.4007L143.912 14.3505V13.8277C143.912 13.1545 143.762 12.6746 143.447 12.3953C143.139 12.116 142.702 11.9728 142.143 11.9728C141.678 11.9728 141.227 12.0444 140.79 12.1805C140.353 12.3165 139.937 12.4813 139.536 12.6746L138.956 11.3568C139.393 11.1276 139.887 10.9343 140.453 10.7839C141.026 10.6335 141.621 10.5547 142.236 10.5547ZM143.898 15.5251L142.666 15.5609C141.613 15.6039 140.89 15.7829 140.482 16.0909C140.074 16.3989 139.873 16.8214 139.873 17.3586C139.873 17.8384 140.016 18.1894 140.303 18.4042C140.589 18.6191 140.962 18.7337 141.413 18.7337C142.122 18.7337 142.716 18.5331 143.189 18.1321C143.662 17.731 143.898 17.1365 143.898 16.3344V15.5251Z" fill="#02194A"/>
<path d="M153.475 10.5547C153.84 10.5547 154.177 10.5833 154.485 10.6406L154.299 12.338C153.998 12.2592 153.69 12.2163 153.375 12.2163C152.909 12.2163 152.472 12.3309 152.071 12.56C151.67 12.7892 151.348 13.1187 151.104 13.5484C150.861 13.9781 150.739 14.4938 150.739 15.1025V19.9727H148.92V10.7337H150.359L150.596 12.381H150.667C150.954 11.8868 151.334 11.4643 151.813 11.1062C152.293 10.7409 152.852 10.5547 153.475 10.5547Z" fill="#02194A"/>
<path d="M158.431 6.93945V13.4497C158.431 13.6789 158.417 13.951 158.395 14.2733C158.374 14.5956 158.352 14.8821 158.345 15.1328H158.395C158.524 14.9609 158.696 14.7388 158.918 14.4524C159.14 14.173 159.341 13.9439 159.513 13.7577L162.342 10.721H164.447L160.73 14.6815L164.691 19.9599H162.549L159.498 15.8275L158.438 16.7227V19.9599H156.641V6.93945H158.431Z" fill="#02194A"/>
<path d="M170.277 10.5547C171.488 10.5547 172.44 10.9271 173.142 11.6791C173.837 12.424 174.188 13.4481 174.188 14.7373V15.7328H167.985C168.007 16.6782 168.258 17.4087 168.73 17.91C169.203 18.4114 169.869 18.662 170.729 18.662C171.323 18.662 171.853 18.6119 172.311 18.4973C172.777 18.3899 173.25 18.2252 173.744 18.0103V19.5143C173.278 19.7292 172.806 19.8867 172.34 19.987C171.874 20.0873 171.316 20.1303 170.657 20.1303C169.769 20.1303 168.981 19.9512 168.293 19.6003C167.606 19.2422 167.076 18.7193 166.689 18.0246C166.31 17.3299 166.116 16.4633 166.116 15.4177C166.116 14.3792 166.288 13.4983 166.639 12.7749C166.99 12.0587 167.47 11.5001 168.093 11.1205C168.709 10.7481 169.439 10.5547 170.277 10.5547ZM170.277 11.9656C169.626 11.9656 169.103 12.1733 168.709 12.603C168.315 13.0256 168.086 13.6272 168.014 14.4007H172.369C172.354 13.6845 172.182 13.0972 171.846 12.646C171.502 12.1876 170.986 11.9656 170.277 11.9656Z" fill="#02194A"/>
<path d="M180.196 18.6648C180.711 18.6648 181.17 18.5932 181.585 18.4428V19.8179C181.392 19.911 181.127 19.9826 180.797 20.0471C180.468 20.1115 180.131 20.1402 179.802 20.1402C179.301 20.1402 178.835 20.0542 178.42 19.8823C178.004 19.7104 177.668 19.4168 177.417 18.9871C177.166 18.5645 177.037 17.9772 177.037 17.2252V12.1187H175.755V11.2951L177.109 10.6076L177.746 8.65234H178.864V10.7293H181.506V12.1187H178.864V17.1894C178.864 17.6908 178.985 18.0632 179.229 18.3067C179.472 18.543 179.795 18.6648 180.196 18.6648Z" fill="#02194A"/>
<path d="M190 17.3599C190 18.2766 189.671 18.9642 189.012 19.4368C188.353 19.9024 187.429 20.1387 186.24 20.1387C185.588 20.1387 185.03 20.0957 184.571 20.0026C184.106 19.9095 183.683 19.7663 183.296 19.5729V17.983C183.697 18.1763 184.17 18.3482 184.707 18.5058C185.252 18.6633 185.782 18.735 186.29 18.735C186.978 18.735 187.472 18.6275 187.773 18.4055C188.073 18.1907 188.224 17.897 188.224 17.5318C188.224 17.3241 188.167 17.1378 188.052 16.9731C187.937 16.8084 187.723 16.6365 187.407 16.4575C187.092 16.2784 186.634 16.0779 186.025 15.8487C185.431 15.6195 184.929 15.3832 184.528 15.1468C184.12 14.9033 183.812 14.624 183.597 14.2874C183.382 13.9579 183.275 13.5425 183.275 13.034C183.275 12.2319 183.597 11.6231 184.242 11.1934C184.886 10.7637 185.739 10.5488 186.806 10.5488C187.364 10.5488 187.894 10.6061 188.389 10.7207C188.883 10.8353 189.37 10.9929 189.835 11.2006L189.234 12.59C188.833 12.4181 188.424 12.2749 188.002 12.1531C187.579 12.0314 187.15 11.9741 186.72 11.9741C185.603 11.9741 185.044 12.2964 185.044 12.9481C185.044 13.1629 185.108 13.3563 185.244 13.5139C185.373 13.6715 185.603 13.8362 185.932 13.9937C186.254 14.1513 186.713 14.3447 187.293 14.5739C187.851 14.7887 188.338 15.0179 188.74 15.2542C189.148 15.4906 189.456 15.7699 189.671 16.0994C189.893 16.4431 190 16.8585 190 17.3599Z" fill="#02194A"/>
<path d="M23.4347 15.1053C23.714 14.9907 23.9933 14.8546 24.2655 14.7042C28.0399 12.57 29.372 7.76427 27.2377 3.98991C25.1034 0.215542 20.2977 -1.11659 16.5234 1.01768C13.723 2.60048 12.2763 5.65865 12.5771 8.66668C10.1564 6.8547 6.79024 6.52525 3.98991 8.10805C0.215542 10.2495 -1.11659 15.0552 1.01768 18.8295C3.15196 22.6039 7.95765 23.936 11.732 21.8018C11.954 21.68 12.1617 21.5439 12.3623 21.4007C12.1904 22.9835 12.484 24.6307 13.322 26.1204C15.4562 29.8948 20.2619 31.2269 24.0363 29.0927C27.8107 26.9584 29.1428 22.1527 27.0085 18.3783C26.1634 16.8743 24.8886 15.7714 23.4347 15.1053ZM10.3354 19.3309C7.92184 20.6988 4.84935 19.8465 3.48141 17.433C2.11347 15.0194 2.96574 11.9469 5.37933 10.5789C7.79292 9.21099 10.8654 10.0633 12.2334 12.4769C13.6013 14.8904 12.749 17.9701 10.3354 19.3309ZM17.9128 3.48857C20.3264 2.12063 23.3989 2.97291 24.7668 5.38649C26.1348 7.80008 25.2825 10.8726 22.8689 12.2405C20.4553 13.6085 17.3828 12.7562 16.0149 10.3426C14.6469 7.929 15.4992 4.85651 17.9128 3.48857ZM15.2271 14.1957L15.1196 13.1787L15.9361 13.7875C16.3515 14.0955 16.8099 14.3676 17.304 14.5896L18.2351 15.0122L17.2897 15.4061C16.9961 15.5279 16.7382 15.6496 16.5091 15.7857C16.3014 15.9003 16.1008 16.0292 15.9074 16.1653L15.0981 16.7311L15.2056 15.7499C15.2772 15.2271 15.2772 14.6971 15.2271 14.1957ZM22.6397 26.6218C20.2261 27.9897 17.1536 27.1374 15.7857 24.7238C14.4178 22.3103 15.27 19.2378 17.6836 17.8698C20.0972 16.5019 23.1697 17.3542 24.5376 19.7678C25.9056 22.1813 25.0533 25.2538 22.6397 26.6218Z" fill="#0E80E1"/>
</svg>
