<svg width="29" height="32" viewBox="0 0 29 32" fill="none" xmlns="http://www.w3.org/2000/svg">
<path d="M23.4347 16.0506C23.714 15.936 23.9933 15.7999 24.2655 15.6495C28.0399 13.5153 29.372 8.70959 27.2377 4.93522C25.1034 1.16085 20.2977 -0.171275 16.5234 1.963C13.723 3.54579 12.2763 6.60396 12.5771 9.612C10.1564 7.80001 6.79024 7.47056 3.98991 9.05336C0.215542 11.1948 -1.11659 16.0005 1.01768 19.7749C3.15196 23.5492 7.95765 24.8813 11.732 22.7471C11.954 22.6253 12.1617 22.4892 12.3623 22.346C12.1904 23.9288 12.484 25.5761 13.322 27.0657C15.4562 30.8401 20.2619 32.1722 24.0363 30.038C27.8107 27.9037 29.1428 23.098 27.0085 19.3236C26.1634 17.8196 24.8886 16.7167 23.4347 16.0506ZM10.3354 20.2762C7.92184 21.6441 4.84935 20.7919 3.48141 18.3783C2.11347 15.9647 2.96574 12.8922 5.37933 11.5242C7.79292 10.1563 10.8654 11.0086 12.2334 13.4222C13.6013 15.8358 12.749 18.9154 10.3354 20.2762ZM17.9128 4.43388C20.3264 3.06594 23.3989 3.91822 24.7668 6.33181C26.1348 8.7454 25.2825 11.8179 22.8689 13.1858C20.4553 14.5538 17.3828 13.7015 16.0149 11.2879C14.6469 8.87431 15.4992 5.80182 17.9128 4.43388ZM15.2271 15.141L15.1196 14.124L15.9361 14.7328C16.3515 15.0408 16.8099 15.3129 17.304 15.535L18.2351 15.9575L17.2897 16.3514C16.9961 16.4732 16.7382 16.5949 16.5091 16.731C16.3014 16.8456 16.1008 16.9745 15.9074 17.1106L15.0981 17.6764L15.2056 16.6952C15.2772 16.1724 15.2772 15.6424 15.2271 15.141ZM22.6397 27.5671C20.2261 28.935 17.1536 28.0828 15.7857 25.6692C14.4178 23.2556 15.27 20.1831 17.6836 18.8151C20.0972 17.4472 23.1697 18.2995 24.5376 20.7131C25.9056 23.1267 25.0533 26.1992 22.6397 27.5671Z" fill="#0E80E1"/>
</svg>
