<svg width="23" height="16" viewBox="0 0 23 16" fill="none" xmlns="http://www.w3.org/2000/svg">
<path d="M7.74021 2.51674C8.89074 2.02538 10.1358 1.77167 11.3948 1.77206C14.1302 1.77206 16.3092 2.94202 17.9301 4.32018C19.5556 5.70189 20.5831 7.26243 20.9913 7.95018C21.0007 7.96495 21.0058 7.98183 21.0062 7.99911C21.0058 8.01792 21.0004 8.03631 20.9904 8.05249C20.5742 8.74574 20.1005 9.40566 19.5741 10.0259C19.513 10.0934 19.4666 10.172 19.4377 10.2571C19.4088 10.3422 19.3981 10.432 19.4061 10.5212C19.414 10.6104 19.4406 10.6971 19.4842 10.7762C19.5277 10.8553 19.5874 10.9252 19.6597 10.9817C19.7319 11.0381 19.8152 11.0801 19.9047 11.105C19.9941 11.1298 20.0879 11.1372 20.1804 11.1265C20.2728 11.1159 20.3621 11.0875 20.4429 11.043C20.5237 10.9985 20.5944 10.9388 20.6507 10.8675C21.2254 10.191 21.7424 9.47092 22.1966 8.71444C22.3264 8.49769 22.3948 8.252 22.395 8.0019C22.3952 7.75179 22.3271 7.50602 22.1975 7.28913C21.7486 6.53288 20.6331 4.83621 18.8502 3.32104C17.0637 1.80231 14.5717 0.4375 11.3948 0.4375C9.82577 0.4375 8.41873 0.77025 7.18109 1.29429C7.01346 1.36612 6.88225 1.49882 6.81614 1.66338C6.75002 1.82794 6.7544 2.01097 6.8283 2.17244C6.90221 2.3339 7.03963 2.46068 7.21051 2.52503C7.3814 2.58939 7.57185 2.58609 7.74021 2.51585V2.51674Z" fill="#FF0000" fill-opacity="0.8"/>
<path fill-rule="evenodd" clip-rule="evenodd" d="M18.0283 13.3267C16.3269 14.566 14.1099 15.5625 11.3948 15.5625C8.2179 15.5625 5.72504 14.1977 3.9394 12.6799C2.15653 11.1638 1.04016 9.46624 0.59213 8.70999C0.46282 8.49333 0.394857 8.24788 0.39502 7.9981C0.395182 7.74833 0.463464 7.50296 0.593056 7.28646C1.42145 5.90678 2.45596 4.65139 3.66354 3.56037L1.50578 2.09413C1.42846 2.04471 1.36225 1.98087 1.31106 1.90642C1.25986 1.83196 1.22473 1.74839 1.20773 1.66065C1.19074 1.57291 1.19223 1.48279 1.21212 1.39561C1.232 1.30843 1.26989 1.22598 1.32352 1.15312C1.37715 1.08027 1.44544 1.01849 1.52435 0.971454C1.60326 0.924416 1.69119 0.893069 1.78293 0.87927C1.87466 0.865472 1.96835 0.869501 2.05844 0.891119C2.14853 0.912738 2.23319 0.951506 2.30742 1.00513L21.2839 13.9059C21.3612 13.9553 21.4274 14.0191 21.4786 14.0936C21.5298 14.168 21.5649 14.2516 21.5819 14.3394C21.5989 14.4271 21.5974 14.5172 21.5776 14.6044C21.5577 14.6916 21.5198 14.774 21.4662 14.8469C21.4125 14.9197 21.3442 14.9815 21.2653 15.0285C21.1864 15.0756 21.0985 15.1069 21.0068 15.1207C20.915 15.1345 20.8213 15.1305 20.7312 15.1089C20.6411 15.0873 20.5565 15.0485 20.4823 14.9949L18.0283 13.3267ZM4.82435 4.35043C3.22292 5.72146 2.20652 7.26243 1.79922 7.9484C1.78925 7.96425 1.78382 7.98236 1.78348 8.00089C1.78348 8.01424 1.78626 8.03114 1.79829 8.04982C2.20652 8.73846 3.23403 10.2981 4.85952 11.6798C6.47947 13.058 8.65945 14.2279 11.3948 14.2279C13.5554 14.2279 15.366 13.4984 16.8323 12.5135L13.5776 10.3008C13.0318 10.7797 12.332 11.0649 11.5944 11.109C10.8568 11.1531 10.1256 10.9535 9.52224 10.5433C8.91887 10.1331 8.47954 9.53699 8.27715 8.85381C8.07475 8.17064 8.12146 7.44149 8.40951 6.78733L4.82435 4.35132V4.35043Z" fill="#FF0000" fill-opacity="0.8"/>
</svg>
