<svg width="25" height="24" viewBox="0 0 25 24" fill="none" xmlns="http://www.w3.org/2000/svg">
<path d="M15.9521 17H9.95215M15.9521 17H20.9521L19.5471 15.595C19.3585 15.4063 19.2088 15.1822 19.1067 14.9357C19.0046 14.6891 18.9521 14.4249 18.9521 14.158V11C18.9523 9.75894 18.5677 8.54834 17.8514 7.53489C17.135 6.52144 16.1221 5.75496 14.9521 5.341V5C14.9521 4.46957 14.7414 3.96086 14.3664 3.58579C13.9913 3.21071 13.4826 3 12.9521 3C12.4217 3 11.913 3.21071 11.5379 3.58579C11.1629 3.96086 10.9521 4.46957 10.9521 5V5.341C8.62215 6.165 6.95215 8.388 6.95215 11V14.159C6.95215 14.697 6.73815 15.214 6.35715 15.595L4.95215 17H9.95215H15.9521ZM15.9521 17V18C15.9521 18.7956 15.6361 19.5587 15.0735 20.1213C14.5109 20.6839 13.7478 21 12.9521 21C12.1565 21 11.3934 20.6839 10.8308 20.1213C10.2682 19.5587 9.95215 18.7956 9.95215 18V17H15.9521Z" stroke="#0E80E1" stroke-width="2" stroke-linecap="round" stroke-linejoin="round"/>
</svg>
