<svg width="18" height="13" viewBox="0 0 18 13" fill="none" xmlns="http://www.w3.org/2000/svg">
<path d="M11.7404 6.5C11.7404 7.18376 11.4581 7.83952 10.9557 8.32301C10.4532 8.8065 9.77171 9.07812 9.06112 9.07812C8.35053 9.07812 7.66904 8.8065 7.16658 8.32301C6.66412 7.83952 6.38184 7.18376 6.38184 6.5C6.38184 5.81624 6.66412 5.16048 7.16658 4.67699C7.66904 4.1935 8.35053 3.92188 9.06112 3.92188C9.77171 3.92188 10.4532 4.1935 10.9557 4.67699C11.4581 5.16048 11.7404 5.81624 11.7404 6.5Z" fill="#0E80E1"/>
<path d="M0.487305 6.5C0.487305 6.5 3.70244 0.828125 9.06101 0.828125C14.4196 0.828125 17.6347 6.5 17.6347 6.5C17.6347 6.5 14.4196 12.1719 9.06101 12.1719C3.70244 12.1719 0.487305 6.5 0.487305 6.5ZM9.06101 10.1094C10.0558 10.1094 11.0099 9.7291 11.7134 9.05221C12.4168 8.37532 12.812 7.45727 12.812 6.5C12.812 5.54273 12.4168 4.62468 11.7134 3.94779C11.0099 3.2709 10.0558 2.89062 9.06101 2.89062C8.06618 2.89062 7.1121 3.2709 6.40865 3.94779C5.7052 4.62468 5.31001 5.54273 5.31001 6.5C5.31001 7.45727 5.7052 8.37532 6.40865 9.05221C7.1121 9.7291 8.06618 10.1094 9.06101 10.1094Z" fill="#0E80E1"/>
</svg>
