<svg width="22" height="16" viewBox="0 0 22 16" fill="none" xmlns="http://www.w3.org/2000/svg">
<path d="M7.34519 2.51674C8.49572 2.02538 9.74078 1.77167 10.9998 1.77206C13.7352 1.77206 15.9142 2.94202 17.5351 4.32018C19.1606 5.70189 20.1881 7.26243 20.5963 7.95018C20.6057 7.96495 20.6108 7.98183 20.6111 7.99911C20.6108 8.01792 20.6054 8.03631 20.5954 8.05249C20.1791 8.74574 19.7055 9.40566 19.1791 10.0259C19.118 10.0934 19.0716 10.172 19.0427 10.2571C19.0138 10.3422 19.0031 10.432 19.011 10.5212C19.019 10.6104 19.0456 10.6971 19.0892 10.7762C19.1327 10.8553 19.1924 10.9252 19.2647 10.9817C19.3369 11.0381 19.4202 11.0801 19.5097 11.105C19.5991 11.1298 19.6929 11.1372 19.7853 11.1265C19.8778 11.1159 19.9671 11.0875 20.0479 11.043C20.1287 10.9985 20.1994 10.9388 20.2557 10.8675C20.8304 10.191 21.3473 9.47092 21.8016 8.71444C21.9314 8.49769 21.9998 8.252 22 8.0019C22.0002 7.75179 21.9321 7.50602 21.8025 7.28913C21.3535 6.53288 20.2381 4.83621 18.4552 3.32104C16.6687 1.80231 14.1767 0.4375 10.9998 0.4375C9.43075 0.4375 8.02371 0.77025 6.78608 1.29429C6.61845 1.36612 6.48723 1.49882 6.42112 1.66338C6.35501 1.82794 6.35938 2.01097 6.43328 2.17244C6.50719 2.3339 6.64461 2.46068 6.81549 2.52503C6.98638 2.58939 7.17683 2.58609 7.34519 2.51585V2.51674Z" fill="#0E80E1"/>
<path fill-rule="evenodd" clip-rule="evenodd" d="M17.6333 13.3267C15.9319 14.566 13.7148 15.5625 10.9998 15.5625C7.82288 15.5625 5.33002 14.1977 3.54438 12.6799C1.76151 11.1638 0.645141 9.46623 0.197111 8.70998C0.0678001 8.49332 -0.000162131 8.24787 2.90443e-07 7.9981C0.000162712 7.74832 0.0684441 7.50295 0.198037 7.28645C1.02643 5.90678 2.06094 4.65138 3.26852 3.56036L1.11076 2.09413C1.03344 2.0447 0.96723 1.98087 0.916036 1.90641C0.864842 1.83196 0.829708 1.74838 0.812714 1.66065C0.79572 1.57291 0.79721 1.48278 0.817098 1.39561C0.836985 1.30843 0.874866 1.22597 0.928496 1.15312C0.982127 1.08026 1.05042 1.01849 1.12933 0.97145C1.20824 0.924412 1.29617 0.893065 1.38791 0.879267C1.47965 0.865468 1.57333 0.869497 1.66342 0.891115C1.75351 0.912734 1.83817 0.951503 1.9124 1.00513L20.8889 13.9059C20.9662 13.9553 21.0324 14.0191 21.0836 14.0936C21.1348 14.168 21.1699 14.2516 21.1869 14.3393C21.2039 14.4271 21.2024 14.5172 21.1825 14.6044C21.1626 14.6916 21.1248 14.774 21.0711 14.8469C21.0175 14.9197 20.9492 14.9815 20.8703 15.0285C20.7914 15.0756 20.7035 15.1069 20.6117 15.1207C20.52 15.1345 20.4263 15.1305 20.3362 15.1089C20.2461 15.0873 20.1615 15.0485 20.0872 14.9949L17.6333 13.3267ZM4.42933 4.35042C2.8279 5.72146 1.8115 7.26243 1.4042 7.94839C1.39423 7.96425 1.3888 7.98236 1.38846 8.00089C1.38846 8.01423 1.39124 8.03114 1.40327 8.04982C1.8115 8.73845 2.83901 10.2981 4.4645 11.6798C6.08445 13.058 8.26443 14.2279 10.9998 14.2279C13.1604 14.2279 14.971 13.4984 16.4373 12.5135L13.1826 10.3008C12.6368 10.7797 11.937 11.0649 11.1994 11.109C10.4617 11.1531 9.73059 10.9535 9.12722 10.5433C8.52385 10.1331 8.08452 9.53699 7.88213 8.85381C7.67973 8.17063 7.72644 7.44148 8.01449 6.78733L4.42933 4.35131V4.35042Z" fill="#0E80E1"/>
</svg>
