<svg width="16" height="20" viewBox="0 0 16 20" fill="none" xmlns="http://www.w3.org/2000/svg">
<path d="M12.2811 16.2041V15.7043H9.9541V19.0355H10.5383V17.6011H11.902V17.1013H10.5383V16.2041H12.2811Z" fill="white"/>
<path d="M8.98247 16.1167C8.70441 15.8433 8.36177 15.7043 7.96367 15.7043H6.75342V19.0355H7.96443C8.37468 19.0355 8.71048 18.9093 8.96423 18.6605C9.26737 18.3617 9.42159 17.9373 9.42159 17.3979C9.42083 16.8346 9.27344 16.4036 8.98247 16.1167ZM7.33765 18.5357V16.2049H7.94543C8.1536 16.2049 8.33518 16.2833 8.49928 16.4439C8.71124 16.6524 8.81837 16.9729 8.81837 17.3979C8.81837 17.7984 8.70441 18.1129 8.48029 18.3333C8.34201 18.4692 8.16728 18.5357 7.94543 18.5357H7.33765Z" fill="#F9F9F9"/>
<path d="M8.81763 17.3979C8.81763 16.9728 8.7105 16.6523 8.49854 16.4439C8.33444 16.2825 8.15362 16.2048 7.9447 16.2048H7.33691V18.5357H7.9447C8.16578 18.5357 8.34128 18.4692 8.47955 18.3333C8.70367 18.1129 8.81763 17.7984 8.81763 17.3979Z" fill="#FF0303"/>
<path d="M5.60076 17.1604C5.70105 17.0617 5.74967 16.9325 5.74967 16.7652C5.74967 16.5754 5.70561 16.4357 5.61976 16.3513C5.51947 16.2527 5.39411 16.2048 5.23685 16.2048H4.32593V17.2881H5.23685C5.39411 17.2874 5.51339 17.2455 5.60076 17.1604Z" fill="#FC0303"/>
<path d="M13.7855 2.32341C13.9222 2.42501 14.084 2.47432 14.2801 2.47432H16.0009L15.5222 2.00366C15.4098 1.89309 15.2973 1.78253 15.1849 1.67196L15.0041 1.49415C14.805 1.29842 14.6067 1.10343 14.4077 0.907699L13.4846 0L13.4861 0.51623C13.4861 0.608868 13.4854 0.703747 13.4854 0.79489C13.4846 0.873333 13.4846 0.954017 13.4846 1.03395C13.4846 1.11016 13.4846 1.18636 13.4846 1.26256C13.4846 1.41272 13.4846 1.56811 13.4846 1.72127C13.4846 1.95884 13.5978 2.18445 13.7855 2.32341Z" fill="#E6E7E8"/>
<path d="M0.000865179 0.830001V14.367H0.196117C0.253097 14.367 0.310077 14.367 0.367058 14.3678C0.435434 14.3678 0.50305 14.3685 0.570666 14.3685L3.6909 14.37L5.84703 14.3707L8.14371 14.3715C8.90724 14.3715 9.67077 14.3722 10.4343 14.3722L15.3771 14.3737C15.5162 14.3737 15.6552 14.3737 15.7942 14.3737H16.0009V2.79406H14.862H14.3067C14.1942 2.79406 14.0879 2.79406 13.9876 2.77613C13.5234 2.69246 13.1678 2.2741 13.1595 1.80269C13.1534 1.42691 13.1557 1.04366 13.1572 0.673115C13.158 0.515482 13.1587 0.353367 13.1595 0.192746V0H0.873041C0.630686 0 0.299441 0 0.0981113 0.328713C-0.000654289 0.490829 0.000105443 0.65145 0.000865179 0.792647C0.000865179 0.804601 0.000865179 0.817301 0.000865179 0.830001Z" fill="#E6E7E8"/>
<path d="M16.0008 19.2925C15.997 19.1536 15.9985 19.0094 15.9993 18.8712C16 18.8009 16.0008 18.7277 16.0008 18.656V14.7055H15.8055H15.7964C15.7888 14.7055 15.782 14.7055 15.7744 14.7055C15.6391 14.707 15.5001 14.7062 15.3664 14.7055C15.298 14.7055 15.2289 14.7047 15.1605 14.7047L13.8492 14.704C13.246 14.704 12.6427 14.7032 12.0403 14.7032C11.3216 14.7032 10.6029 14.7025 9.88415 14.7025L5.29687 14.701C4.60475 14.701 3.91188 14.7002 3.21976 14.7002C2.64844 14.7002 2.07712 14.6995 1.50504 14.6995C1.15328 14.6995 0.80152 14.6995 0.449003 14.6995H0V19.2484C0 19.2559 0 19.2641 0 19.2716C0 19.2888 0 19.3067 0 19.3254C0.00379868 19.5047 0.0752138 19.6728 0.20209 19.7983C0.328965 19.9238 0.499906 19.9955 0.683002 19.9985C0.71567 19.9993 0.748339 19.9993 0.780248 19.9993C0.812157 19.9993 0.844066 19.9993 0.875215 19.9985C0.906364 19.9985 0.936753 19.9978 0.967143 19.9978H15.1955C15.2076 19.9978 15.2198 19.9978 15.2312 19.9978C15.2562 19.9978 15.2828 19.9978 15.3094 19.9978C15.4933 19.9948 15.665 19.9253 15.7926 19.802C15.9218 19.678 15.9955 19.5092 16 19.3276V19.3157C16.0008 19.309 16.0008 19.3007 16.0008 19.2925ZM11.902 17.1013V17.6011H10.5383V19.0355H9.95405V15.7043H12.2811V16.2041H10.5383V17.1013H11.902ZM7.96354 19.0355H6.75328V15.7043H7.9643C8.36164 15.7043 8.70428 15.8433 8.98311 16.1167C9.27409 16.4028 9.42147 16.8339 9.42147 17.3979C9.42147 17.9373 9.26725 18.3617 8.96411 18.6605C8.71036 18.9093 8.3738 19.0355 7.96354 19.0355ZM4.32593 17.7879V19.0355H3.74169V15.7043H5.33106C5.62736 15.7043 5.87503 15.7992 6.06572 15.9867C6.25566 16.1742 6.35214 16.4357 6.35214 16.7644C6.35214 17.0931 6.26174 17.3486 6.08396 17.5234C5.90618 17.6983 5.65243 17.7872 5.3303 17.7872H4.32593V17.7879Z" fill="#F90606"/>
<path d="M4.91489 11.6283C5.55686 11.6283 6.52552 10.7856 7.23284 9.36611C7.9675 9.08147 8.8807 8.87005 9.60169 8.73782C10.1791 9.17486 10.8173 9.59248 11.1265 9.59248C11.9819 9.59248 12.162 9.10613 12.162 8.69822C12.162 7.89586 11.2298 7.89586 10.7816 7.89586C10.6425 7.89586 10.2687 7.9362 9.78023 8.01689C9.46114 7.7696 9.15724 7.5156 8.95515 7.31687C8.69229 7.05838 8.45829 6.80811 8.25468 6.56905C8.57225 5.60457 8.71128 5.10701 8.71128 4.8418C8.71128 3.71521 8.29722 3.48436 7.67576 3.48436C7.20397 3.48436 6.64024 3.72567 6.64024 4.87393C6.64024 5.38045 6.9221 5.99454 7.48127 6.7095C7.34452 7.12039 7.18345 7.59329 7.0034 8.12745C6.91679 8.3837 6.82182 8.62053 6.72229 8.84017C6.641 8.87528 6.56199 8.91189 6.48602 8.94924C6.21175 9.08372 5.95116 9.20549 5.70957 9.3183C4.60795 9.83154 3.88013 10.1707 3.88013 10.8408C3.88013 11.3272 4.41726 11.6283 4.91489 11.6283ZM10.7816 8.57421C11.2913 8.57421 11.4357 8.62351 11.4714 8.69747C11.4714 8.84988 11.4714 8.91338 11.1515 8.91488C11.0573 8.8947 10.8401 8.76919 10.5719 8.58915C10.6691 8.58018 10.7405 8.57421 10.7816 8.57421ZM8.46665 7.7965C8.53122 7.86 8.69153 8.00344 8.90577 8.18274C8.48032 8.27388 8.02828 8.38669 7.59523 8.52191C7.6165 8.46289 7.63777 8.40313 7.65753 8.34261C7.78592 7.96459 7.90064 7.62542 8.00321 7.31986C8.1468 7.47525 8.30178 7.63364 8.46665 7.7965ZM7.33084 4.87467C7.33084 4.16345 7.55496 4.16345 7.67576 4.16345C7.91964 4.16345 8.02068 4.16345 8.02068 4.8418C8.02068 4.98524 7.92344 5.34309 7.74642 5.90116C7.47519 5.49176 7.33084 5.13989 7.33084 4.87467ZM6.0051 9.93165C6.04993 9.91073 6.09551 9.88981 6.14186 9.86815C5.62372 10.607 5.1109 10.9499 4.91489 10.9499C4.71811 10.9499 4.5844 10.8588 4.56997 10.8408C4.56997 10.6003 5.29931 10.2604 6.0051 9.93165Z" fill="#FF0606"/>
</svg>
