<svg width="24" height="20" viewBox="0 0 24 20" fill="none" xmlns="http://www.w3.org/2000/svg">
<g clip-path="url(#clip0_4353_106894)">
<path d="M15.4375 10C15.4375 10.9117 15.0753 11.786 14.4307 12.4307C13.786 13.0753 12.9117 13.4375 12 13.4375C11.0883 13.4375 10.214 13.0753 9.56932 12.4307C8.92466 11.786 8.5625 10.9117 8.5625 10C8.5625 9.08832 8.92466 8.21398 9.56932 7.56932C10.214 6.92466 11.0883 6.5625 12 6.5625C12.9117 6.5625 13.786 6.92466 14.4307 7.56932C15.0753 8.21398 15.4375 9.08832 15.4375 10Z" fill="#02194A"/>
<path d="M1 10C1 10 5.125 2.4375 12 2.4375C18.875 2.4375 23 10 23 10C23 10 18.875 17.5625 12 17.5625C5.125 17.5625 1 10 1 10ZM12 14.8125C13.2764 14.8125 14.5004 14.3055 15.403 13.403C16.3055 12.5004 16.8125 11.2764 16.8125 10C16.8125 8.72365 16.3055 7.49957 15.403 6.59705C14.5004 5.69453 13.2764 5.1875 12 5.1875C10.7236 5.1875 9.49957 5.69453 8.59705 6.59705C7.69453 7.49957 7.1875 8.72365 7.1875 10C7.1875 11.2764 7.69453 12.5004 8.59705 13.403C9.49957 14.3055 10.7236 14.8125 12 14.8125Z" fill="#02194A"/>
</g>
<defs>
<clipPath id="clip0_4353_106894">
<rect width="23" height="20" fill="white" transform="translate(0.5)"/>
</clipPath>
</defs>
</svg>
