<svg width="24" height="20" viewBox="0 0 24 20" fill="none" xmlns="http://www.w3.org/2000/svg">
<path d="M8.34519 4.51674C9.49572 4.02538 10.7408 3.77167 11.9998 3.77206C14.7352 3.77206 16.9142 4.94202 18.5351 6.32018C20.1606 7.70189 21.1881 9.26243 21.5963 9.95018C21.6057 9.96495 21.6108 9.98183 21.6111 9.99911C21.6108 10.0179 21.6054 10.0363 21.5954 10.0525C21.1791 10.7457 20.7055 11.4057 20.1791 12.0259C20.118 12.0934 20.0716 12.172 20.0427 12.2571C20.0138 12.3422 20.0031 12.432 20.011 12.5212C20.019 12.6104 20.0456 12.6971 20.0892 12.7762C20.1327 12.8553 20.1924 12.9252 20.2647 12.9817C20.3369 13.0381 20.4202 13.0801 20.5097 13.105C20.5991 13.1298 20.6929 13.1372 20.7853 13.1265C20.8778 13.1159 20.9671 13.0875 21.0479 13.043C21.1287 12.9985 21.1994 12.9388 21.2557 12.8675C21.8304 12.191 22.3473 11.4709 22.8016 10.7144C22.9314 10.4977 22.9998 10.252 23 10.0019C23.0002 9.75179 22.9321 9.50602 22.8025 9.28913C22.3535 8.53288 21.2381 6.83621 19.4552 5.32104C17.6687 3.80231 15.1767 2.4375 11.9998 2.4375C10.4307 2.4375 9.02371 2.77025 7.78608 3.29429C7.61845 3.36612 7.48723 3.49882 7.42112 3.66338C7.35501 3.82794 7.35938 4.01097 7.43328 4.17244C7.50719 4.3339 7.64461 4.46068 7.81549 4.52503C7.98638 4.58939 8.17683 4.58609 8.34519 4.51585V4.51674Z" fill="#02194A"/>
<path fill-rule="evenodd" clip-rule="evenodd" d="M18.6333 15.3267C16.9319 16.566 14.7148 17.5625 11.9998 17.5625C8.82288 17.5625 6.33002 16.1977 4.54438 14.6799C2.76151 13.1638 1.64514 11.4662 1.19711 10.71C1.0678 10.4933 0.999838 10.2479 1 9.9981C1.00016 9.74833 1.06844 9.50296 1.19804 9.28646C2.02643 7.90678 3.06094 6.65139 4.26852 5.56037L2.11076 4.09413C2.03344 4.04471 1.96723 3.98087 1.91604 3.90642C1.86484 3.83196 1.82971 3.74839 1.81271 3.66065C1.79572 3.57291 1.79721 3.48279 1.8171 3.39561C1.83699 3.30843 1.87487 3.22598 1.9285 3.15312C1.98213 3.08027 2.05042 3.01849 2.12933 2.97145C2.20824 2.92442 2.29617 2.89307 2.38791 2.87927C2.47965 2.86547 2.57333 2.8695 2.66342 2.89112C2.75351 2.91274 2.83817 2.95151 2.9124 3.00513L21.8889 15.9059C21.9662 15.9553 22.0324 16.0191 22.0836 16.0936C22.1348 16.168 22.1699 16.2516 22.1869 16.3394C22.2039 16.4271 22.2024 16.5172 22.1825 16.6044C22.1626 16.6916 22.1248 16.774 22.0711 16.8469C22.0175 16.9197 21.9492 16.9815 21.8703 17.0285C21.7914 17.0756 21.7035 17.1069 21.6117 17.1207C21.52 17.1345 21.4263 17.1305 21.3362 17.1089C21.2461 17.0873 21.1615 17.0485 21.0872 16.9949L18.6333 15.3267ZM5.42933 6.35043C3.8279 7.72146 2.8115 9.26243 2.4042 9.9484C2.39423 9.96425 2.3888 9.98236 2.38846 10.0009C2.38846 10.0142 2.39124 10.0311 2.40327 10.0498C2.8115 10.7385 3.83901 12.2981 5.4645 13.6798C7.08445 15.058 9.26443 16.2279 11.9998 16.2279C14.1604 16.2279 15.971 15.4984 17.4373 14.5135L14.1826 12.3008C13.6368 12.7797 12.937 13.0649 12.1994 13.109C11.4617 13.1531 10.7306 12.9535 10.1272 12.5433C9.52385 12.1331 9.08452 11.537 8.88213 10.8538C8.67973 10.1706 8.72644 9.44149 9.01449 8.78733L5.42933 6.35132V6.35043Z" fill="#02194A"/>
</svg>
