<svg width="14" height="13" viewBox="0 0 14 13" fill="none" xmlns="http://www.w3.org/2000/svg">
<g opacity="0.8">
<path fill-rule="evenodd" clip-rule="evenodd" d="M6.46537 1.93415C4.2762 1.93415 2.50153 3.70882 2.50153 5.89798C2.50153 8.08715 4.2762 9.86182 6.46537 9.86182C8.65453 9.86182 10.4292 8.08715 10.4292 5.89798C10.4292 3.70882 8.65453 1.93415 6.46537 1.93415ZM0.797363 5.89798C0.797363 2.76763 3.33501 0.22998 6.46537 0.22998C9.59572 0.22998 12.1334 2.76763 12.1334 5.89798C12.1334 9.02834 9.59572 11.566 6.46537 11.566C3.33501 11.566 0.797363 9.02834 0.797363 5.89798Z" fill="white"/>
<path fill-rule="evenodd" clip-rule="evenodd" d="M9.26422 8.69671C9.59698 8.36395 10.1365 8.36395 10.4692 8.69671L13.0879 11.3154C13.4207 11.6481 13.4207 12.1876 13.0879 12.5204C12.7551 12.8532 12.2156 12.8532 11.8829 12.5204L9.26422 9.90174C8.93146 9.56898 8.93146 9.02947 9.26422 8.69671Z" fill="white"/>
</g>
</svg>
