<svg width="14" height="13" viewBox="0 0 14 13" fill="none" xmlns="http://www.w3.org/2000/svg">
<path fill-rule="evenodd" clip-rule="evenodd" d="M6.46537 1.93419C4.2762 1.93419 2.50153 3.70886 2.50153 5.89803C2.50153 8.0872 4.2762 9.86187 6.46537 9.86187C8.65453 9.86187 10.4292 8.0872 10.4292 5.89803C10.4292 3.70886 8.65453 1.93419 6.46537 1.93419ZM0.797363 5.89803C0.797363 2.76768 3.33501 0.230026 6.46537 0.230026C9.59572 0.230026 12.1334 2.76768 12.1334 5.89803C12.1334 9.02838 9.59572 11.566 6.46537 11.566C3.33501 11.566 0.797363 9.02838 0.797363 5.89803Z" fill="#02194A"/>
<path fill-rule="evenodd" clip-rule="evenodd" d="M9.26397 8.69671C9.59673 8.36395 10.1362 8.36395 10.469 8.69671L13.0877 11.3154C13.4204 11.6481 13.4204 12.1876 13.0877 12.5204C12.7549 12.8531 12.2154 12.8531 11.8826 12.5204L9.26397 9.90173C8.93121 9.56897 8.93121 9.02946 9.26397 8.69671Z" fill="#02194A"/>
</svg>
