<svg width="46" height="46" viewBox="0 0 46 46" fill="none" xmlns="http://www.w3.org/2000/svg">
<path d="M23.163 45.2184C35.5894 45.2184 45.663 35.1449 45.663 22.7185C45.663 10.2921 35.5894 0.218506 23.163 0.218506C10.7367 0.218506 0.663086 10.2921 0.663086 22.7185C0.663086 35.1449 10.7367 45.2184 23.163 45.2184Z" fill="#E7F2FC"/>
<path d="M34.1256 15.513C34.0113 15.9914 33.8912 16.4697 33.7826 16.9535C33.0737 20.0655 32.3705 23.1775 31.6615 26.2895C31.3585 27.6279 31.0555 28.9716 30.7411 30.3099C30.701 30.4819 30.6267 30.6593 30.541 30.8151C30.3008 31.2344 29.9121 31.3956 29.4261 31.2505C29.2031 31.186 28.9859 31.0893 28.7972 30.9656C27.2193 29.8907 25.6528 28.8103 24.0862 27.73C24.0291 27.6924 23.9719 27.6547 23.9033 27.6064C23.8518 27.6494 23.8004 27.6816 23.7546 27.7246C22.9428 28.4502 22.131 29.1758 21.3248 29.9014C21.0847 30.1164 20.8103 30.2508 20.4501 30.2293C20.4787 29.8101 20.5073 29.4069 20.5359 28.9985C20.5987 28.1492 20.6673 27.3 20.7302 26.4508C20.7417 26.3164 20.776 26.182 20.7588 26.0531C20.6902 25.5639 20.9818 25.2791 21.3363 24.9781C24.2406 22.5433 27.1335 20.0924 30.0321 17.6468C30.0721 17.6092 30.1293 17.5823 30.1522 17.534C30.1979 17.4533 30.2265 17.362 30.2608 17.276C30.1636 17.2491 30.055 17.1846 29.9692 17.2061C29.792 17.2491 29.6148 17.3136 29.4661 17.405C25.6928 19.6194 21.9194 21.8392 18.1461 24.0644C18.0374 24.1289 17.9517 24.1611 17.8145 24.1235C16.2136 23.6505 14.6128 23.1829 13.012 22.7099C12.8176 22.6508 12.6232 22.5648 12.4574 22.4573C12.1487 22.2531 12.1087 21.9521 12.3888 21.7048C12.5947 21.5275 12.8405 21.3662 13.0978 21.2748C14.447 20.7696 15.802 20.2912 17.157 19.8021C22.3025 17.9478 27.4537 16.0935 32.5992 14.2446C32.765 14.1854 32.9422 14.1478 33.1137 14.1371C33.5768 14.1048 33.9198 14.3413 34.0628 14.7606C34.0799 14.8089 34.1028 14.8573 34.1199 14.9057C34.1256 15.1099 34.1256 15.3088 34.1256 15.513Z" fill="#0E80E1"/>
</svg>
