<svg width="53" height="54" viewBox="0 0 53 54" fill="none" xmlns="http://www.w3.org/2000/svg">
<path d="M26.4999 53.3801C40.9757 53.3801 52.7106 41.6452 52.7106 27.1695C52.7106 12.6938 40.9757 0.958862 26.4999 0.958862C12.0242 0.958862 0.289307 12.6938 0.289307 27.1695C0.289307 41.6452 12.0242 53.3801 26.4999 53.3801Z" fill="#E7F2FC"/>
<path d="M33.0166 28.9357L33.7946 23.8192H28.9336V20.5004C28.9336 19.0987 29.612 17.7348 31.7905 17.7348H34V13.3726C34 13.3726 31.9959 13.0269 30.0726 13.0269C26.0705 13.0269 23.4502 15.4782 23.4502 19.9159V23.8192H19V28.9357H23.4502V41.312H28.9274V28.9357H33.0166Z" fill="#0E80E1"/>
</svg>
