<svg width="53" height="54" viewBox="0 0 53 54" fill="none" xmlns="http://www.w3.org/2000/svg">
<path d="M26.4997 53.3801C40.9754 53.3801 52.7103 41.6452 52.7103 27.1695C52.7103 12.6938 40.9754 0.958862 26.4997 0.958862C12.024 0.958862 0.289062 12.6938 0.289062 27.1695C0.289062 41.6452 12.024 53.3801 26.4997 53.3801Z" fill="#E7F2FC"/>
<path d="M38.9998 19.3638C38.077 19.7742 37.0942 20.0501 36.0511 20.178C37.1075 19.5387 37.9233 18.5293 38.3044 17.3181C37.3148 17.9103 36.2183 18.3409 35.0482 18.5697C34.1121 17.5671 32.7815 16.9413 31.3039 16.9413C28.4689 16.9413 26.1755 19.2561 26.1755 22.1092C26.1755 22.513 26.2223 22.9033 26.3092 23.2868C22.0434 23.0648 18.2656 21.0057 15.7315 17.8834C15.2902 18.6505 15.0428 19.5387 15.0428 20.4808C15.0428 22.2707 15.9521 23.8521 17.3228 24.7807C16.4804 24.7538 15.6914 24.5182 14.996 24.1347V24.202C14.996 26.7052 16.7612 28.7912 19.1148 29.2622C18.6802 29.3766 18.2322 29.4439 17.7641 29.4439C17.4365 29.4439 17.1089 29.4103 16.8013 29.3497C17.4566 31.4021 19.3488 32.8959 21.5954 32.9363C19.8369 34.3225 17.6237 35.1502 15.2233 35.1502C14.8088 35.1502 14.4009 35.1233 13.9998 35.0762C16.2731 36.5431 18.9677 37.3977 21.8628 37.3977C31.3038 37.3977 36.459 29.5314 36.459 22.7081C36.459 22.486 36.4523 22.264 36.4456 22.0419C37.4419 21.3085 38.3111 20.4 38.9998 19.3638Z" fill="#0E80E1"/>
</svg>
