<svg width="53" height="54" viewBox="0 0 53 54" fill="none" xmlns="http://www.w3.org/2000/svg">
<path d="M26.5002 53.3801C40.9759 53.3801 52.7108 41.6452 52.7108 27.1695C52.7108 12.6938 40.9759 0.958862 26.5002 0.958862C12.0245 0.958862 0.289551 12.6938 0.289551 27.1695C0.289551 41.6452 12.0245 53.3801 26.5002 53.3801Z" fill="#E7F2FC"/>
<path d="M36.5547 18.2021H16.446C15.1797 18.2021 14.1362 19.1695 14.0112 20.4032L24.8265 31.2185C25.696 32.088 27.2558 32.1369 28.2287 31.1641L38.9895 20.4032C38.8645 19.1695 37.821 18.2021 36.5547 18.2021Z" fill="#0E80E1"/>
<path d="M29.3811 32.3166C28.6104 33.0878 27.5819 33.5124 26.4854 33.5124C25.4234 33.5124 24.3985 33.0969 23.6735 32.3713L14.0002 22.6985V33.6912C14.0002 35.0391 15.0981 36.1369 16.4459 36.1369H36.5546C37.9024 36.1369 39.0002 35.0391 39.0002 33.6912V22.6984L29.3811 32.3166Z" fill="#0E80E1"/>
</svg>
