<svg width="53" height="54" viewBox="0 0 53 54" fill="none" xmlns="http://www.w3.org/2000/svg">
<path d="M0.289062 53.3803L4.79729 39.8565C2.50974 36.0089 1.19288 31.5188 1.19288 26.7177C1.19288 12.4917 12.7256 0.958984 26.9516 0.958984C41.1777 0.958984 52.7103 12.4917 52.7103 26.7177C52.7103 40.9438 41.1777 52.4765 26.9516 52.4765C22.6232 52.4765 18.547 51.4036 14.967 49.5183L0.289062 53.3803Z" fill="#E7F2FC"/>
<path d="M38.8789 35.4911V35.4857C38.8789 35.4857 34.1422 30.7544 34.1393 30.7521C33.7637 30.3764 33.1631 30.3845 32.7937 30.7546L30.6134 32.9439C29.7658 33.7917 28.6728 33.0394 26.5749 31.3287C25.1868 30.1969 23.5898 28.6749 22.2051 26.9589C21.2334 25.755 20.374 24.4907 21.2618 23.6032C21.2641 23.6009 23.451 21.4195 23.4506 21.4172L23.4523 21.4126C23.8448 21.0202 23.8067 20.4189 23.4483 20.0601V20.0547C23.4483 20.0547 18.5747 15.1871 18.572 15.1842C18.1965 14.8087 17.5961 14.817 17.2264 15.1867L15.03 17.3831C14.1251 18.5156 12.1141 23.9129 20.7356 32.7502C29.8178 42.0604 35.6784 40.0688 36.6874 39.0183C36.6874 39.0183 38.8814 36.8501 38.8814 36.848L38.8833 36.8436C39.2758 36.451 39.2371 35.8502 38.8789 35.4911Z" fill="#0E80E1"/>
</svg>
