<svg width="20" height="20" viewBox="0 0 20 20" fill="none" xmlns="http://www.w3.org/2000/svg">
<path d="M10 0C4.48867 0 0 4.48867 0 10C0 15.5113 4.48867 20 10 20C15.5113 20 20 15.5113 20 10C20 4.48867 15.5113 0 10 0ZM10 18.6224C5.24489 18.6224 1.37756 14.7562 1.37756 10C1.37756 5.24489 5.24378 1.37756 10 1.37756C14.7551 1.37756 18.6224 5.24467 18.6224 10C18.6224 14.7553 14.7553 18.6224 10 18.6224Z" fill="white"/>
<path d="M8.97699 11.8005L6.64365 9.84474L5.77734 10.889L9.04379 13.6668L15.3553 7.28923L14.3771 6.3335L8.97699 11.8005Z" fill="white"/>
</svg>
