<svg width="20" height="20" viewBox="0 0 20 20" fill="none" xmlns="http://www.w3.org/2000/svg">
<path d="M9.99997 0C4.48864 0 -3.05176e-05 4.48867 -3.05176e-05 10C-3.05176e-05 15.5113 4.48864 20 9.99997 20C15.5113 20 20 15.5113 20 10C20 4.48867 15.5113 0 9.99997 0ZM9.99997 18.6224C5.24486 18.6224 1.37753 14.7562 1.37753 10C1.37753 5.24489 5.24375 1.37756 9.99997 1.37756C14.7551 1.37756 18.6224 5.24467 18.6224 10C18.6224 14.7553 14.7553 18.6224 9.99997 18.6224Z" fill="#0E80E1"/>
<path d="M8.97696 11.8005L6.64362 9.84474L5.77731 10.889L9.04376 13.6668L15.3553 7.28923L14.377 6.3335L8.97696 11.8005Z" fill="#0E80E1"/>
</svg>
