<svg width="32" height="31" viewBox="0 0 32 31" fill="none" xmlns="http://www.w3.org/2000/svg">
<path d="M31.4851 15.5225C31.4851 23.9565 24.6479 30.7937 16.2139 30.7937C7.77979 30.7937 0.942627 23.9565 0.942627 15.5225C0.942627 7.08839 7.77979 0.251221 16.2139 0.251221C24.6479 0.251221 31.4851 7.08839 31.4851 15.5225Z" fill="white"/>
<path fill-rule="evenodd" clip-rule="evenodd" d="M16.2139 30.0937C24.2613 30.0937 30.7851 23.5699 30.7851 15.5225C30.7851 7.47499 24.2613 0.951221 16.2139 0.951221C8.16639 0.951221 1.64263 7.47499 1.64263 15.5225C1.64263 23.5699 8.16639 30.0937 16.2139 30.0937ZM16.2139 30.7937C24.6479 30.7937 31.4851 23.9565 31.4851 15.5225C31.4851 7.08839 24.6479 0.251221 16.2139 0.251221C7.77979 0.251221 0.942627 7.08839 0.942627 15.5225C0.942627 23.9565 7.77979 30.7937 16.2139 30.7937Z" fill="#E90111"/>
<path fill-rule="evenodd" clip-rule="evenodd" d="M22.2233 21.7507L9.70825 9.8145L10.2044 9.29425L22.7195 21.2305L22.2233 21.7507Z" fill="#E90111"/>
<path fill-rule="evenodd" clip-rule="evenodd" d="M10.2044 21.7507L22.7195 9.8145L22.2233 9.29425L9.70821 21.2305L10.2044 21.7507Z" fill="#E90111"/>
</svg>
