<svg width="45" height="41" viewBox="0 0 45 41" fill="none" xmlns="http://www.w3.org/2000/svg">
<path d="M36.0172 11.0517C35.5491 8.30198 34.1717 5.79251 32.0652 3.88816C29.7246 1.77024 26.6818 0.604492 23.513 0.604492C21.0644 0.604492 18.6788 1.2986 16.6352 2.60673C14.9338 3.69238 13.5204 5.16069 12.5212 6.88706C12.0891 6.80697 11.639 6.76248 11.1888 6.76248C7.36286 6.76248 4.24807 9.84147 4.24807 13.6235C4.24807 14.1129 4.30208 14.5845 4.3921 15.0473C1.91647 16.827 0.413086 19.6925 0.413086 22.7448C0.413086 25.2097 1.34032 27.6035 3.03276 29.499C4.7702 31.4389 7.06579 32.5869 9.51441 32.7203C9.54142 32.7203 9.55942 32.7203 9.58643 32.7203H17.3284C18.0036 32.7203 18.5437 32.1864 18.5437 31.519C18.5437 30.8516 18.0036 30.3177 17.3284 30.3177H9.62244C5.9405 30.0952 2.84371 26.6336 2.84371 22.7359C2.84371 20.2175 4.21206 17.8682 6.41762 16.5957C6.93075 16.302 7.14681 15.688 6.94876 15.1363C6.76871 14.6557 6.67869 14.1485 6.67869 13.6057C6.67869 11.1496 8.7042 9.14736 11.1888 9.14736C11.72 9.14736 12.2421 9.23635 12.7282 9.41433C13.3224 9.6279 13.9796 9.36094 14.2496 8.80031C15.9331 5.26748 19.57 2.98938 23.522 2.98938C28.8334 2.98938 33.2175 6.92266 33.7216 12.1374C33.7756 12.6802 34.1897 13.1162 34.7299 13.2052C38.7359 13.8815 41.7607 17.539 41.7607 21.7125C41.7607 26.1352 38.2408 29.9795 33.9016 30.3088H27.2669C26.5918 30.3088 26.0516 30.8427 26.0516 31.5101C26.0516 32.1775 26.5918 32.7115 27.2669 32.7115H33.9467C33.9737 32.7115 34.0007 32.7115 34.0367 32.7115C36.7824 32.5157 39.348 31.2698 41.2565 29.1875C43.156 27.123 44.1913 24.4711 44.1913 21.7125C44.1823 16.7203 40.7344 12.2797 36.0172 11.0517Z" fill="#E7F2FC"/>
<path d="M29.5983 23.8831C30.0754 23.4115 30.0754 22.6551 29.5983 22.1835L23.1617 15.8208C22.9366 15.5983 22.6215 15.4648 22.3064 15.4648C21.9914 15.4648 21.6763 15.5894 21.4512 15.8208L15.0146 22.1835C14.5375 22.6551 14.5375 23.4115 15.0146 23.8831C15.2486 24.1145 15.5637 24.2391 15.8698 24.2391C16.1759 24.2391 16.491 24.1234 16.725 23.8831L21.0911 19.5672V39.4027C21.0911 40.0701 21.6313 40.604 22.3064 40.604C22.9816 40.604 23.5218 40.0701 23.5218 39.4027V19.5672L27.8879 23.8831C28.356 24.3548 29.1212 24.3548 29.5983 23.8831Z" fill="#0E80E1"/>
</svg>
