<svg width="44" height="61" viewBox="0 0 44 61" fill="none" xmlns="http://www.w3.org/2000/svg">
<g clip-path="url(#clip0_1880_275685)">
<path d="M43.3007 60.0903H0.588867V0.090332H43.3007V60.0903ZM1.66813 57.3131C1.66813 58.2492 2.42697 59.008 3.36305 59.008H40.5266C41.4626 59.008 42.2215 58.2492 42.2215 57.3131V2.86755C42.2215 1.93147 41.4626 1.17263 40.5266 1.17263H3.36305C2.42697 1.17263 1.66813 1.93147 1.66813 2.86755V57.3131Z" fill="#0E80E1"/>
<path d="M33.7167 55.5565C30.2262 55.5565 27.376 52.7109 27.376 49.1979C27.376 45.6976 30.2136 42.8394 33.7167 42.8394C37.2072 42.8394 40.0574 45.685 40.0574 49.1979C40.0574 52.7109 37.2198 55.5565 33.7167 55.5565ZM33.7167 43.8592C30.7786 43.8592 28.3804 46.2642 28.3804 49.2105C28.3804 52.1568 30.7786 54.5618 33.7167 54.5618C36.6548 54.5618 39.0529 52.1568 39.0529 49.2105C39.0529 46.2516 36.6548 43.8592 33.7167 43.8592Z" fill="#0E80E1"/>
<path d="M4.97966 13.032H38.6637C39.5038 13.032 40.1614 12.3661 40.1614 11.5146V4.64084C40.1614 3.78935 39.5038 3.12354 38.6637 3.12354H4.97966C4.15442 3.12354 3.48193 3.80435 3.48193 4.64084V11.5146C3.48193 12.3511 4.15442 13.032 4.97966 13.032ZM4.62386 4.64084C4.62386 4.4214 4.80828 4.27323 4.97966 4.27323H38.6637C38.8705 4.27323 39.0195 4.42703 39.0195 4.64084V11.5146C39.0195 11.7285 38.8705 11.8823 38.6637 11.8823H4.97966C4.80828 11.8823 4.62386 11.7341 4.62386 11.5146V4.64084Z" fill="#0E80E1"/>
<path d="M30.9103 10.502C31.8138 10.502 32.3112 9.97315 32.3577 8.98474V7.81254H30.8656V8.66403H31.43V8.98662C31.43 9.40111 31.2493 9.58491 30.9103 9.58491C30.5936 9.58491 30.4353 9.40111 30.4353 8.98662V7.17111C30.4353 6.75662 30.5936 6.57282 30.9103 6.57282C31.227 6.57282 31.363 6.75662 31.3853 7.17111H32.313C32.2907 6.18271 31.7933 5.65381 30.9122 5.65381C29.9845 5.65381 29.4424 6.18271 29.4424 7.17111V8.98662C29.4405 9.97315 29.9826 10.502 30.9103 10.502Z" fill="#0E80E1"/>
<path d="M35.387 9.51346H33.8725V8.48005H35.1839V7.60605H33.8725V6.64015H35.3181V5.74365H32.9448V10.41H35.387V9.51346Z" fill="#0E80E1"/>
<path d="M17.5278 8.84765H17.8668L18.5896 10.41H19.6067L18.748 8.63947C19.1541 8.38627 19.3813 7.92677 19.3813 7.28346C19.3813 6.31756 18.8392 5.74365 17.9339 5.74365H16.6001V10.41H17.5278V8.84765ZM17.5278 6.64015H17.9115C18.2506 6.64015 18.4313 6.87084 18.4313 7.28346C18.4313 7.72046 18.2506 7.94927 17.9115 7.94927H17.5278V6.64015Z" fill="#0E80E1"/>
<path d="M9.18602 9.26027C9.16366 8.70886 9.14131 8.13307 9.11895 7.55916L9.14131 7.53666L9.57163 8.77826L9.79703 9.42156H10.7229L10.9483 8.77826L11.3544 7.53666L11.3991 7.55916C11.3544 8.13307 11.3544 8.70886 11.3078 9.26027V10.41H12.2355V5.74365H11.2855L10.5627 7.51415C10.4714 7.74484 10.3149 8.15746 10.2683 8.31875H10.246C10.1789 8.15746 10.0206 7.74484 9.92929 7.51415L9.20651 5.74365H8.27881V10.41H9.18229V9.26027H9.18602Z" fill="#0E80E1"/>
<path d="M14.4077 10.502C15.3577 10.502 15.8998 9.90368 15.8998 8.89277V7.26106C15.8998 6.25015 15.3577 5.65186 14.4077 5.65186C13.48 5.65186 12.9155 6.25015 12.9155 7.26106V8.89277C12.9155 9.90555 13.48 10.502 14.4077 10.502ZM13.8879 7.26106C13.8879 6.80155 14.0686 6.57086 14.4077 6.57086C14.7691 6.57086 14.9498 6.80155 14.9498 7.26106V8.89277C14.9498 9.35227 14.7691 9.58296 14.4077 9.58296C14.0686 9.58296 13.8879 9.35227 13.8879 8.89277V7.26106Z" fill="#0E80E1"/>
<path d="M27.1571 9.65225H28.1295L28.2655 10.41H29.2379L28.1295 5.74365H27.1348L26.0264 10.41H26.9988L27.1571 9.65225ZM27.4291 8.20434C27.4962 7.85925 27.5651 7.30784 27.6322 6.91773H27.6545C27.6992 7.30784 27.7681 7.86112 27.8352 8.20434L27.9265 8.73324H27.3378L27.4291 8.20434Z" fill="#0E80E1"/>
<path d="M24.3308 10.502C25.2343 10.502 25.7559 9.97315 25.7783 8.98474V7.81254H24.3085V8.66403H24.8506V8.98662C24.8506 9.40111 24.6922 9.58491 24.3532 9.58491C24.0141 9.58491 23.8558 9.40111 23.8558 8.98662V7.17111C23.8558 6.75662 24.0365 6.57282 24.3532 6.57282C24.6699 6.57282 24.8059 6.75662 24.8282 7.17111H25.7559C25.7112 6.18271 25.2362 5.65381 24.355 5.65381C23.4273 5.65381 22.8853 6.18271 22.8853 7.17111V8.98662C22.8853 9.97315 23.4273 10.502 24.3308 10.502Z" fill="#0E80E1"/>
<path d="M20.6462 10.41H21.5962V6.64015H22.4997V5.74365H19.7427V6.64015H20.6462V10.41Z" fill="#0E80E1"/>
<path d="M39.5913 16.647H11.2424C10.9276 16.647 10.6724 16.9039 10.6724 17.2209C10.6724 17.5378 10.9276 17.7948 11.2424 17.7948H39.5913C39.9061 17.7948 40.1613 17.5378 40.1613 17.2209C40.1613 16.9039 39.9061 16.647 39.5913 16.647Z" fill="#0E80E1"/>
<path d="M4.5046 40.3241H27.2705C27.5853 40.3241 27.8405 40.0671 27.8405 39.7502C27.8405 39.4332 27.5853 39.1763 27.2705 39.1763H4.5046C4.18978 39.1763 3.93457 39.4332 3.93457 39.7502C3.93457 40.0671 4.18978 40.3241 4.5046 40.3241Z" fill="#0E80E1"/>
<path d="M39.5914 30.1646H4.5046C4.18978 30.1646 3.93457 30.4215 3.93457 30.7385C3.93457 31.0554 4.18978 31.3124 4.5046 31.3124H39.5895C39.9043 31.3124 40.1596 31.0554 40.1596 30.7385C40.1614 30.4215 39.9062 30.1646 39.5914 30.1646Z" fill="#0E80E1"/>
<path d="M39.4889 34.6704H4.40206C4.08724 34.6704 3.83203 34.9274 3.83203 35.2443C3.83203 35.5613 4.08724 35.8182 4.40206 35.8182H39.487C39.8018 35.8182 40.057 35.5613 40.057 35.2443C40.0589 34.9274 39.8037 34.6704 39.4889 34.6704Z" fill="#0E80E1"/>
<path d="M39.5914 25.6587H4.5046C4.18978 25.6587 3.93457 25.9156 3.93457 26.2326C3.93457 26.5496 4.18978 26.8065 4.5046 26.8065H39.5895C39.9043 26.8065 40.1596 26.5496 40.1596 26.2326C40.1614 25.9156 39.9062 25.6587 39.5914 25.6587Z" fill="#0E80E1"/>
<path d="M39.5914 21.1528H4.5046C4.18978 21.1528 3.93457 21.4098 3.93457 21.7267C3.93457 22.0437 4.18978 22.3007 4.5046 22.3007H39.5895C39.9043 22.3007 40.1596 22.0437 40.1596 21.7267C40.1614 21.4098 39.9062 21.1528 39.5914 21.1528Z" fill="#0E80E1"/>
<path d="M21.9299 52.7096H19.3536C18.886 52.7096 18.2098 52.4339 17.8037 52.2689C17.4479 52.1244 17.1163 52.0044 16.768 51.8975C15.626 51.633 14.9181 52.0157 14.6629 53.0266C14.6406 53.1128 14.6145 53.1897 14.5866 53.2535C14.5307 53.1485 14.4785 53.0322 14.4245 52.9122C14.2065 52.4264 13.9346 51.8225 13.2621 51.558C12.8113 51.3705 12.3474 51.3667 11.9245 51.5487C11.2632 51.8319 10.7174 52.5408 10.2536 53.7168C10.2163 53.8124 10.0934 53.9212 9.96669 54.0018C9.98159 53.9493 9.99463 53.9006 10.0058 53.8537C10.207 52.9872 10.2498 52.0438 10.125 51.2561C9.91639 50.0501 9.45068 49.3655 8.74093 49.223C7.95295 49.0655 7.08672 49.6637 6.3006 50.9053C6.14039 51.1548 4.74512 53.3923 4.81032 54.874C4.82336 55.1834 5.07671 55.4235 5.38035 55.4235C5.38967 55.4235 5.39712 55.4235 5.40643 55.4235C5.72125 55.4104 5.96529 55.1403 5.95225 54.8252C5.91872 54.0637 6.58748 52.5896 7.26369 51.5261C7.84863 50.6015 8.3516 50.3033 8.51925 50.3521C8.62357 50.3727 8.85829 50.6296 8.99987 51.4474C9.10046 52.0757 9.06134 52.8784 8.89555 53.5892C8.87878 53.6549 8.86574 53.7111 8.84898 53.7449C8.83408 53.7749 8.8229 53.8049 8.81358 53.8349C8.50435 54.8758 9.18802 55.1722 9.32773 55.2209C10.0356 55.4647 11.049 54.8233 11.3154 54.1425C11.7625 53.0097 12.1686 52.6946 12.3716 52.6083C12.4685 52.5689 12.6063 52.5314 12.8373 52.6271C13.0739 52.719 13.1987 52.9759 13.385 53.3885C13.4949 53.6342 13.6086 53.8874 13.7706 54.1125C14.119 54.6339 14.5568 54.6208 14.7263 54.5908C15.423 54.4707 15.7005 53.5817 15.7695 53.3135C15.8458 53.0116 15.8831 52.8746 16.4718 53.0078C16.7512 53.0941 17.053 53.2047 17.3752 53.336C18.0272 53.6024 18.7165 53.8612 19.3536 53.8612H21.9299C22.2447 53.8612 22.4999 53.6042 22.4999 53.2873C22.4999 52.9703 22.2447 52.7096 21.9299 52.7096Z" fill="#0E80E1"/>
</g>
<defs>
<clipPath id="clip0_1880_275685">
<rect x="0.588867" y="0.090332" width="42.7119" height="60" rx="2" fill="white"/>
</clipPath>
</defs>
</svg>
