<svg width="44" height="61" viewBox="0 0 44 61" fill="none" xmlns="http://www.w3.org/2000/svg">
<g clip-path="url(#clip0_1880_275656)">
<path d="M43.1308 60.2271H0.418945V0.227051H43.1308V60.2271ZM1.49821 57.4498C1.49821 58.3859 2.25705 59.1448 3.19312 59.1448H40.3566C41.2927 59.1448 42.0515 58.3859 42.0515 57.4498V3.00427C42.0515 2.06819 41.2927 1.30935 40.3566 1.30935H3.19312C2.25705 1.30935 1.49821 2.06819 1.49821 3.00427V57.4498Z" fill="#0E80E1"/>
<path d="M34.6367 18.2124H5.58705C5.28818 18.2124 5.0459 18.4547 5.0459 18.7536C5.0459 19.0524 5.28818 19.2947 5.58705 19.2947H34.6367C34.9356 19.2947 35.1779 19.0524 35.1779 18.7536C35.1779 18.4547 34.9356 18.2124 34.6367 18.2124Z" fill="#0E80E1"/>
<path d="M35.8066 23.916H5.58705C5.28818 23.916 5.0459 24.1583 5.0459 24.4572C5.0459 24.756 5.28818 24.9983 5.58705 24.9983H35.8066C36.1055 24.9983 36.3478 24.756 36.3478 24.4572C36.3478 24.1583 36.1055 23.916 35.8066 23.916Z" fill="#0E80E1"/>
<path d="M38.0199 29.6201H5.58705C5.28818 29.6201 5.0459 29.8624 5.0459 30.1613C5.0459 30.4601 5.28818 30.7024 5.58705 30.7024H38.0199C38.3187 30.7024 38.561 30.4601 38.561 30.1613C38.561 29.8624 38.3187 29.6201 38.0199 29.6201Z" fill="#0E80E1"/>
<path d="M25.4964 35.3242H5.58705C5.28818 35.3242 5.0459 35.5665 5.0459 35.8654C5.0459 36.1642 5.28818 36.4065 5.58705 36.4065H25.4964C25.7953 36.4065 26.0376 36.1642 26.0376 35.8654C26.0376 35.5665 25.7953 35.3242 25.4964 35.3242Z" fill="#0E80E1"/>
<path d="M25.4964 41.0283H5.58705C5.28818 41.0283 5.0459 41.2706 5.0459 41.5695C5.0459 41.8683 5.28818 42.1106 5.58705 42.1106H25.4964C25.7953 42.1106 26.0376 41.8683 26.0376 41.5695C26.0376 41.2706 25.7953 41.0283 25.4964 41.0283Z" fill="#0E80E1"/>
<path d="M25.4964 46.7324H5.58705C5.28818 46.7324 5.0459 46.9747 5.0459 47.2736C5.0459 47.5724 5.28818 47.8147 5.58705 47.8147H25.4964C25.7953 47.8147 26.0376 47.5724 26.0376 47.2736C26.0376 46.9747 25.7953 46.7324 25.4964 46.7324Z" fill="#0E80E1"/>
<path d="M25.4964 52.4365H5.58705C5.28818 52.4365 5.0459 52.6788 5.0459 52.9777C5.0459 53.2765 5.28818 53.5188 5.58705 53.5188H25.4964C25.7953 53.5188 26.0376 53.2765 26.0376 52.9777C26.0376 52.6788 25.7953 52.4365 25.4964 52.4365Z" fill="#0E80E1"/>
<path d="M34.8392 7.40958C34.7239 7.30326 34.6161 7.20253 34.4952 7.09061C34.458 7.12605 34.4041 7.17455 34.352 7.22491C33.876 7.70244 33.4 8.17996 32.9221 8.65562C32.7603 8.8179 32.7212 8.81604 32.5595 8.65562C31.9403 8.03633 31.321 7.41518 30.7018 6.79402C30.5289 6.62055 30.5308 6.57765 30.7074 6.40044C31.163 5.94157 31.6204 5.4827 32.0797 5.0257C32.1411 4.96414 32.2192 4.91937 32.3066 4.85595C32.1522 4.72351 32.0425 4.62838 31.9142 4.51833C31.8901 4.54071 31.8361 4.58735 31.7859 4.63771C31.3136 5.10964 30.8431 5.58343 30.3708 6.05536C30.1886 6.23629 30.1589 6.23629 29.9803 6.06468C29.7256 5.81846 29.5229 5.82219 29.2681 6.07774C28.7717 6.57392 28.277 7.07009 27.7824 7.56813C26.8341 8.52505 26.6779 9.91471 27.3863 11.0638C27.5277 11.2951 27.5277 11.2932 27.364 11.5002C26.7913 12.2221 26.4993 13.0466 26.4733 13.9681C26.4715 14.0278 26.4733 14.0893 26.4733 14.1677C26.3729 14.1677 26.2836 14.1677 26.1721 14.1677C26.1628 13.0914 26.477 12.127 27.152 11.282C27.0684 11.116 26.981 10.9574 26.9084 10.7933C26.4008 9.64797 26.6518 8.28255 27.5277 7.39466C28.0297 6.88543 28.5355 6.38179 29.0413 5.87628C29.4151 5.50135 29.6958 5.47897 30.1272 5.79048C30.1384 5.79794 30.1514 5.80167 30.1774 5.81473C30.2221 5.77556 30.2723 5.73265 30.3188 5.68602C30.7613 5.24207 31.202 4.79626 31.6446 4.35045C31.6818 4.31128 31.719 4.27211 31.7617 4.23853C31.8975 4.13221 32.0146 4.13594 32.1411 4.25532C32.2582 4.36724 32.3717 4.48289 32.4832 4.59854C32.6339 4.75522 32.6376 4.8802 32.4851 5.03689C32.1801 5.35026 31.8696 5.66177 31.5572 5.96955C31.3508 6.17287 31.1388 6.36687 30.9361 6.55899C31.5591 7.18388 32.1522 7.77705 32.7622 8.38701C32.8198 8.33105 32.8849 8.26763 32.95 8.20234C33.3739 7.77705 33.7979 7.35176 34.2219 6.92646C34.2553 6.89289 34.287 6.85931 34.3241 6.8276C34.4636 6.71009 34.5863 6.71382 34.7184 6.83879C34.8262 6.94139 34.9285 7.04957 35.0326 7.15403C35.2167 7.34056 35.2186 7.45808 35.0289 7.65021C34.7927 7.89084 34.5529 8.12773 34.3148 8.36649C34.0675 8.61458 33.8202 8.86454 33.5748 9.11262C33.5617 9.12755 33.5506 9.14433 33.5283 9.17418C33.5543 9.22081 33.5841 9.27118 33.612 9.32341C33.7719 9.62559 33.7365 9.91471 33.4967 10.1591C32.9425 10.7205 32.394 11.2876 31.825 11.8341C30.858 12.7612 29.3723 12.9272 28.212 12.2594C28.1655 12.2333 28.119 12.2053 28.0558 12.1662C27.8289 12.4236 27.6801 12.722 27.5927 13.0485C27.5091 13.3656 27.457 13.692 27.3882 14.0296C27.325 14.0296 27.2394 14.0296 27.126 14.0296C27.1372 13.8879 27.1427 13.7498 27.1613 13.6137C27.2301 13.0783 27.3938 12.5747 27.7043 12.127C27.7582 12.0505 27.8177 11.9759 27.8828 11.9069C27.9962 11.7856 28.0372 11.78 28.1766 11.877C28.4853 12.0934 28.8219 12.2352 29.1919 12.3061C30.0993 12.4777 30.912 12.2688 31.5888 11.642C32.1671 11.1067 32.712 10.534 33.2661 9.97254C33.4632 9.77295 33.4595 9.58082 33.2735 9.36258C33.1043 9.16485 33.1043 9.15739 33.2884 8.97086C33.7589 8.49707 34.2312 8.02514 34.7016 7.55321C34.7481 7.50844 34.7909 7.45995 34.8392 7.40958Z" fill="#0E80E1" stroke="#0E80E1" stroke-width="0.5"/>
<path d="M29.1309 9.45403C28.9952 9.27496 28.8743 9.122 28.7609 8.96532C28.6307 8.78625 28.6809 8.67619 28.9003 8.65754C29.778 8.58479 30.6576 8.51577 31.5352 8.44489C31.6022 8.4393 31.6691 8.4337 31.7361 8.42437C31.8253 8.41318 31.9183 8.40759 31.9629 8.50645C32.0113 8.61464 31.9425 8.67992 31.8569 8.73775C31.578 8.92428 31.2991 9.11641 31.022 9.30481C30.983 9.33092 30.9476 9.36077 30.89 9.40553C30.9383 9.46709 30.9811 9.52305 31.0276 9.57714C31.1652 9.73569 31.3028 9.89052 31.4404 10.0491C31.4943 10.1106 31.5631 10.1815 31.4999 10.2617C31.4609 10.3102 31.379 10.3438 31.314 10.3494C31.1131 10.3699 30.9105 10.3736 30.7096 10.383C29.7222 10.4221 28.733 10.4594 27.7456 10.4967C27.7381 10.4967 27.7326 10.4986 27.7251 10.4986C27.6247 10.5061 27.528 10.4967 27.5001 10.3792C27.4741 10.271 27.5541 10.2244 27.6359 10.1852C27.8534 10.0789 28.071 9.97259 28.2886 9.86627C28.56 9.73383 28.8297 9.60139 29.1309 9.45403ZM29.1253 8.94107C29.2481 9.10335 29.3448 9.23019 29.4396 9.3589C29.5512 9.51372 29.5344 9.58647 29.3615 9.67414C29.1941 9.75994 29.0231 9.84015 28.8538 9.92409C28.7255 9.98751 28.5972 10.0547 28.4689 10.12C28.4726 10.1349 28.4782 10.1517 28.4819 10.1666C29.3224 10.133 30.1611 10.0994 31.0462 10.0659C30.903 9.89984 30.7933 9.7674 30.6799 9.63683C30.4363 9.35517 30.4363 9.34584 30.7431 9.13506C30.9012 9.02687 31.0592 8.91682 31.2173 8.80863C31.2117 8.79557 31.2061 8.78438 31.1987 8.77132C30.5218 8.82728 29.8468 8.88324 29.1253 8.94107Z" fill="#0E80E1" stroke="#0E80E1" stroke-width="0.5"/>
<path d="M32.5609 7.56616C32.4605 7.46357 32.4047 7.40761 32.3378 7.34046C32.3843 7.28823 32.4215 7.24346 32.4624 7.20243C32.7989 6.86294 33.1374 6.52531 33.4739 6.18582C33.6487 6.01048 33.6711 5.85753 33.5465 5.73255C33.42 5.60571 33.2787 5.62809 33.0965 5.81089C32.7673 6.13919 32.4401 6.46935 32.1109 6.79765C32.0644 6.84428 32.0142 6.88905 31.9566 6.94501C31.8897 6.88159 31.8283 6.82376 31.7539 6.75475C31.7892 6.70998 31.8171 6.66708 31.8525 6.63164C32.2076 6.27349 32.5647 5.91535 32.9217 5.55721C33.0239 5.45462 33.1374 5.37814 33.288 5.36322C33.5372 5.33897 33.751 5.44716 33.8607 5.65794C33.9686 5.86685 33.9388 6.1336 33.7659 6.31453C33.4851 6.60552 33.1932 6.88532 32.9105 7.17445C32.7971 7.2901 32.6892 7.42067 32.5609 7.56616Z" fill="#0E80E1" stroke="#0E80E1" stroke-width="0.5"/>
<path d="M18.976 9.48073C18.976 10.7959 18.976 12.064 18.976 13.3402C19.0471 13.3546 19.1071 13.3669 19.1738 13.3813C19.1738 13.4736 19.1738 13.5618 19.1738 13.6665C16.1907 13.6665 13.212 13.6665 10.22 13.6665C10.22 13.5721 10.22 13.4859 10.22 13.3854C10.2823 13.371 10.349 13.3566 10.4246 13.3382C10.4246 12.0619 10.4246 10.7939 10.4246 9.48483C10.269 9.58127 10.1356 9.66539 10.0022 9.74952C9.63765 9.98548 9.63765 9.98548 9.39091 9.65308C9.19086 9.38429 8.98857 9.1155 8.79074 8.84466C8.6507 8.6559 8.66181 8.59639 8.86631 8.46097C9.43537 8.08344 10.0022 7.7059 10.5779 7.33657C10.7046 7.2545 10.7535 7.16832 10.7513 7.02469C10.7424 6.57945 10.7469 6.1342 10.7491 5.6869C10.7491 5.43042 10.7913 5.39349 11.0736 5.39144C11.5716 5.38939 12.0717 5.38939 12.5696 5.38939C12.8564 5.38939 12.8764 5.40991 12.8964 5.6828C12.8986 5.70537 12.9053 5.72589 12.9186 5.78129C13.0009 5.73204 13.0698 5.69511 13.1365 5.64997C13.5833 5.35861 14.0278 5.0652 14.4746 4.77384C14.6969 4.62816 14.7014 4.62816 14.9192 4.76974C16.5397 5.83053 18.1602 6.89338 19.7784 7.95622C20.0274 8.12037 20.2786 8.28246 20.5253 8.44661C20.732 8.58408 20.7432 8.63948 20.6053 8.8303C20.3808 9.13807 20.1563 9.44585 19.9296 9.75157C19.7784 9.9547 19.7295 9.96086 19.505 9.81518C19.3383 9.71464 19.176 9.60999 18.976 9.48073ZM14.6969 6.66768C13.4232 7.50482 12.1717 8.3276 10.9158 9.14423C10.7958 9.2222 10.7847 9.31658 10.7869 9.43149C10.7891 10.6646 10.7869 11.8978 10.7891 13.1309C10.7891 13.2027 10.798 13.2746 10.8024 13.3464C13.4143 13.3464 15.9995 13.3464 18.5981 13.3464C18.6025 13.2746 18.6114 13.2171 18.6114 13.1576C18.6114 11.9101 18.6092 10.6626 18.6159 9.41302C18.6159 9.2776 18.567 9.19963 18.4491 9.12166C17.5422 8.53279 16.6375 7.9357 15.7328 7.34273C15.3905 7.12113 15.0504 6.89953 14.6969 6.66768ZM9.72879 9.51971C9.83327 9.452 9.91329 9.40276 9.99109 9.35146C11.4715 8.3789 12.9542 7.40839 14.4346 6.43582C14.6969 6.26347 14.7014 6.26347 14.9592 6.43377C16.4597 7.41864 17.9601 8.40557 19.4606 9.39045C19.5228 9.43149 19.5917 9.46637 19.6717 9.51356C19.874 9.23656 20.0674 8.97393 20.2675 8.70104C20.183 8.64153 20.1163 8.59229 20.0452 8.5451C19.5272 8.20449 19.0093 7.86594 18.4914 7.52739C17.291 6.73949 16.0929 5.95364 14.8925 5.16574C14.6991 5.03853 14.6969 5.03853 14.4991 5.16779C14.3413 5.27038 14.1834 5.37503 14.0278 5.47762C13.6477 5.72794 13.2676 5.97621 12.8875 6.22653C12.8053 6.28193 12.7074 6.33528 12.6252 6.26757C12.5696 6.22243 12.5474 6.1301 12.5363 6.05623C12.5207 5.95774 12.5318 5.85515 12.5318 5.74846C12.0428 5.74846 11.5893 5.74846 11.1203 5.74846C11.1159 5.83463 11.1092 5.90645 11.1092 5.98031C11.1092 6.37426 11.1003 6.76822 11.1114 7.16011C11.1159 7.32836 11.0536 7.43506 10.9069 7.52944C10.3601 7.88236 9.81771 8.24348 9.27532 8.6005C9.22642 8.63333 9.18196 8.67436 9.12861 8.71745C9.3309 8.98419 9.51984 9.23861 9.72879 9.51971Z" fill="#0E80E1" stroke="#0E80E1" stroke-width="0.5"/>
<path d="M14.6967 12.616C13.8075 12.6181 13.0873 12.1503 12.8806 11.4116C12.6983 10.755 12.9117 10.1805 13.3563 9.66549C13.5674 9.42132 13.792 9.18741 13.9898 8.93504C14.1209 8.76884 14.2187 8.58007 14.3188 8.39541C14.3855 8.2723 14.4788 8.18817 14.63 8.17997C14.7789 8.17176 14.9078 8.22921 14.9634 8.35642C15.1479 8.78115 15.4813 9.10534 15.8014 9.43774C16.0326 9.6778 16.2505 9.92197 16.3927 10.2174C16.7995 11.0648 16.4972 11.9841 15.6703 12.4026C15.3835 12.5483 15.079 12.614 14.6967 12.616ZM14.6567 8.56571C14.3699 9.09508 13.9742 9.50545 13.5941 9.92607C13.5274 9.99994 13.4696 10.082 13.4185 10.1661C12.8317 11.1141 13.3452 12.1482 14.4877 12.2795C15.5258 12.3985 16.366 11.7255 16.1904 10.7201C16.126 10.3487 15.9148 10.0451 15.6436 9.77013C15.2835 9.40901 14.9323 9.04173 14.6567 8.56571Z" fill="#0E80E1" stroke="#0E80E1" stroke-width="0.5"/>
<path d="M14.7346 12.0127C14.2612 11.9757 13.8855 11.8095 13.6321 11.4443C13.5987 11.3951 13.5521 11.3376 13.5543 11.2863C13.5565 11.2227 13.5898 11.1304 13.641 11.1058C13.6921 11.0811 13.7832 11.1222 13.8521 11.1447C13.8766 11.153 13.8877 11.1919 13.9055 11.2166C14.0811 11.5059 14.3567 11.6474 14.7057 11.6762C14.7213 11.6782 14.7369 11.6782 14.7546 11.6782C14.8769 11.6844 14.9814 11.7151 14.9858 11.8506C14.9836 11.9573 14.8791 12.0188 14.7346 12.0127Z" fill="#0E80E1" stroke="#0E80E1" stroke-width="0.5"/>
</g>
<defs>
<clipPath id="clip0_1880_275656">
<rect x="0.418945" y="0.227051" width="42.7119" height="60" rx="2" fill="white"/>
</clipPath>
</defs>
</svg>
