<svg width="44" height="61" viewBox="0 0 44 61" fill="none" xmlns="http://www.w3.org/2000/svg">
<g clip-path="url(#clip0_1880_275631)">
<path d="M43.2158 60.9126H0.503906V0.912598H43.2158V60.9126ZM1.58317 58.1354C1.58317 59.0715 2.34201 59.8303 3.27809 59.8303H40.4416C41.3777 59.8303 42.1365 59.0715 42.1365 58.1354V3.68981C42.1365 2.75374 41.3777 1.9949 40.4416 1.9949H3.27809C2.34201 1.9949 1.58317 2.75374 1.58317 3.68981V58.1354Z" fill="#0E80E1"/>
<path d="M30.3993 55.4336C26.6488 55.4336 23.5864 52.3761 23.5864 48.6015C23.5864 44.8406 26.6353 41.7695 30.3993 41.7695C34.1497 41.7695 37.2121 44.827 37.2121 48.6015C37.2121 52.3761 34.1632 55.4336 30.3993 55.4336ZM30.3993 42.8654C27.2424 42.8654 24.6657 45.4494 24.6657 48.6151C24.6657 51.7808 27.2424 54.3648 30.3993 54.3648C33.5561 54.3648 36.1329 51.7808 36.1329 48.6151C36.1329 45.4358 33.5561 42.8654 30.3993 42.8654Z" fill="#0E80E1"/>
<path d="M19.4705 41.7827H7.04848C6.74961 41.7827 6.50732 42.025 6.50732 42.3239C6.50732 42.6227 6.74961 42.865 7.04848 42.865H19.4705C19.7693 42.865 20.0116 42.6227 20.0116 42.3239C20.0116 42.025 19.7693 41.7827 19.4705 41.7827Z" fill="#0E80E1"/>
<path d="M16.9612 48.0669H7.04847C6.7496 48.0669 6.50732 48.3092 6.50732 48.608C6.50732 48.9069 6.7496 49.1492 7.04847 49.1492H16.9612C17.26 49.1492 17.5023 48.9069 17.5023 48.608C17.5023 48.3092 17.26 48.0669 16.9612 48.0669Z" fill="#0E80E1"/>
<path d="M34.7558 16.0781H10.1246C9.82578 16.0781 9.5835 16.3204 9.5835 16.6193C9.5835 16.9181 9.82578 17.1604 10.1246 17.1604H34.7558C35.0547 17.1604 35.297 16.9181 35.297 16.6193C35.297 16.3204 35.0547 16.0781 34.7558 16.0781Z" fill="#0E80E1"/>
<path d="M35.2546 21.6387H9.62513C9.32627 21.6387 9.08398 21.881 9.08398 22.1798C9.08398 22.4787 9.32626 22.721 9.62513 22.721H35.2546C35.5535 22.721 35.7958 22.4787 35.7958 22.1798C35.7958 21.881 35.5535 21.6387 35.2546 21.6387Z" fill="#0E80E1"/>
<path d="M36.199 27.1992H8.6808C8.38193 27.1992 8.13965 27.4415 8.13965 27.7404C8.13965 28.0392 8.38193 28.2815 8.6808 28.2815H36.199C36.4979 28.2815 36.7401 28.0392 36.7401 27.7404C36.7401 27.4415 36.4979 27.1992 36.199 27.1992Z" fill="#0E80E1"/>
<path d="M32.3949 32.7593H12.4855C12.1866 32.7593 11.9443 33.0016 11.9443 33.3004C11.9443 33.5993 12.1866 33.8416 12.4855 33.8416H32.3949C32.6937 33.8416 32.936 33.5993 32.936 33.3004C32.936 33.0016 32.6937 32.7593 32.3949 32.7593Z" fill="#0E80E1"/>
<path d="M14.4924 54.3511H7.04847C6.7496 54.3511 6.50732 54.5934 6.50732 54.8922C6.50732 55.1911 6.74961 55.4334 7.04847 55.4334H14.4924C14.7912 55.4334 15.0335 55.1911 15.0335 54.8922C15.0335 54.5934 14.7912 54.3511 14.4924 54.3511Z" fill="#0E80E1"/>
<path d="M29.7923 45.9771V44.9624H31.0874V45.95C31.5461 45.9906 31.9913 46.0853 32.4095 46.2341V47.357C31.8159 47.1135 31.1818 47.0052 30.4803 47.0052C29.7518 47.0052 29.3876 47.1946 29.3876 47.5599C29.3876 47.9117 29.6034 48.0875 30.0216 48.0875H30.885C32.0722 48.0875 32.6658 48.6152 32.6658 49.6839C32.6658 50.6174 32.1397 51.1586 31.0874 51.3209V52.2273H29.7923V51.3344C29.2931 51.2939 28.8344 51.1992 28.4027 51.0503V49.9275C28.9963 50.171 29.6709 50.2792 30.4533 50.2792C31.0334 50.2792 31.3168 50.0898 31.3168 49.7245C31.3168 49.3728 31.1279 49.1969 30.7367 49.1969H29.7788C28.6995 49.1969 28.1599 48.6693 28.1599 47.6005C28.1464 46.6806 28.6995 46.1394 29.7923 45.9771Z" fill="#0E80E1"/>
<path d="M25.6169 8.76681C25.8462 8.76681 26.0486 8.57741 26.0486 8.34742V8.22566H26.5882V7.58981L21.8529 4.58643L17.1177 7.58981V8.22566H17.6573V8.34742C17.6573 8.57741 17.8327 8.76681 18.062 8.76681H18.4533V12.1761H18.062C17.8327 12.1761 17.6573 12.3655 17.6573 12.5954V12.7713H17.5224C17.2931 12.7713 17.1177 12.9607 17.1177 13.1907V13.8536H26.6017V13.1907C26.6017 12.9607 26.3993 12.7713 26.17 12.7713H26.0621V12.5954C26.0621 12.3655 25.8597 12.1761 25.6304 12.1761H25.3201V8.76681H25.6169ZM17.6438 7.87391H17.4549V7.77921L21.8529 4.99229L26.2509 7.77921V7.87391H26.0351H17.6438ZM26.17 13.1231C26.2105 13.1231 26.2644 13.1501 26.2644 13.1907V13.5154H17.4819V13.1907C17.4819 13.1501 17.4954 13.1231 17.5359 13.1231H26.17ZM25.6169 12.5278C25.6574 12.5278 25.7113 12.5549 25.7113 12.5954V12.7307H18.0081V12.5954C18.0081 12.5549 18.0216 12.5278 18.062 12.5278H18.4263H20.0991H21.0435H22.6759H23.6607H25.2931H25.6169ZM18.804 12.1761V8.8074H19.7889V12.1761H18.804ZM20.1261 12.1761V8.76681H21.0705V12.1761H20.1261ZM21.4212 12.1761V8.8074H22.3656V12.1761H21.4212ZM22.7029 12.1761V8.76681H23.6877V12.1761H22.7029ZM24.025 12.1761V8.8074H24.9693V12.1761H24.025ZM18.062 8.41506C18.0216 8.41506 18.0081 8.388 18.0081 8.34742V8.22566H25.7113V8.34742C25.7113 8.388 25.6574 8.41506 25.6169 8.41506H18.062ZM21.8934 5.62814C21.3943 5.62814 20.9895 6.034 20.9895 6.53457C20.9895 7.03513 21.3943 7.44099 21.8934 7.44099C22.3926 7.44099 22.7973 7.03513 22.7973 6.53457C22.7973 6.034 22.3926 5.62814 21.8934 5.62814ZM21.8934 7.08924C21.5831 7.08924 21.3403 6.8322 21.3403 6.53457C21.3403 6.2234 21.5966 5.97989 21.8934 5.97989C22.2037 5.97989 22.4465 6.23693 22.4465 6.53457C22.4465 6.8322 22.2037 7.08924 21.8934 7.08924Z" fill="#0E80E1"/>
<path fill-rule="evenodd" clip-rule="evenodd" d="M21.8532 4.48633L26.6732 7.54346V8.31066H26.1336V8.34767C26.1336 8.62768 25.89 8.85181 25.6172 8.85181H25.4051V12.0916H25.6306C25.9035 12.0916 26.1471 12.3157 26.1471 12.5957V12.6868H26.1703C26.4431 12.6868 26.6867 12.911 26.6867 13.191V13.9386H17.0332V13.191C17.0332 12.9181 17.2427 12.6868 17.5227 12.6868H17.5728V12.5957C17.5728 12.3228 17.7823 12.0916 18.0623 12.0916H18.3688V8.85181H18.0623C17.7823 8.85181 17.5728 8.62057 17.5728 8.34767V8.31066H17.0332V7.54346L21.8532 4.48633ZM17.2027 7.63667V8.14117H17.7423V8.34767C17.7423 8.53476 17.8836 8.68232 18.0623 8.68232H18.5383V12.2611H18.0623C17.8836 12.2611 17.7423 12.4086 17.7423 12.5957V12.8563H17.5227C17.3439 12.8563 17.2027 13.0039 17.2027 13.191V13.7691H26.5172V13.191C26.5172 13.011 26.3561 12.8563 26.1703 12.8563H25.9776V12.5957C25.9776 12.4157 25.8165 12.2611 25.6306 12.2611H25.2356V8.68232H25.6172C25.803 8.68232 25.9641 8.52764 25.9641 8.34767V8.14117H26.5037V7.63667L21.8532 4.68704L17.2027 7.63667ZM21.8532 4.89222L26.336 7.73284V7.95891H17.3705V7.73284L21.8532 4.89222ZM17.5978 7.78942H26.1086L21.8532 5.09287L17.5978 7.78942ZM20.9051 6.53482C20.9051 5.98768 21.3475 5.54365 21.8937 5.54365C22.4399 5.54365 22.8823 5.98768 22.8823 6.53482C22.8823 7.08197 22.4399 7.52599 21.8937 7.52599C21.3475 7.52599 20.9051 7.08197 20.9051 6.53482ZM21.8937 5.71314C21.4416 5.71314 21.0746 6.08084 21.0746 6.53482C21.0746 6.98881 21.4416 7.3565 21.8937 7.3565C22.3458 7.3565 22.7128 6.98881 22.7128 6.53482C22.7128 6.08084 22.3458 5.71314 21.8937 5.71314ZM21.8937 6.06489C21.6426 6.06489 21.4253 6.27158 21.4253 6.53482C21.4253 6.78723 21.6318 7.00476 21.8937 7.00476C22.1556 7.00476 22.3621 6.78723 22.3621 6.53482C22.3621 6.28242 22.1556 6.06489 21.8937 6.06489ZM21.2558 6.53482C21.2558 6.17574 21.5512 5.8954 21.8937 5.8954C22.2523 5.8954 22.5316 6.19196 22.5316 6.53482C22.5316 6.87768 22.2523 7.17425 21.8937 7.17425C21.535 7.17425 21.2558 6.87768 21.2558 6.53482ZM17.9236 8.14117H25.7963V8.34767C25.7963 8.40889 25.7559 8.44854 25.7251 8.46816C25.6933 8.4885 25.6539 8.50006 25.6172 8.50006H18.0623C18.0211 8.50006 17.9788 8.4848 17.9511 8.44588C17.9275 8.4127 17.9236 8.37444 17.9236 8.34767V8.14117ZM18.0931 8.31066V8.33057H25.6172C25.6182 8.33057 25.6211 8.33033 25.625 8.32917C25.6256 8.32899 25.6263 8.32879 25.6268 8.32859V8.31066H18.0931ZM20.0417 8.68232H21.1555V12.2611H20.0417V8.68232ZM20.2111 8.85181V12.0916H20.986V8.85181H20.2111ZM22.6184 8.68232H23.7727V12.2611H22.6184V8.68232ZM22.7879 8.85181V12.0916H23.6032V8.85181H22.7879ZM18.7196 8.72291H19.8739V12.2611H18.7196V8.72291ZM18.889 8.8924V12.0916H19.7044V8.8924H18.889ZM21.3368 8.72291H22.4506V12.2611H21.3368V8.72291ZM21.5063 8.8924V12.0916H22.2811V8.8924H21.5063ZM23.9405 8.72291H25.0543V12.2611H23.9405V8.72291ZM24.11 8.8924V12.0916H24.8849V8.8924H24.11ZM18.0931 12.6128V12.6462H25.6268V12.6148C25.6263 12.6146 25.6256 12.6144 25.625 12.6142C25.6211 12.613 25.6182 12.6128 25.6172 12.6128H18.0931ZM17.9511 12.4975C17.9788 12.4586 18.0211 12.4433 18.0623 12.4433H25.6172C25.6539 12.4433 25.6933 12.4549 25.7251 12.4752C25.7559 12.4948 25.7963 12.5345 25.7963 12.5957V12.8157H17.9236V12.5957C17.9236 12.5689 17.9275 12.5307 17.9511 12.4975ZM17.5669 13.2081V13.4309H26.18V13.2101C26.1794 13.2099 26.1788 13.2097 26.1781 13.2095C26.1742 13.2083 26.1713 13.2081 26.1703 13.2081H17.5669ZM17.425 13.0928C17.4527 13.0538 17.4949 13.0386 17.5362 13.0386H26.1703C26.207 13.0386 26.2464 13.0501 26.2783 13.0705C26.309 13.0901 26.3495 13.1298 26.3495 13.191V13.6004H17.3975V13.191C17.3975 13.1642 17.4013 13.1259 17.425 13.0928Z" fill="#0E80E1"/>
</g>
<defs>
<clipPath id="clip0_1880_275631">
<rect x="0.503906" y="0.912598" width="42.7119" height="60" rx="2" fill="white"/>
</clipPath>
</defs>
</svg>
