<svg width="49" height="61" viewBox="0 0 49 61" fill="none" xmlns="http://www.w3.org/2000/svg">
<path d="M7.67223 27.191C8.15591 27.4572 8.73236 27.6169 9.40156 27.6834V28.6681C9.40156 28.7745 9.43469 28.8544 9.50095 28.9143C9.5672 28.9741 9.64671 29.0074 9.73947 29.0074H10.6075C10.7135 29.0074 10.793 28.9741 10.8526 28.9143C10.9122 28.8544 10.9454 28.7679 10.9454 28.6681V27.6834C11.9392 27.5769 12.7211 27.2775 13.3108 26.7652C13.8938 26.2596 14.1854 25.5942 14.1854 24.7825C14.1854 24.2303 14.0661 23.7712 13.8342 23.4186C13.6023 23.0593 13.2379 22.7665 12.7476 22.5337C12.2573 22.3008 11.5947 22.0879 10.7598 21.9016C10.1635 21.7486 9.69972 21.6088 9.37506 21.4758C9.05039 21.3427 8.81849 21.1963 8.67272 21.0233C8.52696 20.857 8.45407 20.6441 8.45407 20.3913C8.45407 20.0187 8.59984 19.7326 8.898 19.533C9.18953 19.3334 9.59371 19.2402 10.1105 19.2402C10.5809 19.2402 10.9652 19.34 11.2833 19.5463C11.5947 19.7459 11.7802 19.9987 11.8398 20.2981C11.9127 20.4645 12.0519 20.551 12.244 20.551H13.5758C13.6619 20.551 13.7282 20.5243 13.7878 20.4645C13.8408 20.4112 13.874 20.338 13.874 20.2516C13.8541 19.9056 13.7282 19.5463 13.5029 19.1804C13.271 18.8144 12.9397 18.4951 12.509 18.2156C12.0717 17.9362 11.5549 17.7565 10.9454 17.6767V16.6787C10.9454 16.5722 10.9122 16.4924 10.8526 16.4325C10.793 16.3726 10.7068 16.3394 10.6075 16.3394H9.73947C9.64671 16.3394 9.5672 16.3726 9.50095 16.4325C9.43469 16.4924 9.40156 16.5789 9.40156 16.6787V17.6501C8.4872 17.7632 7.76499 18.0759 7.23493 18.5815C6.70487 19.0872 6.43984 19.706 6.43984 20.4378C6.43984 21.2429 6.69824 21.8683 7.20843 22.2941C7.72524 22.7266 8.53358 23.0726 9.63346 23.3387C10.296 23.5184 10.7996 23.6714 11.1441 23.7978C11.4887 23.9242 11.7405 24.0706 11.9061 24.2436C12.0717 24.4099 12.1579 24.6228 12.1579 24.8757C12.1579 25.2616 11.9922 25.561 11.661 25.7872C11.3297 26.0067 10.8394 26.1198 10.1967 26.1198C9.61358 26.1198 9.16303 26.0134 8.83174 25.7938C8.50045 25.5809 8.2818 25.3081 8.18242 24.9888C8.12941 24.8956 8.06978 24.8291 8.01015 24.7825C7.95051 24.7426 7.86438 24.716 7.75174 24.716H6.48622C6.40008 24.716 6.3272 24.7492 6.26757 24.8091C6.20793 24.869 6.1748 24.9355 6.1748 25.0154C6.19468 25.4479 6.3272 25.8537 6.57235 26.233C6.82413 26.6122 7.18855 26.9316 7.67223 27.191Z" fill="#0E80E1"/>
<path d="M21.4207 23.1255H17.3193V29.027H21.4207V23.1255Z" fill="#0E80E1"/>
<path d="M27.6092 20.0518H23.5078V29.0272H27.6092V20.0518Z" fill="#0E80E1"/>
<path d="M33.7908 15.1348H29.6895V29.027H33.7908V15.1348Z" fill="#0E80E1"/>
<path d="M6.18098 38.5551H33.7906C34.1948 38.5551 34.5194 38.229 34.5194 37.8232C34.5194 37.4173 34.1948 37.0913 33.7906 37.0913H6.18098C5.77681 37.0913 5.45215 37.4173 5.45215 37.8232C5.45215 38.229 5.77681 38.5551 6.18098 38.5551Z" fill="#0E80E1"/>
<path d="M6.18098 45.0682H33.7906C34.1948 45.0682 34.5194 44.7422 34.5194 44.3364C34.5194 43.9305 34.1948 43.6045 33.7906 43.6045H6.18098C5.77681 43.6045 5.45215 43.9305 5.45215 44.3364C5.45215 44.7422 5.77681 45.0682 6.18098 45.0682Z" fill="#0E80E1"/>
<path d="M6.18098 51.5819H19.7108C20.115 51.5819 20.4397 51.2559 20.4397 50.85C20.4397 50.4442 20.115 50.1182 19.7108 50.1182H6.18098C5.77681 50.1182 5.45215 50.4442 5.45215 50.85C5.45215 51.2559 5.77681 51.5819 6.18098 51.5819Z" fill="#0E80E1"/>
<path d="M47.1683 7.90283L12.4757 1.01657C11.7535 0.870196 11.0445 1.34924 10.8987 2.07446L9.80549 7.64335H2.08645C1.35099 7.64335 0.748047 8.24215 0.748047 8.98733V59.6463C0.748047 60.3914 1.35099 60.9902 2.08645 60.9902H37.4549C38.197 60.9902 38.7933 60.3848 38.7933 59.6463V57.3841L48.2218 9.48634C48.3675 8.75446 47.8905 8.04255 47.1683 7.90283ZM37.3356 59.5265H2.20572V9.10709H37.3356V59.5265ZM38.7933 49.8325V8.98733C38.7933 8.24215 38.1903 7.64335 37.4549 7.64335H11.2897L12.3034 2.47366L46.7641 9.31335L38.7933 49.8325Z" fill="#0E80E1"/>
</svg>
