<svg width="47" height="61" viewBox="0 0 47 61" fill="none" xmlns="http://www.w3.org/2000/svg">
<path d="M45.828 60.4153H7.11096C6.58045 60.4153 6.14355 59.9784 6.14355 59.4479V53.6434C6.14355 53.1129 6.58045 52.676 7.11096 52.676C7.64147 52.676 8.07837 53.1129 8.07837 53.6434V58.4805H44.8606V8.15454H40.0236C39.4931 8.15454 39.0562 7.71765 39.0562 7.18713C39.0562 6.65662 39.4931 6.21973 40.0236 6.21973H45.828C46.3585 6.21973 46.7954 6.65662 46.7954 7.18713V59.4479C46.7954 59.9888 46.3585 60.4153 45.828 60.4153Z" fill="#0E80E1"/>
<path d="M40.0129 54.6106H1.30627C0.77576 54.6106 0.338867 54.1737 0.338867 53.6432V12.0343C0.338867 11.7743 0.442889 11.535 0.619727 11.3478L11.2716 0.695899C11.4484 0.519061 11.6981 0.415039 11.9581 0.415039H40.0233C40.5538 0.415039 40.9907 0.851932 40.9907 1.38245V53.6432C40.9803 54.1737 40.5538 54.6106 40.0129 54.6106ZM2.27368 52.6758H39.0455V2.34985H12.3534L2.27368 12.4296V52.6758Z" fill="#0E80E1"/>
<path d="M11.9477 12.9913H1.30627C0.77576 12.9913 0.338867 12.5544 0.338867 12.0239C0.338867 11.4934 0.77576 11.0565 1.30627 11.0565H10.9803V1.38245C10.9803 0.851932 11.4172 0.415039 11.9477 0.415039C12.4783 0.415039 12.9151 0.851932 12.9151 1.38245V12.0239C12.9151 12.5648 12.4887 12.9913 11.9477 12.9913Z" fill="#0E80E1"/>
<path d="M22.5999 16.8713H7.11096C6.58045 16.8713 6.14355 16.4344 6.14355 15.9039C6.14355 15.3734 6.58045 14.9365 7.11096 14.9365H22.5999C23.1304 14.9365 23.5673 15.3734 23.5673 15.9039C23.5673 16.4344 23.1304 16.8713 22.5999 16.8713Z" fill="#0E80E1"/>
<path d="M22.5999 20.741H7.11096C6.58045 20.741 6.14355 20.3041 6.14355 19.7736C6.14355 19.243 6.58045 18.8062 7.11096 18.8062H22.5999C23.1304 18.8062 23.5673 19.243 23.5673 19.7736C23.5673 20.3041 23.1304 20.741 22.5999 20.741Z" fill="#0E80E1"/>
<path d="M30.6189 19.7737H29.6203C28.2888 19.7737 27.0925 18.9623 26.6661 17.7453C26.4892 17.246 26.7493 16.6843 27.2486 16.5074C27.7583 16.3202 28.3096 16.5906 28.4864 17.0899C28.6425 17.5372 29.1002 17.8285 29.6203 17.8285H30.6189C31.4927 17.8285 32.252 17.2252 32.2728 16.5178C32.2832 16.2058 32.1792 15.8937 31.9816 15.6544C31.7735 15.4048 31.4927 15.228 31.1598 15.1447L29.0586 14.6454C27.5294 14.2709 26.458 12.9603 26.458 11.4415C26.458 10.5574 26.8221 9.72518 27.4774 9.09064C28.1224 8.47691 28.9753 8.14404 29.8699 8.14404H31.0558C32.3873 8.14404 33.5835 8.95542 34.01 10.1725C34.1869 10.6718 33.9268 11.2335 33.4275 11.4103C32.9178 11.5872 32.3665 11.3271 32.1896 10.8278C32.0336 10.3805 31.5759 10.0893 31.0558 10.0893H29.8803C29.4747 10.0893 29.1002 10.2349 28.8193 10.5053C28.5489 10.7654 28.4032 11.0983 28.4032 11.4519C28.4032 12.0761 28.8609 12.617 29.5163 12.773L31.6175 13.2723C32.3561 13.4492 33.0114 13.8653 33.4795 14.4374C33.9788 15.0407 34.2389 15.8105 34.2077 16.601C34.1452 18.3486 32.5329 19.7737 30.6189 19.7737Z" fill="#0E80E1"/>
<path d="M30.3385 10.0894C29.808 10.0894 29.3711 9.65246 29.3711 9.12194V7.18713C29.3711 6.65662 29.808 6.21973 30.3385 6.21973C30.869 6.21973 31.3059 6.65662 31.3059 7.18713V9.12194C31.3059 9.66286 30.869 10.0894 30.3385 10.0894Z" fill="#0E80E1"/>
<path d="M30.3385 21.7085C29.808 21.7085 29.3711 21.2716 29.3711 20.7411V18.8063C29.3711 18.2758 29.808 17.8389 30.3385 17.8389C30.869 17.8389 31.3059 18.2758 31.3059 18.8063V20.7411C31.3059 21.2716 30.869 21.7085 30.3385 21.7085Z" fill="#0E80E1"/>
<path d="M32.2739 48.806H9.04577C7.44383 48.806 6.14355 47.5058 6.14355 45.9038V26.5453C6.14355 24.9433 7.44383 23.6431 9.04577 23.6431H32.2739C33.8759 23.6431 35.1761 24.9433 35.1761 26.5453V45.9038C35.1761 47.5058 33.8759 48.806 32.2739 48.806ZM9.04577 25.5779C8.51526 25.5779 8.07837 26.0148 8.07837 26.5453V45.9038C8.07837 46.4343 8.51526 46.8712 9.04577 46.8712H32.2739C32.8044 46.8712 33.2413 46.4343 33.2413 45.9038V26.5453C33.2413 26.0148 32.8044 25.5779 32.2739 25.5779H9.04577Z" fill="#0E80E1"/>
<path d="M34.2087 31.3821H7.11096C6.58045 31.3821 6.14355 30.9452 6.14355 30.4147C6.14355 29.8842 6.58045 29.4473 7.11096 29.4473H34.2087C34.7393 29.4473 35.1761 29.8842 35.1761 30.4147C35.1761 30.9452 34.7497 31.3821 34.2087 31.3821Z" fill="#0E80E1"/>
<path d="M34.2087 37.1868H7.11096C6.58045 37.1868 6.14355 36.7499 6.14355 36.2194C6.14355 35.6888 6.58045 35.252 7.11096 35.252H34.2087C34.7393 35.252 35.1761 35.6888 35.1761 36.2194C35.1761 36.7603 34.7497 37.1868 34.2087 37.1868Z" fill="#0E80E1"/>
<path d="M34.2087 43.0017H7.11096C6.58045 43.0017 6.14355 42.5648 6.14355 42.0343C6.14355 41.5038 6.58045 41.0669 7.11096 41.0669H34.2087C34.7393 41.0669 35.1761 41.5038 35.1761 42.0343C35.1761 42.5648 34.7497 43.0017 34.2087 43.0017Z" fill="#0E80E1"/>
<path d="M12.9147 48.806C12.3842 48.806 11.9473 48.3691 11.9473 47.8386V24.6105C11.9473 24.08 12.3842 23.6431 12.9147 23.6431C13.4452 23.6431 13.8821 24.08 13.8821 24.6105V47.8386C13.8821 48.3691 13.4556 48.806 12.9147 48.806Z" fill="#0E80E1"/>
<path d="M28.4039 48.806C27.8734 48.806 27.4365 48.3691 27.4365 47.8386V24.6105C27.4365 24.08 27.8734 23.6431 28.4039 23.6431C28.9344 23.6431 29.3713 24.08 29.3713 24.6105V47.8386C29.3713 48.3691 28.9344 48.806 28.4039 48.806Z" fill="#0E80E1"/>
</svg>
