<svg width="43" height="36" viewBox="0 0 43 36" fill="none" xmlns="http://www.w3.org/2000/svg">
<path fill-rule="evenodd" clip-rule="evenodd" d="M15.2905 1.44798C15.4933 1.1437 15.8348 0.960938 16.2005 0.960938H27.138C27.5037 0.960938 27.8452 1.1437 28.0481 1.44798L31.3692 6.42969H38.0755C39.3325 6.42969 40.5381 6.92904 41.4269 7.81788C42.3158 8.70672 42.8151 9.91225 42.8151 11.1693V31.2214C42.8151 32.4784 42.3158 33.6839 41.4269 34.5727C40.5381 35.4616 39.3325 35.9609 38.0755 35.9609H5.26302C4.006 35.9609 2.80047 35.4616 1.91163 34.5727C1.02279 33.6839 0.523438 32.4784 0.523438 31.2214V11.1693C0.523438 9.91225 1.02279 8.70672 1.91163 7.81788C2.80047 6.92903 4.00601 6.42969 5.26302 6.42969H11.9693L15.2905 1.44798ZM16.7859 3.14844L13.4647 8.13014C13.2619 8.43442 12.9204 8.61719 12.5547 8.61719H5.26302C4.58617 8.61719 3.93703 8.88607 3.45843 9.36468C2.97982 9.84328 2.71094 10.4924 2.71094 11.1693V31.2214C2.71094 31.8982 2.97982 32.5473 3.45843 33.0259C3.93703 33.5046 4.58617 33.7734 5.26302 33.7734H38.0755C38.7524 33.7734 39.4015 33.5046 39.8801 33.0259C40.3587 32.5473 40.6276 31.8982 40.6276 31.2214V11.1693C40.6276 10.4924 40.3587 9.84328 39.8801 9.36468C39.4015 8.88607 38.7524 8.61719 38.0755 8.61719H30.7839C30.4182 8.61719 30.0766 8.43442 29.8738 8.13014L26.5527 3.14844H16.7859Z" fill="#02194A"/>
<path fill-rule="evenodd" clip-rule="evenodd" d="M21.6706 14.085C18.2476 14.085 15.4727 16.8599 15.4727 20.2829C15.4727 23.7059 18.2476 26.4808 21.6706 26.4808C25.0936 26.4808 27.8685 23.7059 27.8685 20.2829C27.8685 16.8599 25.0936 14.085 21.6706 14.085ZM13.2852 20.2829C13.2852 15.6517 17.0394 11.8975 21.6706 11.8975C26.3017 11.8975 30.056 15.6517 30.056 20.2829C30.056 24.914 26.3017 28.6683 21.6706 28.6683C17.0394 28.6683 13.2852 24.914 13.2852 20.2829Z" fill="#02194A"/>
</svg>
