<svg width="80" height="80" viewBox="0 0 80 80" fill="none" xmlns="http://www.w3.org/2000/svg">
<path d="M78.9503 79.7805C77.0094 79.7805 75.0686 79.7805 72.8533 79.7805C72.7945 78.8282 72.7357 77.8759 72.6768 76.7649C73.6963 76.7649 74.5589 76.7649 75.7155 76.7649C75.9508 74.6222 75.7744 72.5985 75.8528 70.4359C74.8529 70.4359 73.9707 70.4359 72.8925 70.4359C72.8141 71.2494 72.6964 72.2414 72.5788 73.4714C70.5399 73.4714 68.5207 73.4715 66.423 73.4119C66.3642 72.4596 66.3642 71.4676 66.3642 70.4756C65.3055 70.4756 64.3645 70.4756 63.4431 70.4756C63.4431 71.5073 63.4431 72.3803 63.4431 73.3524C64.5017 73.3524 65.5016 73.3524 66.423 73.4119C66.4818 74.4634 66.4818 75.4554 66.4818 76.626C64.2469 76.626 62.2472 76.626 60.1691 76.626C60.1103 74.5626 60.1103 72.4795 60.1103 70.1582C57.9734 70.1582 55.9738 70.1582 53.8565 70.1582C53.8565 68.9876 53.8565 68.1147 53.8565 67.2417C51.798 67.2417 49.8767 67.2417 47.9163 67.2417C47.9163 68.3131 47.9163 69.2852 47.9163 70.2376C48.9553 70.2971 49.8179 70.3367 50.7786 70.3963C50.857 71.4875 50.9354 72.4795 51.0334 73.5706C53.1703 73.5706 55.072 73.5706 57.0128 73.5706C57.1304 74.6817 57.2285 75.6737 57.3265 76.626C58.4439 76.626 59.3654 76.626 60.2083 76.626C60.2672 77.5386 60.2672 78.4711 60.2672 79.6615C58.2871 79.9789 56.2678 79.6813 54.1309 79.8401C54.1309 78.7687 54.1309 77.8759 54.1309 76.7252C52.0136 76.7252 49.9944 76.7252 47.8771 76.7252C47.8183 75.5745 47.7791 74.6817 47.7202 73.6302C44.6815 73.6302 41.6428 73.6302 38.5061 73.6302C38.5061 74.5428 38.5061 75.4356 38.5061 76.4673C39.3687 76.4673 40.2313 76.4673 41.3684 76.4673C41.4272 77.5585 41.5056 78.5306 41.5644 79.6417C36.3888 79.6417 31.3505 79.6417 26.0572 79.6417C25.7436 74.6023 26.018 69.4241 25.9004 63.9681C27.0375 63.9681 28.0373 63.9681 29.0567 63.9681C29.0567 66.0315 29.0567 68.1147 29.0567 70.1384C30.2918 70.2772 31.2524 70.3764 32.3307 70.4955C32.3307 72.6779 32.3307 74.6023 32.3307 76.5268C33.3501 76.5268 34.2323 76.5268 35.3694 76.5268C35.3694 74.4039 35.3694 72.3604 35.3694 70.2177C38.5845 70.2177 41.5448 70.2177 44.4855 70.2177C44.4855 69.1067 44.4855 68.1345 44.4855 67.0235C42.3878 67.0235 40.4666 67.0235 38.4081 67.0235C38.4865 64.8609 38.3101 62.8174 38.5257 60.8136C39.7216 60.8136 40.643 60.8136 41.6036 60.8731C41.6624 61.8254 41.6624 62.8174 41.6624 63.8094C42.7211 63.8094 43.6621 63.8094 44.5835 63.8094C44.5835 62.7778 44.5835 61.9048 44.5835 60.9326C43.5249 60.9326 42.525 60.9326 41.6036 60.8731C41.5448 59.8018 41.5448 58.7899 41.5448 57.8178C40.3293 57.6789 39.3687 57.5797 38.4277 57.4607C38.4277 56.3298 38.4277 55.4172 38.4277 54.5045C39.4275 54.5045 40.4078 54.5045 41.4468 54.5045C41.5448 53.2943 41.6232 52.342 41.7017 51.2706C42.7603 51.2706 43.6229 51.2706 44.6815 51.2706C44.6815 49.1081 44.6815 47.0646 44.6815 45.0211C46.7008 45.0211 48.7005 45.0211 50.9354 45.0211C50.9354 46.1916 50.9354 47.1836 50.9354 48.1756C49.9552 48.1756 48.9553 48.1756 47.8183 48.1756C47.8183 50.4373 47.8183 52.461 47.8183 54.5045C46.8184 54.5045 45.8186 54.5045 44.6619 54.5045C44.7208 55.7544 44.7796 56.7068 44.8384 57.6591C46.0147 57.6591 46.9165 57.6591 47.8771 57.7186C47.9359 59.7026 47.9359 61.7461 47.9359 63.8094C48.9945 63.8094 49.9552 63.8094 50.8766 63.8094C50.8766 61.7262 50.8766 59.8018 50.8766 57.7781C49.8179 57.7781 48.8181 57.7781 47.8771 57.7186C47.8183 56.6076 47.8183 55.556 47.8183 54.5045C48.7985 54.5045 49.7983 54.5045 50.9354 54.5045C50.9354 52.2428 50.9354 50.2191 50.9354 48.1756C53.9937 48.1756 57.052 48.1756 60.3064 48.1756C60.3064 45.9535 60.3064 43.91 60.3064 41.8467C61.3454 41.8467 62.3844 41.8467 63.4235 41.8467C63.4235 44.9417 63.4235 48.0367 63.4235 51.3301C66.6778 51.3301 69.7362 51.3301 72.7945 51.3301C72.7945 52.3221 72.7945 53.3141 72.7945 54.4847C73.9707 54.4847 74.9314 54.4847 75.9116 54.4847C75.9116 55.4767 75.9116 56.4687 75.9116 57.6392C77.0879 57.6392 78.0485 57.6392 79.0287 57.6392C79.0287 58.6907 79.0287 59.7423 79.0287 60.7938C78.0289 60.7938 77.029 60.7938 75.8724 60.7938C75.9312 62.0437 75.99 62.996 76.0488 63.9483C77.2251 63.9483 78.1269 63.9483 79.0287 63.9483C78.9503 69.2456 78.9503 74.5031 78.9503 79.7805ZM69.4617 64.0872C68.5795 64.0872 67.5993 64.0872 66.619 64.0872C66.619 65.1585 66.619 66.1109 66.619 67.0433C67.6385 67.0433 68.5011 67.0433 69.4617 67.0433C69.4617 65.972 69.4617 64.9601 69.5793 63.9681C70.5791 63.9681 71.579 63.9681 72.7356 63.9681C72.6768 62.7182 72.618 61.7659 72.5592 60.8136C71.3829 60.8136 70.4811 60.8136 69.4617 60.6946C69.4617 58.7701 69.4617 56.7266 69.4617 54.6632C68.403 54.6632 67.4424 54.6632 66.521 54.6632C66.521 56.7464 66.521 58.6709 66.521 60.6946C67.5797 60.6946 68.5795 60.6946 69.5793 60.8136C69.5793 61.8651 69.5793 62.9166 69.4617 64.0872ZM54.0133 63.8491C57.2873 63.8491 60.2476 63.8491 63.3255 63.8491C63.3255 62.1627 63.3451 60.6152 63.3255 59.0479C63.3059 57.5202 63.2667 55.9925 63.2471 54.6236C59.9927 54.6236 57.0324 54.6236 54.0329 54.6236C54.0133 57.7384 54.0133 60.7144 54.0133 63.8491Z" fill="#02194A"/>
<path d="M78.953 22.8841C71.7973 22.8841 64.6415 22.8841 57.5054 22.8841C57.4074 22.8047 57.3094 22.7254 57.231 22.6262C57.1722 22.527 57.0938 22.4079 57.0938 22.2889C57.0938 15.2061 57.0938 8.12327 57.0938 0.762695C64.4651 0.762695 71.7188 0.762695 78.953 0.762695C78.953 8.14311 78.953 15.5037 78.953 22.8841ZM75.7574 4.05611C70.3857 4.05611 65.3473 4.05611 60.1717 4.05611C60.2893 9.37318 60.0345 14.5514 60.3285 19.5907C65.6414 19.5907 70.6602 19.5907 75.7574 19.5907C75.7574 14.3728 75.7574 9.27398 75.7574 4.05611Z" fill="#02194A"/>
<path d="M78.9491 38.6947C78.0473 38.6947 77.1259 38.6947 76.0084 38.6947C75.9104 39.647 75.8124 40.639 75.6948 41.7302C73.7539 41.7302 71.8523 41.7302 69.7546 41.7302C69.7546 40.8374 69.7546 39.8653 69.7546 38.7741C70.6368 38.7146 71.519 38.6749 72.5384 38.6154C72.5384 37.7424 72.5384 36.8695 72.5384 35.6989C71.7738 35.6195 70.8132 35.5203 69.5781 35.3815C69.5781 34.4093 69.5781 33.3776 69.5781 32.3658C70.4799 32.3658 71.3817 32.3658 72.558 32.3658C72.558 30.362 72.558 28.3383 72.558 26.1758C73.6951 26.1758 74.5577 26.1758 75.6948 26.1758C75.6948 28.0407 75.6948 30.0842 75.6948 32.3658C76.9495 32.3658 77.9493 32.3658 78.9491 32.3658C78.9491 34.4688 78.9491 36.5917 78.9491 38.6947Z" fill="#02194A"/>
<path d="M72.6973 51.3309C72.6973 49.2874 72.6973 47.2438 72.6973 45.002C74.9126 45.002 76.9319 45.002 78.9511 45.002C78.9511 46.0535 78.9511 47.105 78.9511 48.1565C77.9709 48.1565 76.9907 48.1565 75.834 48.1565C75.834 49.3469 75.834 50.319 75.834 51.311C74.7753 51.3309 73.7363 51.3309 72.6973 51.3309Z" fill="#02194A"/>
<path d="M77.3833 55.1615C78.6068 55.1615 79.5986 54.1578 79.5986 52.9196C79.5986 51.6815 78.6068 50.6777 77.3833 50.6777C76.1598 50.6777 75.168 51.6815 75.168 52.9196C75.168 54.1578 76.1598 55.1615 77.3833 55.1615Z" fill="#02194A"/>
<path d="M22.5872 22.8223C15.3531 22.8223 8.23666 22.8223 0.982967 22.8223C0.982967 15.561 0.982967 8.35909 0.982967 1.03819C0.943758 1.07787 1.02218 0.978671 1.1202 0.899312C1.21822 0.839793 1.33585 0.780273 1.45348 0.780273C8.45231 0.780273 15.4511 0.780273 22.5872 0.780273C22.5872 8.08133 22.5872 15.2832 22.5872 22.8223ZM4.04128 19.5884C9.41294 19.5884 14.4317 19.5884 19.6269 19.5884C19.5093 14.2714 19.7642 9.09316 19.4701 4.05385C14.1572 4.05385 9.13847 4.05385 4.04128 4.05385C4.04128 9.27172 4.04128 14.3706 4.04128 19.5884Z" fill="#02194A"/>
<path d="M22.646 57.7812C22.646 65.122 22.646 72.3238 22.646 79.6447C15.4707 79.6447 8.35427 79.6447 1.10056 79.6447C1.13977 79.6844 1.04175 79.605 0.963331 79.486C0.904517 79.3868 0.845703 79.2678 0.845703 79.1487C0.845703 72.0659 0.845703 64.9831 0.845703 57.7812C8.09941 57.7812 15.2159 57.7812 22.646 57.7812ZM19.5289 60.9556C14.1572 60.9556 9.11885 60.9556 3.96284 60.9556C4.00205 66.2727 3.92363 71.4509 4.00205 76.4902C9.41292 76.4902 14.4317 76.4902 19.5093 76.4902C19.5289 71.2525 19.5289 66.1735 19.5289 60.9556Z" fill="#02194A"/>
<path d="M53.9562 29.2079C53.9562 30.2594 53.9562 31.3109 53.9562 32.3624C52.9564 32.3624 51.9761 32.3624 50.741 32.3624C50.741 35.6558 50.741 38.731 50.741 42.0244C48.5257 42.0244 46.5457 42.0244 44.5852 42.0244C44.5852 43.1949 44.5852 44.0877 44.5852 45.0004C43.5462 45.0004 42.5071 45.0004 41.4681 45.0004C41.4681 43.9885 41.4681 42.9767 41.4681 41.9847C40.233 41.8458 39.2724 41.7466 38.5078 41.6673C38.5078 39.4452 38.5078 37.5009 38.5078 35.6161C39.5469 35.6161 40.4095 35.6161 41.3897 35.6161C41.4681 36.6875 41.5465 37.6795 41.6053 38.5524C42.7228 38.5524 43.5854 38.5524 44.6048 38.5524C44.6048 36.8859 44.6244 35.3185 44.6048 33.7512C44.5852 32.2235 44.546 30.6958 44.5068 29.188C43.2913 29.188 42.3895 29.188 41.4877 29.188C41.4877 28.1762 41.4877 27.1644 41.4877 26.1922C42.7228 26.0533 43.6834 25.9541 44.6048 25.8351C44.6048 23.6329 44.6048 21.6687 44.6048 19.7046C45.6439 19.7046 46.6829 19.7046 47.7808 19.7641C47.8396 20.7164 47.8396 21.7084 47.8396 22.7004C48.8982 22.7004 49.8392 22.7004 50.7606 22.7004C50.7606 21.6687 50.7606 20.7958 50.7606 19.8236C49.702 19.8236 48.7022 19.8236 47.7808 19.7641C47.7219 18.6531 47.7219 17.6016 47.7219 16.55C48.7022 16.55 49.6824 16.55 50.8391 16.55C50.8391 15.3596 50.8391 14.3875 50.8391 13.3955C51.7409 13.3955 52.6427 13.3955 53.917 13.3955C54.015 17.6016 53.9366 21.8274 53.9562 26.0335C51.9173 26.0335 49.8784 26.0335 47.6827 26.0335C47.7416 27.2635 47.8004 28.2357 47.8592 29.188C50.0745 29.2079 52.0153 29.2079 53.9562 29.2079Z" fill="#02194A"/>
<path d="M16.4727 41.8541C16.4727 38.7393 16.4727 35.6244 16.4727 32.3905C18.6095 32.3905 20.5308 32.3905 22.5697 32.3905C22.5697 31.3787 22.5697 30.5058 22.5697 29.3749C21.7855 29.2955 20.8249 29.1765 19.727 29.0575C19.727 28.1845 19.727 27.3115 19.727 26.1608C22.6285 26.1608 25.6672 26.1608 28.9607 26.1608C28.9607 24.8911 28.9607 23.8793 28.9607 22.8674C29.941 22.8674 30.9212 22.8674 32.0779 22.8674C32.0779 21.677 32.0779 20.7049 32.0779 19.7129C33.1169 19.7129 34.1559 19.7129 35.195 19.7129C35.195 20.7049 35.195 21.6969 35.195 22.8674C36.3713 22.8674 37.3319 22.8674 38.3121 22.8674C38.3121 24.9704 38.3121 27.0735 38.3121 29.1963C37.2731 29.1963 36.234 29.1963 35.195 29.1963C35.195 28.1845 35.195 27.1727 35.195 26.0418C34.4304 26.0418 33.9403 26.022 33.4306 26.0418C32.9601 26.0815 32.4896 26.1608 32.0583 26.2204C32.0583 27.3512 32.0583 28.2639 32.0583 29.1963C31.0584 29.1963 30.0782 29.1963 28.9411 29.1963C28.9411 32.5096 28.9411 35.6046 28.9411 38.6798C27.9413 38.6798 26.9611 38.6798 25.9416 38.6798C25.8436 37.4695 25.7456 36.4974 25.6672 35.6046C23.5695 35.6046 21.6679 35.6046 19.727 35.6046C19.727 36.6561 19.727 37.6283 19.727 38.5806C20.8249 38.6798 21.7855 38.7591 22.7069 38.8385C22.7069 40.0289 22.7069 40.9217 22.7069 41.8343C20.6288 41.8541 18.5507 41.8541 16.4727 41.8541Z" fill="#02194A"/>
<path d="M28.9589 63.9715C28.9589 63.0589 28.9589 62.1661 28.9589 60.9757C28.0375 60.8964 27.0769 60.7972 25.9006 60.698C25.9006 57.6823 25.9006 54.6269 25.9006 51.3335C24.6851 51.3335 23.7049 51.3335 22.7051 51.3335C22.7051 50.282 22.7051 49.2305 22.7051 48.179C23.6853 48.179 24.6655 48.179 25.8222 48.179C25.8222 46.9886 25.8222 46.0164 25.8222 45.0244C26.822 45.0244 27.8219 45.0244 28.8021 45.0244C28.9393 46.2545 29.0373 47.2465 29.155 48.179C30.2724 48.179 31.1742 48.179 32.076 48.179C32.076 50.2225 32.076 52.2462 32.076 54.5079C33.2327 54.5079 34.2129 54.5079 35.1931 54.5079C35.1931 55.5197 35.1931 56.5316 35.1931 57.5037C33.9581 57.6426 32.9974 57.7418 32.076 57.8609C32.076 60.0631 32.076 62.0272 32.076 63.9914C31.0566 63.9715 29.998 63.9715 28.9589 63.9715Z" fill="#02194A"/>
<path d="M44.5835 16.5576C44.5835 15.6449 44.5835 14.7125 44.5835 13.5221C42.5838 13.5221 40.5842 13.5221 38.4473 13.5221C38.4473 11.3198 38.4473 9.37554 38.4473 7.25268C39.3295 7.25268 40.2901 7.25268 41.3684 7.25268C41.4076 8.16531 41.4664 9.0581 41.5252 10.0898C43.4464 10.0898 45.3677 10.0898 47.5634 10.0898C47.5634 8.22483 47.5634 6.20117 47.5634 4.03863C48.7201 4.03863 49.5827 4.03863 50.6805 4.03863C50.759 2.9276 50.8374 1.95545 50.9354 0.864258C51.896 0.864258 52.7586 0.864258 53.7977 0.864258C53.7977 2.74904 53.7977 4.69334 53.7977 6.9154C53.0331 6.99476 52.0725 7.09396 50.8374 7.23284C50.8374 9.2565 50.8374 11.3397 50.8374 13.403C49.8571 13.403 48.8769 13.403 47.7202 13.403C47.7202 14.5934 47.7202 15.5656 47.7202 16.5576C46.6616 16.5576 45.6225 16.5576 44.5835 16.5576Z" fill="#02194A"/>
<path d="M53.957 32.3633C56.0351 32.3633 58.1132 32.3633 60.2109 32.3633C60.2109 33.3751 60.2109 34.3671 60.2109 35.4781C62.3478 35.4781 64.2298 35.4781 66.2883 35.4781C66.2883 37.5811 66.2883 39.585 66.2883 41.8467C65.3081 41.8467 64.3279 41.8467 63.328 41.8467C63.328 40.8349 63.328 39.823 63.328 38.6525C62.0929 38.712 61.1519 38.7715 60.2109 38.831C60.2109 40.0214 60.2109 40.9341 60.2109 41.8467C59.2111 41.8467 58.2308 41.8467 57.2114 41.8467C57.0938 43.0569 56.9957 44.0489 56.9173 44.8822C55.8391 44.8822 54.9765 44.8822 53.957 44.8822C53.957 40.6365 53.957 36.5098 53.957 32.3633Z" fill="#02194A"/>
<path d="M7.10122 45.0031C6.19941 45.0031 5.2976 45.0031 4.12133 45.0031C3.76844 48.0386 4.12133 51.1138 3.88607 54.3278C2.94505 54.3278 1.98443 54.3278 0.925781 54.3278C0.925781 50.2607 0.925781 46.253 0.925781 42.0271C1.78838 41.9279 2.74901 41.8288 3.96449 41.7097C3.96449 40.7177 3.96449 39.7059 3.96449 38.6941C5.98376 38.6941 8.00303 38.6941 10.1203 38.6941C10.1791 37.6227 10.2184 36.7498 10.2772 35.6982C11.2182 35.6982 12.1592 35.6982 13.3355 35.6982C13.3355 37.7616 13.3355 39.8051 13.3355 41.8486C11.3162 41.8486 9.31654 41.8486 7.08162 41.8486C7.10122 42.9993 7.10122 44.0111 7.10122 45.0031Z" fill="#02194A"/>
<path d="M0.925781 32.227C0.925781 30.1636 0.925781 28.2391 0.925781 26.1758C6.08179 26.1758 11.179 26.1758 16.3938 26.1758C16.3938 27.1281 16.3938 28.0011 16.3938 29.1518C15.4528 29.1518 14.4922 29.1518 13.4531 29.1518C13.3943 30.3025 13.3551 31.1755 13.3159 32.2071C12.4141 32.2071 11.5515 32.2071 10.4144 32.2071C10.336 31.4135 10.238 30.4414 10.1203 29.3303C9.27734 29.3303 8.39513 29.3303 7.29727 29.3303C7.19925 30.1438 7.10123 31.1159 6.9836 32.227C5.08195 32.227 3.16071 32.227 0.925781 32.227Z" fill="#02194A"/>
<path d="M28.959 22.8887C28.0572 22.8887 27.1358 22.8887 25.9399 22.8887C25.7242 20.8849 25.9007 18.8414 25.8223 16.6788C26.8613 16.6788 27.7239 16.6788 28.7825 16.6788C28.7825 15.5678 28.7825 14.5956 28.7825 13.4846C27.9199 13.4449 27.0377 13.3854 25.9987 13.3259C25.9987 12.3537 25.9987 11.3816 25.9987 10.3301C28.9982 10.3301 31.9585 10.3301 35.056 10.3301C35.056 11.203 35.056 12.0958 35.056 13.2267C34.2718 13.3061 33.3112 13.4251 32.0761 13.564C32.0761 15.5876 32.0761 17.6708 32.0761 19.7342C31.0959 19.7342 30.1156 19.7342 28.959 19.7342C28.959 20.9047 28.959 21.8967 28.959 22.8887Z" fill="#02194A"/>
<path d="M13.3535 41.8467C14.3925 41.8467 15.4316 41.8467 16.4706 41.8467C16.4706 46.013 16.4706 50.1794 16.4706 54.4053C15.3727 54.4053 14.4905 54.4053 13.4907 54.4053C13.4907 53.4927 13.4907 52.5999 13.4907 51.4492C11.3734 51.4492 9.35414 51.4492 7.09961 51.4492C7.09961 49.1279 7.09961 47.0646 7.09961 44.9814C8.09944 44.9814 9.07967 44.9814 10.1187 44.9814C10.2167 46.1916 10.2952 47.1439 10.354 48.0367C11.4322 48.0367 12.2948 48.0367 13.3339 48.0367C13.3535 45.9337 13.3535 43.8902 13.3535 41.8467Z" fill="#02194A"/>
<path d="M35.2129 19.7287C35.2129 18.7169 35.2129 17.7249 35.2129 16.5742C38.4869 16.5742 41.5452 16.5742 44.5839 16.5742C44.5839 17.6257 44.5839 18.6772 44.5839 19.7287C43.584 19.7287 42.5842 19.7287 41.604 19.7287C41.4667 20.9588 41.3687 21.9309 41.2511 22.8832C40.1336 22.8832 39.2318 22.8832 38.33 22.8832C38.33 21.8913 38.33 20.8993 38.33 19.7287C37.1733 19.7287 36.1931 19.7287 35.2129 19.7287Z" fill="#02194A"/>
<path d="M32.2148 0.841797C33.2343 0.841797 34.0969 0.841797 35.0967 0.841797C35.0967 2.82578 35.0967 4.77008 35.0967 6.9723C34.2733 7.01198 33.3127 7.05166 32.2148 7.11118C32.2148 5.00816 32.2148 3.0837 32.2148 0.841797Z" fill="#02194A"/>
<path d="M44.5873 0.87996C44.5873 1.93147 44.5873 2.72507 44.5873 3.81626C42.6269 4.0345 40.6076 3.85594 38.4707 3.9353C38.4707 2.92347 38.4707 2.05051 38.4707 0.87996C40.4116 0.661722 42.5092 0.681562 44.5873 0.87996Z" fill="#02194A"/>
<path d="M60.3086 32.2474C60.3086 30.3229 60.3086 28.2794 60.3086 26.1367C61.2692 26.1367 62.1318 26.1367 63.1709 26.1367C63.1709 28.1009 63.1709 30.1047 63.1709 32.2474C62.1906 32.2474 61.1908 32.2474 60.3086 32.2474Z" fill="#02194A"/>
<path d="M69.4622 32.2461C68.58 32.2461 67.5801 32.2461 66.5215 32.2461C66.5215 30.2026 66.5215 28.298 66.5215 26.2148C67.4625 26.2148 68.4035 26.2148 69.4622 26.2148C69.4622 28.2782 69.4622 30.3217 69.4622 32.2461Z" fill="#02194A"/>
<path d="M29.078 7.00478C27.8429 7.00478 26.9803 7.00478 25.9805 7.00478C25.9805 6.09215 25.9805 5.2192 25.9805 4.04865C26.6666 4.00898 27.6077 3.69154 28.3331 3.9693C29.5878 4.44545 28.6859 5.75488 29.078 7.00478Z" fill="#02194A"/>
<path d="M3.86444 38.575C2.98224 38.575 2.00201 38.575 0.943359 38.575C0.943359 37.6029 0.943359 36.7299 0.943359 35.6982C1.86477 35.6982 2.80579 35.6982 3.86444 35.6982C3.86444 36.6902 3.86444 37.6822 3.86444 38.575Z" fill="#02194A"/>
<path d="M22.7285 45.0012C22.7285 43.9497 22.7285 42.8982 22.7285 41.8467C23.7087 41.8467 24.689 41.8467 25.8457 41.8467C25.8457 43.0371 25.8457 44.0092 25.8457 45.0012C24.8066 45.0012 23.7676 45.0012 22.7285 45.0012Z" fill="#02194A"/>
<path d="M22.6083 51.4531C22.6083 52.3459 22.6083 53.3379 22.6083 54.4093C21.6477 54.4093 20.7851 54.4093 19.7656 54.4093C19.7656 53.4768 19.7656 52.5245 19.7656 51.4531C20.7459 51.4531 21.7261 51.4531 22.6083 51.4531Z" fill="#02194A"/>
<path d="M53.957 26.04C54.8589 26.04 55.7607 26.04 56.937 26.04C56.9958 26.9924 57.035 27.9645 57.1135 29.1946C55.9568 29.1946 54.9569 29.1946 53.957 29.1946C53.957 28.1629 53.957 27.1114 53.957 26.04Z" fill="#02194A"/>
<path d="M22.7227 48.1789C21.8209 48.1789 20.9191 48.1789 19.7428 48.1789C19.684 47.2266 19.6448 46.2545 19.5664 45.0244C20.7231 45.0244 21.7229 45.0244 22.7227 45.0244C22.7227 46.0759 22.7227 47.1274 22.7227 48.1789Z" fill="#02194A"/>
<path d="M69.4443 48.0934C68.4445 48.0934 67.5819 48.0934 66.582 48.0934C66.582 47.1609 66.582 46.2879 66.582 45.1372C67.3858 45.0976 68.3464 45.038 69.4443 44.9785C69.4443 46.0102 69.4443 46.8831 69.4443 48.0934Z" fill="#02194A"/>
<path d="M35.2128 54.4855C35.2128 52.442 35.2128 50.4183 35.2128 48.1565C34.0562 48.1565 33.0759 48.1565 32.0957 48.1565C32.0957 47.1447 32.0957 46.1527 32.0957 45.002C35.3697 45.002 38.428 45.002 41.4667 45.002C41.4667 45.9146 41.4667 46.8272 41.4667 47.9581C40.5257 48.0573 39.5651 48.1764 38.3496 48.2954C38.3496 50.3389 38.3496 52.4023 38.3496 54.4657C37.2909 54.4855 36.2519 54.4855 35.2128 54.4855Z" fill="#02194A"/>
<path d="M32.1914 64.0918C33.0736 64.0918 34.0538 64.0918 35.1125 64.0918C35.1125 65.0639 35.1125 65.9369 35.1125 66.9686C34.1911 66.9686 33.2501 66.9686 32.1914 66.9686C32.1914 65.9766 32.1914 64.9846 32.1914 64.0918Z" fill="#02194A"/>
<path d="M57.209 57.7246C58.2088 57.7246 59.0714 57.7246 60.0713 57.7246C60.0713 58.6571 60.0713 59.53 60.0713 60.6807C59.2675 60.7204 58.3068 60.78 57.209 60.8395C57.209 59.8276 57.209 58.9547 57.209 57.7246Z" fill="#02194A"/>
<path d="M63.4629 7.14746C66.5408 7.14746 69.4815 7.14746 72.5594 7.14746C72.5594 10.183 72.5594 13.1788 72.5594 16.4722C71.2067 16.492 69.6971 16.5515 68.2072 16.5515C66.6584 16.5714 65.1293 16.5515 63.4629 16.5515C63.4629 13.4565 63.4629 10.4805 63.4629 7.14746Z" fill="#02194A"/>
<path d="M7.16211 16.4345C7.16211 13.2998 7.16211 10.3238 7.16211 7.20898C10.1616 7.20898 13.1219 7.20898 16.3762 7.20898C16.3959 8.57793 16.4547 10.1056 16.4743 11.6333C16.4939 13.1808 16.4743 14.7481 16.4743 16.4345C13.3964 16.4345 10.4557 16.4345 7.16211 16.4345Z" fill="#02194A"/>
<path d="M7.16211 73.3376C7.16211 70.2227 7.16211 67.2467 7.16211 64.1318C10.1616 64.1318 13.1023 64.1318 16.3763 64.1318C16.3959 65.5008 16.4547 67.0086 16.4547 68.5363C16.4743 70.1037 16.4547 71.6512 16.4547 73.3376C13.416 73.3376 10.4557 73.3376 7.16211 73.3376Z" fill="#02194A"/>
<path d="M32.0957 29.2129C33.1347 29.2129 34.1738 29.2129 35.2128 29.2129C35.2128 31.177 35.2128 33.1412 35.2128 35.3831C34.2718 35.4426 33.3112 35.4823 32.0957 35.5616C32.0957 33.3396 32.0957 31.2762 32.0957 29.2129Z" fill="#02194A"/>
<path d="M29.0801 38.792C30.9817 38.792 33.001 38.792 35.1183 38.792C35.1183 39.7641 35.1183 40.6371 35.1183 41.6886C33.1774 41.6886 31.1974 41.6886 29.0801 41.6886C29.0801 40.6966 29.0801 39.6848 29.0801 38.792Z" fill="#02194A"/>
<path d="M38.332 29.2129C39.3711 29.2129 40.4102 29.2129 41.4493 29.2129C41.4493 30.1255 41.4493 31.0382 41.4493 32.2285C40.5082 32.2881 39.5672 32.3277 38.332 32.4071C38.332 31.2366 38.332 30.2247 38.332 29.2129Z" fill="#02194A"/>
</svg>
