<svg width="36" height="36" viewBox="0 0 36 36" fill="none" xmlns="http://www.w3.org/2000/svg">
<path d="M2.9527 10.0495H0.539062V0.84668H9.74191V3.26031H2.9527V10.0495Z" fill="#0E80E1"/>
<path d="M35.5382 10.0495H33.1246V3.26031H26.3359V0.84668H35.5382V10.0495Z" fill="#0E80E1"/>
<path d="M35.5382 35.8468H26.3359V33.4332H33.1246V26.6445H35.5382V35.8468Z" fill="#0E80E1"/>
<path d="M9.74191 35.8468H0.539062V26.6445H2.9527V33.4332H9.74191V35.8468Z" fill="#0E80E1"/>
<path d="M16.529 16.8385H5.96875V6.27832H16.529V16.8385ZM8.38238 14.4249H14.1153V8.69195H8.38238V14.4249Z" fill="#0E80E1"/>
<path d="M12.606 10.2002H9.89062V12.9155H12.606V10.2002Z" fill="#0E80E1"/>
<path d="M16.529 30.4163H5.96875V19.8555H16.529V30.4163ZM8.38238 28.0021H14.1153V22.2691H8.38238V28.0021Z" fill="#0E80E1"/>
<path d="M12.606 23.7783H9.89062V26.4937H12.606V23.7783Z" fill="#0E80E1"/>
<path d="M26.1841 23.7783H23.4688V26.4937H26.1841V23.7783Z" fill="#0E80E1"/>
<path d="M28.9028 21.0625H26.1875V23.7778H28.9028V21.0625Z" fill="#0E80E1"/>
<path d="M23.4692 21.0625H20.7539V23.7778H23.4692V21.0625Z" fill="#0E80E1"/>
<path d="M28.9028 26.4932H26.1875V29.2085H28.9028V26.4932Z" fill="#0E80E1"/>
<path d="M23.4692 26.4932H20.7539V29.2085H23.4692V26.4932Z" fill="#0E80E1"/>
<path d="M30.1077 16.8385H19.5469V6.27832H30.1071V16.8385H30.1077ZM21.9611 14.4249H27.694V8.69195H21.9611V14.4249Z" fill="#0E80E1"/>
<path d="M26.1841 10.2002H23.4688V12.9155H26.1841V10.2002Z" fill="#0E80E1"/>
</svg>
