<svg width="50" height="51" viewBox="0 0 50 51" fill="none" xmlns="http://www.w3.org/2000/svg">
<path fill-rule="evenodd" clip-rule="evenodd" d="M20.4951 0.706338C20.549 0.42778 20.7928 0.226562 21.0766 0.226562H25.0013C25.0541 0.226562 25.1053 0.233475 25.1541 0.246444H28.9261C29.2098 0.246444 29.4537 0.44767 29.5076 0.726234L30.5114 5.91722C32.004 6.34237 33.4259 6.93561 34.755 7.67518L39.1539 4.70174C39.3889 4.54284 39.7037 4.57299 39.9043 4.77362L42.6793 7.54862C42.7171 7.5864 42.7487 7.62801 42.7741 7.67221L45.4399 10.338C45.6405 10.5386 45.6707 10.8534 45.5118 11.0884L42.5529 15.4658C43.2947 16.7959 43.8902 18.2191 44.3166 19.7136L49.5211 20.7199C49.7997 20.7738 50.0009 21.0176 50.0009 21.3014V25.2261C50.0009 25.2789 49.994 25.3301 49.981 25.3789V29.1509C49.981 29.4346 49.7798 29.6785 49.5013 29.7324L44.3241 30.7335C43.8987 32.232 43.3037 33.6591 42.5612 34.9926L45.5258 39.3787C45.6846 39.6137 45.6545 39.9285 45.4539 40.1291L42.6789 42.9041C42.6411 42.9419 42.5995 42.9735 42.5553 42.9989L39.8895 45.6647C39.6889 45.8653 39.3741 45.8955 39.1391 45.7366L34.7745 42.7867C33.4396 43.5318 32.011 44.1288 30.5105 44.5559L29.5067 49.7468C29.4529 50.0253 29.209 50.2266 28.9253 50.2266H25.0005C24.9477 50.2266 24.8965 50.2196 24.8478 50.2067H21.0757C20.792 50.2067 20.5481 50.0054 20.4943 49.7269L19.4947 44.5572C17.9941 44.1305 16.5653 43.5336 15.2304 42.7892L10.848 45.7514C10.6129 45.9103 10.2982 45.8801 10.0976 45.6795L7.32255 42.9045C7.28548 42.8674 7.25383 42.826 7.22812 42.7813L4.56192 40.1151C4.3613 39.9145 4.33115 39.5998 4.49004 39.3647L7.44267 34.9965C6.69987 33.6631 6.1045 32.2363 5.67864 30.7378L0.480298 29.7328C0.201724 29.6789 0.000488281 29.4351 0.000488281 29.1513V25.2266C0.000488281 25.1738 0.00740072 25.1226 0.0203702 25.0738V21.3018C0.0203702 21.0181 0.221607 20.7742 0.500182 20.7203L5.68367 19.7182C6.11003 18.2232 6.70491 16.7997 7.4468 15.4692L4.47607 11.074C4.31719 10.839 4.34734 10.5242 4.54797 10.3236L7.32297 7.54862C7.36004 7.51155 7.40152 7.4799 7.44617 7.45419L10.1124 4.788C10.313 4.58738 10.6277 4.55722 10.8628 4.7161L15.2437 7.67723C16.5724 6.93729 17.9941 6.34369 19.4871 5.91847L20.4951 0.706338ZM8.05169 8.49497L5.73104 10.8156L8.63426 15.1109C8.76162 15.2993 8.76983 15.544 8.65539 15.7406C7.8183 17.1781 7.16587 18.7356 6.72956 20.3816C6.67135 20.6012 6.4926 20.7682 6.26952 20.8113L1.20482 21.7905V25.2266C1.20482 25.2794 1.19791 25.3306 1.18494 25.3793V28.6626L6.26487 29.6448C6.48815 29.6879 6.667 29.8552 6.72506 30.075C7.16053 31.7242 7.81335 33.285 8.65129 34.7255C8.7656 34.922 8.75734 35.1666 8.63003 35.3549L5.74501 39.6231L8.17446 42.0526C8.21153 42.0897 8.24318 42.1311 8.2689 42.1758L10.5895 44.4964L14.8721 41.6017C15.0606 41.4743 15.3053 41.4661 15.5018 41.5806C16.9435 42.4202 18.5064 43.0746 20.1576 43.5109C20.3775 43.569 20.5446 43.7478 20.5878 43.9711L21.5644 49.0222H25.0005C25.0533 49.0222 25.1045 49.0291 25.1532 49.0421H28.4366L29.4174 43.9698C29.4606 43.7466 29.6277 43.5678 29.8475 43.5097C31.4988 43.073 33.0611 42.4185 34.5027 41.5782C34.6993 41.4636 34.9441 41.4717 35.1326 41.5991L39.3975 44.4816L41.8269 42.0522C41.8647 42.0144 41.9063 41.9828 41.9505 41.9573L44.2708 39.6371L41.3739 35.3511C41.2466 35.1628 41.2383 34.9183 41.3526 34.7218C42.1901 33.2814 42.8425 31.7202 43.2776 30.0709C43.3356 29.851 43.5145 29.6837 43.7378 29.6405L48.7966 28.6622V25.2261C48.7966 25.1733 48.8035 25.1221 48.8165 25.0734V21.7901L43.7616 20.8127C43.5742 20.7864 43.4037 20.6708 43.3138 20.4909L43.3133 20.4901C43.2926 20.4487 43.2771 20.4057 43.2668 20.3618C42.8305 18.7223 42.1788 17.1702 41.3443 15.7372C41.2299 15.5407 41.2381 15.2959 41.3655 15.1075L44.2568 10.83L41.8274 8.40054C41.7896 8.36276 41.758 8.32114 41.7325 8.27695L39.4123 5.95671L35.1136 8.86244C34.9254 8.9897 34.6809 8.99801 34.4844 8.88384C33.0481 8.04919 31.4917 7.39839 29.8482 6.9633C29.6285 6.90514 29.4614 6.72637 29.4183 6.50323L28.4374 1.4309H25.0013C24.9485 1.4309 24.8973 1.42399 24.8486 1.41102H21.5652L20.5802 6.50452C20.537 6.72766 20.37 6.90643 20.1502 6.96458C18.5064 7.39963 16.9505 8.05081 15.5146 8.88586C15.3181 9.00013 15.0736 8.99185 14.8853 8.86457L10.6044 5.97108L8.17489 8.40054C8.13782 8.43761 8.09634 8.46925 8.05169 8.49497Z" fill="#00CF80"/>
<path fill-rule="evenodd" clip-rule="evenodd" d="M23.6645 25.0222C23.5446 25.7613 24.0465 26.4577 24.7856 26.5777C25.5247 26.6977 26.2211 26.1958 26.3411 25.4567C26.461 24.7176 25.9591 24.0212 25.22 23.9012C24.4809 23.7812 23.7845 24.2831 23.6645 25.0222ZM24.5958 27.7469C23.211 27.5221 22.2706 26.2172 22.4954 24.8324C22.7202 23.4476 24.025 22.5072 25.4098 22.732C26.7946 22.9568 27.735 24.2617 27.5102 25.6465C27.2854 27.0313 25.9806 27.9716 24.5958 27.7469Z" fill="#00CF80"/>
<path fill-rule="evenodd" clip-rule="evenodd" d="M25.0009 11.9824C25.328 11.9824 25.5931 12.2476 25.5931 12.5746V14.8238C25.5931 15.1509 25.328 15.4161 25.0009 15.4161C24.6738 15.4161 24.4087 15.1509 24.4087 14.8238V12.5746C24.4087 12.2476 24.6738 11.9824 25.0009 11.9824Z" fill="#00CF80"/>
<path fill-rule="evenodd" clip-rule="evenodd" d="M25.0009 35.0576C25.328 35.0576 25.5931 35.3228 25.5931 35.6498V37.899C25.5931 38.2261 25.328 38.4913 25.0009 38.4913C24.6738 38.4913 24.4087 38.2261 24.4087 37.899V35.6498C24.4087 35.3228 24.6738 35.0576 25.0009 35.0576Z" fill="#00CF80"/>
<path fill-rule="evenodd" clip-rule="evenodd" d="M11.7461 25.2377C11.7461 24.9107 12.0112 24.6455 12.3383 24.6455H14.5875C14.9146 24.6455 15.1797 24.9107 15.1797 25.2377C15.1797 25.5648 14.9146 25.83 14.5875 25.83H12.3383C12.0112 25.83 11.7461 25.5648 11.7461 25.2377Z" fill="#00CF80"/>
<path fill-rule="evenodd" clip-rule="evenodd" d="M34.8223 25.2377C34.8223 24.9107 35.0874 24.6455 35.4145 24.6455H37.6637C37.9908 24.6455 38.2559 24.9107 38.2559 25.2377C38.2559 25.5648 37.9908 25.83 37.6637 25.83H35.4145C35.0874 25.83 34.8223 25.5648 34.8223 25.2377Z" fill="#00CF80"/>
<path fill-rule="evenodd" clip-rule="evenodd" d="M25.0009 16.8086C25.328 16.8086 25.5931 17.0737 25.5931 17.4008V23.2897C25.5931 23.6167 25.328 23.8819 25.0009 23.8819C24.6738 23.8819 24.4087 23.6167 24.4087 23.2897V17.4008C24.4087 17.0737 24.6738 16.8086 25.0009 16.8086Z" fill="#00CF80"/>
<path fill-rule="evenodd" clip-rule="evenodd" d="M24.0469 26.191C24.2782 26.4223 24.2783 26.7972 24.047 27.0285L21.6565 29.4194C21.4253 29.6507 21.0503 29.6508 20.819 29.4195C20.5877 29.1882 20.5877 28.8133 20.8189 28.582L23.2094 26.1911C23.4407 25.9598 23.8156 25.9597 24.0469 26.191Z" fill="#00CF80"/>
<path fill-rule="evenodd" clip-rule="evenodd" d="M25.0008 10.7763C22.4254 10.7763 20.0091 11.4488 17.9157 12.6277C17.6307 12.7882 17.2695 12.6873 17.109 12.4023C16.9485 12.1173 17.0495 11.7562 17.3345 11.5957C19.6007 10.3194 22.2166 9.5918 25.0008 9.5918C33.6415 9.5918 40.6462 16.5965 40.6462 25.2372C40.6462 33.8778 33.6415 40.8825 25.0008 40.8825C16.3602 40.8825 9.35547 33.8778 9.35547 25.2372C9.35547 22.3566 10.1346 19.6562 11.4939 17.3369C11.6593 17.0547 12.0221 16.96 12.3043 17.1254C12.5865 17.2908 12.6812 17.6536 12.5158 17.9358C11.26 20.0785 10.5399 22.5728 10.5399 25.2372C10.5399 33.2237 17.0143 39.6981 25.0008 39.6981C32.9873 39.6981 39.4617 33.2237 39.4617 25.2372C39.4617 17.2506 32.9873 10.7763 25.0008 10.7763Z" fill="#00CF80"/>
</svg>
