<svg width="36" height="36" viewBox="0 0 36 36" fill="none" xmlns="http://www.w3.org/2000/svg">
<path fill-rule="evenodd" clip-rule="evenodd" d="M2.10397 22.3848C2.84743 22.3848 3.45012 22.9875 3.45012 23.7309V30.9104C3.45012 31.5054 3.6865 32.0761 4.10725 32.4969C4.52801 32.9176 5.09867 33.154 5.69371 33.154H30.8219C31.417 33.154 31.9876 32.9176 32.4084 32.4969C32.8291 32.0761 33.0655 31.5054 33.0655 30.9104V23.7309C33.0655 22.9875 33.6682 22.3848 34.4117 22.3848C35.1551 22.3848 35.7578 22.9875 35.7578 23.7309V30.9104C35.7578 32.2195 35.2378 33.475 34.3121 34.4006C33.3865 35.3263 32.131 35.8463 30.8219 35.8463H5.69371C4.38463 35.8463 3.12916 35.3263 2.2035 34.4006C1.27784 33.475 0.757812 32.2195 0.757812 30.9104V23.7309C0.757812 22.9875 1.36051 22.3848 2.10397 22.3848Z" fill="#0E80E1"/>
<path fill-rule="evenodd" clip-rule="evenodd" d="M17.3061 1.24096C17.8318 0.715253 18.6842 0.715253 19.2099 1.24096L28.1842 10.2153C28.71 10.741 28.71 11.5934 28.1842 12.1191C27.6585 12.6448 26.8062 12.6448 26.2805 12.1191L18.258 4.09658L10.2355 12.1191C9.70982 12.6448 8.85749 12.6448 8.33178 12.1191C7.80607 11.5934 7.80607 10.741 8.33178 10.2153L17.3061 1.24096Z" fill="#0E80E1"/>
<path fill-rule="evenodd" clip-rule="evenodd" d="M18.2563 0.84668C18.9998 0.84668 19.6025 1.44937 19.6025 2.19283V23.7313C19.6025 24.4748 18.9998 25.0774 18.2563 25.0774C17.5128 25.0774 16.9102 24.4748 16.9102 23.7313V2.19283C16.9102 1.44937 17.5128 0.84668 18.2563 0.84668Z" fill="#0E80E1"/>
</svg>
