<svg width="12" height="13" viewBox="0 0 12 13" fill="none" xmlns="http://www.w3.org/2000/svg">
<g clip-path="url(#clip0_456_95070)">
<path d="M11.1965 1.73044C10.1252 0.659073 8.38186 0.658852 7.31035 1.72985L7.31057 1.73007L5.61529 3.42565L6.39782 4.20804L8.0934 2.51209L8.09326 2.51194C8.73348 1.87283 9.77423 1.87319 10.414 2.51297C11.0539 3.15275 11.0538 4.19402 10.414 4.83402L7.86979 7.37809C7.55986 7.68809 7.14775 7.85881 6.70938 7.85881C6.271 7.85881 5.85882 7.68809 5.54889 7.37809L4.76636 8.16055C5.28537 8.67956 5.97546 8.96544 6.70945 8.96544C7.44344 8.96544 8.13354 8.67956 8.65232 8.16055L11.1966 5.61648C12.2678 4.54489 12.2678 2.80158 11.1965 1.73044Z" fill="#0E80E1"/>
<path d="M3.9072 11.3409C3.2672 11.9805 2.22601 11.9803 1.58615 11.3405C0.9463 10.7005 0.9463 9.65908 1.58608 9.01915L4.13 6.47523C4.77 5.8353 5.81127 5.8353 6.45112 6.47523L7.23373 5.69277C6.16222 4.62133 4.4189 4.62125 3.34754 5.69277L0.803471 8.23669C-0.267673 9.30813 -0.267673 11.0515 0.803545 12.123C1.33937 12.6588 2.04304 12.9267 2.74686 12.9266C3.45038 12.9266 4.15405 12.6589 4.68959 12.1234L4.68973 12.1233L6.38539 10.4272L5.60278 9.64476L3.9072 11.3409Z" fill="#0E80E1"/>
</g>
<defs>
<clipPath id="clip0_456_95070">
<rect width="12" height="12" fill="white" transform="translate(0 0.926758)"/>
</clipPath>
</defs>
</svg>
