<svg width="11" height="11" viewBox="0 0 11 11" fill="none" xmlns="http://www.w3.org/2000/svg">
<path opacity="0.8" d="M9.90104 2.88091L7.54383 0.523653C7.47929 0.459114 7.39171 0.422852 7.30041 0.422852C7.20911 0.422852 7.12153 0.459114 7.05699 0.523653L0.176725 7.40392C0.114757 7.46598 0.0787236 7.54924 0.0760613 7.63687L0.002113 10.0681C-0.000778834 10.163 0.0356674 10.2549 0.102776 10.3221C0.167452 10.3867 0.255033 10.4229 0.346195 10.4229C0.349684 10.4229 0.353172 10.4228 0.356707 10.4227L2.78786 10.3486C2.87549 10.346 2.9588 10.31 3.02082 10.248L9.90108 3.36779C10.0355 3.23334 10.0355 3.01536 9.90104 2.88091ZM2.63042 9.66459L0.701431 9.72335L0.76014 7.79427L4.94292 3.61144L6.81343 5.48163L2.63042 9.66459ZM7.30032 4.99479L5.42976 3.12465L7.30036 1.254L9.17069 3.12437L7.30032 4.99479Z" fill="#02194A"/>
</svg>
