<svg width="46" height="39" viewBox="0 0 46 39" fill="none" xmlns="http://www.w3.org/2000/svg">
<path d="M44.3676 33.4578C44.3676 34.4892 43.9579 35.4783 43.2286 36.2076C42.4993 36.937 41.5101 37.3467 40.4787 37.3467H5.47873C4.44733 37.3467 3.45818 36.937 2.72887 36.2076C1.99956 35.4783 1.58984 34.4892 1.58984 33.4578V12.0689C1.58984 11.0375 1.99956 10.0484 2.72887 9.31904C3.45818 8.58973 4.44733 8.18001 5.47873 8.18001H13.2565L17.1454 2.34668H28.8121L32.701 8.18001H40.4787C41.5101 8.18001 42.4993 8.58973 43.2286 9.31904C43.9579 10.0484 44.3676 11.0375 44.3676 12.0689V33.4578Z" stroke="#0E80E1" stroke-width="3" stroke-linecap="round" stroke-linejoin="round"/>
<path d="M22.977 29.5683C27.2725 29.5683 30.7548 26.086 30.7548 21.7905C30.7548 17.4949 27.2725 14.0127 22.977 14.0127C18.6814 14.0127 15.1992 17.4949 15.1992 21.7905C15.1992 26.086 18.6814 29.5683 22.977 29.5683Z" stroke="#0E80E1" stroke-width="3" stroke-linecap="round" stroke-linejoin="round"/>
</svg>
