<svg width="83" height="122" viewBox="0 0 83 122" fill="none" xmlns="http://www.w3.org/2000/svg">
<path d="M1.4624 0.0605469H79.0436C81.1152 0.0605469 82.7966 1.73833 82.7966 3.80559V117.475C82.7966 119.542 81.1152 121.22 79.0436 121.22H1.4624V0.0605469Z" fill="#002D4F"/>
<path d="M2.42316 0.0605469L1.4624 1.01928V0.539913L1.94278 0.0605469H2.42316Z" fill="#002042"/>
<path d="M3.89432 0.0605469L1.4624 2.48734V2.03793L3.41394 0.0605469H3.89432Z" fill="#002042"/>
<path d="M5.36548 0.0605469L1.4624 3.98536V3.50599L4.91513 0.0605469H5.36548Z" fill="#002042"/>
<path d="M6.86667 0.0605469L1.4624 5.45341V5.00401L6.38629 0.0605469H6.86667Z" fill="#002042"/>
<path d="M8.33783 0.0605469L1.4624 6.95143V6.47206L7.88747 0.0605469H8.33783Z" fill="#002042"/>
<path d="M9.83901 0.0605469L1.4624 8.41949V7.97008L9.35863 0.0605469H9.83901Z" fill="#002042"/>
<path d="M11.3102 0.0605469L1.4624 9.88755V9.43814L10.8598 0.0605469H11.3102Z" fill="#002042"/>
<path d="M12.8114 0.0605469L1.4624 11.3856V10.9062L12.331 0.0605469H12.8114Z" fill="#002042"/>
<path d="M14.2825 0.0605469L1.4624 12.8536V12.4042L13.8021 0.0605469H14.2825Z" fill="#002042"/>
<path d="M15.7837 0.0605469L1.4624 14.3516V13.8723L15.3033 0.0605469H15.7837Z" fill="#002042"/>
<path d="M17.2549 0.0605469L1.4624 15.8197V15.3703L16.7745 0.0605469H17.2549Z" fill="#002042"/>
<path d="M18.726 0.0605469L1.4624 17.3177V16.8384L18.2757 0.0605469H18.726Z" fill="#002042"/>
<path d="M20.2272 0.0605469L1.4624 18.7858V18.3364L19.7468 0.0605469H20.2272Z" fill="#002042"/>
<path d="M21.6984 0.0605469L1.4624 20.2838V19.8044L21.248 0.0605469H21.6984Z" fill="#002042"/>
<path d="M23.1996 0.0605469L1.4624 21.7519V21.2725L22.7192 0.0605469H23.1996Z" fill="#002042"/>
<path d="M24.6707 0.0605469L1.4624 23.2199V22.7705L24.1903 0.0605469H24.6707Z" fill="#002042"/>
<path d="M26.1719 0.0605469L1.4624 24.7179V24.2386L25.6915 0.0605469H26.1719Z" fill="#002042"/>
<path d="M27.6431 0.0605469L1.4624 26.186V25.7366L27.1627 0.0605469H27.6431Z" fill="#002042"/>
<path d="M29.1142 0.0605469L1.4624 27.684V27.2046L28.6639 0.0605469H29.1142Z" fill="#002042"/>
<path d="M30.6154 0.0605469L1.4624 29.1521V28.7027L30.135 0.0605469H30.6154Z" fill="#002042"/>
<path d="M32.0866 0.0605469L1.4624 30.6201V30.1707L31.6362 0.0605469H32.0866Z" fill="#002042"/>
<path d="M33.5877 0.0605469L1.4624 32.1181V31.6388L33.1074 0.0605469H33.5877Z" fill="#002042"/>
<path d="M35.0589 0.0605469L1.4624 33.5862V33.1368L34.5785 0.0605469H35.0589Z" fill="#002042"/>
<path d="M36.5301 0.0605469L1.4624 35.0842V34.6048L36.0797 0.0605469H36.5301Z" fill="#002042"/>
<path d="M38.0312 0.0605469L1.4624 36.5523V36.1029L37.5509 0.0605469H38.0312Z" fill="#002042"/>
<path d="M39.5024 0.0605469L1.4624 38.0503V37.5709L39.0521 0.0605469H39.5024Z" fill="#002042"/>
<path d="M41.0036 0.0605469L1.4624 39.5183V39.039L40.5232 0.0605469H41.0036Z" fill="#002042"/>
<path d="M42.4748 0.0605469L1.4624 41.0164V40.537L42.0244 0.0605469H42.4748Z" fill="#002042"/>
<path d="M43.9759 0.0605469L1.4624 42.4844V42.0051L43.4956 0.0605469H43.9759Z" fill="#002042"/>
<path d="M45.4471 0.0605469L1.4624 43.9525V43.5031L44.9667 0.0605469H45.4471Z" fill="#002042"/>
<path d="M46.9183 0.0605469L1.4624 45.4505V44.9711L46.4679 0.0605469H46.9183Z" fill="#002042"/>
<path d="M48.4194 0.0605469L1.4624 46.9186V46.4692L47.9391 0.0605469H48.4194Z" fill="#002042"/>
<path d="M49.8906 0.0605469L1.4624 48.4166V47.9372L49.4403 0.0605469H49.8906Z" fill="#002042"/>
<path d="M51.3918 0.0605469L1.4624 49.8846V49.4352L50.9114 0.0605469H51.3918Z" fill="#002042"/>
<path d="M52.863 0.0605469L1.4624 51.3827V50.9033L52.4126 0.0605469H52.863Z" fill="#002042"/>
<path d="M54.3641 0.0605469L1.4624 52.8507V52.4013L53.8837 0.0605469H54.3641Z" fill="#002042"/>
<path d="M55.8353 0.0605469L1.4624 54.3188V53.8694L55.3549 0.0605469H55.8353Z" fill="#002042"/>
<path d="M57.3064 0.0605469L1.4624 55.8168V55.3374L56.8561 0.0605469H57.3064Z" fill="#002042"/>
<path d="M58.8077 0.0605469L1.4624 57.2848V56.8354L58.3273 0.0605469H58.8077Z" fill="#002042"/>
<path d="M60.2788 0.0605469L1.4624 58.7829V58.3035L59.8284 0.0605469H60.2788Z" fill="#002042"/>
<path d="M61.78 0.0605469L1.4624 60.2509V59.8015L61.2996 0.0605469H61.78Z" fill="#002042"/>
<path d="M63.2511 0.0605469L1.4624 61.7489V61.2696L62.8008 0.0605469H63.2511Z" fill="#002042"/>
<path d="M64.7223 0.0605469L1.4624 63.217V62.7676L64.2719 0.0605469H64.7223Z" fill="#002042"/>
<path d="M66.2235 0.0605469L1.4624 64.6851V64.2356L65.7731 0.0605469H66.2235Z" fill="#002042"/>
<path d="M67.6946 0.0605469L1.4624 66.1831V65.7037L67.2443 0.0605469H67.6946Z" fill="#002042"/>
<path d="M69.1958 0.0605469L1.4624 67.6511V67.2017L68.7155 0.0605469H69.1958Z" fill="#002042"/>
<path d="M70.667 0.0605469L1.4624 69.1492V68.6698L70.2166 0.0605469H70.667Z" fill="#002042"/>
<path d="M72.1682 0.0605469L1.4624 70.6172V70.1678L71.6878 0.0605469H72.1682Z" fill="#002042"/>
<path d="M73.6393 0.0605469L1.4624 72.1152V71.6359L73.189 0.0605469H73.6393Z" fill="#002042"/>
<path d="M75.1405 0.0605469L1.4624 73.5833V73.1339L74.6601 0.0605469H75.1405Z" fill="#002042"/>
<path d="M76.6117 0.0605469L1.4624 75.0514V74.602L76.1313 0.0605469H76.6117Z" fill="#002042"/>
<path d="M78.0828 0.0605469L1.4624 76.5494V76.07L77.6325 0.0605469H78.0828Z" fill="#002042"/>
<path d="M79.554 0.0905072L1.4624 78.0174V77.568L79.1037 0.0605469C79.2538 0.0605469 79.4039 0.0905072 79.554 0.0905072Z" fill="#002042"/>
<path d="M80.6649 0.449607L1.4624 79.515V79.0656L80.3646 0.299805C80.4547 0.329765 80.5748 0.389686 80.6649 0.449607Z" fill="#002042"/>
<path d="M81.5656 1.04957L1.4624 80.9838V80.5344L81.3254 0.839844C81.3855 0.899764 81.4755 0.959685 81.5656 1.04957Z" fill="#002042"/>
<path d="M82.2261 1.85851L1.4624 82.4818V82.0324L82.046 1.58887C82.106 1.67875 82.1661 1.76863 82.2261 1.85851Z" fill="#002042"/>
<path d="M82.6765 2.9064L1.4624 83.9492V83.4998L82.5564 2.54688C82.5864 2.66672 82.6464 2.78656 82.6765 2.9064Z" fill="#002042"/>
<path d="M82.7665 3.80566V4.28503L1.4624 85.4477V84.9683L82.7665 3.80566Z" fill="#002042"/>
<path d="M82.7665 5.30371V5.75312L1.4624 86.9157V86.4364L82.7665 5.30371Z" fill="#002042"/>
<path d="M82.7665 6.77148V7.25085L1.4624 88.3835V87.9341L82.7665 6.77148Z" fill="#002042"/>
<path d="M82.7665 8.26953V8.71894L1.4624 89.8816V89.4022L82.7665 8.26953Z" fill="#002042"/>
<path d="M82.7665 9.7373V10.2167L1.4624 91.3493V90.8999L82.7665 9.7373Z" fill="#002042"/>
<path d="M82.7665 11.2354V11.6848L1.4624 92.8474V92.368L82.7665 11.2354Z" fill="#002042"/>
<path d="M82.7665 12.7041V13.1535L1.4624 94.3161V93.8667L82.7665 12.7041Z" fill="#002042"/>
<path d="M82.7665 14.2021V14.6516L1.4624 95.8142V95.3348L82.7665 14.2021Z" fill="#002042"/>
<path d="M82.7665 15.6699V16.1193L1.4624 97.2819V96.8026L82.7665 15.6699Z" fill="#002042"/>
<path d="M82.7665 17.1377V17.6171L1.4624 98.7497V98.3003L82.7665 17.1377Z" fill="#002042"/>
<path d="M82.7665 18.6357V19.0851L1.4624 100.248V99.7684L82.7665 18.6357Z" fill="#002042"/>
<path d="M82.7665 20.1045V20.5839L1.4624 101.717V101.267L82.7665 20.1045Z" fill="#002042"/>
<path d="M82.7665 21.6016V22.051L1.4624 103.214V102.734L82.7665 21.6016Z" fill="#002042"/>
<path d="M82.7665 23.0703V23.5497L1.4624 104.682V104.233L82.7665 23.0703Z" fill="#002042"/>
<path d="M82.7665 24.5684V25.0178L1.4624 106.18V105.701L82.7665 24.5684Z" fill="#002042"/>
<path d="M82.7665 26.0361V26.4855L1.4624 107.648V107.199L82.7665 26.0361Z" fill="#002042"/>
<path d="M82.7665 27.5039V27.9833L1.4624 109.116V108.667L82.7665 27.5039Z" fill="#002042"/>
<path d="M82.7665 29.002V29.4514L1.4624 110.614V110.135L82.7665 29.002Z" fill="#002042"/>
<path d="M82.7665 30.4707V30.9501L1.4624 112.083V111.633L82.7665 30.4707Z" fill="#002042"/>
<path d="M82.7665 31.9688V32.4182L1.4624 113.581V113.101L82.7665 31.9688Z" fill="#002042"/>
<path d="M82.7665 33.4365V33.9159L1.4624 115.049V114.599L82.7665 33.4365Z" fill="#002042"/>
<path d="M82.7665 34.9346V35.384L1.4624 116.547V116.067L82.7665 34.9346Z" fill="#002042"/>
<path d="M82.7665 36.4023V36.8517L1.4624 118.014V117.565L82.7665 36.4023Z" fill="#002042"/>
<path d="M82.7665 37.8701V38.3495L1.4624 119.512V119.033L82.7665 37.8701Z" fill="#002042"/>
<path d="M82.7665 39.3682V39.8176L1.4624 120.98V120.501L82.7665 39.3682Z" fill="#002042"/>
<path d="M82.7665 40.8369V41.3163L2.75333 121.191H2.27295L82.7665 40.8369Z" fill="#002042"/>
<path d="M82.7665 42.335V42.7844L4.22452 121.191H3.74414L82.7665 42.335Z" fill="#002042"/>
<path d="M82.7668 43.8027V44.2821L5.69596 121.19H5.24561L82.7668 43.8027Z" fill="#002042"/>
<path d="M82.7663 45.3008V45.7502L7.19669 121.19H6.71631L82.7663 45.3008Z" fill="#002042"/>
<path d="M82.7666 46.7686V47.2479L8.66813 121.19H8.21777L82.7666 46.7686Z" fill="#002042"/>
<path d="M82.7666 48.2363V48.7157L10.1693 121.19H9.68896L82.7666 48.2363Z" fill="#002042"/>
<path d="M82.7664 49.7344V50.1838L11.6403 121.19H11.1899L82.7664 49.7344Z" fill="#002042"/>
<path d="M82.7664 51.2031V51.6825L13.1415 121.191H12.6611L82.7664 51.2031Z" fill="#002042"/>
<path d="M82.7665 52.7012V53.1506L14.6127 121.191H14.1323L82.7665 52.7012Z" fill="#002042"/>
<path d="M82.7668 54.1689V54.6483L16.0841 121.19H15.6338L82.7668 54.1689Z" fill="#002042"/>
<path d="M82.7668 55.667V56.1164L17.5854 121.19H17.105L82.7668 55.667Z" fill="#002042"/>
<path d="M82.7666 57.1348V57.6141L19.0563 121.19H18.606L82.7666 57.1348Z" fill="#002042"/>
<path d="M82.7666 58.6035V59.0829L20.5575 121.191H20.0771L82.7666 58.6035Z" fill="#002042"/>
<path d="M82.7664 60.1016V60.551L22.0285 121.191H21.5781L82.7664 60.1016Z" fill="#002042"/>
<path d="M82.7664 61.5693V62.0487L23.5297 121.19H23.0493L82.7664 61.5693Z" fill="#002042"/>
<path d="M82.7665 63.0674V63.5168L25.0009 121.19H24.5205L82.7665 63.0674Z" fill="#002042"/>
<path d="M82.7668 64.5352V65.0145L26.4723 121.19H26.022L82.7668 64.5352Z" fill="#002042"/>
<path d="M82.7668 66.0332V66.4826L27.9735 121.19H27.4932L82.7668 66.0332Z" fill="#002042"/>
<path d="M82.7666 67.501V67.9803L29.4445 121.19H28.9941L82.7666 67.501Z" fill="#002042"/>
<path d="M82.7666 68.9697V69.4491L30.9457 121.191H30.4653L82.7666 68.9697Z" fill="#002042"/>
<path d="M82.7664 70.4678V70.9172L32.4167 121.191H31.9663L82.7664 70.4678Z" fill="#002042"/>
<path d="M82.7664 71.9355V72.4149L33.9179 121.19H33.4375L82.7664 71.9355Z" fill="#002042"/>
<path d="M82.7665 73.4336V73.883L35.3891 121.19H34.9087L82.7665 73.4336Z" fill="#002042"/>
<path d="M82.7667 74.9014V75.3807L36.8605 121.19H36.4102L82.7667 74.9014Z" fill="#002042"/>
<path d="M82.7668 76.3994V76.8488L38.3617 121.19H37.8813L82.7668 76.3994Z" fill="#002042"/>
<path d="M82.7666 77.8672V78.3465L39.8327 121.19H39.3823L82.7666 77.8672Z" fill="#002042"/>
<path d="M82.7666 79.3652V79.8146L41.3339 121.19H40.8535L82.7666 79.3652Z" fill="#002042"/>
<path d="M82.7664 80.834V81.2834L42.8048 121.191H42.3545L82.7664 80.834Z" fill="#002042"/>
<path d="M82.7664 82.3018V82.7811L44.3061 121.19H43.8257L82.7664 82.3018Z" fill="#002042"/>
<path d="M82.7664 83.7998V84.2492L45.7773 121.19H45.2969L82.7664 83.7998Z" fill="#002042"/>
<path d="M82.7667 85.2676V85.7469L47.2487 121.19H46.7983L82.7667 85.2676Z" fill="#002042"/>
<path d="M82.7668 86.7656V87.215L48.7499 121.19H48.2695L82.7668 86.7656Z" fill="#002042"/>
<path d="M82.7665 88.2344V88.7137L50.2209 121.191H49.7705L82.7665 88.2344Z" fill="#002042"/>
<path d="M82.7666 89.7314V90.1809L51.7221 121.19H51.2417L82.7666 89.7314Z" fill="#002042"/>
<path d="M82.7663 91.2002V91.6796L53.193 121.191H52.7427L82.7663 91.2002Z" fill="#002042"/>
<path d="M82.7664 92.668V93.1473L54.6942 121.19H54.2139L82.7664 92.668Z" fill="#002042"/>
<path d="M82.7664 94.166V94.6154L56.1654 121.19H55.6851L82.7664 94.166Z" fill="#002042"/>
<path d="M82.7667 95.6338V96.1132L57.6369 121.19H57.1865L82.7667 95.6338Z" fill="#002042"/>
<path d="M82.7667 97.1318V97.5812L59.1381 121.19H58.6577L82.7667 97.1318Z" fill="#002042"/>
<path d="M82.7665 98.6006V99.08L60.609 121.191H60.1587L82.7665 98.6006Z" fill="#002042"/>
<path d="M82.7666 100.099V100.548L62.1103 121.191H61.6299L82.7666 100.099Z" fill="#002042"/>
<path d="M82.7663 101.566V102.046L63.5812 121.19H63.1309L82.7663 101.566Z" fill="#002042"/>
<path d="M82.7664 103.034V103.514L65.0824 121.19H64.6021L82.7664 103.034Z" fill="#002042"/>
<path d="M82.7664 104.532V104.982L66.5536 121.19H66.0732L82.7664 104.532Z" fill="#002042"/>
<path d="M82.7667 106V106.479L68.0251 121.19H67.5747L82.7667 106Z" fill="#002042"/>
<path d="M82.7667 107.498V107.947L69.5263 121.19H69.0459L82.7667 107.498Z" fill="#002042"/>
<path d="M82.7665 108.967V109.446L70.9972 121.191H70.5469L82.7665 108.967Z" fill="#002042"/>
<path d="M82.7665 110.465V110.914L72.4984 121.191H72.0181L82.7665 110.465Z" fill="#002042"/>
<path d="M82.7663 111.933V112.412L73.9694 121.19H73.519L82.7663 111.933Z" fill="#002042"/>
<path d="M82.7664 113.4V113.88L75.4706 121.19H74.9902L82.7664 113.4Z" fill="#002042"/>
<path d="M82.7664 114.898V115.348L76.9418 121.19H76.4614L82.7664 114.898Z" fill="#002042"/>
<path d="M82.7667 116.366V116.846L78.4132 121.19H77.9629L82.7667 116.366Z" fill="#002042"/>
<path d="M82.7364 117.895C82.7064 118.104 82.6764 118.284 82.6163 118.494L80.0343 121.07C79.8542 121.13 79.644 121.16 79.4639 121.19L82.7364 117.895Z" fill="#002042"/>
<path d="M1.4925 0.0605469H0.531738V121.19H1.4925V0.0605469Z" fill="#002042"/>
<path d="M20.8579 86.3167C20.8579 87.1257 20.5877 87.7549 20.0473 88.2043C19.5068 88.6537 18.7262 88.8634 17.7354 88.8634H16.9248V91.7995H15.6338V83.9199H17.9156C18.9064 83.9199 19.6269 84.1296 20.1373 84.5191C20.6177 84.9386 20.8579 85.5378 20.8579 86.3167ZM16.9248 87.7848H17.6154C18.2759 87.7848 18.7563 87.665 19.0565 87.4552C19.3567 87.2156 19.5068 86.856 19.5068 86.3767C19.5068 85.9273 19.3567 85.5977 19.0865 85.358C18.8163 85.1483 18.3659 85.0285 17.7955 85.0285H16.8948V87.7848H16.9248Z" fill="#E9D499"/>
<path d="M27.3131 91.7992L26.5325 89.6121H23.5301L22.7495 91.7992H21.3984L24.3408 83.8896H25.7519L28.6942 91.7992H27.3131ZM26.2022 88.5035L25.4516 86.3464C25.3916 86.1966 25.3315 85.9869 25.2415 85.6573C25.1514 85.3577 25.0914 85.118 25.0313 84.9682C24.9412 85.4176 24.7911 85.897 24.611 86.4063L23.8904 88.4436H26.2022V88.5035Z" fill="#E9D499"/>
<path d="M34.2784 89.672C34.2784 90.3611 34.0382 90.9304 33.5278 91.3199C33.0174 91.7093 32.3268 91.9191 31.4261 91.9191C30.5254 91.9191 29.8048 91.7693 29.2344 91.4996V90.2712C29.5947 90.451 29.985 90.5708 30.3753 90.6607C30.7656 90.7506 31.1559 90.8105 31.5162 90.8105C32.0266 90.8105 32.4169 90.7206 32.6571 90.5109C32.8973 90.3312 33.0174 90.0615 33.0174 89.732C33.0174 89.4324 32.8973 89.1927 32.6871 88.9829C32.4769 88.7732 31.9966 88.5335 31.306 88.2639C30.5854 87.9643 30.075 87.6347 29.7748 87.2752C29.4746 86.9157 29.3244 86.4663 29.3244 85.927C29.3244 85.2679 29.5646 84.7585 30.015 84.369C30.4954 83.9796 31.0958 83.7998 31.9065 83.7998C32.6571 83.7998 33.4077 83.9796 34.1583 84.3091L33.7379 85.3577C33.0474 85.0581 32.4169 84.9083 31.8464 84.9083C31.4261 84.9083 31.1259 84.9982 30.8857 85.178C30.6755 85.3577 30.5554 85.5974 30.5554 85.897C30.5554 86.1068 30.5854 86.2865 30.6755 86.4363C30.7656 86.5861 30.9157 86.706 31.0958 86.8558C31.306 86.9756 31.6363 87.1554 32.1767 87.3651C32.7471 87.6048 33.1675 87.8445 33.4377 88.0242C33.7079 88.2339 33.9181 88.4736 34.0382 88.7433C34.2183 89.0129 34.2784 89.3125 34.2784 89.672Z" fill="#E9D499"/>
<path d="M40.3731 89.672C40.3731 90.3611 40.1329 90.9304 39.6225 91.3199C39.1121 91.7093 38.4215 91.9191 37.5208 91.9191C36.6201 91.9191 35.8996 91.7693 35.3291 91.4996V90.2712C35.6894 90.451 36.0797 90.5708 36.47 90.6607C36.8603 90.7506 37.2506 90.8105 37.6109 90.8105C38.1213 90.8105 38.5116 90.7206 38.7518 90.5109C38.992 90.3312 39.1121 90.0615 39.1121 89.732C39.1121 89.4324 38.992 89.1927 38.7818 88.9829C38.5717 88.7732 38.0913 88.5335 37.4007 88.2639C36.6802 87.9643 36.1698 87.6347 35.8695 87.2752C35.5693 86.9157 35.4192 86.4663 35.4192 85.927C35.4192 85.2679 35.6594 84.7585 36.1097 84.369C36.5901 83.9796 37.1906 83.7998 38.0012 83.7998C38.7518 83.7998 39.5024 83.9796 40.253 84.3091L39.8327 85.3577C39.1421 85.0581 38.5116 84.9083 37.9412 84.9083C37.5208 84.9083 37.2206 84.9982 36.9804 85.178C36.7702 85.3577 36.6501 85.5974 36.6501 85.897C36.6501 86.1068 36.6802 86.2865 36.7702 86.4363C36.8603 86.5861 37.0104 86.706 37.1906 86.8558C37.4007 86.9756 37.731 87.1554 38.2714 87.3651C38.8419 87.6048 39.2622 87.8445 39.5324 88.0242C39.8026 88.2339 40.0128 88.4736 40.1329 88.7433C40.283 89.0129 40.3731 89.3125 40.3731 89.672Z" fill="#E9D499"/>
<path d="M47.0986 86.3167C47.0986 87.1257 46.8284 87.7549 46.288 88.2043C45.7476 88.6537 44.967 88.8634 43.9762 88.8634H43.1655V91.7995H41.8745V83.9199H44.1563C45.1471 83.9199 45.8677 84.1296 46.3781 84.5191C46.8584 84.9386 47.0986 85.5378 47.0986 86.3167ZM43.1655 87.7848H43.8561C44.5166 87.7848 44.997 87.665 45.2972 87.4552C45.5975 87.2156 45.7476 86.856 45.7476 86.3767C45.7476 85.9273 45.5974 85.5977 45.3272 85.358C45.057 85.1483 44.6067 85.0285 44.0362 85.0285H43.1355V87.7848H43.1655Z" fill="#E9D499"/>
<path d="M55.6856 87.8448C55.6856 89.1331 55.3554 90.1218 54.7249 90.8408C54.0944 91.5599 53.1636 91.9194 51.9927 91.9194C50.7918 91.9194 49.8911 91.5599 49.2606 90.8708C48.6301 90.1517 48.2998 89.163 48.2998 87.8747C48.2998 86.5864 48.6301 85.5678 49.2606 84.8787C49.8911 84.1896 50.8218 83.8301 52.0227 83.8301C53.1937 83.8301 54.0944 84.1896 54.7549 84.8787C55.3554 85.5678 55.6856 86.5864 55.6856 87.8448ZM49.6509 87.8448C49.6509 88.8035 49.861 89.5525 50.2513 90.0618C50.6417 90.5712 51.2121 90.8108 51.9927 90.8108C52.7733 90.8108 53.3438 90.5712 53.7341 90.0618C54.1244 89.5525 54.3045 88.8335 54.3045 87.8448C54.3045 86.886 54.1244 86.137 53.7341 85.6577C53.3438 85.1483 52.7733 84.9087 51.9927 84.9087C51.2121 84.9087 50.6417 85.1483 50.2513 85.6577C49.861 86.167 49.6509 86.886 49.6509 87.8448Z" fill="#E9D499"/>
<path d="M58.6577 88.6537V91.7995H57.3667V83.9199H59.5884C60.6092 83.9199 61.3598 84.0997 61.8402 84.4892C62.3206 84.8787 62.5608 85.4479 62.5608 86.1969C62.5608 87.1856 62.0504 87.8747 61.0296 88.2941L63.2513 91.7695H61.7802L59.8887 88.6237H58.6577V88.6537ZM58.6577 87.6051H59.5584C60.1589 87.6051 60.5792 87.4852 60.8494 87.2755C61.1196 87.0658 61.2397 86.7362 61.2397 86.2868C61.2397 85.8374 61.0896 85.5078 60.7894 85.3281C60.4892 85.1483 60.0688 85.0285 59.4684 85.0285H58.6277V87.6051H58.6577Z" fill="#E9D499"/>
<path d="M67.1546 91.7995H65.8636V85.0285H63.5518V83.9199H69.4664V85.0285H67.1546V91.7995Z" fill="#E9D499"/>
<path d="M43.4052 105.37C43.4052 104.621 42.7747 103.992 42.0242 103.992C41.2736 103.992 40.6431 104.621 40.6431 105.37C40.6431 106.119 41.2736 106.749 42.0242 106.749C42.8048 106.749 43.4052 106.119 43.4052 105.37Z" fill="#E9D499"/>
<path d="M42.0244 107.678C40.9135 107.678 39.9828 106.899 39.7426 105.851H36.8003V108.427H47.3686V105.851H44.2762C44.096 106.899 43.1653 107.678 42.0244 107.678Z" fill="#E9D499"/>
<path d="M36.8301 102.165V104.742H39.8024C40.0726 103.783 40.9733 103.064 42.0242 103.064C43.075 103.064 43.9757 103.783 44.2459 104.742H47.3684V102.165H36.8301Z" fill="#E9D499"/>
<path d="M42.7151 29.6611H42.4449C42.2948 29.6611 42.1747 29.6611 42.0246 29.6611C41.7543 29.6611 41.4541 29.6611 41.1238 29.6911C41.0038 29.6911 40.9137 29.6911 40.7936 29.6911H40.5834C29.4446 30.4401 20.6177 39.6979 20.6177 50.9929C20.6177 62.5277 29.8349 71.9352 41.304 72.3247H41.6943C41.8144 72.3247 41.9345 72.3247 42.0546 72.3247C53.8539 72.3247 63.4615 62.7374 63.4615 50.963C63.4314 39.4582 54.2142 30.0207 42.7151 29.6611ZM42.3848 43.6526C45.2971 43.6227 48.1494 43.0834 50.8515 42.0647C51.8723 44.7012 52.4428 47.4876 52.5028 50.3338H42.4149V43.6526H42.3848ZM42.3848 42.3344V30.9494C45.9276 33.6758 48.6298 37.0613 50.3411 40.8364C47.7891 41.7951 45.117 42.3044 42.3848 42.3344ZM41.0638 42.3344C38.3617 42.2145 35.7196 41.6453 33.2576 40.6566C34.969 36.9715 37.6111 33.6459 41.0638 31.0093V42.3344ZM41.0638 43.6526V50.3637H31.0059C31.0659 47.4276 31.6364 44.5814 32.7172 41.885C35.3593 42.9336 38.1815 43.5328 41.0638 43.6526ZM29.6848 50.3338H21.9687C22.1189 45.7798 23.8002 41.5854 26.5323 38.2897C28.0936 39.5181 29.7449 40.5367 31.5163 41.3457C30.3754 44.1919 29.7449 47.2179 29.6848 50.3338ZM29.6848 51.652C29.8049 54.7679 30.4654 57.7939 31.6664 60.6102C29.8349 61.4491 28.1236 62.4677 26.5323 63.7261C23.8002 60.4304 22.1189 56.236 21.9687 51.652H29.6848ZM31.0059 51.652H41.0638V58.3931C38.2416 58.513 35.5094 59.0822 32.8974 60.1009C31.7565 57.4344 31.126 54.5882 31.0059 51.652ZM41.0638 59.7114V70.5271C37.7312 67.9804 35.1792 64.8046 33.4378 61.2993C35.8697 60.3705 38.4217 59.8312 41.0638 59.7114ZM42.3848 59.7114C45.0569 59.7413 47.669 60.2207 50.131 61.1195C48.4196 64.7148 45.7775 67.9505 42.3848 70.557V59.7114ZM42.3848 58.3931V51.652H52.4728C52.3527 54.5282 51.7522 57.2846 50.6714 59.8911C48.0293 58.9324 45.2071 58.4231 42.3848 58.3931ZM53.7938 51.652H62.1104C61.9603 56.236 60.279 60.4304 57.5468 63.7261C55.8054 62.3779 53.9139 61.2394 51.9024 60.4005C53.0433 57.6441 53.6737 54.678 53.7938 51.652ZM53.7938 50.3338C53.7338 47.3078 53.1333 44.3417 52.0525 41.5554C54.004 40.7165 55.8655 39.608 57.5468 38.2598C60.279 41.5554 61.9603 45.7498 62.1104 50.3038H53.7938V50.3338ZM56.6761 37.301C55.0849 38.5294 53.3735 39.5481 51.5421 40.357C49.9808 36.9115 47.639 33.7657 44.6366 31.1292C49.3804 31.7284 53.5837 34.0054 56.6761 37.301ZM38.722 31.2191C35.8397 33.7657 33.5879 36.8217 32.0267 40.1173C30.3754 39.3683 28.8141 38.4096 27.373 37.2711C30.3453 34.1552 34.2784 31.9681 38.722 31.2191ZM27.403 64.7148C28.9042 63.5463 30.4955 62.5876 32.2068 61.8086C33.8581 65.2241 36.26 68.28 39.3525 70.8566C34.6688 70.2574 30.4955 68.0104 27.403 64.7148ZM44.0061 70.9465C47.2187 68.31 49.6806 65.1342 51.3619 61.5989C53.2534 62.4078 55.0248 63.4564 56.6761 64.7148C53.4035 68.1602 48.96 70.4672 44.0061 70.9465Z" fill="#E9D499"/>
</svg>
