<svg width="35" height="30" viewBox="0 0 35 30" fill="none" xmlns="http://www.w3.org/2000/svg">
<path d="M33.1518 23.5606H1.84818C0.831041 23.5606 0 22.7556 0 21.7704V1.79012C0 0.804931 0.831041 0 1.84818 0H33.1518C34.1722 0 35 0.804931 35 1.79012V21.7704C35.0032 22.7556 34.1722 23.5606 33.1518 23.5606ZM1.84818 1.37677C1.61395 1.37677 1.42143 1.56324 1.42143 1.79012V21.7704C1.42143 21.9973 1.61395 22.1838 1.84818 22.1838H33.1518C33.386 22.1838 33.5786 21.9973 33.5786 21.7704V1.79012C33.5786 1.56014 33.386 1.37677 33.1518 1.37677H1.84818Z" fill="#00CF80"/>
<path d="M16.1042 24.5303H14.6828V27.8432H16.1042V24.5303Z" fill="#00CF80"/>
<path d="M20.3172 24.5303H18.8957V27.8432H20.3172V24.5303Z" fill="#00CF80"/>
<path d="M24.5109 30H10.4923C10.1008 30 9.78317 29.6923 9.78317 29.3101C9.78317 28.9309 10.1008 28.6201 10.4923 28.6201H24.5109C24.9023 28.6201 25.22 28.9278 25.22 29.3101C25.22 29.6923 24.9023 30 24.5109 30Z" fill="#00CF80"/>
<path d="M5.76273 18.8458C4.28033 18.8458 3.07709 17.6804 3.07709 16.2446C3.07709 14.8088 4.28033 13.6433 5.76273 13.6433C7.24513 13.6433 8.44837 14.8119 8.44837 16.2446C8.44837 17.6773 7.24192 18.8458 5.76273 18.8458ZM5.76273 15.0201C5.06645 15.0201 4.49852 15.5702 4.49852 16.2446C4.49852 16.919 5.06645 17.4691 5.76273 17.4691C6.45901 17.4691 7.02694 16.919 7.02694 16.2446C7.02694 15.5702 6.45901 15.0201 5.76273 15.0201Z" fill="#00CF80"/>
<path d="M12.3565 10.9396C10.8741 10.9396 9.67087 9.77104 9.67087 8.33832C9.67087 6.90561 10.8741 5.73706 12.3565 5.73706C13.8389 5.73706 15.0422 6.90561 15.0422 8.33832C15.0422 9.77104 13.8389 10.9396 12.3565 10.9396ZM12.3565 7.11383C11.6602 7.11383 11.0923 7.66392 11.0923 8.33832C11.0923 9.01273 11.6602 9.56281 12.3565 9.56281C13.0528 9.56281 13.6207 9.01273 13.6207 8.33832C13.6207 7.66392 13.0528 7.11383 12.3565 7.11383Z" fill="#00CF80"/>
<path d="M19.7108 18.1779C18.2284 18.1779 17.0251 17.0093 17.0251 15.5766C17.0251 14.1439 18.2284 12.9753 19.7108 12.9753C21.1932 12.9753 22.3964 14.1439 22.3964 15.5766C22.3964 17.0093 21.19 18.1779 19.7108 18.1779ZM19.7108 14.3521C19.0145 14.3521 18.4466 14.9022 18.4466 15.5766C18.4466 16.251 19.0145 16.8011 19.7108 16.8011C20.4071 16.8011 20.975 16.251 20.975 15.5766C20.975 14.9022 20.4071 14.3521 19.7108 14.3521Z" fill="#00CF80"/>
<path d="M29.2212 13.7118C27.742 13.7118 26.5356 12.5464 26.5356 11.1105C26.5356 9.67472 27.7388 8.50928 29.2212 8.50928C30.7036 8.50928 31.9069 9.67783 31.9069 11.1105C31.9069 12.5433 30.7004 13.7118 29.2212 13.7118ZM29.2212 9.88605C28.5249 9.88605 27.957 10.4361 27.957 11.1105C27.957 11.7849 28.5249 12.335 29.2212 12.335C29.9175 12.335 30.4854 11.7849 30.4854 11.1105C30.4854 10.433 29.9175 9.88605 29.2212 9.88605Z" fill="#00CF80"/>
<path d="M6.76381 15.1476C6.59376 15.1476 6.42049 15.0886 6.28252 14.9674C5.99374 14.7094 5.97449 14.2743 6.2376 13.9946L10.5821 9.40431C10.8484 9.12461 11.2976 9.10596 11.5864 9.36391C11.8752 9.62186 11.8945 10.057 11.6313 10.3367L7.28682 14.9238C7.14564 15.0699 6.95313 15.1476 6.76381 15.1476Z" fill="#00CF80"/>
<path d="M18.3471 14.7002C18.1578 14.7002 17.9653 14.6256 17.8273 14.4795L13.547 10.0197C13.2806 9.74004 13.2967 9.30494 13.5855 9.04699C13.8742 8.78904 14.3235 8.80457 14.5898 9.08428L18.8669 13.544C19.1332 13.8237 19.1172 14.2588 18.8284 14.5168C18.6936 14.638 18.5204 14.7002 18.3471 14.7002Z" fill="#00CF80"/>
<path d="M21.7033 15.6572C21.4306 15.6572 21.1739 15.5049 21.0552 15.2501C20.8948 14.902 21.0552 14.4949 21.4146 14.3395L27.4372 11.7258C27.7966 11.5704 28.2169 11.7258 28.3773 12.0739C28.5378 12.4219 28.3773 12.8291 28.018 12.9845L21.9953 15.5982C21.8991 15.6386 21.7996 15.6572 21.7033 15.6572Z" fill="#00CF80"/>
</svg>
