<svg width="44" height="30" viewBox="0 0 44 30" fill="none" xmlns="http://www.w3.org/2000/svg">
<path d="M41.3009 0H2.69912C1.76184 0 0.997803 0.786465 0.997803 1.75126V12.1125C0.997803 13.0773 1.76184 13.8637 2.69912 13.8637H8.3317V12.1445H2.69912C2.68136 12.1445 2.66803 12.1308 2.66803 12.1125V1.75126C2.66803 1.73297 2.68136 1.71925 2.69912 1.71925H41.3009C41.3187 1.71925 41.332 1.73297 41.332 1.75126V12.1125C41.332 12.1308 41.3187 12.1445 41.3009 12.1445H36.5923V13.8637H41.3009C42.2382 13.8637 43.0022 13.0773 43.0022 12.1125V1.75126C42.9978 0.786465 42.2382 0 41.3009 0Z" fill="#00CF80"/>
<path d="M34.9573 9.24585H9.96161C9.06431 9.24585 8.33136 9.99573 8.33136 10.9239V12.1494V13.8686V17.1151V18.9303V21.6098C8.33136 22.5335 9.05986 23.2833 9.95717 23.2833H11.6185H13.5331H31.3814H33.2959H34.9573C35.8546 23.2833 36.5875 22.5334 36.5875 21.6052V18.9258V17.1105V13.864V12.1448V10.9194C36.5875 9.99574 35.859 9.24585 34.9573 9.24585ZM27.4457 10.9605C27.268 13.6308 25.1003 15.7479 22.4617 15.7479C19.8231 15.7479 17.6553 13.6308 17.4776 10.9605H27.4457ZM12.2138 21.5595H10.0016V18.7337C11.2631 18.9989 12.2138 20.1466 12.2138 21.5229V21.5595ZM34.9217 21.5595H32.7096V21.5229C32.7096 20.1512 33.6602 18.9989 34.9217 18.7337V21.5595ZM34.9217 17.0008C32.7362 17.2797 31.0394 19.2047 31.0394 21.5275C31.0394 21.5412 31.0394 21.5504 31.0394 21.5641H13.8795C13.8795 21.5504 13.8795 21.5412 13.8795 21.5275C13.8795 19.2047 12.1827 17.2797 9.99715 17.0008V10.9605H15.7985C15.9806 14.5774 18.8947 17.4626 22.4572 17.4626C26.0153 17.4626 28.9338 14.5774 29.1159 10.9605H34.9173V17.0008H34.9217Z" fill="#00CF80"/>
<path d="M35.7524 25.0071H9.16647C8.7045 25.0071 8.33136 25.3912 8.33136 25.8667C8.33136 26.3422 8.7045 26.7263 9.16647 26.7263H35.7569C36.2188 26.7263 36.592 26.3422 36.592 25.8667C36.5875 25.3912 36.2144 25.0071 35.7524 25.0071Z" fill="#00CF80"/>
<path d="M35.7524 28.2808H9.16647C8.7045 28.2808 8.33136 28.6648 8.33136 29.1404C8.33136 29.6159 8.7045 30 9.16647 30H35.7569C36.2188 30 36.592 29.6159 36.592 29.1404C36.592 28.6648 36.2144 28.2808 35.7524 28.2808Z" fill="#00CF80"/>
<path d="M9.16647 7.21046H35.7569C36.2188 7.21046 36.592 6.82637 36.592 6.35084C36.592 5.8753 36.2188 5.49121 35.7569 5.49121H9.16647C8.7045 5.49121 8.33136 5.8753 8.33136 6.35084C8.33136 6.82637 8.7045 7.21046 9.16647 7.21046Z" fill="#00CF80"/>
</svg>
