<svg width="28" height="30" viewBox="0 0 28 30" fill="none" xmlns="http://www.w3.org/2000/svg">
<path fill-rule="evenodd" clip-rule="evenodd" d="M5.6681 26.4564C7.39369 26.4564 8.79256 25.0575 8.79256 23.3319C8.79256 21.6064 7.39369 20.2075 5.6681 20.2075C3.94251 20.2075 2.54364 21.6064 2.54364 23.3319C2.54364 25.0575 3.94251 26.4564 5.6681 26.4564ZM5.6681 28.5394C8.54409 28.5394 10.8755 26.2079 10.8755 23.3319C10.8755 20.456 8.54409 18.1245 5.6681 18.1245C2.79211 18.1245 0.460663 20.456 0.460663 23.3319C0.460663 26.2079 2.79211 28.5394 5.6681 28.5394Z" fill="#00CF80" stroke="#00CF80" stroke-width="0.2"/>
<path fill-rule="evenodd" clip-rule="evenodd" d="M22.3319 9.79259C24.0575 9.79259 25.4564 8.39372 25.4564 6.66813C25.4564 4.94254 24.0575 3.54367 22.3319 3.54367C20.6063 3.54367 19.2074 4.94254 19.2074 6.66813C19.2074 8.39372 20.6063 9.79259 22.3319 9.79259ZM22.3319 11.8756C25.2079 11.8756 27.5393 9.54412 27.5393 6.66813C27.5393 3.79214 25.2079 1.46069 22.3319 1.46069C19.4559 1.46069 17.1245 3.79214 17.1245 6.66813C17.1245 9.54412 19.4559 11.8756 22.3319 11.8756Z" fill="#00CF80" stroke="#00CF80" stroke-width="0.2"/>
<path fill-rule="evenodd" clip-rule="evenodd" d="M24.4698 28.2022L1.52224 3.2065L3.05665 1.79782L26.0042 26.7935L24.4698 28.2022Z" fill="#00CF80" stroke="#00CF80" stroke-width="0.2"/>
</svg>
