<svg width="30" height="30" viewBox="0 0 30 30" fill="none" xmlns="http://www.w3.org/2000/svg">
<path d="M1.99994 12.3464H6.9949C7.27511 12.3464 7.47488 12.5462 7.47488 12.8264V27.9963C7.47488 28.2765 7.27511 28.4763 6.9949 28.4763H1.99994C1.71974 28.4763 1.51996 28.2765 1.51996 27.9963V12.8264C1.51996 12.5462 1.71974 12.3464 1.99994 12.3464Z" stroke="#00CF80" stroke-width="2"/>
<path d="M28.4783 7.72087L28.4722 7.77592V7.8313V27.9961C28.4722 28.2763 28.2724 28.4761 27.9922 28.4761H23.0897C22.8095 28.4761 22.6098 28.2763 22.6098 27.9961V7.8313C22.6098 7.5511 22.8095 7.35132 23.0897 7.35132H27.9922C28.1548 7.35132 28.2988 7.41647 28.3872 7.50111C28.4664 7.57705 28.4863 7.64866 28.4783 7.72087Z" stroke="#00CF80" stroke-width="2"/>
<path d="M17.9334 1.89348L17.9273 1.94853V2.00391V27.9962C17.9273 28.2764 17.7275 28.4762 17.4473 28.4762H12.5449C12.2646 28.4762 12.0649 28.2764 12.0649 27.9962V2.00391C12.0649 1.7237 12.2646 1.52393 12.5449 1.52393H17.5398C17.6272 1.52393 17.7476 1.56782 17.8386 1.65884C17.9195 1.73969 17.9417 1.8186 17.9334 1.89348Z" stroke="#00CF80" stroke-width="2"/>
</svg>
