<svg width="17" height="17" viewBox="0 0 17 17" fill="none" xmlns="http://www.w3.org/2000/svg">
<path d="M13.7423 5.94967L10.9136 3.12096C10.8362 3.04352 10.7311 3 10.6215 3C10.5119 3 10.4068 3.04352 10.3294 3.12096L2.07301 11.3773C1.99865 11.4517 1.95541 11.5517 1.95221 11.6568L1.86347 14.5743C1.86 14.6882 1.90374 14.7985 1.98427 14.879C2.06188 14.9566 2.16698 15 2.27637 15C2.28056 15 2.28475 14.9999 2.28899 14.9998L5.2064 14.9109C5.31155 14.9077 5.41153 14.8646 5.48595 14.7902L13.7423 6.53393C13.9036 6.37259 13.9036 6.11101 13.7423 5.94967ZM5.01747 14.0901L2.70266 14.1606L2.77311 11.8457L7.79249 6.82631L10.0371 9.07053L5.01747 14.0901ZM10.6214 8.48633L8.3767 6.24216L10.6214 3.99738L12.8658 6.24183L10.6214 8.48633Z" fill="#02194A"/>
</svg>
