<svg width="17" height="18" viewBox="0 0 17 18" fill="none" xmlns="http://www.w3.org/2000/svg">
<path d="M13.7423 6.20943L10.9136 3.38073C10.8362 3.30328 10.7311 3.25977 10.6215 3.25977C10.5119 3.25977 10.4068 3.30328 10.3294 3.38073L2.07301 11.637C1.99865 11.7115 1.95541 11.8114 1.95221 11.9166L1.86347 14.8341C1.86 14.9479 1.90374 15.0582 1.98427 15.1388C2.06188 15.2164 2.16698 15.2598 2.27637 15.2598C2.28056 15.2598 2.28475 15.2597 2.28899 15.2595L5.2064 15.1707C5.31155 15.1675 5.41153 15.1243 5.48595 15.05L13.7423 6.79369C13.9036 6.63236 13.9036 6.37077 13.7423 6.20943ZM5.01747 14.3499L2.70266 14.4204L2.77311 12.1055L7.79249 7.08607L10.0371 9.3303L5.01747 14.3499ZM10.6214 8.74609L8.3767 6.50192L10.6214 4.25714L12.8658 6.50159L10.6214 8.74609Z" fill="white"/>
</svg>
