<svg width="16" height="15" viewBox="0 0 16 15" fill="none" xmlns="http://www.w3.org/2000/svg">
<path d="M12.375 6.875H3.625C2.93464 6.875 2.375 7.43464 2.375 8.125V12.5C2.375 13.1904 2.93464 13.75 3.625 13.75H12.375C13.0654 13.75 13.625 13.1904 13.625 12.5V8.125C13.625 7.43464 13.0654 6.875 12.375 6.875Z" stroke="#00CF80" stroke-linecap="round" stroke-linejoin="round"/>
<path d="M4.875 6.875V4.375C4.875 3.5462 5.20424 2.75134 5.79029 2.16529C6.37634 1.57924 7.1712 1.25 8 1.25C8.8288 1.25 9.62366 1.57924 10.2097 2.16529C10.7958 2.75134 11.125 3.5462 11.125 4.375V6.875" stroke="#00CF80" stroke-linecap="round" stroke-linejoin="round"/>
</svg>
