<svg width="18" height="18" viewBox="0 0 18 18" fill="none" xmlns="http://www.w3.org/2000/svg">
<path d="M10.4258 12.8333H6.30078M10.4258 12.8333H13.8633L12.8973 11.8967C12.7676 11.7709 12.6647 11.6215 12.5946 11.4571C12.5244 11.2927 12.4883 11.1166 12.4883 10.9387V8.83333C12.4884 8.00596 12.224 7.19889 11.7315 6.52326C11.239 5.84762 10.5426 5.33664 9.73828 5.06067V4.83333C9.73828 4.47971 9.59342 4.14057 9.33555 3.89052C9.07769 3.64048 8.72795 3.5 8.36328 3.5C7.99861 3.5 7.64887 3.64048 7.39101 3.89052C7.13315 4.14057 6.98828 4.47971 6.98828 4.83333V5.06067C5.38641 5.61 4.23828 7.092 4.23828 8.83333V10.9393C4.23828 11.298 4.09116 11.6427 3.82922 11.8967L2.86328 12.8333H6.30078H10.4258ZM10.4258 12.8333V13.5C10.4258 14.0304 10.2085 14.5391 9.82169 14.9142C9.4349 15.2893 8.91029 15.5 8.36328 15.5C7.81627 15.5 7.29167 15.2893 6.90487 14.9142C6.51808 14.5391 6.30078 14.0304 6.30078 13.5V12.8333H10.4258Z" stroke="#00CF80" stroke-linecap="round" stroke-linejoin="round"/>
</svg>
